<?xml version="1.0" encoding="utf-8"?>
<!-- Generator: Adobe Illustrator 19.0.0, SVG Export Plug-In . SVG Version: 6.00 Build 0)  -->
<svg version="1.1" id="图层_1" xmlns="http://www.w3.org/2000/svg" xmlns:xlink="http://www.w3.org/1999/xlink" x="0px" y="0px"
	 viewBox="0 0 20 20" style="enable-background:new 0 0 20 20;" xml:space="preserve">
<style type="text/css">
	.st0{fill:#9AA5AF;}
</style>
<g id="XMLID_9_">
	<g>
		<path id="XMLID_11_" class="st0" d="M6.6,0H2.8C1.3,0,0,1.3,0,2.8v3.8c0,1.5,1.3,2.7,2.8,2.7h6.5V2.8C9.3,1.3,8.1,0,6.6,0L6.6,0z
			 M8,8H2.8C2,8,1.4,7.4,1.4,6.6V2.8C1.4,2,2,1.4,2.8,1.4h3.8C7.4,1.4,8,2,8,2.8V8L8,8L8,8z M17.3,0h-3.8c-1.5,0-2.8,1.3-2.8,2.8
			v6.5h6.6c1.5,0,2.7-1.2,2.7-2.7V2.8C20,1.3,18.8,0,17.3,0L17.3,0z M17.3,8H12V2.8c0-0.8,0.7-1.4,1.4-1.4h3.8
			c0.8,0,1.3,0.6,1.3,1.4v3.8l0,0C18.6,7.4,18,8,17.3,8L17.3,8z M0,13.5v3.8C0,18.8,1.3,20,2.8,20h3.8c1.5,0,2.7-1.2,2.7-2.8v-6.6
			H2.8C1.3,10.7,0,11.9,0,13.5L0,13.5z M8,17.2c0,0.8-0.6,1.4-1.4,1.4H2.8c-0.8,0-1.4-0.6-1.4-1.4v-3.8C1.4,12.7,2,12,2.8,12H8V17.2
			L8,17.2L8,17.2z M17.3,10.7h-6.6v6.6c0,1.5,1.3,2.8,2.8,2.8h3.8c1.5,0,2.7-1.2,2.7-2.8v-3.8C20,11.9,18.8,10.7,17.3,10.7
			L17.3,10.7z"/>
	</g>
</g>
</svg>
