<?xml version="1.0" encoding="utf-8"?>
<!-- Generator: Adobe Illustrator 17.0.0, SVG Export Plug-In . SVG Version: 6.00 Build 0)  -->
<!DOCTYPE svg PUBLIC "-//W3C//DTD SVG 1.1//EN" "http://www.w3.org/Graphics/SVG/1.1/DTD/svg11.dtd">
<svg version="1.1" id="图层_1" xmlns="http://www.w3.org/2000/svg" xmlns:xlink="http://www.w3.org/1999/xlink" x="0px" y="0px"
	 width="16px" height="16px" viewBox="0 0 16 16" enable-background="new 0 0 16 16" xml:space="preserve">
<rect x="0.934" y="14.917" fill="#ffc001" width="14" height="1"/>

<g>
	<path fill="#ffc001" d="M3.968,15.859c-0.01-0.117-0.034-0.23-0.034-0.35V8.816c0-2.294,1.791-4.153,4-4.153
		c2.209,0,4,1.859,4,4.153v6.693c0,0.12-0.024,0.233-0.034,0.35h1.034V8.37c0-2.6-2.239-4.707-5-4.707c-2.761,0-5,2.107-5,4.707
		v7.49H3.968z"/>
</g>
<polygon fill="#ffc001" points="8.737,6.396 5.282,9.909 7.899,9.896 5.774,12.979 10.586,8.854 7.586,8.75 "/>
<path fill="#ffc001" d="M8.454,2.03c0,0.289-0.234,0.524-0.524,0.524l0,0c-0.289,0-0.524-0.234-0.524-0.524V1.192
	c0-0.289,0.234-0.524,0.524-0.524l0,0c0.289,0,0.524,0.234,0.524,0.524V2.03z"/>
<path fill="#ffc001" d="M3.926,3.474c0.204,0.204,0.204,0.536,0,0.741l0,0c-0.204,0.204-0.536,0.204-0.741,0L2.593,3.623
	c-0.204-0.204-0.204-0.536,0-0.741l0,0c0.204-0.204,0.536-0.204,0.741,0L3.926,3.474z"/>
<path fill="#ffc001" d="M1.746,7.698c0.289,0,0.524,0.234,0.524,0.524l0,0c0,0.289-0.234,0.524-0.524,0.524H0.909
	c-0.289,0-0.524-0.234-0.524-0.524l0,0c0-0.289,0.234-0.524,0.524-0.524H1.746z"/>
<path fill="#ffc001" d="M14.254,8.738c-0.289,0-0.524-0.234-0.524-0.524l0,0c0-0.289,0.234-0.524,0.524-0.524h0.838
	c0.289,0,0.524,0.234,0.524,0.524l0,0c0,0.289-0.234,0.524-0.524,0.524H14.254z"/>
<path fill="#ffc001" d="M12.678,4.21c-0.204,0.204-0.536,0.204-0.741,0l0,0c-0.204-0.204-0.204-0.536,0-0.741l0.592-0.592
	c0.204-0.204,0.536-0.204,0.741,0l0,0c0.204,0.204,0.204,0.536,0,0.741L12.678,4.21z"/>
</svg>
