<?xml version="1.0" encoding="utf-8"?>
<!-- Generator: Adobe Illustrator 17.0.0, SVG Export Plug-In . SVG Version: 6.00 Build 0)  -->
<!DOCTYPE svg PUBLIC "-//W3C//DTD SVG 1.1//EN" "http://www.w3.org/Graphics/SVG/1.1/DTD/svg11.dtd">
<svg version="1.1" id="图层_1" xmlns="http://www.w3.org/2000/svg" xmlns:xlink="http://www.w3.org/1999/xlink" x="0px" y="0px"
	 width="16px" height="16px" viewBox="0 0 16 16" enable-background="new 0 0 16 16" xml:space="preserve">
<g fill="#2db7f5">
	<g>
		<g>
			<rect x="8.5" y="8.5" fill="#2db7f5" width="2" height="2"/>
			<rect x="5.5" y="8.5" fill="#2db7f5" width="2" height="2"/>
			<rect x="8.5" y="5.5" fill="#2db7f5" width="2" height="2"/>
			<rect x="5.5" y="5.5" fill="#2db7f5" width="2" height="2"/>
			<path fill="#2db7f5" d="M8,0C3.582,0,0,3.582,0,8s3.582,8,8,8s8-3.582,8-8S12.418,0,8,0z M13,5.5h-1.5v2H13v1h-1.5v2H13v1h-1.5
				V13h-1v-1.5h-2V13h-1v-1.5h-2V13h-1v-1.5H3v-1h1.5v-2H3v-1h1.5v-2H3v-1h1.5V3h1v1.5h2V3h1v1.5h2V3h1v1.5H13V5.5z"/>
		</g>
	</g>
</g>
</svg>
