<?xml version="1.0" encoding="utf-8"?>
<!-- Generator: Adobe Illustrator 19.0.0, SVG Export Plug-In . SVG Version: 6.00 Build 0)  -->
<svg version="1.1" id="图层_1" xmlns="http://www.w3.org/2000/svg" xmlns:xlink="http://www.w3.org/1999/xlink" x="0px" y="0px"
	 viewBox="0 0 20 20" style="enable-background:new 0 0 20 20;" xml:space="preserve">
<style type="text/css">
	.st0{fill:#9AA5AF;}
</style>
<g id="XMLID_8_">
	<g>
		<path id="XMLID_29_" class="st0" d="M18.1,12c-0.1-0.2-0.3-0.3-0.5-0.3H14c-0.1,0-0.2,0-0.3,0.1c-0.1,0-0.2,0.1-0.2,0.2l-1.8,3.1
			c-0.1,0.1-0.1,0.3-0.1,0.5c0,0,0,0.1,0.1,0.1l1.7,3c0.1,0.2,0.3,0.4,0.5,0.4h3.6c0.2,0,0.4-0.1,0.6-0.3l1.8-3.1
			c0-0.1,0.1-0.1,0.1-0.2c0-0.1,0-0.3-0.1-0.4L18.1,12L18.1,12z M17.1,17.7h-2.6l-1.3-2.2l1.3-2.2h2.6l1.3,2.2L17.1,17.7L17.1,17.7z
			"/>
		<path id="XMLID_28_" class="st0" d="M13.4,7.9c0.1,0.2,0.3,0.4,0.5,0.4h3.6c0,0,0,0,0.1,0c0.2,0,0.4-0.1,0.5-0.3l1.8-3.1
			c0-0.1,0.1-0.1,0.1-0.2s0-0.3,0-0.5l-1.8-3.1c-0.1-0.2-0.3-0.3-0.5-0.3H14c-0.1,0-0.2,0-0.3,0.1c-0.1,0-0.2,0.1-0.2,0.2l-1.8,3.1
			c0,0.1-0.1,0.2-0.1,0.3c0,0.1,0,0.2,0.1,0.3L13.4,7.9L13.4,7.9z M14.5,2.3h2.6l1.3,2.2l-1.3,2.2h-2.6l-1.3-2.2L14.5,2.3L14.5,2.3z
			"/>
		<path id="XMLID_27_" class="st0" d="M12,11.2V8.9c-0.4,0-0.8-0.1-1.1-0.3c-1.1-0.6-1.5-2-0.8-3.1L8,4.3C7.8,4.6,7.5,4.9,7.2,5.1
			C6.1,5.7,4.7,5.4,4.1,4.3L2,5.5c0.2,0.3,0.3,0.7,0.3,1.1c0,1.2-1,2.3-2.3,2.3v2.3c0.4,0,0.8,0.1,1.1,0.3c1.1,0.6,1.5,2,0.8,3.1
			l2,1.2c0.2-0.3,0.5-0.6,0.8-0.8C6,14.3,7.4,14.7,8,15.8l2-1.2c-0.2-0.3-0.3-0.7-0.3-1.1C9.7,12.2,10.7,11.2,12,11.2L12,11.2z
			 M8.5,11.4c-0.8,1.3-2.5,1.8-3.8,1s-1.8-2.5-1-3.8s2.5-1.8,3.8-1S9.2,10.1,8.5,11.4L8.5,11.4z"/>
	</g>
</g>
</svg>
