<?xml version="1.0" encoding="utf-8"?>
<!-- Generator: Adobe Illustrator 19.0.0, SVG Export Plug-In . SVG Version: 6.00 Build 0)  -->
<svg version="1.1" id="图层_1" xmlns="http://www.w3.org/2000/svg" xmlns:xlink="http://www.w3.org/1999/xlink" x="0px" y="0px"
	 viewBox="-105 106 32 32" style="enable-background:new -105 106 32 32;" xml:space="preserve">
<style type="text/css">
	.st0{fill:#2DB7F5;}
</style>
<path class="st0" d="M-90.8,131.2c-0.2,0-0.4-0.1-0.6-0.2l-6.3-5.8c-0.3-0.3-0.4-0.8,0-1.2c0.3-0.3,0.8-0.4,1.2,0l5.7,5.3l15-14.1
	c0.3-0.3,0.9-0.3,1.2,0c0.3,0.3,0.3,0.9,0,1.2l-15.6,14.6C-90.4,131.1-90.6,131.2-90.8,131.2z"/>
<path class="st0" d="M-77,136h-24.6c-0.5,0-0.8-0.4-0.8-0.8v-26.3c0-0.5,0.4-0.8,0.8-0.8H-77c0.5,0,0.8,0.4,0.8,0.8v3
	c0,0.5-0.4,0.8-0.8,0.8c-0.5,0-0.8-0.4-0.8-0.8v-2.1h-22.9v24.6h22.9v-10c0-0.5,0.4-0.8,0.8-0.8c0.5,0,0.8,0.4,0.8,0.8v10.9
	C-76.1,135.6-76.5,136-77,136z"/>
<path class="st0" d="M-85.1,115.6h-12.1c-0.5,0-0.8-0.4-0.8-0.8s0.4-0.8,0.8-0.8h12.1c0.5,0,0.8,0.4,0.8,0.8
	C-84.3,115.2-84.6,115.6-85.1,115.6z M-88.6,120.9h-8.6c-0.5,0-0.8-0.4-0.8-0.8s0.4-0.8,0.8-0.8h8.6c0.5,0,0.8,0.4,0.8,0.8
	C-87.8,120.5-88.1,120.9-88.6,120.9z"/>
</svg>
