<svg id="图层_1" xmlns="http://www.w3.org/2000/svg" viewBox="0 0 20 20"><style>.st0{fill:#999}</style><g id="XMLID_6_"><g id="XMLID_7_" transform="scale(.19531)"><path id="XMLID_8_" class="st0" d="M101.7 48.3c-17.4-22.2-35.6-32.9-54-31.8-6.6.4-13.3 2.4-19.7 5.8-5.1 2.7-10.1 6.4-14.8 10.9C5.2 40.8.7 48.2.5 48.5c-.4.6-.5 1.2-.5 1.8 0 .6.1 1.2.4 1.7.2.3 4.7 7.7 12.7 15.3 4.7 4.5 9.7 8.2 14.8 10.9 6.4 3.5 13.1 5.4 19.7 5.8.9.1 1.7.1 2.6.1 17.5 0 34.8-10.7 51.5-31.9.5-.6.7-1.3.7-2 0-.6-.2-1.3-.7-1.9zM48.1 78c-13.1-.8-23.8-8.6-30.6-15-5.4-5.2-9.2-10.3-10.8-12.7 1.7-2.4 5.4-7.6 10.8-12.7 6.7-6.4 17.5-14.2 30.5-15 15.8-.9 31.7 8.4 47.4 27.7C79.8 69.6 63.9 78.9 48.1 78zm3.1-42.3c-8.3 0-15.1 6.8-15.1 15.1s6.8 15.1 15.1 15.1 15.1-6.8 15.1-15.1-6.8-15.1-15.1-15.1zm-.1 24.1c-4.9 0-8.9-4-8.9-8.9s4-8.9 8.9-8.9 8.9 4 8.9 8.9c.1 4.8-3.9 8.9-8.9 8.9z"/></g></g></svg>