<svg id="图层_1" xmlns="http://www.w3.org/2000/svg" viewBox="0 0 20 20"><style>.st0{fill-rule:evenodd;clip-rule:evenodd;fill:#272536}</style><g id="XMLID_8_"><path id="XMLID_21_" class="st0" d="M19.2 18.8h-4c-.4 0-.8-.4-.8-.8v-4c0-.4.4-.8.8-.8h1.6V10h-6.4v3.2H12c.4 0 .8.4.8.8v4c0 .4-.4.8-.8.8H8c-.4 0-.8-.4-.8-.8v-4c0-.4.4-.8.8-.8h1.6V10H3.2v3.2h1.6c.4 0 .8.4.8.8v4c0 .4-.4.8-.8.8h-4c-.4 0-.8-.4-.8-.8v-4c0-.4.4-.8.8-.8h1.6V10c0-.4.4-.8.8-.8h6.4V6.8H8c-.4 0-.8-.4-.8-.8V2c0-.4.4-.8.8-.8h4c.4 0 .8.4.8.8v4c0 .4-.4.8-.8.8h-1.6v2.4h6.4c.4 0 .8.4.8.8v3.2h1.6c.4 0 .8.4.8.8v4c0 .4-.4.8-.8.8zM.8 14v4h4v-4h-4zM12 6V2H8v4h4zm-4 8v4h4v-4H8zm11.2 0h-4v4h4v-4z"/></g></svg>