<svg id="图层_1" xmlns="http://www.w3.org/2000/svg" viewBox="0 0 20 20"><style>.st0{fill:#272636}</style><g id="XMLID_10_"><g id="XMLID_11_" transform="scale(.19531)"><path id="XMLID_12_" class="st0" d="M102.4 76.6V25.9v-.2-.4c0-1.3-.8-2.5-2-3.1L53.3.3c-1-.5-2.1-.5-3.1 0L2.5 22.2c-.7.3-1.2.8-1.7 1.4-.6.8-.8 1.6-.8 2.3v50.7c0 1.4.9 2.4 2.3 3.2l.8.4L50.2 102c.5.2 1 .3 1.6.3.5 0 1.1-.1 1.6-.3l47.1-21.8c1.4-.7 2-2.1 1.9-3.6zM7.2 30.5L47.6 49l.5 44.5-40.9-19v-44zm47.6 19l40.4-18.7V75L55.3 93.5l-.5-44zM51.7 7.2l38.9 18-38.9 18-39.4-18 39.4-18z"/></g></g></svg>