<svg id="图层_1" xmlns="http://www.w3.org/2000/svg" viewBox="-14 16 20 20"><style>.st0{fill:#666}</style><path class="st0" d="M-3.6 33.2c-.1.1-.2.2-.4.2s-.3-.1-.4-.2c-.3-.3-6.3-7.3-6.3-10.8 0-3.6 3-6.4 6.7-6.4s6.7 2.9 6.7 6.4c0 3.5-6.1 10.5-6.3 10.8zM-4 16.9c-3.2 0-5.7 2.5-5.7 5.5 0 2.7 4.4 8.2 5.7 9.8 1.3-1.6 5.7-7.1 5.7-9.8 0-3-2.5-5.5-5.7-5.5zm.1 7.7c-1.5 0-2.8-1.2-2.8-2.7s1.2-2.7 2.8-2.7c1.5 0 2.8 1.2 2.8 2.7s-1.3 2.7-2.8 2.7zm0-4.4c-1 0-1.8.8-1.8 1.8s.8 1.8 1.8 1.8 1.8-.8 1.8-1.8-.8-1.8-1.8-1.8zm-3.2 10.9c.3 0 .5.1.5.4 0 .2-.1.5-.4.5-1.9.4-2.8 1-2.8 1.4 0 .7 2.2 1.7 5.7 1.7s5.7-1 5.7-1.7c0-.4-1-1.1-2.8-1.4-.3 0-.4-.3-.4-.5.1-.2.3-.4.6-.4 2.2.4 3.5 1.3 3.5 2.3C2.7 35.1-.7 36-4 36s-6.7-.9-6.7-2.6c0-1 1.3-1.9 3.6-2.3z"/></svg>