<svg id="图层_1" xmlns="http://www.w3.org/2000/svg" viewBox="-14 16 20 20"><style>.st0{fill:#666}</style><path class="st0" d="M-6.6 126.7c5.1-4 8.4-10.1 8.4-17.1 0-12-9.8-21.7-21.8-21.7s-21.8 9.7-21.8 21.7c0 6.9 3.3 13.1 8.4 17.1-13.4 5.3-23 18.4-23 33.6v7.2c0 2 1.6 3.6 3.6 3.6h65.5c2 0 3.6-1.6 3.6-3.6v-7.2c0-15.3-9.5-28.3-22.9-33.6zm-29.3-17.1c0-8.7 7.1-15.7 15.8-15.7s15.8 7 15.8 15.7-7.1 15.7-15.8 15.7c-8.7 0-15.8-7.1-15.8-15.7zm46.8 55.6H-51v-3.8c0-16.9 13.9-30.7 30.9-30.7 17.1 0 30.9 13.8 30.9 30.7l.1 3.8zM-48.3 130l.7-.2c1.5-.5 2.6-1.8 2.6-3.4 0-1.5-1-2.8-2.5-3.3-3.9-1.8-6.4-5.6-6.4-9.9 0-4.8 4.2-8.9 8.6-10.3.8-2.4 1.9-4.5 3.4-6.5.3-.4.5-.8.8-1.2-.3 0-.6-.1-.9-.1-10 0-18.2 8.1-18.2 18.1 0 4.6 1.8 8.9 4.7 12.1-9.5 4.9-15.7 14.6-15.7 25.7v5.6c0 2 1.6 3.6 3.6 3.6h6.5c0-2.5.3-4.1.7-6.4H-65V151c.2-10 7-18.5 16.7-21zm63.5-4.6c3-3.3 4.7-7.6 4.7-12.1 0-10-8.2-18.1-18.2-18.1-.3 0-.6.1-.9.1.3.4.6.8.8 1.2 1.5 1.9 2.6 4.1 3.4 6.5 4.4 1.4 9.2 5.5 9.2 10.3 0 4.3-2.5 8.1-6.4 9.9-1.4.5-2.5 1.8-2.5 3.3 0 1.6 1.1 2.9 2.6 3.4l.7.2c9.7 2.4 16.5 11 16.5 21v2.8h-5.2c.5 2.3.7 3.9.7 6.4h6.5c2 0 3.6-1.6 3.6-3.6v-5.6c.2-11.1-6-20.9-15.5-25.7z" transform="scale(.19531)"/></svg>