<svg id="图层_1" xmlns="http://www.w3.org/2000/svg" viewBox="0 0 20 20"><style>.st0{fill-rule:evenodd;clip-rule:evenodd;fill:#272536}</style><path class="st0" d="M15.1 4.6h1.7v1.7c0 .2.2.3.4.3s.4-.2.4-.3V4.6h1.7c.2 0 .3-.2.3-.4s-.2-.4-.3-.4h-1.7V2c0-.2-.2-.3-.4-.3s-.4.2-.4.3v1.7h-1.7c-.2 0-.3.2-.3.4 0 .3.1.5.3.5m-1.6 5.9c.3 0 .5-.2.5-.5 0-.2-.2-.5-.5-.5h-3.1v-.4l3-2.9c.2-.2.2-.5-.1-.6-.2-.2-.6-.1-.8 0L9.9 8.2 7.3 5.6c-.2-.2-.5-.2-.7 0-.3.1-.3.4-.1.6l2.8 2.9v.5H6.6c-.3 0-.6.2-.6.4s.2.5.5.5h2.8v.7H6.6c-.3 0-.5.2-.5.5 0 .2.2.5.5.5h2.8v2.4c0 .2.2.5.5.5s.5-.2.5-.5v-2.4h3.1c.3 0 .5-.2.5-.5 0-.2-.2-.5-.5-.5h-3.1v-.7h3.1m6.2-3c-.1-.2-.3-.4-.6-.3-.2.1-.4.3-.3.6.2.7.3 1.5.3 2.2 0 5-4.1 9-9 9S1 15 1 10s4.1-9 9-9c1.3 0 2.6.3 3.8.8.2.1.5 0 .6-.2.1-.2 0-.5-.2-.6-1.3-.7-2.7-1-4.2-1-2.6 0-5.1 1-7 2.9C1.1 4.8.1 7.3.1 9.9c0 2.7 1 5.2 2.9 7 1.9 1.9 4.4 2.9 7 2.9s5.2-1 7-2.9c1.9-1.9 2.9-4.4 2.9-7 .1-.7 0-1.6-.2-2.4m0 0z" id="XMLID_1_"/></svg>