<svg id="图层_1" xmlns="http://www.w3.org/2000/svg" viewBox="-3 5 32 32"><style>.st0{fill:#999}</style><path class="st0" d="M10.4 31.1c0-.3.2-.5.5-.5s.5.2.5.5V33c0 .3-.2.5-.5.5s-.5-.2-.5-.5v-1.9zm5.1-18.2c1.3 1.3 1.3 3.4 0 4.7s-3.4 1.3-4.7 0-1.3-3.4 0-4.7 3.5-1.3 4.7 0zm-3.9.7c-.9.9-.9 2.3 0 3.2.9.9 2.3.9 3.2 0s.9-2.3 0-3.2c-.9-.9-2.3-.8-3.2 0zM9.7 29c-.5-.5-.9-1-1.4-1.5-.1-.2-.3-.4-.4-.6l-.1.2c-.2.4-.3.9-.3 1.4s-.4.9-.9.9c-.1 0-.2 0-.3-.1-1.2-.4-2.2-1.1-2.9-2.1s-1.1-2.1-1.1-3.4c0-1.2.3-2.3.9-3.2.5-.8 1.2-1.4 2-1.9v-.2c0-2.7.7-5.2 2-7.4 1.3-2.3 3.2-4.2 5.5-5.5.3-.2.6-.2.9 0 2.3 1.3 4.1 3.2 5.4 5.4s2 4.7 2 7.4V18.7c.8.5 1.5 1.1 2 1.9.6.9.9 2 .9 3.2v.1c0 1.2-.4 2.4-1.1 3.3-.7 1-1.7 1.7-2.9 2.1-.5.2-1-.1-1.1-.6v-.3c0-.5-.1-1-.3-1.4l-.1-.2c-.1.2-.3.4-.4.6-.4.6-.9 1.1-1.4 1.6-.2.2-.4.3-.6.3h-5.6c-.3 0-.5-.1-.7-.3zm.1-2.6c.3.4.6.8 1 1.1h4.9c.3-.4.7-.8 1-1.2.4-.5.7-1 1-1.6 0-.1.1-.2.2-.2.4-.3.9-.3 1.2 0 .5.5.8 1.1 1.1 1.7.1.2.2.5.2.7.4-.3.8-.6 1.1-1 .5-.7.8-1.5.8-2.3 0-.8-.2-1.6-.7-2.2-.4-.7-1-1.2-1.8-1.5-.3-.1-.5-.5-.5-.8v-.7c0-2.4-.6-4.6-1.7-6.5-1.1-1.8-2.6-3.4-4.4-4.6-1.8 1.1-3.3 2.7-4.4 4.5-1.1 2-1.7 4.2-1.7 6.6v.7c0 .4-.2.7-.5.9-.7.3-1.3.9-1.8 1.5-.4.6-.7 1.4-.7 2.2 0 .9.3 1.7.8 2.4.3.4.6.7 1 1 .2-.3.2-.5.3-.7.3-.6.6-1.2 1.1-1.7l.2-.2c.4-.3 1-.1 1.2.3.4.5.7 1.1 1.1 1.6zm5.2 4.7c0-.3.2-.5.5-.5s.5.2.5.5V33c0 .3-.2.5-.5.5s-.5-.2-.5-.5v-1.9zm-2.3 0c0-.3.2-.5.5-.5s.5.2.5.5v4.2c0 .3-.2.5-.5.5s-.5-.2-.5-.5v-4.2z"/></svg>