<?xml version="1.0" encoding="utf-8"?>
<!-- Generator: Adobe Illustrator 19.0.0, SVG Export Plug-In . SVG Version: 6.00 Build 0)  -->
<svg version="1.1" id="图层_1" xmlns="http://www.w3.org/2000/svg" xmlns:xlink="http://www.w3.org/1999/xlink" x="0px" y="0px"
	 viewBox="-105 106 32 32" style="enable-background:new -105 106 32 32;" xml:space="preserve">
<style type="text/css">
	.st0{fill:#999999;}
</style>
<path class="st0" d="M-75.5,118.1c-0.1-0.2-0.2-0.3-0.4-0.4l-2.4-1.2l-2.2-1.1l3-6c0.2-0.4-0.1-1-0.7-1.3c-0.6-0.3-1.3-0.2-1.5,0.2
	l-3,6l-2-1l-3.1-1.6c0,0,0,0,0,0c0,0,0,0,0,0c0,0,0,0,0,0c0,0,0,0,0,0c0,0,0,0,0,0c0,0,0,0-0.1,0c0,0,0,0,0,0l-0.1,0c0,0,0,0,0,0
	c0,0,0,0,0,0c0,0,0,0,0,0c0,0,0,0,0,0c0,0,0,0,0,0c0,0,0,0,0,0c0,0,0,0,0,0c0,0,0,0,0,0c0,0,0,0,0,0c0,0,0,0,0,0c0,0,0,0,0,0l0,0
	c0,0,0,0,0,0c0,0,0,0,0,0c0,0,0,0,0,0c0,0,0,0,0,0c0,0,0,0,0,0c0,0,0,0,0,0c0,0,0,0,0,0c0,0,0,0,0,0c0,0,0,0,0,0c0,0,0,0,0,0
	c0,0,0,0,0,0c0,0,0,0,0,0c-0.7,1.4-1.7,2.8-2.8,4c0,0,0,0,0,0.1c-0.7,0.8-1.5,1.6-2.3,2.3c-2.2,1.9-4.8,3.4-7.7,4.5
	c-0.4,0.2-0.7,0.6-0.7,1c0,0.4,0.2,0.7,0.5,0.9l17.4,10.7c0.1,0.1,0.3,0.1,0.4,0.1c0.2,0.1,0.4,0.2,0.6,0.2c0.3,0,0.5-0.1,0.7-0.3
	c2.5-2.4,4.4-5.1,5.7-8c1.4-3,2.1-6,2.1-9C-75.3,118.5-75.4,118.3-75.5,118.1z M-79.2,126.8c-1.2,2.5-2.8,4.8-4.8,6.9l-3.9-2.4
	l2.4-2.4c0.4-0.4,0.4-1,0-1.4c-0.4-0.4-1-0.4-1.4,0l-2.8,2.7l-4.5-2.8l2.7-1.9c0.5-0.3,0.6-1,0.2-1.4c-0.3-0.5-1-0.6-1.4-0.2
	l-3.5,2.4l-3.5-2.2c2.4-1.1,4.6-2.5,6.6-4.1c0.7-0.6,1.4-1.2,2-1.9l12.4,7.1C-78.8,125.8-79,126.3-79.2,126.8L-79.2,126.8z
	 M-77.9,123.3l-11.7-6.7c0.7-0.8,1.3-1.7,1.8-2.7l10.5,5.3C-77.4,120.6-77.6,122-77.9,123.3z"/>
</svg>
