<?xml version="1.0" encoding="utf-8"?>
<!-- Generator: Adobe Illustrator 19.0.0, SVG Export Plug-In . SVG Version: 6.00 Build 0)  -->
<svg version="1.1" id="图层_1" xmlns="http://www.w3.org/2000/svg" xmlns:xlink="http://www.w3.org/1999/xlink" x="0px" y="0px"
	 viewBox="-3 5 32 32" style="enable-background:new -3 5 32 32;" xml:space="preserve">
<style type="text/css">
	.st0{fill:#999999;}
</style>
<path class="st0" d="M27.5,22.7L14.3,35.8c-1.6,1.6-4.2,1.6-5.8,0L-1.8,25.5c-1.6-1.6-1.6-4.2,0-5.8L11.3,6.6c1-1.1,1.2-1.5,2.3-1.5
	H27c1.1,0,2,0.9,2,1.9v13.3C29,21.3,28.4,21.8,27.5,22.7z M-0.3,24L9.9,34.3c0.8,0.8,2.1,0.8,2.9,0l1.4-1.4L1.2,19.7l-1.5,1.5
	C-1.1,22-1.1,23.3-0.3,24z M27,8c0-0.5-0.4-1-1-1H14.4c-0.5,0-1.3,0.6-1.7,1.1L2.7,18.3l13.1,13.1L26,21.2c0.5-0.5,1-1.3,1-1.8V8
	L27,8z M16.5,17.5c-1.6-1.6-1.6-4.2,0-5.8s4.2-1.6,5.8,0c1.6,1.6,1.6,4.2,0,5.8C20.8,19.2,18.2,19.2,16.5,17.5z M20.9,13.2
	c-0.8-0.8-2.1-0.8-2.9,0s-0.8,2.1,0,2.9c0.8,0.8,2.1,0.8,2.9,0C21.7,15.3,21.7,13.9,20.9,13.2z"/>
</svg>
