<?xml version="1.0" encoding="utf-8"?>
<!-- Generator: Adobe Illustrator 19.0.0, SVG Export Plug-In . SVG Version: 6.00 Build 0)  -->
<svg version="1.1" id="图层_1" xmlns="http://www.w3.org/2000/svg" xmlns:xlink="http://www.w3.org/1999/xlink" x="0px" y="0px"
	 viewBox="-281 404.9 32 32" style="enable-background:new -281 404.9 32 32;" xml:space="preserve">
<style type="text/css">
	.st0{fill:#999999;}
</style>
<path class="st0" d="M-276,424.1c-0.5,0-1-0.4-1.1-0.9c-0.1-0.8-0.2-1.5-0.2-2.3c0-6.7,5.5-12.2,12.2-12.2c5.4,0,10.2,3.6,11.7,8.8
	c0.2,0.6-0.2,1.2-0.8,1.4c-0.6,0.2-1.2-0.2-1.4-0.8c-1.2-4.2-5.2-7.2-9.6-7.2c-5.5,0-10,4.5-10,10c0,0.6,0.1,1.3,0.2,1.9
	c0.1,0.6-0.3,1.2-0.9,1.3C-275.9,424.1-276,424.1-276,424.1L-276,424.1z M-265.1,433.1c-4.4,0-8.5-2.4-10.7-6.2
	c-0.3-0.5-0.1-1.2,0.4-1.5c0.5-0.3,1.2-0.1,1.5,0.4c1.8,3.2,5.1,5.1,8.7,5.1c5.4,0,9.7-4.2,10-9.5c0-0.6,0.5-1.1,1.2-1.1
	c0.6,0,1.1,0.5,1.1,1.2C-253.2,428-258.6,433.1-265.1,433.1z"/>
<path class="st0" d="M-274.8,426.8c-3.1,0-5.6-0.6-6-2.2c-0.2-0.9,0.3-1.8,1.4-2.8c0.4-0.3,1-0.3,1.3,0.1c0.3,0.4,0.3,1-0.1,1.3
	c-0.7,0.6-0.8,0.9-0.8,0.9c0.3,0.7,5.2,1.6,14.6-0.6c9.4-2.2,13.4-5.2,13.4-5.9c0,0-0.1-0.2-0.9-0.4c-0.5-0.1-0.8-0.7-0.6-1.1
	c0.1-0.5,0.7-0.8,1.1-0.6c1.2,0.4,2,1,2.2,1.8c0.8,3.5-9.3,6.9-14.8,8.2C-266.9,426.1-271.2,426.8-274.8,426.8L-274.8,426.8z"/>
<path class="st0" d="M-266.1,419.8c-0.1,0-0.2,0-0.3,0c-0.4-0.1-0.7-0.4-0.7-0.9c0-0.2-0.1-0.4-0.1-0.6c-0.1-0.4-0.2-0.9-0.2-1.4
	c0-0.3-0.1-1-0.2-1.6c-0.2-0.3-0.5-0.5-0.6-0.6h0c-0.8,0-1.3-0.2-1.7-0.4c-0.1,0-0.2-0.1-0.3-0.1c-1-0.4-1.3-1.7-1.4-2.3
	c-0.1-0.5,0.3-1,0.8-1.1c0.5-0.1,1,0.3,1.1,0.8c0.1,0.3,0.2,0.7,0.3,0.9c0.1,0,0.1,0.1,0.2,0.1c0.4,0.2,0.6,0.2,1,0.2
	c1.2,0,2.1,1.3,2.3,1.6c0.1,0.1,0.1,0.2,0.1,0.3c0,0.2,0.3,1.3,0.3,2c0.2-0.2,0.3-0.3,0.4-0.4c0.1-0.1,0.2-0.1,0.3-0.2
	c0.1-0.1,0.4-0.2,0.5-0.3c0-0.2,0-0.6,0-0.9c0-1.1,0-1.6,0.1-2c0.1-0.2,0.3-0.6,1.9-1.6c0.1,0,0.1-0.1,0.2-0.1l2-0.6
	c0.5-0.1,1,0.1,1.1,0.6c0.1,0.5-0.1,1-0.6,1.1l-1.9,0.5c-0.4,0.2-0.8,0.5-1,0.6c0,0.3,0,0.8,0,1.2c0,0.7,0,1.1,0,1.3
	c-0.1,0.8-0.9,1.3-1.3,1.5c-0.1,0-0.1,0.1-0.2,0.1c-0.1,0.1-0.2,0.3-0.4,0.5C-265,419.2-265.5,419.8-266.1,419.8z M-261.3,432.4
	c-0.1,0-0.1,0-0.2,0c-0.5-0.1-0.8-0.6-0.7-1.1l0.4-1.7l-0.3-0.6l-0.3,0.6c-0.1,0.3-0.4,0.5-0.7,0.5l-1.5,0.2l-1.8,1.5
	c-0.4,0.3-1,0.3-1.3-0.1c-0.3-0.4-0.3-1,0.1-1.3l2-1.7c0.1-0.1,0.3-0.2,0.5-0.2l1.3-0.2l1-1.8c0.2-0.3,0.5-0.5,0.8-0.5
	c0.3,0,0.7,0.2,0.8,0.5l1.3,2.6c0.1,0.2,0.1,0.4,0.1,0.6l-0.5,2C-260.5,432.1-260.9,432.4-261.3,432.4L-261.3,432.4z"/>
</svg>
