<?xml version="1.0" encoding="utf-8"?>
<!-- Generator: Adobe Illustrator 19.0.0, SVG Export Plug-In . SVG Version: 6.00 Build 0)  -->
<svg version="1.1" id="图层_1" xmlns="http://www.w3.org/2000/svg" xmlns:xlink="http://www.w3.org/1999/xlink" x="0px" y="0px"
	 viewBox="-3 5 32 32" style="enable-background:new -3 5 32 32;" xml:space="preserve">
<style type="text/css">
	.st0{fill:#999999;}
</style>
<g>
	<g>
		<path class="st0" d="M9,23H-1c-1.1,0-2,0.9-2,2v10c0,1.1,0.9,2,2,2H9c1.1,0,2-0.9,2-2V25C11,23.9,10.1,23,9,23z M9.8,33.8
			c0,1.1-0.9,2-2,2H0.2c-1.1,0-2-0.9-2-2v-7.7c0-1.1,0.9-2,2-2h7.7c1.1,0,2,0.9,2,2V33.8z"/>
	</g>
</g>
<g>
	<g>
		<path class="st0" d="M27,23H17c-1.1,0-2,0.9-2,2v10c0,1.1,0.9,2,2,2h10c1.1,0,2-0.9,2-2V25C29,23.9,28.1,23,27,23z M27.8,33.8
			c0,1.1-0.9,2-2,2h-7.7c-1.1,0-2-0.9-2-2v-7.7c0-1.1,0.9-2,2-2h7.7c1.1,0,2,0.9,2,2V33.8z"/>
	</g>
</g>
<g>
	<g>
		<path class="st0" d="M9,5H-1c-1.1,0-2,0.9-2,2v10c0,1.1,0.9,2,2,2H9c1.1,0,2-0.9,2-2V7C11,5.9,10.1,5,9,5z M9.9,15.9
			c0,1.1-0.9,2-2,2H0.2c-1.1,0-2-0.9-2-2V8.2c0-1.1,0.9-2,2-2h7.7c1.1,0,2,0.9,2,2V15.9z"/>
	</g>
</g>
<rect x="15" y="11.5" class="st0" width="14" height="1"/>
<rect x="21.5" y="5" class="st0" width="1" height="14"/>
</svg>
