<?xml version="1.0" encoding="utf-8"?>
<!-- Generator: Adobe Illustrator 19.0.0, SVG Export Plug-In . SVG Version: 6.00 Build 0)  -->
<svg version="1.1" id="图层_1" xmlns="http://www.w3.org/2000/svg" xmlns:xlink="http://www.w3.org/1999/xlink" x="0px" y="0px"
	 viewBox="-105 106 32 32" style="enable-background:new -105 106 32 32;" xml:space="preserve">
<style type="text/css">
	.st0{fill:#999999;}
</style>
<path class="st0" d="M-96.2,130h-6.4c-1.3,0-2.4-1.1-2.4-2.4v-19.2c0-1.3,1.1-2.4,2.4-2.4h22.4c1.3,0,2.4,1.1,2.4,2.4v11.2
	c0,0.4-0.4,0.8-0.8,0.8c-0.4,0-0.8-0.4-0.8-0.8v-11.2c0-0.4-0.4-0.8-0.8-0.8h-22.4c-0.4,0-0.8,0.4-0.8,0.8v19.2
	c0,0.4,0.4,0.8,0.8,0.8h6.4c0.4,0,0.8,0.4,0.8,0.8S-95.8,130-96.2,130z"/>
<path class="st0" d="M-84.2,138c-0.3,0-0.6-0.2-0.7-0.5l-2.7-6.8l-4.7,5.4c-0.2,0.3-0.6,0.3-0.9,0.2c-0.3-0.1-0.5-0.4-0.5-0.7v-24
	c0-0.3,0.2-0.6,0.5-0.7c0.3-0.1,0.6-0.1,0.9,0.1l17.6,16c0.2,0.2,0.3,0.6,0.2,0.9c-0.1,0.3-0.4,0.5-0.7,0.5h-6.8l2.8,6.9
	c0.2,0.4,0,0.9-0.4,1l-4,1.6C-84,138-84.1,138-84.2,138L-84.2,138z M-87.4,128.4c0,0,0.1,0,0.1,0c0.3,0,0.5,0.2,0.6,0.5l2.9,7.3
	l2.5-1l-2.9-7.3c-0.1-0.2-0.1-0.5,0.1-0.7c0.1-0.2,0.4-0.4,0.7-0.4h5.9l-14.7-13.4v20.1l4.2-4.8C-87.8,128.5-87.6,128.4-87.4,128.4
	L-87.4,128.4z"/>
</svg>
