<?xml version="1.0" encoding="utf-8"?>
<!-- Generator: Adobe Illustrator 19.0.0, SVG Export Plug-In . SVG Version: 6.00 Build 0)  -->
<svg version="1.1" id="图层_1" xmlns="http://www.w3.org/2000/svg" xmlns:xlink="http://www.w3.org/1999/xlink" x="0px" y="0px"
	 viewBox="-725 735 32 32" style="enable-background:new -725 735 32 32;" xml:space="preserve">
<style type="text/css">
	.st0{fill:#999999;}
</style>
<g>
	<path id="XMLID_26_" class="st0" d="M-718.5,764.3c-0.3,0-0.7-0.1-1.2-0.6c-0.4-0.4-2.5-2.3-3.7-3.4l-0.8-0.8
		c-0.4-0.2-0.8-0.7-0.8-1.4c0-0.2,0.1-0.6,0.5-0.8c0.4-0.2,1.7-1.3,2-1.5c0.6-0.5,1.4-0.5,2,0.1c0.2,0.2,1.1,1,2.2,1.9
		c1.3,1.1,2.6,2.3,2.9,2.6c0.4,0.4,0.5,0.8,0.5,1s-0.2,0.7-0.6,1c-0.5,0.4-1.3,1-1.8,1.4l-0.2,0.2
		C-717.9,764.2-718.2,764.3-718.5,764.3L-718.5,764.3z M-721.5,756.5c-0.1,0-0.2,0.1-0.3,0.1c-0.3,0.2-1.7,1.3-2.1,1.6
		c-0.1,0.1,0.1,0.3,0.3,0.6l0.8,0.8c1.2,1.1,3.3,3.1,3.7,3.4c0.2,0.2,0.5,0.3,0.8,0.1l0.2-0.2c0.5-0.4,1.3-1,1.8-1.4
		c0.2-0.1,0.2-0.2,0.2-0.2s0-0.1-0.2-0.2c-0.2-0.2-1.6-1.4-2.9-2.6c-1-0.9-1.9-1.7-2.2-1.9C-721.2,756.5-721.4,756.5-721.5,756.5
		L-721.5,756.5z M-714.5,761c-0.2,0-0.2-0.1-0.3-0.2l-5.1-4.5c-0.1-0.1-0.2-0.2-0.2-0.2l-0.2-0.5c-0.1-0.2,0-0.4,0.2-0.6
		c0.2-0.2,3.7-3.4,6.2-3.5c1.8-0.1,6.3,0.2,9.1,0.2c1,0.1,1.7,0.1,2.1,0.1c1.2,0.1,1.8,0.7,1.8,1.4c0,0.6-0.4,1.2-1.4,1.3
		c-0.8,0.1-2.2,0.2-3.7,0.3c-1.2,0.1-2.6,0.2-2.9,0.2l-0.1,0.1c0.1,0,0.4,0.2,1.1,0.2c1.3,0.1,4.9,0.5,6.1,0.3
		c0.6-0.1,2.5-1.4,3.6-2.3c0.6-0.5,1.2-0.9,1.6-1.1c0.4-0.2,1-0.5,1.8-0.5s1.3,0.2,1.6,0.7c0.4,0.6-0.6,1.7-1,2
		c-4.4,3.6-7.1,5.4-8.5,5.7c-1,0.2-3.4,0.1-5.3-0.1c-1-0.1-2.1-0.1-2.7-0.1c-0.4,0-0.6,0-0.6,0c-1,0.2-2.2,0.9-2.2,0.9
		c-0.1,0.1-0.2,0.1-0.2,0.1L-714.5,761C-714.4,761-714.4,761-714.5,761L-714.5,761z M-719.1,755.6l4.9,4.3h0.3
		c0.3-0.2,1.4-0.7,2.3-0.9c0,0,0.1,0,0.1,0c0.5-0.1,1.9-0.1,3.6,0.1c1.9,0.1,4.2,0.2,5.2,0.1c0.7-0.1,2.6-1,7.9-5.3
		c0.4-0.3,0.6-0.6,0.7-0.8c-0.4-0.3-1.4-0.1-1.8,0.2c-0.3,0.2-0.9,0.6-1.4,1c-1.8,1.4-3.2,2.4-4.1,2.5c-1.3,0.2-5.1-0.2-6.4-0.3
		c-0.5-0.1-2-0.2-2.1-1.2c-0.1-0.6,0.5-1,0.9-1.2c0.2-0.1,1-0.2,3.1-0.2c1.4-0.1,2.9-0.2,3.6-0.3c0.4-0.1,0.5-0.2,0.5-0.2
		s-0.2-0.3-0.8-0.3c-0.4,0-1.1-0.1-2.1-0.1c-2.7-0.2-7.2-0.4-9-0.2C-715.5,752.6-718,754.6-719.1,755.6L-719.1,755.6L-719.1,755.6z"
		/>
	<g id="XMLID_6_">
		<g id="XMLID_45_">
			<path id="XMLID_46_" class="st0" d="M-699.9,737.7h-14.8c-0.7,0-1.2,0.5-1.2,1.2v8.4c0,0.7,0.5,1.2,1.2,1.2h14.8
				c0.7,0,1.2-0.5,1.2-1.2v-8.4C-698.7,738.2-699.2,737.7-699.9,737.7z M-699.9,746.1c0,0.7-0.5,1.2-1.2,1.2h-12.5
				c-0.7,0-1.2-0.5-1.2-1.2V740c0-0.7,0.5-1.2,1.2-1.2h12.5c0.7,0,1.2,0.5,1.2,1.2V746.1z"/>
		</g>
	</g>
	<path id="XMLID_5_" class="st0" d="M-714.8,740.2h14.7c0.4,0,0.6,0.3,0.6,0.6l0,0c0,0.4-0.3,0.6-0.6,0.6h-14.7
		c-0.4,0-0.6-0.3-0.6-0.6l0,0C-715.5,740.5-715.2,740.2-714.8,740.2z"/>
	<rect id="XMLID_4_" x="-713.4" y="742.5" class="st0" width="9" height="1.1"/>
	<rect id="XMLID_3_" x="-713.4" y="744.7" class="st0" width="4.9" height="1.1"/>
</g>
</svg>
