<?xml version="1.0" encoding="utf-8"?>
<!-- Generator: Adobe Illustrator 19.0.0, SVG Export Plug-In . SVG Version: 6.00 Build 0)  -->
<svg version="1.1" id="图层_1" xmlns="http://www.w3.org/2000/svg" xmlns:xlink="http://www.w3.org/1999/xlink" x="0px" y="0px"
	 viewBox="-39 41 40 40" style="enable-background:new -39 41 40 40;" xml:space="preserve">
<style type="text/css">
	.st0{fill:#1ECD40;}
</style>
<g>
	<g transform="scale(0.0390625, 0.0390625)">
		<path class="st0" d="M-116.2,2068.4h-740.4c-26.8,0-48.2-21.4-48.2-48.2v-514.8c0-26.8,21.6-48.4,48.2-48.4h80.4v-112.6
			c0.2-160,129.8-289.6,289.8-289.6s289.8,129.6,289.8,289.8v112.6h80.6c26.6,0,48.2,21.6,48.2,48.4v515
			C-68,2047-89.6,2068.4-116.2,2068.4 M-534.6,1781.6v93.8c0,26.6,21.6,48.4,48.2,48.4c26.8,0,48.4-21.6,48.4-48.4v-93.8
			c28.6-16.6,48.2-47.4,48.2-83.2c0-53.4-43.2-96.6-96.6-96.6c-53.2,0-96.4,43.2-96.4,96.6C-583,1734.2-563.4,1765-534.6,1781.6
			 M-293.4,1344.4c0-106.8-86.4-193.2-193.2-193.2c-106.6,0-193,86.4-193,193.2V1457h386.2V1344.4z"/>
	</g>
</g>
</svg>
