<?xml version="1.0" encoding="utf-8"?>
<!-- Generator: Adobe Illustrator 19.0.0, SVG Export Plug-In . SVG Version: 6.00 Build 0)  -->
<svg version="1.1" id="图层_1" xmlns="http://www.w3.org/2000/svg" xmlns:xlink="http://www.w3.org/1999/xlink" x="0px" y="0px"
	 viewBox="-281 404.9 32 32" style="enable-background:new -281 404.9 32 32;" xml:space="preserve">
<style type="text/css">
	.st0{fill:#999999;}
</style>
<path class="st0" d="M-249,423.1c0,0.3-0.1,0.6-0.4,0.9s-0.6,0.4-0.9,0.4h-4.5c0,2.3-0.4,4.2-1.4,5.8l4.2,4.2
	c0.3,0.3,0.4,0.5,0.4,0.9s-0.1,0.6-0.4,0.9s-0.6,0.4-0.9,0.4c-0.3,0-0.6-0.1-0.9-0.4l-4-4c-0.1,0.1-0.2,0.1-0.3,0.3
	s-0.4,0.3-0.9,0.6c-0.4,0.3-0.9,0.5-1.3,0.7c-0.5,0.2-1,0.4-1.6,0.6c-0.7,0.2-1.3,0.3-2,0.3v-17.9h-2.5v17.9c-0.7,0-1.4-0.1-2-0.3
	c-0.7-0.2-1.3-0.4-1.8-0.6c-0.5-0.3-0.9-0.5-1.3-0.8s-0.7-0.5-0.9-0.6l-0.3-0.3l-3.7,4.1c-0.3,0.3-0.6,0.4-0.9,0.4
	c-0.3,0-0.6-0.1-0.9-0.3c-0.3-0.3-0.4-0.5-0.4-0.9c0-0.4,0.1-0.7,0.3-0.9l4-4.5c-0.8-1.5-1.2-3.4-1.2-5.5h-4.5
	c-0.4,0-0.6-0.1-0.9-0.4s-0.4-0.6-0.4-0.9c0-0.4,0.1-0.7,0.4-0.9s0.5-0.4,0.9-0.4h4.5V416l-3.5-3.4c-0.3-0.3-0.4-0.6-0.4-0.9
	c0-0.3,0.1-0.6,0.4-0.9s0.6-0.4,0.9-0.4c0.3,0,0.6,0.1,0.9,0.4l3.4,3.5h16.9l3.5-3.5c0.3-0.3,0.6-0.4,0.9-0.4c0.4,0,0.7,0.1,0.9,0.4
	s0.4,0.6,0.4,0.9c0,0.4-0.1,0.7-0.4,0.9l-3.4,3.4v5.9h4.5c0.3,0,0.6,0.1,0.9,0.4C-249.1,422.5-249,422.8-249,423.1L-249,423.1z
	 M-258.6,411.6h-12.8c0-1.8,0.6-3.3,1.9-4.5s2.8-1.9,4.5-1.9s3.3,0.6,4.5,1.9C-259.2,408.3-258.6,409.8-258.6,411.6L-258.6,411.6z"
	/>
</svg>
