<?xml version="1.0" standalone="no"?><!DOCTYPE svg PUBLIC "-//W3C//DTD SVG 1.1//EN" "http://www.w3.org/Graphics/SVG/1.1/DTD/svg11.dtd"><svg class="icon" style="" viewBox="0 0 1333 1024" version="1.1" xmlns="http://www.w3.org/2000/svg" p-id="577" xmlns:xlink="http://www.w3.org/1999/xlink" width="260.3515625" height="200"><defs><style type="text/css"><![CDATA[

]]></style></defs><path d="M266.106006 803.291659c0.016254-0.016254 0.032507-0.032507 0.048761-0.032507 4.079685 6.468983 11.816459 10.548668 20.154621 10.548668 12.239056 0 21.861262-9.931027 21.861262-22.186336 0-4.323491-1.186522-8.354415-3.283253-11.767698 0.016254-0.016254 0.032507-0.016254 0.048761-0.032507-28.216469-54.124908-44.161374-115.515232-44.161374-180.530138 0-217.393589 178.287123-394.282891 397.452368-394.282891 111.598084 0 212.598739 45.868015 284.862806 119.594918 69.647217 71.061291 112.589562 167.982261 112.589562 274.687974 0 60.285071-13.701891 117.46568-38.196257 168.616156-1.852925 3.136969-2.941924 6.745296-2.941924 10.564922 0 12.287817 11.16631 22.235098 23.324097 22.235098 7.899311 0 14.920921-3.998417 18.88683-10.158579l0.097522 0.048761c0.178791-0.341328 0.341328-0.69891 0.520119-1.056492 0.455104-0.796433 0.861447-1.641626 1.202776-2.503074 27.257499-56.953057 42.519748-120.618903 42.519748-187.746792 0-10.321116-0.357582-20.54471-1.072746-30.687035L1100.019685 68.96456l92.662493 79.919572c9.215863 7.931818 23.210321 6.972849 31.239662-2.194253 8.013087-9.150848 7.054117-23.047784-2.161746-30.995856l-127.656766-110.070234c-3.592074-3.104462-7.931818-4.84361-12.336578-5.266207C1080.482706 0.113776 1079.166155 0 1077.833349 0c-12.206548 0-22.153829 9.849758-22.153829 21.991292l0 383.652955C983.3992 260.238411 832.385829 159.985428 658.227152 159.985428c-244.17973 0-442.849026 197.076431-442.849026 439.305713C215.39438 672.871759 233.728584 742.291424 266.106006 803.291659z" p-id="578"></path><path d="M1326.33657 873.491503c-29.321722-31.093378-70.866246-8.013087-103.243669 4.209715-17.180189 6.485237-27.127469 4.632312-42.731046-4.876118-17.163935-10.4674-32.702497-21.958784-53.409744-24.153037-21.519934-2.275522-40.95939 6.355207-58.805982 17.375233-23.242829 14.368294-47.883478 19.764531-74.230768 8.67949-20.057098-8.435684-36.879705-22.934008-58.643444-27.290006-23.892978-4.794849-45.916777 5.883849-64.868621 19.195651-19.179397 13.458085-32.507453 14.693369-53.734819 3.949655-22.478903-11.345101-46.160583-22.105068-72.069022-16.253726-23.519142 5.298715-43.478718 19.797039-66.7378 25.843425-25.502096 6.63152-49.557611-12.531623-71.093799-22.690202-20.089606-9.492176-42.861076-12.044011-63.812129-3.787118-20.577217 8.094356-36.782183 26.964932-59.602414 28.866618-27.30626 2.275522-49.915193-15.245995-74.263275-23.779202-25.144515-8.80952-48.761179-3.462044-71.857724 8.516953-12.872951 6.680281-25.632126 17.911606-41.170689 15.814876-15.343518-2.080477-26.152246-15.213488-39.919152-21.146098-38.310033-16.546293-64.982398 11.085041-98.725133 22.852739-23.194067 8.078102-52.353252-19.504472-72.995485-27.208738-30.410722-11.345101-58.822235-1.950447-78.911841 22.885247-18.464233 22.820232 14.010712 44.015091 32.686243 20.967307 11.410116-14.091981 19.325681-17.814084 36.050765-9.996042 17.6678 8.256893 33.580198 19.033113 52.174461 25.469589 20.187128 6.989102 40.211719 2.551835 59.098549-5.688804 18.49674-8.061848 37.627376-28.362752 58.090818-15.376025 19.01686 12.060265 34.636691 21.048575 58.05831 21.845008 23.779202 0.812686 44.063852-14.563339 64.055935-24.94947 22.9015-11.881474 44.551464 6.290192 65.502517 14.368294 26.233514 10.109818 55.864057 13.864428 82.536422 3.478297 17.79783-6.924087 31.987333-21.747486 50.175253-27.143723 20.739755-6.143909 49.411328 18.821815 68.103113 25.794664 22.137575 8.256893 46.420642 7.785535 68.671993 0.601388 24.543127-7.948072 46.06306-27.777618 73.011738-20.349665 21.845008 6.030132 38.700122 22.20259 62.430563 23.584157 23.795455 1.381567 42.503494-7.72052 61.390324-20.983561 8.029341-5.640043 16.351249-11.068788 26.47732-11.523892 9.020818-0.406343 18.870576 7.330431 26.184753 11.605161 23.567903 13.78316 47.688433 22.365127 75.205991 22.820232 16.985144 0.276313 32.361169-3.722103 47.785955-10.33737 12.742921-5.461252 23.177814-15.229742 36.213302-20.122113 21.666217-8.126863 41.447002 13.78316 59.196071 22.885247 23.762948 12.190295 46.729463 10.581176 71.028784 1.39782 11.556399-4.372252 22.77147-9.50843 34.474153-13.5231 4.437267-1.52785 9.167102-2.925671 13.848175-3.283253 5.818834-0.438851 2.633104-0.861447 5.721312 2.405551C1314.065006 916.092519 1346.686235 895.060197 1326.33657 873.491503z" p-id="579"></path><path d="M1148.650834 986.893751c-14.449563 5.36373-22.836485 3.819626-35.953242-4.030924-14.433309-8.646982-27.517559-18.139158-44.941553-19.943322-18.106651-1.869179-34.4579 5.249954-49.476343 14.35204-19.569486 11.86522-40.292987 16.334995-62.46307 7.167893-16.887622-6.972849-31.028363-18.935591-49.362567-22.543918-20.105859-3.965909-38.635107 4.859864-54.580013 15.863637-16.123696 11.117549-27.355021 12.12528-45.217866 3.266999-18.903084-9.3784-38.846406-18.252935-60.626399-13.425578-19.797039 4.388506-36.587138 16.351249-56.156624 21.357396-21.471172 5.493759-41.707062-10.353624-59.813713-18.740546-16.920129-7.834296-36.083272-9.94728-53.702312-3.136969-17.310218 6.696535-30.947095 22.283859-50.158999 23.844216-22.982769 1.869179-41.999629-12.580384-62.495577-19.634501-21.162352-7.281669-41.024405-2.860656-60.463862 7.037863-10.841235 5.526267-21.568695 14.790891-34.636691 13.051742-12.905459-1.706641-22.007545-12.547877-33.580198-17.456502-32.231139-13.669384-54.677535 9.150848-83.072795 18.870576-19.520725 6.680281-44.047598-16.107443-61.439085-22.478903-25.583365-9.362146-49.492596-1.609119-66.396472 18.903084-15.554816 18.854322 11.800205 38.196257 27.501305 19.14689 9.605952-11.653922 16.253726-14.709622 30.329453-8.256893 14.87216 6.826565 28.26523 15.717353 43.901315 21.032322 16.96889 5.770073 33.840258 2.096731 49.736402-4.697327 15.57107-6.664028 31.662259-23.42162 48.874955-12.710414 16.00992 9.963534 29.159185 17.391487 48.858701 18.05789 20.008337 0.682657 37.07475-12.027757 53.897356-20.609725 19.276919-9.817251 37.497346 5.201192 55.132639 11.86522 22.07256 8.354415 47.005776 11.442623 69.452172 2.87691 14.985936-5.721312 26.916171-17.976621 42.227181-22.430142 17.456502-5.087416 41.577032 15.554816 57.294385 21.308635 18.62677 6.826565 39.073958 6.436476 57.781997 0.487612 20.658486-6.566505 38.765137-22.950261 61.439085-16.806353 18.382964 4.989894 32.556214 18.334203 52.532043 19.488218 20.024591 1.137761 35.774451-6.371461 51.670596-17.342726 6.76155-4.664819 13.766906-9.150848 22.283859-9.524684 7.59049-0.341328 15.879891 6.046386 22.023799 9.573445 19.829546 11.393862 40.13045 18.480487 63.29201 18.854322 14.303279 0.227552 27.241245-3.071954 40.211719-8.533206 10.727459-4.502282 19.520725-12.580384 30.475737-16.611308 18.220427-6.712789 34.880497 11.377608 49.817671 18.903084 19.992083 10.07731 39.30151 8.744505 59.764951 1.154015 9.719728-3.608327 19.163143-7.85055 29.012901-11.182564 3.738357-1.251537 7.704266-2.405551 11.653922-2.714372 4.892372-0.357582 2.210507-0.715164 4.811103 1.982955 17.180189 17.862845 44.616479-1.332806 27.501305-19.14689C1210.853845 957.734566 1175.89208 976.783933 1148.650834 986.893751z" p-id="580"></path><path d="M96.140791 231.550584c2.275522-0.682657 22.186336-6.127655 29.646797 10.662444 0.276313 2.177999 0.731418 4.437267 1.430328 6.777804 1.121507 3.754611 4.616058 6.19267 8.41943 6.19267 0.812686 0 1.641626-0.113776 2.454313-0.357582 4.648566-1.332806 7.314177-6.111401 5.948864-10.662444-5.444998-18.285442 14.205757-26.21726 16.497532-27.062454 4.518536-1.65788 6.826565-6.582759 5.152431-11.03628C164.016352 201.627474 158.977696 199.368206 154.426653 200.993579c-7.476714 2.714372-18.090397 9.215863-24.169291 19.471964-12.807936-9.492176-29.906856-8.2894-39.43154-5.298715C86.242272 216.61341 83.722944 221.408259 85.169526 225.926795 86.616107 230.429077 91.524733 232.964658 96.140791 231.550584z" p-id="581"></path><path d="M226.885765 142.561433c3.006939-0.910209 29.256707-8.175624 39.090212 14.22201 0.357582 2.909417 0.95897 5.916356 1.885432 9.053326 1.479089 5.006148 6.078894 8.256893 11.085041 8.256893 1.072746 0 2.161746-0.146284 3.250745-0.471358 6.127655-1.771656 9.63846-8.143117 7.834296-14.22201-7.184147-24.364336 18.724293-34.945511 21.731232-36.083272 5.965118-2.210507 9.004564-8.793266 6.794058-14.709622-2.210507-5.948864-8.858281-8.972057-14.839652-6.794058-9.866012 3.608327-23.844216 12.287817-31.857303 25.957201-16.887622-12.661653-39.43154-11.052534-51.979417-7.070371-6.06264 1.91794-9.3784 8.338162-7.476714 14.35204C214.337888 141.06609 220.806871 144.430611 226.885765 142.561433z" p-id="582"></path><path d="M436.071222 651.498109c6.013879 5.948864 15.782368 5.965118 21.812501-0.016254l20.41468-20.252143 20.41468 20.252143c6.013879 5.948864 15.782368 5.981371 21.796247 0.016254 6.013879-5.965118 6.013879-15.652338 0-21.63371l-20.41468-20.252143 20.41468-20.252143c5.997625-5.948864 6.030132-15.668592 0-21.63371-5.997625-5.948864-15.782368-5.965118-21.796247 0.016254l-20.41468 20.252143-20.41468-20.252143c-6.013879-5.948864-15.798622-5.981371-21.812501-0.016254-6.013879 5.948864-6.013879 15.652338 0.016254 21.63371l20.41468 20.252143-20.41468 20.252143C430.073597 635.829517 430.057343 645.532992 436.071222 651.498109z" p-id="583"></path><path d="M802.056376 651.498109c6.013879 5.948864 15.782368 5.965118 21.812501-0.016254l20.41468-20.252143 20.41468 20.252143c6.013879 5.948864 15.782368 5.981371 21.812501 0.016254 5.997625-5.965118 6.013879-15.652338-0.016254-21.63371l-20.41468-20.252143 20.41468-20.252143c5.997625-5.948864 6.030132-15.668592 0.016254-21.63371-6.013879-5.948864-15.782368-5.965118-21.812501 0.016254l-20.41468 20.252143-20.41468-20.252143c-6.013879-5.948864-15.798622-5.981371-21.812501-0.016254-5.997625 5.948864-6.013879 15.652338 0.016254 21.63371l20.41468 20.252143-20.41468 20.252143C796.075004 635.829517 796.042497 645.532992 802.056376 651.498109z" p-id="584"></path></svg>