<?xml version="1.0" encoding="utf-8"?>
<!-- Generator: Adobe Illustrator 19.0.0, SVG Export Plug-In . SVG Version: 6.00 Build 0)  -->
<svg version="1.1" id="图层_1" xmlns="http://www.w3.org/2000/svg" xmlns:xlink="http://www.w3.org/1999/xlink" x="0px" y="0px"
	 viewBox="-249 404.9 32 32" style="enable-background:new -249 404.9 32 32;" xml:space="preserve">
<style type="text/css">
	.st0{fill:#999999;}
</style>
<path class="st0" d="M-220.8,408.1c-0.2-0.1-3.9-3.2-12.2-3.2c-8.3,0-12,3.1-12.2,3.2c-0.2,0.2-0.3,0.5-0.3,0.8v15.9
	c0,2.3,1.1,4.4,3,5.7l8.9,6.2c0.2,0.1,0.4,0.2,0.6,0.2s0.4-0.1,0.6-0.2l8.9-6.2c1.9-1.3,3-3.5,3-5.7v-15.9
	C-220.5,408.6-220.6,408.3-220.8,408.1z M-222.5,424.8c0,1.6-0.8,3.2-2.1,4.1l-8.4,5.8l-8.4-5.8c-1.3-0.9-2.1-2.5-2.1-4.1v-15.4
	c0.4-0.3,1.1-0.7,2.2-1.1c2.9-1.1,6.1-1.4,8.3-1.4c3.9,0,6.6,0.8,8.3,1.4c1.1,0.4,1.8,0.9,2.2,1.1V424.8z"/>
<path class="st0" d="M-229.5,422.8c0.9-1.1,1.5-2.4,1.5-3.9c0-3.3-2.7-6-6-6c-3.3,0-6,2.7-6,6c0,3.3,2.7,6,6,6c1.1,0,2.1-0.3,3-0.8
	l2.3,2.5c0.2,0.2,0.5,0.3,0.7,0.3c0.2,0,0.5-0.1,0.7-0.3c0.4-0.4,0.4-1,0.1-1.4C-227.3,425.2-229.5,422.8-229.5,422.8z M-238,418.9
	c0-2.2,1.8-4,4-4s4,1.8,4,4c0,2.2-1.8,4-4,4S-238,421.1-238,418.9z"/>
</svg>
