<?xml version="1.0" encoding="utf-8"?>
<!-- Generator: Adobe Illustrator 17.0.0, SVG Export Plug-In . SVG Version: 6.00 Build 0)  -->
<!DOCTYPE svg PUBLIC "-//W3C//DTD SVG 1.1//EN" "http://www.w3.org/Graphics/SVG/1.1/DTD/svg11.dtd">
<svg version="1.1" id="图层_1" xmlns="http://www.w3.org/2000/svg" xmlns:xlink="http://www.w3.org/1999/xlink" x="0px" y="0px"
	 width="14px" height="14px" viewBox="1 1 14 14" enable-background="new 1 1 14 14" xml:space="preserve">
<g>
	<path fill="#999999" d="M4.506,3.635h6.988v0.873H4.506V3.635z M4.483,5.39h6.988v0.873H4.483V5.39z M4.483,7.137h1.792v0.874
		H4.483V7.137z M4.483,8.884h0.791v0.874H4.483V8.884z M13.241,1H2.759C2.277,1,1.885,1.391,1.885,1.874v12.229
		c0,0.482,0.391,0.873,0.873,0.873l4.086-0.004v-0.873l-4.086,0.004V1.874h10.482v5.765h0.873l0-5.765
		C14.115,1.391,13.723,1,13.241,1L13.241,1z"/>
	<path fill="#999999" d="M11.051,7.691c-0.749,0-1.362,0.613-1.362,1.362c0,0.477,0.272,0.953,0.681,1.157
		c0.204,0.136,0.409,0.204,0.681,0.204c0.272,0,0.477-0.068,0.681-0.204c0.409-0.204,0.681-0.681,0.681-1.157
		C12.412,8.304,11.8,7.691,11.051,7.691z M11.391,9.665c-0.136,0.068-0.204,0.136-0.409,0.136c-0.136,0-0.272-0.068-0.409-0.136
		c-0.204-0.136-0.272-0.34-0.272-0.545c0-0.34,0.34-0.681,0.681-0.681c0.409,0,0.681,0.34,0.681,0.681
		C11.732,9.325,11.595,9.529,11.391,9.665z"/>
	<path fill="#999999" d="M11.663,10.074l-0.272-0.409c-0.136,0.068-0.204,0.136-0.409,0.136c-0.136,0-0.272-0.068-0.409-0.136
		l-0.204,0.409l-1.634,2.928h4.698L11.663,10.074z M11.051,10.414l1.362,2.519H9.757L11.051,10.414z"/>
	<path fill="#999999" d="M13.434,12.934H8.668c-0.409,0-0.681,0.272-0.681,0.681v0.681c0,0.409,0.272,0.681,0.681,0.681h4.766
		c0.409,0,0.681-0.272,0.681-0.681v-0.681C14.115,13.274,13.774,12.934,13.434,12.934z M13.434,14.295H8.668v-0.681h4.766
		L13.434,14.295z"/>
</g>
</svg>
