<?xml version="1.0" encoding="utf-8"?>
<!-- Generator: Adobe Illustrator 19.0.0, SVG Export Plug-In . SVG Version: 6.00 Build 0)  -->
<svg version="1.1" id="图层_1" xmlns="http://www.w3.org/2000/svg" xmlns:xlink="http://www.w3.org/1999/xlink" x="0px" y="0px"
	 viewBox="-279 281 40 40" style="enable-background:new -279 281 40 40;" xml:space="preserve">
<style type="text/css">
	.st0{fill:#333333;}
</style>
<path class="st0" d="M-277.4,293.3L-277.4,293.3l17.8,10.3c0.2,0.1,0.4,0.2,0.6,0.2c0.2,0,0.4-0.1,0.6-0.2l17.7-10.2
	c0.6-0.3,0.8-1,0.4-1.6c-0.1-0.2-0.3-0.3-0.4-0.4l-17.6-10.2c-0.2-0.1-0.4-0.2-0.6-0.2c-0.2,0-0.5,0.1-0.6,0.2l-17.7,10.2
	c-0.6,0.3-0.8,1-0.4,1.6C-277.6,293.1-277.5,293.2-277.4,293.3z M-259,283.5l15.3,8.9l-15.3,8.9l-15.3-8.8L-259,283.5z"/>
<path class="st0" d="M-240.7,300l-3.3-1.9l-2.3,1.4l2.7,1.6l-15.3,8.9l-15.3-8.8l2.7-1.6l-2.3-1.4l-3.3,1.9c-0.6,0.3-0.8,1-0.4,1.6
	c0.1,0.1,0.2,0.2,0.3,0.3l0,0l17.8,10.3c0.2,0.1,0.4,0.2,0.6,0.2c0.2,0,0.4-0.1,0.6-0.2l17.7-10.2c0.6-0.3,0.8-1,0.4-1.6
	C-240.4,300.2-240.6,300.1-240.7,300z"/>
<path class="st0" d="M-240.7,308.6l-3.3-1.9l-2.3,1.4l2.7,1.6l-15.3,8.9l-15.3-8.8l2.7-1.6l-2.3-1.4l-3.3,1.9
	c-0.6,0.3-0.8,1-0.4,1.6c0.1,0.1,0.2,0.2,0.3,0.3l0,0l17.8,10.3c0.2,0.1,0.4,0.2,0.6,0.2c0.2,0,0.4-0.1,0.6-0.2l17.7-10.2
	c0.6-0.3,0.8-1,0.4-1.6C-240.4,308.8-240.6,308.7-240.7,308.6z"/>
</svg>
