<?xml version="1.0" encoding="utf-8"?>
<!-- Generator: Adobe Illustrator 19.0.0, SVG Export Plug-In . SVG Version: 6.00 Build 0)  -->
<svg version="1.1" id="图层_1" xmlns="http://www.w3.org/2000/svg" xmlns:xlink="http://www.w3.org/1999/xlink" x="0px" y="0px"
	 viewBox="-105 106 32.9 32" style="enable-background:new -105 106 32.9 32;" xml:space="preserve">
<style type="text/css">
	.st0{fill:#666666;}
</style>
<path class="st0" d="M-88.2,109.3c-0.5,0-0.9,0.4-0.9,0.9s0.4,0.9,0.9,0.9h14.5c0.5,0,0.9-0.4,0.9-0.9s-0.4-0.9-0.9-0.9H-88.2z
	 M-103.2,109.3c-0.5,0-0.9,0.4-1,0.9c0,0.5,0.4,0.9,0.9,1h4.1c0.5,0,0.9-0.4,1-0.9c0-0.5-0.4-0.9-0.9-1H-103.2z"/>
<path class="st0" d="M-94.9,114.4c2.3,0,4.2-1.9,4.2-4.2c0-2.3-1.9-4.2-4.2-4.2l0,0c-2.3,0-4.2,1.9-4.2,4.2S-97.2,114.4-94.9,114.4z
	 M-94.9,107.8c1.3,0,2.4,1.1,2.4,2.4s-1.1,2.4-2.4,2.4l0,0c-1.3,0-2.4-1.1-2.4-2.4C-97.4,108.9-96.3,107.8-94.9,107.8z M-88.2,132.8
	c-0.5,0-0.9,0.4-0.9,0.9s0.4,0.9,0.9,0.9h14.5c0.5,0,0.9-0.4,0.9-0.9s-0.4-0.9-0.9-0.9H-88.2z M-103.2,132.8c-0.5,0-0.9,0.4-1,0.9
	s0.4,0.9,0.9,1l0,0h4.1c0.5,0,0.9-0.4,1-0.9c0-0.5-0.4-0.9-0.9-1l0,0H-103.2z"/>
<path class="st0" d="M-94.9,137.9c2.3,0,4.2-1.9,4.2-4.2s-1.9-4.2-4.2-4.2s-4.2,1.9-4.2,4.2S-97.2,137.9-94.9,137.9z M-94.9,131.3
	c1.3,0,2.4,1.1,2.4,2.4s-1.1,2.4-2.4,2.4l0,0c-1.3,0-2.4-1.1-2.4-2.4C-97.4,132.4-96.3,131.3-94.9,131.3z M-88.8,123.4
	c0.5,0,0.9-0.4,0.9-0.9s-0.4-0.9-0.9-0.9h-14.5c-0.5,0-0.9,0.4-0.9,0.9s0.4,0.9,0.9,0.9l0,0H-88.8z M-73.8,123.4
	c0.5,0,0.9-0.4,0.9-1c0-0.5-0.4-0.9-1-0.9H-78c-0.5,0-0.9,0.4-0.9,1c0,0.5,0.4,0.9,1,0.9H-73.8L-73.8,123.4z"/>
<path class="st0" d="M-81.8,124.9c-1.3,0-2.4-1.1-2.4-2.4s1.1-2.4,2.4-2.4l0,0c1.3,0,2.4,1.1,2.4,2.4
	C-79.3,123.8-80.4,124.9-81.8,124.9z M-81.8,118.3c-2.3,0-4.2,1.9-4.2,4.2c0,2.3,1.9,4.2,4.2,4.2l0,0c2.3,0,4.2-1.9,4.2-4.2
	C-77.6,120.2-79.5,118.3-81.8,118.3z"/>
</svg>
