<?xml version="1.0" standalone="no"?><!DOCTYPE svg PUBLIC "-//W3C//DTD SVG 1.1//EN" "http://www.w3.org/Graphics/SVG/1.1/DTD/svg11.dtd"><svg t="1490694352557" class="icon" style="" viewBox="0 0 1024 1024" version="1.1" xmlns="http://www.w3.org/2000/svg" p-id="4134" xmlns:xlink="http://www.w3.org/1999/xlink" width="32" height="32"><defs><style type="text/css"></style></defs><path d="M1024 884.288l0-60.8c0-18.624-15.104-33.728-33.728-33.728L640 789.76l0 128.256 350.272 0C1008.896 917.952 1024 902.848 1024 884.288L1024 884.288zM0 481.536l0 60.8c0 18.624 15.104 33.728 33.728 33.728l520.896 0L554.624 447.808 33.728 447.808C15.104 447.936 0 462.912 0 481.536L0 481.536zM0 823.424l0 60.8c0 18.624 15.104 33.728 33.728 33.728l307.584 0L341.312 789.76 33.728 789.76C15.104 789.824 0 804.864 0 823.424L0 823.424zM0 139.648l0 60.8c0 18.624 15.104 33.728 33.728 33.728l179.712 0L213.44 105.92 33.728 105.92C15.104 106.048 0 121.024 0 139.648L0 139.648zM256 63.296l0 213.696c0 23.616 19.072 42.688 42.688 42.688l128 0c23.616 0 42.688-19.072 42.688-42.688L469.376 63.296c0-23.616-19.136-42.688-42.688-42.688l-128 0C275.072 20.48 256 39.744 256 63.296L256 63.296zM1024 200.576l0-60.8c0-18.624-15.104-33.728-33.728-33.728L512 106.048l0 128.256 478.272 0C1008.896 234.176 1024 219.136 1024 200.576L1024 200.576zM597.312 405.12 597.312 618.88c0 23.616 19.072 42.688 42.688 42.688l128 0c23.616 0 42.688-19.072 42.688-42.688L810.688 405.248c0-23.616-19.072-42.688-42.688-42.688l-128 0C616.384 362.368 597.312 381.504 597.312 405.12L597.312 405.12zM1024 542.464l0-60.8c0-18.624-15.104-33.728-33.728-33.728l-136.96 0 0 128.128 136.96 0C1008.896 576.064 1024 561.088 1024 542.464L1024 542.464zM384 747.008l0 213.696c0 23.616 19.072 42.688 42.688 42.688l128 0c23.616 0 42.688-19.072 42.688-42.688l0-213.696c0-23.616-19.136-42.688-42.688-42.688l-128 0C403.072 704.32 384 723.392 384 747.008L384 747.008zM384 747.008" p-id="4135" fill="#999999"></path></svg>