<?xml version="1.0" encoding="utf-8"?>
<!-- Generator: Adobe Illustrator 19.0.0, SVG Export Plug-In . SVG Version: 6.00 Build 0)  -->
<svg version="1.1" id="图层_1" xmlns="http://www.w3.org/2000/svg" xmlns:xlink="http://www.w3.org/1999/xlink" x="0px" y="0px"
	 viewBox="-249 404.9 32 32" style="enable-background:new -249 404.9 32 32;" xml:space="preserve">
<style type="text/css">
	.st0{fill:#999999;}
</style>
<path class="st0" d="M-225.6,414l-8.7,8.8l-3.8-3.9c-0.5-0.5-1.2-0.5-1.7,0c-0.5,0.5-0.5,1.2,0,1.7l4.7,4.8h0
	c0.1,0.1,0.2,0.1,0.2,0.2c0,0,0.1,0.1,0.1,0.1c0.2,0.1,0.3,0.1,0.5,0.1s0.3,0,0.4-0.1c0,0,0.1-0.1,0.1-0.1c0.1-0.1,0.2-0.1,0.3-0.2
	h0l9.5-9.6c0.5-0.5,0.5-1.2,0-1.7C-224.4,413.6-225.1,413.6-225.6,414z"/>
<path class="st0" d="M-219,413.5c0-1.5,0-3.2,0-5.1c0-0.5-0.3-0.9-0.7-1c-4.2-1.3-8.1-2-13.1-2.6h-0.2c-2.6,0.1-5,0.5-7.1,1
	c-2.2,0.5-4.2,1-6.2,1.6c-0.4,0.1-0.7,0.5-0.7,1c0,1.7,0,3.2,0,4.6c-0.1,12-0.2,16.5,11.6,23.1c1,0.5,1.7,0.8,2.5,0.8
	c0.8,0,1.5-0.2,2.5-0.7C-218.8,429.8-218.8,426-219,413.5z M-231.5,434.3c-0.6,0.3-1.1,0.5-1.5,0.5s-0.8-0.2-1.5-0.5
	c-10.7-5.9-10.7-9.2-10.5-21.2c0-1.2,0-2.5,0-3.8c1.7-0.5,3.4-1,5.3-1.4c2-0.5,4.3-0.8,6.7-0.9c4.6,0.5,8.1,1.2,11.9,2.3
	c0,1.5,0,3,0,4.3C-220.9,425.7-220.9,428.6-231.5,434.3z"/>
</svg>
