<?xml version="1.0" encoding="utf-8"?>
<!-- Generator: Adobe Illustrator 19.0.0, SVG Export Plug-In . SVG Version: 6.00 Build 0)  -->
<svg version="1.1" id="图层_1" xmlns="http://www.w3.org/2000/svg" xmlns:xlink="http://www.w3.org/1999/xlink" x="0px" y="0px"
	 viewBox="-253 360.2 32 32" style="enable-background:new -253 360.2 32 32;" xml:space="preserve">
<style type="text/css">
	.st0{fill:#999999;}
</style>
<path class="st0" d="M-229.7,365.6c2,0,3.7,1.7,3.7,3.7c0,2-1.7,3.7-3.7,3.7s-3.7-1.7-3.7-3.7C-233.4,367.2-231.7,365.6-229.7,365.6
	z M-229.7,371c0.9,0,1.7-0.8,1.7-1.7c0-0.9-0.8-1.7-1.7-1.7c-0.9,0-1.7,0.8-1.7,1.7S-230.6,371-229.7,371z"/>
<path class="st0" d="M-240.7,364.5c2.5-2.5,4.3-4.3,7.5-4.3h5.1c6.2,0,7.2,2.3,7.2,7.4v5.4c0,2.9-0.6,3.7-2.7,5.8l-12.6,12.3
	c-1.4,1.4-4.1,1.4-5.5,0l-10.1-9.9c-0.7-0.7-1.1-1.7-1.1-2.7c0-1.1,0.4-2,1.1-2.7L-240.7,364.5L-240.7,364.5z M-240.1,389.3
	c0.2,0.2,0.6,0.4,1,0.4s0.8-0.1,1-0.4l12.6-12.3c1.9-1.9,2-2.1,2-4v-5.4c0-4.2-0.3-4.9-4.7-4.9h-5.1c-2,0-3.2,1.1-5.7,3.6l-1,1
	l-10.1,10.3c-0.3,0.3-0.4,0.6-0.4,1c0,0.4,0.1,0.7,0.4,1L-240.1,389.3L-240.1,389.3z"/>
</svg>
