<?xml version="1.0" encoding="utf-8"?>
<!-- Generator: Adobe Illustrator 19.0.0, SVG Export Plug-In . SVG Version: 6.00 Build 0)  -->
<svg version="1.1" id="图层_1" xmlns="http://www.w3.org/2000/svg" xmlns:xlink="http://www.w3.org/1999/xlink" x="0px" y="0px"
	 viewBox="-717 735 32 32" style="enable-background:new -717 735 32 32;" xml:space="preserve">
<style type="text/css">
	.st0{fill:#999999;}
</style>
<path class="st0" d="M-685,757h-7.3c0,0-0.2-0.8-0.7-1.5c-0.7-1.1-2.1-2.3-3.7-2.7c1.1-1.9,2.4-3.1,4.9-3.1c4.5,0,6.4,2,6.6,5.8l0,0
	L-685,757L-685,757z"/>
<path class="st0" d="M-717,757v-1.5l0,0c0.2-3.9,2.1-5.8,6.6-5.8c2.5,0,3.9,1.1,4.9,3.1c-1.7,0.4-3,1.6-3.7,2.7
	c-0.5,0.7-0.7,1.5-0.7,1.5H-717L-717,757z"/>
<path class="st0" d="M-691.7,749.5c-1.1,0-2-0.3-2.8-0.9c0.5-1,0.8-2.1,0.8-3.3c0-1.6-0.5-3.1-1.4-4.2c0.9-0.9,2.1-1.5,3.4-1.5
	c2.7,0,4.8,2.2,4.8,4.9S-689,749.5-691.7,749.5L-691.7,749.5z"/>
<circle class="st0" cx="-701" cy="745.4" r="5.8"/>
<path class="st0" d="M-707.5,748.5c-0.8,0.6-1.7,0.9-2.8,0.9c-2.7,0-4.8-2.2-4.8-4.9s2.1-4.9,4.8-4.9c1.3,0,2.5,0.6,3.4,1.5
	c-0.9,1.1-1.4,2.7-1.4,4.2C-708.3,746.5-708.1,747.6-707.5,748.5L-707.5,748.5z"/>
<path class="st0" d="M-701.1,752.5c6.7,0,9.3,4.9,9.3,10.3h-0.5l0,0h-17.8v-0.1C-710.1,757.3-707.7,752.5-701.1,752.5L-701.1,752.5z
	"/>
</svg>
