<?xml version="1.0" encoding="utf-8"?>
<!-- Generator: Adobe Illustrator 19.0.0, SVG Export Plug-In . SVG Version: 6.00 Build 0)  -->
<svg version="1.1" id="图层_1" xmlns="http://www.w3.org/2000/svg" xmlns:xlink="http://www.w3.org/1999/xlink" x="0px" y="0px"
	 viewBox="0 0 200 70" style="enable-background:new 0 0 200 70;" xml:space="preserve">
<style type="text/css">
	.st0{fill:#008BD5;}
	.st1{fill:#00AEDC;}
	.st2{fill:#262626;}
</style>
<path id="XMLID_296_" class="st0" d="M69.4,24L45.5,64.7h20.8c11.1,0,20.2-9.2,20.2-20.5C86.5,34,79.1,25.5,69.4,24z"/>
<path id="XMLID_293_" class="st1" d="M66.7,23.7C64.5,13.6,55.5,5.9,44.6,5.3v56.2L66.7,23.7z"/>
<path id="XMLID_290_" class="st0" d="M42.2,5.3c-10.9,0.5-19.9,8.1-22.3,18.1l22.3,38V5.3z"/>
<path id="XMLID_264_" class="st1" d="M0,44.2c0,11.3,9,20.5,20.2,20.5h21L17.4,23.9C7.6,25.3,0,33.9,0,44.2z"/>
<path id="XMLID_265_" class="st2" d="M96.5,57.2c0-0.5,0-0.8-0.1-1.3h1.4c-0.1,0.5-0.1,0.8-0.1,1.3v0.5h0.8c0.8,0,1.2,0,1.7-0.1v0.9
	c-0.5,0-0.9-0.1-1.7-0.1h-0.9v4.1c0,0.4,0.1,0.6,0.2,0.7c0.1,0.1,0.5,0.2,0.9,0.2c0.5,0,0.8-0.1,1.3-0.3l0.4,0.8
	c-0.7,0.2-1.2,0.3-1.8,0.3c-0.7,0-1.3-0.1-1.7-0.4c-0.3-0.3-0.4-0.6-0.4-1.3v-4.1h-0.7c-0.7,0-1,0-1.5,0.1v-0.9
	c0.5,0,0.8,0.1,1.5,0.1h0.7C96.5,57.7,96.5,57.2,96.5,57.2z"/>
<path id="XMLID_267_" class="st2" d="M103.3,60.9c0.1,0.9,0.2,1.4,0.6,1.8c0.5,0.5,1.1,0.7,1.9,0.7c0.7,0,1.3-0.2,1.8-0.6
	c0.3-0.2,0.4-0.4,0.5-0.8l1.1,0.3c-0.3,0.6-0.5,0.8-0.9,1.1c-0.7,0.5-1.5,0.8-2.5,0.8c-2.3,0-3.7-1.3-3.7-3.3c0-1.2,0.5-2.2,1.3-2.8
	c0.6-0.4,1.4-0.6,2.3-0.6c2.1,0,3.4,1.1,3.5,3.1c0,0.1,0,0.3,0,0.4h-5.9V60.9z M108,60.2c-0.1-0.6-0.2-1-0.6-1.4s-1-0.6-1.7-0.6
	s-1.2,0.2-1.7,0.7c-0.4,0.4-0.5,0.7-0.6,1.3H108z"/>
<path id="XMLID_270_" class="st2" d="M110.6,64c0.1-0.5,0.1-0.8,0.1-1.3V59c0-0.5,0-1-0.1-1.3h1.2v0.6c0,0.2,0,0.3,0,0.6
	c0.3-0.4,0.5-0.6,0.9-0.8c0.6-0.4,1.3-0.5,2.1-0.5c1.7,0,2.6,0.8,2.6,2.2v3c0,0.6,0,0.9,0.1,1.3h-1.4c0.1-0.4,0.1-0.8,0.1-1.3V60
	c0-1.2-0.6-1.7-1.7-1.7c-1.3,0-2.6,1.1-2.6,2.2v2.2c0,0.5,0,0.9,0.1,1.3H110.6z"/>
<path id="XMLID_272_" class="st2" d="M119.9,58.6c-0.4-0.5-0.6-0.7-0.9-1h1.5c0.1,0.2,0.4,0.6,0.6,0.8l1.4,1.7l1.4-1.7
	c0.2-0.2,0.4-0.6,0.6-0.8h1.4c-0.3,0.3-0.6,0.6-0.9,1l-1.8,2.1l1.9,2.2c0.3,0.3,0.7,0.8,1.1,1.1h-1.5c-0.2-0.4-0.2-0.4-0.6-0.9
	l-1.6-1.8l-1.6,1.9c-0.3,0.3-0.3,0.3-0.6,0.8h-1.5c0.1-0.1,0.2-0.2,0.2-0.2c0.1,0,0.3-0.3,0.8-0.8l2-2.3L119.9,58.6z"/>
<path id="XMLID_274_" class="st2" d="M133.1,59.6c-0.2-0.5-0.3-0.7-0.6-0.9c-0.4-0.3-0.9-0.5-1.5-0.5c-1.5,0-2.5,1-2.5,2.6
	s1,2.6,2.6,2.6c0.7,0,1.2-0.2,1.6-0.5c0.2-0.2,0.3-0.4,0.5-0.9l1.1,0.3c-0.2,0.5-0.4,0.7-0.7,1c-0.6,0.6-1.5,0.9-2.7,0.9
	c-2.3,0-3.7-1.3-3.7-3.3c0-2.1,1.4-3.4,3.7-3.4c1.2,0,2.2,0.4,2.8,1.1c0.2,0.2,0.3,0.4,0.5,0.8L133.1,59.6z"/>
<path id="XMLID_276_" class="st2" d="M138.2,55c-0.1,0.4-0.1,0.8-0.1,1.4v6.4c0,0.5,0,0.8,0.1,1.3h-1.4c0.1-0.5,0.1-0.9,0.1-1.3
	v-6.4c0-0.6,0-0.9-0.1-1.3h1.4V55z"/>
<path id="XMLID_278_" class="st2" d="M140.5,60.8c0-2.1,1.4-3.4,3.7-3.4c2.2,0,3.7,1.3,3.7,3.4c0,1.1-0.5,2.1-1.3,2.7
	c-0.6,0.4-1.4,0.7-2.4,0.7C141.9,64.2,140.5,62.9,140.5,60.8z M144.2,63.4c1.5,0,2.5-1,2.5-2.6s-1-2.6-2.4-2.6c-1.5,0-2.5,1-2.5,2.6
	C141.7,62.4,142.7,63.4,144.2,63.4z"/>
<path id="XMLID_281_" class="st2" d="M156,57.6c-0.1,0.5-0.1,0.8-0.1,1.3v3.7c0,0.6,0,0.9,0.1,1.3h-1.2v-0.7c0-0.2,0-0.4,0.1-0.6
	c-0.3,0.5-0.5,0.6-0.9,0.9c-0.6,0.3-1.3,0.5-2,0.5c-1.7,0-2.6-0.8-2.6-2.2v-3c0-0.6,0-0.9-0.1-1.3h1.4c-0.1,0.4-0.1,0.8-0.1,1.3v2.8
	c0,1.1,0.6,1.7,1.7,1.7c0.5,0,0.9-0.1,1.3-0.3c0.8-0.4,1.3-1.2,1.3-1.9V59c0-0.5,0-0.9-0.1-1.3h1.2V57.6z"/>
<path id="XMLID_283_" class="st2" d="M163,63.4c0-0.1,0-0.3,0-0.5c-0.2,0.3-0.3,0.5-0.6,0.6c-0.6,0.4-1.2,0.5-2,0.5s-1.5-0.2-2-0.6
	c-0.7-0.6-1.1-1.6-1.1-2.8s0.4-2.2,1.1-2.7c0.5-0.4,1.2-0.6,2-0.6s1.4,0.2,2,0.5c0.3,0.2,0.4,0.3,0.6,0.7c0-0.1,0-0.1,0-0.2
	c0-0.2,0-0.3,0-0.6v-1.6c0-0.5,0-0.9-0.1-1.4h1.3c-0.1,0.5-0.1,0.8-0.1,1.3v6.3c0,0.6,0,0.9,0.1,1.4H163V63.4z M160.7,63.4
	c1.4,0,2.3-1,2.3-2.6s-0.9-2.6-2.3-2.6c-1.3,0-2.1,0.9-2.1,2.5C158.6,62.5,159.4,63.4,160.7,63.4z"/>
<g id="XMLID_286_">
	<path id="XMLID_287_" class="st2" d="M179.3,60.1c-0.2-0.4-0.3-0.6-0.5-0.8c-0.4-0.3-0.9-0.5-1.5-0.5c-1.5,0-2.5,1-2.5,2.5
		s1,2.5,2.5,2.5c0.7,0,1.2-0.2,1.5-0.5c0.2-0.2,0.3-0.4,0.5-0.8l1.1,0.2c-0.2,0.5-0.4,0.7-0.6,1c-0.5,0.6-1.5,0.9-2.6,0.9
		c-2.2,0-3.6-1.2-3.6-3.1c0-2,1.4-3.2,3.6-3.2c1.2,0,2.1,0.3,2.7,1c0.2,0.2,0.3,0.4,0.5,0.7L179.3,60.1z"/>
	<path id="XMLID_289_" class="st2" d="M181.4,61.2c0-1.9,1.4-3.2,3.6-3.2c2.2,0,3.6,1.2,3.6,3.2c0,1.1-0.5,2-1.3,2.6
		c-0.6,0.4-1.4,0.6-2.3,0.6C182.8,64.4,181.4,63.2,181.4,61.2z M185,63.7c1.5,0,2.4-0.9,2.4-2.5c0-1.5-0.9-2.5-2.4-2.5
		s-2.5,1-2.5,2.5C182.6,62.8,183.5,63.7,185,63.7z"/>
	<g id="XMLID_294_">
		<path id="XMLID_295_" class="st2" d="M199.2,63.8h-1.1v-3.2c0-0.6-0.1-1-0.3-1.3s-0.6-0.4-1.1-0.4c-0.4,0-0.8,0.2-1.1,0.5
			s-0.4,0.7-0.4,1.2v3.2H194v-3.3c0-1.1-0.5-1.6-1.4-1.6c-0.4,0-0.8,0.2-1.1,0.5s-0.4,0.7-0.4,1.2v3.2H190v-5.6h1.1v0.9l0,0
			c0.5-0.7,1.1-1,2-1c0.4,0,0.8,0.1,1.1,0.3s0.6,0.5,0.7,0.8c0.5-0.8,1.2-1.1,2.1-1.1c1.4,0,2.1,0.8,2.1,2.3L199.2,63.8L199.2,63.8z
			"/>
	</g>
</g>
<rect id="XMLID_298_" x="168.9" y="62.8" class="st2" width="1.7" height="1.7"/>
<path id="XMLID_299_" class="st2" d="M136.7,21.4l-6.4-1.9v3.2l6.4,2.1V21.4z M147.7,40.1c0.6-2.3,0.6-4.5,0.6-4.5h1.8v12.2h3.5
	V35.5h6.8c0,0,3.4,0.6,3.4-2.8s0-4.7,0-4.7s0-0.3-0.1-0.7c-0.4-1.7-2.4-1.5-2.4-1.5h-7.7v-2.6h0.4h9.1l0.9-2.6h-10.5V18h-3.8v2.6
	h-9.6v2.6h9.8v2.6h-7.2l0,0c-0.2,0-2.5-0.2-2.5,2.6c-0.1,3.1,0,4.7,0,4.7s0,2.3,2.6,2.5c2.3-0.1,2.3,0,2.3,0s0.3,6.6-5.8,8.4
	c0,2.6,0,2.6,0,2.6S145.8,46.6,147.7,40.1z M153.6,28L153.6,28L153.6,28h0.5l0,0h6c0,0,0.8-0.1,0.8,0.8c0,1.5,0,4.1,0,4.1
	s0,0.6-0.6,0.7c-0.8,0-6.6,0-6.6,0L153.6,28L153.6,28z M144.1,33.6c-0.9-0.1-0.9-0.8-0.9-0.8s0-3,0-3.9s0.9-0.8,0.9-0.8h5.7h0.2v5.6
	C150.1,33.6,145,33.6,144.1,33.6z M197,20.8l-27.7-0.1v2.6h26.5L197,20.8z M158.8,37.2h-3.2c1,9.1,9,9.4,9,9.4s0-0.2,0-2.5
	C159.5,42.6,158.8,37.2,158.8,37.2z M143.6,49.8c-2.2-0.4-5.7-1.2-7-3.4c-0.1-3.2,0-18.2,0-18.2H130v2.6h3.3v16.1l-3,3.7l0.1,0.1
	l0,0l2.3,2l2.8-3.4c0,0,3.9,3.5,14.5,3.7c3.7,0.1,11.1-0.4,16.3-1.7c0-2.4,0-2.6,0-2.6S153,51.9,143.6,49.8z M191.5,39.3L195,49
	c0,0-9.9,3.1-20.9,0.3c-0.4-0.4-0.3-0.4-0.1-1.4c0.3-1,4-13.4,4-13.4h-3.7L170.2,48c0,0-1.2,2.9,1.8,3.9c1.9,0.4,14.1,3.4,26.9-1.1
	c-1.1-3.3-4.2-11.3-4.2-11.3h-3.2V39.3z M118.2,44.7c0,0,0-0.3,0-2.8c-5.2-3.9-5.1-13.3-5.1-13.3h-2.6
	C110.4,43.6,118.2,44.7,118.2,44.7z M166.5,30.5V33h32.7l0.8-2.5H166.5z M99.2,20.6c-2.8,0.3-4.2,0.9-5.2,2.2v28.4
	c0,0,2.2,2.2,7.4,1.7c2.1-0.2,4-1.2,4.4-1.9c0.1-1,0-27.9,0-27.9S104.6,20.3,99.2,20.6z M102.9,33.5h-4v1.9h4v14.4
	c0,0-2.6,1.3-5.8,0.2c0-3.3-0.1-26-0.1-26s2.6-2,5.9,0.1C103,30.4,102.9,33.5,102.9,33.5z M124.7,17.9L124.7,17.9L124.7,17.9h-3l0,0
	h-0.1v5.6l-13.2,0.1v2.8h13.2v22.4c0,0-2.6,2.1-10.5,0.6c-0.1,2.2,0,2.5,0,2.5s9.4,2.3,13.6-1.7c0.1-4.7,0-23.8,0-23.8h2.6l0.9-2.9
	h-3.5V17.9z"/>
</svg>
