<?xml version="1.0" encoding="utf-8"?>
<!-- Generator: Adobe Illustrator 19.0.0, SVG Export Plug-In . SVG Version: 6.00 Build 0)  -->
<svg version="1.1" id="图层_1" xmlns="http://www.w3.org/2000/svg" xmlns:xlink="http://www.w3.org/1999/xlink" x="0px" y="0px"
	 viewBox="-749 735 32 32" style="enable-background:new -749 735 32 32;" xml:space="preserve">
<style type="text/css">
	.st0{fill:#999999;}
</style>
<path class="st0" d="M-735.8,761.4h-11.1v-1.7c0-1.4,3.1-3,6.2-4.5l0.1-0.1c3.8-1.9,2.4-4.7,1.3-7c-0.7-1.5-1.5-3.2-1.5-5
	c0-3.3,2.2-6,4.9-6s4.9,2.7,4.9,6c0,1.9-0.8,3.6-1.5,5c-0.3,0.7-0.6,1.3-0.8,2c-0.2,0.5,0.1,1.1,0.6,1.3c0.5,0.2,1.1-0.1,1.3-0.6
	l0,0c0.2-0.5,0.5-1.1,0.8-1.8c0.8-1.6,1.7-3.6,1.7-5.9c0-4.5-3.1-8.1-7-8.1s-7,3.6-7,8.1c0,2.3,0.9,4.3,1.7,5.9
	c1.3,2.7,1.4,3.4-0.4,4.3l-0.1,0.1c-3.9,1.9-7.3,3.6-7.3,6.3v1.8c0,1.1,0.9,2,2,2h11.1c0.6,0,1-0.5,1-1.1
	C-734.8,761.9-735.3,761.4-735.8,761.4z M-727.2,740.5c2.6,0.9,3.7,4.2,2.6,7.3c-0.2,0.5,0.1,1.1,0.7,1.3c0.5,0.2,1.1-0.1,1.3-0.6
	c1.5-4.2-0.2-8.7-3.8-10c-0.5-0.2-1.1,0.1-1.3,0.7C-728,739.8-727.7,740.3-727.2,740.5z"/>
<path class="st0" d="M-725.2,750.6c-4.5,0-8.2,3.7-8.2,8.2c0,4.5,3.7,8.2,8.2,8.2c4.5,0,8.2-3.7,8.2-8.2
	C-717.1,754.3-720.7,750.6-725.2,750.6z M-730.4,756.2c0-0.3,0.3-0.4,0.3-0.4l2.9-2.1c0,0,0.1-0.1,0.3-0.1c0.2,0,0.2,0.1,0.2,0.1
	v1.7h2.8c2.3,0,2.3,2.6,2.3,2.6c0-0.8-2.3-1.1-2.3-1.1h-2.9v1.6c0,0,0,0.1-0.2,0.2c-0.1,0-0.2,0-0.3,0l-3-2
	C-730.2,756.6-730.4,756.5-730.4,756.2z M-720.4,761.8c0,0-2.9,2-2.9,2.1c0,0-0.1,0.1-0.2,0.1c-0.2,0-0.2-0.1-0.2-0.1v-1.7h-2.8
	c-2.3,0-2.3-2.6-2.3-2.6c0,0.8,2.3,1.1,2.3,1.1h2.9v-1.6c0,0,0-0.1,0.2-0.2c0.1,0,0.2,0,0.3,0l3,2c0,0,0.2,0.1,0.2,0.4
	C-720.1,761.7-720.4,761.8-720.4,761.8z"/>
</svg>
