<?xml version="1.0" encoding="utf-8"?>
<!-- Generator: Adobe Illustrator 19.0.0, SVG Export Plug-In . SVG Version: 6.00 Build 0)  -->
<svg version="1.1" id="图层_1" xmlns="http://www.w3.org/2000/svg" xmlns:xlink="http://www.w3.org/1999/xlink" x="0px" y="0px"
	 viewBox="0 0 20 20" style="enable-background:new 0 0 20 20;" xml:space="preserve">
<style type="text/css">
	.st0{fill-rule:evenodd;clip-rule:evenodd;fill:#272536;}
</style>
<g>
	<path class="st0" d="M10,11.3c-0.7,0-1.3,0.6-1.3,1.3c0,0.4,0.1,0.7,0.4,1c0.2,0.2,0.3,0.4,0.3,0.7l-0.6,2.1h2.5l-0.6-2.1
		c0-0.3,0-0.5,0.3-0.7c0.3-0.2,0.4-0.6,0.4-1C11.3,11.8,10.7,11.3,10,11.3L10,11.3L10,11.3z M16.3,7.5H15V5c0-2.8-2.2-5-5-5
		C7.2,0,5,2.2,5,5v2.5H3.7c-0.7,0-1.3,0.6-1.3,1.3v10c0,0.7,0.6,1.2,1.3,1.2h12.5c0.7,0,1.3-0.6,1.3-1.2v-10
		C17.5,8.1,16.9,7.5,16.3,7.5L16.3,7.5z M6.2,5c0-2.1,1.7-3.8,3.8-3.8c2.1,0,3.8,1.7,3.8,3.8v2.5H6.2V5L6.2,5z M16.3,18.7H3.7v-10H5
		h10h1.3V18.7L16.3,18.7z"/>
</g>
</svg>
