<?xml version="1.0" encoding="utf-8"?>
<!-- Generator: Adobe Illustrator 19.0.0, SVG Export Plug-In . SVG Version: 6.00 Build 0)  -->
<svg version="1.1" id="图层_1" xmlns="http://www.w3.org/2000/svg" xmlns:xlink="http://www.w3.org/1999/xlink" x="0px" y="0px"
	 viewBox="0 0 20 20" style="enable-background:new 0 0 20 20;" xml:space="preserve">
<style type="text/css">
	.st0{fill-rule:evenodd;clip-rule:evenodd;fill:#272536;}
</style>
<g id="XMLID_1_">
	<path class="st0" d="M7.4,7.4C7.2,7.3,7,7.3,6.9,7.4L4.5,9.8c-0.1,0.1-0.1,0.3,0,0.5l2.4,2.4c0.1,0.1,0.2,0.1,0.2,0.1
		c0.1,0,0.2,0,0.2-0.1c0.1-0.1,0.1-0.3,0-0.5L5.2,10l2.1-2.1C7.5,7.7,7.5,7.5,7.4,7.4L7.4,7.4z M15.5,9.8l-2.4-2.4
		c-0.1-0.1-0.3-0.1-0.5,0c-0.1,0.1-0.1,0.3,0,0.5l2.1,2.1l-2.1,2.1c-0.1,0.1-0.1,0.3,0,0.5c0.1,0.1,0.2,0.1,0.2,0.1s0.2,0,0.2-0.1
		l2.4-2.4C15.6,10.1,15.6,9.9,15.5,9.8L15.5,9.8z M11.2,6.6L11.2,6.6c-0.2-0.1-0.4,0-0.4,0.2l-2.2,6.1c-0.1,0.2,0,0.4,0.2,0.4l0,0
		c0.2,0.1,0.4,0,0.4-0.2l2.2-6.1C11.5,6.9,11.4,6.7,11.2,6.6L11.2,6.6z"/>
</g>
<g id="XMLID_2_">
	<path id="XMLID_11_" class="st0" d="M0.1,11.2C0.1,10.8,0,10.4,0,10c0-1.3,0.3-2.7,0.8-3.9C1.3,4.9,2.1,3.8,3,2.9
		C3.9,2,5,1.3,6.1,0.8C7.4,0.3,8.7,0,10,0c1.4,0,2.7,0.3,4,0.8c1.2,0.5,2.3,1.3,3.2,2.2l-0.6,0.6c-1.7-1.8-4.1-2.8-6.6-2.8
		c-5,0-9.2,4.1-9.2,9.2c0,0.4,0,0.8,0.1,1.2L0.1,11.2L0.1,11.2z"/>
	<path id="XMLID_10_" class="st0" d="M10,20c-1.4,0-2.7-0.3-4-0.8c-1.2-0.5-2.3-1.3-3.2-2.2l0.6-0.6c1.7,1.8,4.1,2.8,6.6,2.8
		c5,0,9.2-4.1,9.2-9.2c0-0.4,0-0.8-0.1-1.2l0.8-0.1C20,9.1,20,9.6,20,10c0,1.3-0.3,2.7-0.8,3.9c-0.5,1.2-1.2,2.3-2.1,3.2
		c-0.9,0.9-2,1.6-3.2,2.1C12.7,19.7,11.4,20,10,20L10,20z"/>
	<polygon id="XMLID_9_" class="st0" points="3.2,18.3 2.4,18.3 2.4,15.9 4.9,15.9 4.9,16.8 3.2,16.8 3.2,18.3 	"/>
	<polygon id="XMLID_8_" class="st0" points="17.6,4 15.1,4 15.1,3.2 16.8,3.2 16.8,1.7 17.6,1.7 17.6,4 	"/>
</g>
</svg>
