<?xml version="1.0" encoding="utf-8"?>
<!-- Generator: Adobe Illustrator 19.0.0, SVG Export Plug-In . SVG Version: 6.00 Build 0)  -->
<svg version="1.1" id="图层_1" xmlns="http://www.w3.org/2000/svg" xmlns:xlink="http://www.w3.org/1999/xlink" x="0px" y="0px"
	 viewBox="0 0 20 20" style="enable-background:new 0 0 20 20;" xml:space="preserve">
<style type="text/css">
	.st0{fill-rule:evenodd;clip-rule:evenodd;fill:#272536;}
</style>
<g id="XMLID_1_">
	<path class="st0" d="M18.3,3L17,1.7c-0.2-0.2-0.6-0.2-0.9,0L14.8,3L17,5.2l1.3-1.3C18.5,3.6,18.5,3.3,18.3,3L18.3,3L18.3,3L18.3,3z
		 M7.3,11.3l1.3,1.3c0.2,0.2-0.4-0.4,0.4,0.4l7-7l-2.2-2.2l-7,7C7.1,11.1,7.1,11.1,7.3,11.3L7.3,11.3L7.3,11.3L7.3,11.3z M4.2,15.3
		c-0.1,0.3,0.1,0.6,0.4,0.4l3.4-2L6.2,12L4.2,15.3L4.2,15.3L4.2,15.3z M10,14c-0.2,0.2-0.4,0.3-0.6,0.3L3.9,17
		c-0.6,0.3-1.1-0.3-0.9-0.9l2.7-5.4c0-0.2,0.1-0.5,0.3-0.6l9.6-9.6c0.5-0.5,1.3-0.5,1.8,0l2.2,2.2c0.5,0.5,0.5,1.3,0,1.8L10,14
		L10,14L10,14L10,14z M2.5,20C1.1,20,0,18.9,0,17.5V2.6C0,1.3,1.2,0,2.5,0h10v1.4l-9.9,0c-0.7,0-1.2,0.4-1.2,1.1v15
		c0,0.7,0.4,1.1,1.1,1.1h15c0.7,0,1.1-0.4,1.1-1.1v-10H20v10c0,1.4-1.2,2.5-2.6,2.5L2.5,20L2.5,20L2.5,20z"/>
</g>
</svg>
