<?xml version="1.0" encoding="utf-8"?>
<!-- Generator: Adobe Illustrator 19.0.0, SVG Export Plug-In . SVG Version: 6.00 Build 0)  -->
<svg version="1.1" id="图层_1" xmlns="http://www.w3.org/2000/svg" xmlns:xlink="http://www.w3.org/1999/xlink" x="0px" y="0px"
	 viewBox="0 0 20 20" style="enable-background:new 0 0 20 20;" xml:space="preserve">
<style type="text/css">
	.st0{fill:#272636;}
</style>
<g id="XMLID_10_">
	<g id="XMLID_11_" transform="scale(0.1953125, 0.1953125)">
		<path id="XMLID_12_" class="st0" d="M67.2,42.3c0-1.5-1.2-2.7-2.7-2.7l-48.1,0c-1.5,0-2.7,1.2-2.7,2.7c0,1.5,1.2,2.7,2.7,2.7h48.1
			C66,45,67.2,43.8,67.2,42.3z M46.6,60.1c0-1.5-1.2-2.7-2.7-2.7H16.5c-1.5,0-2.7,1.2-2.7,2.7c0,1.5,1.2,2.7,2.7,2.7h27.5
			C45.4,62.8,46.6,61.6,46.6,60.1z M16.4,27.3h48.1c1.5,0,2.7-1.2,2.7-2.7c0-1.5-1.2-2.7-2.7-2.7l-48.1,0c-1.5,0-2.7,1.2-2.7,2.7
			C13.8,26.1,15,27.3,16.4,27.3z M16.5,75.1c-1.5,0-2.7,1.2-2.7,2.7s1.2,2.7,2.7,2.7h19.1c1.5,0,2.7-1.2,2.7-2.7
			c0-1.5-1.2-2.7-2.7-2.7H16.5z M91.4,78.4c0-1.5-1.2-2.7-2.7-2.7H81V64.6c0-1.5-1.2-2.7-2.7-2.7c-1.5,0-2.7,1.2-2.7,2.7v16.5h13.1
			C90.2,81.1,91.4,79.9,91.4,78.4z M11.9,99.7h39.8c1.5,0,2.7-1.2,2.7-2.7c0-1.5-1.2-2.7-2.7-2.7H11.9c-3.6,0-6.5-2.9-6.5-6.5V14.5
			c0-3.6,2.9-6.5,6.5-6.5h57.3c3.6,0,6.5,2.9,6.5,6.5v27.8c0,1.5,1.2,2.7,2.7,2.7c1.5,0,2.7-1.2,2.7-2.7l0-27.8
			C81,8,75.7,2.7,69.1,2.7H11.9C5.3,2.7,0,8,0,14.5v73.4C0,94.4,5.3,99.7,11.9,99.7z M78.3,99.7c13.3,0,24.1-10.8,24.1-24.1
			S91.6,51.6,78.3,51.6c-13.3,0-24.1,10.8-24.1,24.1S65,99.7,78.3,99.7z M78.3,56.9c10.3,0,18.7,8.4,18.7,18.7s-8.4,18.7-18.7,18.7
			C68,94.3,59.6,86,59.6,75.6S68,56.9,78.3,56.9z"/>
	</g>
</g>
</svg>
