<?xml version="1.0" encoding="utf-8"?>
<!-- Generator: Adobe Illustrator 19.0.0, SVG Export Plug-In . SVG Version: 6.00 Build 0)  -->
<svg version="1.1" id="图层_1" xmlns="http://www.w3.org/2000/svg" xmlns:xlink="http://www.w3.org/1999/xlink" x="0px" y="0px"
	 viewBox="0 0 20 20" style="enable-background:new 0 0 20 20;" xml:space="preserve">
<style type="text/css">
	.st0{fill:#272536;}
	.st1{fill:none;stroke:#272536;stroke-miterlimit:10;}
</style>
<g id="XMLID_1_">
	<g id="XMLID_2_">
		<path id="XMLID_4_" class="st0" d="M16.6,20c-1.9,0-3.4-1.5-3.4-3.4s1.5-3.4,3.4-3.4s3.4,1.5,3.4,3.4S18.5,20,16.6,20z M16.6,13.9
			c-1.5,0-2.6,1.2-2.6,2.6s1.2,2.6,2.6,2.6s2.6-1.2,2.6-2.6S18,13.9,16.6,13.9z"/>
	</g>
	<g id="XMLID_7_">
		<path id="XMLID_8_" class="st0" d="M16.6,6.8c-1.9,0-3.4-1.5-3.4-3.4S14.7,0,16.6,0S20,1.5,20,3.4S18.5,6.8,16.6,6.8z M16.6,0.8
			c-1.5,0-2.6,1.2-2.6,2.6s1.2,2.6,2.6,2.6s2.6-1.2,2.6-2.6S18,0.8,16.6,0.8z"/>
	</g>
	<g id="XMLID_11_">
		<path id="XMLID_12_" class="st0" d="M3.9,12.3C1.7,12.3,0,10.6,0,8.5s1.7-3.9,3.9-3.9s3.9,1.7,3.9,3.9S6,12.3,3.9,12.3z M3.9,5.5
			c-1.7,0-3,1.3-3,3s1.3,3,3,3s3-1.3,3-3S5.5,5.5,3.9,5.5z"/>
	</g>
	<line id="XMLID_3_" class="st1" x1="7.3" y1="6.8" x2="13.7" y2="4.3"/>
	<line id="XMLID_15_" class="st1" x1="6.5" y1="10.6" x2="13.7" y2="15.3"/>
</g>
</svg>
