<?xml version="1.0" encoding="utf-8"?>
<!-- Generator: Adobe Illustrator 19.0.0, SVG Export Plug-In . SVG Version: 6.00 Build 0)  -->
<svg version="1.1" id="图层_1" xmlns="http://www.w3.org/2000/svg" xmlns:xlink="http://www.w3.org/1999/xlink" x="0px" y="0px"
	 viewBox="0 0 20 20" style="enable-background:new 0 0 20 20;" xml:space="preserve">
<style type="text/css">
	.st0{fill-rule:evenodd;clip-rule:evenodd;fill:#272536;}
</style>
<g>
	<path class="st0" d="M16.4,7.5h-1.2h-1.3H6.4V5c0-2.1,1.7-3.8,3.8-3.8s3.8,1.7,3.8,3.8v0.2h1.2V5c0-2.8-2.2-5-5-5s-5,2.2-5,5v2.5
		H3.9c-0.7,0-1.2,0.6-1.2,1.3v10c0,0.7,0.6,1.2,1.2,1.2h12.5c0.7,0,1.2-0.6,1.2-1.2v-10C17.7,8.1,17.1,7.5,16.4,7.5L16.4,7.5z
		 M16.4,18.8H3.9v-10h1.2h10h1.2L16.4,18.8L16.4,18.8L16.4,18.8z"/>
	<path class="st0" d="M11.1,13.5c0.3-0.2,0.4-0.6,0.4-1c0-0.7-0.6-1.2-1.2-1.2s-1.2,0.6-1.2,1.2c0,0.4,0.1,0.7,0.4,1
		c0.2,0.2,0.3,0.4,0.3,0.7l-0.6,2.1h2.5l-0.6-2.1C10.8,13.9,10.9,13.6,11.1,13.5L11.1,13.5z"/>
</g>
</svg>
