<?xml version="1.0" encoding="utf-8"?>
<!-- Generator: Adobe Illustrator 19.0.0, SVG Export Plug-In . SVG Version: 6.00 Build 0)  -->
<svg version="1.1" id="图层_1" xmlns="http://www.w3.org/2000/svg" xmlns:xlink="http://www.w3.org/1999/xlink" x="0px" y="0px"
	 viewBox="6 -6 32 32" style="enable-background:new 6 -6 32 32;" xml:space="preserve">
<style type="text/css">
	.st0{fill:#999999;}
</style>
<path class="st0" d="M37.3,22l-4.1-4.1c0.5-1.5,0.2-3.2-0.7-4.5c-0.9-1.3-2.4-2.1-4-2l0,0c-0.5,0-1.1,0.1-1.6,0.3
	c-0.3,0.1-0.5,0.3-0.5,0.6c-0.1,0.3,0,0.6,0.2,0.8l1.8,1.8c0.2,0.2,0.2,0.5,0,0.7l-0.8,0.8c-0.1,0.1-0.2,0.1-0.3,0.1
	c-0.1,0-0.2,0-0.3-0.1l-1.8-1.8c-0.2-0.2-0.4-0.2-0.6-0.2c-0.4,0-0.7,0.2-0.8,0.6c-0.6,1.8-0.1,3.7,1.2,5.1c1.3,1.3,3.3,1.8,5.1,1.2
	l4.1,4.1c0.3,0.3,0.8,0.5,1.2,0.5s0.9-0.2,1.2-0.5l0.8-0.8C38,23.8,38,22.7,37.3,22z M36.4,23.6l-0.8,0.8c-0.2,0.2-0.5,0.2-0.7,0
	l-4.6-4.7l-0.4,0.2c-1.4,0.6-3,0.3-4.1-0.8c-0.9-0.9-1.2-2-1.1-3.2l1.4,1.4c0.3,0.3,0.8,0.5,1.2,0.5c0.4,0,0.9-0.2,1.2-0.5l0.8-0.8
	c0.7-0.7,0.7-1.7,0-2.4l-1.4-1.4c0.2,0,0.4,0,0.5,0c1.3,0,2.4,0.6,3.1,1.7s0.8,2.4,0.3,3.5v0.3l4.7,4.7
	C36.6,23.1,36.6,23.4,36.4,23.6z"/>
<path class="st0" d="M28.8,2H12.1c-0.4,0-0.7,0.4-0.7,0.8s0.4,0.8,0.7,0.8h16.7c0.4,0,0.7-0.4,0.7-0.8C29.5,2.2,29.1,1.8,28.8,2z"/>
<path class="st0" d="M28.8,7.5H12.1c-0.4,0-0.7,0.4-0.7,0.8c0,0.4,0.4,0.8,0.7,0.8h16.7c0.4,0,0.7-0.4,0.7-0.8S29.1,7.5,28.8,7.5z"
	/>
<path class="st0" d="M20.9,13.1H12c-0.3,0-0.7,0.4-0.7,0.8s0.3,0.8,0.7,0.8h8.9c0.3,0,0.7-0.4,0.7-0.8
	C21.5,13.3,21.2,13.1,20.9,13.1z"/>
<path class="st0" d="M20.7,22.7H10.5c-1.4,0-2.6-1.3-2.6-2.7V-1.5c0-1.4,1.3-2.7,2.7-2.7h19.6c1.4,0,2.7,1.3,2.7,2.7V9.3
	c0,0.5,0.4,0.9,0.9,0.9s0.9-0.4,0.9-0.9V-1.5c0-2.5-2-4.5-4.5-4.5H10.5C8-6,6.1-4,6.1-1.5V20c0,2.5,2,4.5,4.5,4.5h10.2
	c0.5,0,0.9-0.4,0.9-0.9S21.2,22.7,20.7,22.7z"/>
</svg>
