<svg id="图层_1" xmlns="http://www.w3.org/2000/svg" viewBox="-105 106 32 32"><style>.st0{fill:#999}</style><path class="st0" d="M-75.5 118.1c-.1-.2-.2-.3-.4-.4l-2.4-1.2-2.2-1.1 3-6c.2-.4-.1-1-.7-1.3-.6-.3-1.3-.2-1.5.2l-3 6-2-1-3.1-1.6h-.2c-.7 1.4-1.7 2.8-2.8 4v.1c-.7.8-1.5 1.6-2.3 2.3-2.2 1.9-4.8 3.4-7.7 4.5-.4.2-.7.6-.7 1s.2.7.5.9l17.4 10.7c.1.1.3.1.4.1.2.1.4.2.6.2.3 0 .5-.1.7-.3 2.5-2.4 4.4-5.1 5.7-8 1.4-3 2.1-6 2.1-9-1.2.3-1.3.1-1.4-.1zm-3.7 8.7c-1.2 2.5-2.8 4.8-4.8 6.9l-3.9-2.4 2.4-2.4c.4-.4.4-1 0-1.4-.4-.4-1-.4-1.4 0l-2.8 2.7-4.5-2.8 2.7-1.9c.5-.3.6-1 .2-1.4-.3-.5-1-.6-1.4-.2l-3.5 2.4-3.5-2.2c2.4-1.1 4.6-2.5 6.6-4.1.7-.6 1.4-1.2 2-1.9l12.4 7.1c-.1.6-.3 1.1-.5 1.6zm1.3-3.5l-11.7-6.7c.7-.8 1.3-1.7 1.8-2.7l10.5 5.3c-.1 1.4-.3 2.8-.6 4.1z"/></svg>