<svg id="图层_1" xmlns="http://www.w3.org/2000/svg" viewBox="-3 5 32 32"><style>.st0{fill:#999}</style><path class="st0" d="M-3 14.7h32v-8H-3v8zm30-6v4H-1v-4h28z"/><path class="st0" d="M1 10h16v1.2H1z"/><circle class="st0" cx="24" cy="10.7" r="1"/><path class="st0" d="M-3 24.7h32v-8H-3v8zm30-6v4H-1v-4h28z"/><path class="st0" d="M1 20h16v1.2H1z"/><circle class="st0" cx="24" cy="20.7" r="1"/><path class="st0" d="M-3 35h32v-8H-3v8zm30-6v4H-1v-4h28z"/><path class="st0" d="M1 30.4h16v1.2H1z"/><circle class="st0" cx="24" cy="31" r="1"/></svg>