<svg id="图层_1" xmlns="http://www.w3.org/2000/svg" viewBox="-3 5 32 32"><style>.st0{fill:#999}</style><path class="st0" d="M27.5 22.7L14.3 35.8c-1.6 1.6-4.2 1.6-5.8 0L-1.8 25.5c-1.6-1.6-1.6-4.2 0-5.8L11.3 6.6c1-1.1 1.2-1.5 2.3-1.5H27c1.1 0 2 .9 2 1.9v13.3c0 1-.6 1.5-1.5 2.4zM-.3 24L9.9 34.3c.8.8 2.1.8 2.9 0l1.4-1.4-13-13.2-1.5 1.5c-.8.8-.8 2.1 0 2.8zM27 8c0-.5-.4-1-1-1H14.4c-.5 0-1.3.6-1.7 1.1l-10 10.2 13.1 13.1L26 21.2c.5-.5 1-1.3 1-1.8V8zm-10.5 9.5c-1.6-1.6-1.6-4.2 0-5.8s4.2-1.6 5.8 0c1.6 1.6 1.6 4.2 0 5.8-1.5 1.7-4.1 1.7-5.8 0zm4.4-4.3c-.8-.8-2.1-.8-2.9 0s-.8 2.1 0 2.9c.8.8 2.1.8 2.9 0 .8-.8.8-2.2 0-2.9z"/></svg>