<svg id="图层_1" xmlns="http://www.w3.org/2000/svg" viewBox="-281 404.9 32 32"><style>.st0{fill:#999}</style><path class="st0" d="M-276 424.1c-.5 0-1-.4-1.1-.9-.1-.8-.2-1.5-.2-2.3 0-6.7 5.5-12.2 12.2-12.2 5.4 0 10.2 3.6 11.7 8.8.2.6-.2 1.2-.8 1.4-.6.2-1.2-.2-1.4-.8-1.2-4.2-5.2-7.2-9.6-7.2-5.5 0-10 4.5-10 10 0 .6.1 1.3.2 1.9.1.6-.3 1.2-.9 1.3h-.1zm10.9 9c-4.4 0-8.5-2.4-10.7-6.2-.3-.5-.1-1.2.4-1.5.5-.3 1.2-.1 1.5.4 1.8 3.2 5.1 5.1 8.7 5.1 5.4 0 9.7-4.2 10-9.5 0-.6.5-1.1 1.2-1.1.6 0 1.1.5 1.1 1.2-.3 6.5-5.7 11.6-12.2 11.6z"/><path class="st0" d="M-274.8 426.8c-3.1 0-5.6-.6-6-2.2-.2-.9.3-1.8 1.4-2.8.4-.3 1-.3 1.3.1.3.4.3 1-.1 1.3-.7.6-.8.9-.8.9.3.7 5.2 1.6 14.6-.6 9.4-2.2 13.4-5.2 13.4-5.9 0 0-.1-.2-.9-.4-.5-.1-.8-.7-.6-1.1.1-.5.7-.8 1.1-.6 1.2.4 2 1 2.2 1.8.8 3.5-9.3 6.9-14.8 8.2-2.9.6-7.2 1.3-10.8 1.3z"/><path class="st0" d="M-266.1 419.8h-.3c-.4-.1-.7-.4-.7-.9 0-.2-.1-.4-.1-.6-.1-.4-.2-.9-.2-1.4 0-.3-.1-1-.2-1.6-.2-.3-.5-.5-.6-.6-.8 0-1.3-.2-1.7-.4-.1 0-.2-.1-.3-.1-1-.4-1.3-1.7-1.4-2.3-.1-.5.3-1 .8-1.1.5-.1 1 .3 1.1.8.1.3.2.7.3.9.1 0 .1.1.2.1.4.2.6.2 1 .2 1.2 0 2.1 1.3 2.3 1.6.1.1.1.2.1.3 0 .2.3 1.3.3 2l.4-.4c.1-.1.2-.1.3-.2.1-.1.4-.2.5-.3v-.9c0-1.1 0-1.6.1-2 .1-.2.3-.6 1.9-1.6.1 0 .1-.1.2-.1l2-.6c.5-.1 1 .1 1.1.6.1.5-.1 1-.6 1.1l-1.9.5c-.4.2-.8.5-1 .6v2.5c-.1.8-.9 1.3-1.3 1.5-.1 0-.1.1-.2.1-.1.1-.2.3-.4.5-.6 1.2-1.1 1.8-1.7 1.8zm4.8 12.6h-.2c-.5-.1-.8-.6-.7-1.1l.4-1.7-.3-.6-.3.6c-.1.3-.4.5-.7.5l-1.5.2-1.8 1.5c-.4.3-1 .3-1.3-.1-.3-.4-.3-1 .1-1.3l2-1.7c.1-.1.3-.2.5-.2l1.3-.2 1-1.8c.2-.3.5-.5.8-.5.3 0 .7.2.8.5l1.3 2.6c.1.2.1.4.1.6l-.5 2c-.2.4-.6.7-1 .7z"/></svg>