<svg id="图层_1" xmlns="http://www.w3.org/2000/svg" viewBox="-3 5 32 32"><style>.st0{fill:#999}</style><path class="st0" d="M9 23H-1c-1.1 0-2 .9-2 2v10c0 1.1.9 2 2 2H9c1.1 0 2-.9 2-2V25c0-1.1-.9-2-2-2zm.8 10.8c0 1.1-.9 2-2 2H.2c-1.1 0-2-.9-2-2v-7.7c0-1.1.9-2 2-2h7.7c1.1 0 2 .9 2 2v7.7zM27 23H17c-1.1 0-2 .9-2 2v10c0 1.1.9 2 2 2h10c1.1 0 2-.9 2-2V25c0-1.1-.9-2-2-2zm.8 10.8c0 1.1-.9 2-2 2h-7.7c-1.1 0-2-.9-2-2v-7.7c0-1.1.9-2 2-2h7.7c1.1 0 2 .9 2 2v7.7zM9 5H-1c-1.1 0-2 .9-2 2v10c0 1.1.9 2 2 2H9c1.1 0 2-.9 2-2V7c0-1.1-.9-2-2-2zm.9 10.9c0 1.1-.9 2-2 2H.2c-1.1 0-2-.9-2-2V8.2c0-1.1.9-2 2-2h7.7c1.1 0 2 .9 2 2v7.7zM15 11.5h14v1H15z"/><path class="st0" d="M21.5 5h1v14h-1z"/></svg>