<svg id="图层_1" xmlns="http://www.w3.org/2000/svg" viewBox="-3 5 32 32"><style>.st0{fill:#999}</style><path class="st0" d="M13 7.3c-8.8 0-16 7.2-16 16 0 4.5 1.9 8.6 4.8 11.5H24c3-2.9 4.8-7 4.8-11.5.2-8.9-7-16-15.8-16zm10.2 25.2H2.8C.6 30.1-.7 26.8-.7 23.3-.7 15.7 5.4 9.6 13 9.6s13.7 6.1 13.7 13.7c0 3.5-1.3 6.7-3.5 9.2z"/><path class="st0" d="M3.4 22.6l-2.9-.5.3-1.6 2.8.5-.2 1.6zM22.3 21l2.9-.5.3 1.6-2.9.5-.3-1.6zM6.1 16.4l-1.9-2.3 1.3-1 1.9 2.3-1.3 1zm13.8 0l-1.3-1 1.9-2.3 1.3 1-1.9 2.3zm-7.7-5.7h1.6v2.9h-1.6v-2.9zm.9 12.6l-4.9-5.5 2.7 6.7c-.4.8-.4 1.7.1 2.5.7 1.1 2.2 1.5 3.4.8 1.1-.7 1.5-2.2.8-3.4-.6-.6-1.3-1-2.1-1.1z"/></svg>