<svg id="图层_1" xmlns="http://www.w3.org/2000/svg" viewBox="0 0 40 40"><style>.st0{fill:#1aa2e7}</style><g id="XMLID_3_"><g id="XMLID_71_"><g id="XMLID_35_"><path id="XMLID_36_" class="st0" d="M21.1 3.5c1.5 0 2.8.7 3.5 1.7.2-.4.3-.9.3-1.4 0-2.1-1.7-3.7-3.7-3.7-2.1 0-3.7 1.7-3.7 3.7 0 .5.1.9.3 1.4.5-.9 1.8-1.7 3.3-1.7z"/></g></g><path id="XMLID_70_" class="st0" d="M36.2 34.8H5.7c-.6 0-1-.5-1-1s.4-1 1-1h30.5c.5 0 1 .5 1 1s-.5 1-1 1z"/><path id="XMLID_69_" class="st0" d="M5.1 34.6c-.5-.3-.6-.9-.3-1.4l3.8-6c.3-.5.9-.6 1.4-.3.5.3.6.9.3 1.4l-3.8 6c-.3.5-.9.6-1.4.3z"/><path id="XMLID_68_" class="st0" d="M36.7 34.6c.5-.3.6-.9.3-1.4l-3.8-6c-.3-.5-.9-.6-1.4-.3-.5.3-.6.9-.3 1.4l3.8 6c.3.5.9.6 1.4.3z"/><path id="XMLID_67_" class="st0" d="M32.4 28.7c-.6 0-1-.4-1-1v-12c0-.5.4-1 1-1 .5 0 1 .4 1 1v12c0 .5-.5 1-1 1z"/><path id="XMLID_66_" class="st0" d="M9.5 28.8c-.6 0-1-.5-1-1V15.6c0-.5.4-1 1-1 .5 0 1 .4 1 1v12.1c0 .6-.4 1.1-1 1.1z"/><g id="XMLID_37_"><g id="XMLID_60_"><path id="XMLID_61_" class="st0" d="M10.5 15.9c0-5.7 4.7-10.4 10.4-10.4s10.4 4.6 10.4 10.4h2c0-6.8-5.6-12.4-12.4-12.4C14.1 3.5 8.5 9 8.5 15.8h2z"/></g></g><g id="XMLID_9_"><g id="XMLID_52_"><path id="XMLID_53_" class="st0" d="M25.2 33.2v.3c0 2.4-1.9 4.3-4.3 4.3s-4.3-1.9-4.3-4.3v-.3h-2v.3c0 3.5 2.8 6.3 6.3 6.3s6.3-2.8 6.3-6.3v-.3h-2z"/></g></g><path id="XMLID_8_" class="st0" d="M31.3 33.2H10.5c-.6 0-1-.5-1-1v-18c0-.6.4-1 1-1h20.8c.6 0 1 .4 1 1v18c0 .5-.4 1-1 1z"/><path id="XMLID_7_" class="st0" d="M33.2 33.8h-5.9c-.5 0-1-.5-1-1v-3c0-.6.5-1 1-1h5.9c.6 0 1 .4 1 1v3c0 .5-.4 1-1 1z"/><path id="XMLID_6_" class="st0" d="M8.2 29.5H10c.5 0 1 .5 1 1v2c0 .6-.5 1-1 1H8.2c-.6 0-1-.4-1-1v-2c0-.6.5-1 1-1z"/><circle id="XMLID_5_" class="st0" cx="20.9" cy="15.8" r="10.9"/><circle id="XMLID_4_" class="st0" cx="20.9" cy="33.8" r="5"/></g></svg>