<svg id="图层_1" xmlns="http://www.w3.org/2000/svg" viewBox="0 0 40 40"><style>.st0{fill:#fff}</style><g id="XMLID_65_"><g id="XMLID_35_"><path id="XMLID_36_" class="st0" d="M20.2 3.5c1.5 0 2.8.7 3.5 1.7.2-.4.3-.9.3-1.4C24 1.7 22.3.1 20.3.1c-2.1 0-3.7 1.7-3.7 3.7 0 .5.1.9.3 1.4.5-.9 1.8-1.7 3.3-1.7z"/></g></g><path id="XMLID_64_" class="st0" d="M35.3 34.8H4.8c-.6 0-1-.5-1-1 0-.6.5-1 1-1h30.5c.5 0 1 .4 1 1 0 .5-.5 1-1 1z"/><path id="XMLID_63_" class="st0" d="M4.2 34.6c-.5-.3-.6-.9-.3-1.4l3.8-6c.3-.4.9-.5 1.4-.2.5.3.6.9.3 1.4l-3.8 6c-.3.4-.9.5-1.4.2z"/><path id="XMLID_62_" class="st0" d="M35.8 34.6c.5-.3.6-.9.3-1.4l-3.8-6c-.3-.5-.9-.6-1.4-.3-.5.3-.6.9-.3 1.4l3.8 6c.3.5.9.6 1.4.3z"/><path id="XMLID_59_" class="st0" d="M31.4 28.7c-.6 0-1-.4-1-1v-12c0-.6.4-1 1-1 .5 0 1 .4 1 1v12c0 .5-.4 1-1 1z"/><path id="XMLID_58_" class="st0" d="M8.6 28.8c-.6 0-1-.5-1-1V15.6c0-.5.4-1 1-1 .5 0 1 .4 1 1v12.1c0 .6-.4 1.1-1 1.1z"/><g id="XMLID_28_"><g id="XMLID_60_"><path id="XMLID_61_" class="st0" d="M9.6 15.9c0-5.7 4.7-10.4 10.4-10.4s10.4 4.6 10.4 10.4h2C32.4 9 26.9 3.5 20 3.5 13.2 3.5 7.6 9 7.6 15.8h2z"/></g></g><g id="XMLID_3_"><g id="XMLID_52_"><path id="XMLID_53_" class="st0" d="M24.3 33.2v.3c0 2.4-1.9 4.3-4.3 4.3s-4.3-1.9-4.3-4.3v-.3h-2v.3c0 3.5 2.8 6.3 6.3 6.3s6.3-2.8 6.3-6.3v-.3h-2z"/></g></g></svg>