<svg id="图层_1" xmlns="http://www.w3.org/2000/svg" viewBox="0 0 40 40"><style>.st0{fill:#fff}</style><g id="XMLID_7_"><g id="XMLID_45_"><path id="XMLID_46_" class="st0" d="M20 0C9 0 0 9 0 20s9 20 20 20 20-9 20-20S31 0 20 0zm0 38c-9.9 0-18-8.1-18-18S10.1 2 20 2s18 8.1 18 18-8.1 18-18 18z"/></g></g><g id="XMLID_3_"><path id="XMLID_5_" class="st0" d="M28 22H12c-.6 0-1-.5-1-1v-2c0-.5.4-1 1-1h16c.5 0 1 .5 1 1v2c0 .5-.5 1-1 1z"/><path id="XMLID_4_" class="st0" d="M18 28V12c0-.6.4-1 1-1h2c.5 0 1 .4 1 1v16c0 .5-.5 1-1 1h-2c-.6 0-1-.5-1-1z"/></g></svg>