<svg id="图层_1" xmlns="http://www.w3.org/2000/svg" viewBox="-277 400.9 40 40"><style>.st0{fill:#fff}</style><g id="XMLID_39_"><g id="XMLID_60_"><path id="XMLID_61_" class="st0" d="M-261.4 404.1h-14c-.5 0-1 .4-1 1v14c0 .6.5 1 1 1h14c.5 0 1-.4 1-1v-14c0-.5-.5-1-1-1zm-1 14h-12v-12h12v12z"/></g></g><g id="XMLID_31_"><g id="XMLID_55_"><path id="XMLID_56_" class="st0" d="M-261.4 424.1h-14c-.5 0-1 .5-1 1v14c0 .6.5 1 1 1h14c.5 0 1-.4 1-1v-14c0-.5-.5-1-1-1zm-1 14h-12v-12h12v12z"/></g></g><g id="XMLID_23_"><g id="XMLID_50_"><path id="XMLID_51_" class="st0" d="M-241.4 424.1h-14c-.5 0-1 .5-1 1v14c0 .6.5 1 1 1h14c.5 0 1-.4 1-1v-14c0-.5-.5-1-1-1zm-1 14h-12v-12h12v12z"/></g></g><g id="XMLID_3_"><g id="XMLID_45_"><path id="XMLID_46_" class="st0" d="M-237.8 411.9l-9.9-9.9c-.4-.4-1-.4-1.4 0l-10 9.9c-.4.4-.4 1 0 1.4l9.9 9.9c.4.4 1 .4 1.4 0l9.9-9.9c.5-.4.5-1.1.1-1.4zm-10.6 9.1l-8.5-8.5 8.5-8.5 8.5 8.5-8.5 8.5z"/></g></g></svg>