<svg id="图层_1" xmlns="http://www.w3.org/2000/svg" viewBox="-277 400.9 40 40"><style>.st0{fill:#1aa2e7}</style><path class="st0" d="M-261.4 404.1h-14c-.5 0-1 .4-1 1v14c0 .6.5 1 1 1h14c.5 0 1-.4 1-1v-14c0-.5-.5-1-1-1zM-261.4 424.1h-14c-.5 0-1 .5-1 1v14c0 .6.5 1 1 1h14c.5 0 1-.4 1-1v-14c0-.5-.5-1-1-1zM-241.4 424.1h-14c-.5 0-1 .5-1 1v14c0 .6.5 1 1 1h14c.5 0 1-.4 1-1v-14c0-.5-.5-1-1-1zM-237.8 411.9l-9.9-9.9c-.4-.4-1-.4-1.4 0l-10 9.9c-.4.4-.4 1 0 1.4l9.9 9.9c.4.4 1 .4 1.4 0l9.9-9.9c.5-.4.5-1.1.1-1.4z"/></svg>