<svg id="图层_1" xmlns="http://www.w3.org/2000/svg" viewBox="0 0 40 40"><style>.st0{fill:#1aa2e7}</style><g id="XMLID_37_"><g id="XMLID_135_"><g id="XMLID_136_"><path id="XMLID_144_" class="st0" d="M10.4 18.9v6.6c0 .2.1.4.2.4l6.2 3.4v-6.6c0-.2-.1-.4-.2-.4l-6.2-3.4z"/><path id="XMLID_143_" class="st0" d="M20.3 10.2c-.1 0-.2-.1-.3-.1-.1 0-.3 0-.4.1l-5.7 3 5.7 3c.1 0 .2.1.3.1.1 0 .3 0 .3-.1l5.8-3-5.7-3z"/><path id="XMLID_142_" class="st0" d="M23.2 22.8v6.4l6.1-3.3c.1 0 .2-.2.2-.4V19l-6.1 3.3c-.1.1-.2.2-.2.5z"/><path id="XMLID_137_" class="st0" d="M20 0C9 0 0 9 0 20s9 20 20 20 20-9 20-20S31 0 20 0zm-.9 31.1c0 .7-.5 1.2-1.1 1.2-.2 0-.3 0-.5-.1l-8.1-4.4c-.7-.4-1.2-1.2-1.2-2.1v-8.5c0-.7.5-1.2 1.1-1.2.2 0 .3 0 .5.1l8.1 4.4c.8.4 1.2 1.2 1.2 2.1v8.5zm.9-12.5c-.5 0-.9-.1-1.3-.3L10.5 14c-.4-.2-.5-.6-.5-.9 0-.4.1-.7.5-.9L18.8 8c.4-.2 1.2-.3 1.2-.3.4 0 .9.1 1.2.3l8.2 4.3c.4.2.6.5.5.9 0 .3-.1.7-.5.9l-8.2 4.3c-.3.1-1.1.2-1.2.2zm11.8 7.1c0 .9-.5 1.7-1.2 2.1l-8.1 4.4c-.2.1-.3.1-.5.1-.6 0-1.1-.5-1.1-1.2v-8.5c0-.9.5-1.7 1.2-2.1l8.1-4.4c.2-.1.3-.1.5-.1.6 0 1.1.5 1.1 1.2v8.5z"/></g></g></g></svg>