<svg id="图层_1" xmlns="http://www.w3.org/2000/svg" viewBox="0 0 40 40"><style>.st0{fill:#fff}</style><g id="XMLID_3_"><g id="XMLID_32_"><g id="XMLID_33_"><path id="XMLID_34_" class="st0" d="M20 0C9 0 0 9 0 20s9 20 20 20 20-9 20-20S31 0 20 0zm0 38C10 38 2 30 2 20S10 1.9 20 1.9 38.1 10 38.1 20 30 38 20 38z"/></g></g><g id="XMLID_4_"><g id="XMLID_27_"><g id="XMLID_28_"><path id="XMLID_29_" class="st0" d="M17.9 20.4L9.8 16c-.2-.1-.3-.1-.5-.1-.6 0-1.1.5-1.1 1.2v8.5c0 .9.5 1.7 1.2 2.1l8.1 4.4c.2.1.3.1.5.1.6 0 1.1-.5 1.1-1.2v-8.5c0-.9-.5-1.7-1.2-2.1zm-1 8.9l-6.2-3.4c-.1-.1-.2-.2-.2-.4v-6.6l6.2 3.4c.1.1.2.3.2.4v6.6z"/></g></g><g id="XMLID_10_"><g id="XMLID_23_"><path id="XMLID_24_" class="st0" d="M30.7 15.9c-.2 0-.3 0-.5.1l-8.1 4.4c-.7.4-1.2 1.2-1.2 2.1V31c0 .7.5 1.2 1.1 1.2.2 0 .3 0 .5-.1l8.1-4.4c.7-.4 1.2-1.2 1.2-2.1v-8.5c0-.7-.5-1.2-1.1-1.2zm-1.2 9.5c0 .2-.1.4-.2.4l-6.1 3.3v-6.4c0-.2.1-.4.2-.4l6.1-3.3v6.4z"/></g></g><g id="XMLID_5_"><g id="XMLID_6_"><path id="XMLID_7_" class="st0" d="M30 13.2c0-.3-.1-.7-.5-.9L21.2 8c-.4-.2-.8-.3-1.2-.3 0 0-.9.1-1.2.3l-8.2 4.3c-.4.2-.5.5-.5.9 0 .3.1.7.5.9l8.2 4.3c.4.2.8.3 1.2.3s.9-.1 1.2-.3l8.2-4.3c.4-.3.6-.6.6-.9zm-9.7 2.9c-.1 0-.2.1-.3.1-.1 0-.2 0-.3-.1l-5.7-3 5.7-3c.1 0 .2-.1.4-.1.1 0 .2 0 .3.1l5.7 3-5.8 3z"/></g></g></g></g></svg>