<svg id="图层_1" xmlns="http://www.w3.org/2000/svg" viewBox="-277 400.9 40 40"><style>.st0{fill:#1aa2e7}</style><path id="XMLID_28_" class="st0" d="M-268.9 437.6c-.4 0-.9-.1-1.5-.7-.5-.5-3.1-2.9-4.6-4.3l-1-1c-.5-.3-1-1-1-1.8 0-.3.1-.7.6-1 .5-.3 2.1-1.6 2.5-1.9.8-.6 1.9-.6 2.6.1.3.2 1.4 1.3 2.7 2.4 1.6 1.4 3.3 2.9 3.6 3.2.5.5.6 1 .6 1.3s-.2.9-.8 1.3c-.6.5-1.6 1.2-2.2 1.7l-.2.2c-.5.3-.9.5-1.3.5z"/><path id="XMLID_27_" class="st0" d="M-263.9 433.4c-.2 0-.3-.1-.4-.2l-6.4-5.7c-.1-.1-.2-.2-.2-.3l-.2-.6c-.1-.2 0-.5.2-.7.2-.2 4.6-4.2 7.8-4.4 2.3-.1 7.9.2 11.4.3 1.2.1 2.1.1 2.6.1 1.5.1 2.3.9 2.3 1.7 0 .7-.5 1.5-1.8 1.6-1 .1-2.8.2-4.6.4-1.5.1-3.3.2-3.6.3l-.1.1c.1 0 .5.2 1.4.3 1.6.1 6.2.6 7.7.4.8-.1 3.1-1.8 4.5-2.9.8-.6 1.5-1.1 2-1.4s1.3-.6 2.2-.6c.9 0 1.6.3 2 .9.5.8-.7 2.1-1.2 2.5-5.5 4.5-8.9 6.8-10.7 7.1-1.3.2-4.2.1-6.7-.1-1.3-.1-2.6-.1-3.4-.1h-.8c-1.2.3-2.7 1.1-2.7 1.1-.2.1-.2.1-.3.1l-1 .1c.1 0 .1 0 0 0z"/><g id="XMLID_3_"><g id="XMLID_75_"><path id="XMLID_76_" class="st0" d="M-244.8 404.2H-265c-.4 0-.7.3-.7.7V417c0 .4.3.7.7.7h20.2c.4 0 .7-.3.7-.7v-12.1c0-.4-.3-.7-.7-.7zm-11.5 10.3h-6.2v-1.4h6.2v1.4zm5.1-2.9h-11.3v-1.4h11.3v1.4zm5.4-2.8h-18.6v-1.5h18.6v1.5z"/></g></g></svg>