<svg id="图层_1" xmlns="http://www.w3.org/2000/svg" viewBox="-277 400.9 40 40"><style>.st0{fill:#fff}</style><path id="XMLID_26_" class="st0" d="M-268.9 437.5c-.4 0-.9-.1-1.5-.7-.5-.5-3.1-2.9-4.6-4.3l-1-1c-.5-.3-1-.9-1-1.7 0-.3.1-.7.6-1 .5-.3 2.1-1.6 2.5-1.9.7-.6 1.8-.6 2.5.1.3.2 1.4 1.3 2.7 2.4 1.6 1.4 3.3 2.9 3.6 3.2.5.5.6 1 .6 1.3 0 .3-.2.9-.8 1.3-.6.5-1.6 1.2-2.2 1.7l-.2.2c-.4.3-.8.4-1.2.4zm-3.7-9.8c-.1 0-.3.1-.4.1-.4.3-2.1 1.6-2.6 2-.1.1.1.4.4.8l1 1c1.5 1.4 4.1 3.9 4.6 4.3.2.2.6.4 1 .1l.2-.2c.6-.5 1.6-1.3 2.3-1.8.2-.1.3-.3.3-.3s0-.1-.2-.3c-.3-.3-2-1.8-3.6-3.2-1.2-1.1-2.4-2.1-2.7-2.4 0 0-.2-.1-.3-.1zm8.7 5.7c-.2 0-.3-.1-.4-.2l-6.4-5.7c-.1-.1-.2-.2-.2-.3l-.2-.6c-.1-.2 0-.5.2-.7.2-.2 4.6-4.2 7.8-4.4 2.3-.1 7.9.2 11.4.3 1.2.1 2.1.1 2.6.1 1.5.1 2.3.9 2.3 1.7 0 .7-.5 1.5-1.8 1.6-1 .1-2.8.2-4.6.4-1.5.1-3.3.2-3.6.3l-.1.1c.1 0 .5.2 1.4.3 1.6.1 6.2.6 7.7.4.8-.1 3.1-1.8 4.5-2.9.8-.6 1.5-1.1 2-1.4.5-.3 1.3-.6 2.2-.6.9 0 1.6.3 2 .9.5.8-.7 2.1-1.2 2.5-5.5 4.5-8.9 6.8-10.7 7.1-1.3.2-4.2.1-6.7-.1-1.3-.1-2.6-.1-3.4-.1h-.8c-1.2.3-2.7 1.1-2.7 1.1-.1.1-.2.1-.3.1l-1 .1c.1 0 .1 0 0 0zm-5.8-6.8l6.1 5.4h.4c.4-.2 1.8-.9 2.9-1.2.6-.1 2.4-.1 4.6.1 2.4.1 5.3.3 6.5.1.9-.1 3.3-1.2 9.9-6.7.5-.4.8-.8.9-1-.5-.4-1.7-.1-2.2.2-.4.3-1.1.8-1.8 1.3-2.2 1.7-4 3-5.1 3.1-1.6.2-6.4-.2-8-.4-.6-.1-2.5-.2-2.6-1.5-.1-.7.6-1.3 1.1-1.5.3-.1 1.3-.2 3.9-.3 1.7-.1 3.6-.3 4.5-.4.5-.1.6-.2.6-.3s-.3-.4-1-.4c-.5 0-1.4-.1-2.6-.1-3.4-.2-9-.5-11.3-.3-2.2.2-5.4 2.7-6.8 3.9z"/><g id="XMLID_6_"><g id="XMLID_45_"><path id="XMLID_46_" class="st0" d="M-244.8 404.2H-265c-.4 0-.7.3-.7.7V417c0 .4.3.7.7.7h20.2c.4 0 .7-.3.7-.7v-12.1c0-.4-.3-.7-.7-.7zm-.8 11.3c0 .4-.3.7-.7.7h-17.2c-.4 0-.7-.3-.7-.7v-9.2c0-.4.3-.7.7-.7h17.2c.4 0 .7.3.7.7v9.2z"/></g></g><path id="XMLID_5_" class="st0" d="M-265.1 407.3h20v1.6h-20z"/><path id="XMLID_4_" class="st0" d="M-262.5 410.2h11.3v1.4h-11.3z"/><path id="XMLID_3_" class="st0" d="M-262.5 413h6.2v1.4h-6.2z"/></svg>