<svg id="图层_1" xmlns="http://www.w3.org/2000/svg" viewBox="-277 400.9 40 40"><style>.st0{fill:#1aa2e7}</style><g id="XMLID_2_"><g id="XMLID_62_"><path id="XMLID_63_" class="st0" d="M-239.9 410.4c0-2.1-1.8-4-5.1-5.4-3.2-1.4-7.5-2.1-12.1-2.1s-8.9.8-12.1 2.1c-3.2 1.4-5 3.4-5 5.5v20.9c0 2.1 1.8 4 5.1 5.4 3.2 1.4 7.5 2.1 12.1 2.1s8.9-.8 12.1-2.1c3.3-1.4 5.1-3.3 5.1-5.4l-.1-21zm-32 3.9c1.4 1.1 3.5 2 6 2.7 2.6.7 5.7 1 8.8 1s6.2-.4 8.8-1c2.5-.6 4.6-1.6 6-2.7v2.6c0 1.4-1.7 2.7-4.7 3.8-2.8 1-6.6 1.6-10.2 1.6s-7.3-.6-10.2-1.5c-3-1-4.7-2.4-4.7-3.8l.2-2.7zm0 6.4c1.4 1.1 3.5 2 6 2.7 2.6.7 5.7 1 8.8 1s6.2-.4 8.8-1c2.5-.6 4.6-1.6 6-2.7v3.4c0 1.4-1.7 2.7-4.7 3.8-2.8 1-6.6 1.6-10.2 1.6s-7.3-.6-10.2-1.5c-3-1-4.7-2.4-4.7-3.8l.2-3.5zm25.1 14.4c-2.8 1-6.6 1.6-10.2 1.6-3.6 0-7.3-.6-10.2-1.5-3-1-4.7-2.4-4.7-3.8V428c1.4 1.1 3.5 2 6 2.7 2.6.7 5.7 1 8.8 1s6.2-.4 8.8-1c2.5-.6 4.6-1.6 6-2.7v3.4c.1 1.3-1.5 2.7-4.5 3.7z"/></g></g></svg>