<svg id="图层_1" xmlns="http://www.w3.org/2000/svg" viewBox="-277 400.9 40 40"><style>.st0{fill:#fff}</style><g id="XMLID_2_"><g id="XMLID_3_" transform="scale(.03906)"><path id="XMLID_4_" class="st0" d="M-6269.8 10368.6c-81.5-35-191.3-54.3-309.3-54.3s-227.8 19.3-309.3 54.3c-83.5 35.9-129.5 85.1-129.5 138.5v535.2c0 53.4 46 102.6 129.5 138.5 81.5 35 191.3 54.3 309.3 54.3s227.8-19.3 309.3-54.3c83.5-35.9 129.5-85.1 129.5-138.5V10507c0-53.3-46-102.5-129.5-138.4zm-48.8 235.2c-72.7 24.9-170 39.8-260.5 39.8-91.8 0-186.7-14.5-260.5-39.8-77.5-26.6-120.1-60.9-120.1-96.8s42.7-70.2 120.1-96.8c73.8-25.2 168.7-39.7 260.5-39.7 90.4 0 187.8 14.9 260.5 39.8 77.5 26.6 120.1 60.9 120.1 96.8s-42.6 70.1-120.1 96.7zm0 164.7c-72.7 24.9-170 39.8-260.5 39.8-91.8 0-186.7-14.5-260.5-39.8-77.5-26.6-120.1-61-120.1-96.8v-66.6c37 28.3 90.2 51.8 154.6 68.3 67.5 17.3 145.6 26.4 226 26.4s158.5-9.1 226-26.4c64.4-16.5 117.7-40.1 154.6-68.3v66.6c0 35.8-42.6 70.2-120.1 96.8zm0 185.2c-72.7 24.9-170.1 39.8-260.5 39.8-91.8 0-186.7-14.5-260.5-39.8-77.5-26.6-120.1-60.9-120.1-96.8v-87.2c37 28.3 90.2 51.8 154.6 68.3 67.5 17.3 145.6 26.4 226 26.4s158.5-9.1 226-26.4c64.4-16.5 117.7-40.1 154.6-68.3v87.2c0 35.9-42.6 70.2-120.1 96.8zm-260.5 225.1c-91.8 0-186.7-14.5-260.5-39.8-77.5-26.6-120.1-60.9-120.1-96.8v-87.2c37 28.3 90.2 51.8 154.6 68.3 67.5 17.3 145.6 26.4 226 26.4s158.5-9.1 226-26.4c64.4-16.5 117.7-40.1 154.6-68.3v87.2c0 35.8-42.7 70.2-120.1 96.8-72.7 24.9-170.1 39.8-260.5 39.8z"/></g></g></svg>