<svg width="20" height="20" viewBox="0 0 20 20" xmlns="http://www.w3.org/2000/svg"><defs><style>@font-face{font-family:ifont;src:url(http://at.alicdn.com/t/font_1442373896_4754455.eot?#iefix) format(embedded-opentype),url(http://at.alicdn.com/t/font_1442373896_4754455.woff) format(woff),url(http://at.alicdn.com/t/font_1442373896_4754455.ttf) format(truetype),url(http://at.alicdn.com/t/font_1442373896_4754455.svg#ifont) format(svg)}</style></defs><path d="M19.269 14.225l-1.913-1.12a.293.293 0 0 0-.41.121 7.237 7.237 0 0 1-2.595 2.876 7.103 7.103 0 0 1-3.812 1.106 7.107 7.107 0 0 1-5.07-2.11A7.18 7.18 0 0 1 3.367 10a7.18 7.18 0 0 1 2.1-5.097 7.107 7.107 0 0 1 5.071-2.11c1.354 0 2.673.381 3.812 1.105a7.235 7.235 0 0 1 2.594 2.876.293.293 0 0 0 .41.121l1.913-1.12a.293.293 0 0 0 .106-.399l-.435-.758a.293.293 0 0 0-.4-.107l-.937.543a8.638 8.638 0 0 0-2.136-2.159l.537-.935a.293.293 0 0 0-.106-.399l-.76-.442a.293.293 0 0 0-.402.108l-.536.932a8.499 8.499 0 0 0-2.927-.794V.293A.293.293 0 0 0 10.979 0H10.1a.293.293 0 0 0-.293.293v1.073a8.5 8.5 0 0 0-2.927.794l-.536-.933a.293.293 0 0 0-.401-.107l-.76.441a.293.293 0 0 0-.108.4l.538.935a8.638 8.638 0 0 0-2.137 2.159l-.935-.544a.293.293 0 0 0-.401.108l-.44.764a.293.293 0 0 0 .107.4l.936.542a8.566 8.566 0 0 0-.799 2.94H.88a.293.293 0 0 0-.293.294v.883c0 .161.131.293.293.293h1.066c.086 1.012.354 1.999.798 2.94l-.935.543a.293.293 0 0 0-.107.4l.44.764a.293.293 0 0 0 .4.107l.936-.543a8.638 8.638 0 0 0 2.136 2.158l-.537.936a.293.293 0 0 0 .107.399l.76.442a.293.293 0 0 0 .401-.108l.536-.932a8.5 8.5 0 0 0 2.928.794v1.072c0 .162.13.293.293.293h.878a.293.293 0 0 0 .293-.293v-1.072a8.5 8.5 0 0 0 2.928-.794l.535.932a.293.293 0 0 0 .402.108l.76-.442a.293.293 0 0 0 .107-.4l-.537-.934a8.638 8.638 0 0 0 2.136-2.16l.936.544a.293.293 0 0 0 .4-.107l.436-.758a.293.293 0 0 0-.106-.399zM8.63 9.265H4.392a.293.293 0 0 0-.293.294v.883c0 .161.131.293.293.293h4.24c.3.79 1.054 1.323 1.907 1.323 1.13 0 2.05-.923 2.05-2.058 0-1.134-.92-2.057-2.05-2.057-.853 0-1.608.533-1.908 1.323z" fill="#272636" class="transform-group"/></svg>