<svg id="图层_1" xmlns="http://www.w3.org/2000/svg" xmlns:xlink="http://www.w3.org/1999/xlink" viewBox="30 -30 100 100"><style>.st0{fill:url(#SVGID_1_);stroke:#e20a2e;stroke-miterlimit:10}</style><image width="137" height="122" xlink:href="A2319A2.png" transform="translate(11.78 -39.502) scale(.9959)" overflow="visible" opacity=".1"/><g transform="scale(.19531)"><linearGradient id="SVGID_1_" gradientUnits="userSpaceOnUse" x1="-83472.977" y1="-35947.637" x2="-83472.977" y2="-35863.477" gradientTransform="matrix(.00745 0 0 -.00745 847.59 33.714)"><stop offset="0" stop-color="#fa616d"/><stop offset="1" stop-color="#f2545e"/></linearGradient><path class="st0" d="M648.3 251.9L445.8-88.2c-9.8-15.5-18.1-28.1-36.4-28.1-18.2 0-28.5 14.8-36.4 28.1L170.6 251.9c-8.5 13.2-14.5 28.9-10.7 42.6 3.3 12 16.1 20.1 35.8 20.1h427.4c24.7 0 33-11.7 35.4-17.9 5.5-14.1-1.3-30.3-10.2-44.8zM384.8 24.2c0-13.7 11.1-24.9 24.9-24.9 13.7 0 24.9 11.1 24.9 24.9v116c0 13.7-11.1 24.9-24.9 24.9-13.7 0-24.9-11.1-24.9-24.9v-116zm24.8 223.9c-14.8 0-26.8-12-26.8-26.8s12-26.8 26.8-26.8 26.8 12 26.8 26.8-12 26.8-26.8 26.8z"/></g></svg>