<svg id="图层_1" xmlns="http://www.w3.org/2000/svg" viewBox="0 0 40 40"><style>.st0{fill:#fff}</style><path class="st0" d="M38 1H2C.9 1 0 1.9 0 3v7c0 1.1.9 2 2 2h36c1.1 0 2-.9 2-2V3c0-1.1-.9-2-2-2zm0 9.1H2V2.8h36v7.3z"/><path id="XMLID_36_" class="st0" d="M7.7 3.8h2.1v5.5H7.7z"/><path class="st0" d="M38 14H2c-1.1 0-2 .9-2 2v7c0 1.1.9 2 2 2h36c1.1 0 2-.9 2-2v-7c0-1.1-.9-2-2-2zm0 9.1H2v-7.3h36v7.3z"/><path id="XMLID_45_" class="st0" d="M7.7 16.8h2.1v5.5H7.7z"/><path class="st0" d="M38 27H2c-1.1 0-2 .9-2 2v7c0 1.1.9 2 2 2h36c1.1 0 2-.9 2-2v-7c0-1.1-.9-2-2-2zm0 9.1H2v-7.3h36v7.3z"/><path id="XMLID_68_" class="st0" d="M7.7 29.8h2.1v5.5H7.7z"/></svg>