<svg id="图层_1" xmlns="http://www.w3.org/2000/svg" viewBox="0 0 20 20"><style>.st0{fill-rule:evenodd;clip-rule:evenodd;fill:#272536}</style><path class="st0" d="M20 2.6c0-.5-.4-.9-.9-.9H.9c-.5.1-.9.5-.9.9v11.3c0 .5.4.9.9.9h18.2c.5 0 .9-.4.9-.9V2.6zm-1.7 10.5H1.8V3.5h16.5v9.6zM15.1 17c0 .5-.4.9-.9.9H5.8c-.5 0-.9-.4-.9-.9s.4-.9.9-.9h8.4c.5 0 .9.4.9.9z"/><path class="st0" d="M14.1 9.1h-1.7V7.8h1.7c.2 0 .4-.2.4-.5 0-.2-.2-.5-.4-.5h-1.7v-1h-1.3c-1.2 0-2.3 1.1-2.5 2h-3v1.1h3c.2 1.1 1.3 2 2.5 2h1.3V10h1.7c.2 0 .4-.3.4-.5s-.2-.4-.4-.4z"/></svg>