<svg id="图层_1" xmlns="http://www.w3.org/2000/svg" viewBox="0 0 40 40"><style>.st0{fill:#2ca2f3}</style><path class="st0" d="M35.1 23.1v-.8c0-4.2-2.2-7.9-5.4-10v2.9c2.1 1.9 3.4 4.7 3.4 7.8v.8c2.5.9 4.2 3.4 4.2 6.3 0 3.7-2.8 6.7-6.3 6.7H8.9c-3.4 0-6.1-3-6.1-6.6 0-3.3 2.3-6.1 5.2-6.5-.1-.4-.1-.8-.1-1.2 0-2.3 1.1-4.4 2.8-5.6v-2.2C8 15.8 6 18.5 6 21.8c0 .5 0 .9.1 1.4-3.4.5-6 3.6-6 7.4 0 4.1 3.2 7.5 7.1 7.5h25.5c4 0 7.2-3.4 7.2-7.7 0-3.4-2-6.2-4.8-7.3z"/><path class="st0" d="M28.7 3.9h-17c-.6 0-1 .5-1 1v32.2c0 .6.5 1 1 1h17c.5 0 1-.4 1-.9V4.9c0-.6-.5-1-1-1zm-1.1 32.3H12.8V6.4h14.8v29.8z"/><path id="XMLID_137_" class="st0" d="M15 10.7h9.6v1.6H15z"/><path id="XMLID_140_" class="st0" d="M15 15.6h9.6v1.6H15z"/></svg>