<svg id="图层_1" xmlns="http://www.w3.org/2000/svg" viewBox="0 0 40 40"><style>.st0{fill:#2ca2f3}.st1{fill:#ecf7fd}</style><g id="XMLID_21_"><path id="XMLID_12_" class="st0" d="M14 2.3h12v12H14z"/><path id="XMLID_14_" class="st1" d="M16 4.7h8v7.2h-8z"/><path id="XMLID_108_" class="st0" d="M1 24.3h10v10H1z"/><path id="XMLID_99_" class="st1" d="M2.7 26.3h6.7v6H2.7z"/><path id="XMLID_112_" class="st0" d="M15 24.3h10v10H15z"/><path id="XMLID_102_" class="st1" d="M16.7 26.3h6.7v6h-6.7z"/><path id="XMLID_117_" class="st0" d="M29 24.3h10v10H29z"/><path id="XMLID_113_" class="st1" d="M30.7 26.3h6.7v6h-6.7z"/><path id="XMLID_92_" class="st0" d="M19 14.3h2v10h-2z"/><path id="XMLID_93_" class="st0" d="M5 18.4h30v1.9H5z"/><path id="XMLID_94_" class="st0" d="M5 18.4h2v5.9H5z"/><path id="XMLID_96_" class="st0" d="M33 18.4h2v5.9h-2z"/></g></svg>