<svg id="图层_1" xmlns="http://www.w3.org/2000/svg" viewBox="0 0 40 40"><style>.st0{fill:#fff}</style><path class="st0" d="M38.4 20.8c-1-1-2.4-1.6-3.8-1.6s-2.6.4-3.6 1.3v-5c0-3.3-2.7-6-6-6h-5.3c.8-1 1.3-2.2 1.3-3.5 0-1.5-.6-2.9-1.6-3.9C18.3.9 16.9.3 15.5.3c-1.5 0-2.9.6-3.9 1.6S10 4.3 10 5.7c0 1.3.4 2.6 1.3 3.6H6c-3.3 0-6 2.7-6 6v6.6c0 .5.3.9.8 1.1.5.1 1-.1 1.3-.5.7-1.1 1.9-1.8 3.2-1.8 1 0 2 .4 2.7 1.1s1.1 1.7 1.1 2.7c0 2-1.7 3.7-3.7 3.7-1.3 0-2.5-.6-3.2-1.8-.3-.4-.8-.6-1.3-.5-.6.3-.9.7-.9 1.3v6.6c0 3.3 2.7 6 6 6h6.9c.5 0 .9-.3 1.1-.8.1-.5-.1-1-.5-1.3-1.1-.7-1.8-1.9-1.8-3.2 0-1 .4-2 1.1-2.7s1.6-1.1 2.6-1.1h.1c2 0 3.7 1.7 3.7 3.7 0 1.3-.6 2.5-1.8 3.2-.4.3-.6.8-.5 1.3.1.5.6.8 1.1.8h7c3.3 0 6-2.7 6-6v-4.9c1 .8 2.2 1.3 3.5 1.3 1.5 0 2.9-.6 3.9-1.6 1-1.1 1.6-2.5 1.6-3.9s-.6-2.8-1.6-3.8zm-1.3 6.4c-.7.7-1.7 1.1-2.7 1.1-1.3 0-2.5-.7-3.2-1.8-.3-.4-.8-.6-1.3-.5s-.8.6-.8 1.1v6.6c0 2.3-1.9 4.2-4.2 4.2h-5.3c.8-1 1.3-2.3 1.3-3.6 0-1.4-.6-2.8-1.6-3.8s-2.4-1.6-3.8-1.6h-.1c-1.5 0-2.8.6-3.9 1.6s-1.6 2.4-1.6 3.9c0 1.3.5 2.6 1.3 3.5H6c-2.3 0-4.2-1.9-4.2-4.2v-4.9c1 .8 2.3 1.3 3.6 1.3 1.4 0 2.8-.6 3.8-1.6s1.6-2.4 1.6-3.8c0-1.5-.5-2.9-1.6-3.9-1-1.1-2.4-1.6-3.9-1.6-1.3-.2-2.6.3-3.6 1.1v-5c0-2.3 1.9-4.2 4.2-4.2h6.9c.5 0 .9-.3 1.1-.8.1-.5-.1-1-.5-1.3-1.1-.7-1.8-1.9-1.8-3.2 0-2 1.7-3.7 3.7-3.7 1 0 2 .4 2.7 1.1s1.1 1.7 1.1 2.7c0 1.3-.7 2.5-1.8 3.2-.4.3-.6.8-.5 1.3.1.5.6.8 1.1.8H25c2.3 0 4.2 1.9 4.2 4.2V22c0 .5.3.9.8 1.1.5.1 1-.1 1.3-.5.7-1.1 1.9-1.8 3.2-1.8 2 0 3.7 1.7 3.7 3.7 0 1-.4 2-1.1 2.7z" id="XMLID_15_"/></svg>