<svg id="图层_1" xmlns="http://www.w3.org/2000/svg" viewBox="0 0 40 40"><style>.st0{fill:#fff}</style><path class="st0" d="M15.8 3.2h-14c-.5 0-1 .4-1 1v14c0 .6.5 1 1 1h14c.5 0 1-.4 1-1v-14c0-.5-.5-1-1-1zm-13 2h12v12h-12v-12zm13 18h-14c-.5 0-1 .5-1 1v14c0 .6.5 1 1 1h14c.5 0 1-.4 1-1v-14c0-.5-.5-1-1-1zm-13 2h12v12h-12v-12zm33-2h-14c-.5 0-1 .5-1 1v14c0 .6.5 1 1 1h14c.5 0 1-.4 1-1v-14c0-.5-.5-1-1-1zm-13 2h12v12h-12v-12zM39.4 11l-9.9-9.9c-.4-.4-1-.4-1.4 0l-10 9.9c-.4.4-.4 1 0 1.4l9.9 9.9c.4.4 1 .4 1.4 0l9.9-9.9c.5-.4.5-1.1.1-1.4zM28.8 3.1l8.5 8.5-8.5 8.5-8.5-8.5 8.5-8.5z"/></svg>