<svg id="图层_1" xmlns="http://www.w3.org/2000/svg" viewBox="0 0 20 20"><style>.st0{fill-rule:evenodd;clip-rule:evenodd;fill:#272536}</style><path class="st0" d="M2.6 12.4l.7-3.3.8 3.3h1.1l1.5-4.8 1.4 4.8h1.1l.8-3.3.8 3.3h1.1l1.4-4.8 1.4 4.8h1.2l.7-3.3.8 3.3h1.1L20 7.6h-1.2l-.8 3.1-.8-3.1h-1.1l-.8 3.1-.8-3.1h-2.3l-.9 3.1-.7-3.1H9.4l-.7 3.1-.9-3.1H5.5l-.8 3.1-.8-3.1H2.8L2 10.7l-.8-3.1H0l1.4 4.8h1.2zM1.9 5.9c1.5-3 4.6-5 8.1-5s6.6 2 8.1 5h1C17.5 2.4 14.1 0 10 0S2.5 2.4.9 5.9h1zM18.1 14.1c-1.5 3-4.6 5-8.1 5s-6.6-2-8.1-5h-1c1.6 3.5 5 5.9 9.1 5.9s7.5-2.4 9.1-5.9h-1z"/></svg>