<svg id="图层_1" xmlns="http://www.w3.org/2000/svg" viewBox="0 0 40 40"><style>.st0{fill:#fff}</style><path class="st0" d="M14 2.3v12h12v-12H14zm10 9.6h-8V4.7h8v7.2zM1 24.3v10h10v-10H1zm8.4 8H2.7v-6h6.7v6zM15 24.3v10h10v-10H15zm8.4 8h-6.7v-6h6.7v6zM29 24.3v10h10v-10H29zm8.4 8h-6.7v-6h6.7v6z"/><path id="XMLID_92_" class="st0" d="M19 14.3h2v10h-2z"/><path id="XMLID_93_" class="st0" d="M5 18.4h30v1.9H5z"/><path id="XMLID_94_" class="st0" d="M5 18.4h2v5.9H5z"/><path id="XMLID_96_" class="st0" d="M33 18.4h2v5.9h-2z"/></svg>