<svg id="图层_1" xmlns="http://www.w3.org/2000/svg" viewBox="0 0 40 40"><style>.st0{fill:#666}</style><path id="XMLID_2_" class="st0" d="M20 2C9 2 0 11 0 22c0 5.6 2.3 10.7 6.1 14.3h27.8C37.7 32.7 40 27.6 40 22c0-11-9-20-20-20zm13.4 32.3H6.6c-2.9-3.2-4.7-7.4-4.7-12.1C1.9 12.2 10 4.1 20 4.1s18.1 8.1 18.1 18.1c0 4.6-1.8 8.9-4.7 12.1zM8 21.2l-3.6-.6.4-2 3.6.6-.4 2zm23.7-2l3.6-.6.4 2-3.7.6-.3-2zm-20.3-5.7L9 10.7l1.6-1.3 2.4 2.8-1.6 1.3zm17.2 0L27 12.1l2.4-2.8 1.6 1.3-2.4 2.9zM19 6.3h2V10h-2V6.3zm1.1 15.8L14 15.2l3.4 8.4c-.5.9-.6 2.1.1 3.1.9 1.4 2.8 1.9 4.2 1 1.4-.9 1.9-2.8 1-4.2-.7-.9-1.6-1.4-2.6-1.4z"/></svg>