<svg id="图层_1" xmlns="http://www.w3.org/2000/svg" viewBox="0 0 40 40"><style>.st0{fill:#2ca2f3}.st1{fill:#e8f5fd}</style><g id="XMLID_30_"><path id="XMLID_31_" class="st0" d="M38.3 30c0 .3-.1.5-.3.6l-17.3 9.3h-.1c-.1.1-.2.1-.3.1s-.2 0-.3-.1L2.7 30.6c-.2-.1-.3-.3-.3-.6V9.9c0-.1 0-.1.1-.2v-.1l.2-.2.1-.1L20 0h.7L38 9.4l.1.1.2.2v.1l.1.2v20z"/><path id="XMLID_29_" class="st1" d="M5.7 10l14.6 7.9L34.9 10 20.3 2.1z"/><path id="XMLID_28_" class="st1" d="M36.3 28.9V11.5l-15 8.2V37z"/><path id="XMLID_32_" class="st1" d="M19.3 37V19.7l-15-8.2v17.4z"/></g></svg>