<svg id="图层_1" xmlns="http://www.w3.org/2000/svg" viewBox="0 0 40 40"><style>.st0{fill:#7474f7}.st1{fill:#f1f1fe}</style><path id="XMLID_82_" class="st0" d="M39 19.4H1c-.6 0-1-.4-1-1l6-12c0-.5.4-1 1-1h26c.5 0 1 .5 1 1l6 12c0 .6-.5 1-1 1z"/><path id="XMLID_83_" class="st1" d="M37.1 19.9H2.8c-.5 0-.9-.4-.9-.9L7.3 8.1c0-.5.4-.9.9-.9h23.4c.5 0 .9.4.9.9L38 19c0 .5-.4.9-.9.9z"/><path id="XMLID_1_" class="st0" d="M39 29.9H1c-.6 0-1-.5-1-1v-10c0-.5.4-1 1-1h38c.5 0 1 .5 1 1v10c0 .5-.5 1-1 1z"/><path id="XMLID_91_" class="st1" d="M2 19.9h36v8H2z"/><path id="XMLID_11_" class="st0" d="M5.3 22.4h3v3h-3z"/></svg>