<svg id="图层_1" xmlns="http://www.w3.org/2000/svg" viewBox="0 0 20 20"><style>.st0{fill-rule:evenodd;clip-rule:evenodd;fill:#272536}</style><path class="st0" d="M19.7 8c-.8-.5-1.7-.5-2.3-.5-.3-1.2-1.4-1.9-1.5-2l-.4-.3-.3.4c-1 1.2-.7 2.6-.3 3.4-.5.3-1 .3-1 .3h-.3v-2h-2.3V3.4H8.5v2H3.9v2H1.6v2H.1v.5c0 .1-.4 2.6 1.3 4.6 1.2 1.4 3.2 2.1 5.8 2.1 4.1 0 6.6-1.8 7.9-3.3 1.1-1.2 1.7-2.3 1.9-2.9 2.5 0 2.9-1.7 2.9-1.8l.1-.4-.3-.2zM9.3 7.4V6.2h1.2v1.2H9.3zm-4.6 2V8.2h1.2v1.2H4.7zm2.3 0V8.2h1.2v1.2H7zm2.3 0V8.2h1.2v1.2H9.3zm2.3-1.2h1.2v1.2h-1.2V8.2zm-2.3-4h1.2v1.2H9.3V4.2zM7 6.2h1.2v1.2H7V6.2zm-2.3 0h1.2v1.2H4.7V6.2zm-2.3 2h1.2v1.2H2.4V8.2zm4.8 7.3c-1.2 0-2.3-.2-3.2-.5.6-.1 1.4-.4 2-.9.2-.2.3-.5.1-.8-.1-.2-.4-.3-.7-.1-1.1.8-2.5.8-2.9.8l-.3-.3c-1-1.1-1.1-2.5-1.1-3.2h12.8s1.2 0 2.1-.8l.1-.1c-.1.4-2.1 5.9-8.9 5.9zm9.5-6.2h-.3l-.3-.3s-.7-1-.3-2.1c.3.3.6.7.6 1.3V9l.7-.2s.8-.2 1.5 0c-.2.2-.8.5-1.9.5z"/><path class="st0" d="M7.4 11.5c-.5 0-.9.4-.9.9s.4.9.9.9.9-.4.9-.9-.4-.9-.9-.9zm0 1.1c-.1 0-.2-.1-.2-.2s.1-.2.2-.2.2.1.2.2-.1.2-.2.2z"/></svg>