<svg id="图层_1" xmlns="http://www.w3.org/2000/svg" viewBox="0 0 40 40"><style>.st0{fill:#1aa2e7}</style><g id="XMLID_2_"><g id="XMLID_98_"><g id="XMLID_99_"><path id="XMLID_100_" class="st0" d="M20 2C9 2 0 11 0 22c0 5.6 2.3 10.7 6.1 14.3h27.8C37.7 32.7 40 27.6 40 22c0-11-9-20-20-20zm-1 4.3h2V10h-2V6.3zM8 21.2l-3.6-.6.4-2 3.6.6-.4 2zm3.4-7.7L9 10.7l1.6-1.3 2.4 2.8-1.6 1.3zm10.2 14.3c-1.4.9-3.3.5-4.2-1-.6-1-.6-2.2-.1-3.1l-3.4-8.4 6.1 6.9c1 0 2 .5 2.5 1.4 1 1.4.6 3.3-.9 4.2zm7-14.3L27 12.1l2.4-2.8 1.6 1.3-2.4 2.9zm3.4 7.7l-.4-2 3.6-.6.4 2-3.6.6z"/></g></g></g></svg>