<svg id="图层_1" xmlns="http://www.w3.org/2000/svg" viewBox="0 0 20 20"><style>.st0{fill-rule:evenodd;clip-rule:evenodd;fill:#262536}</style><g id="XMLID_7_"><path id="XMLID_8_" class="st0" d="M11.9 17.3c-.1 0-.2-.1-.2-.2-.3-2.7-2.4-4.7-4.9-4.9h-.5-.1c-2.6.2-4.6 2.2-4.9 4.9 0 .1-.1.2-.2.2H.2c-.1 0-.1 0-.2-.1 0 0-.1-.1-.1-.2.2-2.5 1.8-4.6 4-5.6-1.3-.9-2.2-2.4-2.2-4 0-2.6 2.1-4.8 4.6-4.8s4.6 2.2 4.6 4.8c0 1.6-.8 3.2-2.2 4 2.2.9 3.8 3.1 4 5.6 0 .1 0 .1-.1.2 0 0-.1.1-.2.1h-.5zM6.5 3.8c-2 0-3.6 1.7-3.6 3.7 0 2.1 1.6 3.7 3.6 3.7s3.6-1.7 3.6-3.7C10 5.4 8.4 3.8 6.5 3.8zm6.4 10.8c-.1 0-.2-.1-.2-.2v-1c0-.1.1-.2.2-.2h6.9c.1 0 .2.1.2.2v1c0 .1-.1.2-.2.2h-6.9zm0-3.8c-.1 0-.2-.1-.2-.2v-1c0-.1.1-.2.2-.2h6.9c.1 0 .2.1.2.2v1c0 .1-.1.2-.2.2h-6.9zm0-3.9c-.1 0-.2-.1-.2-.2v-1c0-.1.1-.2.2-.2h6.9c.1 0 .2.1.2.2v1c0 .1-.1.2-.2.2h-6.9z"/></g></svg>