<svg id="图层_1" xmlns="http://www.w3.org/2000/svg" viewBox="0 0 20 20"><style>.st0{fill-rule:evenodd;clip-rule:evenodd;fill:#272536}</style><path class="st0" d="M17.7.9h-2.2V.6c0-.3-.3-.6-.8-.6-.4 0-.7.3-.7.6V1h-3.2V.6c0-.3-.4-.6-.8-.6s-.7.3-.7.6V1H6.1V.6c0-.3-.4-.6-.8-.6s-.8.3-.8.6V1H2.3c-.5 0-.9.3-.9.7v17.5c0 .4.4.7.9.7H13c.4 0 .7-.3.7-.7 0-.4-.3-.7-.7-.7H3.9c-.4 0-.7-.3-.7-.7V3.2c0-.4.3-.7.7-.7h.6V3c0 .3.3.6.8.6.4 0 .8-.3.8-.6v-.6h3.2v.5c0 .3.3.6.8.6.4 0 .8-.3.8-.6v-.5H14v.5c0 .3.3.6.8.6.4 0 .8-.3.8-.6v-.5h.6c.4 0 .7.3.7.7V14c0 .4.3.7.7.7h.2c.4 0 .7-.3.7-.7V1.7c.1-.4-.3-.8-.8-.8z"/><path class="st0" d="M12.5 7L10 11.1 7.5 7h-1l2.2 3.5H7.2v.6h1.9l.5.8H7.2v.6h2.4V15h.9v-2.5h2.3v-.6h-2.3l.4-.8h1.9v-.6h-1.5L13.5 7h-1zM18 16.4h-4.2c-.3 0-.5.2-.5.5v.1c0 .3.2.5.5.5H18c.3 0 .5-.2.5-.5v-.1c.1-.3-.2-.5-.5-.5z"/></svg>