<svg xmlns="http://www.w3.org/2000/svg" width="478.465" height="149.5" viewBox="0 0 478.465 149.5"><path fill="#008CD6" d="M166.242 46.495l-56.599 92.768h49.327c26.475 0 47.937-20.895 47.937-46.665 0-23.364-17.644-42.692-40.665-46.103z"/><path fill="#00AFDD" d="M159.94 45.882c-5.341-23.095-26.664-40.609-52.592-41.891v128.095l52.592-86.204z"/><path fill="#008CD6" d="M101.652 3.965c-25.907 1.111-47.28 18.432-52.856 41.379l52.856 86.631V3.965z"/><path fill="#00AFDD" d="M1.511 92.598c0 25.77 21.463 46.665 47.94 46.665h49.972l-56.65-92.855C19.461 49.572 1.511 69.032 1.511 92.598z"/><path fill="#262626" d="M230.669 121.437c0-1.132-.079-1.953-.279-3.111h3.424a16.336 16.336 0 0 0-.279 3.111v1.076h1.989c1.872 0 2.786-.026 4.022-.141v2.097c-1.157-.115-2.15-.144-3.981-.144h-2.03v9.681c0 .879.12 1.332.397 1.615.318.338 1.194.568 2.108.568 1.077 0 1.953-.2 3.187-.768l.834 1.982c-1.552.453-2.906.653-4.378.653-1.711 0-3.183-.341-3.979-.935-.755-.594-1.035-1.388-1.035-3.055v-9.74h-1.631c-1.67 0-2.466.029-3.582.144v-2.097c1.116.115 1.872.141 3.582.141h1.631v-1.077zM246.905 130.442c.121 2.235.519 3.252 1.513 4.273 1.075 1.076 2.627 1.641 4.419 1.641 1.71 0 3.141-.509 4.217-1.47.596-.538.837-.935 1.234-1.897l2.624.82c-.753 1.329-1.232 1.867-2.105 2.547-1.554 1.162-3.584 1.785-6.01 1.785-5.372 0-8.714-3.029-8.714-7.925 0-2.776 1.114-5.126 3.103-6.57 1.395-.962 3.264-1.5 5.372-1.5 4.934 0 7.999 2.691 8.355 7.276 0 .141.043.735.082 1.021h-14.09zm11.143-1.73c-.2-1.529-.558-2.35-1.472-3.255-1.035-1.017-2.427-1.526-4.099-1.526-1.631 0-2.945.509-3.981 1.585-.834.876-1.234 1.697-1.511 3.196h11.063zM264.217 137.77a20.79 20.79 0 0 0 .238-3.196v-8.861c0-1.303-.079-2.264-.238-3.2h2.942v1.529c0 .427-.038.82-.118 1.414.676-1.017 1.075-1.385 2.031-1.953 1.47-.876 3.021-1.273 4.893-1.273 3.94 0 6.168 1.867 6.168 5.208v7.161c0 1.444.038 2.179.238 3.17h-3.221c.158-.991.236-1.782.236-3.196v-6.567c0-2.747-1.313-3.994-4.137-3.994-3.106 0-6.091 2.576-6.091 5.238v5.323c0 1.244.043 2.038.24 3.196h-3.181zM286.183 124.781c-.998-1.135-1.513-1.7-2.11-2.268h3.462c.2.397.996 1.529 1.313 1.897l3.344 4.02 3.342-4.02a9.906 9.906 0 0 0 1.313-1.897h3.421a45.68 45.68 0 0 0-2.108 2.323l-4.378 5.037 4.578 5.208c.715.82 1.71 1.897 2.507 2.688h-3.543c-.515-.906-.515-.906-1.472-2.038l-3.702-4.358-3.779 4.529c-.599.709-.637.765-1.314 1.867h-3.541c.238-.223.397-.394.517-.509.12-.112.715-.765 1.79-1.953l4.777-5.464-4.417-5.062zM317.581 127.212c-.44-1.076-.758-1.556-1.316-2.068-.914-.82-2.107-1.214-3.62-1.214-3.661 0-6.009 2.405-6.009 6.17 0 3.879 2.309 6.169 6.168 6.169 1.59 0 2.906-.423 3.739-1.273.519-.509.798-.961 1.273-2.064l2.707.62c-.556 1.162-.955 1.756-1.552 2.406-1.313 1.388-3.58 2.153-6.367 2.153-5.451 0-8.834-3.029-8.834-7.896 0-4.926 3.383-8.07 8.714-8.07 2.865 0 5.134.879 6.604 2.52.44.509.717.961 1.153 1.867l-2.66.68zM329.716 116.258c-.199 1.021-.277 1.782-.277 3.226v15.089c0 1.217.079 2.008.277 3.196h-3.424c.2-1.244.279-2.064.279-3.196v-15.115c0-1.359-.079-2.153-.279-3.2h3.424zM335.167 130.13c0-4.87 3.423-7.984 8.795-7.984 5.333 0 8.714 3.085 8.714 7.984 0 2.717-1.114 5.008-3.065 6.422-1.431 1.021-3.382 1.559-5.649 1.559-5.411 0-8.795-3.055-8.795-7.981zm8.795 6.169c3.662 0 5.85-2.32 5.85-6.17 0-3.794-2.268-6.199-5.81-6.199-3.661 0-5.968 2.405-5.968 6.225 0 3.795 2.268 6.144 5.928 6.144zM371.898 122.513c-.159 1.132-.24 1.956-.24 3.2v8.861c0 1.359.08 2.205.24 3.196h-2.945v-1.556c0-.453.041-.991.12-1.47-.714 1.103-1.153 1.526-2.069 2.094-1.354.791-3.024 1.217-4.855 1.217-3.94 0-6.166-1.867-6.166-5.208v-7.161c0-1.418-.041-2.212-.24-3.173h3.223c-.157.935-.238 1.785-.238 3.2v6.567c0 2.691 1.314 3.991 4.018 3.991a6.634 6.634 0 0 0 3.064-.735c1.79-.961 3.144-2.914 3.144-4.584v-5.238c0-1.217-.079-2.094-.238-3.2h3.182zM388.652 136.355c0-.338.038-.765.118-1.103-.478.764-.755 1.076-1.431 1.5-1.316.876-2.786 1.273-4.657 1.273-1.91 0-3.623-.509-4.737-1.388-1.67-1.355-2.666-3.79-2.666-6.622 0-2.858.957-5.152 2.707-6.481 1.152-.88 2.786-1.359 4.657-1.359 1.828 0 3.423.423 4.655 1.244.676.453.994.794 1.472 1.615-.039-.171-.039-.312-.039-.397-.079-.453-.079-.594-.079-1.385v-3.767c0-1.159-.08-2.15-.24-3.226h3.183c-.197 1.191-.238 1.953-.238 3.2v15.03c0 1.47.041 2.208.238 3.282h-2.944v-1.416zm-5.533-.141c3.423 0 5.571-2.376 5.571-6.114 0-3.764-2.148-6.143-5.531-6.143-3.142 0-5.014 2.209-5.014 5.973-.001 4.105 1.752 6.284 4.974 6.284z"/><g><path fill="#262626" d="M427.278 128.391c-.43-1.014-.742-1.467-1.288-1.949-.894-.774-2.061-1.149-3.541-1.149-3.584 0-5.882 2.271-5.882 5.822 0 3.656 2.26 5.818 6.037 5.818 1.557 0 2.845-.4 3.661-1.201.507-.479.781-.909 1.245-1.949l2.65.587c-.546 1.096-.934 1.654-1.519 2.268-1.285 1.309-3.505 2.031-6.23 2.031-5.336 0-8.646-2.858-8.646-7.449 0-4.644 3.31-7.607 8.529-7.607 2.803 0 5.023.827 6.463 2.376.428.479.702.906 1.129 1.762l-2.608.64zM432.251 131.141c0-4.591 3.347-7.528 8.606-7.528 5.218 0 8.527 2.908 8.527 7.528 0 2.56-1.088 4.722-3 6.058-1.401.961-3.31 1.47-5.528 1.47-5.295 0-8.605-2.885-8.605-7.528zm8.606 5.818c3.584 0 5.725-2.189 5.725-5.818 0-3.577-2.218-5.848-5.687-5.848-3.582 0-5.84 2.271-5.84 5.874 0 3.577 2.219 5.792 5.802 5.792zM474.582 137.297h-2.698v-7.64c0-1.441-.258-2.478-.773-3.098-.517-.62-1.365-.932-2.543-.932-.994 0-1.846.407-2.558 1.218-.706.807-1.062 1.769-1.062 2.875v7.577h-2.698v-7.879c0-2.524-1.111-3.79-3.334-3.79-1.024 0-1.874.384-2.545 1.155-.673.771-1.009 1.752-1.009 2.947v7.568h-2.698v-13.304h2.698v2.107h.056c1.078-1.615 2.658-2.425 4.737-2.425 1.014 0 1.912.25 2.693.735.778.492 1.316 1.155 1.618 1.989 1.132-1.811 2.824-2.724 5.08-2.724 3.357 0 5.036 1.805 5.036 5.418v8.203z"/></g><path fill="#262626" d="M402.491 134.925h3.974v3.974h-3.974zM326.141 36.589l-15.22-4.581v7.536l15.22 4.873v-7.828zm26.171 44.262c1.388-5.374 1.388-10.577 1.388-10.577h4.333V99.23h8.324V70.102h16.125s8.15 1.388 8.15-6.59V52.244s.072-.717-.195-1.598c-1.001-3.996-5.741-3.457-5.741-3.457H366.42v-6.215h22.65l2.22-6.058h-24.87v-6.25h-9.079v6.24h-22.888v6.068h23.234v6.215h-17.053l.01.02c-.523-.059-6.015-.528-6.015 6.074-.176 7.282 0 11.269 0 11.269s0 5.549 6.24 5.896c5.549-.174 5.549 0 5.549 0s.694 15.777-13.698 19.938v6.242s14.911-.348 19.592-15.777zm14.044-28.637h.064v-.004h1.034v.003h14.256s1.813-.318 1.813 1.92v9.704s-.107 1.492-1.387 1.707c-1.92.107-15.78 0-15.78 0v-13.33zm-22.712 13.207c-2.081-.174-2.081-1.908-2.081-1.908v-9.361c0-2.253 2.253-1.907 2.253-1.907h13.525l.52-.031v13.207c.001 0-12.137.174-14.217 0zm125.598-30.402l-65.863-.131v6.128h62.864l2.999-5.997zm-90.73 39.054h-7.677c2.346 21.644 21.431 22.284 21.431 22.284s.107-.425 0-5.864c-11.943-3.52-13.754-16.42-13.754-16.42zm-36.12 29.888c-5.17-.886-13.443-2.955-16.548-7.978-.148-7.535 0-43.143 0-43.143h-15.662v6.058h7.832v38.233l-7.148 8.721.274.244-.071.08 5.466 4.728 6.65-8.126s9.308 8.422 34.426 8.717c8.718.148 26.3-1.034 38.713-3.988v-6.058s-31.472 7.537-53.932 2.512zm113.809-24.992l8.345 23.019s-23.594 7.335-49.563.596c-.991-.991-.793-.991-.199-3.372.594-2.379 9.515-31.919 9.515-31.919l-8.792-.061-9.783 31.955s-2.868 6.911 4.174 9.26c4.435 1.04 33.389 8.086 63.778-2.61-2.609-7.827-10.042-26.869-10.042-26.869h-7.433zM282.214 91.863v-6.718c-12.26-9.274-12.155-31.56-12.155-31.56h-6.291c0 35.72 18.446 38.278 18.446 38.278zm114.644-33.76v5.869h77.602l1.956-5.869h-79.558zM237.173 34.668c-6.7.609-9.898 2.131-12.333 5.178v67.459s5.329 5.179 17.511 3.962c4.873-.46 9.594-2.743 10.355-4.42.305-2.282 0-66.241 0-66.241s-2.892-6.699-15.533-5.938zm8.68 30.608h-9.594v4.415h9.594v34.112s-6.091 3.198-13.704.456c0-7.919-.305-61.824-.305-61.824s6.092-4.722 14.01.151c.304 15.228-.001 22.69-.001 22.69zm51.782-36.988h-.005v-.014h-7.159v.014h-.233v13.235l-31.44.303v6.7h31.37v53.298s-6.091 5.024-24.821 1.37c-.154 5.179 0 5.941 0 5.941s22.384 5.481 32.284-4.113c.304-11.268 0-56.496 0-56.496h6.091l2.132-6.852h-8.217V28.288z"/></svg>