<svg id="图层_1" xmlns="http://www.w3.org/2000/svg" viewBox="0 0 20 20"><style>.st0{fill-rule:evenodd;clip-rule:evenodd;fill:#272536}</style><path class="st0" d="M12.6 9.5c1-.8 1.6-2 1.6-3.3 0-2.3-1.9-4.3-4.3-4.3S5.7 3.8 5.7 6.1c0 1.4.6 2.6 1.6 3.3-2.6 1-4.5 3.6-4.5 6.6v1.4c0 .4.3.7.7.7h12.9c.4 0 .7-.3.7-.7V16c.1-2.9-1.8-5.5-4.5-6.5M6.9 6.1C6.9 4.4 8.3 3 10 3c1.7 0 3.1 1.4 3.1 3.1 0 1.7-1.4 3.1-3.1 3.1-1.7 0-3.1-1.4-3.1-3.1M16.1 17H3.9v-.8c0-3.3 2.7-6 6.1-6 3.3 0 6.1 2.7 6.1 6v.8M4.5 10.1h.1c.3-.1.5-.4.5-.7 0-.3-.2-.5-.5-.7-.7-.3-1.2-1-1.2-1.9 0-.9.8-1.7 1.7-2 .2-.5.4-.9.7-1.3.1-.1.1-.2.2-.2h-.2c-2 0-3.6 1.6-3.6 3.5 0 .9.3 1.7.9 2.4-1.9 1-3.1 2.9-3.1 5v1.1c0 .4.3.7.7.7H2c0-.5.1-.8.1-1.3h-.9v-.6c0-1.8 1.4-3.5 3.3-4m12.4-.9c.6-.6.9-1.5.9-2.4 0-2-1.6-3.5-3.6-3.5H14c.1.1.1.2.2.2.3.4.5.8.7 1.3.9.3 1.8 1.1 1.8 2 0 .8-.5 1.6-1.3 1.9-.2.2-.4.4-.4.7 0 .3.2.6.5.7h.1c1.9.5 3.2 2.2 3.2 4.1v.6h-1c.2.4.2.8.2 1.2h1.3c.4 0 .7-.3.7-.7v-1.1c0-2.1-1.2-4-3.1-5m0 0z"/></svg>