<svg id="图层_1" xmlns="http://www.w3.org/2000/svg" viewBox="-277 400.9 40 40"><style>.st0{fill:#fff}</style><g id="XMLID_3_"><g id="XMLID_4_" transform="scale(.03906)"><path id="XMLID_5_" class="st0" d="M-6326 11219c-5.2.3-9.2.6-13.1.6-161.3.1-322.6.1-483.9.1-13.8 0-13.8-.1-13.8-13.9v-34.1c0-9.6 4-13.5 13.8-13.5 33.7 0 67.5.1 101.2 0 14.1-.1 15.4-1.6 15.4-15.2v-34.1c-.2-12.7-3.2-15.7-15.7-15.7h-308.1c-26.8 0-45.8-11.9-55.5-37.1-2.6-6.8-4.7-14.5-4.7-21.7-.2-215 0-429.9-.4-644.8 0-25 13.5-40.7 32.1-53.2 6.5-4.3 15.6-5.1 23.6-6.2 7.4-1 15.2-.3 22.9-.3h876.6c20.9 0 39.5 5.9 52.5 22.7 8.6 11 15.7 22 15.6 38.5-.8 213.7-.5 427.5-.5 641.2 0 10.5 0 19.8-8.9 29-6.3 6.5-10 16.6-18.7 21.2-8.1 4.4-17.1 9.9-25.7 10-53.6 1-107.4.6-161 .6-52.4.1-104.9 0-157.2 0-13 0-13.3.3-13.4 13.5-.1 13.5.5 27-.2 40.4-.5 9.9 4.7 11.2 12.3 11.2 33.2-.2 66.3-.1 99.4-.1 14.4 0 15.8 1.5 15.7 15.6-.3 14.8-.3 29.5-.3 45.3zm-701.2-827.2c-.4 6.5-1 11.7-1 16.8-.1 45.7 0 91.4 0 137.1v341.3c0 17 0 17 17 17h863.7c13.8 0 16.6-2.8 16.6-16.5v-481.1c0-13.6-1-14.5-14.6-14.5h-870.2c-3.4-.1-6.8-.1-11.5-.1zm373 241.8c-13.3 1.2-25.2-1.7-36.2-9.9-1.6-1.2-6.5.1-8.6 1.8-24.3 19.2-48.3 38.7-72.5 58-15.3 12.1-31.1 23.8-46.4 35.8-6.1 4.8-11.9 10-4.7 18.4 1 1.2 1.2 3.7.8 5.3-5.8 19.4-11.3 38.8-32.3 48.4-26.7 12.2-51.9 5.1-70.1-17.1-10.8-13.2-13.2-28.6-10-44.1 3.6-17.6 13.8-32.2 31.3-39 9.3-3.6 19.9-4 29.9-5.7 2-.3 4.7-.2 6.3.8 14.8 9.4 25.7 4.1 37.6-6.8 13.8-12.8 29.7-23.6 44.7-35.1 22.1-17.2 44.5-34.1 66.2-51.8 3.5-2.9 6.1-8.9 6.1-13.4-.5-20.8 9.3-37.1 25.2-47.3 15-9.6 33.2-12.1 51.4-4 9.9 4.3 18 9.7 24 18.6 11.2 16.7 14.4 34 6 53.3-1.6 3.6 2.4 10.9 5.7 14.9 13.6 16.8 29.2 32.1 41.2 49.8 6.2 9.3 12.6 7.9 20.5 8.5 10.3.7 21.2-3.1 30.6 5.1 1.1 1.2 6.7-.9 8.9-2.8 16.1-14.6 31.9-29.6 47.8-44.6 27-25.1 53.8-50.3 80.9-75.4 9.2-8.5 18.9-16.3 27.6-25.3 3.1-3.2 5.2-8.4 5.7-12.9.8-7.2-1.2-14.8-.3-22 2.2-17 8.4-32.2 24.6-40.4 8.8-4.4 18.5-10.1 27.7-10 16 .2 31.9 5.4 43.7 17.6 16.3 16.9 15.6 38.4 11.4 58.5-3.3 14.9-15.6 26-30.8 31.1-8.4 2.9-17.6 3.7-26.5 5.2-1.7.3-4.1.4-5.4-.5-15.9-11-24.1 1.3-33.8 10.6-15.5 14.9-31.6 29.2-47.4 43.8-22.9 21.4-45.9 42.9-68.7 64.4-11.3 10.7-22.8 21.1-33.6 32.2-2.7 2.7-4.7 8-4.3 11.8 2.5 23.9-6.5 43.5-26.4 55-12.9 7.5-28.5 11.8-45.2 4.5-11.5-5.1-22.4-9.7-29.1-20.6-10-16-14.7-32.7-5.9-51.4 2.7-5.8 3.3-11.9-2.3-18.3-14.5-16.6-27.7-34.4-41.6-51.5-1.9-2.2-5.3-3.8-8.1-4-5.1-.5-10.4.3-15.6.5zm-207 107.3c-.2-10.9-6.3-16.3-18.3-16.3-10.9.1-17.4 6.7-17.2 17.5.2 10.8 7.2 17.8 17.6 17.7 9.2-.1 18-9.5 17.9-18.9zm580-257.2c-11.6-.1-17.5 5.5-17.6 16.9-.2 10.9 6.7 18.4 16.6 18.4 8.6 0 18.7-9.5 18.8-17.8.2-9.4-7.9-17.4-17.8-17.5zm-270 242.1c-.2 12.6 4.1 17.6 15.4 17.8 11.3.2 19.4-6.9 19.6-16.9.1-6-9.3-18.7-18-18.5-10.9.2-16.8 5.9-17 17.6zm-86.9-146.3c-4-13.8-11.3-21-26.3-16.3-8.2 2.5-8.5 10-10.5 15.7-1.9 5.5 7.9 16.1 16.3 17.3 12.8 2 16.6-8.1 20.5-16.7z"/></g></g></svg>