<svg id="图层_1" xmlns="http://www.w3.org/2000/svg" viewBox="-277 400.9 40 40"><style>.st0{fill:#1aa2e7}</style><path class="st0" d="M-237 405.9c0-.6-.3-1.1-.6-1.5-.5-.7-1.2-.9-2.1-.9h-35.1c-.3 0-.7.1-.9.2-.7.5-1.3 1.1-1.3 2.1V431c0 .3.1.6.2.8.4 1 1.1 1.4 2.2 1.4h12c.5 0 .6.1.6.6v1.3c0 .5-.1.6-.6.6h-4c-.4 0-.5.2-.5.5v1.3c0 .5 0 .5.5.5h19.4v-1.8c0-.6-.1-.6-.6-.6h-3.9c-.3 0-.5-.1-.5-.4v-1.6c0-.5 0-.5.5-.5H-239.3c.3 0 .7-.2 1-.4.3-.2.5-.6.7-.8.3-.4.3-.7.3-1.1.3-8.2.3-16.5.3-24.9zm-2.5 19.4c0 .5-.1.6-.6.6h-33.7c-.7 0-.7 0-.7-.7v-13.3-5.4-.7h34.4c.5 0 .6 0 .6.6v18.9z"/><path class="st0" d="M-259.9 415.4c-.5 0-1-.1-1.4-.4-.1 0-.3 0-.3.1-.9.8-1.9 1.5-2.8 2.3-.6.5-1.2.9-1.8 1.4-.2.2-.5.4-.2.7v.2c-.2.8-.4 1.5-1.3 1.9-1 .5-2 .2-2.7-.7-.4-.5-.5-1.1-.4-1.7.1-.7.5-1.3 1.2-1.5.4-.1.8-.2 1.2-.2h.2c.6.4 1 .2 1.5-.3s1.2-.9 1.7-1.4c.9-.7 1.7-1.3 2.6-2 .1-.1.2-.3.2-.5 0-.8.4-1.4 1-1.8.6-.4 1.3-.5 2-.2.4.2.7.4.9.7.4.7.6 1.3.2 2.1-.1.1.1.4.2.6.5.7 1.1 1.3 1.6 1.9.2.4.5.3.8.3.4 0 .8-.1 1.2.2 0 0 .3 0 .3-.1.6-.6 1.2-1.2 1.9-1.7 1.1-1 2.1-2 3.2-2.9.4-.3.7-.6 1.1-1 .1-.1.2-.3.2-.5v-.9c.1-.7.3-1.3 1-1.6.3-.2.7-.4 1.1-.4.6 0 1.2.2 1.7.7.6.7.6 1.5.4 2.3-.1.6-.6 1-1.2 1.2-.3.1-.7.1-1 .2h-.2c-.6-.4-.9.1-1.3.4-.6.6-1.2 1.1-1.9 1.7-.9.8-1.8 1.7-2.7 2.5-.4.4-.9.8-1.3 1.3-.1.1-.2.3-.2.5.1.9-.3 1.7-1 2.1-.5.3-1.1.5-1.8.2-.4-.2-.9-.4-1.1-.8-.4-.6-.6-1.3-.2-2 .1-.2.1-.5-.1-.7-.6-.6-1.1-1.3-1.6-2-.1-.1-.2-.1-.3-.2-.2-.1-.4 0-.6 0z"/><path class="st0" d="M-268 419.6c0-.4-.2-.6-.7-.6-.4 0-.7.3-.7.7s.3.7.7.7c.3-.1.7-.5.7-.8zM-245.4 409.5c-.5 0-.7.2-.7.7 0 .4.3.7.6.7s.7-.4.7-.7c.1-.4-.2-.7-.6-.7zM-255.9 419c0 .5.2.7.6.7.4 0 .8-.3.8-.7 0-.2-.4-.7-.7-.7-.5 0-.7.2-.7.7zM-259.3 413.3c-.2-.5-.4-.8-1-.6-.3.1-.3.4-.4.6-.1.2.3.6.6.7.5 0 .6-.4.8-.7z"/></svg>