<svg id="图层_1" xmlns="http://www.w3.org/2000/svg" viewBox="-4 6 40 40"><style>.st0{fill:#1aa2e7}</style><path class="st0" d="M33 43.5h1.6c-.1-4.7-.7-6.7-5.3-8.4-1.8-.7-3.7-1-5.6-1.4-3.3-.7-4.3-3.6-2.1-6.9.5-.8 1.1-1.7 1.6-2.5.2-.4.5-.8.9-1 1.5-.7 1.8-2 1.6-3.4-.1-.7-.3-1.6-.8-1.9-.7-.4-.6-.8-.7-1.4 0-2.1 0-4.3-.2-6.4-.2-1.6-1.3-2.4-2.9-2.2-1 .2-1.6-.1-2.2-.8-.7-.8-1.6-1.1-2.7-.9-1.4.3-2.9.6-4.3.9-2.6.4-4 1.8-4.1 4.5-.1 1.4-.1 2.7-.1 4.1 0 .8.2 1.7-.9 2.1-.2.1-.3.4-.3.6 0 1.2-.1 2.5.2 3.7.1.5.9.9 1.4 1.3l.3.3 2.7 3.3c.1.1.3.3.3.5.9 2.6-.2 4.8-2.8 5.7-.5.2-1.1.3-1.6.4-1.7.4-3.4.7-5 1.3-1.8.7-3.5 1.7-4.1 3.7-.4 1.4-.4 3-.6 4.6h2.1l33.6.2z"/></svg>