<svg id="图层_1" xmlns="http://www.w3.org/2000/svg" viewBox="-4 6 40 40"><style>.st0{fill:#fff}</style><switch><g><path class="st0" d="M29.9 36.1c-1.9-.7-3.9-1-5.9-1.4-3.4-.7-4.4-3.7-2.2-7.1.6-.9 1.1-1.7 1.7-2.6.3-.4.5-.8.9-1 1.5-.8 1.9-2 1.6-3.6-.1-.7-.3-1.7-.8-1.9-.7-.4-.7-.8-.7-1.4 0-2.2 0-4.4-.2-6.6-.2-1.7-1.3-2.5-3-2.2-1 .2-1.7-.1-2.3-.8-.7-.9-1.6-1.2-2.8-.9-1.5.3-3 .7-4.5.9-2.6.3-4.1 1.8-4.2 4.5-.1 1.4-.1 2.8-.1 4.3 0 .8.2 1.8-.9 2.2-.2.1-.3.4-.3.6 0 1.3-.1 2.6.2 3.9.1.5.9.9 1.4 1.4l.3.3c.9 1.1 1.9 2.3 2.8 3.4.1.1.3.3.3.5.9 2.7-.2 5-2.9 6-.6.2-1.1.3-1.7.5-1.7.4-3.5.7-5.1 1.3-1.9.7-3.6 1.8-4.2 3.8-.4 1.5-.5 3.1-.7 4.8H35.3c0-5-.7-7-5.4-8.9zM-1 42.9c.1-.6.2-1.3.4-1.9.5-1.8 2-2.7 3.7-3.3 1.4-.5 3.4-.8 4.9-1.1.5-.1 1-.3 1.5-.4 3.8-1 5-6.2 2.8-9.1-.1-.2-.2-.3-.3-.4l-2.4-3-.3-.3c-.4-.4-1.2-.7-1.2-1.2-.2-1.1-.1-1.2-.2-2.3 0-.2.1-.5.3-.5 1-.3 1-2.2 1-2.9 0-.7 0-2 .1-3.7.1-2.4.9-3.2 3.2-3.5 1.2-.3 2.5-.6 3.8-.9 1-.2 1.8 0 2.4.8.5.6 1.1.9 2 .7 1.5-.2 2.3.5 2.4 1.9.2 1.9.1 3.3.1 5.2 0 .5 0 1.9.6 2.2.4.2.6.1.7.7.2 1.3-.1 2.4-1.4 3.1-.3.2-.6.6-.8.9-.5.7-1 1.5-1.4 2.2-3 3.3-2.8 8.8 2 10.1 1.7.4 3.5.6 5.1 1.2 4.1 1.3 5.2 2.7 5.5 5.3H-1z"/></g></switch></svg>