<svg class="icon" viewBox="0 0 1024 1024" xmlns="http://www.w3.org/2000/svg" width="200" height="200"><defs><style><![CDATA[

]]></style></defs><path d="M902.394 123.106H124.611c-61.367 0-111.111 49.75-111.111 111.111v555.567c0 61.361 49.744 111.111 111.111 111.111h777.783c61.361 0 111.106-49.75 111.106-111.111V234.217c0-61.361-49.744-111.111-111.106-111.111zm-597.355 451.8c-17.228 17.228-37.5 25.833-60.833 25.833s-43.617-8.606-60.833-25.833c-17.228-17.217-25.833-37.5-25.833-60.833s8.606-43.611 25.833-60.833c17.217-17.217 37.5-25.833 60.833-25.833s43.606 8.617 60.833 25.833c17.211 17.222 25.833 37.5 25.833 60.833s-8.622 43.616-25.833 60.833zm277.778 0c-17.228 17.228-37.5 25.833-60.833 25.833s-43.617-8.606-60.833-25.833c-17.228-17.217-25.833-37.5-25.833-60.833s8.606-43.611 25.833-60.833c17.217-17.217 37.5-25.833 60.833-25.833s43.606 8.617 60.833 25.833c17.211 17.222 25.833 37.5 25.833 60.833s-8.622 43.616-25.833 60.833zm277.777 0c-17.228 17.228-37.5 25.833-60.833 25.833s-43.622-8.606-60.833-25.833c-17.228-17.217-25.833-37.5-25.833-60.833s8.606-43.611 25.833-60.833c17.211-17.217 37.5-25.833 60.833-25.833s43.606 8.617 60.833 25.833c17.217 17.222 25.833 37.5 25.833 60.833s-8.616 43.616-25.833 60.833z"/></svg>