<svg id="图层_1" xmlns="http://www.w3.org/2000/svg" viewBox="13 -13 40 40"><style>.st0{fill:#fff}</style><path class="st0" d="M1354.7-270.2v-3.1-2.1c0-1.1-1-2.1-1-3.1v-2.1c0-1.1-1-2.1-1-3.1 0 0 0-1-1-1l-3.1-3.1c-1-1-2.1-2.1-4.1-3.1 0 0-1 0-1-1-1-1-2.1-1-3.1-2.1-1 0-1 0-2.1-1-1 0-2.1-1-3.1-1h-12.4c-1 0-1 0-2.1 1-1 0-2.1 1-3.1 1L347.3 160.3c-10.3 5.1-15.4 15.4-14.4 25.7 1 10.3 9.3 19.6 20.6 22.7L723.3 289c2.1 0 4.1 1 5.2 1 6.2 0 12.4-2.1 17.5-6.2l556.2-495.4-13.4 619L861.3 287c-13.4-4.1-27.8 4.1-31.9 17.5-4.1 13.4 4.1 27.8 17.5 31.9l89.6 25.7-172 199.9V357c0-14.4-11.3-25.7-25.7-25.7-14.4 0-25.7 11.3-25.7 25.7v274c0 10.3 6.2 20.6 16.5 23.7 3.1 1 6.2 2.1 9.3 2.1 7.2 0 14.4-3.1 19.6-9.3l227.6-263.7c2.1-2.1 3.1-5.1 4.1-7.2l316.2 89.6c2.1 1 5.2 1 7.2 1 5.1 0 11.3-2.1 15.4-5.1 6.2-5.1 10.3-12.4 10.3-20.6l15.4-711.7zM721.2 236.5L439 174.7l741.6-347.1-459.4 408.9z" transform="scale(.03906)"/></svg>