<svg id="图层_1" xmlns="http://www.w3.org/2000/svg" viewBox="0 0 40 40"><style>.st0{fill:#1aa2e7}</style><g id="XMLID_3_"><g id="XMLID_53_"><path id="XMLID_54_" class="st0" d="M39.6 16.1c-.2-1.1-.9-1.9-1.7-1.9h-.2c-2.9 0-5.2-2.3-5.2-5.2 0-.9.4-2 .5-2 .4-1 .1-2.2-.8-2.8l-5-2.8h-.1c-.3-.1-.6-.2-1-.2-.7 0-1.4.3-1.9.8-.6.6-2.5 2.3-4.1 2.3-1.6 0-3.5-1.7-4.1-2.3-.5-.5-1.2-.8-1.9-.8-.3 0-.7.1-.9.2h-.1L7.9 4.2h-.1C7 4.8 6.6 6.1 7.1 7c0 0 .5 1 .5 2 0 2.9-2.3 5.2-5.2 5.2h-.2c-.8 0-1.5.7-1.7 1.9-.1.1-.5 2.2-.5 3.9 0 1.7.4 3.8.4 3.9.2 1.1.9 1.9 1.7 1.9h.2c2.9 0 5.2 2.3 5.2 5.2 0 .9-.4 2-.5 2-.4 1-.1 2.2.8 2.8l4.9 2.7h.1c.3.1.6.2 1 .2.7 0 1.4-.3 1.9-.8.6-.6 2.6-2.4 4.2-2.4s3.6 1.8 4.2 2.5c.5.5 1.2.8 1.9.8.3 0 .7-.1.9-.2h.1l5.1-2.8h.1c.9-.6 1.2-1.8.8-2.8 0 0-.5-1-.5-2 0-2.9 2.3-5.2 5.2-5.2h.2c.8 0 1.5-.7 1.7-1.9 0-.1.4-2.2.4-3.9s-.4-3.8-.4-3.9zM19.9 26.9c-3.8 0-6.9-3.1-6.9-6.9s3.1-6.9 6.9-6.9 6.9 3.1 6.9 6.9c0 3.8-3.1 6.9-6.9 6.9z"/></g></g></svg>