<svg id="图层_1" xmlns="http://www.w3.org/2000/svg" viewBox="0 0 40 40"><style>.st0{fill:#fff}</style><g id="XMLID_3_"><g id="XMLID_4_" transform="scale(.03906)"><path id="XMLID_5_" class="st0" d="M665.4 995.3c-18.6 0-36.7-7.7-48.4-20.6-15.9-17.5-66.4-62.9-107.7-62.9-41 0-92.3 45.7-107 61.7-11.7 12.7-29.6 20.2-48.1 20.2-8.8 0-17.1-1.7-24.6-5l-1.3-.6-125.6-70.2-1.2-.9c-22.9-16-31.6-47.3-20.2-72.8.1-.2 11.6-26.7 11.6-50.9 0-73.4-59.7-133.1-133.1-133.1h-5.2c-21 0-38.1-18.7-43.6-47.6C10.6 610.3.3 555.5.3 512.3c0-43.2 10.3-98 10.7-100.3 5.5-29.3 23-48.1 44.4-47.6h4.5c73.4 0 133.1-59.7 133.1-133.1 0-24.2-11.5-50.7-11.6-51-11.3-25.5-2.6-56.8 20.4-72.7l1.3-.9 132.5-72.8 1.4-.6c7.5-3.2 15.6-4.8 24.3-4.8 18.4 0 36.4 7.4 48.2 19.8 15.7 16.4 65.3 59.1 105.4 59.1 39.7 0 89-41.9 104.6-58C631.2 37.2 649.1 30 667.3 30c8.8 0 17.2 1.7 24.7 5l1.3.6 128 71.1 1.3.9c22.9 16 31.6 47.3 20.3 72.8-.1.2-11.6 26.7-11.6 50.9 0 73.4 59.7 133.1 133.1 133.1h4.4c21.4-.5 38.9 18.3 44.4 47.6.4 2.3 10.7 57.1 10.7 100.3 0 43.2-10.3 98-10.7 100.3-5.5 29.3-23 48-44.4 47.6h-4.4c-73.4 0-133.1 59.7-133.1 133.1 0 24.2 11.5 50.7 11.6 51 11.3 25.5 2.6 56.8-20.3 72.7l-1.3.9-130.3 72-1.4.6c-7.4 3.2-15.6 4.8-24.2 4.8zm-3.9-61.3c.6.4 2.2 1 4 1h.2l121.6-67.2c-2.9-6.8-16.4-39.9-16.4-74.4 0-103.2 81.3-187.8 183.2-193.1 1.5-8.1 9.4-53.7 9.4-87.9s-8-79.7-9.4-87.9c-101.9-5.3-183.2-89.9-183.2-193.1 0-34.6 13.5-67.7 16.4-74.5L667.6 90.5h-.5c-2 0-3.9.7-4.6 1.2-2 2.1-19.3 19.6-44.3 37.2-36.9 25.9-71.7 39.1-103.6 39.1-32.2 0-67.3-13.4-104.4-39.9-25.1-17.9-42.5-35.8-44.5-37.9-.6-.4-2.6-1.2-4.6-1.2h-.4l-123.9 68c3 6.9 16.3 39.9 16.3 74.4 0 103.2-81.3 187.8-183.2 193.1-1.5 8.1-9.4 53.7-9.4 87.9s8 79.7 9.4 87.9c101.9 5.3 183.2 89.9 183.2 193.1 0 34.6-13.5 67.8-16.4 74.5L354 933.5h.3c1.7 0 3.3-.6 3.9-1 2.2-2.4 19.7-20.9 44.9-39.4 37.6-27.6 73.3-41.5 106.2-41.5 33.2 0 69.2 14.2 107 42.3 25.4 18.8 43 37.7 45.2 40.1zM509.8 689c-97.7 0-177.2-79.5-177.2-177.2S412 334.5 509.8 334.5 687 414 687 511.7c0 97.8-79.5 177.3-177.2 177.3zm0-294.2c-64.5 0-117 52.5-117 117s52.5 117 117 117 117-52.5 117-117c-.1-64.6-52.6-117-117-117z"/></g></g></svg>