<svg id="图层_1" xmlns="http://www.w3.org/2000/svg" viewBox="0 0 20 20"><style>.st0{fill-rule:evenodd;clip-rule:evenodd;fill:#272536}</style><g id="XMLID_11_"><path id="XMLID_20_" class="st0" d="M0 1.8V6h20V1.8H0zM4.3 5c-.6 0-1.1-.5-1.1-1.1 0-.6.5-1.1 1.1-1.1s1.1.5 1.1 1.1c0 .6-.5 1.1-1.1 1.1zm14.1 0H10V2.8h8.4V5z"/><path id="XMLID_16_" class="st0" d="M0 12.1h20V7.8H0v4.3zm7.9-3.3h10.4V11H7.9V8.8zm-3.6 0c.6 0 1.1.5 1.1 1.1 0 .6-.5 1.1-1.1 1.1s-1.1-.5-1.1-1.1c0-.6.5-1.1 1.1-1.1z"/><path id="XMLID_12_" class="st0" d="M0 18.3h20V14H0v4.3zm12.8-3.2h5.6v2.2h-5.6v-2.2zm-8.5 0c.6 0 1.1.5 1.1 1.1 0 .6-.5 1.1-1.1 1.1s-1.1-.5-1.1-1.1c0-.6.5-1.1 1.1-1.1z"/></g></svg>