<svg id="图层_1" xmlns="http://www.w3.org/2000/svg" viewBox="79.5 -79.7 170 174"><style>.st0{fill:#008ee5}.st1{fill:#34c8e6}.st2{fill:#fff}</style><path class="st0" d="M215.9-44.5L169 32.2h40.8c21.9 0 39.7-17.3 39.7-38.6 0-19.3-14.6-35.3-33.6-38.1z"/><path class="st1" d="M210.6-45c-4.4-19.1-22.1-33.6-43.5-34.7v106L210.6-45z"/><path class="st0" d="M162.4-79.7c-21.4.9-39.1 15.3-43.7 34.2l43.7 71.7V-79.7z"/><path class="st1" d="M79.5-6.4c0 21.3 17.8 38.6 39.7 38.6h41.4l-46.9-76.8C94.4-42 79.5-25.9 79.5-6.4z"/><path class="st2" d="M149.9 49.3l-9.1-2.7v4.5l9.1 2.9v-4.7zm15.6 26.5c.8-3.2.8-6.3.8-6.3h2.6v17.3h5V69.4h9.6s4.9.8 4.9-3.9v-6.7s0-.4-.1-1c-.6-2.4-3.4-2.1-3.4-2.1H174V52h13.5l1.3-3.6H174v-3.7h-5.4v3.7h-13.7V52h13.9v3.7h-10.2c-.3 0-3.6-.3-3.6 3.6-.1 4.4 0 6.7 0 6.7s0 3.3 3.7 3.5c3.3-.1 3.3 0 3.3 0s.4 9.4-8.2 11.9v3.7s8.9 0 11.7-9.3zm8.4-17.1h9.2s1.1-.2 1.1 1.1v5.8s-.1.9-.8 1c-1.1.1-9.4 0-9.4 0l-.1-7.9zm-13.6 7.9c-1.2-.1-1.2-1.1-1.2-1.1v-5.6c0-1.3 1.3-1.1 1.3-1.1h8.4v7.9c0-.1-7.2 0-8.5-.1zm75.2-18.2l-39.4-.1V52h37.6l1.8-3.6zm-54.3 23.4h-4.6c1.4 13 12.8 13.3 12.8 13.3s.1-.3 0-3.5c-7.1-2.1-8.2-9.8-8.2-9.8zm-21.6 17.8c-3.1-.5-8-1.8-9.9-4.8-.1-4.5 0-25.8 0-25.8h-9.4v3.6h4.7v22.9l-4.3 5.2.2.1v.1l3.3 2.8 4-4.9s5.6 5 20.6 5.2c5.2.1 15.7-.6 23.2-2.4V88s-19 4.7-32.4 1.6zm68.1-14.9l5 13.8s-14.1 4.4-29.7.4c-.6-.6-.5-.6-.1-2s5.7-19.1 5.7-19.1h-5.3l-5.9 19.1s-1.7 4.1 2.5 5.5c2.7.6 20 4.8 38.2-1.6-1.6-4.7-6-16.1-6-16.1h-4.4zm-104.1 7.7v-4c-7.3-5.5-7.3-18.9-7.3-18.9h-3.8c0 21.4 11.1 22.9 11.1 22.9zm68.6-20.2v3.5h46.4l1.2-3.5h-47.6zm-95.6-14c-4 .4-5.9 1.3-7.4 3.1v40.4s3.2 3.1 10.5 2.4c2.9-.3 5.7-1.6 6.2-2.6.2-1.4 0-39.6 0-39.6s-1.7-4.2-9.3-3.7zm5.2 18.3h-5.7v2.6h5.7v20.4s-3.6 1.9-8.2.3c0-4.7-.2-37-.2-37s3.6-2.8 8.4.1c.2 9.1 0 13.6 0 13.6zm31-22.1H128.4v7.9l-18.8.2v4h18.8v31.9s-3.6 3-14.9.8c-.1 3.1 0 3.6 0 3.6s13.4 3.3 19.3-2.5c.2-6.7 0-33.8 0-33.8h3.6l1.3-4.1h-4.9v-8z"/></svg>