<svg id="图层_1" xmlns="http://www.w3.org/2000/svg" viewBox="-74 76 50 50"><style>.st0{fill:#999}</style><g id="XMLID_1_"><g id="XMLID_13_"><path class="st0" d="M-49.3 124h.5v2h-.5z" id="XMLID_17_"/><path class="st0" d="M-48.8 121.9h-.5v-4.2h.5v4.2zm0-6.3h-.5v-4.2h.5v4.2zm0-6.2h-.5v-4.2h.5v4.2zm0-6.3h-.5v-4.2h.5v4.2zm0-6.3h-.5v-4.2h.5v4.2zm0-6.3h-.5v-4.2h.5v4.2zm0-6.2h-.5v-4.2h.5v4.2z" id="XMLID_16_"/><path class="st0" d="M-49.3 76h.5v2h-.5z" id="XMLID_15_"/><path class="st0" d="M-48.8 121.9h-.5v-4.2h.5v4.2zm0-6.3h-.5v-4.2h.5v4.2zm0-6.2h-.5v-4.2h.5v4.2zm0-6.3h-.5v-4.2h.5v4.2zm0-6.3h-.5v-4.2h.5v4.2zm0-6.2h-.5v-4.2h.5v4.2zm0-6.3h-.5v-4.2h.5v4.2z" id="XMLID_14_"/></g></g></svg>