<svg id="图层_1" xmlns="http://www.w3.org/2000/svg" viewBox="0 0 200 200"><style>.st0{fill:#999}</style><path class="st0" d="M768 466.7c15.1-15.1 15.1-37.6 0-52.7-15.1-15.1-37.6-15.1-52.7 0L512 617.3 308.7 414c-15.1-15.1-37.6-15.1-52.7 0-15.1 15.1-15.1 37.6 0 52.7l233.4 225.8c15.1 15.1 37.6 15.1 52.7 0L768 466.7zm255.9 45.2C1023.9 233.4 798.1 0 512 0 225.9 0 .1 233.4.1 511.9s233.4 511.9 511.9 511.9c286.1 7.5 511.9-225.8 511.9-511.9zm-948.5 0C75.4 271 271.1 75.3 512 75.3S948.6 271 948.6 511.9 752.9 948.5 512 948.5C271.1 956.1 75.4 760.3 75.4 511.9z" transform="scale(.19531)"/></svg>