<svg id="图层_1" xmlns="http://www.w3.org/2000/svg" viewBox="0 0 40 40"><style>.st0{fill:#fff}</style><g id="XMLID_3_"><g id="XMLID_4_" transform="scale(.03906)"><path id="XMLID_5_" class="st0" d="M396.3.6h-2c-36.7.5-71.3 15.2-97.5 41.3-26.2 26.1-40.9 60.6-41.5 97.3-.5 34.5 11.3 67.1 32.7 92.6H152.8C68.6 231.8 0 300.2 0 384.4v169.8c0 13.1 8.4 24.3 21 27.9 12.6 3.6 25.7-1.4 32.7-12.4 17.8-28.2 48.2-45 81.5-45 26 0 50.3 10.2 68.5 28.6 18.2 18.5 28.1 42.9 27.7 68.9-.7 51.5-43.2 94-94.7 94.7-33.9.5-65-16.3-83.1-45-7-11-20.1-16-32.6-12.4-12.6 3.6-21 14.8-21 27.9v168C0 939.6 68.5 1008 152.8 1008h176.8c13.1 0 24.3-8.5 27.9-21s-1.4-25.6-12.4-32.6c-28.2-17.7-45-48.2-45-81.4 0-25.9 10.2-50.3 28.7-68.4 18.2-17.9 42.1-27.7 67.6-27.7h1.4c51.5.7 94.1 43.2 94.9 94.6.5 33.9-16.3 64.9-45 83-11 7-16 20.1-12.4 32.6s14.9 21 27.9 21H640c84.3 0 152.8-68.5 152.8-152.6V728.9c25 20.9 56.7 32.7 90.4 32.7 38 0 73.7-14.9 100.4-42 26.7-27 41.1-62.9 40.6-100.9-.5-36.7-15.2-71.3-41.3-97.4-26.1-26.1-60.7-40.8-97.4-41.4-34.6-.5-67.2 11.3-92.7 32.6V384.2c0-84.2-68.5-152.6-152.8-152.6H504.7c21-24.9 32.8-56.6 32.8-90.4 0-38-14.9-73.6-42-100.3C468.7 15 433.6.6 396.3.6zM44.7 512.7V384.4c0-59.5 48.5-108 108.1-108h176.8c13.1 0 24.3-8.5 28-21 3.6-12.5-1.4-25.6-12.4-32.6-28.7-18.1-45.6-49.1-45-83 .8-51.4 43.4-93.9 94.9-94.6 26-.3 50.5 9.5 69 27.7s28.7 42.5 28.7 68.4c0 33.3-16.8 63.7-45 81.4-11.1 7-16.1 20.1-12.4 32.6 3.6 12.5 14.9 21 27.9 21h176.8c59.6 0 108.1 48.4 108.1 108v169.8c0 13.1 8.4 24.3 21 27.9 12.5 3.6 25.7-1.4 32.6-12.4 18.1-28.7 49.1-45.5 83.1-45 51.5.8 94 43.3 94.7 94.7.4 26-9.5 50.4-27.7 68.9C933.3 706.8 909 717 883 717c-33.3 0-63.7-16.8-81.5-45-7-11-20.1-16-32.7-12.4-12.6 3.6-21 14.8-21 27.9v168c0 59.5-48.5 108-108.1 108H504.5c21.4-25.5 33.2-58 32.7-92.6-.6-36.7-15.3-71.2-41.5-97.3-26.2-26.1-60.8-40.7-97.5-41.3h-2c-37.3 0-72.4 14.4-99 40.6-27.1 26.7-42 62.3-42 100.3 0 33.7 11.8 65.4 32.7 90.4H152.8c-59.6 0-108.1-48.4-108.1-108V729.2c25.5 21.4 58.1 33.1 92.7 32.6 36.7-.6 71.3-15.3 97.4-41.4 26.1-26.1 40.8-60.7 41.3-97.4.5-38-13.9-73.8-40.6-100.9-26.7-27.1-62.4-42-100.4-42-33.6-.1-65.4 11.7-90.4 32.6z"/></g></g></svg>