<svg id="图层_1" xmlns="http://www.w3.org/2000/svg" viewBox="0 0 40 40"><style>.st0{fill:#1aa2e7}</style><path id="XMLID_3_" class="st0" d="M15.5 0s-.1 0 0 0c-1.5 0-2.9.6-3.9 1.6S10 4 10 5.4c0 1.3.4 2.6 1.3 3.6H6c-3.3 0-6 2.7-6 6v6.6c0 .5.3.9.8 1.1.5.1 1-.1 1.3-.5.7-1.1 1.9-1.8 3.2-1.8 1 0 2 .4 2.7 1.1.7.7 1.1 1.7 1.1 2.7 0 2-1.7 3.7-3.7 3.7-1.3 0-2.5-.6-3.2-1.8-.3-.4-.8-.6-1.3-.5-.6.3-.9.7-.9 1.3v6.6c0 3.3 2.7 6 6 6h6.9c.5 0 .9-.3 1.1-.8s-.1-1-.5-1.3c-1.1-.7-1.8-1.9-1.8-3.2 0-1 .4-2 1.1-2.7.7-.7 1.6-1.1 2.6-1.1h.1c2 0 3.7 1.7 3.7 3.7 0 1.3-.6 2.5-1.8 3.2-.4.3-.6.8-.5 1.3.1.5.6.8 1.1.8h7c3.3 0 6-2.7 6-6v-4.9c1 .8 2.2 1.3 3.5 1.3 1.5 0 2.9-.6 3.9-1.6 1-1.1 1.6-2.5 1.6-3.9s-.6-2.8-1.6-3.8-2.4-1.6-3.8-1.6-2.6.4-3.6 1.3v-5c0-3.3-2.7-6-6-6h-5.3c.8-1 1.3-2.2 1.3-3.5 0-1.5-.6-2.9-1.6-3.9C18.3.6 16.9 0 15.5 0z"/></svg>