<svg id="图层_1" xmlns="http://www.w3.org/2000/svg" viewBox="-4 6 40 40"><style>.st0{fill:#fff}</style><path class="st0" d="M18.1 43.4v-1.9H-1.8c.1-.6.2-1.2.4-1.7.5-1.6 1.9-2.5 3.4-3 1.3-.5 3.1-.7 4.5-1.1.5-.1.9-.2 1.4-.4 3.5-.9 4.6-5.7 2.6-8.4 0-.1-.2-.3-.3-.4-.7-.9-1.5-1.8-2.3-2.7l-.3-.3c-.4-.4-1.1-.7-1.1-1.1-.2-1-.1-1.1-.1-2.1 0-.2.1-.4.2-.5.9-.3.9-2 .9-2.7 0-.7 0-1.8.1-3.4.1-2.2.8-2.9 3-3.2 1.2-.2 2.4-.5 3.6-.7.9-.2 1.6 0 2.2.7.5.6 1 .8 1.8.7 1.3-.2 2.1.4 2.2 1.8.2 1.7.1 3.1.1 4.8 0 .5 0 1.7.6 2.1.4.2.6.1.7.6.2 1.2-.1 2.2-1.3 2.8-.3.2-.5.5-.7.8-.5.7-.9 1.4-1.3 2.1-2.2 2.5-2.5 6.2-.2 8.2v-3.6c0-1 .3-2.1 1.1-3.3l1.5-2.4c.2-.3.5-.8.8-.9 1.4-.7 1.8-1.9 1.5-3.3-.1-.6-.3-1.5-.8-1.8-.7-.4-.6-.7-.6-1.3 0-2 0-4.1-.2-6.1-.2-1.6-1.2-2.3-2.8-2.1-.9.2-1.5-.1-2.1-.8-.7-.8-1.5-1.1-2.5-.8-1.4.3-2.8.6-4.1.8-2.6.5-4 1.9-4.1 4.4-.1 1.3-.1 2.6-.1 3.9 0 .8.2 1.6-.8 2-.1 0-.3.4-.3.6 0 1.2-.1 2.4.2 3.6.1.5.9.9 1.3 1.3l.3.3c.9 1.1 1.7 2.1 2.6 3.2.1.1.2.3.3.4.9 2.5-.2 4.6-2.7 5.5-.5.2-1 .3-1.6.4-1.5.3-3.2.6-4.7 1.1-1.7.6-3.3 1.7-3.9 3.5-.4 1.4-.4 2.8-.6 4.4H18.1z"/><path class="st0" d="M16.5 30.7h1.6v12.7h-1.6zM28.5 26h-.7c-2.2 0-4 1.8-4 4v2.7h1.4v-2.4c0-1.7 1.4-3 3-3 1.7 0 3 1.4 3 3v2.4h1.3V30c0-2.2-1.8-4-4-4z"/><path class="st0" d="M34 31.6H22c-1.1 0-2 .9-2 2v8c0 1.1.9 2 2 2h12c1.1 0 2-.9 2-2v-8c0-1.1-.9-2-2-2zm.5 9.5c0 .5-.5 1-1 1h-11c-.5 0-1-.5-1-1v-7c0-.6.5-1 1-1h11c.5 0 1 .4 1 1v7z"/></svg>