<svg id="图层_1" xmlns="http://www.w3.org/2000/svg" viewBox="0 0 200 200"><style>.st0{fill:#fff}</style><path class="st0" d="M1024.4 175.3c0-56.6-35.3-92.1-91.7-92.1h-841c-55.3 0-91.2 36-91.2 91.5v671.6c0 53.8 36.1 90.2 90 90.2 140.6.1 281.1 0 421.7 0h419.3c58 0 93.1-35.2 93.1-93.3-.2-222.7-.2-445.3-.2-667.9zm-640.3-28.2c23.6-.3 43.3 19.6 43.1 43.3-.2 23.3-19.4 42-42.9 41.9-23.6-.1-42.4-18.9-42.4-42.3-.1-23.4 18.9-42.7 42.2-42.9zm-127.9 0c23.4-.1 42.6 18.9 42.8 42.4.2 23.6-18.6 42.6-42.2 42.7-23.9.1-42.5-18.2-42.7-42.1-.2-23.6 18.7-42.9 42.1-43zm-128.4 0c23.5-.5 43.4 19.3 43.3 43-.1 23.4-18.9 42.1-42.5 42.1-23.6.1-42.5-18.6-42.7-42-.3-23.1 18.7-42.7 41.9-43.1zM963 844.3c0 22.3-8.6 30.8-31.1 30.8H93.5c-23.5 0-31.7-8.1-31.7-31.3V313.7c0-19.6-3.1-17.1 17.6-17.1 144.6-.1 289.2-.1 433.8 0 145.8 0 291.6.1 437.5-.2 9 0 12.4 1.6 12.4 11.8-.2 178.6-.1 357.4-.1 536.1zM422.3 552.6c-41.6-33.3-82.4-66-123.4-98.6-11.6-9.2-18.8-20.3-16.8-35.5 3.8-28.8 35.6-41.4 59.1-23 35.5 27.7 70.4 56.1 105.6 84.2 17.7 14.2 35.6 28.3 53.2 42.6 21.6 17.5 21.8 42.7.3 60-52.5 42.2-105.1 84.2-157.8 126.1-17.9 14.3-40.1 12.4-53-3.8-13-16.4-9.8-38.1 8.1-52.5 41.1-32.9 82.4-65.7 124.7-99.5zm188.4 159.8c30.8 0 61.7-.1 92.5 0 23 .1 39.4 14.7 39.9 35.3.5 21.1-16 37-39.5 37-62.9.2-125.8.2-188.7 0-22.5-.1-39.1-16.1-38.7-36.6.3-20.7 16.6-35.6 39.5-35.7 31.7-.1 63.4 0 95 0z" transform="scale(.19531)"/></svg>