<svg id="图层_1" xmlns="http://www.w3.org/2000/svg" viewBox="170 10 20 20"><style>.st0{fill:#666}</style><path class="st0" d="M948.4 148.7v-24.4h9.7v-14.6H924v14.6h9.7v24.4h-24.4v-24.4h9.7v-14.6h-34v14.6h9.7v24.4h-24.4v-24.4h9.7v-19.5h39v-9.7h-24.4v-39h53.6v39H924v9.7h39v19.5h9.7v24.4h-24.3zm-73.1-19.5v14.6h14.6v-14.6h-14.6zm68.2-39V61h-43.9v29.2h43.9zm-29.2 39v14.6h14.6v-14.6h-14.6zm53.6 0h-14.6v14.6h14.6v-14.6zm-48.7-48.7h-9.7v-9.7h9.7v9.7zm14.6 0H924v-9.7h9.7v9.7z" transform="scale(.19531)"/></svg>