<svg id="图层_1" xmlns="http://www.w3.org/2000/svg" viewBox="140 40 20 20"><style>.st0{fill:#999}</style><path class="st0" d="M798.1 307H738c-11.5 0-20.9-9.4-20.9-20.9V226c0-11.5 9.4-20.9 20.9-20.9h60.1c11.5 0 20.9 9.4 20.9 20.9v60c0 11.6-9.4 21-20.9 21zm-60.2-97.1c-8.9 0-16.1 7.2-16.1 16.1v60c0 8.9 7.2 16.1 16.1 16.1H798c8.9 0 16.1-7.2 16.1-16.1v-60.1c0-8.9-7.2-16.1-16.1-16.1h-60.1v.1zm-2.7 64.6l29.8 17.9v-35.1l-29.8-17.9v35.1zm31.7-54.7l-28.1 14.5 29.1 18.3 29-14.9-30-17.9zm4.3 37.3v35.1l29.1-14.9v-35.1l-29.1 14.9z" transform="scale(.19531)"/></svg>