<svg id="图层_1" xmlns="http://www.w3.org/2000/svg" viewBox="170.1 10 20 20"><style>.st0{fill:#666}</style><path class="st0" d="M921.9 51.2c-28.3 0-51.2 22.9-51.2 51.2s22.9 51.2 51.2 51.2 51.2-22.9 51.2-51.2-22.9-51.2-51.2-51.2zm0 97.9c-25.8 0-46.7-20.9-46.7-46.7s20.9-46.7 46.7-46.7 46.7 20.9 46.7 46.7-20.9 46.7-46.7 46.7zm6.3-48.4c2.3-5.5 1.2-11.9-3.1-16.2-4.3-4.3-10.9-5.5-16.4-3.1l7.1 7.1c1.4 1.4 1.4 3.8 0 5.2l-2.7 2.7c-1.4 1.4-3.8 1.4-5.2 0l-7.1-7.1c-2.2 5.3-1.2 11.8 3.2 16.2 4.5 4.5 10.9 5.5 16.2 3.1l15 14.9c1.4 1.4 3.8 1.4 5.2 0l2.7-2.7c1.4-1.4 1.4-3.8 0-5.2l-14.9-14.9z" transform="scale(.19531)"/></svg>