<svg id="图层_1" xmlns="http://www.w3.org/2000/svg" viewBox="50 -50 200 200"><style>.st0{fill:#666}</style><path class="st0" d="M1024 183.3c0 4-1.6 6.7-4.7 8.3L773.6 323.9h-1.2c-.8.8-2 1.2-3.6 1.2s-2.8-.4-3.6-1.2h-1.1L518.4 191.6c-3.2-1.6-4.8-4.3-4.8-8.3v-284.7c0-.7.4-1.6 1.2-2.4v-1.2l2.4-2.4 1.2-1.2 245.7-132.3c3.2-.7 6.3-.7 9.5 0l245.7 132.3 1.2 1.2 2.4 2.4v1.2l1.1 2.3v284.8zm-491.4-5.9l226.8 122.9V38L532.6-84.8v262.2zm10.6-277.6L768.8 21.5l225.6-121.7-225.6-121.6-225.6 121.6zm461.9 277.6V-84.8L778.3 38v262.2l226.8-122.8z" transform="scale(.19531)"/><path class="st0" d="M1269.7 598.9c0 4-1.6 6.7-4.7 8.3l-245.7 132.3h-1.2c-.8.8-2 1.2-3.6 1.2s-2.8-.4-3.6-1.2h-1.1L764.1 607.2c-3.2-1.6-4.8-4.3-4.8-8.3V314.3c0-.7.4-1.6 1.2-2.4v-1.2l2.4-2.4 1.2-1.2 245.7-132.3c3.2-.7 6.3-.7 9.5 0L1265 307.2l1.2 1.2 2.4 2.4v1.2l1.1 2.3V598.9zM778.3 593l226.8 122.9V453.7L778.3 330.8V593zm10.6-277.5l225.6 121.7 225.6-121.7-225.6-121.7-225.6 121.7zM1250.8 593V330.8L1024 453.7v262.2L1250.8 593z" transform="scale(.19531)"/><path class="st0" d="M777.9 600.8c0 4-1.6 6.7-4.7 8.3L527.5 741.4h-1.2c-.8.8-2 1.2-3.6 1.2s-2.8-.4-3.6-1.2H518L272.4 609.1c-3.2-1.6-4.8-4.3-4.8-8.3V316.2c0-.7.4-1.6 1.2-2.4v-1.2l2.4-2.4 1.2-1.2 245.7-132.3c3.2-.7 6.3-.7 9.5 0L773.3 309l1.2 1.2 2.4 2.4v1.2l1.1 2.3v284.7zm-491.4-5.9l226.8 122.9V455.6L286.5 332.7v262.2zm10.7-277.5L522.8 439l225.6-121.7-225.6-121.6-225.6 121.7zM759 594.9V332.7L532.2 455.6v262.2L759 594.9z" transform="scale(.19531)"/></svg>