<svg id="图层_1" xmlns="http://www.w3.org/2000/svg" viewBox="170 10 20 20"><style>.st0{fill:#666}</style><path class="st0" d="M934.2 113c2.1 0 3.8-1.7 3.8-3.9 0-2.1-1.7-3.8-3.8-3.9h-7.8v-.3l9.1-9.3c1.5-1.7.7-3.1-.8-4.6-1.5-1.5-4-1.8-5.2-.5l-7.8 8.4-8.5-8.5c-1.1-1.1-3.2-.7-4.7.8s-1.8 3.6-.8 4.7l8.7 8.7c-.2.2-.3.4-.3.7h-7c-2.1 0-3.9 1.7-3.9 3.9 0 2.1 1.7 3.9 3.9 3.9h7.7v3.8h-7.7c-2.1 0-3.9 1.7-3.9 3.9 0 2.1 1.7 3.9 3.9 3.9h7.7v4.8c0 2.7 2.2 4.8 4.8 4.8 2.7 0 4.8-2.2 4.8-4.8 0-.3-.1-4.8-.1-4.8h7.8c2.1 0 3.8-1.7 3.8-3.9 0-2.1-1.7-3.8-3.8-3.9h-7.8V113h7.9zm3-45l4.2-5.2.8-1c.5-.6.7-1.4.6-2.2V59c0-2.1-1.1-3.9-2.8-5-.4-.4-.8-.6-1.4-.7-.4-.1-9.4-2-17.8-2h-.2c-8.1 0-17.5 1.9-17.9 2-.5.1-1 .4-1.4.7-1.8 1-2.8 2.9-2.8 5v.6c-.1.8.1 1.6.6 2.2l.7.9.1.1.1.1 4.6 5.7c-17.8 8.3-31.2 28.1-31.2 47.1 0 25.8 15.3 37.8 48.2 37.8 32.9 0 48.2-12 48.2-37.8 0-19.4-14.1-39.8-32.6-47.7zm-32.8-8.8l-.1-.1V59c.1-.1.3-.1.4-.2 2.4-.4 9.8-1.7 16-1.7h.2c6.4 0 13.5 1.3 15.8 1.7.1.1.3.2.4.2v.1l-.1.1-.2.2-5.9 7.4h-20.4l-6-7.5c-.1 0-.1-.1-.1-.1zm17.2 88.6c-29.8 0-42.5-9.6-42.5-32 0-17.7 13.9-37 31.2-43.3H932.8c17.3 6.2 31.2 25.6 31.2 43.3.1 22.4-12.6 32-42.4 32z" transform="scale(.19531)"/></svg>