<svg id="图层_1" xmlns="http://www.w3.org/2000/svg" viewBox="180 0 20 20"><style>.st0{fill:#666}</style><path class="st0" d="M992 22.4h19.2c1.8 0 3.2-1.4 3.2-3.2s-1.4-3.2-3.2-3.2H992c-1.8 0-3.2 1.4-3.2 3.2s1.4 3.2 3.2 3.2zM979.2 3.2v25.6h-50.1c-4.1 0-7.5 3.4-7.5 7.5v42.6c0 4.1 3.4 7.5 7.5 7.5h27.7v6.4H944c-1.8 0-3.2 1.4-3.2 3.2s1.4 3.2 3.2 3.2h32c1.8 0 3.2-1.4 3.2-3.2s-1.4-3.2-3.2-3.2h-12.8v-6.4h16v12.8h44.8v-96h-44.8zM928 78.9V36.3c0-.6.5-1.1 1.1-1.1h62c.1 0 .3.1.4.2 0 0 .1 0 .1.1 0 0 .1.1.2.1 0 0 0 .1.1.1.1.1.1.3.2.4V79.1c0 .1-.1.3-.2.4 0 0 0 .1-.1.1 0 0-.1.1-.2.1 0 0-.1 0-.1.1-.1.1-.3.1-.4.2h-62c-.6 0-1.1-.5-1.1-1.1zm89.6 13.9h-32v-6.4h5.3c4.1 0 7.5-3.4 7.5-7.5V36.3c0-4.1-3.4-7.5-7.5-7.5h-5.3V9.6h32v83.2z" transform="scale(.19531)"/></svg>