<svg id="图层_1" xmlns="http://www.w3.org/2000/svg" viewBox="170 10 20 20"><style>.st0{fill:#666}</style><path class="st0" d="M949.5 103.9h-34.2c-2.8 0-5.1-2.3-5.1-5.1s2.3-5.1 5.1-5.1h34.2c2.8 0 5.1 2.3 5.1 5.1s-2.3 5.1-5.1 5.1zm0 20h-34.2c-2.8 0-5.1-2.3-5.1-5.1s2.3-5.1 5.1-5.1h34.2c2.8 0 5.1 2.3 5.1 5.1s-2.3 5.1-5.1 5.1zm23.2 16.5v-64c0-7.8-7.1-7-7.1-7h-40c-2.4 0-3.6-1.3-3.6-1.3s-1.7-2.9-4.7-7.5c-3.2-4.8-6.8-4-6.8-4h-31.1c-8.6 0-8.7 8.3-8.7 8.3v75c0 9.3 7 8.1 7 8.1h88.7c7.4.1 6.3-7.6 6.3-7.6zm-6.3-3.8c0 2.9-2.3 5.2-5.2 5.2h-79.1c-2.9 0-5.2-2.3-5.2-5.2V83.1c0-2.9 2.3-5.2 5.2-5.2h79.1c2.9 0 5.2 2.3 5.2 5.2v53.5zm-75.3-37.8c0 3 2.4 5.4 5.4 5.4s5.4-2.4 5.4-5.4c0-3-2.4-5.4-5.4-5.4s-5.4 2.4-5.4 5.4zm0 20c0 3 2.4 5.4 5.4 5.4s5.4-2.4 5.4-5.4c0-3-2.4-5.4-5.4-5.4s-5.4 2.5-5.4 5.4z" transform="scale(.19531)"/></svg>