<svg id="图层_1" xmlns="http://www.w3.org/2000/svg" viewBox="0 0 20 20"><style>.st0{fill:#666}</style><g id="XMLID_6_"><g id="XMLID_7_" transform="scale(.19531)"><path id="XMLID_8_" class="st0" d="M97.7 76.8c0 .7-.3 1.2-.8 1.5l-44.4 23.9h-.2c-.1.1-.4.2-.6.2-.3 0-.5-.1-.6-.2h-.2L6.4 78.3c-.6-.3-.9-.8-.9-1.5V25.3c0-.1.1-.3.2-.4v-.2l.4-.4.3-.3L50.8.1c.6-.1 1.1-.1 1.7 0L96.9 24l.2.2.4.4v.2l.2.4v51.6zM8.9 75.7l41 22.2V50.5l-41-22.2v47.4zm1.9-50.2l40.8 22 40.8-22-40.8-22-40.8 22zm83.5 50.2V28.3l-41 22.2v47.4l41-22.2z"/></g></g></svg>