<svg id="图层_1" xmlns="http://www.w3.org/2000/svg" viewBox="170 10 20 20"><style>.st0{fill:#666}</style><path class="st0" d="M936.9 80.4c0 2.1-1.7 3.8-3.8 3.8h-22.9c-2.1 0-3.8-1.7-3.8-3.8 0-2.1 1.7-3.8 3.8-3.8H933c2.2 0 3.9 1.7 3.9 3.8zM933 94.5h-23c-2.1 0-3.8 1.7-3.8 3.8 0 2.1 1.7 3.8 3.8 3.8h23c2.1 0 3.8-1.7 3.8-3.8.1-2.1-1.6-3.8-3.8-3.8zm39.6 26c0 11.3-8.2 21-19.2 22.6h-63.6-.1c-10.9-1.6-19.2-11.4-19.2-22.6 0-7.2 3.4-14.1 9.1-18.4-.1-.6-.1-1.3-.1-1.9 0-9.1 7.2-16.5 16.1-16.5h.4v-13c0-5 4.1-9.1 9.1-9.1H938c5 0 9.1 4.1 9.1 9.1v4c7.8 5.6 13 14.8 13 25.3 7.6 3.8 12.5 11.8 12.5 20.5zM942 70.7c0-2.2-1.8-4-4-4h-32.8c-2.2 0-4 1.8-4 4V133H942V70.7z" transform="scale(.19531)"/></svg>