<svg id="图层_1" xmlns="http://www.w3.org/2000/svg" viewBox="0 0 20 20"><style>.st0{fill:#666}</style><path class="st0" d="M431 218.5c.1-3 .1-5.8.1-7.9 0-36.3-14.1-70.3-39.8-96-25.7-25.7-59.7-39.8-96-39.8-28.1 0-55.7 9.6-79.9 27.7-16.5 12.3-30.4 28.1-40.4 45.6-11-5.7-23.1-8.7-35.7-8.7-20.1 0-39.5 9.3-54.5 26.3-10 11.3-17.1 25.1-20.6 39.4-17 6.7-32.1 18.3-43.1 33-12.8 17.2-19.6 37.7-19.6 59.2 0 54.6 44.4 99 99 99v-.3h321.2v.1c49 0 88.8-39.9 88.8-88.8 0-45.6-35.1-83.8-79.5-88.8zm-5.7 157H94.5c-40.4-3.1-72.3-37-72.3-78.2 0-34 21.5-64.2 53.6-74.9.1 0 .2-.1.3-.1 3.2-.9 5.7-3.5 6.2-7 4.6-27.5 28.4-55.3 57.2-55.3 11.8 0 23.1 3.6 32.7 10.3 1 .9 2.1 1.6 3.4 2.1 5 1.9 10.6-.5 12.9-5.3 19.5-42 63.1-71.6 107-71.6 63.5 0 115.2 51.7 115.2 115.2 0 4.3-.2 11.1-.6 17-.4 5.3 3.3 10 8.6 10.9.9.2 1.8.2 2.7.1 37.6 0 68.8 31.1 68.8 68.8-.2 36.3-28.9 66.2-64.9 68z" transform="scale(.03906)"/><path class="st0" d="M11.2 10.2H5.4c-.3 0-.5-.2-.5-.5s.2-.5.5-.5h5.8c.3 0 .5.2.5.5.1.3-.2.5-.5.5z"/><circle class="st0" cx="13.1" cy="9.7" r=".6"/><path class="st0" d="M11.2 12.6H5.4c-.3 0-.5-.2-.5-.5s.2-.5.5-.5h5.8c.3 0 .5.2.5.5.1.2-.2.5-.5.5z"/><circle class="st0" cx="13.1" cy="12" r=".6"/></svg>