<?xml version="1.0" encoding="utf-8"?>
<!-- Generator: Adobe Illustrator 17.0.0, SVG Export Plug-In . SVG Version: 6.00 Build 0)  -->
<!DOCTYPE svg PUBLIC "-//W3C//DTD SVG 1.1//EN" "http://www.w3.org/Graphics/SVG/1.1/DTD/svg11.dtd">
<svg version="1.1" id="图层_1" xmlns="http://www.w3.org/2000/svg" xmlns:xlink="http://www.w3.org/1999/xlink" x="0px" y="0px"
	 width="16px" height="16px" viewBox="0 0 16 16" enable-background="new 0 0 16 16" xml:space="preserve">
<path fill="#2FBA66" d="M8,0c4.418,0,8,3.582,8,8s-3.582,8-8,8c-3.662,0-8-3.582-8-8S3.582,0,8,0z"/>
<g>
	<path fill="#FFFFFF" d="M7.263,11.324c-0.312,0.312-0.819,0.312-1.131,0L3.221,8.413c-0.312-0.312-0.312-0.819,0-1.131l0,0
		c0.312-0.312,0.819-0.312,1.131,0l2.911,2.911C7.575,10.505,7.575,11.012,7.263,11.324L7.263,11.324z"/>
	<path fill="#FFFFFF" d="M6.131,11.324c-0.312-0.312-0.312-0.819,0-1.131l5.517-5.517c0.312-0.312,0.819-0.312,1.131,0l0,0
		c0.312,0.312,0.312,0.819,0,1.131l-5.517,5.517C6.95,11.636,6.444,11.636,6.131,11.324L6.131,11.324z"/>
</g>
</svg>
