<?xml version="1.0" encoding="utf-8"?>
<!-- Generator: Adobe Illustrator 17.0.0, SVG Export Plug-In . SVG Version: 6.00 Build 0)  -->
<!DOCTYPE svg PUBLIC "-//W3C//DTD SVG 1.1//EN" "http://www.w3.org/Graphics/SVG/1.1/DTD/svg11.dtd">
<svg version="1.1" id="图层_1" xmlns="http://www.w3.org/2000/svg" xmlns:xlink="http://www.w3.org/1999/xlink" x="0px" y="0px"
	 width="16px" height="16px" viewBox="0 0 16 16" enable-background="new 0 0 16 16" xml:space="preserve">
<circle fill="#F14D4D" cx="8" cy="8" r="8"/>
<g>
	<path fill="#FFFFFF" d="M4.676,11.324c-0.312-0.312-0.312-0.819,0-1.131l5.517-5.517c0.312-0.312,0.819-0.312,1.131,0l0,0
		c0.312,0.312,0.312,0.819,0,1.131l-5.517,5.517C5.495,11.636,4.988,11.636,4.676,11.324L4.676,11.324z"/>
	<path fill="#FFFFFF" d="M4.676,4.676c0.312-0.312,0.819-0.312,1.131,0l5.517,5.517c0.312,0.312,0.312,0.819,0,1.131l0,0
		c-0.312,0.312-0.819,0.312-1.131,0L4.676,5.807C4.364,5.495,4.364,4.988,4.676,4.676L4.676,4.676z"/>
</g>
</svg>
