<?xml version="1.0" encoding="utf-8"?>
<!-- Generator: Adobe Illustrator 19.0.0, SVG Export Plug-In . SVG Version: 6.00 Build 0)  -->
<svg version="1.1" id="图层_1" xmlns="http://www.w3.org/2000/svg" xmlns:xlink="http://www.w3.org/1999/xlink" x="0px" y="0px"
	 viewBox="0 0 20 20" style="enable-background:new 0 0 20 20;" xml:space="preserve">
<style type="text/css">
	.st0{fill:#272636;}
</style>
<g id="XMLID_10_">
	<g id="XMLID_11_" transform="scale(0.1953125, 0.1953125)">
		<path id="XMLID_12_" class="st0" d="M102.4,76.6c0-0.1,0-0.3,0-0.4l0-50.3c0-0.1,0-0.2,0-0.2c0-0.1,0-0.3,0-0.4
			c0-1.3-0.8-2.5-2-3.1L53.3,0.3c-1-0.5-2.1-0.5-3.1,0L2.5,22.2c-0.7,0.3-1.2,0.8-1.7,1.4C0.2,24.4,0,25.2,0,25.9v50.7
			C0,78,0.9,79,2.3,79.8l0.8,0.4l47.1,21.8c0.5,0.2,1,0.3,1.6,0.3c0.5,0,1.1-0.1,1.6-0.3l47.1-21.8
			C101.9,79.5,102.5,78.1,102.4,76.6z M7.2,30.5L47.6,49l0.5,44.5l-40.9-19V30.5z M54.8,49.5l40.4-18.7V75L55.3,93.5L54.8,49.5z
			 M51.7,7.2l38.9,18l-38.9,18l-39.4-18L51.7,7.2z"/>
	</g>
</g>
</svg>
