<?xml version="1.0" encoding="utf-8"?>
<!-- Generator: Adobe Illustrator 19.0.0, SVG Export Plug-In . SVG Version: 6.00 Build 0)  -->
<svg version="1.1" id="图层_1" xmlns="http://www.w3.org/2000/svg" xmlns:xlink="http://www.w3.org/1999/xlink" x="0px" y="0px"
	 viewBox="0 0 20 20" style="enable-background:new 0 0 20 20;" xml:space="preserve">
<style type="text/css">
	.st0{fill-rule:evenodd;clip-rule:evenodd;fill:#272536;}
</style>
<g id="XMLID_1_">
	<path class="st0" d="M15.1,4.6h1.7v1.7c0,0.2,0.2,0.3,0.4,0.3c0.2,0,0.4-0.2,0.4-0.3V4.6h1.7c0.2,0,0.3-0.2,0.3-0.4
		c0-0.2-0.2-0.4-0.3-0.4h-1.7V2c0-0.2-0.2-0.3-0.4-0.3c-0.2,0-0.4,0.2-0.4,0.3v1.7h-1.7c-0.2,0-0.3,0.2-0.3,0.4
		C14.8,4.4,14.9,4.6,15.1,4.6L15.1,4.6 M13.5,10.5c0.3,0,0.5-0.2,0.5-0.5c0-0.2-0.2-0.5-0.5-0.5h-3.1V9.1l3-2.9
		c0.2-0.2,0.2-0.5-0.1-0.6c-0.2-0.2-0.6-0.1-0.8,0L9.9,8.2L7.3,5.6C7.1,5.4,6.8,5.4,6.6,5.6C6.3,5.7,6.3,6,6.5,6.2l2.8,2.9v0.5H6.6
		C6.3,9.6,6,9.8,6,10c0,0.2,0.2,0.5,0.5,0.5h2.8v0.7H6.6c-0.3,0-0.5,0.2-0.5,0.5c0,0.2,0.2,0.5,0.5,0.5h2.8v2.4
		c0,0.2,0.2,0.5,0.5,0.5c0.3,0,0.5-0.2,0.5-0.5v-2.4h3.1c0.3,0,0.5-0.2,0.5-0.5c0-0.2-0.2-0.5-0.5-0.5h-3.1v-0.7L13.5,10.5
		L13.5,10.5 M19.7,7.5c-0.1-0.2-0.3-0.4-0.6-0.3c-0.2,0.1-0.4,0.3-0.3,0.6c0.2,0.7,0.3,1.5,0.3,2.2c0,5-4.1,9-9,9S1,15,1,10
		c0-5,4.1-9,9-9c1.3,0,2.6,0.3,3.8,0.8c0.2,0.1,0.5,0,0.6-0.2c0.1-0.2,0-0.5-0.2-0.6C12.9,0.3,11.5,0,10,0C7.4,0,4.9,1,3,2.9
		c-1.9,1.9-2.9,4.4-2.9,7c0,2.7,1,5.2,2.9,7c1.9,1.9,4.4,2.9,7,2.9s5.2-1,7-2.9c1.9-1.9,2.9-4.4,2.9-7C20,9.2,19.9,8.3,19.7,7.5
		L19.7,7.5 M19.7,7.5L19.7,7.5z"/>
</g>
</svg>
