<?xml version="1.0" encoding="utf-8"?>
<!-- Generator: Adobe Illustrator 19.0.0, SVG Export Plug-In . SVG Version: 6.00 Build 0)  -->
<svg version="1.1" id="图层_1" xmlns="http://www.w3.org/2000/svg" xmlns:xlink="http://www.w3.org/1999/xlink" x="0px" y="0px"
	 viewBox="-3 5 32 32" style="enable-background:new -3 5 32 32;" xml:space="preserve">
<style type="text/css">
	.st0{fill:#999999;}
</style>
<path class="st0" d="M10.4,31.1c0-0.3,0.2-0.5,0.5-0.5s0.5,0.2,0.5,0.5V33c0,0.3-0.2,0.5-0.5,0.5s-0.5-0.2-0.5-0.5V31.1L10.4,31.1z
	 M15.5,12.9L15.5,12.9c1.3,1.3,1.3,3.4,0,4.7s-3.4,1.3-4.7,0s-1.3-3.4,0-4.7S14.3,11.6,15.5,12.9L15.5,12.9z M11.6,13.6L11.6,13.6
	c-0.9,0.9-0.9,2.3,0,3.2c0.9,0.9,2.3,0.9,3.2,0s0.9-2.3,0-3.2C13.9,12.7,12.5,12.8,11.6,13.6L11.6,13.6z M9.7,29L9.7,29
	c-0.5-0.5-0.9-1-1.4-1.5c-0.1-0.2-0.3-0.4-0.4-0.6l-0.1,0.2c-0.2,0.4-0.3,0.9-0.3,1.4s-0.4,0.9-0.9,0.9c-0.1,0-0.2,0-0.3-0.1
	c-1.2-0.4-2.2-1.1-2.9-2.1s-1.1-2.1-1.1-3.4l0,0l0,0c0-1.2,0.3-2.3,0.9-3.2c0.5-0.8,1.2-1.4,2-1.9v-0.2l0,0l0,0c0-2.7,0.7-5.2,2-7.4
	c1.3-2.3,3.2-4.2,5.5-5.5c0.3-0.2,0.6-0.2,0.9,0l0,0l0,0c2.3,1.3,4.1,3.2,5.4,5.4s2,4.7,2,7.4v0.1v0.2c0.8,0.5,1.5,1.1,2,1.9
	c0.6,0.9,0.9,2,0.9,3.2v0.1c0,1.2-0.4,2.4-1.1,3.3c-0.7,1-1.7,1.7-2.9,2.1c-0.5,0.2-1-0.1-1.1-0.6c0-0.1,0-0.2,0-0.3
	c0-0.5-0.1-1-0.3-1.4l-0.1-0.2c-0.1,0.2-0.3,0.4-0.4,0.6c-0.4,0.6-0.9,1.1-1.4,1.6c-0.2,0.2-0.4,0.3-0.6,0.3l0,0h-5.6
	C10.1,29.3,9.9,29.2,9.7,29L9.7,29z M9.8,26.4L9.8,26.4c0.3,0.4,0.6,0.8,1,1.1h4.9c0.3-0.4,0.7-0.8,1-1.2c0.4-0.5,0.7-1,1-1.6
	c0-0.1,0.1-0.2,0.2-0.2c0.4-0.3,0.9-0.3,1.2,0c0.5,0.5,0.8,1.1,1.1,1.7c0.1,0.2,0.2,0.5,0.2,0.7c0.4-0.3,0.8-0.6,1.1-1
	c0.5-0.7,0.8-1.5,0.8-2.3l0,0c0-0.8-0.2-1.6-0.7-2.2c-0.4-0.7-1-1.2-1.8-1.5c-0.3-0.1-0.5-0.5-0.5-0.8v-0.4v-0.3l0,0
	c0-2.4-0.6-4.6-1.7-6.5c-1.1-1.8-2.6-3.4-4.4-4.6c-1.8,1.1-3.3,2.7-4.4,4.5c-1.1,2-1.7,4.2-1.7,6.6v0.3l0,0v0.4
	c0,0.4-0.2,0.7-0.5,0.9c-0.7,0.3-1.3,0.9-1.8,1.5c-0.4,0.6-0.7,1.4-0.7,2.2l0,0c0,0.9,0.3,1.7,0.8,2.4c0.3,0.4,0.6,0.7,1,1
	c0.2-0.3,0.2-0.5,0.3-0.7c0.3-0.6,0.6-1.2,1.1-1.7c0.1-0.1,0.1-0.1,0.2-0.2c0.4-0.3,1-0.1,1.2,0.3C9.1,25.3,9.4,25.9,9.8,26.4
	L9.8,26.4z M15,31.1L15,31.1c0-0.3,0.2-0.5,0.5-0.5s0.5,0.2,0.5,0.5V33c0,0.3-0.2,0.5-0.5,0.5S15,33.3,15,33L15,31.1L15,31.1z
	 M12.7,31.1L12.7,31.1c0-0.3,0.2-0.5,0.5-0.5s0.5,0.2,0.5,0.5v4.2c0,0.3-0.2,0.5-0.5,0.5s-0.5-0.2-0.5-0.5V31.1L12.7,31.1z"/>
</svg>
