<?xml version="1.0" encoding="utf-8"?>
<!-- Generator: Adobe Illustrator 19.0.0, SVG Export Plug-In . SVG Version: 6.00 Build 0)  -->
<svg version="1.1" id="图层_1" xmlns="http://www.w3.org/2000/svg" xmlns:xlink="http://www.w3.org/1999/xlink" x="0px" y="0px"
	 viewBox="0 0 20 20" style="enable-background:new 0 0 20 20;" xml:space="preserve">
<style type="text/css">
	.st0{fill:#999999;}
</style>
<g id="XMLID_6_">
	<g id="XMLID_7_" transform="scale(0.1953125, 0.1953125)">
		<path id="XMLID_8_" class="st0" d="M101.7,48.3C84.3,26.1,66.1,15.4,47.7,16.5c-6.6,0.4-13.3,2.4-19.7,5.8
			c-5.1,2.7-10.1,6.4-14.8,10.9c-8,7.6-12.5,15-12.7,15.3C0.1,49.1,0,49.7,0,50.3c0,0.6,0.1,1.2,0.4,1.7c0.2,0.3,4.7,7.7,12.7,15.3
			c4.7,4.5,9.7,8.2,14.8,10.9c6.4,3.5,13.1,5.4,19.7,5.8c0.9,0.1,1.7,0.1,2.6,0.1c17.5,0,34.8-10.7,51.5-31.9c0.5-0.6,0.7-1.3,0.7-2
			C102.4,49.6,102.2,48.9,101.7,48.3z M48.1,78C35,77.2,24.3,69.4,17.5,63c-5.4-5.2-9.2-10.3-10.8-12.7c1.7-2.4,5.4-7.6,10.8-12.7
			c6.7-6.4,17.5-14.2,30.5-15c15.8-0.9,31.7,8.4,47.4,27.7C79.8,69.6,63.9,78.9,48.1,78z M51.2,35.7c-8.3,0-15.1,6.8-15.1,15.1
			c0,8.3,6.8,15.1,15.1,15.1s15.1-6.8,15.1-15.1C66.3,42.5,59.5,35.7,51.2,35.7z M51.1,59.8c-4.9,0-8.9-4-8.9-8.9
			c0-4.9,4-8.9,8.9-8.9s8.9,4,8.9,8.9C60.1,55.7,56.1,59.8,51.1,59.8z"/>
	</g>
</g>
</svg>
