<?xml version="1.0" encoding="utf-8"?>
<!-- Generator: Adobe Illustrator 19.0.0, SVG Export Plug-In . SVG Version: 6.00 Build 0)  -->
<svg version="1.1" id="图层_1" xmlns="http://www.w3.org/2000/svg" xmlns:xlink="http://www.w3.org/1999/xlink" x="0px" y="0px"
	 viewBox="-14 16 20 20" style="enable-background:new -14 16 20 20;" xml:space="preserve">
<style type="text/css">
	.st0{fill:#666666;}
</style>
<path class="st0" d="M-3.6,33.2c-0.1,0.1-0.2,0.2-0.4,0.2s-0.3-0.1-0.4-0.2c-0.3-0.3-6.3-7.3-6.3-10.8c0-3.6,3-6.4,6.7-6.4
	c3.7,0,6.7,2.9,6.7,6.4C2.7,25.9-3.4,32.9-3.6,33.2L-3.6,33.2z M-4,16.9c-3.2,0-5.7,2.5-5.7,5.5c0,2.7,4.4,8.2,5.7,9.8
	c1.3-1.6,5.7-7.1,5.7-9.8C1.7,19.4-0.8,16.9-4,16.9z M-3.9,24.6c-1.5,0-2.8-1.2-2.8-2.7s1.2-2.7,2.8-2.7c1.5,0,2.8,1.2,2.8,2.7
	S-2.4,24.6-3.9,24.6z M-3.9,20.2c-1,0-1.8,0.8-1.8,1.8s0.8,1.8,1.8,1.8s1.8-0.8,1.8-1.8S-2.9,20.2-3.9,20.2z M-7.1,31.1
	c0.3,0,0.5,0.1,0.5,0.4c0,0.2-0.1,0.5-0.4,0.5c-1.9,0.4-2.8,1-2.8,1.4c0,0.7,2.2,1.7,5.7,1.7s5.7-1,5.7-1.7c0-0.4-1-1.1-2.8-1.4
	c-0.3,0-0.4-0.3-0.4-0.5c0.1-0.2,0.3-0.4,0.6-0.4c2.2,0.4,3.5,1.3,3.5,2.3C2.7,35.1-0.7,36-4,36s-6.7-0.9-6.7-2.6
	C-10.7,32.4-9.4,31.5-7.1,31.1L-7.1,31.1z"/>
</svg>
