<?xml version="1.0" encoding="utf-8"?>
<!-- Generator: Adobe Illustrator 19.0.0, SVG Export Plug-In . SVG Version: 6.00 Build 0)  -->
<svg version="1.1" id="图层_1" xmlns="http://www.w3.org/2000/svg" xmlns:xlink="http://www.w3.org/1999/xlink" x="0px" y="0px"
	 viewBox="0 0 20 20" style="enable-background:new 0 0 20 20;" xml:space="preserve">
<style type="text/css">
	.st0{fill-rule:evenodd;clip-rule:evenodd;fill:#272536;}
</style>
<g id="XMLID_8_">
	<path id="XMLID_21_" class="st0" d="M19.2,18.8h-4c-0.4,0-0.8-0.4-0.8-0.8v-4c0-0.4,0.4-0.8,0.8-0.8h1.6V10h-6.4v3.2H12
		c0.4,0,0.8,0.4,0.8,0.8v4c0,0.4-0.4,0.8-0.8,0.8H8c-0.4,0-0.8-0.4-0.8-0.8v-4c0-0.4,0.4-0.8,0.8-0.8h1.6V10H3.2v3.2h1.6
		c0.4,0,0.8,0.4,0.8,0.8v4c0,0.4-0.4,0.8-0.8,0.8h-4C0.4,18.8,0,18.4,0,18v-4c0-0.4,0.4-0.8,0.8-0.8h1.6V10c0-0.4,0.4-0.8,0.8-0.8
		h6.4V6.8H8C7.6,6.8,7.2,6.4,7.2,6V2c0-0.4,0.4-0.8,0.8-0.8h4c0.4,0,0.8,0.4,0.8,0.8v4c0,0.4-0.4,0.8-0.8,0.8h-1.6v2.4h6.4
		c0.4,0,0.8,0.4,0.8,0.8v3.2h1.6c0.4,0,0.8,0.4,0.8,0.8v4C20,18.4,19.6,18.8,19.2,18.8L19.2,18.8z M0.8,14v4h4v-4H0.8L0.8,14z M12,6
		V2H8v4L12,6L12,6L12,6z M8,14v4h4v-4H8L8,14z M19.2,14h-4v4h4V14L19.2,14z"/>
</g>
</svg>
