<svg id="图层_1" xmlns="http://www.w3.org/2000/svg" viewBox="-2.1 14 32 24"><style>.st0{fill:#fff}</style><path class="st0" d="M517.1 751.9h295.1V803H517.1v-51.1zm89.9 375.3l-2.6-2.6h-580c-23.1 0-41.1-17.9-41.1-40.9V547.6c0-23 18-43.4 41.1-43.4h826.4c23.1 0 41.1 17.9 41.1 40.9v321.7l2.6 2.6c12.8 7.7 25.7 17.9 35.9 30.6l10.3 12.8v-378c0-43.4-35.9-79.2-79.6-79.2H11.6c-43.6 0-79.6 35.7-79.6 79.2v561.8c0 43.4 35.9 79.2 79.6 79.2h628.8l-7.7-10.2c-10.3-12.8-18-25.6-25.7-38.4zm-89.9-263h87.3v51.1h-87.3v-51.1zm0-222.1h295.1v51.1H517.1v-51.1zm269.5 229.8c-94.9 0-169.4 74-169.4 168.5 0 91.9 77 168.5 169.4 168.5 95 0 169.4-74.1 169.4-168.5s-77-168.5-169.4-168.5zm-2.5 270.6c-7.7 7.7-23.1 7.7-33.4 0l-71.9-71.5c-7.7-7.7-7.7-23 0-30.6 7.7-7.7 23.1-7.7 33.4 0l56.5 56.2L879 989.3c7.7-7.7 23.1-7.7 33.4 0 7.7 7.7 7.7 23 0 30.6l-128.3 122.6zM258.9 901.7c-71.3 0-129.4-58.6-129.4-130.6s58-130.6 129.4-130.6 129.4 58.6 129.4 130.6c-.1 72.1-58.1 130.6-129.4 130.6zm0-218.1c-47.5 0-86.2 39.3-86.2 87.6s38.7 87.6 86.2 87.6 86.2-39.3 86.2-87.6-38.7-87.6-86.2-87.6zm172.5 279.8c-7.3 0-14.4-3.7-18.5-10.4l-70.7-116.5c-6.1-10.2-2.9-23.4 7.3-29.5 10.2-6.2 23.5-2.9 29.6 7.3l70.7 116.5c6.1 10.2 2.9 23.4-7.3 29.5-3.5 2.2-7.3 3.1-11.1 3.1zm0 0c-1.8 0-3.6-.2-5.4-.7l-70.7-18c-11.5-2.9-18.5-14.7-15.6-26.2 3-11.5 14.7-18.5 26.3-15.5l70.7 18c11.5 2.9 18.5 14.7 15.6 26.1-2.5 9.9-11.3 16.3-20.9 16.3zm-89.5 42c-2.1 0-4.3-.3-6.4-1-11.4-3.5-17.7-15.6-14.2-26.9l18.8-59.9c3.6-11.3 15.6-17.5 27-14.1 11.4 3.5 17.7 15.6 14.2 26.9l-18.8 59.9c-2.8 9.2-11.4 15.1-20.6 15.1zm.1 0c-7.5 0-14.8-3.9-18.8-10.8l-57.6-100.3c-5.9-10.3-2.3-23.4 8.1-29.3 10.3-5.9 23.5-2.3 29.4 8l57.6 100.3c5.9 10.3 2.3 23.4-8 29.3-3.4 1.9-7.1 2.8-10.7 2.8zm-255.7-42c-3.8 0-7.6-1-11.1-3.1-10.2-6.1-13.5-19.3-7.3-29.5l70.5-116.5c6.2-10.2 19.4-13.4 29.6-7.3 10.2 6.1 13.5 19.3 7.3 29.5L104.6 953c-3.9 6.8-11 10.4-18.3 10.4zm0 0c-9.6 0-18.4-6.4-20.9-16.1-3-11.5 4-23.2 15.6-26.1l70.7-18c11.6-2.9 23.3 4 26.3 15.5s-4 23.2-15.6 26.2l-70.7 18c-1.8.4-3.7.5-5.4.5zm89.4 42c-9.2 0-17.7-5.9-20.6-15.1l-18.8-59.9c-3.6-11.3 2.8-23.4 14.2-26.9 11.4-3.4 23.5 2.8 27 14.1l18.8 59.9c3.6 11.3-2.8 23.4-14.2 26.9-2.1.7-4.2 1-6.4 1zm0 0c-3.6 0-7.3-.9-10.7-2.8-10.4-5.9-13.9-19-8.1-29.3L214.4 873c5.9-10.3 19.1-13.9 29.4-8 10.4 5.9 13.9 19 8.1 29.3l-57.5 100.3c-3.9 6.9-11.2 10.8-18.7 10.8z" transform="scale(.03125)"/></svg>