<svg id="图层_1" xmlns="http://www.w3.org/2000/svg" viewBox="225.4 13 32 24"><style>.st0{fill:#fff}</style><path class="st0" d="M1247.6 115.3h47.2v8.3h-47.2v-8.3zm14.4 60.9l-.4-.4h-92.8c-3.7 0-6.6-2.9-6.6-6.6v-87c0-3.7 2.9-7 6.6-7H1301c3.7 0 6.6 2.9 6.6 6.6V134l.4.4c2.1 1.2 4.1 2.9 5.7 5l1.6 2.1V80.1c0-7-5.7-12.8-12.7-12.8h-135.9c-7 0-12.7 5.8-12.7 12.8v91.1c0 7 5.7 12.8 12.7 12.8h100.6l-1.2-1.7c-1.6-2-2.9-4.1-4.1-6.1zm-14.4-42.7h14v8.3h-14v-8.3zm0-36h47.2v8.3h-47.2v-8.3zm-66.9-3.3c-3.3 0-5.7 2.5-5.7 5.4v54.2c0 2.9 2.5 5.4 5.7 5.4h50.9c3.3 0 5.7-2.5 5.7-5.4V100c0-2.9-2.9-5.4-5.7-5.4h-50.9v-.4zm5.8 57.5c0-1.2.4-4.1 1.6-5.8.4-.4.8-.8.8-1.2 1.2-1.7 2.5-3.7 8.2-4.6 2.1-.4 3.7-1.2 4.9-2.5 1.6-2.5 1.2-5.8 1.2-7v-2.9s-3.7-5-3.7-8.7v-3.7s0-5.4 2.5-8.3c.8-.8 2.1-1.7 3.7-1.7l5.7 2.1h.4c5.7 0 6.2 7.5 6.2 7.9v4.6s0 5.8-3.7 7.5l-.4.4v2.5c-.4 1.2-1.6 5 0 7.5.8 1.7 2.5 2.5 4.5 2.5 6.2.8 8.2 3.3 9.4 4.6l.8.8s.8.8 1.6 5.8h-43.9v.2h.2zm104.2-16.9c-15.2 0-27.1 12-27.1 27.3 0 14.9 12.3 27.3 27.1 27.3 15.2 0 27.1-12 27.1-27.3s-12.3-27.3-27.1-27.3zm-.4 43.9c-1.2 1.2-3.7 1.2-5.3 0l-11.5-11.6c-1.2-1.2-1.2-3.7 0-5 1.2-1.2 3.7-1.2 5.3 0l9 9.1 17.7-17.4c1.2-1.2 3.7-1.2 5.3 0 1.2 1.2 1.2 3.7 0 5l-20.5 19.9z" transform="scale(.19531)"/></svg>