<?xml version="1.0" encoding="utf-8"?>
<!-- Generator: Adobe Illustrator 17.0.0, SVG Export Plug-In . SVG Version: 6.00 Build 0)  -->
<!DOCTYPE svg PUBLIC "-//W3C//DTD SVG 1.1//EN" "http://www.w3.org/Graphics/SVG/1.1/DTD/svg11.dtd">
<svg version="1.1" id="图层_1" xmlns="http://www.w3.org/2000/svg" xmlns:xlink="http://www.w3.org/1999/xlink" x="0px" y="0px"
	 width="16px" height="16px" viewBox="0 0 16 16" enable-background="new 0 0 16 16" xml:space="preserve">
<g>
	<path fill="#223343" d="M13.46,12.504c-0.108-0.115-0.251-0.172-0.517-0.172h-0.474c-0.244,0-0.374,0.057-0.747,0.366v-1.15
		c-0.18-0.1-0.373-0.173-0.575-0.216H11.14v4.002h0.575v-2.328l0.115-0.057c0.139-0.068,0.291-0.104,0.445-0.108h0.395
		c0.187,0,0.244,0.022,0.309,0.079c0.065,0.057,0.079,0.144,0.079,0.295v2.112h0.575v-2.155c0-0.417-0.057-0.56-0.18-0.683
		L13.46,12.504z M9.997,14.753c-0.05,0.05-0.122,0.072-0.309,0.072H9.257c-0.18,0-0.33-0.05-0.553-0.151l-0.036-0.022v-1.645
		c0.223-0.115,0.381-0.158,0.56-0.158h0.453c0.187,0,0.259,0.022,0.309,0.072c0.05,0.05,0.108,0.244,0.108,0.912
		c0,0.668-0.022,0.833-0.108,0.92 M9.818,12.332H9.415c-0.251,0-0.374,0.057-0.747,0.366v-0.359H8.093v3.664h0.575v-1.027
		c0.381,0.309,0.503,0.366,0.747,0.366h0.402c0.323,0,0.489-0.057,0.611-0.18c0.122-0.122,0.237-0.395,0.237-1.329
		c0-0.934-0.079-1.157-0.237-1.322c-0.158-0.165-0.287-0.187-0.611-0.187L9.818,12.332z M5.794,13.568h1.372
		c0-0.503-0.036-0.618-0.086-0.668c-0.05-0.05-0.086-0.057-0.259-0.057h-0.69c-0.172,0-0.208,0.014-0.259,0.057
		C5.823,12.943,5.802,13.05,5.794,13.568 M5.794,14.028c0.007,0.589,0.043,0.711,0.086,0.754c0.043,0.043,0.086,0.057,0.259,0.057
		h0.776c0.129,0,0.172-0.022,0.208-0.057c0.036-0.036,0.05-0.108,0.057-0.374h0.56c-0.007,0.467-0.057,0.632-0.201,0.79
		c-0.144,0.158-0.23,0.144-0.496,0.144H6.067c-0.295,0-0.467-0.05-0.596-0.172c-0.129-0.122-0.244-0.431-0.244-1.329
		c0-0.898,0.057-1.135,0.244-1.329s0.302-0.172,0.596-0.172h0.819c0.302,0,0.489,0.057,0.596,0.165
		c0.108,0.108,0.244,0.424,0.244,1.3v0.151c0,0.043-0.014,0.065-0.057,0.065L5.794,14.028z M4.817,14.243
		c0,0.625-0.057,0.797-0.201,0.948c-0.144,0.151-0.23,0.144-0.496,0.144H3.215c-0.302,0-0.474-0.05-0.596-0.172
		c-0.122-0.122-0.251-0.431-0.251-1.329c0-0.898,0.057-1.135,0.251-1.329s0.302-0.172,0.596-0.172H4.12
		c0.273,0,0.395,0.057,0.489,0.151c0.093,0.093,0.201,0.345,0.201,0.905H4.242C4.228,13,4.214,12.928,4.178,12.9
		s-0.079-0.05-0.201-0.05H3.28c-0.172,0-0.216,0.022-0.259,0.057c-0.043,0.036-0.072,0.158-0.072,0.927
		c0,0.769,0.029,0.869,0.072,0.927c0.043,0.057,0.086,0.057,0.259,0.057h0.697c0.122,0,0.18-0.007,0.216-0.05
		c0.036-0.043,0.057-0.151,0.057-0.524L4.817,14.243z"/>
	<path fill="#ED3541" d="M7.986,0.003C5.208-0.005,2.95,2.241,2.942,5.018c0,0.007,0,0.014,0,0.022c0,0.764,0.174,1.519,0.51,2.206
		c0.33,0.653,0.79,1.233,1.351,1.703C5.162,8.747,5.37,8.531,5.414,8.294c0.043-0.237-0.057-0.467-0.309-0.762
		c-1.381-1.591-1.21-4.001,0.381-5.382c0.692-0.6,1.577-0.932,2.493-0.933h0.036c2.103-0.001,3.809,1.703,3.81,3.806
		c0,0.92-0.332,1.808-0.936,2.502c-0.251,0.295-0.352,0.546-0.309,0.769s0.251,0.453,0.611,0.639
		c0.562-0.47,1.021-1.049,1.351-1.703c0.164-0.337,0.289-0.691,0.374-1.056c0.087-0.377,0.13-0.763,0.129-1.15
		c-0.008-2.773-2.256-5.018-5.029-5.022H7.978 M7.978,2.044c-0.142,0.001-0.283,0.01-0.424,0.029
		C5.916,2.302,4.773,3.816,5.002,5.454c0.07,0.501,0.266,0.976,0.569,1.381c0.068,0.087,0.139,0.171,0.216,0.251l0.079,0.086
		l0.014,0.014c0.266,0.309,0.402,0.647,0.402,0.991C6.282,8.703,5.995,9.185,5.536,9.437c0.268,0.148,0.55,0.27,0.841,0.366
		l0.295,0.086C6.847,9.766,7,9.613,7.123,9.437C7.389,9.072,7.528,8.63,7.519,8.179c-0.01-0.343-0.08-0.681-0.208-0.999
		C7.181,6.865,6.996,6.576,6.764,6.326l-0.05-0.057C6.62,6.166,6.536,6.055,6.463,5.938C6.373,5.788,6.308,5.626,6.269,5.456
		c-0.179-0.743,0.14-1.517,0.79-1.918c0.207-0.131,0.44-0.216,0.683-0.251l0.251-0.014h0.036L8.28,3.287
		c0.243,0.035,0.475,0.121,0.683,0.251C9.372,3.792,9.66,4.202,9.76,4.673C9.814,4.93,9.809,5.195,9.746,5.449
		c-0.04,0.169-0.105,0.332-0.194,0.481C9.478,6.048,9.394,6.159,9.3,6.261L9.25,6.319c-0.232,0.25-0.417,0.539-0.546,0.855
		C8.573,7.491,8.503,7.829,8.496,8.172C8.486,8.623,8.625,9.065,8.891,9.429c0.123,0.176,0.276,0.329,0.453,0.453l0.295-0.086
		C9.929,9.7,10.21,9.577,10.479,9.429c-0.462-0.25-0.752-0.732-0.754-1.257c0-0.345,0.129-0.668,0.402-0.991
		c0-0.014,0.014-0.014,0.014-0.014L10.22,7.08c0.076-0.08,0.148-0.164,0.216-0.251c0.992-1.324,0.723-3.202-0.602-4.194
		c-0.521-0.39-1.154-0.6-1.805-0.598H7.993 M8.014,4.091c-0.548,0-0.991,0.444-0.991,0.991s0.444,0.991,0.991,0.991
		c0.548,0,0.991-0.444,0.991-0.991C9.002,4.531,8.552,4.087,8,4.091c0,0,0,0,0,0"/>
</g>
</svg>
