<?xml version="1.0" encoding="utf-8"?>
<!-- Generator: Adobe Illustrator 22.0.0, SVG Export Plug-In . SVG Version: 6.00 Build 0)  -->
<svg version="1.1" id="图层_1" xmlns="http://www.w3.org/2000/svg" xmlns:xlink="http://www.w3.org/1999/xlink" x="0px" y="0px"
	 viewBox="0 0 1464 1092" style="enable-background:new 0 0 1464 1092;" xml:space="preserve">
<style type="text/css">
	.st0{fill:#FFFFFF;}
	.st1{fill:#999999;}
	.st2{fill:#9382E3;}
	.st3{fill:#675B9E;}
	.st4{fill:#202121;}
	.st5{fill:#323333;}
	.st6{fill:#222222;}
	.st7{fill:#333333;}
</style>
<g>
	<g>
		<path d="M632.7,567.3c0,0-0.4,5.2-0.8,7.8c-4.1,45.4-8.5,63.5-14.9,70.1c-4.3,4.3-8.9,6-15.1,6.4c-5.6,0.6-15.3,0.6-25.4,0
			c-0.4-4.7-2.3-11.8-5.2-16.3c9.5,1,18.4,1,22.1,1c3.5,0,5.4-0.4,7.4-2.5c4.1-3.7,7.8-17.7,10.9-49.9h-21.7
			c-10.9,28.5-28.5,53-47.6,69.1c-3.1-3.3-10.9-9.3-15.1-12c18.2-13.2,33.2-33.6,42.9-57.1h-23.3c-15.3,26.2-38.4,48.7-61.7,63.5
			c-3.1-3.7-10.1-10.5-14.4-13.8c21.2-11.6,41-29.1,54.5-49.7h-23.9c-10.5,10.3-21.9,19.2-32.6,26.2c-3.1-3.7-10.3-10.5-14.6-13.6
			c19.4-10.7,38.4-26.6,51.2-44.8h-20.6v-80h132.8v80h-89.7c-3.5,5.4-7.2,10.3-11.1,15.5H632.7z M503.6,504.1h94.5v-16.7h-94.5
			V504.1z M503.6,536.3h94.5V519h-94.5V536.3z"/>
		<path d="M703.7,573v57.1c0,9.5-2.1,14.6-7.4,17.5c-5.8,2.9-14.2,3.5-26.6,3.5c-0.6-4.7-3.1-12.6-5.6-17.5c8,0.2,16.1,0.2,18.4,0.2
			c2.7-0.2,3.5-0.8,3.5-3.7v-51.6l-21.7,6.8l-5-18.6c7.4-1.9,16.5-4.3,26.6-7.2v-39.4h-23.7v-17.7h23.7v-39.8h17.7v39.8h20.6v17.7
			h-20.6v34.2c6.4-2.1,13-3.9,19.4-6L726,566L703.7,573z M794.2,578.4v14.9h46v15.3h-46v23.9c5.8,0.8,12,1,18.6,1
			c5.6,0,31.6,0,39.2-0.2c-2.3,4.1-4.7,12.2-5.6,16.7h-34.9c-29.9,0-52-5.6-67-27.2c-5.2,12.4-12,22.7-20.4,30.9
			c-2.9-3.1-10.1-8.9-14-11.3c15.5-13.6,23.5-35.3,27-61.1l17.7,2.3c-1,7-2.3,13.6-3.9,19.8c6,12.8,14.6,20.4,25.4,24.8v-49.7h-40.2
			v-14.9h40.2v-14.6h-52v-15.1h52v-12.6h-40.2v-14.9h40.2v-11.6h-48.9v-15.5h48.9v-16.9h17.9v16.9h52.4v15.5h-52.4v11.6H838v27.4h14
			v15.1h-14v29.5H794.2z M794.2,533.9H820v-12.6h-25.8V533.9z M794.2,563.6H820v-14.6h-25.8V563.6z"/>
		<path class="st2" d="M940.1,513.4c-6.4,10.7-14,21.5-22.5,31.8v107.7h-19.2v-86.4c-6.8,7-13.8,13.2-20.6,18.6
			c-2.7-4.1-9.7-12.4-13.6-16.1c21.2-15.1,43.7-39,57.5-62.3L940.1,513.4z M932.4,469.9c-14.2,18.6-35.7,39.2-54.7,52.4
			c-2.5-4.3-7.8-11.8-11.3-15.3c17.3-11.3,37.1-29.7,47.2-44.6L932.4,469.9z M1055.2,549.1h-29.3v79.6c0,10.7-2.5,15.9-10.3,18.8
			c-7.8,2.7-20.2,2.9-38.4,2.9c-1-5.2-3.9-13-6.6-18.4c13,0.4,26.8,0.4,30.5,0.4c3.9-0.2,5.2-1,5.2-4.1v-79.2h-65V531h113.9V549.1z
			 M1050.2,492.8H950v-18.2h100.2V492.8z"/>
		<path class="st2" d="M1164.3,554.7c-12.8,23.7-28.5,46.4-43.7,65l93.9-6.8c-7.6-11.8-15.9-23.3-23.1-33.4l17.5-9.3
			c17.1,22.9,37.3,52.4,47.4,71.4l-18.6,11.1c-2.9-6.2-7.2-13.6-12.2-21.7c-108.3,9.1-121.3,9.7-130.8,13.4
			c-1.2-4.3-4.5-15.3-7.4-21.5c5.2-1.2,9.7-6.4,16.1-14.4c5.8-6.6,21.5-29.1,34-53.8h-60.2v-19.6h183v19.6H1164.3z M1239,497.3h-139
			v-19.6h139V497.3z"/>
	</g>
	<g>
		<path d="M541,795.8h-66.7V679.9H541V700h-42.2v25.4h39.2v20.1h-39.2v29.9H541V795.8z"/>
		<path d="M619.5,795.8l-4.7-12h-0.6c-4.1,5.1-8.3,8.7-12.6,10.7c-4.3,2-9.9,3-16.8,3c-8.5,0-15.2-2.4-20.1-7.3
			c-4.9-4.9-7.3-11.8-7.3-20.8c0-9.4,3.3-16.3,9.9-20.8s16.5-6.9,29.8-7.4l15.4-0.5v-3.9c0-9-4.6-13.5-13.8-13.5
			c-7.1,0-15.4,2.1-25,6.4l-8-16.3c10.2-5.3,21.5-8,33.9-8c11.9,0,21,2.6,27.3,7.8c6.3,5.2,9.5,13.1,9.5,23.6v59.1H619.5z
			 M612.4,754.7l-9.4,0.3c-7,0.2-12.3,1.5-15.7,3.8c-3.4,2.3-5.2,5.9-5.2,10.6c0,6.8,3.9,10.2,11.7,10.2c5.6,0,10.1-1.6,13.4-4.8
			c3.4-3.2,5-7.5,5-12.8V754.7z"/>
		<path d="M723.1,769.5c0,9.1-3.2,16-9.5,20.8c-6.3,4.8-15.8,7.1-28.3,7.1c-6.4,0-11.9-0.4-16.5-1.3c-4.5-0.9-8.8-2.2-12.8-3.8v-20
			c4.5,2.1,9.6,3.9,15.2,5.3c5.6,1.4,10.6,2.1,14.9,2.1c8.8,0,13.2-2.5,13.2-7.6c0-1.9-0.6-3.4-1.7-4.6c-1.2-1.2-3.2-2.5-6-4
			c-2.9-1.5-6.7-3.3-11.4-5.3c-6.8-2.9-11.8-5.5-15-7.9c-3.2-2.4-5.5-5.2-7-8.4c-1.5-3.1-2.2-7-2.2-11.6c0-7.9,3.1-14,9.2-18.3
			c6.1-4.3,14.8-6.5,26-6.5c10.7,0,21.1,2.3,31.2,7l-7.3,17.4c-4.4-1.9-8.6-3.5-12.4-4.7c-3.9-1.2-7.8-1.8-11.8-1.8
			c-7.1,0-10.7,1.9-10.7,5.8c0,2.2,1.1,4,3.4,5.6c2.3,1.6,7.3,3.9,15.1,7.1c6.9,2.8,12,5.4,15.2,7.8c3.2,2.4,5.6,5.2,7.1,8.4
			C722.4,761.3,723.1,765.1,723.1,769.5z"/>
		<path d="M729.3,707.2h26.5l16.7,49.9c1.4,4.3,2.4,9.5,2.9,15.4h0.5c0.6-5.4,1.7-10.6,3.4-15.4l16.4-49.9h25.9l-37.5,100
			c-3.4,9.2-8.3,16.2-14.7,20.8c-6.4,4.6-13.8,6.9-22.3,6.9c-4.2,0-8.3-0.4-12.3-1.3v-19.2c2.9,0.7,6.1,1,9.5,1
			c4.3,0,8-1.3,11.2-3.9c3.2-2.6,5.7-6.6,7.5-11.9l1.4-4.4L729.3,707.2z"/>
		<path d="M904.7,763.6c0,10.5-3.8,18.7-11.3,24.7c-7.5,6-18,9-31.4,9c-12.4,0-23.3-2.3-32.8-7v-22.8c7.8,3.5,14.4,5.9,19.9,7.4
			c5.4,1.4,10.4,2.1,14.9,2.1c5.4,0,9.5-1,12.4-3.1c2.9-2.1,4.3-5.1,4.3-9.2c0-2.3-0.6-4.3-1.9-6.1c-1.3-1.8-3.1-3.5-5.6-5.1
			c-2.5-1.6-7.5-4.3-15-7.8c-7.1-3.3-12.4-6.5-15.9-9.6c-3.5-3.1-6.4-6.6-8.5-10.7c-2.1-4.1-3.2-8.8-3.2-14.3
			c0-10.3,3.5-18.3,10.4-24.2c6.9-5.9,16.6-8.8,28.8-8.8c6,0,11.8,0.7,17.2,2.1c5.5,1.4,11.2,3.4,17.2,6l-7.9,19.1
			c-6.2-2.5-11.3-4.3-15.3-5.3c-4-1-8-1.5-11.9-1.5c-4.7,0-8.2,1.1-10.7,3.2c-2.5,2.2-3.7,5-3.7,8.5c0,2.2,0.5,4.1,1.5,5.7
			c1,1.6,2.6,3.2,4.8,4.7c2.2,1.5,7.4,4.2,15.6,8.1c10.8,5.2,18.3,10.4,22.3,15.6C902.7,749.7,904.7,756,904.7,763.6z"/>
		<path d="M961.1,778.1c4.2,0,9.3-0.9,15.2-2.8v18c-6,2.7-13.4,4-22.2,4c-9.7,0-16.7-2.4-21.1-7.3c-4.4-4.9-6.6-12.2-6.6-22v-42.7
			h-11.6v-10.2l13.3-8.1l7-18.7h15.5v18.9h24.8v18.2h-24.8V768c0,3.4,1,6,2.9,7.6C955.4,777.3,957.9,778.1,961.1,778.1z"/>
		<path d="M1050.5,795.8l-4.7-12h-0.6c-4.1,5.1-8.3,8.7-12.6,10.7c-4.3,2-9.9,3-16.8,3c-8.5,0-15.2-2.4-20.1-7.3
			c-4.9-4.9-7.3-11.8-7.3-20.8c0-9.4,3.3-16.3,9.9-20.8s16.5-6.9,29.8-7.4l15.4-0.5v-3.9c0-9-4.6-13.5-13.8-13.5
			c-7.1,0-15.4,2.1-25,6.4l-8-16.3c10.2-5.3,21.5-8,33.9-8c11.9,0,21,2.6,27.3,7.8c6.3,5.2,9.5,13.1,9.5,23.6v59.1H1050.5z
			 M1043.4,754.7l-9.4,0.3c-7,0.2-12.3,1.5-15.7,3.8c-3.4,2.3-5.2,5.9-5.2,10.6c0,6.8,3.9,10.2,11.7,10.2c5.6,0,10.1-1.6,13.4-4.8
			c3.4-3.2,5-7.5,5-12.8V754.7z"/>
		<path d="M1128.3,797.4c-27.6,0-41.4-15.1-41.4-45.4c0-15.1,3.8-26.6,11.3-34.5c7.5-8,18.3-11.9,32.3-11.9c10.3,0,19.4,2,27.6,6
			l-7.1,18.7c-3.8-1.5-7.3-2.8-10.6-3.8c-3.3-1-6.6-1.5-9.8-1.5c-12.6,0-18.9,8.9-18.9,26.8c0,17.3,6.3,26,18.9,26
			c4.6,0,9-0.6,12.9-1.9c4-1.2,7.9-3.2,11.9-5.8v20.7c-3.9,2.5-7.9,4.2-11.9,5.2C1139.4,796.9,1134.4,797.4,1128.3,797.4z"/>
		<path d="M1199,747.6l10.5-13.5l24.8-27h27.3l-35.2,38.4l37.3,50.2h-27.9l-25.5-35.9l-10.4,8.3v27.6h-24.2V672.4h24.2v55l-1.3,20.1
			H1199z"/>
	</g>
</g>
<path class="st3" d="M396.6,319.3l0.1-38.5L260.6,347c0,0-7.5,3.8-1.9,10.6l28.5,11.1c0,0,3.1,2.4,13.1-1.8L396.6,319.3z"/>
<path class="st0" d="M290.3,371c-2.3,0-3.7-0.5-4.4-1L257,358.8l-0.4-0.5c-2.2-2.7-3.1-5.4-2.5-8.1c0.9-4.2,4.8-6.3,5.3-6.5
	l140.1-68l-0.2,44.4l-98,48.3C297,370.1,293.3,371,290.3,371z M288.7,365.5c0.2,0.1,0.7,0.2,1.6,0.2c1.6,0,4.3-0.4,8.8-2.3
	l94.8-46.7l0.1-32.6l-132.3,64.2c-0.6,0.3-2.2,1.5-2.5,2.9c-0.2,0.9,0.2,2,1,3.2L288.7,365.5L288.7,365.5z"/>
<path class="st3" d="M447.9,384.9l0-37.7c0,0,3.4-4.3,10.7-1.5c0,0.3,26.9,10.4,26.9,10.4s13.7,3.7,2.7,9.8
	C487.9,365.5,447.9,384.9,447.9,384.9z"/>
<path class="st0" d="M445.3,389.1l0-42.9l0.6-0.7c0.3-0.4,2.9-3.5,8.1-3.5c1.8,0,3.7,0.4,5.6,1.1l1.7,0.6v0.1
	c4.2,1.7,16.8,6.5,25,9.6c2.1,0.6,8.3,2.6,8.8,7.1c0.5,4.1-4.1,6.7-5.6,7.5l-1.7,1l-0.2-0.2c-5.5,2.5-25.7,12.1-38.5,18.4
	L445.3,389.1z M450.6,348.4l0,32.3c26.6-12.9,34-16.3,36.4-17.2c2.2-1.2,2.7-2.1,2.9-2.3c-0.4-0.7-2.9-2-5-2.6l-0.2-0.1
	c-0.1,0-6.8-2.6-13.4-5.1c-3.9-1.5-7-2.7-9.3-3.6c-1.3-0.5-2.3-0.9-3.1-1.2c-0.4-0.2-0.8-0.3-1.2-0.6c-1.3-0.5-2.5-0.7-3.6-0.7
	C452.3,347.4,451.2,347.9,450.6,348.4z"/>
<g>
	<path class="st6" d="M214.9,540.5l59.6-28.9l-53-20.9c0,0-12.5-6.7-12.5,6.1v34.8c0,0,0,6.7,4.3,9.3"/>
	<path class="st0" d="M211.9,543.2c-5.5-3.3-5.5-11.2-5.5-11.6v-34.8c0-4.6,1.4-7.7,4.2-9.4c4.6-2.8,10.9,0.2,12.1,0.8l58.5,23.1
		l-65,31.5l-1.8-3.7L211.9,543.2z M215,491.6c-0.7,0-1.3,0.1-1.8,0.4c-1.3,0.8-1.6,3.1-1.6,4.8v34.8c0,1.3,0.4,4.7,2.2,6.4
		l54.1-26.2l-47.5-18.8l-0.1-0.1C219.1,492.5,216.9,491.6,215,491.6z"/>
</g>
<g>
	<path class="st6" d="M214.7,666.5l61.4-29.3l-55.3-21.2c0,0-10.7-7-11.8,6.7c-0.2,0.3-0.1,34.7-0.1,34.7S208.9,665.1,214.7,666.5z"
		/>
	<path class="st0" d="M215,669.3l-0.9-0.2c-3.3-0.8-5.7-3.1-6.9-6.8c-0.8-2.5-0.8-4.7-0.8-4.9c-0.1-26.3,0-32.9,0.1-34.8l0,0
		c0.7-9.5,5.8-11,8.8-11c3.1,0,5.9,1.5,6.8,2.1l60.8,23.3L215,669.3z M211.7,623.1c-0.1,2.3-0.1,21.5-0.1,34.2c0,0.1,0,4.9,2.9,6.3
		l54.9-26.2l-49.8-19.1l-0.2-0.2c-0.6-0.4-2.5-1.4-4.1-1.4c-0.8,0-3.1,0-3.6,6.1L211.7,623.1z"/>
</g>
<g>
	<path class="st2" d="M445.9,347.1c0,0-139.8,68-140,67.6c-13.1,6-22,1.1-22,1.1l-137.1-52.5c-10.8-7.9-0.8-14.7-0.8-14.7
		l189.3-91.9c0,0,7.9-4.7,18.2-0.6c0,0,40,15.3,40.3,15.6c7,4-0.5,9.3-0.5,9.3l-135.1,65.7c-6.4,5.7-0.7,9.8-0.7,9.8l23.1,8.9
		c0,0,6.9,3.2,9.6,3c2.7-0.2,7.1-2.1,7.1-2.1l141.6-68.9c0,0,6.4-2.9,8.6-3.2c3.7-0.5,13.1,2.6,13.1,2.6l140.8,53.9
		c0,0,8.9,5.2,1.2,11.3l-187.6,91.8c0,0-11.8,5.3-14,5.5c-2.2,0.2-12.1-3-12.1-3l-39.6-15.1c-7.1-4.1,0.2-8.5,0.2-8.5L491,364.4
		c4.1-4.1-0.9-6.6-0.9-6.6l-33-12.6C457.1,345.1,452.3,343.3,445.9,347.1z"/>
	<path class="st0" d="M401,462.1c-2.7,0-10.4-2.4-12.7-3.1l-0.1-0.1l-39.8-15.2l-0.2-0.1c-3.6-2.1-4.4-4.5-4.4-6.2
		c0-4,4.1-6.5,4.6-6.8l0.2-0.1l140.9-68.3c0.5-0.6,0.6-0.9,0.6-1c-0.1-0.3-0.7-0.8-1-1l-32.8-12.5c0,0,0,0,0,0c0,0-0.8-0.3-2.1-0.3
		c-1.5,0-3.9,0.4-6.7,2.1l-0.2,0.1c-0.3,0.2-35.2,17.1-69.7,33.8c-20.3,9.8-36.4,17.6-48.1,23.3c-16.1,7.7-20.7,9.9-22.3,10.6l0,0
		c-4.7,2.1-9.4,3.2-14,3.2c-5.6,0-9.3-1.6-10.2-2.1l-137.3-52.6l-0.3-0.2c-4.1-3-6.2-6.4-6.1-10c0.1-5.3,4.9-8.7,5.4-9l0.3-0.2
		l189.3-91.9c0.8-0.4,4.9-2.6,10.9-2.6c3.2,0,6.4,0.6,9.5,1.8c32.5,12.4,39,15,40.6,15.8l0,0c3.4,1.9,4.3,4.3,4.3,6
		c0.2,4.2-4.1,7.4-4.6,7.8l-0.2,0.1l-135,65.6c-0.9,0.9-1.9,2.1-1.9,3.3c0,0.9,0.7,1.7,1.1,2l22.9,8.8c2.4,1.1,6.7,2.7,8.3,2.7
		l0.1,0c1.8-0.1,5.1-1.4,6.2-1.8L438,295.2c1.1-0.5,6.9-3.1,9.3-3.4c0.4,0,0.8-0.1,1.2-0.1c4.4,0,12.2,2.5,13.1,2.8l0.1,0l141,54
		l0.2,0.1c0.5,0.3,5.3,3.2,5.6,7.9c0.1,1.9-0.5,4.8-4.1,7.7l-0.2,0.2l-187.9,91.9c-3.7,1.7-12.5,5.5-14.8,5.7
		C401.3,462.1,401.2,462.1,401,462.1z M389.9,453.9c4.3,1.4,9.7,2.8,11,2.8c1.4-0.2,7.8-2.9,13.1-5.3l187.3-91.6c1-0.8,2-1.9,1.9-3
		c-0.1-1.4-1.9-3-2.9-3.6l-140.5-53.8c-2.2-0.7-8.4-2.5-11.4-2.5c-0.3,0-0.4,0-0.5,0c-1.1,0.1-4.9,1.6-7.7,3l-141.7,68.9l-0.1,0
		c-0.5,0.2-4.9,2.1-8,2.3c-0.1,0-0.3,0-0.4,0c-3.2,0-9.1-2.6-10.4-3.2l-23.4-9l-0.3-0.2c-0.3-0.2-3.2-2.4-3.4-6.2
		c-0.1-2.7,1.2-5.3,3.9-7.8l0.3-0.2L392,278.8c1-0.8,2.3-2.2,2.2-3.1c0-0.5-0.6-1.1-1.6-1.6c-1.9-0.9-24.9-9.7-40-15.4
		c-2.5-1-5.1-1.5-7.6-1.5c-4.9,0-8.3,1.9-8.3,1.9l-0.2,0.1L147.4,351c-0.9,0.7-2.9,2.6-3,4.7c0,2.1,1.9,4,3.7,5.4L285,413.5l0.1,0.1
		c0,0,3,1.5,7.8,1.5c3.8,0,7.8-0.9,11.8-2.7l1.9-0.9l0,0c13.7-6.4,102.5-49.5,137.9-66.7c3.8-2.3,7.2-2.7,9.3-2.7
		c2.3,0,3.7,0.5,4,0.6l33.1,12.6l0.1,0.1c0.3,0.2,3.4,1.8,3.9,5c0.2,1.4,0,3.6-2.3,5.9l-0.3,0.3l-0.4,0.2l-141.2,68.4
		c-0.9,0.6-2,1.7-2,2.2c0,0.2,0.4,0.8,1.6,1.6L389.9,453.9z"/>
</g>
<path class="st7" d="M361.1,732.6l-0.3,53.9c0,0,0.2,5.3-2.1,6.4c-3.8,1.8-7.9-0.3-7.9-0.3l-212.3-82c0,0-6.8-2.4-9.4-6.1
	c-2.1-3-1.6-12.2-1.6-12.2l0.2-293.8c0,0-0.2-6,2.2-9.2c2.8-3.7,10-1.6,10-1.6l216.7,83c0,0,2.5,0.8,3.7,2.7
	c1.4,2.3,0.9,5.3,0.9,5.3l0.2,56.3c0,0-0.6,4.1-3.2,5.3c-2.9,1.4-7.6-0.3-7.6-0.3l-131.3-50.4c0,0-11-4.9-10.1,7
	c-0.1,0.1,0,34.8,0,34.8c-0.6,6.1,4.3,9.3,4.3,9.3L355,595.3c0,0,6.1,0.8,6,8.2l0.2,56c0,0,0.6,4.9-2.7,6.1
	c-4.3,1.6-8.6-0.9-8.6-0.9L216,614.1c0,0-7.2-1.4-7.2,8.6c0,0-0.1,34.5-0.1,34.7c-1.1,8.5,8.2,11.5,8.2,11.5l136.5,52.5
	C353.5,721.2,360.8,724,361.1,732.6z"/>
<path class="st0" d="M355.2,796.2c-2.8,0-5-1-5.6-1.3l-212.1-81.9c-1-0.3-7.7-2.9-10.6-7.1c-2.4-3.5-2.2-12-2.1-13.8l0.2-293.7
	c0-0.9-0.1-7,2.7-10.8c1.1-1.5,3.4-3.3,7.7-3.3c2.6,0,4.9,0.6,5.1,0.7l0.2,0.1l216.6,83c0.6,0.2,3.5,1.3,5,3.9
	c1.6,2.7,1.4,5.9,1.3,6.9l0.2,56.4l0,0.2c-0.1,0.6-0.9,5.6-4.7,7.3c-1.1,0.5-2.4,0.8-4,0.8c-2.8,0-5.4-0.9-5.7-1l-0.1,0l-131.4-50.4
	l-0.1,0c0,0-1.8-0.8-3.5-0.8c-1.4,0-1.9,0.5-2,0.7c-0.7,0.7-1,2.3-0.8,4.5l0.1,1.2l-0.1,0.1c0,4.3,0,21.8,0,33.7l0,0.1l0,0.1
	c-0.4,3.8,2.2,6.1,2.9,6.7l141.1,54.1c3,0.5,8.1,3.4,7.9,10.8l0.2,55.9c0.3,2.6-0.4,7.2-4.5,8.7c-1.2,0.4-2.5,0.7-3.9,0.7
	c-3.2,0-5.9-1.2-6.7-1.7l-133.3-50.5c-0.1,0-0.1,0-0.2,0c-2.4,0-3.7,2-3.7,6c-0.1,34.7-0.1,34.8-0.1,35c-0.8,6.1,6.1,8.5,6.4,8.6
	l0.1,0l136.5,52.5c0.4,0.1,8.9,3.6,9.3,13.8l0,0.1l-0.3,53.8c0.1,1.7-0.1,7.1-3.6,8.8C358.4,795.9,356.9,796.2,355.2,796.2z
	 M135.5,389.8c-1.2,0-2.8,0.2-3.5,1.2c-1.5,2-1.7,6.2-1.6,7.5l0,0.1l-0.2,293.8l0,0.1c-0.2,4,0.2,9.2,1.1,10.6
	c1.7,2.5,6.5,4.6,8.1,5.1l0.1,0l212.4,82l0.1,0.1c0,0,1.5,0.8,3.3,0.8c0.8,0,1.5-0.2,2.2-0.4c0.4-0.5,0.8-2.4,0.7-4l0-0.1l0-0.1
	l0.3-53.8c-0.3-6.6-5.7-8.9-5.9-9l-136.4-52.4c-4-1.3-11-5.9-10-14.1c0-2,0.1-25.4,0.1-34.5c0-8.3,4.6-11.3,9-11.3
	c0.7,0,1.2,0.1,1.4,0.1l0.2,0l0.2,0.1l134,50.8l0.2,0.1c0,0,1.9,1.1,4.2,1.1c0.8,0,1.5-0.1,2.1-0.4c1.1-0.4,1.1-2.7,1-3.3l0-0.3
	l-0.2-56.1l0,0c0.1-5-3.5-5.5-3.6-5.6l-0.3,0l-0.3-0.1l-142-54.5l-0.2-0.2c-0.3-0.2-6.1-4.1-5.5-11.6c0-1.1,0-9.2,0-17.2
	c0-4.3,0-8.7,0-12c0-2.7,0-4.3,0.1-5.3l0,0c-0.3-3.8,0.5-6.6,2.2-8.5c1.4-1.5,3.5-2.4,5.9-2.4c2.7,0,5.1,1,5.6,1.2l131.2,50.4
	c0.2,0.1,2.1,0.7,3.9,0.7c0.9,0,1.4-0.2,1.7-0.3c0.9-0.4,1.5-2.2,1.7-3.2l-0.2-56.3l0-0.2c0.1-0.6,0.1-2.4-0.6-3.6
	c-0.5-0.8-1.8-1.5-2.2-1.6l-0.1,0L139,390.2C138.6,390.1,137.1,389.8,135.5,389.8z"/>
</svg>
