<?xml version="1.0" encoding="utf-8"?>
<!-- Generator: Adobe Illustrator 17.0.0, SVG Export Plug-In . SVG Version: 6.00 Build 0)  -->
<!DOCTYPE svg PUBLIC "-//W3C//DTD SVG 1.1//EN" "http://www.w3.org/Graphics/SVG/1.1/DTD/svg11.dtd">
<svg version="1.1" id="图层_1" xmlns="http://www.w3.org/2000/svg" xmlns:xlink="http://www.w3.org/1999/xlink" x="0px" y="0px"
	 width="16px" height="16px" viewBox="0 0 16 16" enable-background="new 0 0 16 16" xml:space="preserve">
<g>
	<g>
		
			<linearGradient id="SVGID_1_" gradientUnits="userSpaceOnUse" x1="-6859.7905" y1="6466.7612" x2="-6542.1538" y2="6859.0098" gradientTransform="matrix(0.0091 0 0 0.0091 -291.7061 130.211)">
			<stop  offset="0.1075" style="stop-color:#52A8BC"/>
			<stop  offset="0.2247" style="stop-color:#4592B3"/>
			<stop  offset="0.372" style="stop-color:#377CA8"/>
			<stop  offset="0.5226" style="stop-color:#2E6CA0"/>
			<stop  offset="0.6756" style="stop-color:#296099"/>
			<stop  offset="0.8327" style="stop-color:#255996"/>
			<stop  offset="1" style="stop-color:#245794"/>
		</linearGradient>
		<path fill="url(#SVGID_1_)" d="M1.313,9.066c0,0-1.178,0-0.935-1.217C0.64,7.09,1.432,7.23,1.432,7.23S1.428,6.213,2.398,5.966
			c0.97-0.246,1.456,0.559,1.549,0.805c0.388-0.058,1.275,0.082,1.368,1.036c0.093,0.955-0.708,1.219-1.042,1.258
			c-0.004,0.134,0,0.338,0,0.338S4.867,9.38,5.282,8.932c0.415-0.419,0.505-1.13,0.204-1.725C5.185,6.611,4.552,6.424,4.154,6.422
			C3.943,6.1,3.533,5.545,2.608,5.584c-0.976,0.091-1.384,0.825-1.471,1.3C1.028,6.888,0.29,6.983,0.052,7.754
			C0.051,7.756,0.05,7.759,0.05,7.761c-0.194,0.776,0.173,1.588,1.269,1.642C1.319,9.275,1.313,9.066,1.313,9.066z"/>
		
			<linearGradient id="SVGID_2_" gradientUnits="userSpaceOnUse" x1="-6789.9238" y1="6553.689" x2="-6576.9336" y2="6816.7095" gradientTransform="matrix(0.0091 0 0 0.0091 -291.7061 130.211)">
			<stop  offset="0.1075" style="stop-color:#52A8BC"/>
			<stop  offset="0.2247" style="stop-color:#4592B3"/>
			<stop  offset="0.372" style="stop-color:#377CA8"/>
			<stop  offset="0.5226" style="stop-color:#2E6CA0"/>
			<stop  offset="0.6756" style="stop-color:#296099"/>
			<stop  offset="0.8327" style="stop-color:#255996"/>
			<stop  offset="1" style="stop-color:#245794"/>
		</linearGradient>
		<path fill="url(#SVGID_2_)" d="M2.085,8.757l0.646-0.558c0,0,0.094-0.075,0.198,0.03c0.104,0.105,0.173,0.182,0.173,0.182
			s0.097,0.107-0.021,0.215C2.965,8.705,2.882,8.606,2.882,8.606L2.804,8.528l-0.969,0.84c0,0-0.089,0.1-0.202,0.018
			C1.521,9.304,1.618,9.145,1.618,9.145l1.056-2.673c0,0,0.046-0.086,0.136-0.084C2.89,6.391,2.922,6.421,2.965,6.532
			c0.043,0.111,1.039,2.655,1.039,2.655s0.047,0.091-0.018,0.168C3.92,9.431,3.839,9.4,3.812,9.392
			C3.784,9.378,3.221,8.931,3.221,8.931s-0.1-0.093-0.01-0.208c0.094-0.097,0.185-0.028,0.213-0.01
			c0.03,0.026,0.111,0.091,0.111,0.091L2.808,6.946L2.085,8.757z"/>
	</g>
	<text transform="matrix(1 0 0 1 6.3245 8.3694)" fill="#295EA8" font-family="'SimHei'" font-size="2.4189">航天智云</text>
</g>
</svg>
