<?xml version="1.0" encoding="utf-8"?>
<!-- Generator: Adobe Illustrator 19.0.0, SVG Export Plug-In . SVG Version: 6.00 Build 0)  -->
<svg version="1.1"
	 id="svg2" xmlns:dc="http://purl.org/dc/elements/1.1/" xmlns:cc="http://creativecommons.org/ns#" xmlns:rdf="http://www.w3.org/1999/02/22-rdf-syntax-ns#" xmlns:svg="http://www.w3.org/2000/svg" xmlns:sodipodi="http://sodipodi.sourceforge.net/DTD/sodipodi-0.dtd" xmlns:inkscape="http://www.inkscape.org/namespaces/inkscape" sodipodi:docname="headshot.svg" inkscape:version="0.48.0 r9654"
	 xmlns="http://www.w3.org/2000/svg" xmlns:xlink="http://www.w3.org/1999/xlink" x="0px" y="0px" viewBox="-9 11 180 180"
	 style="enable-background:new -9 11 180 180;" xml:space="preserve">
<style type="text/css">
	.st0{display:none;}
	.st1{display:inline;fill:#231F20;}
	.st2{display:inline;fill:#D33833;}
	.st3{display:inline;fill:#EF3D3A;}
	.st4{fill:#F0D6B7;}
	.st5{fill:#335061;}
	.st6{fill:#6D6B6D;}
	.st7{fill:#DCD9D8;}
	.st8{fill:#F7E4CD;}
	.st9{fill:#49728B;}
	.st10{fill:#FFFFFF;}
	.st11{fill:#D33833;}
	.st12{fill:none;stroke:#D33833;stroke-width:2;}
	.st13{fill:#EF3D3A;}
	.st14{fill:#231F20;}
	.st15{fill:#81B0C4;}
	.st16{fill:#1D1919;}
</style>
<sodipodi:namedview  inkscape:cy="28.333333" inkscape:cx="85.437483" inkscape:zoom="2.67" showgrid="false" guidetolerance="10" gridtolerance="10" objecttolerance="10" borderopacity="1" pagecolor="#ffffff" bordercolor="#666666" id="namedview4" inkscape:current-layer="g10" inkscape:window-maximized="0" inkscape:window-y="562" inkscape:window-x="2281" inkscape:window-height="844" inkscape:pageshadow="2" inkscape:pageopacity="0" inkscape:window-width="1500">
	</sodipodi:namedview>
<g id="layer1" inkscape:label="background" inkscape:groupmode="layer" class="st0">
	<path id="path26-6" inkscape:connector-curvature="0" class="st1" d="M12.5,80.5c-18,18.4-29.1,43.8-29.1,72l0,0
		c0,28.1,11.1,53.6,29.1,72l0,0c18,18.4,42.8,29.8,70.3,29.8l0,0c27.4,0,52.3-11.4,70.3-29.8l0,0c18-18.4,29.1-43.8,29.1-72l0,0
		c0-28.1-11.1-53.6-29.1-72l0,0c-18-18.4-42.8-29.8-70.3-29.8l0,0C55.3,50.7,30.5,62.1,12.5,80.5L12.5,80.5z M8,228.9
		c-19.1-19.6-31-46.6-31-76.4l0,0c0-29.8,11.8-56.9,31-76.4l0,0c19.1-19.6,45.6-31.7,74.8-31.7l0,0c29.2,0,55.7,12.1,74.8,31.7l0,0
		c19.1,19.6,31,46.6,31,76.4l0,0c0,29.8-11.8,56.9-31,76.4l0,0c-19.1,19.6-45.6,31.7-74.8,31.7l0,0C53.6,260.6,27.1,248.5,8,228.9
		L8,228.9"/>
	<path id="path22" inkscape:connector-curvature="0" class="st2" d="M185.4,152.1c0,58-45.9,104.9-102.6,104.9
		c-56.7,0-102.6-47-102.6-104.9c0-58,45.9-104.9,102.6-104.9C139.4,47.2,185.4,94.1,185.4,152.1"/>
	<path id="path24" inkscape:connector-curvature="0" class="st3" d="M-15.6,178.1c0,0-7.4-109.4,93.4-112.6l-7-11.7L16,72.2
		l-15.6,18l-13.7,26.2l-7.8,30.5l2.3,20.3"/>
	<path id="path26" inkscape:connector-curvature="0" class="st1" d="M12.5,80.5c-18,18.4-29.1,43.8-29.1,72l0,0
		c0,28.1,11.1,53.6,29.1,72l0,0c18,18.4,42.8,29.8,70.3,29.8l0,0c27.4,0,52.3-11.4,70.3-29.8l0,0c18-18.4,29.1-43.8,29.1-72l0,0
		c0-28.1-11.1-53.6-29.1-72l0,0c-18-18.4-42.8-29.8-70.3-29.8l0,0C55.3,50.7,30.5,62.1,12.5,80.5L12.5,80.5z M8,228.9
		c-19.1-19.6-31-46.6-31-76.4l0,0c0-29.8,11.8-56.9,31-76.4l0,0c19.1-19.6,45.6-31.7,74.8-31.7l0,0c29.2,0,55.7,12.1,74.8,31.7l0,0
		c19.1,19.6,31,46.6,31,76.4l0,0c0,29.8-11.8,56.9-31,76.4l0,0c-19.1,19.6-45.6,31.7-74.8,31.7l0,0C53.6,260.6,27.1,248.5,8,228.9
		L8,228.9"/>
</g>
<g>
	<path id="path28" inkscape:connector-curvature="0" class="st4" d="M126,152.7l-15.6,2.3l-21.1,2.3l-13.7,0.4l-13.3-0.4l-10.2-3.1
		l-9-9.8l-7-19.9l-1.6-4.3l-9.4-3.1l-5.5-9l-3.9-12.9L20,83.9l10.2-3.5l8.2,3.9l3.9,8.6l4.7-0.8l1.6-2l-1.6-9l-0.4-11.3L49,54.2
		l-0.1-8.9L56,33.9l12.5-9l21.9-9.4l24.2,3.5l21.1,15.2l9.8,15.6l6.3,11.3l1.6,28.1l-4.7,24.2l-8.6,21.5l-8.2,11.3"/>
	<path id="path30" inkscape:connector-curvature="0" class="st5" d="M8.5,191l-4.1-12.1l-2-6.3l31.3-21.5l9.8-3.9l8.6,10.6l7.4,6.6
		l8.6,2.7l3.9,1.2l4.7,20.3l1.9,2.4"/>
	<path id="path32" inkscape:connector-curvature="0" class="st6" d="M20,83.9l10.2-3.5l8.2,3.9l3.9,8.6l4.7-0.8l1.2-4.7l-2.3-9
		l2.3-21.5l-2-11.7l7-8.2l15.2-12.1L64.2,19L42.7,29.6l-9,7l-5.1,10.9l-7.8,10.6l-2.3,12.5L20,83.9"/>
	<path id="path34" inkscape:connector-curvature="0" class="st7" d="M36.1,47.2c0,0,5.9-14.5,29.3-21.5s1.2-5.1,1.2-5.1l-25.4,9.8
		l-9.8,9.8l-4.3,7.8L36.1,47.2"/>
	<path id="path36" inkscape:connector-curvature="0" class="st7" d="M24.3,81.2c0,0-8.2-27.4,23.1-31.3l-1.2-4.7l-21.5,5.1
		l-6.3,20.3L20,83.9L24.3,81.2"/>
	<path id="path38" inkscape:connector-curvature="0" class="st8" d="M36.9,117.5l5.1-5c0,0,2.3,0.3,2.7,3
		c0.4,2.7,1.6,27.4,18.4,40.6c1.5,1.2-12.5-2-12.5-2L38,134.7"/>
	<path id="path40" inkscape:connector-curvature="0" class="st8" d="M108.8,110.1c0,0,0.9-11.8,4.1-10.9s3.2,4.1,3.2,4.1
		S108.3,108.3,108.8,110.1"/>
	<path id="path42" inkscape:connector-curvature="0" class="st8" d="M141.2,66.7c0,0-6.4,1.4-7,7c-0.6,5.7,7,1.2,8.2,0.8"/>
	<path id="path44" inkscape:connector-curvature="0" class="st8" d="M93.9,67.1c0,0-8.6,1.2-8.6,6.6c0,5.5,9.8,5.1,12.5,2.7"/>
	<path id="path46" inkscape:connector-curvature="0" class="st8" d="M40.8,92.5c0,0-14.9-9-16.4-0.4c-1.6,8.6-5.1,14.9,2.3,23.8
		l-5.1-1.6l-4.7-12.1l-1.6-11.7l9-9.4l10.2,0.8l5.9,4.7L40.8,92.5"/>
	<path id="path48" inkscape:connector-curvature="0" class="st8" d="M47.8,67.9c0,0,6.6-34.4,40.3-41c27.7-5.5,42.2,1.2,47.7,7.4
		c0,0-24.6-29.3-48.1-20.3c-23.4,9-40.6,25.4-40.3,36C48.1,67.9,47.8,67.9,47.8,67.9"/>
	<path id="path50" inkscape:connector-curvature="0" class="st8" d="M138.5,38.2c0,0-11.3-0.4-11.7,9.8c0,0,0,1.6,0.8,3.1
		c0,0,9-10.2,14.5-4.7"/>
	<path id="path52" inkscape:connector-curvature="0" class="st8" d="M88.8,52.1c0,0-2-15.6-15.2-6.5c-8.6,5.9-7.8,14.1-6.3,15.6
		c1.6,1.6,1.1,4.7,2.3,2.6c1.2-2.2,0.8-9.2,5.1-11.1C79.1,50.7,86.1,48.5,88.8,52.1"/>
	<path id="path62" inkscape:connector-curvature="0" class="st5" d="M151.7,190.8c1.9-8.4,7.1-27.9,7.1-27.9l-17.6-18.4l-3.5-3.1
		l-9.4,9.4v36.3L127,191"/>
	<path id="path66" inkscape:connector-curvature="0" class="st9" d="M130.3,149.5l27.4,20.3l0.8-9.4l-20.7-19.1L130.3,149.5"/>
	<path id="path76" inkscape:connector-curvature="0" class="st10" d="M108.4,191l-6.8-8.2c0,0,2-5.5,4.7-5.5c2.7,0,9,0,9,0l8.6,3.1
		l-0.7,10.6"/>
	<path id="path80" inkscape:connector-curvature="0" class="st10" d="M73.1,158.5l-10.8-1.2l-10.2-3.1v3.5l5,5.5l15.6,7"/>
	<path id="path82" inkscape:connector-curvature="0" class="st7" d="M55.6,159.7c0,0,12.1,5.1,16,3.9l0.4,4.7L61.1,166l-6.6-4.7
		L55.6,159.7"/>
	<path id="path84" inkscape:connector-curvature="0" class="st11" d="M134.8,178.6c-6.6-0.2-12.6-1-17.9-2.5
		c0.4-2.2-0.3-4.3,0.2-5.8c1.5-1.1,3.9-1,6.1-1.3c-1.9-0.9-4.6-1.3-6.8-0.8c-0.1-1.5-0.7-2.4-1.1-3.6c3.7-1.3,12.5-10.1,17.5-7.2
		c2.4,1.4,3.4,9.2,3.5,13C136.5,173.8,136.1,177,134.8,178.6"/>
	<g>
		<g>
			<path class="st7" d="M112.4,191c-1.4-3.2-2.5-5.4-2.5-5.1c0,0,2-4.7,4.7-3.5s8.6,4.3,8.6,4.3v-7.4l-13.3-2.7l-9-0.3l6.3,14.8
				H112.4z"/>
		</g>
	</g>
	<path id="path86" inkscape:connector-curvature="0" class="st12" d="M134.8,178.6c-6.6-0.2-12.6-1-17.9-2.5
		c0.4-2.2-0.3-4.3,0.2-5.8c1.5-1.1,3.9-1,6.1-1.3c-1.9-0.9-4.6-1.3-6.8-0.8c-0.1-1.5-0.7-2.4-1.1-3.6c3.7-1.3,12.5-10.1,17.5-7.2
		c2.4,1.4,3.4,9.2,3.5,13C136.5,173.8,136.1,177,134.8,178.6z"/>
	<path id="path88" inkscape:connector-curvature="0" class="st11" d="M103.1,167.8c0,0.5,0,1-0.1,1.5c-2.1,1.4-5.4,1.3-7.7,2.5
		c3.3,0.1,6,1,8.3,2.1c-0.1,1.3-0.1,2.5-0.1,3.8c-3.8,2.6-7.3,6.5-11.7,8.9c-2.1,1.2-9.5,4.1-11.8,3.6c-1.3-0.3-1.4-1.9-1.9-3.4
		c-1.1-3.2-3.6-8.3-3.8-13.1c-0.3-6.1-0.9-16.2,5.6-15c5.3,1,11.4,3.4,15.5,5.7C97.9,165.8,99.3,167.5,103.1,167.8"/>
	<path id="path90" inkscape:connector-curvature="0" class="st12" d="M103.1,167.8c0,0.5,0,1-0.1,1.5c-2.1,1.4-5.4,1.3-7.7,2.5
		c3.3,0.1,6,1,8.3,2.1c-0.1,1.3-0.1,2.5-0.1,3.8c-3.8,2.6-7.3,6.5-11.7,8.9c-2.1,1.2-9.5,4.1-11.8,3.6c-1.3-0.3-1.4-1.9-1.9-3.4
		c-1.1-3.2-3.6-8.3-3.8-13.1c-0.3-6.1-0.9-16.2,5.6-15c5.3,1,11.4,3.4,15.5,5.7C97.9,165.8,99.3,167.5,103.1,167.8z"/>
	<path id="path92" inkscape:connector-curvature="0" class="st11" d="M106.8,175c-0.6-3.3-1.2-4.2-1-7.1
		C114.7,162,116.3,178,106.8,175"/>
	<path id="path94" inkscape:connector-curvature="0" class="st12" d="M106.8,175c-0.6-3.3-1.2-4.2-1-7.1
		C114.7,162,116.3,178,106.8,175z"/>
	<path id="path96" inkscape:connector-curvature="0" class="st13" d="M119.6,177.7c0,0-2.7-3.9-0.8-5.1c2-1.2,3.9,0,5.1-2
		s0-3.1,0.4-5.5s2.3-2.7,4.3-3.1c2-0.4,7.4-1.2,8.2,0.8l-2.3-7l-4.7-1.6l-14.9,8.6l-0.8,4.3v8.6"/>
	<path id="path98" inkscape:connector-curvature="0" class="st13" d="M78.6,190.6c-0.5-6.1-1-12.2-1.5-18.3
		c-0.8-9.1,2.2-7.5,10.1-7.5c1.2,0,7.4,1.4,7.9,2.3c2.1,4.4-3.6,3.4,2.5,6.7c5.1,2.8,14.1-1.7,12-7.8c-1.1-1.4-6-0.4-7.7-1.3
		c-3.1-1.6-6.1-3.2-9.2-4.7c-3.9-2-12.9-5-17-2.1c-10.5,7.1,0.7,25,4.4,32.4"/>
	<path id="path100" inkscape:connector-curvature="0" class="st14" d="M88.8,52.1c-10.7-2.5-15.9,4.5-19.2,11.7
		c-2.9-0.7-1.7-4.6-1-6.6c1.9-5.2,9.6-12.2,15.9-11.3C87.2,46.3,90.9,48.8,88.8,52.1"/>
	<path id="path102" inkscape:connector-curvature="0" class="st14" d="M140.7,64.3c0.2,0,0.3,0,0.5,0c2.4,5,4.5,10.3,7.5,14.7
		c-2,4.7-15.4,8.9-15.2,0.4c2.9-1.3,7.9-0.3,10.4-1.9C142.5,73.5,140.4,70,140.7,64.3"/>
	<path id="path104" inkscape:connector-curvature="0" class="st14" d="M94.3,64.4c2.3,4.2,3,8.6,6.3,11.7c1.5,1.4,4.3,3.2,2.9,7.1
		c-0.3,0.9-2.7,3-4.1,3.4c-5.1,1.5-16.9,0.3-12.9-6c4.2,0.2,9.8,2.7,13-0.3C97,76.5,92.7,68.9,94.3,64.4"/>
	<g>
		<g>
			<polygon class="st9" points="8.2,191 14.7,191 52.1,157.8 40.8,146.8 2.5,172.6 6.8,184.7 			"/>
		</g>
	</g>
	<path id="path106" inkscape:connector-curvature="0" class="st14" d="M138.8,106.9c-7.6,4.9-16.2,10.2-28.7,9
		c-2.7-2.3-3.7-7.5-1.1-10.9c1.4,2.3,0.5,6.6,4.3,7.2c7.1,1.2,15.4-4.3,20.5-6.3c3.2-5.3-0.3-7.3-3.1-10.7
		c-5.8-7-13.7-15.8-13.4-26.3c2.4-1.7,2.6,2.6,2.9,3.4c3.1,7.1,10.7,16.3,16.3,22.4c1.4,1.5,3.6,2.9,3.9,3.9
		C141.1,101.5,138.5,105,138.8,106.9"/>
	<path id="path108" inkscape:connector-curvature="0" class="st14" d="M38.1,101.8c-2.4-1.4-3-7.4-5.8-7.6c-4-0.2-3.3,7.8-3.3,12.5
		c-2.8-2.5-3.3-10.2-1.2-14.2c-2.3-1.1-3.4,1.3-4.6,2.1C24.8,82.6,40.7,89,38.1,101.8"/>
	<path id="path110" inkscape:connector-curvature="0" class="st14" d="M143.7,111.9c-3.6,6.8-8.6,14.2-19,14.4
		c-0.2-2.2-0.4-5.5,0-6.8C132.7,118.8,137.6,114.7,143.7,111.9"/>
	<path id="path112" inkscape:connector-curvature="0" class="st14" d="M93.7,116.3c6.7,3.5,18.9,3.9,27.9,3.6c0.5,2,0.5,4.4,0.5,6.8
		C110.5,127.4,96.7,124.5,93.7,116.3"/>
	<path id="path114" inkscape:connector-curvature="0" class="st14" d="M92.4,122.8c4.6,11.6,20.4,10.2,33.8,9.9
		c-0.6,1.5-1.9,3.3-3.4,3.9c-4.3,1.7-16.1,3.1-22-0.1c-3.8-2-6.2-6.5-8.2-9.2C91.5,126.1,86.5,122.9,92.4,122.8"/>
	<path id="path116" inkscape:connector-curvature="0" class="st15" d="M138.3,186.6c-1.1,2-3.4,4.4-3.4,4.4l-10,0
		c0,0,0.5-5.5,0.6-8.7C131.2,179.7,136,182.9,138.3,186.6"/>
	<path id="path126" inkscape:connector-curvature="0" class="st4" d="M118.9,157.3c-2.8,1.8-5.2,4.1-7.8,6
		c-5.9,0.3-9.2-0.4-13.5-3.8c0.1-0.3,0.5-0.2,0.5-0.5C104.4,161.8,112.5,157.8,118.9,157.3"/>
	<path id="path128" inkscape:connector-curvature="0" class="st15" d="M90.3,190.9c2.9-2.9,6.6-3.7,10.1-6c1.9,2.4,3.5,3.4,5,6.1"/>
	<path id="path132" inkscape:connector-curvature="0" class="st8" d="M83.1,119.3c0.5-0.7,3.3-1.7,7.3,0.2c0,0-4.7,0.8-4.3,8.6
		l-2-0.4C84.1,127.7,82.1,120.6,83.1,119.3"/>
	<path id="path134" inkscape:connector-curvature="0" class="st16" d="M117.4,186.5c0,1.2-1,2.1-2.2,2.1c-1.2,0-2.1-1-2.1-2.1
		c0-1.2,1-2.2,2.1-2.2C116.4,184.3,117.4,185.3,117.4,186.5"/>
	<g>
		<g>
			<path class="st14" d="M4.3,189.5c0.2,0.5,0.3,1,0.5,1.5h7.3c-1.9-6.1-4.1-12-6.7-17.6c10.9-8.4,23-17.3,36-22.4
				c1-0.4,8.2,9,9.2,9.7c5.8,4.1,13.1,7.4,19.8,10.6c0.4,3.1,1.4,7.1,3.1,12.5c0.7,2.3,1.4,5,2.4,7.2h15.8c2.6-2.3,5.7-4.2,8.6-6.1
				c1.5,1.9,2.9,4,4.2,6.1h5c-1.7-3.2-3.5-6.3-5.7-9c0.7-0.8,1.4-1.6,2.1-2.4c3.2,1.3,5.2-1.7,7.6-1.5c2.8,0.3,5,4.1,9,3.9
				c-0.2,3-0.3,6-0.4,9.1h2.9c0.2-3,0.4-6,0.5-8.7c5.6-2.6,10.4,0.6,12.7,4.3c-0.9,1.5-1.7,2.9-2.5,4.4h2.8c1.1-1.9,2.2-3.8,3.3-5.8
				c-0.9-2.2-3.2-3.1-3.8-5.5c4.2-8,2.3-32.9-8.5-27.7c1.5-2.2,5.5-4.1,7.3-6.8c4.6,3.7,7.3,7.1,11.7,11.1c2.4,2.1,7.1,4.7,7.5,8.1
				c0.3,1.9-0.9,6.6-1.4,8.8c-1.1,5.3-2.9,11.5-5,17.7h4.3c1.7-5.2,3.3-10.5,4.9-16c1.2-4.1,3.6-9.8,3.1-14c-0.5-4-6.7-8.1-9.9-11.3
				c-1.8-1.7-10.2-8.1-10.7-10.5c-0.5-2.3,3.4-7.6,4.7-10.2c1.8-3.8,3.1-8.4,4-11.5c6.6-23.3,7.3-55.3-2.2-74.5
				c-3.6-7.3-13.6-17.3-19.9-22C113.2,9.8,85.8,8.6,68,15.1c-5,1.8-9.8,3.5-14.1,6C42.2,28,29.8,32.6,26.3,46.4
				c-8.5,3.8-11.1,14.7-10.7,27.4c0.1,2.5,1.4,5.6,1,7.9c-0.2,1.2-1.8,2.7-2.2,3.5c-4.1,9.8-0.8,22.6,3.9,29.5
				c2.9,4.2,7.6,7.9,13.8,8.9c0.2,3.7,1.1,7,2.9,10.7c1.1,2.4,5.2,6.7,3.7,9.8c-0.8,1.5-7.4,4.9-9.6,6.2
				c-7.4,4.5-12.8,7.2-19.7,12.1C5,165.6-2,166-0.9,173.4C-0.1,178.4,2.7,184.5,4.3,189.5z M70,165.7c-4.1-0.3-17-4.9-13.6-8.4
				c3.3,2.3,9.7,1.7,14.6,2.6C71.3,161.5,70,163.6,70,165.7z M103.5,177.7c-3.8,2.6-7.3,6.5-11.7,8.9c-2.1,1.2-9.5,4.1-11.8,3.6
				c-1.3-0.3-1.4-1.9-1.9-3.4c-1.1-3.2-3.6-8.3-3.8-13.1c-0.3-6.1-0.9-16.2,5.6-15c5.3,1,11.4,3.4,15.5,5.7c2.5,1.4,3.9,3,7.7,3.3
				c0,0.5,0,1-0.1,1.5c-2.1,1.4-5.4,1.3-7.7,2.5c3.3,0.1,6,1,8.3,2.1C103.5,175.1,103.5,176.4,103.5,177.7z M106.8,175
				c-0.6-3.3-1.2-4.2-1-7.1C114.7,162,116.3,178,106.8,175z M111.1,163.3c-5.9,0.3-9.2-0.4-13.5-3.8c0.1-0.3,0.5-0.2,0.5-0.5
				c6.3,2.8,14.4-1.2,20.8-1.7C116.1,159.1,113.8,161.4,111.1,163.3z M132.8,157.6c2.4,1.4,3.4,9.2,3.5,13c0.2,3.2-0.3,6.4-1.6,8
				c-6.6-0.2-12.6-1-17.9-2.5c0.4-2.2-0.3-4.3,0.2-5.8c1.5-1.1,3.9-1,6.1-1.3c-1.9-0.9-4.6-1.3-6.8-0.8c-0.1-1.5-0.7-2.4-1.1-3.6
				C119.1,163.4,127.9,154.7,132.8,157.6z M62.9,23c0.6-0.2,1.2,0.3,1.7,0.8c-0.1,1.9-1.9,1.8-3.1,2.4c-1.9,2.4-4.7,3.5-7.1,6.1
				c-2.4,2.6-5.1,9.8-8.3,10.6c-1.6,0.4-3.4-0.3-4.8-0.2c-3.7,0.2-6.3,2.1-10,2.6C36.2,34.8,51.2,26.3,62.9,23z M25.9,56
				c4.8-5.2,11.3-8.5,19.3-9.1c4.1,10.5-3,22.9-0.3,34.4c0.8,3.5,3.6,9-0.9,9.1c0.1-10-12.3-16.3-21.6-10.5
				C21.9,72.3,20.8,61.7,25.9,56z M38.9,126.6c-0.3-1.5-0.9-4.6-0.8-5.3c0.6-3.1,6-4.4,3.9-8.7c-4,0-4.9,3.6-8.5,4
				C24,117.4,17.4,104,17.8,95.9C18.2,89,24,82.4,32,83.3c5.6,0.6,7.5,6.8,8.6,12.2c3.2,0.2,7.9-0.1,9.5-2.7
				c-0.2-6.2-3.1-11.1-2.9-16.8c0.4-10.7,6.2-20.3,1.7-30.8c4.8-10.9,18.9-19.5,29.3-24.7c12.9-6.4,33.4-1.3,45.6,5.6
				c7,3.9,12.1,11.5,17,17.9c-6.9-2-12.7,1.5-11.7,7.1c5.8-5.3,15.6-0.1,18.5,5.8c2.8,5.6,2.8,13.8,3.2,22.1
				c1,20.1-3.7,40.8-13.8,55.4c-2.7,3.9-5,8.1-8.8,10.8c-9.2,6.4-23.1,12.3-35,8.3c-15.7-5.3-22.9-15.8-31.6-27.8
				c0.2,6.6,4.9,12,9.5,17.1c4,4.4,8.8,9.4,14,11.4c-4.3-1-11-1.3-12.7,2.5c-10.1-0.7-19.4-1.7-24.2-8.5
				C44.4,142.8,40.6,133.7,38.9,126.6z"/>
		</g>
	</g>
	<polyline class="st9" points="52.1,157.8 15.4,174.2 19.1,191 22.6,191 52.1,157.8 	"/>
	<g>
		<g>
			<path d="M78.3,191v-1.6c0-0.5-0.4-1-1-1H8.8c-0.5,0-1,0.4-1,1v1.6H78.3z"/>
		</g>
	</g>
	<path id="rect3048-5_1_" d="M89.1,191v-1.6c0-0.5,0.4-1,1-1h60.6c0.5,0,1,0.4,1,1v1.6"/>
</g>
</svg>
