<?xml version="1.0" encoding="utf-8"?>
<!-- Generator: Adobe Illustrator 19.0.0, SVG Export Plug-In . SVG Version: 6.00 Build 0)  -->
<svg version="1.1" id="图层_1" xmlns="http://www.w3.org/2000/svg" xmlns:xlink="http://www.w3.org/1999/xlink" x="0px" y="0px"
	 viewBox="0 0 100 100" style="enable-background:new 0 0 100 100;" xml:space="preserve">
<style type="text/css">
	.st0{fill:#00758F;}
	.st1{fill:#F29111;}
</style>
<g id="XMLID_12_" transform="matrix(1.8189257,0,0,1.8237746,-82.14211,-64.843651)">
	<g id="XMLID_13_" transform="matrix(1.2699241,0,0,-1.2699241,3.3662307,208.12494)">
		<g id="XMLID_14_" transform="scale(0.1,0.1)">
			<path id="XMLID_10_" class="st0" d="M433.5,1022.5h-16.7c-0.6,28.1-2.2,54.5-4.9,79.3h-0.1l-25.4-79.3h-12.7l-25.2,79.3h-0.1
				c-1.9-23.8-3-50.2-3.5-79.3h-15.2c1,35.4,3.4,68.5,7.4,99.5h20.6l24-73.1h0.1l24.2,73.1h19.8
				C430.2,1085.8,432.7,1052.6,433.5,1022.5"/>
			<path id="XMLID_9_" class="st0" d="M505.8,1096c-6.8-36.8-15.7-63.5-26.8-80.2c-8.7-12.9-18.1-19.3-28.4-19.3
				c-2.8,0-6.1,0.8-10.2,2.5v8.9c2-0.3,4.3-0.4,6.9-0.4c4.8,0,8.7,1.3,11.6,4c3.5,3.2,5.3,6.9,5.3,10.9c0,2.8-1.4,8.4-4.1,16.9
				l-18.3,56.8h16.4l13.1-42.4c2.9-9.6,4.2-16.4,3.7-20.2c7.2,19.2,12.2,40,15,62.6H505.8"/>
			<path id="XMLID_8_" class="st1" d="M578.7,1050.1c0-8.4-3.1-15.4-9.3-20.8c-6.2-5.4-14.5-8.1-24.9-8.1c-9.7,0-19.2,3.1-28.3,9.3
				l4.3,8.5c7.9-3.9,15-5.9,21.4-5.9c6,0,10.7,1.3,14.1,4c3.4,2.7,5.4,6.4,5.4,11.1c0,5.9-4.1,11-11.7,15.2
				c-7,3.8-20.9,11.8-20.9,11.8c-7.6,5.5-11.3,11.4-11.3,21.2c0,8.1,2.8,14.6,8.5,19.5c5.7,5,13,7.5,21.9,7.5
				c9.2,0,17.6-2.5,25.2-7.4l-3.8-8.5c-6.5,2.7-12.9,4.1-19.1,4.1c-5.1,0-9-1.2-11.8-3.7c-2.8-2.4-4.5-5.6-4.5-9.4
				c0-5.9,4.2-11,12-15.3c7.1-3.8,21.4-12,21.4-12C574.8,1065.7,578.7,1059.8,578.7,1050.1"/>
			<path id="XMLID_21_" class="st1" d="M608.5,1042.4c-4,6.5-6,16.9-6,31.2c0,25.1,7.6,37.6,22.8,37.6c8,0,13.8-3,17.5-9
				c4-6.5,6-16.8,6-31c0-25.3-7.6-37.9-22.8-37.9C618.1,1033.4,612.2,1036.4,608.5,1042.4 M667.7,1020.1l-18.3,9
				c1.6,1.3,3.2,2.8,4.6,4.4c7.8,9.1,11.7,22.6,11.7,40.5c0,32.9-12.9,49.4-38.8,49.4c-12.7,0-22.6-4.2-29.6-12.5
				c-7.8-9.1-11.6-22.6-11.6-40.4c0-17.5,3.4-30.3,10.3-38.5c6.3-7.4,15.7-11.1,28.4-11.1c4.7,0,9.1,0.6,13,1.7l23.8-13.9
				L667.7,1020.1"/>
			<path id="XMLID_5_" class="st1" d="M727.4,1022.5h-47.3v99.5H696v-87.3h31.4V1022.5"/>
			<path id="XMLID_17_" class="st1" d="M738.8,1022.6h2.6v10.1h3.5v2.1h-9.7v-2.1h3.6V1022.6L738.8,1022.6z M758.9,1022.6h2.5v12.2
				h-3.7l-3-8.3l-3.3,8.3h-3.6v-12.2h2.4v9.3h0.1l3.5-9.3h1.8l3.5,9.3L758.9,1022.6"/>
			<path id="XMLID_2_" class="st0" d="M747.4,1155.4c-9.6,0.2-17.1-0.7-23.3-3.4c-1.8-0.7-4.7-0.7-4.9-3c1-1,1.1-2.5,1.9-3.8
				c1.4-2.4,4-5.6,6.2-7.3c2.5-1.9,5.1-3.8,7.7-5.5c4.7-2.9,10-4.6,14.5-7.5c2.7-1.7,5.3-3.8,7.9-5.7c1.3-1,2.2-2.5,3.8-3.1v0.4
				c-0.8,1.1-1.1,2.6-1.9,3.9c-1.2,1.2-2.4,2.3-3.6,3.5c-3.5,4.7-7.8,8.8-12.5,12.1c-3.9,2.7-12.3,6.3-13.8,10.7
				c0,0-0.1,0.1-0.2,0.2c2.6,0.2,5.8,1.2,8.3,1.9c4.1,1.1,7.8,0.8,12,1.9c1.9,0.5,3.9,1.1,5.8,1.7v1.1c-2.2,2.2-3.7,5-6,7.1
				c-6.1,5.3-12.9,10.5-19.8,14.8c-3.7,2.4-8.5,4-12.5,6c-1.4,0.7-3.8,1.1-4.7,2.3c-2.2,2.6-3.4,6.1-4.9,9.3
				c-3.5,6.6-6.9,13.9-9.9,20.9c-2.2,4.7-3.5,9.4-6.1,13.7c-12.4,20.4-25.8,32.8-46.5,45c-4.4,2.5-9.7,3.6-15.4,4.9
				c-3,0.1-6,0.4-9,0.5c-1.9,0.8-3.9,3.1-5.5,4.2c-6.9,4.3-24.5,13.7-29.6,1.3c-3.2-7.8,4.8-15.5,7.6-19.5c2-2.8,4.7-5.9,6.1-9
				c0.8-2,1.1-4.2,1.9-6.4c1.9-5.3,3.7-11.2,6.3-16.1c1.3-2.5,2.8-5.2,4.4-7.4c1-1.3,2.6-1.9,3-4.1c-1.7-2.4-1.8-6-2.8-9
				c-4.3-13.6-2.6-30.4,3.5-40.4c1.9-3,6.5-9.6,12.6-7.1c5.4,2.2,4.2,9,5.8,15c0.4,1.5,0.1,2.4,0.8,3.4v-0.2c1.7-3.4,3.4-6.6,4.9-10
				c3.7-5.9,10.2-12,15.6-16.1c2.9-2.2,5.2-5.9,8.8-7.2v0.4h-0.2c-0.7,1.1-1.8,1.6-2.8,2.4c-2.2,2.2-4.6,4.8-6.3,7.2
				c-5,6.7-9.5,14.2-13.5,21.9c-1.9,3.7-3.6,7.8-5.2,11.5c-0.7,1.4-0.7,3.6-1.9,4.3c-1.8-2.6-4.4-4.9-5.8-8.2
				c-2.3-5.2-2.5-11.5-3.4-18.2c-0.5-0.1-0.2,0-0.5-0.2c-3.8,1-5.2,4.9-6.6,8.3c-3.6,8.5-4.2,22.3-1.1,32.1c0.8,2.5,4.5,10.5,3,12.9
				c-0.7,2.3-3.1,3.6-4.4,5.4c-1.6,2.3-3.3,5.2-4.3,7.7c-2.9,6.7-4.3,14.2-7.5,20.9c-1.4,3.1-4,6.4-6,9.3c-2.3,3.2-4.8,5.5-6.6,9.4
				c-0.6,1.3-1.4,3.5-0.5,4.9c0.2,1,0.7,1.3,1.7,1.6c1.6,1.3,6-0.4,7.6-1.1c4.5-1.8,8.2-3.5,11.9-6c1.7-1.2,3.5-3.5,5.6-4.1h2.5
				c3.8-0.8,8.2-0.2,11.8-1.3c6.4-2,12.1-5,17.3-8.3c15.7-10,28.7-24.2,37.5-41.1c1.4-2.8,2.1-5.3,3.4-8.2
				c2.5-5.9,5.7-11.9,8.2-17.7c2.5-5.7,4.9-11.4,8.5-16.1c1.8-2.5,9-3.8,12.3-5.2c2.4-1.1,6.1-2,8.3-3.4c4.1-2.5,8.2-5.4,12-8.2
				C741.1,1160.8,747.1,1157.8,747.4,1155.4"/>
			<path id="XMLID_1_" class="st0" d="M624.8,1259.9c-2,0-3.5-0.2-4.9-0.6v-0.2h0.2c1-1.9,2.7-3.3,3.8-4.9c1-1.9,1.8-3.8,2.8-5.8
				c0.1,0.1,0.2,0.2,0.2,0.2c1.7,1.2,2.5,3.1,2.5,6c-0.7,0.8-0.8,1.7-1.4,2.5C627.3,1258.3,625.8,1258.9,624.8,1259.9"/>
		</g>
	</g>
</g>
</svg>
