<?xml version="1.0" encoding="utf-8"?>
<!-- Generator: Adobe Illustrator 17.0.0, SVG Export Plug-In . SVG Version: 6.00 Build 0)  -->
<!DOCTYPE svg PUBLIC "-//W3C//DTD SVG 1.1//EN" "http://www.w3.org/Graphics/SVG/1.1/DTD/svg11.dtd">
<svg version="1.1" id="Layer_1" xmlns="http://www.w3.org/2000/svg" xmlns:xlink="http://www.w3.org/1999/xlink" x="0px" y="0px"
	 width="120px" height="30px" viewBox="-52 -13.5 120 30" enable-background="new -52 -13.5 120 30" xml:space="preserve">
<g>
	<path fill="#DA1A32" d="M-32.227-9.158h-17.737c-1.11,0-2.025,0.907-2.025,2.025v4.77h4.92v-0.78c0-0.607,0.487-1.095,1.095-1.095
		h9.757c0.607,0,1.095,0.488,1.095,1.095v0.78h4.92v-4.77C-30.209-8.25-31.117-9.158-32.227-9.158z"/>
	<path fill="#DA1A32" d="M-35.121,6.143c0,0.608-0.488,1.095-1.095,1.095h-9.757c-0.608,0-1.095-0.487-1.095-1.095v-0.78h-4.92v4.77
		c0,1.11,0.907,2.025,2.025,2.025h17.737c1.11,0,2.025-0.908,2.025-2.025v-4.77h-4.92V6.143L-35.121,6.143z"/>
	<rect x="-51.989" y="-0.96" fill="#DA1A32" width="4.92" height="4.92"/>
	<rect x="-35.121" y="-0.96" fill="#DA1A32" width="4.92" height="4.92"/>
</g>
<path fill="#FFFFFF" d="M68.011,5.633c0-0.765-0.623-1.38-1.38-1.38c-0.765,0-1.38,0.623-1.38,1.38c0,0.765,0.623,1.38,1.38,1.38
	C67.388,7.013,68.011,6.397,68.011,5.633z M66.631,6.675c-0.577,0-1.042-0.465-1.042-1.042s0.465-1.042,1.042-1.042
	c0.577,0,1.043,0.465,1.043,1.042S67.201,6.675,66.631,6.675z"/>
<path fill="#FFFFFF" d="M67.148,5.378L67.148,5.378c0-0.143-0.037-0.247-0.113-0.323c-0.082-0.082-0.21-0.128-0.367-0.128h-0.51
	v1.358h0.277V5.843h0.18l0.248,0.443h0.323l-0.285-0.503C67.044,5.715,67.148,5.588,67.148,5.378z M66.864,5.393
	c0,0.12-0.075,0.203-0.225,0.203h-0.21V5.183h0.202C66.781,5.183,66.864,5.25,66.864,5.393L66.864,5.393L66.864,5.393z"/>
<path fill="#FFFFFF" d="M-15.111,1.598V1.41c0-3.277-2.145-5.655-5.07-5.655c-2.94,0-5.108,2.415-5.108,5.67v0.188
	c0,3.278,2.145,5.633,5.07,5.633C-17.279,7.245-15.111,4.845-15.111,1.598z M-22.927,1.552V1.425c0-2.063,1.065-3.585,2.707-3.585
	c1.605,0,2.753,1.545,2.753,3.607v0.128c0,2.062-1.065,3.607-2.708,3.607C-21.779,5.183-22.927,3.615-22.927,1.552z"/>
<path fill="#FFFFFF" d="M-3.892,1.635V1.343c0-3.735-2.085-5.587-4.297-5.587c-1.583,0-2.542,0.915-3.232,1.98v-1.77h-2.355V10.17
	h2.355V5.355c0.668,0.982,1.627,1.875,3.232,1.875C-5.954,7.223-3.892,5.348-3.892,1.635z M-11.459,1.598v-0.21
	c0-2.168,1.207-3.548,2.625-3.548s2.565,1.357,2.565,3.562V1.59c0,2.213-1.125,3.547-2.565,3.547
	C-10.251,5.138-11.459,3.765-11.459,1.598z"/>
<path fill="#FFFFFF" d="M6.316,5.535l-1.23-1.462c-0.728,0.713-1.5,1.17-2.543,1.17c-1.44,0-2.587-1.005-2.798-2.858h6.922
	c0.022-0.33,0.022-0.668,0.022-0.81c0-3.315-1.582-5.82-4.59-5.82c-2.708,0-4.71,2.377-4.71,5.692v0.165
	c0,3.465,2.213,5.633,5.047,5.633C4.089,7.245,5.319,6.6,6.316,5.535z M2.109-2.265c1.38,0,2.168,1.275,2.295,3.022h-4.672
	C-0.104-1.117,0.811-2.265,2.109-2.265z"/>
<path fill="#FFFFFF" d="M13.614-4.245c-1.5,0-2.4,0.855-3.022,1.837v-1.628H8.236V7.02h2.355V0.323c0-1.523,0.855-2.437,2.085-2.437
	c1.252,0,1.98,0.855,1.98,2.4V7.02h2.355v-7.403C17.011-2.745,15.743-4.245,13.614-4.245z"/>
<path fill="#FFFFFF" d="M26.513,3.87V3.847c0-1.732-1.29-2.52-3-3.293c-1.29-0.585-2.168-0.96-2.168-1.687v-0.045
	c0-0.607,0.525-1.087,1.395-1.087c0.877,0,1.793,0.42,2.625,0.983l1.005-1.732C25.328-3.765,24.016-4.2,22.786-4.2
	c-2.062,0-3.653,1.252-3.653,3.233v0.045c0,1.815,1.38,2.565,3.022,3.277c1.313,0.562,2.167,0.915,2.167,1.71v0.023
	c0,0.69-0.563,1.208-1.545,1.208s-2.04-0.48-3.045-1.29l-1.103,1.687c1.275,1.065,2.798,1.545,4.11,1.545
	C24.864,7.223,26.513,6.038,26.513,3.87z"/>
<path fill="#FFFFFF" d="M33.811,6.705V4.763c-0.398,0.21-0.81,0.315-1.275,0.315c-0.75,0-1.185-0.352-1.185-1.208v-5.88h2.483
	v-2.025h-2.483V-7.02h-2.355v2.985h-1.208l0.39,2.025h0.825v6.36c0,2.145,1.23,2.835,2.857,2.835
	C32.641,7.185,33.264,6.997,33.811,6.705z"/>
<path fill="#FFFFFF" d="M42.841-3.038c-0.713-0.728-1.815-1.125-3.255-1.125c-1.477,0-2.588,0.352-3.653,0.878l0.667,1.875
	c0.728-0.33,1.605-0.668,2.67-0.668c1.5,0,2.378,0.773,2.378,2.25V0.63c-0.75-0.247-1.5-0.435-2.542-0.435
	c-2.333,0-3.922,1.17-3.922,3.548v0.105c0,2.145,1.545,3.375,3.375,3.375c1.44,0,2.415-0.623,3.068-1.56V7.02h2.317V0.158
	C43.944-1.222,43.569-2.302,42.841-3.038z M41.671,3.3c0,1.252-1.042,2.167-2.4,2.145c-1.02-0.023-1.792-0.645-1.792-1.755V3.645
	c0-1.17,0.795-1.853,2.145-1.853c0.795,0,1.5,0.165,2.04,0.397L41.671,3.3L41.671,3.3z"/>
<path fill="#FFFFFF" d="M53.956,5.58l-1.275-1.56c-0.645,0.645-1.29,1.125-2.25,1.125c-1.605,0-2.73-1.44-2.73-3.585V1.455
	c0-2.085,1.125-3.562,2.67-3.562c0.998,0,1.65,0.502,2.235,1.102l1.313-1.732c-0.915-0.915-1.958-1.5-3.547-1.5
	c-2.895,0-5.048,2.377-5.048,5.67v0.21c0,3.293,2.085,5.61,4.965,5.61C51.976,7.245,53.086,6.555,53.956,5.58z"/>
<g>
	<polygon fill="#FFFFFF" points="61.171,1.283 59.521,3.06 61.734,7.013 64.471,7.013 	"/>
	<polygon fill="#FFFFFF" points="61.569,-4.035 57.796,0.825 57.796,-8.04 55.441,-8.04 55.441,7.013 57.796,7.013 57.796,3.825 
		64.366,-4.035 	"/>
</g>
</svg>
