<?xml version="1.0" encoding="utf-8"?>
<!-- Generator: Adobe Illustrator 17.0.0, SVG Export Plug-In . SVG Version: 6.00 Build 0)  -->
<!DOCTYPE svg PUBLIC "-//W3C//DTD SVG 1.1//EN" "http://www.w3.org/Graphics/SVG/1.1/DTD/svg11.dtd">
<svg version="1.1" id="Layer_1" xmlns="http://www.w3.org/2000/svg" xmlns:xlink="http://www.w3.org/1999/xlink" x="0px" y="0px"
	 width="16px" height="16px" viewBox="102 54 16 16" enable-background="new 102 54 16 16" xml:space="preserve">
<g>
	<g>
		<path fill="#4E4540" d="M118,67.734c0-0.131-0.106-0.237-0.237-0.237c-0.131,0-0.237,0.106-0.237,0.237s0.106,0.237,0.237,0.237
			C117.894,67.971,118,67.864,118,67.734z M117.763,67.912c-0.099,0-0.179-0.08-0.179-0.179c0-0.099,0.08-0.179,0.179-0.179
			c0.099,0,0.179,0.08,0.179,0.179C117.942,67.832,117.861,67.912,117.763,67.912z"/>
		<path fill="#4E4540" d="M117.852,67.69v-0.001c0-0.023-0.007-0.041-0.02-0.054c-0.015-0.015-0.036-0.022-0.063-0.022h-0.087v0.233
			h0.048v-0.076h0.03l0.043,0.076h0.055l-0.05-0.086C117.834,67.748,117.852,67.726,117.852,67.69z M117.803,67.692
			c0,0.021-0.013,0.035-0.038,0.035h-0.035v-0.07h0.035C117.789,67.657,117.803,67.668,117.803,67.692
			C117.803,67.692,117.803,67.692,117.803,67.692z"/>
		<path fill="#4E4540" d="M103.746,67.041v-0.032c0-0.562-0.368-0.969-0.869-0.969c-0.505,0-0.876,0.415-0.876,0.973v0.032
			c0,0.562,0.368,0.966,0.869,0.966C103.374,68.01,103.746,67.599,103.746,67.041z M102.404,67.034v-0.021
			c0-0.354,0.182-0.615,0.465-0.615c0.275,0,0.472,0.265,0.472,0.619v0.021c0,0.354-0.182,0.619-0.465,0.619
			C102.601,67.656,102.404,67.388,102.404,67.034z"/>
		<path fill="#4E4540" d="M105.67,67.048v-0.05c0-0.64-0.358-0.959-0.737-0.959c-0.272,0-0.436,0.157-0.555,0.34v-0.304h-0.404
			v2.436h0.404v-0.826c0.114,0.168,0.279,0.322,0.555,0.322C105.316,68.007,105.67,67.685,105.67,67.048z M104.371,67.041v-0.036
			c0-0.372,0.207-0.608,0.451-0.608c0.243,0,0.44,0.232,0.44,0.612v0.032c0,0.379-0.193,0.608-0.44,0.608
			C104.579,67.649,104.371,67.413,104.371,67.041z"/>
		<path fill="#4E4540" d="M107.422,67.717l-0.211-0.25c-0.125,0.122-0.257,0.2-0.436,0.2c-0.247,0-0.444-0.172-0.479-0.49h1.188
			c0.004-0.057,0.004-0.114,0.004-0.139c0-0.569-0.272-0.998-0.787-0.998c-0.465,0-0.809,0.408-0.809,0.977v0.029
			c0,0.594,0.379,0.966,0.866,0.966C107.039,68.01,107.25,67.899,107.422,67.717z M106.699,66.379c0.236,0,0.372,0.218,0.393,0.519
			h-0.801C106.32,66.576,106.477,66.379,106.699,66.379z"/>
		<path fill="#4E4540" d="M108.673,66.039c-0.257,0-0.411,0.147-0.519,0.315v-0.279h-0.404v1.896h0.404v-1.148
			c0-0.261,0.147-0.418,0.358-0.418c0.215,0,0.34,0.147,0.34,0.411v1.155h0.404v-1.27C109.256,66.297,109.038,66.039,108.673,66.039
			z"/>
		<path fill="#4E4540" d="M110.885,67.431v-0.004c0-0.297-0.222-0.433-0.515-0.565c-0.222-0.1-0.372-0.165-0.372-0.29v-0.007
			c0-0.104,0.089-0.186,0.24-0.186s0.308,0.072,0.451,0.168l0.172-0.297c-0.179-0.129-0.404-0.204-0.615-0.204
			c-0.354,0-0.626,0.215-0.626,0.554v0.007c0,0.311,0.236,0.44,0.519,0.561c0.225,0.097,0.372,0.157,0.372,0.293v0.004
			c0,0.118-0.097,0.207-0.265,0.207c-0.168,0-0.35-0.082-0.522-0.222l-0.19,0.29c0.218,0.182,0.479,0.265,0.705,0.265
			C110.603,68.007,110.885,67.803,110.885,67.431z"/>
		<path fill="#4E4540" d="M112.137,67.917v-0.333c-0.068,0.036-0.139,0.054-0.218,0.054c-0.129,0-0.204-0.061-0.204-0.207v-1.009
			h0.426v-0.347h-0.426v-0.512h-0.404v0.512h-0.208l0.066,0.347h0.141v1.091c0,0.368,0.211,0.487,0.49,0.487
			C111.937,68,112.044,67.967,112.137,67.917z"/>
		<path fill="#4E4540" d="M113.686,66.247c-0.122-0.125-0.311-0.193-0.558-0.193c-0.254,0-0.444,0.061-0.626,0.15l0.114,0.322
			c0.125-0.057,0.275-0.114,0.458-0.114c0.257,0,0.408,0.132,0.408,0.386v0.079c-0.129-0.043-0.257-0.075-0.436-0.075
			c-0.401,0-0.673,0.2-0.673,0.608v0.018c0,0.368,0.265,0.58,0.58,0.58c0.247,0,0.415-0.107,0.526-0.268v0.232h0.397v-1.177
			C113.876,66.558,113.811,66.372,113.686,66.247z M113.485,67.334c0,0.215-0.179,0.372-0.411,0.368
			c-0.175-0.004-0.308-0.111-0.308-0.3v-0.007c0-0.2,0.136-0.318,0.368-0.318c0.136,0,0.257,0.029,0.35,0.068V67.334z"/>
		<path fill="#4E4540" d="M115.594,67.724l-0.218-0.268c-0.111,0.111-0.222,0.193-0.386,0.193c-0.275,0-0.468-0.247-0.468-0.615
			v-0.018c0-0.358,0.193-0.612,0.458-0.612c0.172,0,0.283,0.086,0.383,0.19l0.225-0.297c-0.157-0.157-0.336-0.257-0.608-0.257
			c-0.497,0-0.866,0.408-0.866,0.973v0.036c0,0.565,0.358,0.962,0.851,0.962C115.254,68.01,115.444,67.892,115.594,67.724z"/>
		<g>
			<polygon fill="#4E4540" points="116.831,66.987 116.547,67.292 116.928,67.971 117.396,67.971 			"/>
			<polygon fill="#4E4540" points="116.899,66.075 116.252,66.908 116.252,65.388 115.847,65.388 115.847,67.971 116.252,67.971 
				116.252,67.424 117.379,66.075 			"/>
		</g>
	</g>
	<g>
		<path fill="#DA1A32" d="M113.564,55.493h-7.129c-0.448,0-0.813,0.366-0.813,0.813v1.917h1.977V57.91c0-0.243,0.197-0.44,0.44-0.44
			h3.921c0.243,0,0.44,0.197,0.44,0.44v0.313h1.977v-1.917C114.378,55.859,114.012,55.493,113.564,55.493z"/>
		<path fill="#DA1A32" d="M112.401,61.645c0,0.243-0.197,0.44-0.44,0.44h-3.921c-0.243,0-0.44-0.197-0.44-0.44v-0.313h-1.977v1.917
			c0,0.448,0.366,0.813,0.813,0.813h7.129c0.448,0,0.813-0.366,0.813-0.813v-1.917H112.4L112.401,61.645L112.401,61.645z"/>
		<rect x="105.622" y="58.789" fill="#DA1A32" width="1.977" height="1.977"/>
		<rect x="112.401" y="58.789" fill="#DA1A32" width="1.977" height="1.977"/>
	</g>
</g>
</svg>
