<?xml version="1.0" encoding="utf-8"?>
<!-- Generator: Adobe Illustrator 17.0.0, SVG Export Plug-In . SVG Version: 6.00 Build 0)  -->
<!DOCTYPE svg PUBLIC "-//W3C//DTD SVG 1.1//EN" "http://www.w3.org/Graphics/SVG/1.1/DTD/svg11.dtd">
<svg version="1.1" id="图层_1" xmlns="http://www.w3.org/2000/svg" xmlns:xlink="http://www.w3.org/1999/xlink" x="0px" y="0px"
	 width="16px" height="16px" viewBox="0 0 16 16" enable-background="new 0 0 16 16" xml:space="preserve">
<circle fill="#2DB7F5" cx="1.342" cy="7.596" r="0.21"/>
<circle fill="#2DB7F5" cx="1.825" cy="7.002" r="0.21"/>
<circle fill="#2DB7F5" cx="0.745" cy="8.205" r="0.21"/>
<circle fill="#2DB7F5" cx="1.827" cy="8.199" r="0.21"/>
<circle fill="#999999" cx="1.288" cy="8.801" r="0.21"/>
<circle fill="#999999" cx="2.366" cy="7.602" r="0.21"/>
<circle fill="#999999" cx="1.287" cy="6.399" r="0.21"/>
<circle fill="#2DB7F5" cx="0.748" cy="7" r="0.21"/>
<circle fill="#999999" cx="0.21" cy="7.601" r="0.21"/>
<rect x="11.208" y="6.73" fill="#999999" width="0.36" height="1.68"/>
<rect x="5.236" y="7.155" fill="#999999" width="0.36" height="1.255"/>
<rect x="7.342" y="6.732" fill="#999999" width="0.36" height="1.678"/>
<rect x="5.236" y="6.732" fill="#999999" width="0.36" height="0.302"/>
<g>
	<g>
		<path fill="#999999" d="M4.689,7.708c0.06-0.023,0.457-0.145,0.457-0.475c0-0.33-0.36-0.494-0.435-0.502
			c-0.081-0.017-1.299,0-1.299,0v1.681h0.367V7.751l0.511,0.01l0.386,0.652h0.492C5.168,8.413,4.741,7.773,4.689,7.708z
			 M4.419,7.434L4.419,7.434l-0.624,0V7.007h0.624v0C4.536,7.009,4.63,7.104,4.63,7.221S4.536,7.433,4.419,7.434z"/>
	</g>
</g>
<path fill="#999999" d="M7.702,7.154h0.476c0,0,0.332,0.026,0.332,0.343s0,0.913,0,0.913H8.151V7.619c0,0-0.008-0.172-0.132-0.172
	c-0.125,0-0.318,0.007-0.318,0.007V7.154z"/>
<path fill="#999999" d="M8.632,7.154h0.232V6.732h0.305v0.422h0.302v0.292H9.174v0.602c0,0-0.005,0.136,0.297,0.119
	c0,0.096,0,0.244,0,0.244H9.059c0,0-0.19-0.037-0.19-0.415c0-0.377,0-0.539,0-0.539H8.632V7.154z"/>
<path fill="#999999" d="M11.025,8.103c0,0-0.65-0.002-0.711,0C10.253,8.105,10.01,7.955,10.01,7.57c0-0.385,0.21-0.535,0.39-0.535
	c0.18,0,0.626,0,0.626,0V6.73c0,0-0.688-0.007-0.753,0S9.604,6.908,9.604,7.522s0.442,0.88,0.626,0.888s0.796,0,0.796,0v-0.3"/>
<path fill="#999999" d="M13.2,7.803c0,0.379-0.319,0.686-0.712,0.686s-0.712-0.307-0.712-0.686c0-0.379,0.319-0.686,0.712-0.686
	S13.2,7.425,13.2,7.803z M12.488,7.421c-0.219,0-0.397,0.171-0.397,0.382s0.178,0.382,0.397,0.382s0.397-0.171,0.397-0.382
	S12.708,7.421,12.488,7.421z"/>
<path fill="#999999" d="M14.207,7.154h0.357L14.551,8.41H13.72c0,0-0.35-0.007-0.35-0.332c0-0.325,0-0.924,0-0.924h0.347V8.03
	c0,0,0.062,0.142,0.169,0.142s0.317,0,0.317,0L14.207,7.154z"/>
<g>
	<path fill="#999999" d="M15.645,6.737v0.417h-0.349c0,0-0.328-0.014-0.476,0.275c-0.148,0.288-0.096,0.547,0,0.712
		c0.096,0.165,0.235,0.27,0.473,0.27c0.237,0,0.352,0,0.352,0H16V6.737H15.645z M15.645,8.112l-0.342-0.004
		c0,0-0.33-0.132-0.237-0.456c0.047-0.201,0.283-0.21,0.283-0.21l0.296,0.004V8.112z"/>
</g>
<path fill="#999999" d="M7.067,7.155v1.319c0,0-0.019,0.371-0.307,0.371s-0.888,0-0.888,0V8.594h0.692c0,0,0.205-0.014,0.205-0.184
	H6.268c0,0-0.503-0.044-0.503-0.628s0.577-0.629,0.577-0.629L7.067,7.155z M6.519,7.451c0,0-0.347,0.007-0.347,0.397
	s0.597,0.288,0.597,0.288V7.451H6.519z"/>
</svg>
