<?xml version="1.0" encoding="utf-8"?>
<!-- Generator: Adobe Illustrator 19.0.0, SVG Export Plug-In . SVG Version: 6.00 Build 0)  -->
<svg version="1.1" id="图层_1" xmlns="http://www.w3.org/2000/svg" xmlns:xlink="http://www.w3.org/1999/xlink" x="0px" y="0px"
	 viewBox="0 0 100 100" style="enable-background:new 0 0 100 100;" xml:space="preserve">
<style type="text/css">
	.st0{fill:#070707;}
	.st1{fill:#499CD2;}
	.st2{fill:#489CD2;}
</style>
<g id="Calque_1" transform="matrix(4.16667,0,0,4.16667,-198.749,-374.543)">
	<path id="XMLID_23_" class="st0" d="M60.3,103.6c-0.4,0.3-0.9,0.2-1.2-0.2c-0.3-0.4-0.2-0.9,0.2-1.2c0.4-0.3,0.9-0.2,1.2,0.2
		C60.8,102.8,60.7,103.4,60.3,103.6 M60.9,102.2c-0.4-0.6-1.1-0.7-1.7-0.3c-0.6,0.4-0.7,1.2-0.3,1.7c0.3,0.5,1,0.7,1.5,0.4l0.5,0.8
		l0.4-0.3l-0.5-0.8C61.1,103.4,61.2,102.7,60.9,102.2"/>
	<path id="XMLID_22_" class="st1" d="M71,104.1h-0.3c0-2.4-2-4.3-4.4-4.3v-0.3C68.9,99.5,71,101.5,71,104.1"/>
	<path id="XMLID_21_" class="st2" d="M71.2,102.5c-0.4-1.5-1.6-2.7-3.1-3.2l0.1-0.2c1.6,0.5,2.9,1.8,3.2,3.3L71.2,102.5z"/>
	<path id="XMLID_20_" class="st2" d="M71.5,101.1c-0.4-0.8-1-1.5-1.8-2l0.1-0.2c0.8,0.5,1.4,1.2,1.8,2L71.5,101.1z"/>
	<g id="XMLID_10_" transform="matrix(0.24,0,0,0.24,7.44816,-9.11175)">
		<path id="XMLID_19_" class="st0" d="M167.7,471.1c0.7,0.4,1.9,0.7,3.2,0.7c2.8,0,4.2-1.3,4.2-3.2c0-1.4-0.8-2.4-2.6-3
			c-1.2-0.4-1.6-0.7-1.6-1.1c0-0.5,0.4-0.8,1.2-0.8c0.8,0,1.7,0.3,2.1,0.5l0.5-2.1c-0.6-0.3-1.6-0.6-2.7-0.6c-2.4,0-4,1.4-4,3.2
			c0,1.1,0.8,2.2,2.8,2.9c1.1,0.4,1.4,0.6,1.4,1.1s-0.4,0.8-1.3,0.8c-0.9,0-2.1-0.4-2.6-0.7L167.7,471.1z"/>
		<path id="XMLID_16_" class="st0" d="M180.5,471.8c2.6,0,5.1-1.6,5.1-5.2c0-3-2-5-5-5c-3.2,0-5.2,2-5.2,5.2
			C175.4,469.9,177.6,471.8,180.5,471.8L180.5,471.8z M180.5,469.6c-1.3,0-2-1.3-2-2.9c0-1.5,0.6-2.9,2-2.9c1.4,0,1.9,1.5,1.9,2.9
			C182.5,468.4,181.7,469.6,180.5,469.6L180.5,469.6z"/>
		<path id="XMLID_15_" class="st0" d="M186.5,471.6h3v-5.6c0-0.3,0-0.6,0.1-0.8c0.2-0.6,0.7-1.1,1.6-1.1c1.1,0,1.5,0.9,1.5,2.1v5.4
			h3v-5.8c0-2.9-1.5-4.2-3.5-4.2c-1.6,0-2.6,0.9-3,1.6h-0.1l-0.1-1.4h-2.6c0,0.9,0.1,1.9,0.1,3.1V471.6z"/>
		<path id="XMLID_12_" class="st0" d="M205.3,465.8c0-2.3-1-4.2-4.3-4.2c-1.8,0-3.1,0.5-3.8,0.9l0.6,1.9c0.6-0.4,1.7-0.7,2.7-0.7
			c1.5,0,1.8,0.7,1.8,1.3v0.1c-3.5,0-5.7,1.2-5.7,3.7c0,1.6,1.2,3,3.2,3c1.2,0,2.2-0.4,2.8-1.2h0.1l0.2,1h2.7
			c-0.1-0.5-0.2-1.4-0.2-2.4V465.8z M202.4,468c0,0.2,0,0.4-0.1,0.5c-0.2,0.6-0.8,1.1-1.6,1.1c-0.7,0-1.2-0.4-1.2-1.2
			c0-1.2,1.2-1.5,2.8-1.5V468z"/>
		<path id="XMLID_11_" class="st0" d="M206.7,471.6h3v-4.9c0-0.3,0-0.5,0.1-0.7c0.2-1,1-1.5,2.1-1.5c0.3,0,0.6,0,0.8,0.1v-2.9
			c-0.2,0-0.4-0.1-0.6-0.1c-1,0-2.1,0.6-2.6,2h-0.1l-0.1-1.8h-2.6c0.1,0.8,0.1,1.8,0.1,3.2V471.6z"/>
	</g>
	<g id="XMLID_2_" transform="matrix(0.24,0,0,0.24,-2.94141,5.65668)">
		<path id="XMLID_9_" class="st0" d="M275.8,400.4h-1.8v5.9c0,0.3-0.1,0.7-0.2,0.9c-0.3,0.8-1.1,1.6-2.3,1.6c-1.6,0-2.2-1.3-2.2-3.1
			v-5.3h-1.8v5.7c0,3.4,1.8,4.2,3.3,4.2c1.7,0,2.8-1,3.2-1.8h0l0.1,1.6h1.6c-0.1-0.8-0.1-1.6-0.1-2.7V400.4z"/>
		<path id="XMLID_6_" class="st0" d="M277.7,407.6c0,0.9,0,1.8-0.1,2.5h1.5l0.1-1.6h0c0.7,1.3,1.8,1.8,3.2,1.8
			c2.2,0,4.4-1.7,4.4-5.2c0-2.9-1.7-4.9-4.1-4.9c-1.6,0-2.7,0.7-3.3,1.8h0v-6.1h-1.8V407.6z M279.5,404.5c0-0.3,0-0.5,0.1-0.7
			c0.3-1.3,1.5-2.2,2.7-2.2c1.9,0,2.9,1.7,2.9,3.6c0,2.2-1.1,3.7-2.9,3.7c-1.3,0-2.3-0.8-2.6-2.1c0-0.2-0.1-0.4-0.1-0.6V404.5z"/>
		<path id="XMLID_3_" class="st0" d="M295.9,405.6c0-0.2,0.1-0.5,0.1-0.8c0-1.8-0.8-4.6-4-4.6c-2.8,0-4.6,2.3-4.6,5.2
			c0,2.9,1.8,4.9,4.8,4.9c1.5,0,2.6-0.3,3.2-0.6l-0.3-1.3c-0.6,0.3-1.4,0.5-2.7,0.5c-1.8,0-3.3-1-3.3-3.3H295.9z M289.1,404.3
			c0.1-1.2,0.9-2.9,2.7-2.9c2,0,2.4,1.7,2.4,2.9H289.1z"/>
	</g>
</g>
</svg>
