<?xml version="1.0" encoding="utf-8"?>
<!-- Generator: Adobe Illustrator 17.0.0, SVG Export Plug-In . SVG Version: 6.00 Build 0)  -->
<!DOCTYPE svg PUBLIC "-//W3C//DTD SVG 1.1//EN" "http://www.w3.org/Graphics/SVG/1.1/DTD/svg11.dtd">
<svg version="1.1" id="图层_1" xmlns="http://www.w3.org/2000/svg" xmlns:xlink="http://www.w3.org/1999/xlink" x="0px" y="0px"
	 width="16px" height="16px" viewBox="0 0 16 16" enable-background="new 0 0 16 16" xml:space="preserve">
<path fill="#813CF3" d="M6.176,2.065L9.59,4.017V7.85L6.176,5.896C6.176,5.897,6.176,2.065,6.176,2.065z M9.773,7.83l3.385-1.946
	V2.077L9.773,4.009V7.83z M2.561,3.831l3.415,1.952V1.952L2.561,0V3.831z M6.176,9.954l3.414,1.952V8.06L6.176,6.108
	C6.176,6.109,6.176,9.954,6.176,9.954z"/>
<g>
	<g>
		<rect x="0" y="12.962" width="2.174" height="0.457"/>
		<rect x="0.823" y="13.419" width="0.542" height="2.374"/>
		<path d="M3.76,15.794h0.482v-1.359l0.557-0.29l-0.03-0.456l-0.557,0.264c0,0-0.015-0.213-0.03-0.228H3.738v2.069H3.76z"/>
		<path d="M5.047,15.794h0.482v-1.359l0.557-0.29l-0.03-0.456l-0.557,0.264c0,0-0.015-0.213-0.03-0.228H5.025v2.069H5.047z"/>
		<path d="M11.741,15.794h0.482v-1.359l0.557-0.29l-0.03-0.456l-0.557,0.264c0,0-0.015-0.213-0.03-0.228h-0.444v2.069H11.741z"/>
		<path d="M8.436,15.809h0.508L8.95,13.3c0,0,0.047-0.166,0.527-0.088c0.019-0.111,0.072-0.348,0.072-0.348s-0.435-0.207-0.794-0.04
			c-0.141,0.07-0.318,0.19-0.318,0.623S8.436,15.809,8.436,15.809z"/>
		<rect x="8.094" y="13.728" width="1.353" height="0.397"/>
		<path d="M13.499,15.794v-1.442c0,0,0.459-0.203,0.565-0.196c0.117,0.015,0.156,0.043,0.156,0.314s0,1.342,0,1.342h0.518V14.37
			c0,0,0.409-0.237,0.606-0.202c0.112,0.029,0.147,0.094,0.147,0.205s0,1.439,0,1.439h0.508v-1.611c0,0,0.039-0.513-0.453-0.508
			c-0.385,0.006-0.702,0.102-0.83,0.21c0,0-0.132-0.246-0.383-0.238s-0.668,0.092-0.896,0.242c-0.013-0.079-0.036-0.178-0.051-0.187
			h-0.389v2.093H13.5L13.499,15.794z"/>
		<g>
			<path d="M10.045,15.734c-0.132-0.073-0.234-0.18-0.303-0.32c-0.07-0.14-0.105-0.309-0.105-0.506v-0.35
				c0-0.195,0.035-0.361,0.105-0.5s0.171-0.244,0.303-0.317s0.292-0.109,0.478-0.109s0.346,0.036,0.478,0.109
				s0.234,0.178,0.303,0.317s0.105,0.305,0.105,0.5v0.356c0,0.196-0.035,0.363-0.105,0.502s-0.171,0.245-0.303,0.318
				s-0.292,0.11-0.478,0.11C10.337,15.843,10.177,15.807,10.045,15.734z M10.865,15.303c0.081-0.092,0.121-0.222,0.121-0.389v-0.356
				c0-0.167-0.04-0.296-0.121-0.387s-0.195-0.137-0.343-0.137s-0.262,0.046-0.343,0.137s-0.121,0.22-0.121,0.387v0.356
				c0,0.167,0.04,0.297,0.121,0.389s0.195,0.139,0.343,0.139C10.671,15.442,10.785,15.396,10.865,15.303z"/>
		</g>
		<path d="M6.309,13.783c0,0,0.945-0.279,1.276,0.023c0.158,0.147,0.275,0.203,0.275,0.584s0,1.431,0,1.431H7.431l-0.009-0.154
			c0,0-0.301,0.173-0.512,0.181s-0.733-0.053-0.685-0.64c0.023-0.309,0.178-0.535,0.494-0.545s0.638-0.005,0.638-0.005l-0.003-0.299
			c0,0,0.028-0.277-0.362-0.272s-0.604,0.081-0.604,0.081L6.309,13.783z M7.353,15.022H6.877c0,0-0.107,0.013-0.143,0.111
			s-0.024,0.361,0.235,0.318c0.26-0.043,0.384-0.117,0.384-0.117S7.353,15.022,7.353,15.022z"/>
		<path d="M2.465,15.419c0.397,0.088,0.832-0.075,0.832-0.075s0.077,0.258,0.077,0.344c-0.311,0.179-0.676,0.153-1.02,0.138
			c-0.7-0.09-0.603-0.708-0.603-0.708s0-0.626,0-0.75s-0.006-0.696,0.791-0.696c0.949,0,0.875,0.735,0.875,0.735v0.538H2.261
			C2.214,15.223,2.34,15.389,2.465,15.419z M2.274,14.515h0.678v-0.156c0,0-0.064-0.314-0.32-0.314s-0.341,0.168-0.35,0.235
			c-0.009,0.068-0.008,0.243-0.008,0.243"/>
	</g>
</g>
</svg>
