<?xml version="1.0" encoding="utf-8"?>
<!-- Generator: Adobe Illustrator 17.0.0, SVG Export Plug-In . SVG Version: 6.00 Build 0)  -->
<!DOCTYPE svg PUBLIC "-//W3C//DTD SVG 1.1//EN" "http://www.w3.org/Graphics/SVG/1.1/DTD/svg11.dtd">
<svg version="1.1" id="图层_1" xmlns="http://www.w3.org/2000/svg" xmlns:xlink="http://www.w3.org/1999/xlink" x="0px" y="0px"
	 width="16px" height="16px" viewBox="32.195 0 16 16" enable-background="new 32.195 0 16 16" xml:space="preserve">
<g>
	<path fill="#565656" d="M38.178,7.286c0,0-0.075-0.624-0.774-0.636c0,0-0.399-0.05-0.761,0.312c0,0-0.2-0.312-0.661-0.312
		c-0.462,0-0.736,0.312-0.736,0.312S35.034,6.65,34.61,6.65c-0.424,0-0.611,0.275-0.699,0.437l-0.487,1.173l-0.599-1.41
		c0,0-0.125-0.275-0.424-0.175c-0.299,0.1-0.187,0.424-0.175,0.437l0.824,1.784c0,0,0.087,0.187,0.362,0.187
		c0.275,0,0.349-0.187,0.424-0.324s0.699-1.497,0.699-1.497s0.125-0.062,0.175,0.05v1.472c0,0,0.037,0.299,0.299,0.299
		c0.262,0,0.349-0.162,0.374-0.299c0.025-0.137,0-1.26,0-1.26s0.05-0.299,0.362-0.299c0.312,0,0.349,0.312,0.349,0.312v1.223
		c0,0,0.025,0.312,0.349,0.312c0.337,0,0.337-0.299,0.337-0.299V7.523c0,0,0.025-0.299,0.374-0.299c0,0,0.275-0.025,0.349,0.312
		v1.248c0,0,0.05,0.299,0.349,0.299c0.299,0,0.312-0.25,0.324-0.312C38.191,8.684,38.178,7.286,38.178,7.286z M39.264,8.497
		L38.677,6.8c0,0-0.05-0.162-0.225-0.1c0,0-0.125,0.037-0.1,0.2l0.736,2.059c0,0,0.037,0.1,0.162,0.1c0,0,0.1,0.012,0.175-0.1
		l0.599-1.697l0.562,1.597c0,0,0.075,0.2,0.212,0.2s0.212-0.187,0.225-0.225c0.012-0.025,0.699-1.922,0.699-1.922
		s0.062-0.137-0.075-0.2c-0.137-0.062-0.225,0.037-0.25,0.112c-0.025,0.075-0.599,1.672-0.599,1.672L40.2,6.787
		c0,0-0.05-0.112-0.175-0.1c-0.125,0-0.175,0.125-0.187,0.187C39.813,6.937,39.264,8.497,39.264,8.497z M42.533,8.808
		c-0.287-0.025-0.599-0.337-0.437-0.636c0.162-0.312,0.537-0.312,0.774-0.299c0.237,0.012,0.562,0.1,0.562,0.1
		C43.481,8.771,42.82,8.821,42.533,8.808C42.533,8.808,42.533,8.808,42.533,8.808z M43.157,6.737
		c-0.611-0.125-1.036,0.075-1.098,0.1c-0.05,0.025-0.112,0.112-0.05,0.212c0.062,0.1,0.187,0.037,0.187,0.037
		c0.362-0.15,0.811-0.125,1.048,0.062c0.237,0.187,0.162,0.549,0.162,0.549c-0.499-0.125-0.736-0.1-0.736-0.1
		c-0.711,0-0.973,0.412-0.961,0.786c0.012,0.374,0.399,0.761,0.936,0.699s0.774-0.399,0.774-0.399v0.225c0,0.012,0,0.15,0.15,0.15
		s0.162-0.15,0.162-0.15V7.511C43.706,6.874,43.157,6.737,43.157,6.737z M44.168,6.837v2.071c0,0,0.025,0.137,0.175,0.137
		c0.15,0,0.162-0.137,0.162-0.15V7.885c0,0,0.075-0.774,0.824-0.849c0,0,0.137-0.012,0.137-0.162s-0.125-0.187-0.175-0.187
		c-0.037,0-0.487,0.025-0.786,0.562V6.837c0,0-0.012-0.137-0.175-0.137S44.168,6.837,44.168,6.837
		C44.168,6.837,44.168,6.837,44.168,6.837z M45.777,7.748c0,0,0.062-0.786,0.761-0.786c0.649,0,0.699,0.786,0.699,0.786H45.777z
		 M46.514,6.687c0,0-0.736-0.062-1.023,0.824c0,0-0.1,0.487,0.037,0.849c0,0,0.237,0.674,1.023,0.711c0,0,0.574,0.05,0.911-0.387
		c0,0,0.037-0.062-0.012-0.15s-0.15-0.087-0.212-0.037C47.175,8.546,47,8.796,46.551,8.771c-0.424-0.012-0.761-0.362-0.774-0.774
		h1.66c0,0,0.112,0,0.125-0.137S47.524,6.687,46.514,6.687z"/>
	<path fill="#565656" d="M48.195,6.807c0,0.164-0.133,0.297-0.297,0.297s-0.297-0.133-0.297-0.297c0-0.164,0.133-0.297,0.297-0.297
		S48.195,6.643,48.195,6.807z M47.898,6.561c-0.136,0-0.246,0.11-0.246,0.246c0,0.136,0.11,0.246,0.246,0.246
		s0.246-0.11,0.246-0.246C48.144,6.671,48.034,6.561,47.898,6.561z"/>
	<g>
		<g>
			<path fill="#565656" d="M48.007,6.754c0,0.019-0.005,0.034-0.015,0.047c-0.01,0.013-0.026,0.022-0.048,0.029v0.001l0.079,0.109
				h-0.058l-0.072-0.103h-0.033V6.94H47.81V6.674h0.081c0.013,0,0.026,0.001,0.037,0.002c0.012,0.002,0.021,0.004,0.03,0.007
				c0.016,0.006,0.028,0.015,0.036,0.027C48.003,6.722,48.007,6.736,48.007,6.754z M47.883,6.797c0.011,0,0.021,0,0.028-0.001
				s0.014-0.002,0.02-0.004c0.01-0.004,0.017-0.009,0.02-0.015s0.006-0.014,0.006-0.022c0-0.007-0.001-0.013-0.004-0.019
				c-0.003-0.005-0.008-0.01-0.015-0.013c-0.005-0.002-0.01-0.004-0.017-0.005c-0.007-0.001-0.016-0.001-0.026-0.001h-0.035v0.081
				H47.883z"/>
		</g>
	</g>
</g>
</svg>
