<?xml version="1.0" encoding="utf-8"?>
<!-- Generator: Adobe Illustrator 19.0.0, SVG Export Plug-In . SVG Version: 6.00 Build 0)  -->
<svg version="1.1" id="图层_1" xmlns="http://www.w3.org/2000/svg" xmlns:xlink="http://www.w3.org/1999/xlink" x="0px" y="0px"
	 viewBox="170 10 20 20" style="enable-background:new 170 10 20 20;" xml:space="preserve">
<style type="text/css">
	.st0{fill:#666666;}
</style>
<g>
	<g transform="scale(0.1953125, 0.1953125)">
		<path class="st0" d="M948.4,148.7v-24.4h9.7v-14.6H924v14.6h9.7v24.4h-24.4v-24.4h9.7v-14.6H885v14.6h9.7v24.4h-24.4v-24.4h9.7
			v-14.6v-4.9h4.9h34.1v-9.7h-24.4v-39h53.6v39H924v9.7h34.1h4.9v4.9v14.6h9.7v24.4L948.4,148.7L948.4,148.7z M875.3,129.2v14.6
			h14.6v-14.6H875.3z M943.5,90.2V61h-43.9v29.2H943.5z M914.3,129.2v14.6h14.6v-14.6H914.3z M967.9,129.2h-14.6v14.6h14.6V129.2z
			 M919.2,80.5h-9.7v-9.7h9.7V80.5z M933.8,80.5H924v-9.7h9.7V80.5z"/>
	</g>
</g>
</svg>
