<?xml version="1.0" encoding="utf-8"?>
<!-- Generator: Adobe Illustrator 19.0.0, SVG Export Plug-In . SVG Version: 6.00 Build 0)  -->
<svg version="1.1" id="图层_1" xmlns="http://www.w3.org/2000/svg" xmlns:xlink="http://www.w3.org/1999/xlink" x="0px" y="0px"
	 viewBox="130 50 20 20" style="enable-background:new 130 50 20 20;" xml:space="preserve">
<style type="text/css">
	.st0{fill:#FFFFFF;}
</style>
<g>
	<g transform="scale(0.1953125, 0.1953125)">
		<path class="st0" d="M716.8,358.4c-0.7,0-1.4,0-2.2,0c-2.4-0.1-3.8-1.1-4.6-3.3c-0.9-2.4-2-4.8-2.9-7.2c-1.4-3.8-9.2-6.7-12.8-5
			c-2.2,1.1-4.4,2-6.7,3c-2.1,1-3.6,0.7-5.3-0.9c-1.2-1.1-2.3-2.3-3.4-3.4c-1.5-1.5-1.7-3.1-0.9-5c1.2-2.8,2.5-5.5,3.3-8.3
			c1.1-3.6-1.7-9.7-5-11.3c-2.3-1.1-4.8-2-7.3-2.9c-2.5-1-3.4-2.2-3.5-4.8c0-1.4,0-2.8,0-4.2c0.1-2.6,1-3.7,3.5-4.7
			c2.5-1,5-1.8,7.4-3.1c4-2.1,6.2-8.4,4.6-12.6c-0.9-2.3-2-4.5-3-6.7c-0.9-2.1-0.7-3.7,0.9-5.3c1.1-1.1,2.2-2.2,3.3-3.3
			c1.6-1.6,3.2-1.9,5.3-1c2.7,1.1,5.4,2.4,8.1,3.3c3.6,1.1,9.6-1.6,11.3-5c1.2-2.4,2-4.9,2.9-7.4c0.9-2.3,2.2-3.3,4.6-3.3
			c1.6,0,3.1,0,4.7,0c2.1,0,3.4,1.1,4.2,3c0.9,2.4,2,4.8,2.9,7.3c1.5,4.2,9.7,7.1,13.4,5.1c2-1.1,4.1-1.9,6.2-2.9
			c2.1-1,3.7-0.7,5.3,0.9c1.1,1.1,2.3,2.3,3.4,3.4c1.5,1.5,1.7,3.1,0.9,5c-1.1,2.7-2.4,5.4-3.3,8.1c-1.1,3.5,1.2,9.2,4.5,11
			c2.4,1.3,5,2.3,7.6,3.3c2.7,1,3.6,2.3,3.7,5.1c0,1.3,0,2.6,0,3.8c-0.1,2.6-1.1,3.9-3.5,4.9c-2.5,1-5,1.8-7.4,3
			c-3.9,2.1-6.2,8.2-4.7,12.4c0.8,2.2,1.9,4.4,2.9,6.5c1.1,2.4,0.9,3.9-1,5.9c-1,1-2,2.1-3.1,3.1c-1.6,1.6-3.2,1.8-5.3,0.9
			c-2.6-1.1-5.1-2.4-7.8-3.2c-4-1.2-9.9,1.5-11.8,5.2c-1,2-1.7,4.1-2.4,6.2c-1.3,3.6-2.3,4.3-6.1,4.3
			C717.4,358.4,717.1,358.4,716.8,358.4C716.8,358.4,716.8,358.4,716.8,358.4z M691.2,307.2c-0.1,14,11.3,25.5,25.2,25.6
			c14.3,0.1,25.8-11.2,25.9-25.3c0.1-14.2-11.2-25.7-25.2-25.8C702.6,281.6,691.3,292.7,691.2,307.2z M716.7,322.5
			c-8.3,0.1-15.2-6.8-15.4-15.2c-0.2-8.4,6.9-15.5,15.3-15.6c8.3,0,15.3,6.8,15.4,15.1C732.2,315.6,725.5,322.4,716.7,322.5z"/>
	</g>
</g>
</svg>
