<?xml version="1.0" encoding="utf-8"?>
<!-- Generator: Adobe Illustrator 19.0.0, SVG Export Plug-In . SVG Version: 6.00 Build 0)  -->
<svg version="1.1" id="图层_1" xmlns="http://www.w3.org/2000/svg" xmlns:xlink="http://www.w3.org/1999/xlink" x="0px" y="0px"
	 viewBox="180 0 20 20" style="enable-background:new 180 0 20 20;" xml:space="preserve">
<style type="text/css">
	.st0{fill:#666666;}
</style>
<g>
	<g transform="scale(0.1953125, 0.1953125)">
		<path class="st0" d="M992,22.4h19.2c1.8,0,3.2-1.4,3.2-3.2s-1.4-3.2-3.2-3.2H992c-1.8,0-3.2,1.4-3.2,3.2S990.2,22.4,992,22.4z
			 M979.2,3.2v25.6h-50.1c-4.1,0-7.5,3.4-7.5,7.5v42.6c0,4.1,3.4,7.5,7.5,7.5h27.7v6.4H944c-1.8,0-3.2,1.4-3.2,3.2s1.4,3.2,3.2,3.2
			h32c1.8,0,3.2-1.4,3.2-3.2s-1.4-3.2-3.2-3.2h-12.8v-6.4h16V96v3.2h44.8v-96H979.2z M928,78.9V36.3c0-0.6,0.5-1.1,1.1-1.1h50.1
			h11.7c0.1,0,0.2,0,0.2,0c0.1,0,0.3,0.1,0.4,0.2c0,0,0.1,0,0.1,0.1c0,0,0.1,0.1,0.2,0.1c0,0,0,0.1,0.1,0.1c0.1,0.1,0.1,0.3,0.2,0.4
			c0,0.1,0,0.2,0,0.2v42.6c0,0.1,0,0.2,0,0.2c0,0.1-0.1,0.3-0.2,0.4c0,0,0,0.1-0.1,0.1c0,0-0.1,0.1-0.2,0.1c0,0-0.1,0-0.1,0.1
			c-0.1,0.1-0.3,0.1-0.4,0.2c-0.1,0-0.2,0-0.2,0h-11.7h-50.1C928.5,80,928,79.5,928,78.9z M1017.6,92.8h-32v-6.4h5.3
			c4.1,0,7.5-3.4,7.5-7.5V36.3c0-4.1-3.4-7.5-7.5-7.5h-5.3V9.6h32V92.8z"/>
	</g>
</g>
</svg>
