<?xml version="1.0" encoding="utf-8"?>
<!-- Generator: Adobe Illustrator 19.0.0, SVG Export Plug-In . SVG Version: 6.00 Build 0)  -->
<svg version="1.1" id="图层_1" xmlns="http://www.w3.org/2000/svg" xmlns:xlink="http://www.w3.org/1999/xlink" x="0px" y="0px"
	 viewBox="0 0 20 20" style="enable-background:new 0 0 20 20;" xml:space="preserve">
<style type="text/css">
	.st0{fill:#666666;}
</style>
<g>
	<g transform="scale(0.0390625, 0.0390625)">
		<path class="st0" d="M431,218.5c0.1-3,0.1-5.8,0.1-7.9c0-36.3-14.1-70.3-39.8-96c-25.7-25.7-59.7-39.8-96-39.8
			c-28.1,0-55.7,9.6-79.9,27.7c-16.5,12.3-30.4,28.1-40.4,45.6c-11-5.7-23.1-8.7-35.7-8.7c-20.1,0-39.5,9.3-54.5,26.3
			c-10,11.3-17.1,25.1-20.6,39.4c-17,6.7-32.1,18.3-43.1,33C8.3,255.3,1.5,275.8,1.5,297.3c0,54.6,44.4,99,99,99V396h321.2v0.1
			c49,0,88.8-39.9,88.8-88.8C510.5,261.7,475.4,223.5,431,218.5z M425.3,375.5L425.3,375.5H94.5c-40.4-3.1-72.3-37-72.3-78.2
			c0-34,21.5-64.2,53.6-74.9c0.1,0,0.2-0.1,0.3-0.1c3.2-0.9,5.7-3.5,6.2-7c4.6-27.5,28.4-55.3,57.2-55.3c11.8,0,23.1,3.6,32.7,10.3
			c1,0.9,2.1,1.6,3.4,2.1l0,0c5,1.9,10.6-0.5,12.9-5.3c19.5-42,63.1-71.6,107-71.6c63.5,0,115.2,51.7,115.2,115.2
			c0,4.3-0.2,11.1-0.6,17c-0.4,5.3,3.3,10,8.6,10.9l0,0c0.9,0.2,1.8,0.2,2.7,0.1l0,0c37.6,0,68.8,31.1,68.8,68.8
			C490,343.8,461.3,373.7,425.3,375.5z"/>
	</g>
</g>
<path class="st0" d="M11.2,10.2H5.4c-0.3,0-0.5-0.2-0.5-0.5l0,0c0-0.3,0.2-0.5,0.5-0.5h5.8c0.3,0,0.5,0.2,0.5,0.5l0,0
	C11.8,10,11.5,10.2,11.2,10.2z"/>
<circle class="st0" cx="13.1" cy="9.7" r="0.6"/>
<path class="st0" d="M11.2,12.6H5.4c-0.3,0-0.5-0.2-0.5-0.5l0,0c0-0.3,0.2-0.5,0.5-0.5h5.8c0.3,0,0.5,0.2,0.5,0.5l0,0
	C11.8,12.3,11.5,12.6,11.2,12.6z"/>
<circle class="st0" cx="13.1" cy="12" r="0.6"/>
</svg>
