<?xml version="1.0" encoding="utf-8"?>
<!-- Generator: Adobe Illustrator 19.0.0, SVG Export Plug-In . SVG Version: 6.00 Build 0)  -->
<svg version="1.1" id="图层_1" xmlns="http://www.w3.org/2000/svg" xmlns:xlink="http://www.w3.org/1999/xlink" x="0px" y="0px"
	 viewBox="170 10 20 20" style="enable-background:new 170 10 20 20;" xml:space="preserve">
<style type="text/css">
	.st0{fill:#666666;}
</style>
<g>
	<g transform="scale(0.1953125, 0.1953125)">
		<path class="st0" d="M949.5,103.9h-34.2c-2.8,0-5.1-2.3-5.1-5.1s2.3-5.1,5.1-5.1h34.2c2.8,0,5.1,2.3,5.1,5.1
			S952.3,103.9,949.5,103.9L949.5,103.9L949.5,103.9z M949.5,123.9h-34.2c-2.8,0-5.1-2.3-5.1-5.1s2.3-5.1,5.1-5.1h34.2
			c2.8,0,5.1,2.3,5.1,5.1S952.3,123.9,949.5,123.9L949.5,123.9L949.5,123.9z M972.7,140.4v-64c0-7.8-7.1-7-7.1-7s-42.3,0-40,0
			c-2.4,0-3.6-1.3-3.6-1.3s-1.7-2.9-4.7-7.5c-3.2-4.8-6.8-4-6.8-4h-31.1c-8.6,0-8.7,8.3-8.7,8.3v75c0,9.3,7,8.1,7,8.1h88.7
			C973.8,148.1,972.7,140.4,972.7,140.4L972.7,140.4L972.7,140.4L972.7,140.4z M966.4,136.6c0,2.9-2.3,5.2-5.2,5.2h-79.1
			c-2.9,0-5.2-2.3-5.2-5.2V83.1c0-2.9,2.3-5.2,5.2-5.2h79.1c2.9,0,5.2,2.3,5.2,5.2C966.4,83.1,966.4,136.6,966.4,136.6z M891.1,98.8
			c0,3,2.4,5.4,5.4,5.4s5.4-2.4,5.4-5.4c0-3-2.4-5.4-5.4-5.4S891.1,95.8,891.1,98.8C891.1,98.8,891.1,98.8,891.1,98.8z M891.1,118.8
			c0,3,2.4,5.4,5.4,5.4s5.4-2.4,5.4-5.4c0-3-2.4-5.4-5.4-5.4S891.1,115.9,891.1,118.8L891.1,118.8z"/>
	</g>
</g>
</svg>
