<?xml version="1.0" encoding="utf-8"?>
<!-- Generator: Adobe Illustrator 19.0.0, SVG Export Plug-In . SVG Version: 6.00 Build 0)  -->
<svg version="1.1" id="图层_1" xmlns="http://www.w3.org/2000/svg" xmlns:xlink="http://www.w3.org/1999/xlink" x="0px" y="0px"
	 viewBox="170 10 20 20" style="enable-background:new 170 10 20 20;" xml:space="preserve">
<style type="text/css">
	.st0{fill:#666666;}
</style>
<g>
	<g transform="scale(0.1953125, 0.1953125)">
		<path class="st0" d="M936.9,80.4c0,2.1-1.7,3.8-3.8,3.8h-22.9c-2.1,0-3.8-1.7-3.8-3.8c0-2.1,1.7-3.8,3.8-3.8H933
			C935.2,76.6,936.9,78.3,936.9,80.4z M933,94.5h-23c-2.1,0-3.8,1.7-3.8,3.8c0,2.1,1.7,3.8,3.8,3.8H933c2.1,0,3.8-1.7,3.8-3.8
			C936.9,96.2,935.2,94.5,933,94.5z M972.6,120.5c0,11.3-8.2,21-19.2,22.6c0,0,0,0-0.1,0l0,0h-63.5v0c0,0-0.1,0-0.1,0
			c-10.9-1.6-19.2-11.4-19.2-22.6c0-7.2,3.4-14.1,9.1-18.4c-0.1-0.6-0.1-1.3-0.1-1.9c0-9.1,7.2-16.5,16.1-16.5c0.1,0,0.2,0,0.4,0
			v-13c0-5,4.1-9.1,9.1-9.1H938c5,0,9.1,4.1,9.1,9.1v4c7.8,5.6,13,14.8,13,25.3C967.7,103.8,972.6,111.8,972.6,120.5z M942,70.7
			c0-2.2-1.8-4-4-4h-32.8c-2.2,0-4,1.8-4,4V133H942L942,70.7L942,70.7z"/>
	</g>
</g>
</svg>
