<?xml version="1.0" encoding="utf-8"?>
<!-- Generator: Adobe Illustrator 19.0.0, SVG Export Plug-In . SVG Version: 6.00 Build 0)  -->
<svg version="1.1" id="图层_1" xmlns="http://www.w3.org/2000/svg" xmlns:xlink="http://www.w3.org/1999/xlink" x="0px" y="0px"
	 viewBox="170 10 20 20" style="enable-background:new 170 10 20 20;" xml:space="preserve">
<style type="text/css">
	.st0{fill:#666666;}
</style>
<g>
	<g transform="scale(0.1953125, 0.1953125)">
		<path class="st0" d="M934.2,113L934.2,113c2.1,0,3.8-1.7,3.8-3.9c0-2.1-1.7-3.8-3.8-3.9v0h-7.8c0-0.1,0-0.2,0-0.3l9.1-9.3
			c1.5-1.7,0.7-3.1-0.8-4.6c-1.5-1.5-4-1.8-5.2-0.5l-7.8,8.4l-8.5-8.5c-1.1-1.1-3.2-0.7-4.7,0.8c-1.5,1.5-1.8,3.6-0.8,4.7l8.7,8.7
			c-0.2,0.2-0.3,0.4-0.3,0.7h-7v0h0c-2.1,0-3.9,1.7-3.9,3.9c0,2.1,1.7,3.9,3.9,3.9h0v0h7.7v3.8h-7.7v0h0c-2.1,0-3.9,1.7-3.9,3.9
			c0,2.1,1.7,3.9,3.9,3.9h0l0,0h7.7c0,0,0,4.5,0,4.8c0,2.7,2.2,4.8,4.8,4.8c2.7,0,4.8-2.2,4.8-4.8c0-0.3-0.1-4.8-0.1-4.8h7.8
			c2.1,0,3.8-1.7,3.8-3.9c0-2.1-1.7-3.8-3.8-3.9v0h-7.8V113L934.2,113L934.2,113L934.2,113L934.2,113z M937.2,68l4.2-5.2l0,0
			c0,0,0,0,0,0l0.8-1c0.5-0.6,0.7-1.4,0.6-2.2c0-0.2,0-0.4,0-0.6c0-2.1-1.1-3.9-2.8-5c-0.4-0.4-0.8-0.6-1.4-0.7
			c-0.4-0.1-9.4-2-17.8-2h-0.2c-8.1,0-17.5,1.9-17.9,2c-0.5,0.1-1,0.4-1.4,0.7c-1.8,1-2.8,2.9-2.8,5c0,0.2,0,0.4,0,0.6
			c-0.1,0.8,0.1,1.6,0.6,2.2l0.7,0.9c0,0,0.1,0.1,0.1,0.1c0,0,0.1,0.1,0.1,0.1l4.6,5.7c-17.8,8.3-31.2,28.1-31.2,47.1
			c0,25.8,15.3,37.8,48.2,37.8c32.9,0,48.2-12,48.2-37.8C969.8,96.3,955.7,75.9,937.2,68L937.2,68z M904.4,59.2c0,0-0.1-0.1-0.1-0.1
			v0c0,0,0-0.1,0-0.1c0.1-0.1,0.3-0.1,0.4-0.2c2.4-0.4,9.8-1.7,16-1.7h0.2c6.4,0,13.5,1.3,15.8,1.7c0.1,0.1,0.3,0.2,0.4,0.2v0
			c0,0,0,0.1,0,0.1l-0.1,0.1c-0.1,0.1-0.1,0.1-0.2,0.2l-5.9,7.4h-20.4l-6-7.5C904.4,59.3,904.4,59.2,904.4,59.2L904.4,59.2z
			 M921.6,147.8c-29.8,0-42.5-9.6-42.5-32c0-17.7,13.9-37,31.2-43.3h21.9c0.1,0,0.1,0,0.2,0h0.4c17.3,6.2,31.2,25.6,31.2,43.3
			C964.1,138.2,951.4,147.8,921.6,147.8L921.6,147.8z"/>
	</g>
</g>
</svg>
