<?xml version="1.0" encoding="utf-8"?>
<!-- Generator: Adobe Illustrator 19.0.0, SVG Export Plug-In . SVG Version: 6.00 Build 0)  -->
<svg version="1.1" id="图层_1" xmlns="http://www.w3.org/2000/svg" xmlns:xlink="http://www.w3.org/1999/xlink" x="0px" y="0px"
	 viewBox="50 -50 200 200" style="enable-background:new 50 -50 200 200;" xml:space="preserve">
<style type="text/css">
	.st0{fill:#666666;}
</style>
<g>
	<g transform="scale(0.1953125, 0.1953125)">
		<path class="st0" d="M1024,183.3c0,4-1.6,6.7-4.7,8.3L773.6,323.9h-1.2c-0.8,0.8-2,1.2-3.6,1.2c-1.6,0-2.8-0.4-3.6-1.2h-1.1
			L518.4,191.6c-3.2-1.6-4.8-4.3-4.8-8.3v-283.5v-1.2c0-0.7,0.4-1.6,1.2-2.4v-1.2l2.4-2.4l1.2-1.2l245.7-132.3
			c3.2-0.7,6.3-0.7,9.5,0l245.7,132.3l1.2,1.2l2.4,2.4v1.2l1.1,2.3v1.2V183.3z M532.6,177.4l226.8,122.9V38L532.6-84.8V177.4z
			 M543.2-100.2L768.8,21.5l225.6-121.7L768.8-221.8L543.2-100.2z M1005.1,177.4V-84.8L778.3,38v262.2L1005.1,177.4z"/>
	</g>
</g>
<g>
	<g transform="scale(0.1953125, 0.1953125)">
		<path class="st0" d="M1269.7,598.9c0,4-1.6,6.7-4.7,8.3l-245.7,132.3h-1.2c-0.8,0.8-2,1.2-3.6,1.2c-1.6,0-2.8-0.4-3.6-1.2h-1.1
			L764.1,607.2c-3.2-1.6-4.8-4.3-4.8-8.3V315.5v-1.2c0-0.7,0.4-1.6,1.2-2.4v-1.2l2.4-2.4l1.2-1.2l245.7-132.3c3.2-0.7,6.3-0.7,9.5,0
			L1265,307.2l1.2,1.2l2.4,2.4v1.2l1.1,2.3v1.2V598.9z M778.3,593l226.8,122.9V453.7L778.3,330.8V593z M788.9,315.5l225.6,121.7
			l225.6-121.7l-225.6-121.7L788.9,315.5z M1250.8,593V330.8L1024,453.7v262.2L1250.8,593z"/>
	</g>
</g>
<g>
	<g transform="scale(0.1953125, 0.1953125)">
		<path class="st0" d="M777.9,600.8c0,4-1.6,6.7-4.7,8.3L527.5,741.4h-1.2c-0.8,0.8-2,1.2-3.6,1.2c-1.6,0-2.8-0.4-3.6-1.2h-1.1
			L272.4,609.1c-3.2-1.6-4.8-4.3-4.8-8.3V317.4v-1.2c0-0.7,0.4-1.6,1.2-2.4v-1.2l2.4-2.4l1.2-1.2l245.7-132.3c3.2-0.7,6.3-0.7,9.5,0
			l245.7,132.3l1.2,1.2l2.4,2.4v1.2l1.1,2.3v1.2V600.8z M286.5,594.9l226.8,122.9V455.6L286.5,332.7V594.9z M297.2,317.4L522.8,439
			l225.6-121.7L522.8,195.7L297.2,317.4z M759,594.9V332.7L532.2,455.6v262.2L759,594.9z"/>
	</g>
</g>
</svg>
