<?xml version="1.0" encoding="utf-8"?>
<!-- Generator: Adobe Illustrator 19.0.0, SVG Export Plug-In . SVG Version: 6.00 Build 0)  -->
<svg version="1.1" id="图层_1" xmlns="http://www.w3.org/2000/svg" xmlns:xlink="http://www.w3.org/1999/xlink" x="0px" y="0px"
	 viewBox="170.1 10 20 20" style="enable-background:new 170.1 10 20 20;" xml:space="preserve">
<style type="text/css">
	.st0{fill:#666666;}
</style>
<g>
	<g transform="scale(0.1953125, 0.1953125)">
		<path class="st0" d="M921.9,51.2c-28.3,0-51.2,22.9-51.2,51.2s22.9,51.2,51.2,51.2s51.2-22.9,51.2-51.2S950.2,51.2,921.9,51.2z
			 M921.9,149.1c-25.8,0-46.7-20.9-46.7-46.7s20.9-46.7,46.7-46.7s46.7,20.9,46.7,46.7S947.7,149.1,921.9,149.1z M928.2,100.7
			c2.3-5.5,1.2-11.9-3.1-16.2c-4.3-4.3-10.9-5.5-16.4-3.1l7.1,7.1c1.4,1.4,1.4,3.8,0,5.2l-2.7,2.7c-1.4,1.4-3.8,1.4-5.2,0l-7.1-7.1
			c-2.2,5.3-1.2,11.8,3.2,16.2c4.5,4.5,10.9,5.5,16.2,3.1l15,14.9c1.4,1.4,3.8,1.4,5.2,0l2.7-2.7c1.4-1.4,1.4-3.8,0-5.2L928.2,100.7
			z"/>
	</g>
</g>
</svg>
