<?xml version="1.0" encoding="utf-8"?>
<!-- Generator: Adobe Illustrator 19.0.0, SVG Export Plug-In . SVG Version: 6.00 Build 0)  -->
<svg version="1.1" id="图层_1" xmlns="http://www.w3.org/2000/svg" xmlns:xlink="http://www.w3.org/1999/xlink" x="0px" y="0px"
	 viewBox="0 0 20 20" style="enable-background:new 0 0 20 20;" xml:space="preserve">
<style type="text/css">
	.st0{fill:#666666;}
</style>
<g id="XMLID_6_">
	<g id="XMLID_7_" transform="scale(0.1953125, 0.1953125)">
		<path id="XMLID_8_" class="st0" d="M97.7,76.8c0,0.7-0.3,1.2-0.8,1.5l-44.4,23.9h-0.2c-0.1,0.1-0.4,0.2-0.6,0.2
			c-0.3,0-0.5-0.1-0.6-0.2h-0.2L6.4,78.3c-0.6-0.3-0.9-0.8-0.9-1.5V25.5v-0.2c0-0.1,0.1-0.3,0.2-0.4v-0.2l0.4-0.4L6.4,24L50.8,0.1
			c0.6-0.1,1.1-0.1,1.7,0L96.9,24l0.2,0.2l0.4,0.4v0.2l0.2,0.4v0.2V76.8z M8.9,75.7l41,22.2V50.5l-41-22.2V75.7z M10.8,25.5l40.8,22
			l40.8-22l-40.8-22L10.8,25.5z M94.3,75.7V28.3l-41,22.2v47.4L94.3,75.7z"/>
	</g>
</g>
</svg>
