<?xml version="1.0" encoding="utf-8"?>
<!-- Generator: Adobe Illustrator 19.0.0, SVG Export Plug-In . SVG Version: 6.00 Build 0)  -->
<svg version="1.1" id="图层_1" xmlns="http://www.w3.org/2000/svg" xmlns:xlink="http://www.w3.org/1999/xlink" x="0px" y="0px"
	 viewBox="0 0 20 20" style="enable-background:new 0 0 20 20;" xml:space="preserve">
<style type="text/css">
	.st0{fill:#666666;}
</style>
<g>
	<g>
		<path class="st0" d="M19,0H1C0.5,0,0,0.5,0,1v18c0,0.5,0.5,1,1,1h18c0.5,0,1-0.5,1-1V1C20,0.5,19.5,0,19,0z M18.9,17.9
			c0,0.5-0.5,1-1,1H2.1c-0.5,0-1-0.5-1-1V2.1c0-0.5,0.5-1,1-1h15.8c0.5,0,1,0.5,1,1V17.9z"/>
	</g>
</g>
<g>
	<path class="st0" d="M15.2,6.1H4.8C4.4,6.1,4,5.7,4,5.3v0c0-0.5,0.4-0.8,0.8-0.8h10.3c0.5,0,0.8,0.4,0.8,0.8v0
		C16,5.7,15.6,6.1,15.2,6.1z"/>
	<path class="st0" d="M9.2,14.7V5.3c0-0.5,0.4-0.8,0.8-0.8h0c0.5,0,0.8,0.4,0.8,0.8v9.5c0,0.5-0.4,0.8-0.8,0.8h0
		C9.5,15.6,9.2,15.2,9.2,14.7z"/>
</g>
</svg>
