<?xml version="1.0" encoding="utf-8"?>
<!-- Generator: Adobe Illustrator 19.0.0, SVG Export Plug-In . SVG Version: 6.00 Build 0)  -->
<svg version="1.1" id="图层_1" xmlns="http://www.w3.org/2000/svg" xmlns:xlink="http://www.w3.org/1999/xlink" x="0px" y="0px"
	 viewBox="140 40 20 20" style="enable-background:new 140 40 20 20;" xml:space="preserve">
<style type="text/css">
	.st0{fill:#999999;}
</style>
<g>
	<g transform="scale(0.1953125, 0.1953125)">
		<path class="st0" d="M798.1,307h-60.1c-11.5,0-20.9-9.4-20.9-20.9v-60.1c0-11.5,9.4-20.9,20.9-20.9h60.1
			c11.5,0,20.9,9.4,20.9,20.9V286C819,297.6,809.6,307,798.1,307z M737.9,209.9c-8.9,0-16.1,7.2-16.1,16.1V286
			c0,8.9,7.2,16.1,16.1,16.1h60.1c8.9,0,16.1-7.2,16.1-16.1v-60.1c0-8.9-7.2-16.1-16.1-16.1H737.9L737.9,209.9z M735.2,274.5
			l29.8,17.9v-35.1l-29.8-17.9V274.5z M766.9,219.8l-28.1,14.5l29.1,18.3l29-14.9L766.9,219.8z M771.2,257.1v35.1l29.1-14.9l0,0
			v-35.1L771.2,257.1z"/>
	</g>
</g>
</svg>
