<?xml version="1.0" encoding="utf-8"?>
<!-- Generator: Adobe Illustrator 19.0.0, SVG Export Plug-In . SVG Version: 6.00 Build 0)  -->
<svg version="1.1" id="图层_1" xmlns="http://www.w3.org/2000/svg" xmlns:xlink="http://www.w3.org/1999/xlink" x="0px" y="0px"
	 viewBox="170 10 20 20" style="enable-background:new 170 10 20 20;" xml:space="preserve">
<style type="text/css">
	.st0{fill:#666666;}
</style>
<g>
	<g transform="scale(0.1953125, 0.1953125)">
		<path class="st0" d="M935.1,99.6c5.1-4,8.4-10.1,8.4-17.1c0-12-9.8-21.7-21.8-21.7c-12,0-21.8,9.7-21.8,21.7
			c0,6.9,3.3,13.1,8.4,17.1c-13.4,5.3-23,18.4-23,33.6v7.2c0,2,1.6,3.6,3.6,3.6h65.5c2,0,3.6-1.6,3.6-3.6v-7.2
			C958,117.9,948.5,104.9,935.1,99.6L935.1,99.6L935.1,99.6L935.1,99.6z M905.8,82.5c0-8.7,7.1-15.7,15.8-15.7
			c8.7,0,15.8,7,15.8,15.7c0,8.7-7.1,15.7-15.8,15.7C912.9,98.2,905.8,91.1,905.8,82.5L905.8,82.5L905.8,82.5L905.8,82.5z
			 M952.6,138.1h-61.9v-3.8c0-16.9,13.9-30.7,30.9-30.7c17.1,0,30.9,13.8,30.9,30.7L952.6,138.1L952.6,138.1L952.6,138.1
			L952.6,138.1z M893.4,102.9l0.7-0.2c1.5-0.5,2.6-1.8,2.6-3.4c0-1.5-1-2.8-2.5-3.3c-3.9-1.8-6.4-5.6-6.4-9.9
			c0-4.8,4.2-8.9,8.6-10.3c0.8-2.4,1.9-4.5,3.4-6.5c0.3-0.4,0.5-0.8,0.8-1.2c-0.3,0-0.6-0.1-0.9-0.1c-10,0-18.2,8.1-18.2,18.1
			c0,4.6,1.8,8.9,4.7,12.1c-9.5,4.9-15.7,14.6-15.7,25.7v5.6c0,2,1.6,3.6,3.6,3.6h6.5c0-2.5,0.3-4.1,0.7-6.4h-4.6v-2.8
			C876.9,113.9,883.7,105.4,893.4,102.9L893.4,102.9L893.4,102.9L893.4,102.9z M956.9,98.3c3-3.3,4.7-7.6,4.7-12.1
			c0-10-8.2-18.1-18.2-18.1c-0.3,0-0.6,0.1-0.9,0.1c0.3,0.4,0.6,0.8,0.8,1.2c1.5,1.9,2.6,4.1,3.4,6.5c4.4,1.4,9.2,5.5,9.2,10.3
			c0,4.3-2.5,8.1-6.4,9.9c-1.4,0.5-2.5,1.8-2.5,3.3c0,1.6,1.1,2.9,2.6,3.4l0.7,0.2c9.7,2.4,16.5,11,16.5,21v2.8h-5.2
			c0.5,2.3,0.7,3.9,0.7,6.4h6.5c2,0,3.6-1.6,3.6-3.6v-5.6C972.6,112.9,966.4,103.1,956.9,98.3L956.9,98.3L956.9,98.3L956.9,98.3z"/>
	</g>
</g>
</svg>
