<?xml version="1.0" encoding="utf-8"?>
<!-- Generator: Adobe Illustrator 19.0.0, SVG Export Plug-In . SVG Version: 6.00 Build 0)  -->
<svg version="1.1" id="图层_1" xmlns="http://www.w3.org/2000/svg" xmlns:xlink="http://www.w3.org/1999/xlink" x="0px" y="0px"
	 viewBox="0 0 20 20" style="enable-background:new 0 0 20 20;" xml:space="preserve">
<style type="text/css">
	.st0{fill-rule:evenodd;clip-rule:evenodd;fill:#272536;}
</style>
<path id="XMLID_2_" class="st0" d="M13.3,11.9L13.3,11.9l-2.9-3.1c-0.2-0.1-0.3-0.2-0.5-0.2c-0.2,0-0.3,0.1-0.5,0.2l-2.9,3.1
	c-0.1,0.1-0.1,0.3-0.1,0.4c0,0.3,0.3,0.5,0.6,0.5c0.2,0,0.3-0.1,0.5-0.2l1.9-2v5.7c0,0.3,0.2,0.5,0.6,0.5c0.3,0,0.6-0.2,0.6-0.5
	v-5.7l1.9,2c0.2,0.1,0.3,0.2,0.4,0.2c0.3,0,0.6-0.2,0.6-0.5C13.5,12.2,13.5,12,13.3,11.9L13.3,11.9z"/>
<path id="XMLID_1_" class="st0" d="M16.8,7.5l-0.2-0.1l-0.1-0.2c-1.1-2.6-3.7-4.4-6.6-4.4c-2.9,0-5.5,1.8-6.6,4.4L3.4,7.4L3.2,7.5
	C1.3,8,0,9.7,0,11.5c0,2.4,2,4.3,4.5,4.3c0.4,0,0.6-0.3,0.6-0.6c0-0.3-0.2-0.6-0.6-0.6c-0.1,0-0.1,0-0.2,0c-1.8,0-3.2-1.4-3.2-3.2
	c0-1.7,1.4-3.1,3.1-3.2C4.9,5.8,7.3,4,10,4c2.8,0,5.1,1.8,5.9,4.3c0.2,0,0.5,0.1,0.7,0.1h0v0c1.3,0.4,2.2,1.6,2.2,3.1
	c0,0.1,0,0.2,0,0.4c0,0,0,0.1,0,0.1c0,0,0,0,0,0c0,0.3-0.1,0.6-0.3,0.9c-0.5,1.1-1.6,1.8-2.8,1.9c-0.1,0-0.2,0-0.2,0
	c-0.3,0-0.6,0.2-0.6,0.6c0,0.3,0.3,0.6,0.6,0.6c2.5,0,4.5-1.9,4.5-4.3C20,9.6,18.7,8,16.8,7.5L16.8,7.5z"/>
</svg>
