<?xml version="1.0" encoding="utf-8"?>
<!-- Generator: Adobe Illustrator 19.0.0, SVG Export Plug-In . SVG Version: 6.00 Build 0)  -->
<svg version="1.1" id="图层_1" xmlns="http://www.w3.org/2000/svg" xmlns:xlink="http://www.w3.org/1999/xlink" x="0px" y="0px"
	 viewBox="0 0 20 20" style="enable-background:new 0 0 20 20;" xml:space="preserve">
<style type="text/css">
	.st0{fill-rule:evenodd;clip-rule:evenodd;fill:#272536;}
</style>
<g>
	<path class="st0" d="M10.9,1.5c0.5,1.4,1.9,5.3,1.9,5.3s4,0,5.9,0c1.3,0,1.7,0.8,0.6,1.7c-1.1,0.9-4.8,3.9-4.8,3.9s1.4,4.5,1.8,5.7
		c0.4,1.2-0.5,1.8-1.3,1.2c-0.8-0.6-5.1-3.6-5.1-3.6s-4.1,2.9-5,3.6C4,20,3.3,19.1,3.6,18.1c0.3-1,1.8-5.8,1.8-5.8s-4-3.2-4.8-3.9
		c-0.8-0.7-0.9-1.7,0.5-1.7c1.3,0,6.1,0,6.1,0s1.4-4,1.8-5.3C9.5,0.1,10.5,0.1,10.9,1.5L10.9,1.5z M10,1.5c0,0-2,5.5-2,5.7
		C7.9,7.5,7.6,7.7,7.4,7.7c-0.2,0-6.3,0-6.3,0s4.8,3.9,5,4.1c0.3,0.2,0.4,0.5,0.3,0.8c-0.1,0.3-1.9,6-1.9,6s4.9-3.5,5.2-3.7
		c0.2-0.1,0.5-0.1,0.7,0c0.2,0.2,5.2,3.7,5.2,3.7s-1.8-5.7-1.9-6c-0.1-0.2,0-0.5,0.2-0.7c0.2-0.1,5.1-4.1,5.1-4.1s-6,0-6.3,0
		c-0.3,0-0.5-0.1-0.6-0.4C12,7.1,10,1.5,10,1.5L10,1.5z"/>
</g>
</svg>
