<?xml version="1.0" encoding="utf-8"?>
<!-- Generator: Adobe Illustrator 19.0.0, SVG Export Plug-In . SVG Version: 6.00 Build 0)  -->
<svg version="1.1" id="图层_1" xmlns="http://www.w3.org/2000/svg" xmlns:xlink="http://www.w3.org/1999/xlink" x="0px" y="0px"
	 viewBox="0 0 20 20" style="enable-background:new 0 0 20 20;" xml:space="preserve">
<style type="text/css">
	.st0{fill-rule:evenodd;clip-rule:evenodd;fill:#272536;}
</style>
<g>
	<path class="st0" d="M17.7,0.1H9.1c-0.8,0-1.4,0.6-1.4,1.4v0.2H6.3C5.7,1.7,5.2,2,5,2.5H2.3c-0.8,0-1.4,0.6-1.4,1.4v14.6
		c0,0.8,0.6,1.4,1.4,1.4h12.2c0.8,0,1.4-0.6,1.4-1.4v-1.1h1.7c0.8,0,1.4-0.6,1.4-1.4V1.4C19.1,0.7,18.4,0.1,17.7,0.1L17.7,0.1z
		 M6.3,2.6h4.3C10.8,2.6,11,2.8,11,3c0,0.2-0.2,0.4-0.4,0.4H6.3C6,3.5,5.8,3.3,5.8,3C5.8,2.8,6,2.6,6.3,2.6L6.3,2.6z M15,18.6
		c0,0.3-0.2,0.5-0.5,0.5H2.3c-0.3,0-0.5-0.2-0.5-0.5V3.9c0-0.3,0.2-0.5,0.5-0.5H5C5.2,4,5.7,4.4,6.3,4.4h4.3c0.6,0,1.1-0.4,1.3-0.9
		h2.7c0.3,0,0.5,0.2,0.5,0.5V18.6L15,18.6z M18.1,16.1c0,0.3-0.2,0.5-0.5,0.5h-1.7V3.9c0-0.8-0.6-1.4-1.4-1.4h-2.7
		c-0.2-0.5-0.7-0.9-1.3-0.9h-2V1.4C8.6,1.2,8.8,1,9.1,1h8.6c0.3,0,0.5,0.2,0.5,0.5V16.1L18.1,16.1z"/>
	<path class="st0" d="M12.4,6h-8C4.2,6,4,6.3,4,6.5C4,6.8,4.2,7,4.4,7h8c0.3,0,0.5-0.2,0.5-0.5C12.9,6.3,12.7,6,12.4,6L12.4,6z"/>
	<path class="st0" d="M12.4,8.7h-8C4.2,8.7,4,8.9,4,9.2c0,0.3,0.2,0.5,0.5,0.5h8c0.3,0,0.5-0.2,0.5-0.5C12.9,8.9,12.7,8.7,12.4,8.7
		L12.4,8.7z"/>
	<path class="st0" d="M8.4,11.4h-4c-0.3,0-0.5,0.2-0.5,0.5c0,0.3,0.2,0.5,0.5,0.5h4c0.3,0,0.5-0.2,0.5-0.5
		C8.9,11.6,8.7,11.4,8.4,11.4L8.4,11.4z"/>
</g>
</svg>
