<svg id="图层_1" xmlns="http://www.w3.org/2000/svg" viewBox="0 0 20 20"><style>.st0{fill-rule:evenodd;clip-rule:evenodd;fill:#272536}</style><path class="st0" d="M18.3 3L17 1.7c-.2-.2-.6-.2-.9 0L14.8 3 17 5.2l1.3-1.3c.2-.3.2-.6 0-.9zm-11 8.3l1.3 1.3.4.4 7-7-2.2-2.2-7 7 .5.5zm-3.1 4c-.1.3.1.6.4.4l3.4-2L6.2 12l-2 3.3zM10 14c-.2.2-.4.3-.6.3L3.9 17c-.6.3-1.1-.3-.9-.9l2.7-5.4c0-.2.1-.5.3-.6L15.6.5c.5-.5 1.3-.5 1.8 0l2.2 2.2c.5.5.5 1.3 0 1.8L10 14zm-7.5 6C1.1 20 0 18.9 0 17.5V2.6C0 1.3 1.2 0 2.5 0h10v1.4H2.6c-.7 0-1.2.4-1.2 1.1v15c0 .7.4 1.1 1.1 1.1h15c.7 0 1.1-.4 1.1-1.1v-10H20v10c0 1.4-1.2 2.5-2.6 2.5H2.5z" id="XMLID_1_"/></svg>