<svg id="图层_1" xmlns="http://www.w3.org/2000/svg" viewBox="0 0 20 20"><style>.st0{fill:#272536}.st1{fill:none;stroke:#272536;stroke-miterlimit:10}</style><g id="XMLID_1_"><g id="XMLID_2_"><path id="XMLID_4_" class="st0" d="M16.6 20c-1.9 0-3.4-1.5-3.4-3.4s1.5-3.4 3.4-3.4 3.4 1.5 3.4 3.4-1.5 3.4-3.4 3.4zm0-6.1c-1.5 0-2.6 1.2-2.6 2.6s1.2 2.6 2.6 2.6 2.6-1.2 2.6-2.6-1.2-2.6-2.6-2.6z"/></g><g id="XMLID_7_"><path id="XMLID_8_" class="st0" d="M16.6 6.8c-1.9 0-3.4-1.5-3.4-3.4S14.7 0 16.6 0 20 1.5 20 3.4s-1.5 3.4-3.4 3.4zm0-6C15.1.8 14 2 14 3.4S15.2 6 16.6 6s2.6-1.2 2.6-2.6S18 .8 16.6.8z"/></g><g id="XMLID_11_"><path id="XMLID_12_" class="st0" d="M3.9 12.3C1.7 12.3 0 10.6 0 8.5s1.7-3.9 3.9-3.9 3.9 1.7 3.9 3.9-1.8 3.8-3.9 3.8zm0-6.8c-1.7 0-3 1.3-3 3s1.3 3 3 3 3-1.3 3-3-1.4-3-3-3z"/></g><path id="XMLID_3_" class="st1" d="M7.3 6.8l6.4-2.5"/><path id="XMLID_15_" class="st1" d="M6.5 10.6l7.2 4.7"/></g></svg>