<svg id="图层_1" xmlns="http://www.w3.org/2000/svg" viewBox="0 0 20 20"><style>.st0{fill-rule:evenodd;clip-rule:evenodd;fill:#272536}</style><g id="XMLID_2_"><path id="XMLID_3_" class="st0" d="M18.9 3.4H1.1c-.3 0-.6-.3-.6-.6s.3-.6.6-.6h17.7c.3 0 .6.3.6.6 0 .4-.2.6-.5.6zm-5.8-2.3H6.9c-.3 0-.6-.3-.6-.6 0-.2.2-.5.6-.5h6.3c.3 0 .6.3.6.6-.1.3-.3.5-.7.5zM7.4 16V6.3c0-.3.3-.6.6-.6s.6.3.6.6V16c0 .3-.3.6-.6.6s-.6-.3-.6-.6zm4 0V6.3c0-.3.3-.6.6-.6s.6.3.6.6V16c0 .3-.3.6-.6.6s-.6-.3-.6-.6zm-8-10.9c.3 0 .6.3.6.6v12c0 .6.5 1.1 1.1 1.1h9.7c.6 0 1.1-.5 1.1-1.1v-12c0-.3.3-.6.6-.6s.6.3.6.6v12.6c0 .9-.8 1.7-1.7 1.7H4.6c-.9 0-1.7-.8-1.7-1.7V5.7c0-.3.2-.6.5-.6zm0 0"/></g></svg>