<svg id="图层_1" xmlns="http://www.w3.org/2000/svg" viewBox="0 0 20 20"><style>.st0{fill-rule:evenodd;clip-rule:evenodd;fill:#272536}</style><path class="st0" d="M7.4 7.4c-.2-.1-.4-.1-.5 0L4.5 9.8c-.1.1-.1.3 0 .5l2.4 2.4c.1.1.2.1.2.1.1 0 .2 0 .2-.1.1-.1.1-.3 0-.5L5.2 10l2.1-2.1c.2-.2.2-.4.1-.5zm8.1 2.4l-2.4-2.4c-.1-.1-.3-.1-.5 0-.1.1-.1.3 0 .5l2.1 2.1-2.1 2.1c-.1.1-.1.3 0 .5.1.1.2.1.2.1s.2 0 .2-.1l2.4-2.4c.2-.1.2-.3.1-.4zm-4.3-3.2c-.2-.1-.4 0-.4.2l-2.2 6.1c-.1.2 0 .4.2.4.2.1.4 0 .4-.2L11.4 7c.1-.1 0-.3-.2-.4z" id="XMLID_1_"/><g id="XMLID_2_"><path id="XMLID_11_" class="st0" d="M.1 11.2c0-.4-.1-.8-.1-1.2 0-1.3.3-2.7.8-3.9.5-1.2 1.3-2.3 2.2-3.2C3.9 2 5 1.3 6.1.8 7.4.3 8.7 0 10 0c1.4 0 2.7.3 4 .8 1.2.5 2.3 1.3 3.2 2.2l-.6.6C14.9 1.8 12.5.8 10 .8 5 .8.8 4.9.8 10c0 .4 0 .8.1 1.2H.1z"/><path id="XMLID_10_" class="st0" d="M10 20c-1.4 0-2.7-.3-4-.8-1.2-.5-2.3-1.3-3.2-2.2l.6-.6c1.7 1.8 4.1 2.8 6.6 2.8 5 0 9.2-4.1 9.2-9.2 0-.4 0-.8-.1-1.2l.8-.1c.1.4.1.9.1 1.3 0 1.3-.3 2.7-.8 3.9-.5 1.2-1.2 2.3-2.1 3.2-.9.9-2 1.6-3.2 2.1-1.2.5-2.5.8-3.9.8z"/><path id="XMLID_9_" class="st0" d="M3.2 18.3h-.8v-2.4h2.5v.9H3.2v1.5z"/><path id="XMLID_8_" class="st0" d="M17.6 4h-2.5v-.8h1.7V1.7h.8V4z"/></g></svg>