<svg id="图层_1" xmlns="http://www.w3.org/2000/svg" viewBox="0 0 20 20"><style>.st0{fill:#272636}</style><g id="XMLID_8_"><g id="XMLID_9_" transform="scale(.19531)"><path id="XMLID_10_" class="st0" d="M86.6 0H15.8c-3.5 0-6.3 2.8-6.3 6.3v85c0 3.5 2.8 6.3 6.3 6.3h45.3c-1.6-2.2-2.9-4.5-3.9-7.1H18.7c-1.7 0-3.1-1.4-3.1-3.1V10.2c0-1.7 1.4-3.1 3.1-3.1h65c1.7 0 3.1 1.4 3.1 3.1V54c2.1.3 4.2.8 6.1 1.6V6.3c0-3.5-2.8-6.3-6.3-6.3zm-7.2 34.8v-4c0-.7-.6-1.3-1.3-1.3H24.5c-.7 0-1.3.6-1.3 1.3v4c0 .7.6 1.3 1.3 1.3H78c.8 0 1.4-.6 1.4-1.3zM24.5 22H78c.7 0 1.3-.6 1.3-1.3v-4c0-.7-.6-1.3-1.3-1.3H24.5c-.7 0-1.3.6-1.3 1.3v4c0 .7.6 1.3 1.3 1.3zm32.6 22.9c0-.7-.6-1.3-1.3-1.3H24.6c-.7 0-1.3.6-1.3 1.3v4c0 .7.6 1.3 1.3 1.3h31.2c.7 0 1.3-.6 1.3-1.3v-4zm-1.4 12.8H24.5c-.7 0-1.3.6-1.3 1.3v4c0 .7.6 1.3 1.3 1.3h31.2c.7 0 1.3-.6 1.3-1.3v-4c.1-.7-.5-1.3-1.3-1.3zM84 48.8L60.8 79.2h11.8l-2.9 23.2L92.9 72H81.1L84 48.8z"/></g></g></svg>