<svg id="图层_1" xmlns="http://www.w3.org/2000/svg" viewBox="0 0 20 20"><style>.st0{fill-rule:evenodd;clip-rule:evenodd;fill:#272536}</style><path class="st0" d="M16.4 7.5h-10V5c0-2.1 1.7-3.8 3.8-3.8S14 2.9 14 5v.2h1.2V5c0-2.8-2.2-5-5-5s-5 2.2-5 5v2.5H3.9c-.7 0-1.2.6-1.2 1.3v10c0 .7.6 1.2 1.2 1.2h12.5c.7 0 1.2-.6 1.2-1.2v-10c.1-.7-.5-1.3-1.2-1.3zm0 11.3H3.9v-10H16.3l.1 10z"/><path class="st0" d="M11.1 13.5c.3-.2.4-.6.4-1 0-.7-.6-1.2-1.2-1.2s-1.2.6-1.2 1.2c0 .4.1.7.4 1 .2.2.3.4.3.7l-.6 2.1h2.5l-.6-2.1c-.3-.3-.2-.6 0-.7z"/></svg>