<svg id="图层_1" xmlns="http://www.w3.org/2000/svg" viewBox="0 0 20 20"><style>.st0{fill-rule:evenodd;clip-rule:evenodd;fill:#272536}</style><path class="st0" d="M10 11.3c-.7 0-1.3.6-1.3 1.3 0 .4.1.7.4 1 .2.2.3.4.3.7l-.6 2.1h2.5l-.6-2.1c0-.3 0-.5.3-.7.3-.2.4-.6.4-1-.1-.8-.7-1.3-1.4-1.3zm6.3-3.8H15V5c0-2.8-2.2-5-5-5S5 2.2 5 5v2.5H3.7c-.7 0-1.3.6-1.3 1.3v10c0 .7.6 1.2 1.3 1.2h12.5c.7 0 1.3-.6 1.3-1.2v-10c0-.7-.6-1.3-1.2-1.3zM6.2 5c0-2.1 1.7-3.8 3.8-3.8 2.1 0 3.8 1.7 3.8 3.8v2.5H6.2V5zm10.1 13.7H3.7v-10H16.3v10z"/></svg>