<svg id="图层_1" xmlns="http://www.w3.org/2000/svg" viewBox="0 0 20 20"><style>.st0{fill:#272636}</style><g id="XMLID_10_"><g id="XMLID_11_" transform="scale(.19531)"><path id="XMLID_12_" class="st0" d="M67.2 42.3c0-1.5-1.2-2.7-2.7-2.7H16.4c-1.5 0-2.7 1.2-2.7 2.7 0 1.5 1.2 2.7 2.7 2.7h48.1c1.5 0 2.7-1.2 2.7-2.7zM46.6 60.1c0-1.5-1.2-2.7-2.7-2.7H16.5c-1.5 0-2.7 1.2-2.7 2.7 0 1.5 1.2 2.7 2.7 2.7H44c1.4 0 2.6-1.2 2.6-2.7zM16.4 27.3h48.1c1.5 0 2.7-1.2 2.7-2.7 0-1.5-1.2-2.7-2.7-2.7H16.4c-1.5 0-2.7 1.2-2.7 2.7.1 1.5 1.3 2.7 2.7 2.7zm.1 47.8c-1.5 0-2.7 1.2-2.7 2.7s1.2 2.7 2.7 2.7h19.1c1.5 0 2.7-1.2 2.7-2.7 0-1.5-1.2-2.7-2.7-2.7H16.5zm74.9 3.3c0-1.5-1.2-2.7-2.7-2.7H81V64.6c0-1.5-1.2-2.7-2.7-2.7-1.5 0-2.7 1.2-2.7 2.7v16.5h13.1c1.5 0 2.7-1.2 2.7-2.7zM11.9 99.7h39.8c1.5 0 2.7-1.2 2.7-2.7 0-1.5-1.2-2.7-2.7-2.7H11.9c-3.6 0-6.5-2.9-6.5-6.5V14.5c0-3.6 2.9-6.5 6.5-6.5h57.3c3.6 0 6.5 2.9 6.5 6.5v27.8c0 1.5 1.2 2.7 2.7 2.7 1.5 0 2.7-1.2 2.7-2.7V14.5C81 8 75.7 2.7 69.1 2.7H11.9C5.3 2.7 0 8 0 14.5v73.4c0 6.5 5.3 11.8 11.9 11.8zm66.4 0c13.3 0 24.1-10.8 24.1-24.1s-10.8-24-24.1-24-24.1 10.8-24.1 24.1 10.8 24 24.1 24zm0-42.8c10.3 0 18.7 8.4 18.7 18.7s-8.4 18.7-18.7 18.7C68 94.3 59.6 86 59.6 75.6S68 56.9 78.3 56.9z"/></g></g></svg>