<svg id="图层_1" xmlns="http://www.w3.org/2000/svg" viewBox="6 -6 32 32"><style>.st0{fill:#999}</style><path class="st0" d="M37.3 22l-4.1-4.1c.5-1.5.2-3.2-.7-4.5-.9-1.3-2.4-2.1-4-2-.5 0-1.1.1-1.6.3-.3.1-.5.3-.5.6-.1.3 0 .6.2.8l1.8 1.8c.2.2.2.5 0 .7l-.8.8c-.1.1-.2.1-.3.1-.1 0-.2 0-.3-.1l-1.8-1.8c-.2-.2-.4-.2-.6-.2-.4 0-.7.2-.8.6-.6 1.8-.1 3.7 1.2 5.1 1.3 1.3 3.3 1.8 5.1 1.2l4.1 4.1c.3.3.8.5 1.2.5s.9-.2 1.2-.5l.8-.8c.6-.8.6-1.9-.1-2.6zm-.9 1.6l-.8.8c-.2.2-.5.2-.7 0l-4.6-4.7-.4.2c-1.4.6-3 .3-4.1-.8-.9-.9-1.2-2-1.1-3.2l1.4 1.4c.3.3.8.5 1.2.5.4 0 .9-.2 1.2-.5l.8-.8c.7-.7.7-1.7 0-2.4l-1.4-1.4h.5c1.3 0 2.4.6 3.1 1.7s.8 2.4.3 3.5v.3l4.7 4.7c.1.2.1.5-.1.7zM28.8 2H12.1c-.4 0-.7.4-.7.8s.4.8.7.8h16.7c.4 0 .7-.4.7-.8 0-.6-.4-1-.7-.8zM28.8 7.5H12.1c-.4 0-.7.4-.7.8s.4.8.7.8h16.7c.4 0 .7-.4.7-.8s-.4-.8-.7-.8zM20.9 13.1H12c-.3 0-.7.4-.7.8s.3.8.7.8h8.9c.3 0 .7-.4.7-.8-.1-.6-.4-.8-.7-.8z"/><path class="st0" d="M20.7 22.7H10.5c-1.4 0-2.6-1.3-2.6-2.7V-1.5c0-1.4 1.3-2.7 2.7-2.7h19.6c1.4 0 2.7 1.3 2.7 2.7V9.3c0 .5.4.9.9.9s.9-.4.9-.9V-1.5c0-2.5-2-4.5-4.5-4.5H10.5C8-6 6.1-4 6.1-1.5V20c0 2.5 2 4.5 4.5 4.5h10.2c.5 0 .9-.4.9-.9s-.5-.9-1-.9z"/></svg>