<?xml version="1.0" encoding="utf-8"?>
<!-- Generator: Adobe Illustrator 19.0.0, SVG Export Plug-In . SVG Version: 6.00 Build 0)  -->
<svg version="1.1" id="图层_1" xmlns="http://www.w3.org/2000/svg" xmlns:xlink="http://www.w3.org/1999/xlink" x="0px" y="0px"
	 viewBox="0 0 40 40" style="enable-background:new 0 0 40 40;" xml:space="preserve">
<style type="text/css">
	.st0{fill:#FFFFFF;}
</style>
<g id="XMLID_65_">
	<g id="XMLID_35_">
		<path id="XMLID_36_" class="st0" d="M20.2,3.5c1.5,0,2.8,0.7,3.5,1.7c0.2-0.4,0.3-0.9,0.3-1.4c0-2.1-1.7-3.7-3.7-3.7
			c-2.1,0-3.7,1.7-3.7,3.7c0,0.5,0.1,0.9,0.3,1.4C17.4,4.3,18.7,3.5,20.2,3.5z"/>
	</g>
</g>
<path id="XMLID_64_" class="st0" d="M35.3,34.8H4.8c-0.6,0-1-0.5-1-1v0c0-0.6,0.5-1,1-1h30.5c0.5,0,1,0.4,1,1v0
	C36.3,34.3,35.8,34.8,35.3,34.8z"/>
<path id="XMLID_63_" class="st0" d="M4.2,34.6L4.2,34.6c-0.5-0.3-0.6-0.9-0.3-1.4l3.8-6C8,26.8,8.6,26.7,9.1,27l0,0
	c0.5,0.3,0.6,0.9,0.3,1.4l-3.8,6C5.3,34.8,4.7,34.9,4.2,34.6z"/>
<path id="XMLID_62_" class="st0" d="M35.8,34.6L35.8,34.6c0.5-0.3,0.6-0.9,0.3-1.4l-3.8-6c-0.3-0.5-0.9-0.6-1.4-0.3l0,0
	c-0.5,0.3-0.6,0.9-0.3,1.4l3.8,6C34.7,34.8,35.3,34.9,35.8,34.6z"/>
<path id="XMLID_59_" class="st0" d="M31.4,28.7L31.4,28.7c-0.6,0-1-0.4-1-1v-12c0-0.6,0.4-1,1-1h0c0.5,0,1,0.4,1,1v12
	C32.4,28.2,32,28.7,31.4,28.7z"/>
<path id="XMLID_58_" class="st0" d="M8.6,28.8L8.6,28.8c-0.6,0-1-0.5-1-1V15.6c0-0.5,0.4-1,1-1h0c0.5,0,1,0.4,1,1v12.1
	C9.6,28.3,9.2,28.8,8.6,28.8z"/>
<g id="XMLID_28_">
	<g id="XMLID_60_">
		<path id="XMLID_61_" class="st0" d="M9.6,15.9C9.6,15.9,9.6,15.9,9.6,15.9c0-5.7,4.7-10.4,10.4-10.4c5.7,0,10.4,4.6,10.4,10.4
			c0,0,0,0,0,0h2c0,0,0,0,0,0C32.4,9,26.9,3.5,20,3.5C13.2,3.5,7.6,9,7.6,15.8c0,0,0,0,0,0H9.6z"/>
	</g>
</g>
<g id="XMLID_3_">
	<g id="XMLID_52_">
		<path id="XMLID_53_" class="st0" d="M24.3,33.2c0,0.1,0,0.2,0,0.3c0,2.4-1.9,4.3-4.3,4.3s-4.3-1.9-4.3-4.3c0-0.1,0-0.2,0-0.3h-2
			c0,0.1,0,0.2,0,0.3c0,3.5,2.8,6.3,6.3,6.3s6.3-2.8,6.3-6.3c0-0.1,0-0.2,0-0.3H24.3z"/>
	</g>
</g>
</svg>
