<?xml version="1.0" encoding="utf-8"?>
<!-- Generator: Adobe Illustrator 19.0.0, SVG Export Plug-In . SVG Version: 6.00 Build 0)  -->
<svg version="1.1" id="图层_1" xmlns="http://www.w3.org/2000/svg" xmlns:xlink="http://www.w3.org/1999/xlink" x="0px" y="0px"
	 viewBox="-197 320.9 200 200" style="enable-background:new -197 320.9 200 200;" xml:space="preserve">
<style type="text/css">
	.st0{fill:#b8bcc3;}
</style>
<g>
	<g transform="scale(0.1953125, 0.1953125)">
		<path class="st0" d="M-494.2,1699.3c-253.3,0-459.3,206-459.3,459.3c0,253.3,206,459.3,459.3,459.3s459.3-206,459.3-459.3
			C-34.9,1905.4-240.9,1699.3-494.2,1699.3L-494.2,1699.3z M-494.2,2569.5c-226.6,0-410.9-184.3-410.9-410.9
			c0-226.5,184.3-410.8,410.9-410.8s410.9,184.3,410.9,410.8C-83.3,2385.1-267.6,2569.5-494.2,2569.5L-494.2,2569.5z M-320.9,2125.6
			h-140.5v-140.2c0-13.4-18.9-24.2-32.3-24.2s-32.3,10.9-32.3,24.2v140.2h-141.4c-13.4,0-24.2,18.9-24.2,32.3
			c0,13.4,10.9,32.3,24.2,32.3H-526v141.7c0,13.4,18.9,24.2,32.3,24.2s32.3-10.9,32.3-24.2v-141.7h140.5c13.4,0,24.2-18.9,24.2-32.3
			C-296.7,2144.5-307.5,2125.6-320.9,2125.6L-320.9,2125.6z"/>
	</g>
</g>
</svg>
