<?xml version="1.0" encoding="utf-8"?>
<!-- Generator: Adobe Illustrator 19.0.0, SVG Export Plug-In . SVG Version: 6.00 Build 0)  -->
<svg version="1.1" id="图层_1" xmlns="http://www.w3.org/2000/svg" xmlns:xlink="http://www.w3.org/1999/xlink" x="0px" y="0px"
	 viewBox="0 0 40 40" style="enable-background:new 0 0 40 40;" xml:space="preserve">
<style type="text/css">
	.st0{fill:#FFFFFF;}
</style>
<g id="XMLID_7_">
	<g id="XMLID_45_">
		<path id="XMLID_46_" class="st0" d="M20,0C9,0,0,9,0,20s9,20,20,20c11,0,20-9,20-20S31,0,20,0z M20,38c-9.9,0-18-8.1-18-18
			c0-9.9,8.1-18,18-18s18,8.1,18,18C38,29.9,29.9,38,20,38z"/>
	</g>
</g>
<rect id="XMLID_6_" x="19.9" y="20" class="st0" width="0.2" height="0"/>
<g id="XMLID_3_">
	<path id="XMLID_5_" class="st0" d="M28,22H12c-0.6,0-1-0.5-1-1v-2c0-0.5,0.4-1,1-1h16c0.5,0,1,0.5,1,1v2C29,21.5,28.5,22,28,22z"/>
	<path id="XMLID_4_" class="st0" d="M18,28V12c0-0.6,0.4-1,1-1h2c0.5,0,1,0.4,1,1v16c0,0.5-0.5,1-1,1h-2C18.4,29,18,28.5,18,28z"/>
</g>
</svg>
