<?xml version="1.0" encoding="utf-8"?>
<!-- Generator: Adobe Illustrator 19.0.0, SVG Export Plug-In . SVG Version: 6.00 Build 0)  -->
<svg version="1.1" id="图层_1" xmlns="http://www.w3.org/2000/svg" xmlns:xlink="http://www.w3.org/1999/xlink" x="0px" y="0px"
	 viewBox="0 0 40 40" style="enable-background:new 0 0 40 40;" xml:space="preserve">
<style type="text/css">
	.st0{fill:#1AA2E7;}
</style>
<g id="XMLID_3_">
	<g id="XMLID_63_">
		<path id="XMLID_64_" class="st0" d="M20,0C9,0,0,9,0,20c0,11,9,20,20,20s20-9,20-20C40,9,31,0,20,0z M29,21c0,0.5-0.5,1-1,1h-6v6
			c0,0.5-0.5,1-1,1h-2c-0.5,0-1-0.5-1-1v-6h-6c-0.5,0-1-0.5-1-1v-2c0-0.5,0.5-1,1-1h6v-6c0-0.5,0.5-1,1-1h2c0.5,0,1,0.5,1,1v6h6
			c0.5,0,1,0.5,1,1V21z"/>
	</g>
</g>
</svg>
