<?xml version="1.0" standalone="no"?><!DOCTYPE svg PUBLIC "-//W3C//DTD SVG 1.1//EN" "http://www.w3.org/Graphics/SVG/1.1/DTD/svg11.dtd"><svg width="200" height="200" viewBox="0 0 200 200" version="1.1" xmlns="http://www.w3.org/2000/svg" xmlns:xlink="http://www.w3.org/1999/xlink"><defs><style type="text/css"><![CDATA[
@font-face { font-family: ifont; src: url(http://at.alicdn.com/t/font_1442373896_4754455.eot?#iefix) format(embedded-opentype), url(http://at.alicdn.com/t/font_1442373896_4754455.woff) format(woff), url(http://at.alicdn.com/t/font_1442373896_4754455.ttf) format(truetype), url(http://at.alicdn.com/t/font_1442373896_4754455.svg#ifont) format(svg); }

]]></style></defs><g class="transform-group"><g transform="scale(0.1953125, 0.1953125)"><path d="M371.2 524.8 153.6 524.8c-64 0-115.2 51.2-115.2 110.933333L38.4 853.333333c0 68.266667 46.933333 115.2 115.2 119.466667l217.6 0c64 0 115.2-51.2 115.2-115.2L486.4 640C486.4 576 435.2 524.8 371.2 524.8zM426.666667 857.6c0 38.4-17.066667 59.733333-55.466667 59.733333l-213.333333 0c-46.933333 0-64-21.333333-64-64l0-213.333333c0-38.4 21.333333-55.466667 59.733333-55.466667l213.333333 0c38.4 0 59.733333 21.333333 59.733333 64L426.666667 857.6 426.666667 857.6zM371.2 46.933333 153.6 46.933333C85.333333 46.933333 34.133333 98.133333 34.133333 162.133333l0 234.666667c0 42.666667 21.333333 93.866667 115.2 98.133333l217.6 0c68.266667 0 115.2-38.4 115.2-98.133333L482.133333 162.133333C486.4 98.133333 435.2 46.933333 371.2 46.933333zM426.666667 392.533333c0 51.2-38.4 46.933333-55.466667 46.933333l-213.333333 0c-64-4.266667-64-21.333333-64-46.933333L93.866667 166.4c0-42.666667 21.333333-59.733333 59.733333-59.733333l213.333333 0C405.333333 106.666667 426.666667 128 426.666667 166.4L426.666667 392.533333 426.666667 392.533333zM960 209.066667l-132.266667-132.266667c-34.133333-38.4-102.4-34.133333-136.533333 0l-132.266667 132.266667c-34.133333 42.666667-34.133333 102.4 4.266667 140.8l128 115.2c17.066667 17.066667 42.666667 29.866667 68.266667 29.866667s51.2-8.533333 68.266667-25.6l132.266667-119.466667C998.4 307.2 998.4 243.2 960 209.066667zM917.333333 311.466667l-123.733333 110.933333c-17.066667 17.066667-51.2 21.333333-72.533333 0l-119.466667-106.666667c-21.333333-21.333333-17.066667-51.2 0-76.8L725.333333 119.466667c8.533333-8.533333 21.333333-12.8 34.133333-12.8s25.6 4.266667 34.133333 12.8l119.466667 119.466667c8.533333 8.533333 12.8 21.333333 12.8 34.133333C930.133333 290.133333 925.866667 302.933333 917.333333 311.466667zM870.4 977.066667l-217.6 0c-72.533333-4.266667-115.2-55.466667-115.2-119.466667L537.6 640c0-64 51.2-110.933333 115.2-110.933333l217.6 0c64 0 115.2 51.2 115.2 115.2l0 217.6C985.6 925.866667 934.4 977.066667 870.4 977.066667zM652.8 584.533333c-42.666667 0-59.733333 17.066667-59.733333 55.466667l0 213.333333c0 42.666667 17.066667 64 64 68.266667l213.333333 0c38.4 0 59.733333-21.333333 59.733333-59.733333l0-213.333333c0-38.4-21.333333-64-59.733333-64C870.4 584.533333 652.8 584.533333 652.8 584.533333z" fill="#b8bcc3"></path></g></g></svg>