<?xml version="1.0" encoding="utf-8"?>
<!-- Generator: Adobe Illustrator 19.0.0, SVG Export Plug-In . SVG Version: 6.00 Build 0)  -->
<svg version="1.1" id="图层_1" xmlns="http://www.w3.org/2000/svg" xmlns:xlink="http://www.w3.org/1999/xlink" x="0px" y="0px"
viewBox="0 0 50 50" style="enable-background:new 0 0 50 50;" xml:space="preserve">
	<style type="text/css">
	.st0 {
		fill: #00A1EA;
	}

	.st1 {
		fill: #FFFFFF;
	}
	</style>
	<polygon id="XMLID_2_" class="st0" points="0,50 50,50 50,0 "/>
	<path id="XMLID_1_" class="st1" d="M31.4,41.2l-6.7-6.7c-0.3-0.3-0.3-0.8,0-1.1l0,0c0.3-0.3,0.8-0.3,1.1,0l6.7,6.7
	c0.3,0.3,0.3,0.8,0,1.1l0,0C32.2,41.6,31.7,41.6,31.4,41.2z"/>
	<path id="XMLID_4_" class="st1" d="M45.9,27.9L32.6,41.2c-0.3,0.3-0.8,0.3-1.1,0h0c-0.3-0.3-0.3-0.8,0-1.1l13.3-13.3
	c0.3-0.3,0.8-0.3,1.1,0l0,0C46.2,27.1,46.2,27.6,45.9,27.9z"/>
</svg>
