<?xml version="1.0" encoding="utf-8"?>
<!-- Generator: Adobe Illustrator 19.0.0, SVG Export Plug-In . SVG Version: 6.00 Build 0)  -->
<svg version="1.1" id="图层_1" xmlns="http://www.w3.org/2000/svg" xmlns:xlink="http://www.w3.org/1999/xlink" x="0px" y="0px"
	 viewBox="-277 400.9 40 40" style="enable-background:new -277 400.9 40 40;" xml:space="preserve">
<style type="text/css">
	.st0{fill:#1AA2E7;}
</style>
<g>
	<path class="st0" d="M-261.4,404.1h-14c-0.5,0-1,0.4-1,1v14c0,0.6,0.5,1,1,1h14c0.5,0,1-0.4,1-1v-14
		C-260.4,404.6-260.9,404.1-261.4,404.1z"/>
	<path class="st0" d="M-261.4,424.1h-14c-0.5,0-1,0.5-1,1v14c0,0.6,0.5,1,1,1h14c0.5,0,1-0.4,1-1v-14
		C-260.4,424.6-260.9,424.1-261.4,424.1z"/>
	<path class="st0" d="M-241.4,424.1h-14c-0.5,0-1,0.5-1,1v14c0,0.6,0.5,1,1,1h14c0.5,0,1-0.4,1-1v-14
		C-240.4,424.6-240.9,424.1-241.4,424.1z"/>
	<path class="st0" d="M-237.8,411.9l-9.9-9.9c-0.4-0.4-1-0.4-1.4,0l-10,9.9c-0.4,0.4-0.4,1,0,1.4l9.9,9.9c0.4,0.4,1,0.4,1.4,0
		l9.9-9.9C-237.4,412.9-237.4,412.2-237.8,411.9z"/>
</g>
</svg>
