<?xml version="1.0" encoding="utf-8"?>
<!-- Generator: Adobe Illustrator 19.0.0, SVG Export Plug-In . SVG Version: 6.00 Build 0)  -->
<svg version="1.1" id="图层_1" xmlns="http://www.w3.org/2000/svg" xmlns:xlink="http://www.w3.org/1999/xlink" x="0px" y="0px"
	 viewBox="0 0 40 40" style="enable-background:new 0 0 40 40;" xml:space="preserve">
<style type="text/css">
	.st0{fill:#1AA2E7;}
</style>
<g id="XMLID_37_">
	<g id="XMLID_135_">
		<g id="XMLID_136_">
			<path id="XMLID_144_" class="st0" d="M10.4,18.9v6.6c0,0.2,0.1,0.4,0.2,0.4l6.2,3.4v-6.6c0-0.2-0.1-0.4-0.2-0.4L10.4,18.9z"/>
			<path id="XMLID_143_" class="st0" d="M20.3,10.2c-0.1,0-0.2-0.1-0.3-0.1c-0.1,0-0.3,0-0.4,0.1l-5.7,3l5.7,3
				c0.1,0,0.2,0.1,0.3,0.1c0.1,0,0.3,0,0.3-0.1l5.8-3L20.3,10.2z"/>
			<path id="XMLID_142_" class="st0" d="M23.2,22.8v6.4l6.1-3.3c0.1,0,0.2-0.2,0.2-0.4V19l-6.1,3.3C23.3,22.4,23.2,22.5,23.2,22.8z"
				/>
			<path id="XMLID_137_" class="st0" d="M20,0C9,0,0,9,0,20s9,20,20,20s20-9,20-20S31,0,20,0z M19.1,31.1c0,0.7-0.5,1.2-1.1,1.2
				c-0.2,0-0.3,0-0.5-0.1l-8.1-4.4c-0.7-0.4-1.2-1.2-1.2-2.1v-8.5c0-0.7,0.5-1.2,1.1-1.2c0.2,0,0.3,0,0.5,0.1l8.1,4.4
				c0.8,0.4,1.2,1.2,1.2,2.1C19.1,22.6,19.1,31.1,19.1,31.1z M20,18.6L20,18.6c-0.5,0-0.9-0.1-1.3-0.3L10.5,14
				c-0.4-0.2-0.5-0.6-0.5-0.9c0-0.4,0.1-0.7,0.5-0.9L18.8,8C19.2,7.8,20,7.7,20,7.7c0.4,0,0.9,0.1,1.2,0.3l8.2,4.3
				c0.4,0.2,0.6,0.5,0.5,0.9c0,0.3-0.1,0.7-0.5,0.9l-8.2,4.3C20.9,18.5,20.1,18.6,20,18.6L20,18.6z M31.8,25.7
				c0,0.9-0.5,1.7-1.2,2.1l-8.1,4.4c-0.2,0.1-0.3,0.1-0.5,0.1c-0.6,0-1.1-0.5-1.1-1.2v-8.5c0-0.9,0.5-1.7,1.2-2.1l8.1-4.4
				c0.2-0.1,0.3-0.1,0.5-0.1c0.6,0,1.1,0.5,1.1,1.2V25.7z"/>
		</g>
	</g>
</g>
</svg>
