<?xml version="1.0" encoding="utf-8"?>
<!-- Generator: Adobe Illustrator 19.0.0, SVG Export Plug-In . SVG Version: 6.00 Build 0)  -->
<svg version="1.1" id="图层_1" xmlns="http://www.w3.org/2000/svg" xmlns:xlink="http://www.w3.org/1999/xlink" x="0px" y="0px"
	 viewBox="0 0 40 40" style="enable-background:new 0 0 40 40;" xml:space="preserve">
<style type="text/css">
	.st0{fill:#FFFFFF;}
</style>
<g id="XMLID_3_">
	<g id="XMLID_32_">
		<g id="XMLID_33_">
			<path id="XMLID_34_" class="st0" d="M20,0C9,0,0,9,0,20s9,20,20,20s20-9,20-20S31,0,20,0z M20,38C10,38,2,30,2,20S10,1.9,20,1.9
				S38.1,10,38.1,20S30,38,20,38z"/>
		</g>
	</g>
	<g id="XMLID_4_">
		<g id="XMLID_27_">
			<g id="XMLID_28_">
				<path id="XMLID_29_" class="st0" d="M17.9,20.4L17.9,20.4l-8.1-4.4c-0.2-0.1-0.3-0.1-0.5-0.1c-0.6,0-1.1,0.5-1.1,1.2v8.5
					c0,0.9,0.5,1.7,1.2,2.1l8.1,4.4c0.2,0.1,0.3,0.1,0.5,0.1c0.6,0,1.1-0.5,1.1-1.2v-8.5C19.1,21.6,18.6,20.8,17.9,20.4z M16.9,29.3
					l-6.2-3.4c-0.1-0.1-0.2-0.2-0.2-0.4v-6.6l6.2,3.4c0.1,0.1,0.2,0.3,0.2,0.4V29.3z"/>
			</g>
		</g>
		<g id="XMLID_10_">
			<g id="XMLID_23_">
				<path id="XMLID_24_" class="st0" d="M30.7,15.9L30.7,15.9c-0.2,0-0.3,0-0.5,0.1l-8.1,4.4c-0.7,0.4-1.2,1.2-1.2,2.1V31
					c0,0.7,0.5,1.2,1.1,1.2c0.2,0,0.3,0,0.5-0.1l8.1-4.4c0.7-0.4,1.2-1.2,1.2-2.1v-8.5C31.8,16.4,31.3,15.9,30.7,15.9z M29.5,25.4
					L29.5,25.4c0,0.2-0.1,0.4-0.2,0.4l-6.1,3.3v-6.4c0-0.2,0.1-0.4,0.2-0.4l6.1-3.3V25.4z"/>
			</g>
		</g>
		<g id="XMLID_5_">
			<g id="XMLID_6_">
				<path id="XMLID_7_" class="st0" d="M30,13.2c0-0.3-0.1-0.7-0.5-0.9L21.2,8c-0.4-0.2-0.8-0.3-1.2-0.3c0,0-0.9,0.1-1.2,0.3
					l-8.2,4.3c-0.4,0.2-0.5,0.5-0.5,0.9c0,0.3,0.1,0.7,0.5,0.9l8.2,4.3c0.4,0.2,0.8,0.3,1.2,0.3c0,0,0,0,0,0c0,0,0,0,0,0
					s0.9-0.1,1.2-0.3l8.2-4.3l0,0C29.8,13.8,30,13.5,30,13.2z M20.3,16.1c-0.1,0-0.2,0.1-0.3,0.1l0,0l0,0l0,0c-0.1,0-0.2,0-0.3-0.1
					l-5.7-3l5.7-3c0.1,0,0.2-0.1,0.4-0.1c0.1,0,0.2,0,0.3,0.1l5.7,3L20.3,16.1z"/>
			</g>
		</g>
	</g>
</g>
</svg>
