<?xml version="1.0" standalone="no"?><!DOCTYPE svg PUBLIC "-//W3C//DTD SVG 1.1//EN" "http://www.w3.org/Graphics/SVG/1.1/DTD/svg11.dtd"><svg width="200" height="200" viewBox="0 0 200 200" version="1.1" xmlns="http://www.w3.org/2000/svg" xmlns:xlink="http://www.w3.org/1999/xlink"><defs><style type="text/css"><![CDATA[
@font-face { font-family: ifont; src: url(http://at.alicdn.com/t/font_1442373896_4754455.eot?#iefix) format(embedded-opentype), url(http://at.alicdn.com/t/font_1442373896_4754455.woff) format(woff), url(http://at.alicdn.com/t/font_1442373896_4754455.ttf) format(truetype), url(http://at.alicdn.com/t/font_1442373896_4754455.svg#ifont) format(svg); }

]]></style></defs><g class="transform-group"><g transform="scale(0.1953125, 0.1953125)"><path d="M1022.870397 645.784187c-3.784628 4.487366-8.809631 4.447855-14.15637 4.446444-331.142215-0.080434-662.28584-0.080434-993.428055 0-5.346739 0.001411-10.373153 0.039511-14.15637-4.446444 0-4.14023 0-8.277638 0-12.419279 1.007541-2.641619 2.170305-5.238083 3.001455-7.936147 9.001543-29.221502 17.932531-58.469815 26.922785-87.695551 11.751819-38.204701 23.517749-76.405168 35.324602-114.594347 5.604974-18.130088 11.415972-36.193853 16.968735-54.338052 11.105525-36.285576 22.038894-72.623363 33.155708-108.904705 6.529259-21.310755 13.37602-42.525555 19.905278-63.83631 11.116814-36.281342 22.086872-72.606429 33.138775-108.907527 5.686819-18.677603 10.917846-37.517485 17.321515-55.94673 3.681616-10.597522 4.236186-22.659787 12.962561-31.205539 205.47762 0 410.955241 0 616.43145 0 2.286017 4.720201 4.955858 9.300701 6.774794 14.195881 2.884332 7.768223 5.207038 15.745293 7.756934 23.636283 9.745204 30.172598 19.505931 60.340962 29.225735 90.522027 10.172774 31.586541 20.321559 63.18155 30.449178 94.782202 10.239097 31.953433 20.416104 63.926622 30.660846 95.878644 10.130441 31.600653 20.311681 63.184372 30.468933 94.776558s20.293337 63.190016 30.483044 94.772324c9.002955 27.900692 18.028487 55.794329 27.114698 83.666799 4.478899 13.737267 9.111611 27.423733 13.673766 41.134189C1022.870397 637.506548 1022.870397 641.645368 1022.870397 645.784187zM75.292499 593.725096c291.206068 0 581.816642 0 872.641707 0-0.361247-1.495789-0.615249-2.937955-1.061163-4.319443-6.176478-19.113639-12.426335-38.204701-18.566124-57.33104-10.085285-31.415796-20.101424-62.854169-30.152842-94.281254-10.387265-32.476959-20.754774-64.960974-31.18155-97.426644-9.863739-30.711646-19.820611-61.393659-29.685761-92.105305-13.469154-41.939939-26.874807-83.901045-40.339727-125.842395-6.478458-20.183269-13.146007-40.305861-19.450897-60.544164-1.32081-4.239009-3.100234-5.693875-7.73859-5.689641-174.579706 0.146757-349.159413 0.124179-523.739119 0.124179-1.128897 0-2.437007-0.348547-3.342947 0.104423-1.302465 0.649116-2.928077 1.679234-3.338713 2.90691-1.868325 5.585219-3.263924 11.32566-5.001014 16.957446-11.839309 38.375446-23.766107 76.724082-35.578604 115.107995-8.940865 29.05499-17.716629 58.16078-26.636328 87.222825C161.578339 312.950037 150.944128 347.265688 140.383296 381.602505c-10.181241 33.103497-20.277815 66.235216-30.4901 99.330247-10.10504 32.743661-20.320148 65.452044-30.450589 98.19006C77.987741 583.823257 76.745954 588.592847 75.292499 593.725096zM995.774044 1023.998589c4.485955-3.781805 4.587556-8.798342 4.452088-14.154959-0.265291-10.340698-0.579971-20.72514 0.091723-31.027737 0.47837-7.322309-3.935618-11.303082-11.376461-11.296027-239.673325 0.206024-479.343829 0.170746-719.017154 0.170746-80.141818 0-160.283635-0.001411-240.425453 0.002822-7.41121 0-10.15443 2.672664-10.162896 9.893372-0.011289 9.595626 0.244124 19.196896-0.08749 28.781232-0.230013 6.673193-0.207435 12.992195 5.588041 17.631962C348.484191 1023.998589 672.129118 1023.998589 995.774044 1023.998589zM29.425409 844.632359c-7.377343 0-10.082462 2.676897-10.088107 9.970984-0.009878 11.099881-0.002822 22.201173-0.002822 33.302465 0 9.924417 2.968999 12.892005 12.901883 12.892005 292.947392 0 585.894783 0 878.842175 0 26.718173 0 53.433523 0.0127 80.151696-0.009878 5.699519-0.005644 8.892887-3.197601 8.908409-8.875954 0.032456-12.04251-0.468492-24.11042 0.187679-36.11483 0.40217-7.397098-3.977951-11.349649-11.342594-11.339772-159.548441 0.227191-319.099705 0.172157-478.649557 0.172157C350.03078 844.629537 189.7288 844.629537 29.425409 844.632359zM990.108392 764.18715c7.357587 0 10.031662-2.675486 10.038718-10.021784 0.008467-11.101292-0.474137-22.229395 0.158046-33.295409 0.474137-8.259294-3.632226-11.885876-11.895753-11.880231-296.722141 0.190501-593.445694 0.159457-890.167835 0.159457-23.331481 0-46.661551-0.015522-69.994444 0.011289-5.692464 0.005644-8.885831 3.201834-8.902765 8.883009-0.033867 11.667152 0.472726 23.358293-0.184857 34.987344-0.419103 7.378754 3.968073 11.339772 11.351061 11.329894 159.744587-0.227191 319.487763-0.173568 479.23235-0.173568C669.865679 764.188561 829.987035 764.189972 990.108392 764.18715zM813.963752 485.325572c7.364643 0 10.052829-2.676897 10.059884-10.000617 0.008467-11.665741 0.008467-23.331481 0-34.995811-0.005644-7.357587-2.676897-10.035895-10.024606-10.037307-55.315959-0.004233-110.631918-0.001411-165.949288-0.001411-149.015831 0-298.031662-0.001411-447.047493 0.001411-7.364643 0-10.05424 2.676897-10.058473 10.000617-0.008467 11.47665-0.005644 22.953301-0.001411 34.431362 0.002822 8.197204 2.40314 10.603166 10.589055 10.603166 101.78842 0.001411 203.579662 0.001411 305.369493 0.001411C609.255192 485.326983 711.610883 485.326983 813.963752 485.325572zM764.288045 344.200732c7.366054 0 10.05424-2.676897 10.059884-10.000617 0.008467-12.041099 0.0254-24.082198-0.008467-36.124708-0.016933-5.689641-3.204657-8.899943-8.88442-8.899943-170.840235-0.0127-341.679058-0.0127-512.517882 0-5.712219 0-8.905587 3.184901-8.921109 8.864665-0.035278 11.85342-0.014111 23.70684-0.009878 35.560259 0.002822 8.197204 2.40314 10.603166 10.587644 10.603166 84.667284 0.002822 169.334568 0.001411 254.000441 0.001411C593.82458 344.202143 679.057724 344.203554 764.288045 344.200732zM727.608767 214.363452c6.523614-0.001411 9.468625-2.94501 9.479914-9.447458 0.018345-12.605547 0.028222-25.212506-0.005644-37.816642-0.015522-5.681175-3.210301-8.888654-8.898532-8.888654-147.507342-0.0127-295.013273-0.0127-442.520616 0-5.698108 0-8.892887 3.197601-8.908409 8.877365-0.033867 12.230189-0.0127 24.458967-0.009878 36.689156 0.002822 8.188737 2.404551 10.590466 10.600344 10.590466 73.000132 0.001411 146.001676 0.001411 219.001808 0.001411C580.104247 214.367685 653.856507 214.370508 727.608767 214.363452z" fill="#ffffff"></path></g></g></svg>