<?xml version="1.0" encoding="utf-8"?>
<!-- Generator: Adobe Illustrator 19.0.0, SVG Export Plug-In . SVG Version: 6.00 Build 0)  -->
<svg version="1.1" id="图层_1" xmlns="http://www.w3.org/2000/svg" xmlns:xlink="http://www.w3.org/1999/xlink" x="0px" y="0px"
	 viewBox="-277 400.9 40 40" style="enable-background:new -277 400.9 40 40;" xml:space="preserve">
<style type="text/css">
	.st0{fill:#1AA2E7;}
</style>
<g>
	<path id="XMLID_28_" class="st0" d="M-268.9,437.6c-0.4,0-0.9-0.1-1.5-0.7c-0.5-0.5-3.1-2.9-4.6-4.3l-1-1c-0.5-0.3-1-1-1-1.8
		c0-0.3,0.1-0.7,0.6-1c0.5-0.3,2.1-1.6,2.5-1.9c0.8-0.6,1.9-0.6,2.6,0.1c0.3,0.2,1.4,1.3,2.7,2.4c1.6,1.4,3.3,2.9,3.6,3.2
		c0.5,0.5,0.6,1,0.6,1.3s-0.2,0.9-0.8,1.3c-0.6,0.5-1.6,1.2-2.2,1.7l-0.2,0.2C-268.1,437.4-268.5,437.6-268.9,437.6L-268.9,437.6z"
		/>
	<path id="XMLID_27_" class="st0" d="M-263.9,433.4c-0.2,0-0.3-0.1-0.4-0.2l-6.4-5.7c-0.1-0.1-0.2-0.2-0.2-0.3l-0.2-0.6
		c-0.1-0.2,0-0.5,0.2-0.7c0.2-0.2,4.6-4.2,7.8-4.4c2.3-0.1,7.9,0.2,11.4,0.3c1.2,0.1,2.1,0.1,2.6,0.1c1.5,0.1,2.3,0.9,2.3,1.7
		c0,0.7-0.5,1.5-1.8,1.6c-1,0.1-2.8,0.2-4.6,0.4c-1.5,0.1-3.3,0.2-3.6,0.3l-0.1,0.1c0.1,0,0.5,0.2,1.4,0.3c1.6,0.1,6.2,0.6,7.7,0.4
		c0.8-0.1,3.1-1.8,4.5-2.9c0.8-0.6,1.5-1.1,2-1.4s1.3-0.6,2.2-0.6c0.9,0,1.6,0.3,2,0.9c0.5,0.8-0.7,2.1-1.2,2.5
		c-5.5,4.5-8.9,6.8-10.7,7.1c-1.3,0.2-4.2,0.1-6.7-0.1c-1.3-0.1-2.6-0.1-3.4-0.1c-0.5,0-0.7,0-0.8,0c-1.2,0.3-2.7,1.1-2.7,1.1
		c-0.2,0.1-0.2,0.1-0.3,0.1L-263.9,433.4C-263.8,433.4-263.8,433.4-263.9,433.4L-263.9,433.4z"/>
	<g id="XMLID_3_">
		<g id="XMLID_75_">
			<path id="XMLID_76_" class="st0" d="M-244.8,404.2H-265c-0.4,0-0.7,0.3-0.7,0.7V417c0,0.4,0.3,0.7,0.7,0.7h20.2
				c0.4,0,0.7-0.3,0.7-0.7v-12.1C-244.1,404.5-244.4,404.2-244.8,404.2z M-256.3,414.5h-6.2v-1.4h6.2V414.5z M-251.2,411.6h-11.3
				v-1.4h11.3V411.6z M-245.8,408.8h-18.6v-1.5h18.6V408.8z"/>
		</g>
	</g>
</g>
</svg>
