<?xml version="1.0" encoding="utf-8"?>
<!-- Generator: Adobe Illustrator 19.0.0, SVG Export Plug-In . SVG Version: 6.00 Build 0)  -->
<svg version="1.1" id="图层_1" xmlns="http://www.w3.org/2000/svg" xmlns:xlink="http://www.w3.org/1999/xlink" x="0px" y="0px"
	 viewBox="-277 400.9 40 40" style="enable-background:new -277 400.9 40 40;" xml:space="preserve">
<style type="text/css">
	.st0{fill:#FFFFFF;}
</style>
<g>
	<path id="XMLID_26_" class="st0" d="M-268.9,437.5c-0.4,0-0.9-0.1-1.5-0.7c-0.5-0.5-3.1-2.9-4.6-4.3l-1-1c-0.5-0.3-1-0.9-1-1.7
		c0-0.3,0.1-0.7,0.6-1c0.5-0.3,2.1-1.6,2.5-1.9c0.7-0.6,1.8-0.6,2.5,0.1c0.3,0.2,1.4,1.3,2.7,2.4c1.6,1.4,3.3,2.9,3.6,3.2
		c0.5,0.5,0.6,1,0.6,1.3c0,0.3-0.2,0.9-0.8,1.3c-0.6,0.5-1.6,1.2-2.2,1.7l-0.2,0.2C-268.1,437.4-268.5,437.5-268.9,437.5
		L-268.9,437.5z M-272.6,427.7c-0.1,0-0.3,0.1-0.4,0.1c-0.4,0.3-2.1,1.6-2.6,2c-0.1,0.1,0.1,0.4,0.4,0.8l1,1
		c1.5,1.4,4.1,3.9,4.6,4.3c0.2,0.2,0.6,0.4,1,0.1l0.2-0.2c0.6-0.5,1.6-1.3,2.3-1.8c0.2-0.1,0.3-0.3,0.3-0.3s0-0.1-0.2-0.3
		c-0.3-0.3-2-1.8-3.6-3.2c-1.2-1.1-2.4-2.1-2.7-2.4C-272.3,427.8-272.5,427.7-272.6,427.7L-272.6,427.7z M-263.9,433.4
		c-0.2,0-0.3-0.1-0.4-0.2l-6.4-5.7c-0.1-0.1-0.2-0.2-0.2-0.3l-0.2-0.6c-0.1-0.2,0-0.5,0.2-0.7c0.2-0.2,4.6-4.2,7.8-4.4
		c2.3-0.1,7.9,0.2,11.4,0.3c1.2,0.1,2.1,0.1,2.6,0.1c1.5,0.1,2.3,0.9,2.3,1.7c0,0.7-0.5,1.5-1.8,1.6c-1,0.1-2.8,0.2-4.6,0.4
		c-1.5,0.1-3.3,0.2-3.6,0.3l-0.1,0.1c0.1,0,0.5,0.2,1.4,0.3c1.6,0.1,6.2,0.6,7.7,0.4c0.8-0.1,3.1-1.8,4.5-2.9c0.8-0.6,1.5-1.1,2-1.4
		c0.5-0.3,1.3-0.6,2.2-0.6c0.9,0,1.6,0.3,2,0.9c0.5,0.8-0.7,2.1-1.2,2.5c-5.5,4.5-8.9,6.8-10.7,7.1c-1.3,0.2-4.2,0.1-6.7-0.1
		c-1.3-0.1-2.6-0.1-3.4-0.1c-0.5,0-0.7,0-0.8,0c-1.2,0.3-2.7,1.1-2.7,1.1c-0.1,0.1-0.2,0.1-0.3,0.1L-263.9,433.4
		C-263.8,433.4-263.8,433.4-263.9,433.4L-263.9,433.4z M-269.7,426.6l6.1,5.4h0.4c0.4-0.2,1.8-0.9,2.9-1.2c0.6-0.1,2.4-0.1,4.6,0.1
		c2.4,0.1,5.3,0.3,6.5,0.1c0.9-0.1,3.3-1.2,9.9-6.7c0.5-0.4,0.8-0.8,0.9-1c-0.5-0.4-1.7-0.1-2.2,0.2c-0.4,0.3-1.1,0.8-1.8,1.3
		c-2.2,1.7-4,3-5.1,3.1c-1.6,0.2-6.4-0.2-8-0.4c-0.6-0.1-2.5-0.2-2.6-1.5c-0.1-0.7,0.6-1.3,1.1-1.5c0.3-0.1,1.3-0.2,3.9-0.3
		c1.7-0.1,3.6-0.3,4.5-0.4c0.5-0.1,0.6-0.2,0.6-0.3s-0.3-0.4-1-0.4c-0.5,0-1.4-0.1-2.6-0.1c-3.4-0.2-9-0.5-11.3-0.3
		C-265.1,422.9-268.3,425.4-269.7,426.6L-269.7,426.6L-269.7,426.6z"/>
	<g id="XMLID_6_">
		<g id="XMLID_45_">
			<path id="XMLID_46_" class="st0" d="M-244.8,404.2H-265c-0.4,0-0.7,0.3-0.7,0.7V417c0,0.4,0.3,0.7,0.7,0.7h20.2
				c0.4,0,0.7-0.3,0.7-0.7v-12.1C-244.1,404.5-244.4,404.2-244.8,404.2z M-245.6,415.5c0,0.4-0.3,0.7-0.7,0.7h-17.2
				c-0.4,0-0.7-0.3-0.7-0.7v-9.2c0-0.4,0.3-0.7,0.7-0.7h17.2c0.4,0,0.7,0.3,0.7,0.7C-245.6,406.3-245.6,415.5-245.6,415.5z"/>
		</g>
	</g>
	<rect id="XMLID_5_" x="-265.1" y="407.3" class="st0" width="20" height="1.6"/>
	<rect id="XMLID_4_" x="-262.5" y="410.2" class="st0" width="11.3" height="1.4"/>
	<rect id="XMLID_3_" x="-262.5" y="413" class="st0" width="6.2" height="1.4"/>
</g>
</svg>
