<?xml version="1.0" encoding="utf-8"?>
<!-- Generator: Adobe Illustrator 19.0.0, SVG Export Plug-In . SVG Version: 6.00 Build 0)  -->
<svg version="1.1" id="图层_1" xmlns="http://www.w3.org/2000/svg" xmlns:xlink="http://www.w3.org/1999/xlink" x="0px" y="0px"
	 viewBox="-277 400.9 40 40" style="enable-background:new -277 400.9 40 40;" xml:space="preserve">
<style type="text/css">
	.st0{fill:#FFFFFF;}
</style>
<g id="XMLID_2_">
	<g id="XMLID_3_" transform="scale(0.0390625, 0.0390625)">
		<path id="XMLID_4_" class="st0" d="M-6269.8,10368.6c-81.5-35-191.3-54.3-309.3-54.3s-227.8,19.3-309.3,54.3
			c-83.5,35.9-129.5,85.1-129.5,138.5v535.2c0,53.4,46,102.6,129.5,138.5c81.5,35,191.3,54.3,309.3,54.3s227.8-19.3,309.3-54.3
			c83.5-35.9,129.5-85.1,129.5-138.5V10507C-6140.3,10453.7-6186.3,10404.5-6269.8,10368.6z M-6318.6,10603.8
			c-72.7,24.9-170,39.8-260.5,39.8c-91.8,0-186.7-14.5-260.5-39.8c-77.5-26.6-120.1-60.9-120.1-96.8s42.7-70.2,120.1-96.8
			c73.8-25.2,168.7-39.7,260.5-39.7c90.4,0,187.8,14.9,260.5,39.8c77.5,26.6,120.1,60.9,120.1,96.8
			C-6198.5,10543-6241.1,10577.2-6318.6,10603.8z M-6318.6,10768.5c-72.7,24.9-170,39.8-260.5,39.8c-91.8,0-186.7-14.5-260.5-39.8
			c-77.5-26.6-120.1-61-120.1-96.8v-66.6c37,28.3,90.2,51.8,154.6,68.3c67.5,17.3,145.6,26.4,226,26.4s158.5-9.1,226-26.4
			c64.4-16.5,117.7-40.1,154.6-68.3v66.6C-6198.5,10707.5-6241.1,10741.9-6318.6,10768.5z M-6318.6,10953.7
			c-72.7,24.9-170.1,39.8-260.5,39.8c-91.8,0-186.7-14.5-260.5-39.8c-77.5-26.6-120.1-60.9-120.1-96.8v-87.2
			c37,28.3,90.2,51.8,154.6,68.3c67.5,17.3,145.6,26.4,226,26.4s158.5-9.1,226-26.4c64.4-16.5,117.7-40.1,154.6-68.3v87.2
			C-6198.5,10892.8-6241.1,10927.1-6318.6,10953.7z M-6579.1,11178.8c-91.8,0-186.7-14.5-260.5-39.8
			c-77.5-26.6-120.1-60.9-120.1-96.8v-87.2c37,28.3,90.2,51.8,154.6,68.3c67.5,17.3,145.6,26.4,226,26.4s158.5-9.1,226-26.4
			c64.4-16.5,117.7-40.1,154.6-68.3v87.2c0,35.8-42.7,70.2-120.1,96.8C-6391.3,11163.9-6488.7,11178.8-6579.1,11178.8z"/>
	</g>
</g>
</svg>
