<?xml version="1.0" encoding="utf-8"?>
<!-- Generator: Adobe Illustrator 19.0.0, SVG Export Plug-In . SVG Version: 6.00 Build 0)  -->
<svg version="1.1" id="图层_1" xmlns="http://www.w3.org/2000/svg" xmlns:xlink="http://www.w3.org/1999/xlink" x="0px" y="0px"
	 viewBox="-277 400.9 40 40" style="enable-background:new -277 400.9 40 40;" xml:space="preserve">
<style type="text/css">
	.st0{fill:#1AA2E7;}
</style>
<g id="XMLID_2_">
	<g id="XMLID_62_">
		<path id="XMLID_63_" class="st0" d="M-239.9,410.4c0-2.1-1.8-4-5.1-5.4c-3.2-1.4-7.5-2.1-12.1-2.1s-8.9,0.8-12.1,2.1
			c-3.2,1.4-5,3.4-5,5.5v20.9c0,2.1,1.8,4,5.1,5.4c3.2,1.4,7.5,2.1,12.1,2.1c4.6,0,8.9-0.8,12.1-2.1c3.3-1.4,5.1-3.3,5.1-5.4
			L-239.9,410.4z M-271.9,414.3c1.4,1.1,3.5,2,6,2.7c2.6,0.7,5.7,1,8.8,1s6.2-0.4,8.8-1c2.5-0.6,4.6-1.6,6-2.7v2.6
			c0,1.4-1.7,2.7-4.7,3.8c-2.8,1-6.6,1.6-10.2,1.6s-7.3-0.6-10.2-1.5c-3-1-4.7-2.4-4.7-3.8L-271.9,414.3z M-271.9,420.7
			c1.4,1.1,3.5,2,6,2.7c2.6,0.7,5.7,1,8.8,1s6.2-0.4,8.8-1c2.5-0.6,4.6-1.6,6-2.7v3.4c0,1.4-1.7,2.7-4.7,3.8
			c-2.8,1-6.6,1.6-10.2,1.6s-7.3-0.6-10.2-1.5c-3-1-4.7-2.4-4.7-3.8L-271.9,420.7z M-246.8,435.1c-2.8,1-6.6,1.6-10.2,1.6
			c-3.6,0-7.3-0.6-10.2-1.5c-3-1-4.7-2.4-4.7-3.8V428c1.4,1.1,3.5,2,6,2.7c2.6,0.7,5.7,1,8.8,1s6.2-0.4,8.8-1c2.5-0.6,4.6-1.6,6-2.7
			v3.4C-242.2,432.7-243.8,434.1-246.8,435.1z"/>
	</g>
</g>
</svg>
