<?xml version="1.0" encoding="utf-8"?>
<!-- Generator: Adobe Illustrator 19.0.0, SVG Export Plug-In . SVG Version: 6.00 Build 0)  -->
<svg version="1.1" id="图层_1" xmlns="http://www.w3.org/2000/svg" xmlns:xlink="http://www.w3.org/1999/xlink" x="0px" y="0px"
	 viewBox="0 0 200 200" style="enable-background:new 0 0 200 200;" xml:space="preserve">
<style type="text/css">
	.st0{fill:#FFFFFF;}
</style>
<g id="XMLID_2_">
	<g id="XMLID_3_" transform="scale(0.1953125, 0.1953125)">
		<path id="XMLID_4_" class="st0" d="M855.9,60.4C765.3,21.4,643.2,0,512,0S258.6,21.4,168.1,60.4c-92.9,39.9-144,94.5-144,154
			v595.2c0,59.5,51.1,114.1,144,154c90.7,39,212.8,60.4,343.9,60.4s253.4-21.4,343.9-60.4c92.9-39.9,144-94.5,144-154V214.4
			C999.9,154.9,948.8,100.3,855.9,60.4z M801.6,322c-80.8,27.7-189.1,44.3-289.6,44.3c-102.1,0-207.7-16.1-289.6-44.3
			c-86.2-29.6-133.6-67.8-133.6-107.6s47.4-78.1,133.6-107.6c82-28.1,187.5-44.3,289.6-44.3c100.6,0,208.9,16.6,289.6,44.3
			c86.2,29.6,133.6,67.8,133.6,107.6C935.3,254.2,887.8,292.5,801.6,322z M801.6,505.1c-80.8,27.7-189.1,44.3-289.6,44.3
			c-102.1,0-207.7-16.1-289.6-44.3c-86.2-29.6-133.6-67.8-133.6-107.6v-74.1c41.1,31.4,100.3,57.7,172,75.9
			c75,19.2,161.9,29.3,251.4,29.3c89.4,0,176.3-10.1,251.4-29.3c71.6-18.4,130.8-44.5,172-75.9v74.1
			C935.3,437.4,887.8,475.6,801.6,505.1z M801.6,711.2c-80.8,27.7-189.1,44.3-289.6,44.3c-102.1,0-207.7-16.1-289.6-44.3
			c-86.2-29.6-133.6-67.8-133.6-107.6v-97c41.1,31.4,100.3,57.7,172,75.9c75,19.2,161.9,29.3,251.4,29.3
			c89.4,0,176.3-10.1,251.4-29.3c71.6-18.4,130.8-44.5,172-75.9v97C935.3,643.3,887.8,681.6,801.6,711.2z M511.9,961.4
			c-102.1,0-207.7-16.1-289.6-44.3c-86.2-29.6-133.6-67.8-133.6-107.6v-96.9c41.1,31.4,100.3,57.7,172,75.9
			c75,19.2,161.9,29.3,251.4,29.3c89.4,0,176.3-10.1,251.4-29.3c71.6-18.4,130.8-44.5,172-75.9v97c0,39.8-47.4,78.1-133.6,107.6
			C720.8,944.9,612.5,961.4,511.9,961.4z"/>
	</g>
</g>
</svg>
