<?xml version="1.0" standalone="no"?><!DOCTYPE svg PUBLIC "-//W3C//DTD SVG 1.1//EN" "http://www.w3.org/Graphics/SVG/1.1/DTD/svg11.dtd"><svg width="20" height="20" viewBox="0 0 20 20" version="1.1" xmlns="http://www.w3.org/2000/svg" xmlns:xlink="http://www.w3.org/1999/xlink"><defs><style type="text/css"><![CDATA[
@font-face { font-family: ifont; src: url(http://at.alicdn.com/t/font_1442373896_4754455.eot?#iefix) format(embedded-opentype), url(http://at.alicdn.com/t/font_1442373896_4754455.woff) format(woff), url(http://at.alicdn.com/t/font_1442373896_4754455.ttf) format(truetype), url(http://at.alicdn.com/t/font_1442373896_4754455.svg#ifont) format(svg); }

]]></style></defs><g class="transform-group"><g transform="scale(0.01953125, 0.01953125)"><path d="M986.56561 728.330866l-97.951713-57.380832c-3.58099-2.098994-7.869977-2.619992-11.853965-1.436996-3.978988 1.181997-7.290979 3.959988-9.145973 7.673978-30.142912 60.316823-76.071777 111.235674-132.823611 147.251569-58.352829 37.029892-125.845631 56.603834-195.183428 56.603834-98.077713 0-190.279443-38.374888-259.622239-108.055683C210.622883 703.28794 172.422995 610.601211 172.422995 511.9985c0-98.601711 38.199888-191.28944 107.561685-260.989235 69.342797-69.679796 161.544527-108.054683 259.622239-108.054683 69.338797 0 136.830599 19.573943 195.180428 56.603834 56.749834 36.015894 102.672699 86.934745 132.803611 147.249569 1.854995 3.713989 5.166985 6.492981 9.145973 7.674978 3.980988 1.181997 8.271976 0.661998 11.853965-1.435996l97.951713-57.380832c7.103979-4.161988 9.525972-13.272961 5.424984-20.41394l-22.278935-38.788886c-1.986994-3.45999-5.270985-5.984982-9.124973-7.017979-3.855989-1.031997-7.960977-0.485999-11.411967 1.516996l-47.90486 27.808919c-30.375911-43.749872-67.075803-80.835763-109.37468-110.524676l27.505919-47.88186c4.111988-7.158979 1.665995-16.295952-5.473984-20.44294l-38.937886-22.613934c-3.44999-2.003994-7.556978-2.548993-11.412967-1.518996-3.853989 1.031997-7.139979 3.55799-9.126973 7.017979l-27.43092 47.75186c-47.69286-22.585934-97.994713-36.229894-149.885561-40.656881L577.109809 14.999956c0-8.283976-6.71598-14.999956-14.999956-14.999956l-44.984868 0c-8.283976 0-14.999956 6.71598-14.999956 14.999956l0 54.924839c-51.890848 4.426987-102.191701 18.070947-149.885561 40.656881l-27.42992-47.75086c-1.987994-3.45999-5.271985-5.985982-9.126973-7.017979-3.854989-1.031997-7.961977-0.485999-11.412967 1.518996l-38.937886 22.612934c-7.139979 4.145988-9.585972 13.283961-5.473984 20.44294l27.505919 47.88186c-42.298876 29.688913-78.999769 66.774804-109.37468 110.524676l-47.90486-27.808919c-3.44799-2.001994-7.552978-2.546993-11.407967-1.517996-3.852989 1.030997-7.136979 3.55399-9.124973 7.011979l-22.503934 39.126885c-4.118988 7.161979-1.670995 16.306952 5.475984 20.45294l47.90286 27.791919c-22.743933 48.197859-36.457893 98.719711-40.86988 150.555559L45.016368 474.40661c-8.283976 0-14.999956 6.71598-14.999956 14.999956l0 45.203868c0 8.283976 6.71598 14.999956 14.999956 14.999956l54.56284 0c4.411987 51.834848 18.125947 102.3567 40.86988 150.555559l-47.90286 27.792919c-7.145979 4.145988-9.594972 13.290961-5.475984 20.45294l22.503934 39.126885c1.988994 3.45799 5.271985 5.979982 9.125973 7.011979 3.851989 1.031997 7.957977 0.483999 11.406967-1.517996l47.90486-27.808919c30.374911 43.748872 67.074803 80.834763 109.37468 110.524676l-27.505919 47.88186c-4.111988 7.158979-1.665995 16.296952 5.473984 20.44294l38.937886 22.612934c3.45199 2.002994 7.558978 2.549993 11.412967 1.517996 3.854989-1.031997 7.139979-3.55799 9.126973-7.017979l27.42992-47.75086c47.69386 22.585934 97.995713 36.229894 149.885561 40.656881L502.148029 1008.997044c0 8.283976 6.71598 14.999956 14.999956 14.999956l44.984868 0c8.283976 0 14.999956-6.71598 14.999956-14.999956l0-54.901839c51.889848-4.426987 102.190701-18.070947 149.885561-40.656881l27.43092 47.75086c1.987994 3.45999 5.271985 5.984982 9.126973 7.017979 3.855989 1.032997 7.961977 0.484999 11.412967-1.518996l38.937886-22.611934c7.139979-4.145988 9.585972-13.283961 5.473984-20.44294l-27.505919-47.88186c42.297876-29.687913 78.997769-66.773804 109.37468-110.524676l47.90486 27.808919c3.44899 2.002994 7.556978 2.546993 11.410967 1.516996 3.853989-1.031997 7.138979-3.55899 9.125973-7.018979l22.278935-38.787886C996.092582 741.603827 993.670589 732.492854 986.56561 728.330866zM441.923205 474.40761 224.867841 474.40761c-8.283976 0-14.999956 6.71598-14.999956 14.999956l0 45.203868c0 8.283976 6.71598 14.999956 14.999956 14.999956l217.057364 0c15.354955 40.420882 54.000842 67.749802 97.682714 67.749802 57.843831 0 104.902693-47.265862 104.902693-105.362691 0-58.08483-47.059862-105.340691-104.902693-105.340691C495.922047 406.657809 457.27516 433.990729 441.923205 474.40761z" fill="#272636"></path></g></g></svg>