<?xml version="1.0" encoding="utf-8"?>
<!-- Generator: Adobe Illustrator 19.0.0, SVG Export Plug-In . SVG Version: 6.00 Build 0)  -->
<svg version="1.1" id="图层_1" xmlns="http://www.w3.org/2000/svg" xmlns:xlink="http://www.w3.org/1999/xlink" x="0px" y="0px"
	 viewBox="30 -30 100 100" style="enable-background:new 30 -30 100 100;" xml:space="preserve">
<style type="text/css">
	.st0{fill:url(#SVGID_1_);stroke:#E20A2E;stroke-miterlimit:10;}
</style>
<g>
	
		<image style="overflow:visible;opacity:0.1;enable-background:new    ;" width="137" height="122" transform="matrix(0.9959 0 0 0.9959 11.7809 -39.5021)">
	</image>
	<g>
		<g>
			<g transform="scale(0.1953125, 0.1953125)">
				
					<linearGradient id="SVGID_1_" gradientUnits="userSpaceOnUse" x1="-83472.9766" y1="-35947.6367" x2="-83472.9766" y2="-35863.4766" gradientTransform="matrix(7.450103e-003 0 0 -7.450103e-003 847.5892 33.7135)">
					<stop  offset="0" style="stop-color:#FA616D"/>
					<stop  offset="1" style="stop-color:#F2545E"/>
				</linearGradient>
				<path class="st0" d="M648.3,251.9L445.8-88.2c-9.8-15.5-18.1-28.1-36.4-28.1c-18.2,0-28.5,14.8-36.4,28.1L170.6,251.9
					c-8.5,13.2-14.5,28.9-10.7,42.6c3.3,12,16.1,20.1,35.8,20.1h427.4c24.7,0,33-11.7,35.4-17.9C664,282.6,657.2,266.4,648.3,251.9
					L648.3,251.9z M384.8,24.2c0-13.7,11.1-24.9,24.9-24.9c13.7,0,24.9,11.1,24.9,24.9v116c0,13.7-11.1,24.9-24.9,24.9
					c-13.7,0-24.9-11.1-24.9-24.9V24.2L384.8,24.2z M409.6,248.1c-14.8,0-26.8-12-26.8-26.8c0-14.8,12-26.8,26.8-26.8
					c14.8,0,26.8,12,26.8,26.8C436.4,236.1,424.4,248.1,409.6,248.1L409.6,248.1z"/>
			</g>
		</g>
	</g>
</g>
</svg>
