<?xml version="1.0" encoding="utf-8"?>
<!-- Generator: Adobe Illustrator 19.0.0, SVG Export Plug-In . SVG Version: 6.00 Build 0)  -->
<svg version="1.1" id="图层_1" xmlns="http://www.w3.org/2000/svg" xmlns:xlink="http://www.w3.org/1999/xlink" x="0px" y="0px"
	 viewBox="0 0 40 40" style="enable-background:new 0 0 40 40;" xml:space="preserve">
<style type="text/css">
	.st0{fill:#2CA2F3;}
	.st1{fill:#E8F5FD;}
</style>
<g id="XMLID_30_">
	<path id="XMLID_31_" class="st0" d="M38.3,30c0,0.3-0.1,0.5-0.3,0.6l-17.3,9.3h-0.1C20.5,40,20.4,40,20.3,40s-0.2,0-0.3-0.1H20
		L2.7,30.6c-0.2-0.1-0.3-0.3-0.3-0.6V10V9.9c0-0.1,0-0.1,0.1-0.2V9.6l0.2-0.2l0.1-0.1L20,0C20.2,0,20.4,0,20.7,0L38,9.4l0.1,0.1
		l0.2,0.2v0.1l0.1,0.2V10V30z"/>
	<polygon id="XMLID_29_" class="st1" points="5.7,10 20.3,17.9 34.9,10 20.3,2.1 	"/>
	<polygon id="XMLID_28_" class="st1" points="36.3,28.9 36.3,11.5 21.3,19.7 21.3,37 	"/>
	<polygon id="XMLID_32_" class="st1" points="19.3,37 19.3,19.7 4.3,11.5 4.3,28.9 	"/>
</g>
</svg>
