<?xml version="1.0" encoding="utf-8"?>
<!-- Generator: Adobe Illustrator 19.0.0, SVG Export Plug-In . SVG Version: 6.00 Build 0)  -->
<svg version="1.1" id="图层_1" xmlns="http://www.w3.org/2000/svg" xmlns:xlink="http://www.w3.org/1999/xlink" x="0px" y="0px"
	 viewBox="0 0 20 20" style="enable-background:new 0 0 20 20;" xml:space="preserve">
<style type="text/css">
	.st0{fill-rule:evenodd;clip-rule:evenodd;fill:#272536;}
</style>
<g>
	<path class="st0" d="M20,2.6c0-0.5-0.4-0.9-0.9-0.9l-18.2,0C0.4,1.8,0,2.2,0,2.6v11.3c0,0.5,0.4,0.9,0.9,0.9h18.2
		c0.5,0,0.9-0.4,0.9-0.9L20,2.6L20,2.6L20,2.6z M18.3,13.1H1.8V3.5h16.5V13.1L18.3,13.1L18.3,13.1z"/>
	<path class="st0" d="M15.1,17c0,0.5-0.4,0.9-0.9,0.9H5.8c-0.5,0-0.9-0.4-0.9-0.9c0-0.5,0.4-0.9,0.9-0.9h8.4
		C14.7,16.1,15.1,16.5,15.1,17L15.1,17z"/>
	<path class="st0" d="M14.1,9.1c-0.2,0-1.7,0-1.7,0V7.8h1.7c0.2,0,0.4-0.2,0.4-0.5c0-0.2-0.2-0.5-0.4-0.5h-1.7V5.8h-1.3
		c-1.2,0-2.3,1.1-2.5,2h-3v1.1h3c0.2,1.1,1.3,2,2.5,2h1.3V10h1.7c0.2,0,0.4-0.3,0.4-0.5C14.5,9.3,14.3,9.1,14.1,9.1L14.1,9.1z"/>
</g>
</svg>
