<?xml version="1.0" encoding="utf-8"?>
<!-- Generator: Adobe Illustrator 19.0.0, SVG Export Plug-In . SVG Version: 6.00 Build 0)  -->
<svg version="1.1" id="图层_1" xmlns="http://www.w3.org/2000/svg" xmlns:xlink="http://www.w3.org/1999/xlink" x="0px" y="0px"
	 viewBox="0 0 40 40" style="enable-background:new 0 0 40 40;" xml:space="preserve">
<style type="text/css">
	.st0{fill:#2CA2F3;}
	.st1{fill:#E8F5FD;}
</style>
<g id="XMLID_37_">
	<path id="XMLID_34_" class="st0" d="M38,12H2c-1.1,0-2-0.9-2-2V3c0-1.1,0.9-2,2-2h36c1.1,0,2,0.9,2,2v7C40,11.1,39.1,12,38,12z"/>
	<rect id="XMLID_35_" x="2" y="2.8" class="st1" width="36" height="7.3"/>
	<rect id="XMLID_36_" x="7.7" y="3.8" class="st0" width="2.1" height="5.5"/>
</g>
<g id="XMLID_39_">
	<path id="XMLID_63_" class="st0" d="M38,25H2c-1.1,0-2-0.9-2-2v-7c0-1.1,0.9-2,2-2h36c1.1,0,2,0.9,2,2v7C40,24.1,39.1,25,38,25z"/>
	<rect id="XMLID_56_" x="2" y="15.8" class="st1" width="36" height="7.3"/>
	<rect id="XMLID_45_" x="7.7" y="16.8" class="st0" width="2.1" height="5.5"/>
</g>
<g id="XMLID_65_">
	<path id="XMLID_74_" class="st0" d="M38,38H2c-1.1,0-2-0.9-2-2v-7c0-1.1,0.9-2,2-2h36c1.1,0,2,0.9,2,2v7C40,37.1,39.1,38,38,38z"/>
	<rect id="XMLID_69_" x="2" y="28.8" class="st1" width="36" height="7.3"/>
	<rect id="XMLID_68_" x="7.7" y="29.8" class="st0" width="2.1" height="5.5"/>
</g>
</svg>
