<?xml version="1.0" encoding="utf-8"?>
<!-- Generator: Adobe Illustrator 19.0.0, SVG Export Plug-In . SVG Version: 6.00 Build 0)  -->
<svg version="1.1" id="图层_1" xmlns="http://www.w3.org/2000/svg" xmlns:xlink="http://www.w3.org/1999/xlink" x="0px" y="0px"
	 viewBox="0 0 40 40" style="enable-background:new 0 0 40 40;" xml:space="preserve">
<style type="text/css">
	.st0{fill:#2CA2F3;}
	.st1{fill:#C8E8FC;}
	.st2{fill:#ECF7FD;}
</style>
<g id="XMLID_119_">
	<ellipse id="XMLID_111_" class="st0" cx="7.2" cy="30.8" rx="7.1" ry="7.5"/>
	<ellipse id="XMLID_118_" class="st0" cx="13.1" cy="22" rx="7.1" ry="7.5"/>
	<ellipse id="XMLID_116_" class="st0" cx="24.1" cy="22.5" rx="11" ry="11.6"/>
	<ellipse id="XMLID_121_" class="st0" cx="32.7" cy="30.6" rx="7.2" ry="7.7"/>
	<rect id="XMLID_123_" x="7.2" y="26.1" class="st0" width="25.3" height="12.2"/>
</g>
<g id="XMLID_16_">
	<g id="XMLID_76_">
		<g id="XMLID_82_">
			<ellipse id="XMLID_83_" class="st1" cx="8.9" cy="30.4" rx="6.1" ry="6.6"/>
		</g>
		<g id="XMLID_80_">
			<ellipse id="XMLID_81_" class="st1" cx="14" cy="22.7" rx="6.1" ry="6.6"/>
		</g>
		<ellipse id="XMLID_79_" class="st1" cx="23.6" cy="23.2" rx="9.5" ry="10.2"/>
		<ellipse id="XMLID_78_" class="st1" cx="31" cy="30.3" rx="6.3" ry="6.7"/>
		<rect id="XMLID_77_" x="8.9" y="26.3" class="st1" width="21.9" height="10.7"/>
	</g>
</g>
<path id="XMLID_155_" class="st0" d="M28.3,38.1h-17c-0.5,0-1-0.4-1-1V4.9c0-0.5,0.4-1,1-1h17c0.5,0,1,0.4,1,1v32.3
	C29.3,37.7,28.8,38.1,28.3,38.1z"/>
<rect id="XMLID_109_" x="12.4" y="6.4" class="st2" width="14.8" height="29.8"/>
<rect id="XMLID_137_" x="15" y="10.7" class="st0" width="9.6" height="1.6"/>
<rect id="XMLID_140_" x="15" y="15.6" class="st0" width="9.6" height="1.6"/>
</svg>
