<?xml version="1.0" encoding="utf-8"?>
<!-- Generator: Adobe Illustrator 19.0.0, SVG Export Plug-In . SVG Version: 6.00 Build 0)  -->
<svg version="1.1" id="图层_1" xmlns="http://www.w3.org/2000/svg" xmlns:xlink="http://www.w3.org/1999/xlink" x="0px" y="0px"
	 viewBox="0 0 40 40" style="enable-background:new 0 0 40 40;" xml:space="preserve">
<style type="text/css">
	.st0{fill:#666666;}
</style>
<path id="XMLID_2_" class="st0" d="M20,2C9,2,0,11,0,22c0,5.6,2.3,10.7,6.1,14.3h4.5h18.8h4.5C37.7,32.7,40,27.6,40,22
	C40,11,31,2,20,2L20,2L20,2z M33.4,34.3H6.6c-2.9-3.2-4.7-7.4-4.7-12.1C1.9,12.2,10,4.1,20,4.1s18.1,8.1,18.1,18.1
	C38.1,26.8,36.3,31.1,33.4,34.3L33.4,34.3L33.4,34.3z M8,21.2l-3.6-0.6l0.4-2l3.6,0.6L8,21.2L8,21.2z M31.7,19.2l3.6-0.6l0.4,2
	L32,21.2L31.7,19.2L31.7,19.2z M11.4,13.5l-2.4-2.8l1.6-1.3l2.4,2.8L11.4,13.5L11.4,13.5z M28.6,13.5L27,12.1l2.4-2.8l1.6,1.3
	L28.6,13.5L28.6,13.5z M19,6.3h2V10h-2V6.3L19,6.3z M20.1,22.1l-6.1-6.9l3.4,8.4c-0.5,0.9-0.6,2.1,0.1,3.1c0.9,1.4,2.8,1.9,4.2,1
	c1.4-0.9,1.9-2.8,1-4.2C22,22.6,21.1,22.1,20.1,22.1L20.1,22.1z"/>
</svg>
