<?xml version="1.0" encoding="utf-8"?>
<!-- Generator: Adobe Illustrator 19.0.0, SVG Export Plug-In . SVG Version: 6.00 Build 0)  -->
<svg version="1.1" id="图层_1" xmlns="http://www.w3.org/2000/svg" xmlns:xlink="http://www.w3.org/1999/xlink" x="0px" y="0px"
	 viewBox="0 0 40 40" style="enable-background:new 0 0 40 40;" xml:space="preserve">
<style type="text/css">
	.st0{fill:#FFFFFF;}
</style>
<g>
	<g>
		<path class="st0" d="M14,2.3v12h12v-12H14z M24,11.9h-8V4.7h8V11.9z"/>
	</g>
</g>
<g>
	<g>
		<path class="st0" d="M1,24.3v10h10v-10H1z M9.4,32.3H2.7v-6h6.7V32.3z"/>
	</g>
</g>
<g>
	<g>
		<path class="st0" d="M15,24.3v10h10v-10H15z M23.4,32.3h-6.7v-6h6.7V32.3z"/>
	</g>
</g>
<g>
	<g>
		<path class="st0" d="M29,24.3v10h10v-10H29z M37.4,32.3h-6.7v-6h6.7V32.3z"/>
	</g>
</g>
<rect id="XMLID_92_" x="19" y="14.3" class="st0" width="2" height="10"/>
<rect id="XMLID_93_" x="5" y="18.4" class="st0" width="30" height="1.9"/>
<rect id="XMLID_94_" x="5" y="18.4" class="st0" width="2" height="5.9"/>
<rect id="XMLID_96_" x="33" y="18.4" class="st0" width="2" height="5.9"/>
</svg>
