<?xml version="1.0" standalone="no"?><!DOCTYPE svg PUBLIC "-//W3C//DTD SVG 1.1//EN" "http://www.w3.org/Graphics/SVG/1.1/DTD/svg11.dtd"><svg width="200" height="200" viewBox="0 0 200 200" version="1.1" xmlns="http://www.w3.org/2000/svg" xmlns:xlink="http://www.w3.org/1999/xlink"><defs><style type="text/css"><![CDATA[
@font-face { font-family: ifont; src: url(http://at.alicdn.com/t/font_1442373896_4754455.eot?#iefix) format(embedded-opentype), url(http://at.alicdn.com/t/font_1442373896_4754455.woff) format(woff), url(http://at.alicdn.com/t/font_1442373896_4754455.ttf) format(truetype), url(http://at.alicdn.com/t/font_1442373896_4754455.svg#ifont) format(svg); }

]]></style></defs><g class="transform-group"><g transform="scale(0.1953125, 0.1953125)"><path d="M512 128C264.576 128 64 328.538746 64 575.91679 64 701.839684 115.974857 815.621975 199.642286 897L301.390857 897 722.610286 897 824.358857 897C908.025143 815.621975 960 701.839684 960 575.91679 960 328.538746 759.424 128 512 128L512 128 512 128ZM797.194286 833.011887 226.805714 833.011887C165.389714 764.953673 128 674.800135 128 575.91679 128 363.878467 299.922286 191.988113 512 191.988113 724.076571 191.988113 896 363.878467 896 575.91679 896 674.800135 858.610286 764.953673 797.194286 833.011887L797.194286 833.011887 797.194286 833.011887ZM242.246514 557.582139 161.211543 543.299993 169.147543 498.288926 250.182514 512.571073 242.246514 557.582139 242.246514 557.582139ZM773.776 512.591754 854.810971 498.309608 862.746971 543.320674 781.712 557.602821 773.776 512.591754 773.776 512.591754ZM319.782857 384.454416 266.8896 321.435266 301.907618 292.054846 354.800875 355.073996 319.782857 384.454416 319.782857 384.454416ZM704.229943 384.45133 669.2128 355.071645 722.106057 292.052495 757.1232 321.43218 704.229943 384.45133 704.229943 384.45133ZM489.142857 223.982169 534.857143 223.982169 534.857143 306.2526 489.142857 306.2526 489.142857 223.982169 489.142857 223.982169ZM513.949714 577.846718 376.274286 424.248966 452.834286 612.436863C440.774857 633.63064 440.435429 660.597059 454.266286 682.726663 474.336 714.838412 516.638857 724.602312 548.755429 704.537468 580.873143 684.472624 590.638857 642.176481 570.570286 610.065875 557.865143 589.738223 536.250286 578.366621 513.949714 577.846718L513.949714 577.846718Z" fill="#b8bcc3"></path></g></g></svg>