<?xml version="1.0" encoding="utf-8"?>
<!-- Generator: Adobe Illustrator 19.0.0, SVG Export Plug-In . SVG Version: 6.00 Build 0)  -->
<svg version="1.1" id="图层_1" xmlns="http://www.w3.org/2000/svg" xmlns:xlink="http://www.w3.org/1999/xlink" x="0px" y="0px"
	 viewBox="0 0 200 200" style="enable-background:new 0 0 200 200;" xml:space="preserve">
<style type="text/css">
	.st0{fill:#00A2EB;}
</style>
<g id="XMLID_2_">
	<g id="XMLID_90_">
		<path id="XMLID_91_" class="st0" d="M100,14.2c-55.2,0-100,44.8-100,100c0,28.1,11.6,53.5,30.3,71.7H53h94h22.7
			c18.7-18.2,30.3-43.6,30.3-71.7C200,58.9,155.2,14.2,100,14.2z M94.9,35.6h10.2V54H94.9V35.6z M39.8,110.1l-18.1-3.2l1.8-10
			l18.1,3.2L39.8,110.1z M57.1,71.4L45.3,57.4l7.8-6.6l11.8,14.1L57.1,71.4z M108.2,142.9c-7.2,4.5-16.6,2.3-21.1-4.9
			c-3.1-4.9-3-11-0.3-15.7l-17.1-42l30.7,34.3c5,0.1,9.8,2.7,12.6,7.2C117.6,128.9,115.4,138.4,108.2,142.9z M142.9,71.4l-7.8-6.6
			l11.8-14.1l7.8,6.6L142.9,71.4z M160.2,110.1l-1.8-10l18.1-3.2l1.8,10L160.2,110.1z"/>
	</g>
</g>
</svg>
