<?xml version="1.0" encoding="utf-8"?>
<!-- Generator: Adobe Illustrator 19.0.0, SVG Export Plug-In . SVG Version: 6.00 Build 0)  -->
<svg version="1.1" id="图层_1" xmlns="http://www.w3.org/2000/svg" xmlns:xlink="http://www.w3.org/1999/xlink" x="0px" y="0px"
	 viewBox="0 0 40 40" style="enable-background:new 0 0 40 40;" xml:space="preserve">
<style type="text/css">
	.st0{fill:#2CA2F3;}
</style>
<g>
	<g>
		<path class="st0" d="M35.1,23.1c0-0.3,0-0.6,0-0.8c0-4.2-2.2-7.9-5.4-10v2.9c2.1,1.9,3.4,4.7,3.4,7.8c0,0.3,0,0.5,0,0.8
			c2.5,0.9,4.2,3.4,4.2,6.3c0,3.7-2.8,6.7-6.3,6.7c-0.1,0-0.1,0-0.2,0v0H8.9c-3.4,0-6.1-3-6.1-6.6c0-3.3,2.3-6.1,5.2-6.5
			c-0.1-0.4-0.1-0.8-0.1-1.2c0-2.3,1.1-4.4,2.8-5.6v-2.2C8,15.8,6,18.5,6,21.8c0,0.5,0,0.9,0.1,1.4c-3.4,0.5-6,3.6-6,7.4
			c0,4.1,3.2,7.5,7.1,7.5h25.3v0c0.1,0,0.1,0,0.2,0c4,0,7.2-3.4,7.2-7.7C39.9,27,37.9,24.2,35.1,23.1z"/>
	</g>
</g>
<g>
	<g>
		<path class="st0" d="M28.7,3.9h-17c-0.6,0-1,0.5-1,1v32.2c0,0.6,0.5,1,1,1h17c0.5,0,1-0.4,1-0.9V4.9C29.7,4.3,29.2,3.9,28.7,3.9z
			 M27.6,36.2H12.8V6.4h14.8V36.2z"/>
	</g>
</g>
<rect id="XMLID_137_" x="15" y="10.7" class="st0" width="9.6" height="1.6"/>
<rect id="XMLID_140_" x="15" y="15.6" class="st0" width="9.6" height="1.6"/>
</svg>
