
<?xml version="1.0" encoding="utf-8"?>
<!-- Generator: Adobe Illustrator 19.0.0, SVG Export Plug-In . SVG Version: 6.00 Build 0)  -->
<svg version="1.1" id="图层_1" xmlns="http://www.w3.org/2000/svg" xmlns:xlink="http://www.w3.org/1999/xlink" x="0px" y="0px"
	 viewBox="0 0 40 40" style="enable-background:new 0 0 40 40;" xml:space="preserve">
<style type="text/css">
	.st0{fill:#2CA2F3;}
	.st1{fill:#E8F5FD;}
	.st2{fill:#C8E8FC;}
</style>
<g id="XMLID_33_">
	<path id="XMLID_72_" class="st0" d="M15.8,3.2h-14c-0.5,0-1,0.4-1,1v14c0,0.6,0.5,1,1,1h14c0.5,0,1-0.4,1-1v-14
		C16.8,3.7,16.3,3.2,15.8,3.2z"/>
	<rect id="XMLID_71_" x="2.8" y="5.2" class="st1" width="12" height="12"/>
	<path id="XMLID_67_" class="st0" d="M15.8,23.2h-14c-0.5,0-1,0.5-1,1v14c0,0.6,0.5,1,1,1h14c0.5,0,1-0.4,1-1v-14
		C16.8,23.7,16.3,23.2,15.8,23.2z"/>
	<rect id="XMLID_66_" x="2.8" y="25.2" class="st1" width="12" height="12"/>
	<path id="XMLID_62_" class="st0" d="M35.8,23.2h-14c-0.5,0-1,0.5-1,1v14c0,0.6,0.5,1,1,1h14c0.5,0,1-0.4,1-1v-14
		C36.8,23.7,36.3,23.2,35.8,23.2z"/>
	<rect id="XMLID_59_" x="22.8" y="25.2" class="st1" width="12" height="12"/>
	<path id="XMLID_53_" class="st0" d="M39.4,11l-9.9-9.9c-0.4-0.4-1-0.4-1.4,0l-10,9.9c-0.4,0.4-0.4,1,0,1.4l9.9,9.9
		c0.4,0.4,1,0.4,1.4,0l9.9-9.9C39.8,12,39.8,11.3,39.4,11z"/>
	
		<rect id="XMLID_52_" x="22.8" y="5.6" transform="matrix(0.7071 0.7071 -0.7071 0.7071 16.6387 -16.9633)" class="st2" width="12" height="12"/>
</g>
</svg>
