<?xml version="1.0" encoding="utf-8"?>
<!-- Generator: Adobe Illustrator 19.0.0, SVG Export Plug-In . SVG Version: 6.00 Build 0)  -->
<svg version="1.1" id="图层_1" xmlns="http://www.w3.org/2000/svg" xmlns:xlink="http://www.w3.org/1999/xlink" x="0px" y="0px"
	 viewBox="0 0 40 40" style="enable-background:new 0 0 40 40;" xml:space="preserve">
<style type="text/css">
	.st0{fill:#1AA2E7;}
</style>
<g id="XMLID_2_">
	<g id="XMLID_98_">
		<g id="XMLID_99_">
			<path id="XMLID_100_" class="st0" d="M20,2C9,2,0,11,0,22c0,5.6,2.3,10.7,6.1,14.3h4.5h18.8h4.5C37.7,32.7,40,27.6,40,22
				C40,11,31,2,20,2z M19,6.3h2V10h-2V6.3z M8,21.2l-3.6-0.6l0.4-2l3.6,0.6L8,21.2z M11.4,13.5l-2.4-2.8l1.6-1.3l2.4,2.8L11.4,13.5z
				 M21.6,27.8c-1.4,0.9-3.3,0.5-4.2-1c-0.6-1-0.6-2.2-0.1-3.1l-3.4-8.4l6.1,6.9c1,0,2,0.5,2.5,1.4C23.5,25,23.1,26.9,21.6,27.8z
				 M28.6,13.5L27,12.1l2.4-2.8l1.6,1.3L28.6,13.5z M32,21.2l-0.4-2l3.6-0.6l0.4,2L32,21.2z"/>
		</g>
	</g>
</g>
</svg>
