<?xml version="1.0" encoding="utf-8"?>
<!-- Generator: Adobe Illustrator 19.0.0, SVG Export Plug-In . SVG Version: 6.00 Build 0)  -->
<svg version="1.1" id="图层_1" xmlns="http://www.w3.org/2000/svg" xmlns:xlink="http://www.w3.org/1999/xlink" x="0px" y="0px"
	 viewBox="0 0 20 20" style="enable-background:new 0 0 20 20;" xml:space="preserve">
<style type="text/css">
	.st0{fill-rule:evenodd;clip-rule:evenodd;fill:#272536;}
</style>
<g>
	<path class="st0" d="M19.7,8c-0.8-0.5-1.7-0.5-2.3-0.5c-0.3-1.2-1.4-1.9-1.5-2l-0.4-0.3l-0.3,0.4c-1,1.2-0.7,2.6-0.3,3.4
		c-0.5,0.3-1,0.3-1,0.3h-0.3v-2h-2.3V6.2V5.4v-2H8.5v2H6.7H6.2H3.9v2H1.6v2H0.1L0.1,9.9c0,0.1-0.4,2.6,1.3,4.6
		c1.2,1.4,3.2,2.1,5.8,2.1c4.1,0,6.6-1.8,7.9-3.3c1.1-1.2,1.7-2.3,1.9-2.9c2.5,0,2.9-1.7,2.9-1.8L20,8.2L19.7,8L19.7,8z M9.3,7.4
		V6.2h1.2v1.2H9.3L9.3,7.4z M4.7,9.4V8.2h1.2v1.2H4.7L4.7,9.4z M7,9.4V8.2h1.2v1.2H7L7,9.4z M9.3,9.4V8.2h1.2v1.2H9.3L9.3,9.4z
		 M11.6,8.2h1.2v1.2h-1.2V8.2L11.6,8.2z M9.3,4.2h1.2v1.2H9.3V4.2L9.3,4.2z M7,6.2h1.2v1.2H7V6.2L7,6.2z M4.7,6.2h1.2v1.2H4.7V6.2
		L4.7,6.2z M2.4,8.2h1.2v1.2H2.4V8.2L2.4,8.2z M7.2,15.5c-1.2,0-2.3-0.2-3.2-0.5c0.6-0.1,1.4-0.4,2-0.9c0.2-0.2,0.3-0.5,0.1-0.8
		C6,13.1,5.7,13,5.4,13.2C4.3,14,2.9,14,2.5,14c-0.1-0.1-0.2-0.2-0.3-0.3c-1-1.1-1.1-2.5-1.1-3.2h12.8c0,0,1.2,0,2.1-0.8l0.1-0.1
		C16,10,14,15.5,7.2,15.5L7.2,15.5z M16.7,9.3l-0.3,0L16.1,9c0,0-0.7-1-0.3-2.1c0.3,0.3,0.6,0.7,0.6,1.3l0,0.8l0.7-0.2
		c0,0,0.8-0.2,1.5,0C18.4,9,17.8,9.3,16.7,9.3L16.7,9.3z"/>
	<path class="st0" d="M7.4,11.5c-0.5,0-0.9,0.4-0.9,0.9c0,0.5,0.4,0.9,0.9,0.9c0.5,0,0.9-0.4,0.9-0.9C8.3,11.9,7.9,11.5,7.4,11.5
		L7.4,11.5z M7.4,12.6c-0.1,0-0.2-0.1-0.2-0.2c0-0.1,0.1-0.2,0.2-0.2s0.2,0.1,0.2,0.2C7.6,12.5,7.5,12.6,7.4,12.6L7.4,12.6z"/>
</g>
</svg>
