<?xml version="1.0" encoding="utf-8"?>
<!-- Generator: Adobe Illustrator 19.0.0, SVG Export Plug-In . SVG Version: 6.00 Build 0)  -->
<svg version="1.1" id="图层_1" xmlns="http://www.w3.org/2000/svg" xmlns:xlink="http://www.w3.org/1999/xlink" x="0px" y="0px"
	 viewBox="0 0 40 40" style="enable-background:new 0 0 40 40;" xml:space="preserve">
<style type="text/css">
	.st0{fill:#FFFFFF;}
</style>
<path class="st0" d="M15.8,3.2h-14c-0.5,0-1,0.4-1,1v14c0,0.6,0.5,1,1,1h14c0.5,0,1-0.4,1-1v-14C16.8,3.7,16.3,3.2,15.8,3.2z
	 M2.8,5.2h12v12h-12V5.2z M15.8,23.2h-14c-0.5,0-1,0.5-1,1v14c0,0.6,0.5,1,1,1h14c0.5,0,1-0.4,1-1v-14
	C16.8,23.7,16.3,23.2,15.8,23.2z M2.8,25.2h12v12h-12V25.2z M35.8,23.2h-14c-0.5,0-1,0.5-1,1v14c0,0.6,0.5,1,1,1h14c0.5,0,1-0.4,1-1
	v-14C36.8,23.7,36.3,23.2,35.8,23.2z M22.8,25.2h12v12h-12V25.2z M39.4,11l-9.9-9.9c-0.4-0.4-1-0.4-1.4,0l-10,9.9
	c-0.4,0.4-0.4,1,0,1.4l9.9,9.9c0.4,0.4,1,0.4,1.4,0l9.9-9.9C39.8,12,39.8,11.3,39.4,11z M28.8,3.1l8.5,8.5l-8.5,8.5l-8.5-8.5
	L28.8,3.1z"/>
</svg>
