<?xml version="1.0" encoding="utf-8"?>
<!-- Generator: Adobe Illustrator 19.0.0, SVG Export Plug-In . SVG Version: 6.00 Build 0)  -->
<svg version="1.1" id="图层_1" xmlns="http://www.w3.org/2000/svg" xmlns:xlink="http://www.w3.org/1999/xlink" x="0px" y="0px"
	 viewBox="0 0 40 40" style="enable-background:new 0 0 40 40;" xml:space="preserve">
<style type="text/css">
	.st0{fill:#FFFFFF;}
</style>
<g id="XMLID_30_">
	<g>
		<path class="st0" d="M38.3,9.8L38.3,9.8l-0.2-0.3L38,9.4L20.7,0c-0.3,0-0.5,0-0.7,0L2.8,9.3L2.7,9.4L2.5,9.6v0.1
			C2.4,9.8,2.4,9.8,2.4,9.9V10v20c0,0.3,0.1,0.5,0.3,0.6L20,39.9c0.1,0.1,0.2,0.1,0.3,0.1c0.1,0,0.2,0,0.3-0.1h0.1L38,30.6
			c0.2-0.1,0.3-0.3,0.3-0.6h0.1V10L38.3,9.8z M19.3,37l-15-8.1V11.5l15,8.2V37z M20.3,17.9L5.7,10l14.6-7.9L34.9,10L20.3,17.9z
			 M36.3,28.9l-15,8.1V19.7l15-8.2V28.9z"/>
	</g>
</g>
</svg>
