<?xml version="1.0" encoding="utf-8"?>
<!-- Generator: Adobe Illustrator 19.0.0, SVG Export Plug-In . SVG Version: 6.00 Build 0)  -->
<svg version="1.1" id="图层_1" xmlns="http://www.w3.org/2000/svg" xmlns:xlink="http://www.w3.org/1999/xlink" x="0px" y="0px"
	 viewBox="0 0 20 20" style="enable-background:new 0 0 20 20;" xml:space="preserve">
<style type="text/css">
	.st0{fill-rule:evenodd;clip-rule:evenodd;fill:#272536;}
</style>
<g>
	<polygon class="st0" points="2.6,12.4 3.3,9.1 4.1,12.4 5.2,12.4 6.7,7.6 8.1,12.4 9.2,12.4 10,9.1 10.8,12.4 11.9,12.4 13.3,7.6 
		14.7,12.4 15.9,12.4 16.6,9.1 17.4,12.4 18.5,12.4 20,7.6 18.8,7.6 18,10.7 17.2,7.6 16.1,7.6 15.3,10.7 14.5,7.6 12.2,7.6 
		11.3,10.7 10.6,7.6 9.4,7.6 8.7,10.7 7.8,7.6 5.5,7.6 4.7,10.7 3.9,7.6 2.8,7.6 2,10.7 1.2,7.6 0,7.6 1.4,12.4 2.6,12.4 	"/>
	<path class="st0" d="M1.9,5.9c1.5-3,4.6-5,8.1-5s6.6,2,8.1,5h1C17.5,2.4,14.1,0,10,0S2.5,2.4,0.9,5.9H1.9L1.9,5.9z"/>
	<path class="st0" d="M18.1,14.1c-1.5,3-4.6,5-8.1,5s-6.6-2-8.1-5h-1c1.6,3.5,5,5.9,9.1,5.9s7.5-2.4,9.1-5.9H18.1L18.1,14.1z"/>
</g>
</svg>
