<?xml version="1.0" encoding="utf-8"?>
<!-- Generator: Adobe Illustrator 19.0.0, SVG Export Plug-In . SVG Version: 6.00 Build 0)  -->
<svg version="1.1" id="图层_1" xmlns="http://www.w3.org/2000/svg" xmlns:xlink="http://www.w3.org/1999/xlink" x="0px" y="0px"
	 viewBox="0 0 40 40" style="enable-background:new 0 0 40 40;" xml:space="preserve">
<style type="text/css">
	.st0{fill:#FFFFFF;}
</style>
<g>
	<g>
		<g>
			<path class="st0" d="M38,1H2C0.9,1,0,1.9,0,3v7c0,1.1,0.9,2,2,2h36c1.1,0,2-0.9,2-2V3C40,1.9,39.1,1,38,1z M38,10.1H2V2.8h36
				V10.1z"/>
		</g>
	</g>
	<rect id="XMLID_36_" x="7.7" y="3.8" class="st0" width="2.1" height="5.5"/>
	<g>
		<g>
			<path class="st0" d="M38,14H2c-1.1,0-2,0.9-2,2v7c0,1.1,0.9,2,2,2h36c1.1,0,2-0.9,2-2v-7C40,14.9,39.1,14,38,14z M38,23.1H2v-7.3
				h36V23.1z"/>
		</g>
	</g>
	<rect id="XMLID_45_" x="7.7" y="16.8" class="st0" width="2.1" height="5.5"/>
	<g>
		<g>
			<path class="st0" d="M38,27H2c-1.1,0-2,0.9-2,2v7c0,1.1,0.9,2,2,2h36c1.1,0,2-0.9,2-2v-7C40,27.9,39.1,27,38,27z M38,36.1H2v-7.3
				h36V36.1z"/>
		</g>
	</g>
	<rect id="XMLID_68_" x="7.7" y="29.8" class="st0" width="2.1" height="5.5"/>
</g>
</svg>
