<?xml version="1.0" encoding="utf-8"?>
<!-- Generator: Adobe Illustrator 19.0.0, SVG Export Plug-In . SVG Version: 6.00 Build 0)  -->
<svg version="1.1" id="图层_1" xmlns="http://www.w3.org/2000/svg" xmlns:xlink="http://www.w3.org/1999/xlink" x="0px" y="0px"
	 viewBox="0 0 40 40" style="enable-background:new 0 0 40 40;" xml:space="preserve">
<style type="text/css">
	.st0{fill:#7474F7;}
	.st1{fill:#F1F1FE;}
</style>
<path id="XMLID_82_" class="st0" d="M39,19.4H1c-0.6,0-1-0.4-1-1l6-12c0-0.5,0.4-1,1-1h26c0.5,0,1,0.5,1,1l6,12
	C40,19,39.5,19.4,39,19.4z"/>
<path id="XMLID_83_" class="st1" d="M37.1,19.9H2.8c-0.5,0-0.9-0.4-0.9-0.9L7.3,8.1c0-0.5,0.4-0.9,0.9-0.9h23.4
	c0.5,0,0.9,0.4,0.9,0.9L38,19C38,19.5,37.6,19.9,37.1,19.9z"/>
<path id="XMLID_1_" class="st0" d="M39,29.9H1c-0.6,0-1-0.5-1-1v-10c0-0.5,0.4-1,1-1h38c0.5,0,1,0.5,1,1v10
	C40,29.4,39.5,29.9,39,29.9z"/>
<rect id="XMLID_91_" x="2" y="19.9" class="st1" width="36" height="8"/>
<rect id="XMLID_11_" x="5.3" y="22.4" class="st0" width="3" height="3"/>
</svg>
