<?xml version="1.0" encoding="utf-8"?>
<!-- Generator: Adobe Illustrator 19.0.0, SVG Export Plug-In . SVG Version: 6.00 Build 0)  -->
<svg version="1.1" id="图层_1" xmlns="http://www.w3.org/2000/svg" xmlns:xlink="http://www.w3.org/1999/xlink" x="0px" y="0px"
	 viewBox="0 0 40 40" style="enable-background:new 0 0 40 40;" xml:space="preserve">
<style type="text/css">
	.st0{fill:#FFFFFF;}
</style>
<g>
	<g>
		<g>
			<path class="st0" d="M34,6.4c0-0.5-0.5-1-1-1H7c-0.6,0-1,0.5-1,1l-6,12c0,0.6,0.4,1,1,1h1c-0.1-0.1-0.1-0.3-0.1-0.4L7.3,8.1
				c0-0.5,0.4-0.9,0.9-0.9h23.4c0.5,0,0.9,0.4,0.9,0.9L38,19c0,0.1,0,0.3-0.1,0.4H39c0.5,0,1-0.4,1-1L34,6.4z"/>
		</g>
	</g>
	<g>
		<g>
			<path class="st0" d="M39,17.9H1c-0.6,0-1,0.5-1,1v10c0,0.5,0.4,1,1,1h38c0.5,0,1-0.5,1-1v-10C40,18.4,39.5,17.9,39,17.9z
				 M38,27.9H2v-8h36V27.9z"/>
		</g>
	</g>
	<rect id="XMLID_11_" x="5.3" y="22.4" class="st0" width="3" height="3"/>
</g>
</svg>
