<?xml version="1.0" encoding="utf-8"?>
<!-- Generator: Adobe Illustrator 19.0.0, SVG Export Plug-In . SVG Version: 6.00 Build 0)  -->
<svg version="1.1" id="图层_1" xmlns="http://www.w3.org/2000/svg" xmlns:xlink="http://www.w3.org/1999/xlink" x="0px" y="0px"
	 viewBox="0 0 40 40" style="enable-background:new 0 0 40 40;" xml:space="preserve">
<style type="text/css">
	.st0{fill:#FFFFFF;}
</style>
<g id="XMLID_15_">
	<g>
		<path class="st0" d="M38.4,20.8c-1-1-2.4-1.6-3.8-1.6c-1.4,0-2.6,0.4-3.6,1.3v-5c0-3.3-2.7-6-6-6h-5.3C20.5,8.5,21,7.3,21,6
			c0-1.5-0.6-2.9-1.6-3.9c-1.1-1.2-2.5-1.8-3.9-1.8c-1.5,0-2.9,0.6-3.9,1.6S10,4.3,10,5.7c0,1.3,0.4,2.6,1.3,3.6H6c-3.3,0-6,2.7-6,6
			v6.6c0,0.5,0.3,0.9,0.8,1.1c0.5,0.1,1-0.1,1.3-0.5c0.7-1.1,1.9-1.8,3.2-1.8c1,0,2,0.4,2.7,1.1s1.1,1.7,1.1,2.7
			c0,2-1.7,3.7-3.7,3.7c-1.3,0-2.5-0.6-3.2-1.8c-0.3-0.4-0.8-0.6-1.3-0.5C0.3,26.2,0,26.6,0,27.2v6.6c0,3.3,2.7,6,6,6h6.9
			c0.5,0,0.9-0.3,1.1-0.8c0.1-0.5-0.1-1-0.5-1.3c-1.1-0.7-1.8-1.9-1.8-3.2c0-1,0.4-2,1.1-2.7s1.6-1.1,2.6-1.1c0,0,0,0,0.1,0
			c2,0,3.7,1.7,3.7,3.7c0,1.3-0.6,2.5-1.8,3.2c-0.4,0.3-0.6,0.8-0.5,1.3c0.1,0.5,0.6,0.8,1.1,0.8h7c3.3,0,6-2.7,6-6v-4.9
			c1,0.8,2.2,1.3,3.5,1.3c1.5,0,2.9-0.6,3.9-1.6c1-1.1,1.6-2.5,1.6-3.9C40,23.2,39.4,21.8,38.4,20.8z M37.1,27.2
			c-0.7,0.7-1.7,1.1-2.7,1.1c-1.3,0-2.5-0.7-3.2-1.8c-0.3-0.4-0.8-0.6-1.3-0.5s-0.8,0.6-0.8,1.1v6.6c0,2.3-1.9,4.2-4.2,4.2h-5.3
			c0.8-1,1.3-2.3,1.3-3.6c0-1.4-0.6-2.8-1.6-3.8s-2.4-1.6-3.8-1.6h-0.1c-1.5,0-2.8,0.6-3.9,1.6s-1.6,2.4-1.6,3.9
			c0,1.3,0.5,2.6,1.3,3.5H6c-2.3,0-4.2-1.9-4.2-4.2v-4.9c1,0.8,2.3,1.3,3.6,1.3c1.4,0,2.8-0.6,3.8-1.6s1.6-2.4,1.6-3.8
			c0-1.5-0.5-2.9-1.6-3.9c-1-1.1-2.4-1.6-3.9-1.6C4,19,2.7,19.5,1.7,20.3v-5c0-2.3,1.9-4.2,4.2-4.2h6.9c0.5,0,0.9-0.3,1.1-0.8
			c0.1-0.5-0.1-1-0.5-1.3c-1.1-0.7-1.8-1.9-1.8-3.2c0-2,1.7-3.7,3.7-3.7c1,0,2,0.4,2.7,1.1s1.1,1.7,1.1,2.7c0,1.3-0.7,2.5-1.8,3.2
			c-0.4,0.3-0.6,0.8-0.5,1.3c0.1,0.5,0.6,0.8,1.1,0.8H25c2.3,0,4.2,1.9,4.2,4.2V22c0,0.5,0.3,0.9,0.8,1.1c0.5,0.1,1-0.1,1.3-0.5
			c0.7-1.1,1.9-1.8,3.2-1.8c2,0,3.7,1.7,3.7,3.7C38.2,25.5,37.8,26.5,37.1,27.2z"/>
	</g>
</g>
</svg>
