<?xml version="1.0" encoding="utf-8"?>
<!-- Generator: Adobe Illustrator 19.0.0, SVG Export Plug-In . SVG Version: 6.00 Build 0)  -->
<svg version="1.1" id="图层_1" xmlns="http://www.w3.org/2000/svg" xmlns:xlink="http://www.w3.org/1999/xlink" x="0px" y="0px"
	 viewBox="0 0 20 20" style="enable-background:new 0 0 20 20;" xml:space="preserve">
<style type="text/css">
	.st0{fill-rule:evenodd;clip-rule:evenodd;fill:#262536;}
</style>
<g id="XMLID_7_">
	<path id="XMLID_8_" class="st0" d="M11.9,17.3c-0.1,0-0.2-0.1-0.2-0.2c-0.3-2.7-2.4-4.7-4.9-4.9c0,0-0.1,0-0.1,0
		c-0.1,0-0.2,0-0.2,0c-0.1,0-0.2,0-0.2,0c0,0-0.1,0-0.1,0c-2.6,0.2-4.6,2.2-4.9,4.9c0,0.1-0.1,0.2-0.2,0.2H0.2c-0.1,0-0.1,0-0.2-0.1
		c0,0-0.1-0.1-0.1-0.2c0.2-2.5,1.8-4.6,4-5.6c-1.3-0.9-2.2-2.4-2.2-4c0-2.6,2.1-4.8,4.6-4.8s4.6,2.2,4.6,4.8c0,1.6-0.8,3.2-2.2,4
		c2.2,0.9,3.8,3.1,4,5.6c0,0.1,0,0.1-0.1,0.2c0,0-0.1,0.1-0.2,0.1L11.9,17.3L11.9,17.3L11.9,17.3L11.9,17.3z M6.5,3.8
		c-2,0-3.6,1.7-3.6,3.7c0,2.1,1.6,3.7,3.6,3.7c2,0,3.6-1.7,3.6-3.7C10,5.4,8.4,3.8,6.5,3.8L6.5,3.8L6.5,3.8z M12.9,14.6
		c-0.1,0-0.2-0.1-0.2-0.2v-1c0-0.1,0.1-0.2,0.2-0.2h6.9c0.1,0,0.2,0.1,0.2,0.2v1c0,0.1-0.1,0.2-0.2,0.2H12.9L12.9,14.6L12.9,14.6z
		 M12.9,10.8c-0.1,0-0.2-0.1-0.2-0.2v-1c0-0.1,0.1-0.2,0.2-0.2h6.9c0.1,0,0.2,0.1,0.2,0.2v1c0,0.1-0.1,0.2-0.2,0.2H12.9L12.9,10.8
		L12.9,10.8z M12.9,6.9c-0.1,0-0.2-0.1-0.2-0.2v-1c0-0.1,0.1-0.2,0.2-0.2h6.9c0.1,0,0.2,0.1,0.2,0.2v1c0,0.1-0.1,0.2-0.2,0.2H12.9
		L12.9,6.9L12.9,6.9z"/>
</g>
</svg>
