<?xml version="1.0" encoding="utf-8"?>
<!-- Generator: Adobe Illustrator 19.0.0, SVG Export Plug-In . SVG Version: 6.00 Build 0)  -->
<svg version="1.1" id="图层_1" xmlns="http://www.w3.org/2000/svg" xmlns:xlink="http://www.w3.org/1999/xlink" x="0px" y="0px"
	 viewBox="0 0 20 20" style="enable-background:new 0 0 20 20;" xml:space="preserve">
<style type="text/css">
	.st0{fill-rule:evenodd;clip-rule:evenodd;fill:#272536;}
</style>
<g>
	<path class="st0" d="M20,6.6l-9.8,9.8l-0.5-0.1l-0.1-0.5L19.4,6L20,6.6L20,6.6z M1.6,8.3H1.4H1.6L1.6,8.3z M16.2,13.1v5.6h-15V9.6
		h10.9V8.3H2.9H2.6H1.4H1.1C0.5,8.3,0,8.8,0,9.3V19c0,0.5,0.5,1,1.1,1h15.2c0.6,0,1.1-0.4,1.1-1v-5.9H16.2L16.2,13.1z M5.3,0.9
		c-3.2,1.7-4,5.4-3.6,8.7l1.2,0C2.5,6.7,3.1,3.4,5.9,1.9c3-1.6,6.8-0.4,8.4,2.6l1-0.5C13.4,0.3,8.9-1,5.3,0.9L5.3,0.9z"/>
</g>
<polygon class="st0" points="1.5,8.3 1.7,9.6 3.2,9.6 3,8.3 "/>
</svg>
