<?xml version="1.0" encoding="utf-8"?>
<!-- Generator: Adobe Illustrator 19.0.0, SVG Export Plug-In . SVG Version: 6.00 Build 0)  -->
<svg version="1.1" id="图层_1" xmlns="http://www.w3.org/2000/svg" xmlns:xlink="http://www.w3.org/1999/xlink" x="0px" y="0px"
	 viewBox="0 0 20 20" style="enable-background:new 0 0 20 20;" xml:space="preserve">
<style type="text/css">
	.st0{fill-rule:evenodd;clip-rule:evenodd;fill:#272536;}
</style>
<g>
	<path class="st0" d="M17.7,0.9h-2.2V0.6c0-0.3-0.3-0.6-0.8-0.6C14.3,0,14,0.3,14,0.6v0.4h-3.2V0.6C10.8,0.3,10.4,0,10,0
		C9.6,0,9.3,0.3,9.3,0.6v0.4H6.1V0.6C6.1,0.3,5.7,0,5.3,0C4.9,0,4.5,0.3,4.5,0.6v0.4H2.3c-0.5,0-0.9,0.3-0.9,0.7v17.5
		c0,0.4,0.4,0.7,0.9,0.7h10.7c0.4,0,0.7-0.3,0.7-0.7l0,0c0-0.4-0.3-0.7-0.7-0.7l-9.1,0c-0.4,0-0.7-0.3-0.7-0.7V3.2
		c0-0.4,0.3-0.7,0.7-0.7h0.6v0.5c0,0.3,0.3,0.6,0.8,0.6c0.4,0,0.8-0.3,0.8-0.6V2.4h3.2v0.5c0,0.3,0.3,0.6,0.8,0.6
		c0.4,0,0.8-0.3,0.8-0.6V2.4H14v0.5c0,0.3,0.3,0.6,0.8,0.6c0.4,0,0.8-0.3,0.8-0.6V2.4h0.6c0.4,0,0.7,0.3,0.7,0.7V14
		c0,0.4,0.3,0.7,0.7,0.7h0.2c0.4,0,0.7-0.3,0.7-0.7V1.7C18.6,1.3,18.2,0.9,17.7,0.9L17.7,0.9z"/>
	<polygon class="st0" points="12.5,7 10,11.1 7.5,7 6.5,7 8.7,10.5 7.2,10.5 7.2,11.1 9.1,11.1 9.6,11.9 7.2,11.9 7.2,12.5 
		9.6,12.5 9.6,15 10.5,15 10.5,12.5 12.8,12.5 12.8,11.9 10.5,11.9 10.9,11.1 12.8,11.1 12.8,10.5 11.3,10.5 13.5,7 12.5,7 	"/>
	<path class="st0" d="M18,16.4h-4.2c-0.3,0-0.5,0.2-0.5,0.5V17c0,0.3,0.2,0.5,0.5,0.5H18c0.3,0,0.5-0.2,0.5-0.5v-0.1
		C18.6,16.6,18.3,16.4,18,16.4L18,16.4z"/>
</g>
</svg>
