<?xml version="1.0" encoding="utf-8"?>
<!-- Generator: Adobe Illustrator 17.0.0, SVG Export Plug-In . SVG Version: 6.00 Build 0)  -->
<!DOCTYPE svg PUBLIC "-//W3C//DTD SVG 1.1//EN" "http://www.w3.org/Graphics/SVG/1.1/DTD/svg11.dtd">
<svg version="1.1" id="图层_1" xmlns="http://www.w3.org/2000/svg" xmlns:xlink="http://www.w3.org/1999/xlink" x="0px" y="0px"
	 width="478.465px" height="149.5px" viewBox="0 0 478.465 149.5" enable-background="new 0 0 478.465 149.5" xml:space="preserve">
<g>
	<g>
		<path fill="#008CD6" d="M166.242,46.495l-56.599,92.768h49.327c26.475,0,47.937-20.895,47.937-46.665
			C206.907,69.234,189.263,49.906,166.242,46.495z"/>
		<path fill="#00AFDD" d="M159.94,45.882c-5.341-23.095-26.664-40.609-52.592-41.891v128.095L159.94,45.882z"/>
		<path fill="#008CD6" d="M101.652,3.965c-25.907,1.111-47.28,18.432-52.856,41.379l52.856,86.631V3.965z"/>
		<path fill="#00AFDD" d="M1.511,92.598c0,25.77,21.463,46.665,47.94,46.665h49.972L42.773,46.408
			C19.461,49.572,1.511,69.032,1.511,92.598z"/>
	</g>
	<path fill="#262626" d="M230.669,121.437c0-1.132-0.079-1.953-0.279-3.111h3.424c-0.198,1.132-0.279,1.953-0.279,3.111v1.076h1.989
		c1.872,0,2.786-0.026,4.022-0.141v2.097c-1.157-0.115-2.15-0.144-3.981-0.144h-2.03v9.681c0,0.879,0.12,1.332,0.397,1.615
		c0.318,0.338,1.194,0.568,2.108,0.568c1.077,0,1.953-0.2,3.187-0.768l0.834,1.982c-1.552,0.453-2.906,0.653-4.378,0.653
		c-1.711,0-3.183-0.341-3.979-0.935c-0.755-0.594-1.035-1.388-1.035-3.055v-9.74h-1.631c-1.67,0-2.466,0.029-3.582,0.144v-2.097
		c1.116,0.115,1.872,0.141,3.582,0.141h1.631V121.437z"/>
	<path fill="#262626" d="M246.905,130.442c0.121,2.235,0.519,3.252,1.513,4.273c1.075,1.076,2.627,1.641,4.419,1.641
		c1.71,0,3.141-0.509,4.217-1.47c0.596-0.538,0.837-0.935,1.234-1.897l2.624,0.82c-0.753,1.329-1.232,1.867-2.105,2.547
		c-1.554,1.162-3.584,1.785-6.01,1.785c-5.372,0-8.714-3.029-8.714-7.925c0-2.776,1.114-5.126,3.103-6.57
		c1.395-0.962,3.264-1.5,5.372-1.5c4.934,0,7.999,2.691,8.355,7.276c0,0.141,0.043,0.735,0.082,1.021H246.905z M258.048,128.712
		c-0.2-1.529-0.558-2.35-1.472-3.255c-1.035-1.017-2.427-1.526-4.099-1.526c-1.631,0-2.945,0.509-3.981,1.585
		c-0.834,0.876-1.234,1.697-1.511,3.196H258.048z"/>
	<path fill="#262626" d="M264.217,137.77c0.159-1.103,0.238-2.008,0.238-3.196v-8.861c0-1.303-0.079-2.264-0.238-3.2h2.942v1.529
		c0,0.427-0.038,0.82-0.118,1.414c0.676-1.017,1.075-1.385,2.031-1.953c1.47-0.876,3.021-1.273,4.893-1.273
		c3.94,0,6.168,1.867,6.168,5.208v7.161c0,1.444,0.038,2.179,0.238,3.17h-3.221c0.158-0.991,0.236-1.782,0.236-3.196v-6.567
		c0-2.747-1.313-3.994-4.137-3.994c-3.106,0-6.091,2.576-6.091,5.238v5.323c0,1.244,0.043,2.038,0.24,3.196H264.217z"/>
	<path fill="#262626" d="M286.183,124.781c-0.998-1.135-1.513-1.7-2.11-2.268h3.462c0.2,0.397,0.996,1.529,1.313,1.897l3.344,4.02
		l3.342-4.02c0.515-0.564,1.034-1.359,1.313-1.897h3.421c-0.715,0.738-1.311,1.388-2.108,2.323l-4.378,5.037l4.578,5.208
		c0.715,0.82,1.71,1.897,2.507,2.688h-3.543c-0.515-0.906-0.515-0.906-1.472-2.038l-3.702-4.358l-3.779,4.529
		c-0.599,0.709-0.637,0.765-1.314,1.867h-3.541c0.238-0.223,0.397-0.394,0.517-0.509c0.12-0.112,0.715-0.765,1.79-1.953l4.777-5.464
		L286.183,124.781z"/>
	<path fill="#262626" d="M317.581,127.212c-0.44-1.076-0.758-1.556-1.316-2.068c-0.914-0.82-2.107-1.214-3.62-1.214
		c-3.661,0-6.009,2.405-6.009,6.17c0,3.879,2.309,6.169,6.168,6.169c1.59,0,2.906-0.423,3.739-1.273
		c0.519-0.509,0.798-0.961,1.273-2.064l2.707,0.62c-0.556,1.162-0.955,1.756-1.552,2.406c-1.313,1.388-3.58,2.153-6.367,2.153
		c-5.451,0-8.834-3.029-8.834-7.896c0-4.926,3.383-8.07,8.714-8.07c2.865,0,5.134,0.879,6.604,2.52
		c0.44,0.509,0.717,0.961,1.153,1.867L317.581,127.212z"/>
	<path fill="#262626" d="M329.716,116.258c-0.199,1.021-0.277,1.782-0.277,3.226v15.089c0,1.217,0.079,2.008,0.277,3.196h-3.424
		c0.2-1.244,0.279-2.064,0.279-3.196v-15.115c0-1.359-0.079-2.153-0.279-3.2H329.716z"/>
	<path fill="#262626" d="M335.167,130.13c0-4.87,3.423-7.984,8.795-7.984c5.333,0,8.714,3.085,8.714,7.984
		c0,2.717-1.114,5.008-3.065,6.422c-1.431,1.021-3.382,1.559-5.649,1.559C338.551,138.111,335.167,135.056,335.167,130.13z
		 M343.962,136.299c3.662,0,5.85-2.32,5.85-6.17c0-3.794-2.268-6.199-5.81-6.199c-3.661,0-5.968,2.405-5.968,6.225
		C338.034,133.95,340.302,136.299,343.962,136.299z"/>
	<path fill="#262626" d="M371.898,122.513c-0.159,1.132-0.24,1.956-0.24,3.2v8.861c0,1.359,0.08,2.205,0.24,3.196h-2.945v-1.556
		c0-0.453,0.041-0.991,0.12-1.47c-0.714,1.103-1.153,1.526-2.069,2.094c-1.354,0.791-3.024,1.217-4.855,1.217
		c-3.94,0-6.166-1.867-6.166-5.208v-7.161c0-1.418-0.041-2.212-0.24-3.173h3.223c-0.157,0.935-0.238,1.785-0.238,3.2v6.567
		c0,2.691,1.314,3.991,4.018,3.991c1.076,0,2.148-0.253,3.064-0.735c1.79-0.961,3.144-2.914,3.144-4.584v-5.238
		c0-1.217-0.079-2.094-0.238-3.2H371.898z"/>
	<path fill="#262626" d="M388.652,136.355c0-0.338,0.038-0.765,0.118-1.103c-0.478,0.764-0.755,1.076-1.431,1.5
		c-1.316,0.876-2.786,1.273-4.657,1.273c-1.91,0-3.623-0.509-4.737-1.388c-1.67-1.355-2.666-3.79-2.666-6.622
		c0-2.858,0.957-5.152,2.707-6.481c1.152-0.88,2.786-1.359,4.657-1.359c1.828,0,3.423,0.423,4.655,1.244
		c0.676,0.453,0.994,0.794,1.472,1.615c-0.039-0.171-0.039-0.312-0.039-0.397c-0.079-0.453-0.079-0.594-0.079-1.385v-3.767
		c0-1.159-0.08-2.15-0.24-3.226h3.183c-0.197,1.191-0.238,1.953-0.238,3.2v15.03c0,1.47,0.041,2.208,0.238,3.282h-2.944V136.355z
		 M383.119,136.214c3.423,0,5.571-2.376,5.571-6.114c0-3.764-2.148-6.143-5.531-6.143c-3.142,0-5.014,2.209-5.014,5.973
		C378.144,134.035,379.897,136.214,383.119,136.214z"/>
	<g>
		<path fill="#262626" d="M427.278,128.391c-0.43-1.014-0.742-1.467-1.288-1.949c-0.894-0.774-2.061-1.149-3.541-1.149
			c-3.584,0-5.882,2.271-5.882,5.822c0,3.656,2.26,5.818,6.037,5.818c1.557,0,2.845-0.4,3.661-1.201
			c0.507-0.479,0.781-0.909,1.245-1.949l2.65,0.587c-0.546,1.096-0.934,1.654-1.519,2.268c-1.285,1.309-3.505,2.031-6.23,2.031
			c-5.336,0-8.646-2.858-8.646-7.449c0-4.644,3.31-7.607,8.529-7.607c2.803,0,5.023,0.827,6.463,2.376
			c0.428,0.479,0.702,0.906,1.129,1.762L427.278,128.391z"/>
		<path fill="#262626" d="M432.251,131.141c0-4.591,3.347-7.528,8.606-7.528c5.218,0,8.527,2.908,8.527,7.528
			c0,2.56-1.088,4.722-3,6.058c-1.401,0.961-3.31,1.47-5.528,1.47C435.561,138.669,432.251,135.784,432.251,131.141z
			 M440.857,136.959c3.584,0,5.725-2.189,5.725-5.818c0-3.577-2.218-5.848-5.687-5.848c-3.582,0-5.84,2.271-5.84,5.874
			C435.055,134.744,437.274,136.959,440.857,136.959z"/>
		<g>
			<path fill="#262626" d="M474.582,137.297h-2.698v-7.64c0-1.441-0.258-2.478-0.773-3.098c-0.517-0.62-1.365-0.932-2.543-0.932
				c-0.994,0-1.846,0.407-2.558,1.218c-0.706,0.807-1.062,1.769-1.062,2.875v7.577h-2.698v-7.879c0-2.524-1.111-3.79-3.334-3.79
				c-1.024,0-1.874,0.384-2.545,1.155c-0.673,0.771-1.009,1.752-1.009,2.947v7.568h-2.698v-13.304h2.698v2.107h0.056
				c1.078-1.615,2.658-2.425,4.737-2.425c1.014,0,1.912,0.25,2.693,0.735c0.778,0.492,1.316,1.155,1.618,1.989
				c1.132-1.811,2.824-2.724,5.08-2.724c3.357,0,5.036,1.805,5.036,5.418V137.297z"/>
		</g>
	</g>
	<rect x="402.491" y="134.925" fill="#262626" width="3.974" height="3.974"/>
	<path fill="#262626" d="M326.141,36.589l-15.22-4.581v7.536l15.22,4.873V36.589z M352.312,80.851
		c1.388-5.374,1.388-10.577,1.388-10.577h4.333V99.23h8.324V70.102h16.125c0,0,8.15,1.388,8.15-6.59c0-8.147,0-11.268,0-11.268
		s0.072-0.717-0.195-1.598c-1.001-3.996-5.741-3.457-5.741-3.457H366.42v-6.215h1.034h21.616l2.22-6.058h-24.87v-6.25h-9.079v6.24
		h-22.888v6.068h23.234v6.215h-17.053l0.01,0.02c-0.523-0.059-6.015-0.528-6.015,6.074c-0.176,7.282,0,11.269,0,11.269
		s0,5.549,6.24,5.896c5.549-0.174,5.549,0,5.549,0s0.694,15.777-13.698,19.938c0,6.242,0,6.242,0,6.242
		S347.631,96.28,352.312,80.851z M366.356,52.214h0.064V52.21h1.034v0.003h14.256c0,0,1.813-0.318,1.813,1.92
		c0,3.52,0,9.704,0,9.704s-0.107,1.492-1.387,1.707c-1.92,0.107-15.78,0-15.78,0V52.214z M343.644,65.421
		c-2.081-0.174-2.081-1.908-2.081-1.908s0-7.107,0-9.361c0-2.253,2.253-1.907,2.253-1.907h13.525l0.52-0.031v13.207
		C357.862,65.421,345.724,65.595,343.644,65.421z M469.242,35.019l-65.863-0.131v6.128h62.864L469.242,35.019z M378.512,74.073
		h-7.677c2.346,21.644,21.431,22.284,21.431,22.284s0.107-0.425,0-5.864C380.323,86.973,378.512,74.073,378.512,74.073z
		 M342.392,103.961c-5.17-0.886-13.443-2.955-16.548-7.978c-0.148-7.535,0-43.143,0-43.143h-15.662v6.058h7.832v38.233l-7.148,8.721
		l0.274,0.244l-0.071,0.08l5.466,4.728l6.65-8.126c0,0,9.308,8.422,34.426,8.717c8.718,0.148,26.3-1.034,38.713-3.988
		c0-5.615,0-6.058,0-6.058S364.852,108.986,342.392,103.961z M456.201,78.969l8.345,23.019c0,0-23.594,7.335-49.563,0.596
		c-0.991-0.991-0.793-0.991-0.199-3.372c0.594-2.379,9.515-31.919,9.515-31.919l-8.792-0.061l-9.783,31.955
		c0,0-2.868,6.911,4.174,9.26c4.435,1.04,33.389,8.086,63.778-2.61c-2.609-7.827-10.042-26.869-10.042-26.869H456.201z
		 M282.214,91.863c0,0,0-0.747,0-6.718c-12.26-9.274-12.155-31.56-12.155-31.56h-6.291
		C263.768,89.305,282.214,91.863,282.214,91.863z M396.858,58.103v5.869h77.602l1.956-5.869H396.858z M237.173,34.668
		c-6.7,0.609-9.898,2.131-12.333,5.178v67.459c0,0,5.329,5.179,17.511,3.962c4.873-0.46,9.594-2.743,10.355-4.42
		c0.305-2.282,0-66.241,0-66.241S249.814,33.907,237.173,34.668z M245.853,65.276h-9.594v4.415h9.594v34.112
		c0,0-6.091,3.198-13.704,0.456c0-7.919-0.305-61.824-0.305-61.824s6.092-4.722,14.01,0.151
		C246.158,57.814,245.853,65.276,245.853,65.276z M297.635,28.288h-0.005v-0.014h-7.159v0.014h-0.233v13.235l-31.44,0.303v6.7h31.37
		v53.298c0,0-6.091,5.024-24.821,1.37c-0.154,5.179,0,5.941,0,5.941s22.384,5.481,32.284-4.113c0.304-11.268,0-56.496,0-56.496
		h6.091l2.132-6.852h-8.217V28.288z"/>
</g>
</svg>
