<?xml version="1.0" encoding="utf-8"?>
<!-- Generator: Adobe Illustrator 19.0.0, SVG Export Plug-In . SVG Version: 6.00 Build 0)  -->
<svg version="1.1" id="图层_1" xmlns="http://www.w3.org/2000/svg" xmlns:xlink="http://www.w3.org/1999/xlink" x="0px" y="0px"
	 viewBox="0 0 20 20" style="enable-background:new 0 0 20 20;" xml:space="preserve">
<style type="text/css">
	.st0{fill-rule:evenodd;clip-rule:evenodd;fill:#272536;}
</style>
<g>
	<path class="st0" d="M12.6,9.5c1-0.8,1.6-2,1.6-3.3c0-2.3-1.9-4.3-4.3-4.3S5.7,3.8,5.7,6.1c0,1.4,0.6,2.6,1.6,3.3
		c-2.6,1-4.5,3.6-4.5,6.6v1.4c0,0.4,0.3,0.7,0.7,0.7h12.9c0.4,0,0.7-0.3,0.7-0.7V16C17.2,13.1,15.3,10.5,12.6,9.5L12.6,9.5L12.6,9.5
		L12.6,9.5 M6.9,6.1C6.9,4.4,8.3,3,10,3c1.7,0,3.1,1.4,3.1,3.1c0,1.7-1.4,3.1-3.1,3.1C8.3,9.2,6.9,7.8,6.9,6.1L6.9,6.1L6.9,6.1
		L6.9,6.1 M16.1,17H3.9v-0.8c0-3.3,2.7-6,6.1-6c3.3,0,6.1,2.7,6.1,6L16.1,17L16.1,17L16.1,17L16.1,17 M4.5,10.1l0.1,0
		C4.9,10,5.1,9.7,5.1,9.4c0-0.3-0.2-0.5-0.5-0.7C3.9,8.4,3.4,7.7,3.4,6.8c0-0.9,0.8-1.7,1.7-2c0.2-0.5,0.4-0.9,0.7-1.3
		c0.1-0.1,0.1-0.2,0.2-0.2c-0.1,0-0.1,0-0.2,0c-2,0-3.6,1.6-3.6,3.5c0,0.9,0.3,1.7,0.9,2.4c-1.9,1-3.1,2.9-3.1,5v1.1
		C0,15.7,0.3,16,0.7,16H2c0-0.5,0.1-0.8,0.1-1.3H1.2v-0.6C1.2,12.3,2.6,10.6,4.5,10.1L4.5,10.1L4.5,10.1L4.5,10.1 M16.9,9.2
		c0.6-0.6,0.9-1.5,0.9-2.4c0-2-1.6-3.5-3.6-3.5c-0.1,0-0.1,0-0.2,0c0.1,0.1,0.1,0.2,0.2,0.2c0.3,0.4,0.5,0.8,0.7,1.3
		c0.9,0.3,1.8,1.1,1.8,2c0,0.8-0.5,1.6-1.3,1.9C15.2,8.9,15,9.1,15,9.4c0,0.3,0.2,0.6,0.5,0.7l0.1,0c1.9,0.5,3.2,2.2,3.2,4.1v0.6h-1
		C18,15.2,18,15.6,18,16h1.3c0.4,0,0.7-0.3,0.7-0.7v-1.1C20,12.1,18.8,10.2,16.9,9.2L16.9,9.2L16.9,9.2L16.9,9.2 M16.9,9.2L16.9,9.2
		z"/>
</g>
</svg>
