<?xml version="1.0" encoding="utf-8"?>
<!-- Generator: Adobe Illustrator 19.0.0, SVG Export Plug-In . SVG Version: 6.00 Build 0)  -->
<svg version="1.1" id="图层_1" xmlns="http://www.w3.org/2000/svg" xmlns:xlink="http://www.w3.org/1999/xlink" x="0px" y="0px"
	 viewBox="0 0 200 200" style="enable-background:new 0 0 200 200;" xml:space="preserve">
<style type="text/css">
	.st0{fill:#FFFFFF;}
</style>
<g>
	<g transform="scale(0.1953125, 0.1953125)">
		<path class="st0" d="M1024,0H66.4H0v957.6v66.4h1024v-66.4V66.3V0L1024,0z M960,64v406.5H807.6l-66.1-72.6
			c-6.1-9-15.9-15.6-27.5-17.3c-2-0.3-4.1-0.4-6.2-0.4c-9.7-0.1-19.4,3.4-27.1,10.4c-7.9,7.2-12.3,16.9-13,26.8L599,645.6
			l-99.1-434.5c-4.5-18.8-21.4-31.2-39.9-30.7c-16.3-0.4-32.1,9.4-38.3,25.7L298.6,613.7L179.7,483.8c-7.9-8.7-18.9-13.1-29.8-13
			l0,0h-86V64H960z M960,960H64V551h68.6l153.5,167.6c8,8.8,19.1,13.1,30.1,12.9c16.4,0.4,32-9.4,38.2-25.7l100.4-332.7L554.4,810
			c4.4,18.4,20.9,30.8,39.1,30.7c19.7,0.1,37.1-14.3,39.9-34.4l92.2-306.8l33.7,36.9c3.4,3.8,7.3,6.7,11.6,8.8
			c5.8,3.3,12.5,5.2,19.9,5.2h169.1V960H960z"/>
	</g>
</g>
</svg>
