<?xml version="1.0" encoding="utf-8"?>
<!-- Generator: Adobe Illustrator 19.0.0, SVG Export Plug-In . SVG Version: 6.00 Build 0)  -->
<svg version="1.1" id="图层_1" xmlns="http://www.w3.org/2000/svg" xmlns:xlink="http://www.w3.org/1999/xlink" x="0px" y="0px"
	 viewBox="-277 400.9 40 40" style="enable-background:new -277 400.9 40 40;" xml:space="preserve">
<style type="text/css">
	.st0{fill:#FFFFFF;}
</style>
<g id="XMLID_3_">
	<g id="XMLID_4_" transform="scale(0.0390625, 0.0390625)">
		<path id="XMLID_5_" class="st0" d="M-6326,11219c-5.2,0.3-9.2,0.6-13.1,0.6c-161.3,0.1-322.6,0.1-483.9,0.1
			c-13.8,0-13.8-0.1-13.8-13.9c0-11.4,0-22.7,0-34.1c0-9.6,4-13.5,13.8-13.5c33.7,0,67.5,0.1,101.2,0c14.1-0.1,15.4-1.6,15.4-15.2
			c0-11.4,0-22.7,0-34.1c-0.2-12.7-3.2-15.7-15.7-15.7c-102.7,0-205.5,0-308.1,0c-26.8,0-45.8-11.9-55.5-37.1
			c-2.6-6.8-4.7-14.5-4.7-21.7c-0.2-215,0-429.9-0.4-644.8c0-25,13.5-40.7,32.1-53.2c6.5-4.3,15.6-5.1,23.6-6.2
			c7.4-1,15.2-0.3,22.9-0.3c292.2,0,584.5,0,876.6,0c20.9,0,39.5,5.9,52.5,22.7c8.6,11,15.7,22,15.6,38.5
			c-0.8,213.7-0.5,427.5-0.5,641.2c0,10.5,0,19.8-8.9,29c-6.3,6.5-10,16.6-18.7,21.2c-8.1,4.4-17.1,9.9-25.7,10
			c-53.6,1-107.4,0.6-161,0.6c-52.4,0.1-104.9,0-157.2,0c-13,0-13.3,0.3-13.4,13.5c-0.1,13.5,0.5,27-0.2,40.4
			c-0.5,9.9,4.7,11.2,12.3,11.2c33.2-0.2,66.3-0.1,99.4-0.1c14.4,0,15.8,1.5,15.7,15.6C-6326,11188.5-6326,11203.2-6326,11219z
			 M-7027.2,10391.8c-0.4,6.5-1,11.7-1,16.8c-0.1,45.7,0,91.4,0,137.1c0,113.8,0,227.5,0,341.3c0,17,0,17,17,17
			c287.9,0,575.8,0,863.7,0c13.8,0,16.6-2.8,16.6-16.5c0-160.4,0-320.7,0-481.1c0-13.6-1-14.5-14.6-14.5c-290,0-580.1,0-870.2,0
			C-7019.1,10391.8-7022.5,10391.8-7027.2,10391.8z M-6654.2,10633.6c-13.3,1.2-25.2-1.7-36.2-9.9c-1.6-1.2-6.5,0.1-8.6,1.8
			c-24.3,19.2-48.3,38.7-72.5,58c-15.3,12.1-31.1,23.8-46.4,35.8c-6.1,4.8-11.9,10-4.7,18.4c1,1.2,1.2,3.7,0.8,5.3
			c-5.8,19.4-11.3,38.8-32.3,48.4c-26.7,12.2-51.9,5.1-70.1-17.1c-10.8-13.2-13.2-28.6-10-44.1c3.6-17.6,13.8-32.2,31.3-39
			c9.3-3.6,19.9-4,29.9-5.7c2-0.3,4.7-0.2,6.3,0.8c14.8,9.4,25.7,4.1,37.6-6.8c13.8-12.8,29.7-23.6,44.7-35.1
			c22.1-17.2,44.5-34.1,66.2-51.8c3.5-2.9,6.1-8.9,6.1-13.4c-0.5-20.8,9.3-37.1,25.2-47.3c15-9.6,33.2-12.1,51.4-4
			c9.9,4.3,18,9.7,24,18.6c11.2,16.7,14.4,34,6,53.3c-1.6,3.6,2.4,10.9,5.7,14.9c13.6,16.8,29.2,32.1,41.2,49.8
			c6.2,9.3,12.6,7.9,20.5,8.5c10.3,0.7,21.2-3.1,30.6,5.1c1.1,1.2,6.7-0.9,8.9-2.8c16.1-14.6,31.9-29.6,47.8-44.6
			c27-25.1,53.8-50.3,80.9-75.4c9.2-8.5,18.9-16.3,27.6-25.3c3.1-3.2,5.2-8.4,5.7-12.9c0.8-7.2-1.2-14.8-0.3-22
			c2.2-17,8.4-32.2,24.6-40.4c8.8-4.4,18.5-10.1,27.7-10c16,0.2,31.9,5.4,43.7,17.6c16.3,16.9,15.6,38.4,11.4,58.5
			c-3.3,14.9-15.6,26-30.8,31.1c-8.4,2.9-17.6,3.7-26.5,5.2c-1.7,0.3-4.1,0.4-5.4-0.5c-15.9-11-24.1,1.3-33.8,10.6
			c-15.5,14.9-31.6,29.2-47.4,43.8c-22.9,21.4-45.9,42.9-68.7,64.4c-11.3,10.7-22.8,21.1-33.6,32.2c-2.7,2.7-4.7,8-4.3,11.8
			c2.5,23.9-6.5,43.5-26.4,55c-12.9,7.5-28.5,11.8-45.2,4.5c-11.5-5.1-22.4-9.7-29.1-20.6c-10-16-14.7-32.7-5.9-51.4
			c2.7-5.8,3.3-11.9-2.3-18.3c-14.5-16.6-27.7-34.4-41.6-51.5c-1.9-2.2-5.3-3.8-8.1-4C-6643.7,10632.6-6649,10633.4-6654.2,10633.6z
			 M-6861.2,10740.9c-0.2-10.9-6.3-16.3-18.3-16.3c-10.9,0.1-17.4,6.7-17.2,17.5c0.2,10.8,7.2,17.8,17.6,17.7
			C-6869.9,10759.7-6861.1,10750.3-6861.2,10740.9z M-6281.2,10483.7c-11.6-0.1-17.5,5.5-17.6,16.9c-0.2,10.9,6.7,18.4,16.6,18.4
			c8.6,0,18.7-9.5,18.8-17.8C-6263.2,10491.8-6271.3,10483.8-6281.2,10483.7z M-6551.2,10725.8c-0.2,12.6,4.1,17.6,15.4,17.8
			c11.3,0.2,19.4-6.9,19.6-16.9c0.1-6-9.3-18.7-18-18.5C-6545.1,10708.4-6551,10714.1-6551.2,10725.8z M-6638.1,10579.5
			c-4-13.8-11.3-21-26.3-16.3c-8.2,2.5-8.5,10-10.5,15.7c-1.9,5.5,7.9,16.1,16.3,17.3C-6645.8,10598.2-6642,10588.1-6638.1,10579.5z
			"/>
	</g>
</g>
</svg>
