<?xml version="1.0" encoding="utf-8"?>
<!-- Generator: Adobe Illustrator 19.0.0, SVG Export Plug-In . SVG Version: 6.00 Build 0)  -->
<svg version="1.1" id="图层_1" xmlns="http://www.w3.org/2000/svg" xmlns:xlink="http://www.w3.org/1999/xlink" x="0px" y="0px"
	 viewBox="-277 400.9 40 40" style="enable-background:new -277 400.9 40 40;" xml:space="preserve">
<style type="text/css">
	.st0{fill:#1AA2E7;}
</style>
<g>
	<g>
		<g>
			<path class="st0" d="M-237,405.9c0-0.6-0.3-1.1-0.6-1.5c-0.5-0.7-1.2-0.9-2.1-0.9c-11.4,0-22.8,0-34.2,0c-0.3,0-0.6,0-0.9,0
				c-0.3,0-0.7,0.1-0.9,0.2c-0.7,0.5-1.3,1.1-1.3,2.1c0,8.4,0,16.8,0,25.2c0,0.3,0.1,0.6,0.2,0.8c0.4,1,1.1,1.4,2.2,1.4
				c4,0,8,0,12,0c0.5,0,0.6,0.1,0.6,0.6c0,0.4,0,0.9,0,1.3c0,0.5-0.1,0.6-0.6,0.6c-1.3,0-2.6,0-4,0c-0.4,0-0.5,0.2-0.5,0.5
				c0,0.4,0,0.9,0,1.3c0,0.5,0,0.5,0.5,0.5c6.3,0,12.6,0,18.9,0c0.2,0,0.3,0,0.5,0c0-0.6,0-1.2,0-1.8c0-0.6-0.1-0.6-0.6-0.6
				c-1.3,0-2.6,0-3.9,0c-0.3,0-0.5-0.1-0.5-0.4c0-0.5,0-1.1,0-1.6c0-0.5,0-0.5,0.5-0.5c2,0,4.1,0,6.1,0c2.1,0,4.2,0,6.3,0
				c0.3,0,0.7-0.2,1-0.4c0.3-0.2,0.5-0.6,0.7-0.8c0.3-0.4,0.3-0.7,0.3-1.1C-237,422.6-237,414.3-237,405.9z M-239.5,425.3
				c0,0.5-0.1,0.6-0.6,0.6c-11.2,0-22.5,0-33.7,0c-0.7,0-0.7,0-0.7-0.7c0-4.4,0-8.9,0-13.3c0-1.8,0-3.6,0-5.4c0-0.2,0-0.4,0-0.7
				c0.2,0,0.3,0,0.4,0c11.3,0,22.7,0,34,0c0.5,0,0.6,0,0.6,0.6C-239.5,412.8-239.5,419-239.5,425.3z"/>
		</g>
	</g>
	<path class="st0" d="M-259.9,415.4c-0.5,0-1-0.1-1.4-0.4c-0.1,0-0.3,0-0.3,0.1c-0.9,0.8-1.9,1.5-2.8,2.3c-0.6,0.5-1.2,0.9-1.8,1.4
		c-0.2,0.2-0.5,0.4-0.2,0.7c0,0,0,0.1,0,0.2c-0.2,0.8-0.4,1.5-1.3,1.9c-1,0.5-2,0.2-2.7-0.7c-0.4-0.5-0.5-1.1-0.4-1.7
		c0.1-0.7,0.5-1.3,1.2-1.5c0.4-0.1,0.8-0.2,1.2-0.2c0.1,0,0.2,0,0.2,0c0.6,0.4,1,0.2,1.5-0.3c0.5-0.5,1.2-0.9,1.7-1.4
		c0.9-0.7,1.7-1.3,2.6-2c0.1-0.1,0.2-0.3,0.2-0.5c0-0.8,0.4-1.4,1-1.8c0.6-0.4,1.3-0.5,2-0.2c0.4,0.2,0.7,0.4,0.9,0.7
		c0.4,0.7,0.6,1.3,0.2,2.1c-0.1,0.1,0.1,0.4,0.2,0.6c0.5,0.7,1.1,1.3,1.6,1.9c0.2,0.4,0.5,0.3,0.8,0.3c0.4,0,0.8-0.1,1.2,0.2
		c0,0,0.3,0,0.3-0.1c0.6-0.6,1.2-1.2,1.9-1.7c1.1-1,2.1-2,3.2-2.9c0.4-0.3,0.7-0.6,1.1-1c0.1-0.1,0.2-0.3,0.2-0.5c0-0.3,0-0.6,0-0.9
		c0.1-0.7,0.3-1.3,1-1.6c0.3-0.2,0.7-0.4,1.1-0.4c0.6,0,1.2,0.2,1.7,0.7c0.6,0.7,0.6,1.5,0.4,2.3c-0.1,0.6-0.6,1-1.2,1.2
		c-0.3,0.1-0.7,0.1-1,0.2c-0.1,0-0.2,0-0.2,0c-0.6-0.4-0.9,0.1-1.3,0.4c-0.6,0.6-1.2,1.1-1.9,1.7c-0.9,0.8-1.8,1.7-2.7,2.5
		c-0.4,0.4-0.9,0.8-1.3,1.3c-0.1,0.1-0.2,0.3-0.2,0.5c0.1,0.9-0.3,1.7-1,2.1c-0.5,0.3-1.1,0.5-1.8,0.2c-0.4-0.2-0.9-0.4-1.1-0.8
		c-0.4-0.6-0.6-1.3-0.2-2c0.1-0.2,0.1-0.5-0.1-0.7c-0.6-0.6-1.1-1.3-1.6-2c-0.1-0.1-0.2-0.1-0.3-0.2
		C-259.5,415.3-259.7,415.4-259.9,415.4z"/>
	<path class="st0" d="M-268,419.6c0-0.4-0.2-0.6-0.7-0.6c-0.4,0-0.7,0.3-0.7,0.7s0.3,0.7,0.7,0.7C-268.4,420.3-268,419.9-268,419.6z
		"/>
	<path class="st0" d="M-245.4,409.5c-0.5,0-0.7,0.2-0.7,0.7c0,0.4,0.3,0.7,0.6,0.7c0.3,0,0.7-0.4,0.7-0.7
		C-244.7,409.8-245,409.5-245.4,409.5z"/>
	<path class="st0" d="M-255.9,419c0,0.5,0.2,0.7,0.6,0.7c0.4,0,0.8-0.3,0.8-0.7c0-0.2-0.4-0.7-0.7-0.7
		C-255.7,418.3-255.9,418.5-255.9,419z"/>
	<path class="st0" d="M-259.3,413.3c-0.2-0.5-0.4-0.8-1-0.6c-0.3,0.1-0.3,0.4-0.4,0.6c-0.1,0.2,0.3,0.6,0.6,0.7
		C-259.6,414-259.5,413.6-259.3,413.3z"/>
</g>
</svg>
