<?xml version="1.0" encoding="utf-8"?>
<!-- Generator: Adobe Illustrator 19.0.0, SVG Export Plug-In . SVG Version: 6.00 Build 0)  -->
<!DOCTYPE svg PUBLIC "-//W3C//DTD SVG 1.1//EN" "http://www.w3.org/Graphics/SVG/1.1/DTD/svg11.dtd" [
	<!ENTITY ns_extend "http://ns.adobe.com/Extensibility/1.0/">
	<!ENTITY ns_ai "http://ns.adobe.com/AdobeIllustrator/10.0/">
	<!ENTITY ns_graphs "http://ns.adobe.com/Graphs/1.0/">
	<!ENTITY ns_vars "http://ns.adobe.com/Variables/1.0/">
	<!ENTITY ns_imrep "http://ns.adobe.com/ImageReplacement/1.0/">
	<!ENTITY ns_sfw "http://ns.adobe.com/SaveForWeb/1.0/">
	<!ENTITY ns_custom "http://ns.adobe.com/GenericCustomNamespace/1.0/">
	<!ENTITY ns_adobe_xpath "http://ns.adobe.com/XPath/1.0/">
]>
<svg version="1.1" id="图层_1" xmlns:x="&ns_extend;" xmlns:i="&ns_ai;" xmlns:graph="&ns_graphs;"
	 xmlns="http://www.w3.org/2000/svg" xmlns:xlink="http://www.w3.org/1999/xlink" x="0px" y="0px" viewBox="-4 6 40 40"
	 style="enable-background:new -4 6 40 40;" xml:space="preserve">
<style type="text/css">
	.st0{fill:#FFFFFF;}
</style>
	<g i:extraneous="self">
		<g>
			<g>
				<g>
					<path class="st0" d="M29.9,36.1c-1.9-0.7-3.9-1-5.9-1.4c-3.4-0.7-4.4-3.7-2.2-7.1c0.6-0.9,1.1-1.7,1.7-2.6
						c0.3-0.4,0.5-0.8,0.9-1c1.5-0.8,1.9-2,1.6-3.6c-0.1-0.7-0.3-1.7-0.8-1.9c-0.7-0.4-0.7-0.8-0.7-1.4c0-2.2,0-4.4-0.2-6.6
						c-0.2-1.7-1.3-2.5-3-2.2c-1,0.2-1.7-0.1-2.3-0.8c-0.7-0.9-1.6-1.2-2.8-0.9c-1.5,0.3-3,0.7-4.5,0.9C9.1,7.8,7.6,9.3,7.5,12
						c-0.1,1.4-0.1,2.8-0.1,4.3c0,0.8,0.2,1.8-0.9,2.2c-0.2,0.1-0.3,0.4-0.3,0.6c0,1.3-0.1,2.6,0.2,3.9c0.1,0.5,0.9,0.9,1.4,1.4
						c0.1,0.1,0.2,0.2,0.3,0.3c0.9,1.1,1.9,2.3,2.8,3.4c0.1,0.1,0.3,0.3,0.3,0.5c0.9,2.7-0.2,5-2.9,6c-0.6,0.2-1.1,0.3-1.7,0.5
						c-1.7,0.4-3.5,0.7-5.1,1.3c-1.9,0.7-3.6,1.8-4.2,3.8c-0.4,1.5-0.5,3.1-0.7,4.8h0.2v0h36.8h1.4h0.3C35.3,40,34.6,38,29.9,36.1z
						 M-1,42.9c0.1-0.6,0.2-1.3,0.4-1.9c0.5-1.8,2-2.7,3.7-3.3c1.4-0.5,3.4-0.8,4.9-1.1c0.5-0.1,1-0.3,1.5-0.4c3.8-1,5-6.2,2.8-9.1
						c-0.1-0.2-0.2-0.3-0.3-0.4c-0.8-1-1.6-2-2.4-3c-0.1-0.1-0.2-0.2-0.3-0.3c-0.4-0.4-1.2-0.7-1.2-1.2c-0.2-1.1-0.1-1.2-0.2-2.3
						c0-0.2,0.1-0.5,0.3-0.5c1-0.3,1-2.2,1-2.9c0-0.7,0-2,0.1-3.7c0.1-2.4,0.9-3.2,3.2-3.5C13.7,9,15,8.7,16.3,8.4
						c1-0.2,1.8,0,2.4,0.8c0.5,0.6,1.1,0.9,2,0.7c1.5-0.2,2.3,0.5,2.4,1.9c0.2,1.9,0.1,3.3,0.1,5.2c0,0.5,0,1.9,0.6,2.2
						c0.4,0.2,0.6,0.1,0.7,0.7c0.2,1.3-0.1,2.4-1.4,3.1c-0.3,0.2-0.6,0.6-0.8,0.9c-0.5,0.7-1,1.5-1.4,2.2c-3,3.3-2.8,8.8,2,10.1
						c1.7,0.4,3.5,0.6,5.1,1.2c4.1,1.3,5.2,2.7,5.5,5.3H-1z"/>
				</g>
			</g>
		</g>
	</g>
</svg>
