<?xml version="1.0" encoding="utf-8"?>
<!-- Generator: Adobe Illustrator 19.0.0, SVG Export Plug-In . SVG Version: 6.00 Build 0)  -->
<svg version="1.1" id="图层_1" xmlns="http://www.w3.org/2000/svg" xmlns:xlink="http://www.w3.org/1999/xlink" x="0px" y="0px"
	 viewBox="-196.8 320.9 200 200" style="enable-background:new -196.8 320.9 200 200;" xml:space="preserve">
<style type="text/css">
	.st0{fill:#b8bcc3;}
</style>
<g>
	<g transform="scale(0.1953125, 0.1953125)">
		<path class="st0" d="M-322.6,1994.1l-2.9-51.2c1.9-0.1,3.8-0.2,5.8-0.2c79.5,0,144,93.6,144,209s-64.5,209-144,209v-51.3
			c43.8,0,92.7-64.8,92.7-157.6c0-93-48.9-157.7-92.7-157.7L-322.6,1994.1 M-215.3,1876.3l-3-51.2c3.1-0.2,6-0.3,9.1-0.3
			c124.6,0,225.6,147.6,225.6,329.6c0,182-101,329.6-225.6,329.6v-51.4c94.5,0,174.3-127.4,174.3-278.2s-79.8-278.2-174.3-278.2
			L-215.3,1876.3 M-487.6,2531l-0.6-755.7c-42.9,24.4-148.4,116.6-231.8,198.4l-15,14.7h-21h-201l-0.1,333.2h195.5l26.2,0l13.1,11.2
			L-487.6,2531 M-482.6,2591c-2.8,0-9.9,1.5-26.6-11.3l-252.3-206.7h-213.1c0,0-31.3-5.6-33.6-39.1v-363.1c0,0,4.5-24.6,33.6-33.5
			h218.7c0,0,222-218,273.6-218c0.4,0,0.8,0,1.2,0.1c0,0,1.8-0.3,4.7-0.3c11.2,0,38.3,4.2,40.1,45v787.7c0,0,0,33.9-44.9,39.1
			C-481.1,2590.8-481.5,2591-482.6,2591L-482.6,2591L-482.6,2591z"/>
	</g>
</g>
</svg>
