<?xml version="1.0" encoding="utf-8"?>
<!-- Generator: Adobe Illustrator 19.0.0, SVG Export Plug-In . SVG Version: 6.00 Build 0)  -->
<!DOCTYPE svg PUBLIC "-//W3C//DTD SVG 1.1//EN" "http://www.w3.org/Graphics/SVG/1.1/DTD/svg11.dtd" [
	<!ENTITY ns_extend "http://ns.adobe.com/Extensibility/1.0/">
	<!ENTITY ns_ai "http://ns.adobe.com/AdobeIllustrator/10.0/">
	<!ENTITY ns_graphs "http://ns.adobe.com/Graphs/1.0/">
	<!ENTITY ns_vars "http://ns.adobe.com/Variables/1.0/">
	<!ENTITY ns_imrep "http://ns.adobe.com/ImageReplacement/1.0/">
	<!ENTITY ns_sfw "http://ns.adobe.com/SaveForWeb/1.0/">
	<!ENTITY ns_custom "http://ns.adobe.com/GenericCustomNamespace/1.0/">
	<!ENTITY ns_adobe_xpath "http://ns.adobe.com/XPath/1.0/">
]>
<svg version="1.1" id="图层_1" xmlns:x="&ns_extend;" xmlns:i="&ns_ai;" xmlns:graph="&ns_graphs;"
	 xmlns="http://www.w3.org/2000/svg" xmlns:xlink="http://www.w3.org/1999/xlink" x="0px" y="0px" viewBox="-4 6 40 40"
	 style="enable-background:new -4 6 40 40;" xml:space="preserve">
<style type="text/css">
	.st0{fill:#1AA2E7;}
</style>
<switch>
	<g i:extraneous="self">
		<path class="st0" d="M33,43.5h1.6c-0.1-4.7-0.7-6.7-5.3-8.4c-1.8-0.7-3.7-1-5.6-1.4c-3.3-0.7-4.3-3.6-2.1-6.9
			c0.5-0.8,1.1-1.7,1.6-2.5c0.2-0.4,0.5-0.8,0.9-1c1.5-0.7,1.8-2,1.6-3.4c-0.1-0.7-0.3-1.6-0.8-1.9c-0.7-0.4-0.6-0.8-0.7-1.4
			c0-2.1,0-4.3-0.2-6.4c-0.2-1.6-1.3-2.4-2.9-2.2c-1,0.2-1.6-0.1-2.2-0.8c-0.7-0.8-1.6-1.1-2.7-0.9c-1.4,0.3-2.9,0.6-4.3,0.9
			c-2.6,0.4-4,1.8-4.1,4.5c-0.1,1.4-0.1,2.7-0.1,4.1c0,0.8,0.2,1.7-0.9,2.1c-0.2,0.1-0.3,0.4-0.3,0.6c0,1.2-0.1,2.5,0.2,3.7
			c0.1,0.5,0.9,0.9,1.4,1.3c0.1,0.1,0.2,0.2,0.3,0.3c0.9,1.1,1.8,2.2,2.7,3.3c0.1,0.1,0.3,0.3,0.3,0.5c0.9,2.6-0.2,4.8-2.8,5.7
			c-0.5,0.2-1.1,0.3-1.6,0.4c-1.7,0.4-3.4,0.7-5,1.3c-1.8,0.7-3.5,1.7-4.1,3.7c-0.4,1.4-0.4,3-0.6,4.6h2.1L33,43.5z"/>
	</g>
</switch>
</svg>
