<?xml version="1.0" encoding="utf-8"?>
<!-- Generator: Adobe Illustrator 19.0.0, SVG Export Plug-In . SVG Version: 6.00 Build 0)  -->
<svg version="1.1" id="图层_1" xmlns="http://www.w3.org/2000/svg" xmlns:xlink="http://www.w3.org/1999/xlink" x="0px" y="0px"
	 viewBox="0 0 40 40" style="enable-background:new 0 0 40 40;" xml:space="preserve">
<style type="text/css">
	.st0{fill:#1AA2E7;}
</style>
<g id="XMLID_3_">
	<g id="XMLID_71_">
		<g id="XMLID_35_">
			<path id="XMLID_36_" class="st0" d="M21.1,3.5c1.5,0,2.8,0.7,3.5,1.7c0.2-0.4,0.3-0.9,0.3-1.4c0-2.1-1.7-3.7-3.7-3.7
				c-2.1,0-3.7,1.7-3.7,3.7c0,0.5,0.1,0.9,0.3,1.4C18.3,4.3,19.6,3.5,21.1,3.5z"/>
		</g>
	</g>
	<path id="XMLID_70_" class="st0" d="M36.2,34.8H5.7c-0.6,0-1-0.5-1-1v0c0-0.5,0.4-1,1-1h30.5c0.5,0,1,0.5,1,1v0
		C37.2,34.3,36.7,34.8,36.2,34.8z"/>
	<path id="XMLID_69_" class="st0" d="M5.1,34.6L5.1,34.6c-0.5-0.3-0.6-0.9-0.3-1.4l3.8-6c0.3-0.5,0.9-0.6,1.4-0.3l0,0
		c0.5,0.3,0.6,0.9,0.3,1.4l-3.8,6C6.2,34.8,5.6,34.9,5.1,34.6z"/>
	<path id="XMLID_68_" class="st0" d="M36.7,34.6L36.7,34.6c0.5-0.3,0.6-0.9,0.3-1.4l-3.8-6c-0.3-0.5-0.9-0.6-1.4-0.3l0,0
		c-0.5,0.3-0.6,0.9-0.3,1.4l3.8,6C35.6,34.8,36.2,34.9,36.7,34.6z"/>
	<path id="XMLID_67_" class="st0" d="M32.4,28.7L32.4,28.7c-0.6,0-1-0.4-1-1v-12c0-0.5,0.4-1,1-1h0c0.5,0,1,0.4,1,1v12
		C33.4,28.2,32.9,28.7,32.4,28.7z"/>
	<path id="XMLID_66_" class="st0" d="M9.5,28.8L9.5,28.8c-0.6,0-1-0.5-1-1V15.6c0-0.5,0.4-1,1-1h0c0.5,0,1,0.4,1,1v12.1
		C10.5,28.3,10.1,28.8,9.5,28.8z"/>
	<g id="XMLID_37_">
		<g id="XMLID_60_">
			<path id="XMLID_61_" class="st0" d="M10.5,15.9C10.5,15.9,10.5,15.9,10.5,15.9c0-5.7,4.7-10.4,10.4-10.4
				c5.7,0,10.4,4.6,10.4,10.4c0,0,0,0,0,0h2c0,0,0,0,0,0c0-6.8-5.6-12.4-12.4-12.4C14.1,3.5,8.5,9,8.5,15.8c0,0,0,0,0,0H10.5z"/>
		</g>
	</g>
	<g id="XMLID_9_">
		<g id="XMLID_52_">
			<path id="XMLID_53_" class="st0" d="M25.2,33.2c0,0.1,0,0.2,0,0.3c0,2.4-1.9,4.3-4.3,4.3c-2.4,0-4.3-1.9-4.3-4.3
				c0-0.1,0-0.2,0-0.3h-2c0,0.1,0,0.2,0,0.3c0,3.5,2.8,6.3,6.3,6.3c3.5,0,6.3-2.8,6.3-6.3c0-0.1,0-0.2,0-0.3H25.2z"/>
		</g>
	</g>
	<path id="XMLID_8_" class="st0" d="M31.3,33.2H10.5c-0.6,0-1-0.5-1-1v-18c0-0.6,0.4-1,1-1h20.8c0.6,0,1,0.4,1,1v18
		C32.3,32.7,31.9,33.2,31.3,33.2z"/>
	<path id="XMLID_7_" class="st0" d="M33.2,33.8h-5.9c-0.5,0-1-0.5-1-1v-3c0-0.6,0.5-1,1-1h5.9c0.6,0,1,0.4,1,1v3
		C34.2,33.3,33.8,33.8,33.2,33.8z"/>
	<path id="XMLID_6_" class="st0" d="M8.2,29.5H10c0.5,0,1,0.5,1,1v2c0,0.6-0.5,1-1,1H8.2c-0.6,0-1-0.4-1-1v-2
		C7.2,29.9,7.7,29.5,8.2,29.5z"/>
	<circle id="XMLID_5_" class="st0" cx="20.9" cy="15.8" r="10.9"/>
	<circle id="XMLID_4_" class="st0" cx="20.9" cy="33.8" r="5"/>
</g>
</svg>
