<?xml version="1.0" encoding="utf-8"?>
<!-- Generator: Adobe Illustrator 19.0.0, SVG Export Plug-In . SVG Version: 6.00 Build 0)  -->
<svg version="1.1" id="图层_1" xmlns="http://www.w3.org/2000/svg" xmlns:xlink="http://www.w3.org/1999/xlink" x="0px" y="0px"
	 viewBox="0 0 20 20" style="enable-background:new 0 0 20 20;" xml:space="preserve">
<style type="text/css">
	.st0{fill-rule:evenodd;clip-rule:evenodd;fill:#282828;}
</style>
<g>
	<path class="st0" d="M14.7,7.7h-1.9c0.1,1.7,0.2,3.5,0.3,5.2h1.3C14.5,11.1,14.6,9.4,14.7,7.7L14.7,7.7z M13.7,15.3
		c0.6,0,0.9-0.4,0.9-0.9c0-0.5-0.4-0.9-0.9-0.9c-0.5,0-0.9,0.4-0.9,0.9C12.8,15,13.2,15.3,13.7,15.3L13.7,15.3z"/>
	<path class="st0" d="M13.7,17.3c-1.6,0-3.1-0.6-4.2-1.7c-1.1-1.1-1.7-2.6-1.7-4.2c0-1.6,0.6-3.1,1.7-4.2c1.1-1.1,2.6-1.7,4.2-1.7
		c1.6,0,3.1,0.6,4.2,1.7c1.1,1.1,1.7,2.6,1.7,4.2c0,1.6-0.6,3.1-1.7,4.2C16.8,16.7,15.3,17.3,13.7,17.3L13.7,17.3z M13.7,6.6
		c-2.7,0-4.9,2.2-4.9,4.9c0,2.7,2.2,4.9,4.9,4.9c2.7,0,4.9-2.2,4.9-4.9C18.6,8.7,16.4,6.6,13.7,6.6L13.7,6.6z M9.2,18.6
		c-0.6,0-1-0.4-1.2-0.9H6.7c0.2,1.2,1.2,2.1,2.5,2.1c1.3,0,2.3-0.9,2.5-2.1h-1.3C10.3,18.2,9.8,18.6,9.2,18.6L9.2,18.6z M5.5,6.2
		C4.9,6.8,4.7,7.7,4.7,8.5v3.6c0,0.1,0,0.2,0.1,0.3c0.1,0.1,0.2,0.1,0.3,0.1c0.2,0,0.4-0.2,0.4-0.4V8.5c0-0.7,0.2-1.4,0.6-1.9
		C6.2,6.4,6.1,6.2,6,6.1C5.8,6,5.6,6,5.5,6.2L5.5,6.2z"/>
	<path class="st0" d="M8.7,16.6c0-0.4-0.3-0.6-0.6-0.6H2.4c0.5-0.7,1-1.7,1.1-2.8c0.1-1,0.1-2.6,0-3.8l0-0.9c0-1.6,0.7-3.1,1.8-4.1
		C6.5,3.3,8,2.9,9.5,3c1.2,0.1,2.3,0.7,3.2,1.6c0.2,0.3,0.6,0.3,0.9,0c0.3-0.2,0.3-0.6,0-0.9c-0.8-0.9-1.8-1.5-3-1.8V1.9
		c0-1-0.8-1.7-1.7-1.7S7.2,0.9,7.2,1.9V2c-1,0.3-1.9,0.7-2.6,1.4c-1.4,1.3-2.2,3.1-2.2,5l0,0.9c0,1.2,0,2.8,0,3.7
		c-0.1,1.7-1.6,3-1.7,3c-0.2,0.2-0.3,0.5-0.2,0.7c0.1,0.2,0.3,0.4,0.6,0.4h7.1C8.4,17.3,8.7,17,8.7,16.6L8.7,16.6z M8.9,1.4
		c0.2,0,0.4,0.1,0.4,0.3c-0.3,0-0.5,0-0.8,0C8.5,1.6,8.7,1.4,8.9,1.4L8.9,1.4z"/>
</g>
</svg>
