<?xml version="1.0" standalone="no"?><!DOCTYPE svg PUBLIC "-//W3C//DTD SVG 1.1//EN" "http://www.w3.org/Graphics/SVG/1.1/DTD/svg11.dtd"><svg class="icon" style="" viewBox="0 0 1024 1024" version="1.1" xmlns="http://www.w3.org/2000/svg" p-id="2926" xmlns:xlink="http://www.w3.org/1999/xlink" width="200" height="200"><defs><style type="text/css"><![CDATA[

]]></style></defs><path d="M902.394 123.106 124.611 123.106c-61.367 0-111.111 49.75-111.111 111.111l0 555.567c0 61.361 49.744 111.111 111.111 111.111l777.783 0c61.361 0 111.106-49.75 111.106-111.111L1013.5 234.217C1013.5 172.856 963.756 123.106 902.394 123.106zM305.039 574.906c-17.228 17.228-37.5 25.833-60.833 25.833-23.333 0-43.617-8.606-60.833-25.833-17.228-17.217-25.833-37.5-25.833-60.833s8.606-43.611 25.833-60.833c17.217-17.217 37.5-25.833 60.833-25.833 23.333 0 43.606 8.617 60.833 25.833 17.211 17.222 25.833 37.5 25.833 60.833S322.25 557.689 305.039 574.906zM582.817 574.906c-17.228 17.228-37.5 25.833-60.833 25.833s-43.617-8.606-60.833-25.833c-17.228-17.217-25.833-37.5-25.833-60.833s8.606-43.611 25.833-60.833c17.217-17.217 37.5-25.833 60.833-25.833s43.606 8.617 60.833 25.833c17.211 17.222 25.833 37.5 25.833 60.833S600.028 557.689 582.817 574.906zM860.594 574.906c-17.228 17.228-37.5 25.833-60.833 25.833s-43.622-8.606-60.833-25.833c-17.228-17.217-25.833-37.5-25.833-60.833s8.606-43.611 25.833-60.833c17.211-17.217 37.5-25.833 60.833-25.833s43.606 8.617 60.833 25.833c17.217 17.222 25.833 37.5 25.833 60.833S877.811 557.689 860.594 574.906z" p-id="2927"></path></svg>