<?xml version="1.0" encoding="utf-8"?>
<!-- Generator: Adobe Illustrator 19.0.0, SVG Export Plug-In . SVG Version: 6.00 Build 0)  -->
<svg version="1.1" id="图层_1" xmlns="http://www.w3.org/2000/svg" xmlns:xlink="http://www.w3.org/1999/xlink" x="0px" y="0px"
	 viewBox="13 -13 40 40" style="enable-background:new 13 -13 40 40;" xml:space="preserve">
<style type="text/css">
	.st0{fill:#FFFFFF;}
</style>
<g>
	<g transform="scale(0.0390625, 0.0390625)">
		<path class="st0" d="M1354.7-270.2c0-1,0-2.1,0-3.1s0-1,0-2.1s-1-2.1-1-3.1c0-1,0-1,0-2.1s-1-2.1-1-3.1c0,0,0-1-1-1l0,0
			c-1-1-2.1-2.1-3.1-3.1l0,0c-1-1-2.1-2.1-4.1-3.1c0,0-1,0-1-1c-1-1-2.1-1-3.1-2.1c-1,0-1,0-2.1-1c-1,0-2.1-1-3.1-1c-1,0-1,0-2.1,0
			s-2.1,0-3.1,0h-1h-1c-1,0-2.1,0-3.1,0c-1,0-2.1,0-2.1,0c-1,0-1,0-2.1,1c-1,0-2.1,1-3.1,1l0,0L347.3,160.3
			c-10.3,5.1-15.4,15.4-14.4,25.7c1,10.3,9.3,19.6,20.6,22.7L723.3,289c2.1,0,4.1,1,5.2,1c6.2,0,12.4-2.1,17.5-6.2l556.2-495.4
			l-13.4,619L861.3,287c-13.4-4.1-27.8,4.1-31.9,17.5c-4.1,13.4,4.1,27.8,17.5,31.9l89.6,25.7L764.5,562V357
			c0-14.4-11.3-25.7-25.7-25.7c-14.4,0-25.7,11.3-25.7,25.7v274c0,10.3,6.2,20.6,16.5,23.7c3.1,1,6.2,2.1,9.3,2.1
			c7.2,0,14.4-3.1,19.6-9.3l227.6-263.7c2.1-2.1,3.1-5.1,4.1-7.2l316.2,89.6c2.1,1,5.2,1,7.2,1c5.1,0,11.3-2.1,15.4-5.1
			c6.2-5.1,10.3-12.4,10.3-20.6L1354.7-270.2L1354.7-270.2z M721.2,236.5L439,174.7l741.6-347.1L721.2,236.5z"/>
	</g>
</g>
</svg>
