<?xml version="1.0" encoding="utf-8"?>
<!-- Generator: Adobe Illustrator 19.0.0, SVG Export Plug-In . SVG Version: 6.00 Build 0)  -->
<svg version="1.1" id="图层_1" xmlns="http://www.w3.org/2000/svg" xmlns:xlink="http://www.w3.org/1999/xlink" x="0px" y="0px"
	 viewBox="0 0 40 40" style="enable-background:new 0 0 40 40;" xml:space="preserve">
<style type="text/css">
	.st0{fill:#1AA2E7;}
</style>
<g id="XMLID_3_">
	<g id="XMLID_53_">
		<path id="XMLID_54_" class="st0" d="M39.6,16.1c-0.2-1.1-0.9-1.9-1.7-1.9h-0.2c-2.9,0-5.2-2.3-5.2-5.2c0-0.9,0.4-2,0.5-2
			c0.4-1,0.1-2.2-0.8-2.8l0,0l-5-2.8l-0.1,0c-0.3-0.1-0.6-0.2-1-0.2c-0.7,0-1.4,0.3-1.9,0.8c-0.6,0.6-2.5,2.3-4.1,2.3
			c-1.6,0-3.5-1.7-4.1-2.3c-0.5-0.5-1.2-0.8-1.9-0.8c-0.3,0-0.7,0.1-0.9,0.2l-0.1,0L7.9,4.2l-0.1,0C7,4.8,6.6,6.1,7.1,7
			c0,0,0.5,1,0.5,2c0,2.9-2.3,5.2-5.2,5.2H2.2c-0.8,0-1.5,0.7-1.7,1.9C0.4,16.2,0,18.3,0,20c0,1.7,0.4,3.8,0.4,3.9
			c0.2,1.1,0.9,1.9,1.7,1.9c0,0,0,0,0,0h0.2c2.9,0,5.2,2.3,5.2,5.2c0,0.9-0.4,2-0.5,2c-0.4,1-0.1,2.2,0.8,2.8l0,0l4.9,2.7l0.1,0
			c0.3,0.1,0.6,0.2,1,0.2c0.7,0,1.4-0.3,1.9-0.8c0.6-0.6,2.6-2.4,4.2-2.4c1.6,0,3.6,1.8,4.2,2.5c0.5,0.5,1.2,0.8,1.9,0.8
			c0,0,0,0,0,0c0.3,0,0.7-0.1,0.9-0.2l0.1,0l5.1-2.8l0.1,0c0.9-0.6,1.2-1.8,0.8-2.8c0,0-0.5-1-0.5-2c0-2.9,2.3-5.2,5.2-5.2h0.2
			c0.8,0,1.5-0.7,1.7-1.9c0-0.1,0.4-2.2,0.4-3.9S39.6,16.2,39.6,16.1z M19.9,26.9c-3.8,0-6.9-3.1-6.9-6.9s3.1-6.9,6.9-6.9
			s6.9,3.1,6.9,6.9C26.8,23.8,23.7,26.9,19.9,26.9z"/>
	</g>
</g>
</svg>
