<?xml version="1.0" encoding="utf-8"?>
<!-- Generator: Adobe Illustrator 19.0.0, SVG Export Plug-In . SVG Version: 6.00 Build 0)  -->
<svg version="1.1" id="图层_1" xmlns="http://www.w3.org/2000/svg" xmlns:xlink="http://www.w3.org/1999/xlink" x="0px" y="0px"
	 viewBox="0 0 40 40" style="enable-background:new 0 0 40 40;" xml:space="preserve">
<style type="text/css">
	.st0{fill:#FFFFFF;}
</style>
<g id="XMLID_3_">
	<g id="XMLID_4_" transform="scale(0.0390625, 0.0390625)">
		<path id="XMLID_5_" class="st0" d="M665.4,995.3C665.4,995.3,665.4,995.3,665.4,995.3c-18.6,0-36.7-7.7-48.4-20.6
			c-15.9-17.5-66.4-62.9-107.7-62.9c-41,0-92.3,45.7-107,61.7c-11.7,12.7-29.6,20.2-48.1,20.2c-8.8,0-17.1-1.7-24.6-5l-1.3-0.6
			l-125.6-70.2l-1.2-0.9c-22.9-16-31.6-47.3-20.2-72.8c0.1-0.2,11.6-26.7,11.6-50.9c0-73.4-59.7-133.1-133.1-133.1h-4.4
			c-0.3,0-0.5,0-0.8,0c-21,0-38.1-18.7-43.6-47.6c-0.4-2.3-10.7-57.1-10.7-100.3c0-43.2,10.3-98,10.7-100.3
			c5.5-29.3,23-48.1,44.4-47.6h4.5c73.4,0,133.1-59.7,133.1-133.1c0-24.2-11.5-50.7-11.6-51c-11.3-25.5-2.6-56.8,20.4-72.7l1.3-0.9
			l132.5-72.8l1.4-0.6c7.5-3.2,15.6-4.8,24.3-4.8c18.4,0,36.4,7.4,48.2,19.8c15.7,16.4,65.3,59.1,105.4,59.1
			c39.7,0,89-41.9,104.6-58c11.7-12.2,29.6-19.4,47.8-19.4c8.8,0,17.2,1.7,24.7,5l1.3,0.6l128,71.1l1.3,0.9
			c22.9,16,31.6,47.3,20.3,72.8c-0.1,0.2-11.6,26.7-11.6,50.9c0,73.4,59.7,133.1,133.1,133.1h4.4c21.4-0.5,38.9,18.3,44.4,47.6
			c0.4,2.3,10.7,57.1,10.7,100.3c0,43.2-10.3,98-10.7,100.3c-5.5,29.3-23,48-44.4,47.6h-4.4c-73.4,0-133.1,59.7-133.1,133.1
			c0,24.2,11.5,50.7,11.6,51c11.3,25.5,2.6,56.8-20.3,72.7l-1.3,0.9L691,989.9l-1.4,0.6C682.2,993.7,674,995.3,665.4,995.3z
			 M661.5,934c0.6,0.4,2.2,1,4,1c0.1,0,0.1,0,0.2,0l121.6-67.2c-2.9-6.8-16.4-39.9-16.4-74.4c0-103.2,81.3-187.8,183.2-193.1
			c1.5-8.1,9.4-53.7,9.4-87.9c0-34.2-8-79.7-9.4-87.9c-101.9-5.3-183.2-89.9-183.2-193.1c0-34.6,13.5-67.7,16.4-74.5L667.6,90.5
			c-0.1,0-0.3,0-0.5,0c-2,0-3.9,0.7-4.6,1.2c-2,2.1-19.3,19.6-44.3,37.2c-36.9,25.9-71.7,39.1-103.6,39.1
			c-32.2,0-67.3-13.4-104.4-39.9c-25.1-17.9-42.5-35.8-44.5-37.9c-0.6-0.4-2.6-1.2-4.6-1.2c-0.2,0-0.3,0-0.4,0l-123.9,68
			c3,6.9,16.3,39.9,16.3,74.4c0,103.2-81.3,187.8-183.2,193.1c-1.5,8.1-9.4,53.7-9.4,87.9c0,34.2,8,79.7,9.4,87.9
			c101.9,5.3,183.2,89.9,183.2,193.1c0,34.6-13.5,67.8-16.4,74.5L354,933.5c0.1,0,0.2,0,0.3,0c1.7,0,3.3-0.6,3.9-1
			c2.2-2.4,19.7-20.9,44.9-39.4c37.6-27.6,73.3-41.5,106.2-41.5c33.2,0,69.2,14.2,107,42.3C641.7,912.7,659.3,931.6,661.5,934z
			 M509.8,689c-97.7,0-177.2-79.5-177.2-177.2S412,334.5,509.8,334.5S687,414,687,511.7C687,609.5,607.5,689,509.8,689z
			 M509.8,394.8c-64.5,0-117,52.5-117,117s52.5,117,117,117s117-52.5,117-117C626.7,447.2,574.2,394.8,509.8,394.8z"/>
	</g>
</g>
</svg>
