<?xml version="1.0" encoding="utf-8"?>
<!-- Generator: Adobe Illustrator 19.0.0, SVG Export Plug-In . SVG Version: 6.00 Build 0)  -->
<svg version="1.1" id="图层_1" xmlns="http://www.w3.org/2000/svg" xmlns:xlink="http://www.w3.org/1999/xlink" x="0px" y="0px"
	 viewBox="0 0 20 20" style="enable-background:new 0 0 20 20;" xml:space="preserve">
<style type="text/css">
	.st0{fill:#2DB7F5;}
</style>
<g id="XMLID_11_">
	<g>
		<path id="XMLID_29_" class="st0" d="M0,1.8V6h20V1.8H0L0,1.8z M4.3,5C3.7,5,3.2,4.5,3.2,3.9s0.5-1.1,1.1-1.1s1.1,0.5,1.1,1.1
			S4.9,5,4.3,5L4.3,5z M18.4,5H10V2.8h8.4V5L18.4,5z"/>
		<path id="XMLID_28_" class="st0" d="M0,12.1h20V7.8H0V12.1L0,12.1z M7.9,8.8h10.4V11H7.9V8.8L7.9,8.8z M4.3,8.8
			c0.6,0,1.1,0.5,1.1,1.1S4.9,11,4.3,11s-1.1-0.5-1.1-1.1C3.2,9.3,3.7,8.8,4.3,8.8L4.3,8.8z"/>
		<path id="XMLID_27_" class="st0" d="M0,18.3h20V14H0V18.3L0,18.3z M12.8,15.1h5.6v2.2h-5.6L12.8,15.1L12.8,15.1z M4.3,15.1
			c0.6,0,1.1,0.5,1.1,1.1s-0.5,1.1-1.1,1.1s-1.1-0.5-1.1-1.1C3.2,15.6,3.7,15.1,4.3,15.1L4.3,15.1z"/>
	</g>
</g>
</svg>
