<?xml version="1.0" encoding="utf-8"?>
<!-- Generator: Adobe Illustrator 19.0.0, SVG Export Plug-In . SVG Version: 6.00 Build 0)  -->
<svg version="1.1" id="图层_1" xmlns="http://www.w3.org/2000/svg" xmlns:xlink="http://www.w3.org/1999/xlink" x="0px" y="0px"
	 viewBox="79.5 -79.7 170 174" style="enable-background:new 79.5 -79.7 170 174;" xml:space="preserve">
<style type="text/css">
	.st0{fill:#008EE5;}
	.st1{fill:#34C8E6;}
	.st2{fill:#FFFFFF;}
</style>
<g>
	<path class="st0" d="M215.9-44.5L169,32.2h40.8c21.9,0,39.7-17.3,39.7-38.6C249.5-25.7,234.9-41.7,215.9-44.5z"/>
	<path class="st1" d="M210.6-45c-4.4-19.1-22.1-33.6-43.5-34.7v106L210.6-45z"/>
	<path class="st0" d="M162.4-79.7c-21.4,0.9-39.1,15.3-43.7,34.2l43.7,71.7V-79.7z"/>
	<path class="st1" d="M79.5-6.4c0,21.3,17.8,38.6,39.7,38.6h41.4l-46.9-76.8C94.4-42,79.5-25.9,79.5-6.4z"/>
</g>
<path class="st2" d="M149.9,49.3l-9.1-2.7v4.5l9.1,2.9V49.3z M165.5,75.8c0.8-3.2,0.8-6.3,0.8-6.3h2.6v17.3h5V69.4h9.6
	c0,0,4.9,0.8,4.9-3.9c0-4.9,0-6.7,0-6.7s0-0.4-0.1-1c-0.6-2.4-3.4-2.1-3.4-2.1H174V52h0.6h12.9l1.3-3.6H174v-3.7h-5.4v3.7h-13.7V52
	h13.9v3.7h-10.2l0,0c-0.3,0-3.6-0.3-3.6,3.6c-0.1,4.4,0,6.7,0,6.7s0,3.3,3.7,3.5c3.3-0.1,3.3,0,3.3,0s0.4,9.4-8.2,11.9
	c0,3.7,0,3.7,0,3.7S162.7,85.1,165.5,75.8z M173.9,58.7L173.9,58.7L173.9,58.7l0.7,0v0h8.5c0,0,1.1-0.2,1.1,1.1c0,2.1,0,5.8,0,5.8
	s-0.1,0.9-0.8,1c-1.1,0.1-9.4,0-9.4,0L173.9,58.7L173.9,58.7z M160.3,66.6c-1.2-0.1-1.2-1.1-1.2-1.1s0-4.3,0-5.6
	c0-1.3,1.3-1.1,1.3-1.1h8.1l0.3,0v7.9C168.8,66.6,161.6,66.7,160.3,66.6z M235.5,48.4l-39.4-0.1V52h37.6L235.5,48.4z M181.2,71.8
	h-4.6c1.4,13,12.8,13.3,12.8,13.3s0.1-0.3,0-3.5C182.3,79.5,181.2,71.8,181.2,71.8z M159.6,89.6c-3.1-0.5-8-1.8-9.9-4.8
	c-0.1-4.5,0-25.8,0-25.8h-9.4v3.6h4.7v22.9l-4.3,5.2l0.2,0.1l0,0.1l3.3,2.8l4-4.9c0,0,5.6,5,20.6,5.2c5.2,0.1,15.7-0.6,23.2-2.4
	c0-3.4,0-3.6,0-3.6S173,92.7,159.6,89.6z M227.7,74.7l5,13.8c0,0-14.1,4.4-29.7,0.4c-0.6-0.6-0.5-0.6-0.1-2
	c0.4-1.4,5.7-19.1,5.7-19.1l-5.3,0l-5.9,19.1c0,0-1.7,4.1,2.5,5.5c2.7,0.6,20,4.8,38.2-1.6c-1.6-4.7-6-16.1-6-16.1L227.7,74.7
	L227.7,74.7z M123.6,82.4c0,0,0-0.4,0-4c-7.3-5.5-7.3-18.9-7.3-18.9h-3.8C112.5,80.9,123.6,82.4,123.6,82.4z M192.2,62.2v3.5h46.4
	l1.2-3.5L192.2,62.2L192.2,62.2z M96.6,48.2c-4,0.4-5.9,1.3-7.4,3.1v40.4c0,0,3.2,3.1,10.5,2.4c2.9-0.3,5.7-1.6,6.2-2.6
	c0.2-1.4,0-39.6,0-39.6S104.2,47.7,96.6,48.2z M101.8,66.5h-5.7v2.6h5.7v20.4c0,0-3.6,1.9-8.2,0.3c0-4.7-0.2-37-0.2-37
	s3.6-2.8,8.4,0.1C102,62,101.8,66.5,101.8,66.5z M132.8,44.4L132.8,44.4L132.8,44.4l-4.3,0v0h-0.1v7.9l-18.8,0.2v4h18.8v31.9
	c0,0-3.6,3-14.9,0.8c-0.1,3.1,0,3.6,0,3.6s13.4,3.3,19.3-2.5c0.2-6.7,0-33.8,0-33.8h3.6l1.3-4.1h-4.9L132.8,44.4L132.8,44.4z"/>
</svg>
