<?xml version="1.0" encoding="utf-8"?>
<!-- Generator: Adobe Illustrator 19.0.0, SVG Export Plug-In . SVG Version: 6.00 Build 0)  -->
<svg version="1.1" id="图层_1" xmlns="http://www.w3.org/2000/svg" xmlns:xlink="http://www.w3.org/1999/xlink" x="0px" y="0px"
	 viewBox="-74 76 50 50" style="enable-background:new -74 76 50 50;" xml:space="preserve">
<style type="text/css">
	.st0{fill:#999999;}
</style>
<g id="XMLID_1_">
	<g id="XMLID_13_">
		<g id="XMLID_17_">
			<rect x="-49.3" y="124" class="st0" width="0.5" height="2"/>
		</g>
		<g id="XMLID_16_">
			<path class="st0" d="M-48.8,121.9h-0.5v-4.2h0.5V121.9z M-48.8,115.6h-0.5v-4.2h0.5V115.6z M-48.8,109.4h-0.5v-4.2h0.5V109.4z
				 M-48.8,103.1h-0.5v-4.2h0.5V103.1z M-48.8,96.8h-0.5v-4.2h0.5V96.8z M-48.8,90.5h-0.5v-4.2h0.5V90.5z M-48.8,84.3h-0.5v-4.2h0.5
				V84.3z"/>
		</g>
		<g id="XMLID_15_">
			<rect x="-49.3" y="76" class="st0" width="0.5" height="2"/>
		</g>
		<g id="XMLID_14_">
			<path class="st0" d="M-48.8,121.9h-0.5v-4.2h0.5V121.9z M-48.8,115.6h-0.5v-4.2h0.5V115.6z M-48.8,109.4h-0.5v-4.2h0.5V109.4z
				 M-48.8,103.1h-0.5v-4.2h0.5V103.1z M-48.8,96.8h-0.5v-4.2h0.5V96.8z M-48.8,90.6h-0.5v-4.2h0.5V90.6z M-48.8,84.3h-0.5v-4.2h0.5
				V84.3z"/>
		</g>
	</g>
</g>
</svg>
