<?xml version="1.0" encoding="utf-8"?>
<!-- Generator: Adobe Illustrator 19.0.0, SVG Export Plug-In . SVG Version: 6.00 Build 0)  -->
<svg version="1.1" id="图层_1" xmlns="http://www.w3.org/2000/svg" xmlns:xlink="http://www.w3.org/1999/xlink" x="0px" y="0px"
	 viewBox="0 0 200 200" style="enable-background:new 0 0 200 200;" xml:space="preserve">
<style type="text/css">
	.st0{fill:#999999;}
</style>
<g>
	<g transform="scale(0.1953125, 0.1953125)">
		<path class="st0" d="M768,466.7c15.1-15.1,15.1-37.6,0-52.7c-15.1-15.1-37.6-15.1-52.7,0L512,617.3L308.7,414
			c-15.1-15.1-37.6-15.1-52.7,0c-15.1,15.1-15.1,37.6,0,52.7l0,0l233.4,225.8c15.1,15.1,37.6,15.1,52.7,0l0,0L768,466.7z
			 M1023.9,511.9C1023.9,233.4,798.1,0,512,0C225.9,0,0.1,233.4,0.1,511.9c0,278.5,233.4,511.9,511.9,511.9l0,0
			C798.1,1031.3,1023.9,798,1023.9,511.9z M75.4,511.9C75.4,271,271.1,75.3,512,75.3S948.6,271,948.6,511.9S752.9,948.5,512,948.5
			C271.1,956.1,75.4,760.3,75.4,511.9z"/>
	</g>
</g>
</svg>
