<?xml version="1.0" encoding="utf-8"?>
<!-- Generator: Adobe Illustrator 19.0.0, SVG Export Plug-In . SVG Version: 6.00 Build 0)  -->
<svg version="1.1" id="图层_1" xmlns="http://www.w3.org/2000/svg" xmlns:xlink="http://www.w3.org/1999/xlink" x="0px" y="0px"
	 viewBox="0 0 200 200" style="enable-background:new 0 0 200 200;" xml:space="preserve">
<style type="text/css">
	.st0{fill:#FFFFFF;}
</style>
<g>
	<g transform="scale(0.1953125, 0.1953125)">
		<path class="st0" d="M15.7,535.7L502,740.4c3.2,1.4,6.6,2,10,2c3.3,0,6.8-0.6,9.9-2l486.3-204.7c13-5.5,19.2-20.5,13.7-33.5
			c-5.5-13-20.6-19.2-33.6-13.7L512,689.1L35.6,488.5c-13-5.5-28.1,0.6-33.5,13.7C-3.5,515.2,2.7,530.2,15.7,535.7L15.7,535.7z
			 M988.3,642L512,842.6L35.5,642c-13-5.5-28.1,0.6-33.5,13.7c-5.5,13,0.6,28.1,13.6,33.5l486.3,204.7c3.2,1.4,6.6,2,10,2
			c3.3,0,6.8-0.6,9.9-2l486.3-204.7c13-5.5,19.2-20.5,13.7-33.5C1016.4,642.7,1001.3,636.5,988.3,642L988.3,642z M512,181.6
			l420.4,177L512,535.5l-420.4-177L512,181.6z M15.7,382.1L502,586.8c3.2,1.4,6.6,2,10,2c3.3,0,6.8-0.6,10-2l486.3-204.7
			c9.4-4,15.7-13.4,15.7-23.6s-6.1-19.6-15.7-23.6L522,130c-6.4-2.7-13.5-2.7-19.9,0L15.7,334.8c-9.4,4-15.6,13.4-15.6,23.6
			S6.3,378.1,15.7,382.1L15.7,382.1L15.7,382.1z"/>
	</g>
</g>
</svg>
