<?xml version="1.0" encoding="utf-8"?>
<!-- Generator: Adobe Illustrator 19.0.0, SVG Export Plug-In . SVG Version: 6.00 Build 0)  -->
<svg version="1.1" id="图层_1" xmlns="http://www.w3.org/2000/svg" xmlns:xlink="http://www.w3.org/1999/xlink" x="0px" y="0px"
	 viewBox="0 0 40 40" style="enable-background:new 0 0 40 40;" xml:space="preserve">
<style type="text/css">
	.st0{fill:#1AA2E7;}
</style>
<path id="XMLID_3_" class="st0" d="M15.5,0C15.5,0,15.4,0,15.5,0c-1.5,0-2.9,0.6-3.9,1.6c-1,1-1.6,2.4-1.6,3.8
	c0,1.3,0.4,2.6,1.3,3.6H6c-3.3,0-6,2.7-6,6v6.6c0,0.5,0.3,0.9,0.8,1.1c0.5,0.1,1-0.1,1.3-0.5c0.7-1.1,1.9-1.8,3.2-1.8
	c1,0,2,0.4,2.7,1.1c0.7,0.7,1.1,1.7,1.1,2.7c0,2-1.7,3.7-3.7,3.7c-1.3,0-2.5-0.6-3.2-1.8c-0.3-0.4-0.8-0.6-1.3-0.5
	C0.3,25.9,0,26.3,0,26.9v6.6c0,3.3,2.7,6,6,6h6.9c0.5,0,0.9-0.3,1.1-0.8s-0.1-1-0.5-1.3c-1.1-0.7-1.8-1.9-1.8-3.2c0-1,0.4-2,1.1-2.7
	c0.7-0.7,1.6-1.1,2.6-1.1c0,0,0,0,0.1,0c2,0,3.7,1.7,3.7,3.7c0,1.3-0.6,2.5-1.8,3.2c-0.4,0.3-0.6,0.8-0.5,1.3
	c0.1,0.5,0.6,0.8,1.1,0.8H25c3.3,0,6-2.7,6-6v-4.9c1,0.8,2.2,1.3,3.5,1.3c1.5,0,2.9-0.6,3.9-1.6c1-1.1,1.6-2.5,1.6-3.9
	c0-1.4-0.6-2.8-1.6-3.8c-1-1-2.4-1.6-3.8-1.6c-1.4,0-2.6,0.4-3.6,1.3l0-5c0-3.3-2.7-6-6-6l-5.3,0c0.8-1,1.3-2.2,1.3-3.5
	c0-1.5-0.6-2.9-1.6-3.9C18.3,0.6,16.9,0,15.5,0z"/>
</svg>
