<?xml version="1.0" encoding="utf-8"?>
<!-- Generator: Adobe Illustrator 19.0.0, SVG Export Plug-In . SVG Version: 6.00 Build 0)  -->
<svg version="1.1" id="图层_1" xmlns="http://www.w3.org/2000/svg" xmlns:xlink="http://www.w3.org/1999/xlink" x="0px" y="0px"
	 viewBox="0 0 40 40" style="enable-background:new 0 0 40 40;" xml:space="preserve">
<style type="text/css">
	.st0{fill:#FFFFFF;}
</style>
<g id="XMLID_3_">
	<g id="XMLID_4_" transform="scale(0.0390625, 0.0390625)">
		<path id="XMLID_5_" class="st0" d="M396.3,0.6c-0.7,0-1.3,0-2,0c-36.7,0.5-71.3,15.2-97.5,41.3c-26.2,26.1-40.9,60.6-41.5,97.3
			c-0.5,34.5,11.3,67.1,32.7,92.6H152.8C68.6,231.8,0,300.2,0,384.4v169.8c0,13.1,8.4,24.3,21,27.9c12.6,3.6,25.7-1.4,32.7-12.4
			c17.8-28.2,48.2-45,81.5-45c26,0,50.3,10.2,68.5,28.6c18.2,18.5,28.1,42.9,27.7,68.9c-0.7,51.5-43.2,94-94.7,94.7
			c-33.9,0.5-65-16.3-83.1-45c-7-11-20.1-16-32.6-12.4c-12.6,3.6-21,14.8-21,27.9v168c0,84.2,68.5,152.6,152.8,152.6h176.8
			c13.1,0,24.3-8.5,27.9-21s-1.4-25.6-12.4-32.6c-28.2-17.7-45-48.2-45-81.4c0-25.9,10.2-50.3,28.7-68.4
			c18.2-17.9,42.1-27.7,67.6-27.7c0.5,0,0.9,0,1.4,0c51.5,0.7,94.1,43.2,94.9,94.6c0.5,33.9-16.3,64.9-45,83
			c-11,7-16,20.1-12.4,32.6s14.9,21,27.9,21l176.8,0c84.3,0,152.8-68.5,152.8-152.6V728.9c25,20.9,56.7,32.7,90.4,32.7
			c38,0,73.7-14.9,100.4-42c26.7-27,41.1-62.9,40.6-100.9c-0.5-36.7-15.2-71.3-41.3-97.4c-26.1-26.1-60.7-40.8-97.4-41.4
			c-34.6-0.5-67.2,11.3-92.7,32.6l0-128.3c0-84.2-68.5-152.6-152.8-152.6l-135.3,0c21-24.9,32.8-56.6,32.8-90.4
			c0-38-14.9-73.6-42-100.3C468.7,15,433.6,0.6,396.3,0.6z M44.7,512.7V384.4c0-59.5,48.5-108,108.1-108h176.8
			c13.1,0,24.3-8.5,28-21c3.6-12.5-1.4-25.6-12.4-32.6c-28.7-18.1-45.6-49.1-45-83c0.8-51.4,43.4-93.9,94.9-94.6
			c26-0.3,50.5,9.5,69,27.7c18.5,18.2,28.7,42.5,28.7,68.4c0,33.3-16.8,63.7-45,81.4c-11.1,7-16.1,20.1-12.4,32.6
			c3.6,12.5,14.9,21,27.9,21h176.8c59.6,0,108.1,48.4,108.1,108v169.8c0,13.1,8.4,24.3,21,27.9c12.5,3.6,25.7-1.4,32.6-12.4
			c18.1-28.7,49.1-45.5,83.1-45c51.5,0.8,94,43.3,94.7,94.7c0.4,26-9.5,50.4-27.7,68.9C933.3,706.8,909,717,883,717
			c-33.3,0-63.7-16.8-81.5-45c-7-11-20.1-16-32.7-12.4c-12.6,3.6-21,14.8-21,27.9v168c0,59.5-48.5,108-108.1,108l-135.2,0
			c21.4-25.5,33.2-58,32.7-92.6c-0.6-36.7-15.3-71.2-41.5-97.3c-26.2-26.1-60.8-40.7-97.5-41.3c-0.7,0-1.4,0-2,0
			c-37.3,0-72.4,14.4-99,40.6c-27.1,26.7-42,62.3-42,100.3c0,33.7,11.8,65.4,32.7,90.4H152.8c-59.6,0-108.1-48.4-108.1-108l0-126.4
			c25.5,21.4,58.1,33.1,92.7,32.6c36.7-0.6,71.3-15.3,97.4-41.4c26.1-26.1,40.8-60.7,41.3-97.4c0.5-38-13.9-73.8-40.6-100.9
			c-26.7-27.1-62.4-42-100.4-42C101.5,480,69.7,491.8,44.7,512.7z"/>
	</g>
</g>
</svg>
