<?xml version="1.0" encoding="utf-8"?>
<!-- Generator: Adobe Illustrator 19.0.0, SVG Export Plug-In . SVG Version: 6.00 Build 0)  -->
<svg version="1.1" id="图层_1" xmlns="http://www.w3.org/2000/svg" xmlns:xlink="http://www.w3.org/1999/xlink" x="0px" y="0px"
	 viewBox="-4 6 40 40" style="enable-background:new -4 6 40 40;" xml:space="preserve">
<style type="text/css">
	.st0{fill:#FFFFFF;}
</style>
<g>
	<g>
		<path class="st0" d="M18.1,43.4v-1.9H-1.8c0.1-0.6,0.2-1.2,0.4-1.7c0.5-1.6,1.9-2.5,3.4-3c1.3-0.5,3.1-0.7,4.5-1.1
			c0.5-0.1,0.9-0.2,1.4-0.4c3.5-0.9,4.6-5.7,2.6-8.4c0-0.1-0.2-0.3-0.3-0.4c-0.7-0.9-1.5-1.8-2.3-2.7c-0.1-0.1-0.2-0.2-0.3-0.3
			c-0.4-0.4-1.1-0.7-1.1-1.1c-0.2-1-0.1-1.1-0.1-2.1c0-0.2,0.1-0.4,0.2-0.5c0.9-0.3,0.9-2,0.9-2.7c0-0.7,0-1.8,0.1-3.4
			c0.1-2.2,0.8-2.9,3-3.2c1.2-0.2,2.4-0.5,3.6-0.7c0.9-0.2,1.6,0,2.2,0.7c0.5,0.6,1,0.8,1.8,0.7c1.3-0.2,2.1,0.4,2.2,1.8
			c0.2,1.7,0.1,3.1,0.1,4.8c0,0.5,0,1.7,0.6,2.1c0.4,0.2,0.6,0.1,0.7,0.6c0.2,1.2-0.1,2.2-1.3,2.8c-0.3,0.2-0.5,0.5-0.7,0.8
			c-0.5,0.7-0.9,1.4-1.3,2.1c-2.2,2.5-2.5,6.2-0.2,8.2v-3.6c0-1,0.3-2.1,1.1-3.3c0.5-0.8,1-1.6,1.5-2.4c0.2-0.3,0.5-0.8,0.8-0.9
			c1.4-0.7,1.8-1.9,1.5-3.3c-0.1-0.6-0.3-1.5-0.8-1.8c-0.7-0.4-0.6-0.7-0.6-1.3c0-2,0-4.1-0.2-6.1c-0.2-1.6-1.2-2.3-2.8-2.1
			c-0.9,0.2-1.5-0.1-2.1-0.8c-0.7-0.8-1.5-1.1-2.5-0.8c-1.4,0.3-2.8,0.6-4.1,0.8C7.5,9.3,6.1,10.7,6,13.2c-0.1,1.3-0.1,2.6-0.1,3.9
			c0,0.8,0.2,1.6-0.8,2c-0.1,0-0.3,0.4-0.3,0.6c0,1.2-0.1,2.4,0.2,3.6c0.1,0.5,0.9,0.9,1.3,1.3c0.1,0.1,0.2,0.2,0.3,0.3
			c0.9,1.1,1.7,2.1,2.6,3.2c0.1,0.1,0.2,0.3,0.3,0.4c0.9,2.5-0.2,4.6-2.7,5.5c-0.5,0.2-1,0.3-1.6,0.4C3.7,34.7,2,35,0.5,35.5
			c-1.7,0.6-3.3,1.7-3.9,3.5c-0.4,1.4-0.4,2.8-0.6,4.4h0.2v0H18.1z"/>
	</g>
</g>
<rect x="16.5" y="30.7" class="st0" width="1.6" height="12.7"/>
<g>
	<g>
		<path class="st0" d="M28.5,26h-0.7c-2.2,0-4,1.8-4,4v2.5c0,0.1,0,0.1,0,0.2h1.4v-2.4c0-1.7,1.4-3,3-3h0c1.7,0,3,1.4,3,3v2.4h1.3
			c0-0.1,0-0.1,0-0.2V30C32.5,27.8,30.7,26,28.5,26z"/>
	</g>
</g>
<g>
	<g>
		<path class="st0" d="M34,31.6H22c-1.1,0-2,0.9-2,2v8c0,1.1,0.9,2,2,2h12c1.1,0,2-0.9,2-2v-8C36,32.5,35.1,31.6,34,31.6z
			 M34.5,41.1c0,0.5-0.5,1-1,1h-11c-0.5,0-1-0.5-1-1v-7c0-0.6,0.5-1,1-1h11c0.5,0,1,0.4,1,1V41.1z"/>
	</g>
</g>
</svg>
