<?xml version="1.0" encoding="utf-8"?>
<!-- Generator: Adobe Illustrator 19.0.0, SVG Export Plug-In . SVG Version: 6.00 Build 0)  -->
<svg version="1.1" id="图层_1" xmlns="http://www.w3.org/2000/svg" xmlns:xlink="http://www.w3.org/1999/xlink" x="0px" y="0px"
	 viewBox="0 0 200 200" style="enable-background:new 0 0 200 200;" xml:space="preserve">
<style type="text/css">
	.st0{fill:#FFFFFF;}
</style>
<g>
	<g transform="scale(0.1953125, 0.1953125)">
		<path class="st0" d="M1024.4,175.3c0-56.6-35.3-92.1-91.7-92.1c-280.3,0-560.6,0-841,0c-55.3,0-91.2,36-91.2,91.5
			c0,223.9,0,447.7,0,671.6c0,53.8,36.1,90.2,90,90.2c140.6,0.1,281.1,0,421.7,0c0,0,0,0,0,0c139.8,0,279.5,0,419.3,0
			c58,0,93.1-35.2,93.1-93.3C1024.4,620.5,1024.4,397.9,1024.4,175.3z M384.1,147.1c23.6-0.3,43.3,19.6,43.1,43.3
			c-0.2,23.3-19.4,42-42.9,41.9c-23.6-0.1-42.4-18.9-42.4-42.3C341.8,166.6,360.8,147.3,384.1,147.1z M256.2,147.1
			c23.4-0.1,42.6,18.9,42.8,42.4c0.2,23.6-18.6,42.6-42.2,42.7c-23.9,0.1-42.5-18.2-42.7-42.1C213.9,166.5,232.8,147.2,256.2,147.1z
			 M127.8,147.1c23.5-0.5,43.4,19.3,43.3,43c-0.1,23.4-18.9,42.1-42.5,42.1c-23.6,0.1-42.5-18.6-42.7-42
			C85.6,167.1,104.6,147.5,127.8,147.1z M963,844.3c0,22.3-8.6,30.8-31.1,30.8c-279.4,0-558.9,0-838.4,0c-23.5,0-31.7-8.1-31.7-31.3
			c0-176.7,0-353.4,0-530.1c0-19.6-3.1-17.1,17.6-17.1c144.6-0.1,289.2-0.1,433.8,0c145.8,0,291.6,0.1,437.5-0.2
			c9,0,12.4,1.6,12.4,11.8C962.9,486.8,963,665.6,963,844.3z M422.3,552.6c-41.6-33.3-82.4-66-123.4-98.6
			c-11.6-9.2-18.8-20.3-16.8-35.5c3.8-28.8,35.6-41.4,59.1-23c35.5,27.7,70.4,56.1,105.6,84.2c17.7,14.2,35.6,28.3,53.2,42.6
			c21.6,17.5,21.8,42.7,0.3,60c-52.5,42.2-105.1,84.2-157.8,126.1c-17.9,14.3-40.1,12.4-53-3.8c-13-16.4-9.8-38.1,8.1-52.5
			C338.7,619.2,380,586.4,422.3,552.6z M610.7,712.4c30.8,0,61.7-0.1,92.5,0c23,0.1,39.4,14.7,39.9,35.3c0.5,21.1-16,37-39.5,37
			c-62.9,0.2-125.8,0.2-188.7,0c-22.5-0.1-39.1-16.1-38.7-36.6c0.3-20.7,16.6-35.6,39.5-35.7C547.4,712.3,579.1,712.4,610.7,712.4z"
			/>
	</g>
</g>
</svg>
