<?xml version="1.0" encoding="utf-8"?>
<!-- Generator: Adobe Illustrator 19.0.0, SVG Export Plug-In . SVG Version: 6.00 Build 0)  -->
<svg version="1.1" id="图层_1" xmlns="http://www.w3.org/2000/svg" xmlns:xlink="http://www.w3.org/1999/xlink" x="0px" y="0px"
	 viewBox="0 0 56.7 56.7" style="enable-background:new 0 0 56.7 56.7;" xml:space="preserve">
<style type="text/css">
	.st0{fill:none;}
	.st1{fill:#5B5B5B;}
</style>
<polygon id="XMLID_10_" class="st0" points="39.8,13.9 39.8,4.5 4.5,4.5 4.5,39.8 13.9,39.8 13.9,13.9 "/>
<rect id="XMLID_11_" x="18.9" y="18.9" class="st0" width="20.9" height="20.9"/>
<polygon id="XMLID_12_" class="st0" points="18.9,44.8 18.9,54.2 54.2,54.2 54.2,18.9 44.8,18.9 44.8,44.8 "/>
<polygon id="XMLID_13_" class="st1" points="44.8,13.9 44.8,18.9 54.2,18.9 54.2,54.2 18.9,54.2 18.9,44.8 13.9,44.8 13.9,59.2 
	59.2,59.2 59.2,13.9 "/>
<path id="XMLID_17_" class="st1" d="M44.8,44.8V18.9v-5V-0.5H-0.5v45.3h14.4h5H44.8z M4.5,39.8V4.5h35.3v9.4v5v20.9H18.9h-5H4.5z"/>
</svg>
