<svg xmlns="http://www.w3.org/2000/svg">
    <symbol id="add" viewBox="-197 320.9 200 200">
        <g> <g transform="scale(0.1953125, 0.1953125)"> <path class="st0" d="M-494.2,1699.3c-253.3,0-459.3,206-459.3,459.3c0,253.3,206,459.3,459.3,459.3s459.3-206,459.3-459.3
			C-34.9,1905.4-240.9,1699.3-494.2,1699.3L-494.2,1699.3z M-494.2,2569.5c-226.6,0-410.9-184.3-410.9-410.9
			c0-226.5,184.3-410.8,410.9-410.8s410.9,184.3,410.9,410.8C-83.3,2385.1-267.6,2569.5-494.2,2569.5L-494.2,2569.5z M-320.9,2125.6
			h-140.5v-140.2c0-13.4-18.9-24.2-32.3-24.2s-32.3,10.9-32.3,24.2v140.2h-141.4c-13.4,0-24.2,18.9-24.2,32.3
			c0,13.4,10.9,32.3,24.2,32.3H-526v141.7c0,13.4,18.9,24.2,32.3,24.2s32.3-10.9,32.3-24.2v-141.7h140.5c13.4,0,24.2-18.9,24.2-32.3
			C-296.7,2144.5-307.5,2125.6-320.9,2125.6L-320.9,2125.6z"/> </g> </g> 
    </symbol>
    <symbol id="app" viewBox="0 0 200 200">
      <g class="transform-group"><g transform="scale(0.1953125, 0.1953125)"><path d="M371.2 524.8 153.6 524.8c-64 0-115.2 51.2-115.2 110.933333L38.4 853.333333c0 68.266667 46.933333 115.2 115.2 119.466667l217.6 0c64 0 115.2-51.2 115.2-115.2L486.4 640C486.4 576 435.2 524.8 371.2 524.8zM426.666667 857.6c0 38.4-17.066667 59.733333-55.466667 59.733333l-213.333333 0c-46.933333 0-64-21.333333-64-64l0-213.333333c0-38.4 21.333333-55.466667 59.733333-55.466667l213.333333 0c38.4 0 59.733333 21.333333 59.733333 64L426.666667 857.6 426.666667 857.6zM371.2 46.933333 153.6 46.933333C85.333333 46.933333 34.133333 98.133333 34.133333 162.133333l0 234.666667c0 42.666667 21.333333 93.866667 115.2 98.133333l217.6 0c68.266667 0 115.2-38.4 115.2-98.133333L482.133333 162.133333C486.4 98.133333 435.2 46.933333 371.2 46.933333zM426.666667 392.533333c0 51.2-38.4 46.933333-55.466667 46.933333l-213.333333 0c-64-4.266667-64-21.333333-64-46.933333L93.866667 166.4c0-42.666667 21.333333-59.733333 59.733333-59.733333l213.333333 0C405.333333 106.666667 426.666667 128 426.666667 166.4L426.666667 392.533333 426.666667 392.533333zM960 209.066667l-132.266667-132.266667c-34.133333-38.4-102.4-34.133333-136.533333 0l-132.266667 132.266667c-34.133333 42.666667-34.133333 102.4 4.266667 140.8l128 115.2c17.066667 17.066667 42.666667 29.866667 68.266667 29.866667s51.2-8.533333 68.266667-25.6l132.266667-119.466667C998.4 307.2 998.4 243.2 960 209.066667zM917.333333 311.466667l-123.733333 110.933333c-17.066667 17.066667-51.2 21.333333-72.533333 0l-119.466667-106.666667c-21.333333-21.333333-17.066667-51.2 0-76.8L725.333333 119.466667c8.533333-8.533333 21.333333-12.8 34.133333-12.8s25.6 4.266667 34.133333 12.8l119.466667 119.466667c8.533333 8.533333 12.8 21.333333 12.8 34.133333C930.133333 290.133333 925.866667 302.933333 917.333333 311.466667zM870.4 977.066667l-217.6 0c-72.533333-4.266667-115.2-55.466667-115.2-119.466667L537.6 640c0-64 51.2-110.933333 115.2-110.933333l217.6 0c64 0 115.2 51.2 115.2 115.2l0 217.6C985.6 925.866667 934.4 977.066667 870.4 977.066667zM652.8 584.533333c-42.666667 0-59.733333 17.066667-59.733333 55.466667l0 213.333333c0 42.666667 17.066667 64 64 68.266667l213.333333 0c38.4 0 59.733333-21.333333 59.733333-59.733333l0-213.333333c0-38.4-21.333333-64-59.733333-64C870.4 584.533333 652.8 584.533333 652.8 584.533333z" fill="#b8bcc3"/></g></g>
    </symbol>
    <symbol id="center" viewBox="0 0 200 200">
      <g class="transform-group"><g transform="scale(0.1953125, 0.1953125)"><path d="M1022.870397 645.784187c-3.784628 4.487366-8.809631 4.447855-14.15637 4.446444-331.142215-0.080434-662.28584-0.080434-993.428055 0-5.346739 0.001411-10.373153 0.039511-14.15637-4.446444 0-4.14023 0-8.277638 0-12.419279 1.007541-2.641619 2.170305-5.238083 3.001455-7.936147 9.001543-29.221502 17.932531-58.469815 26.922785-87.695551 11.751819-38.204701 23.517749-76.405168 35.324602-114.594347 5.604974-18.130088 11.415972-36.193853 16.968735-54.338052 11.105525-36.285576 22.038894-72.623363 33.155708-108.904705 6.529259-21.310755 13.37602-42.525555 19.905278-63.83631 11.116814-36.281342 22.086872-72.606429 33.138775-108.907527 5.686819-18.677603 10.917846-37.517485 17.321515-55.94673 3.681616-10.597522 4.236186-22.659787 12.962561-31.205539 205.47762 0 410.955241 0 616.43145 0 2.286017 4.720201 4.955858 9.300701 6.774794 14.195881 2.884332 7.768223 5.207038 15.745293 7.756934 23.636283 9.745204 30.172598 19.505931 60.340962 29.225735 90.522027 10.172774 31.586541 20.321559 63.18155 30.449178 94.782202 10.239097 31.953433 20.416104 63.926622 30.660846 95.878644 10.130441 31.600653 20.311681 63.184372 30.468933 94.776558s20.293337 63.190016 30.483044 94.772324c9.002955 27.900692 18.028487 55.794329 27.114698 83.666799 4.478899 13.737267 9.111611 27.423733 13.673766 41.134189C1022.870397 637.506548 1022.870397 641.645368 1022.870397 645.784187zM75.292499 593.725096c291.206068 0 581.816642 0 872.641707 0-0.361247-1.495789-0.615249-2.937955-1.061163-4.319443-6.176478-19.113639-12.426335-38.204701-18.566124-57.33104-10.085285-31.415796-20.101424-62.854169-30.152842-94.281254-10.387265-32.476959-20.754774-64.960974-31.18155-97.426644-9.863739-30.711646-19.820611-61.393659-29.685761-92.105305-13.469154-41.939939-26.874807-83.901045-40.339727-125.842395-6.478458-20.183269-13.146007-40.305861-19.450897-60.544164-1.32081-4.239009-3.100234-5.693875-7.73859-5.689641-174.579706 0.146757-349.159413 0.124179-523.739119 0.124179-1.128897 0-2.437007-0.348547-3.342947 0.104423-1.302465 0.649116-2.928077 1.679234-3.338713 2.90691-1.868325 5.585219-3.263924 11.32566-5.001014 16.957446-11.839309 38.375446-23.766107 76.724082-35.578604 115.107995-8.940865 29.05499-17.716629 58.16078-26.636328 87.222825C161.578339 312.950037 150.944128 347.265688 140.383296 381.602505c-10.181241 33.103497-20.277815 66.235216-30.4901 99.330247-10.10504 32.743661-20.320148 65.452044-30.450589 98.19006C77.987741 583.823257 76.745954 588.592847 75.292499 593.725096zM995.774044 1023.998589c4.485955-3.781805 4.587556-8.798342 4.452088-14.154959-0.265291-10.340698-0.579971-20.72514 0.091723-31.027737 0.47837-7.322309-3.935618-11.303082-11.376461-11.296027-239.673325 0.206024-479.343829 0.170746-719.017154 0.170746-80.141818 0-160.283635-0.001411-240.425453 0.002822-7.41121 0-10.15443 2.672664-10.162896 9.893372-0.011289 9.595626 0.244124 19.196896-0.08749 28.781232-0.230013 6.673193-0.207435 12.992195 5.588041 17.631962C348.484191 1023.998589 672.129118 1023.998589 995.774044 1023.998589zM29.425409 844.632359c-7.377343 0-10.082462 2.676897-10.088107 9.970984-0.009878 11.099881-0.002822 22.201173-0.002822 33.302465 0 9.924417 2.968999 12.892005 12.901883 12.892005 292.947392 0 585.894783 0 878.842175 0 26.718173 0 53.433523 0.0127 80.151696-0.009878 5.699519-0.005644 8.892887-3.197601 8.908409-8.875954 0.032456-12.04251-0.468492-24.11042 0.187679-36.11483 0.40217-7.397098-3.977951-11.349649-11.342594-11.339772-159.548441 0.227191-319.099705 0.172157-478.649557 0.172157C350.03078 844.629537 189.7288 844.629537 29.425409 844.632359zM990.108392 764.18715c7.357587 0 10.031662-2.675486 10.038718-10.021784 0.008467-11.101292-0.474137-22.229395 0.158046-33.295409 0.474137-8.259294-3.632226-11.885876-11.895753-11.880231-296.722141 0.190501-593.445694 0.159457-890.167835 0.159457-23.331481 0-46.661551-0.015522-69.994444 0.011289-5.692464 0.005644-8.885831 3.201834-8.902765 8.883009-0.033867 11.667152 0.472726 23.358293-0.184857 34.987344-0.419103 7.378754 3.968073 11.339772 11.351061 11.329894 159.744587-0.227191 319.487763-0.173568 479.23235-0.173568C669.865679 764.188561 829.987035 764.189972 990.108392 764.18715zM813.963752 485.325572c7.364643 0 10.052829-2.676897 10.059884-10.000617 0.008467-11.665741 0.008467-23.331481 0-34.995811-0.005644-7.357587-2.676897-10.035895-10.024606-10.037307-55.315959-0.004233-110.631918-0.001411-165.949288-0.001411-149.015831 0-298.031662-0.001411-447.047493 0.001411-7.364643 0-10.05424 2.676897-10.058473 10.000617-0.008467 11.47665-0.005644 22.953301-0.001411 34.431362 0.002822 8.197204 2.40314 10.603166 10.589055 10.603166 101.78842 0.001411 203.579662 0.001411 305.369493 0.001411C609.255192 485.326983 711.610883 485.326983 813.963752 485.325572zM764.288045 344.200732c7.366054 0 10.05424-2.676897 10.059884-10.000617 0.008467-12.041099 0.0254-24.082198-0.008467-36.124708-0.016933-5.689641-3.204657-8.899943-8.88442-8.899943-170.840235-0.0127-341.679058-0.0127-512.517882 0-5.712219 0-8.905587 3.184901-8.921109 8.864665-0.035278 11.85342-0.014111 23.70684-0.009878 35.560259 0.002822 8.197204 2.40314 10.603166 10.587644 10.603166 84.667284 0.002822 169.334568 0.001411 254.000441 0.001411C593.82458 344.202143 679.057724 344.203554 764.288045 344.200732zM727.608767 214.363452c6.523614-0.001411 9.468625-2.94501 9.479914-9.447458 0.018345-12.605547 0.028222-25.212506-0.005644-37.816642-0.015522-5.681175-3.210301-8.888654-8.898532-8.888654-147.507342-0.0127-295.013273-0.0127-442.520616 0-5.698108 0-8.892887 3.197601-8.908409 8.877365-0.033867 12.230189-0.0127 24.458967-0.009878 36.689156 0.002822 8.188737 2.404551 10.590466 10.600344 10.590466 73.000132 0.001411 146.001676 0.001411 219.001808 0.001411C580.104247 214.367685 653.856507 214.370508 727.608767 214.363452z" fill="#ffffff"/></g></g>
    </symbol>
    <symbol id="database" viewBox="0 0 200 200">
        <g id="XMLID_2_"> <g id="XMLID_3_" transform="scale(0.1953125, 0.1953125)"> <path id="XMLID_4_" class="st0" d="M855.9,60.4C765.3,21.4,643.2,0,512,0S258.6,21.4,168.1,60.4c-92.9,39.9-144,94.5-144,154
			v595.2c0,59.5,51.1,114.1,144,154c90.7,39,212.8,60.4,343.9,60.4s253.4-21.4,343.9-60.4c92.9-39.9,144-94.5,144-154V214.4
			C999.9,154.9,948.8,100.3,855.9,60.4z M801.6,322c-80.8,27.7-189.1,44.3-289.6,44.3c-102.1,0-207.7-16.1-289.6-44.3
			c-86.2-29.6-133.6-67.8-133.6-107.6s47.4-78.1,133.6-107.6c82-28.1,187.5-44.3,289.6-44.3c100.6,0,208.9,16.6,289.6,44.3
			c86.2,29.6,133.6,67.8,133.6,107.6C935.3,254.2,887.8,292.5,801.6,322z M801.6,505.1c-80.8,27.7-189.1,44.3-289.6,44.3
			c-102.1,0-207.7-16.1-289.6-44.3c-86.2-29.6-133.6-67.8-133.6-107.6v-74.1c41.1,31.4,100.3,57.7,172,75.9
			c75,19.2,161.9,29.3,251.4,29.3c89.4,0,176.3-10.1,251.4-29.3c71.6-18.4,130.8-44.5,172-75.9v74.1
			C935.3,437.4,887.8,475.6,801.6,505.1z M801.6,711.2c-80.8,27.7-189.1,44.3-289.6,44.3c-102.1,0-207.7-16.1-289.6-44.3
			c-86.2-29.6-133.6-67.8-133.6-107.6v-97c41.1,31.4,100.3,57.7,172,75.9c75,19.2,161.9,29.3,251.4,29.3
			c89.4,0,176.3-10.1,251.4-29.3c71.6-18.4,130.8-44.5,172-75.9v97C935.3,643.3,887.8,681.6,801.6,711.2z M511.9,961.4
			c-102.1,0-207.7-16.1-289.6-44.3c-86.2-29.6-133.6-67.8-133.6-107.6v-96.9c41.1,31.4,100.3,57.7,172,75.9
			c75,19.2,161.9,29.3,251.4,29.3c89.4,0,176.3-10.1,251.4-29.3c71.6-18.4,130.8-44.5,172-75.9v97c0,39.8-47.4,78.1-133.6,107.6
			C720.8,944.9,612.5,961.4,511.9,961.4z"/> </g> </g> 
    </symbol>
    <symbol id="home" viewBox="0 0 200 200">
      <g class="transform-group"><g transform="scale(0.1953125, 0.1953125)"><path d="M512 128C264.576 128 64 328.538746 64 575.91679 64 701.839684 115.974857 815.621975 199.642286 897L301.390857 897 722.610286 897 824.358857 897C908.025143 815.621975 960 701.839684 960 575.91679 960 328.538746 759.424 128 512 128L512 128 512 128ZM797.194286 833.011887 226.805714 833.011887C165.389714 764.953673 128 674.800135 128 575.91679 128 363.878467 299.922286 191.988113 512 191.988113 724.076571 191.988113 896 363.878467 896 575.91679 896 674.800135 858.610286 764.953673 797.194286 833.011887L797.194286 833.011887 797.194286 833.011887ZM242.246514 557.582139 161.211543 543.299993 169.147543 498.288926 250.182514 512.571073 242.246514 557.582139 242.246514 557.582139ZM773.776 512.591754 854.810971 498.309608 862.746971 543.320674 781.712 557.602821 773.776 512.591754 773.776 512.591754ZM319.782857 384.454416 266.8896 321.435266 301.907618 292.054846 354.800875 355.073996 319.782857 384.454416 319.782857 384.454416ZM704.229943 384.45133 669.2128 355.071645 722.106057 292.052495 757.1232 321.43218 704.229943 384.45133 704.229943 384.45133ZM489.142857 223.982169 534.857143 223.982169 534.857143 306.2526 489.142857 306.2526 489.142857 223.982169 489.142857 223.982169ZM513.949714 577.846718 376.274286 424.248966 452.834286 612.436863C440.774857 633.63064 440.435429 660.597059 454.266286 682.726663 474.336 714.838412 516.638857 724.602312 548.755429 704.537468 580.873143 684.472624 590.638857 642.176481 570.570286 610.065875 557.865143 589.738223 536.250286 578.366621 513.949714 577.846718L513.949714 577.846718Z" fill="#b8bcc3"/></g></g>
    </symbol>
    <symbol id="homeselected" viewBox="0 0 200 200">
        <g id="XMLID_2_"> <g id="XMLID_90_"> <path id="XMLID_91_" class="st0" d="M100,14.2c-55.2,0-100,44.8-100,100c0,28.1,11.6,53.5,30.3,71.7H53h94h22.7
			c18.7-18.2,30.3-43.6,30.3-71.7C200,58.9,155.2,14.2,100,14.2z M94.9,35.6h10.2V54H94.9V35.6z M39.8,110.1l-18.1-3.2l1.8-10
			l18.1,3.2L39.8,110.1z M57.1,71.4L45.3,57.4l7.8-6.6l11.8,14.1L57.1,71.4z M108.2,142.9c-7.2,4.5-16.6,2.3-21.1-4.9
			c-3.1-4.9-3-11-0.3-15.7l-17.1-42l30.7,34.3c5,0.1,9.8,2.7,12.6,7.2C117.6,128.9,115.4,138.4,108.2,142.9z M142.9,71.4l-7.8-6.6
			l11.8-14.1l7.8,6.6L142.9,71.4z M160.2,110.1l-1.8-10l18.1-3.2l1.8,10L160.2,110.1z"/> </g> </g> 
    </symbol>
    <symbol id="logo" viewBox="0 0 200 200">
        <g id="XMLID_2_"> <path id="XMLID_6_" class="st0" d="M137.3,85.1l-33.7,55.2H133c15.8,0,28.5-12.4,28.5-27.8C161.5,98.6,151,87.1,137.3,85.1z"/> <path id="XMLID_5_" class="st1" d="M133.6,84.7c-3.2-13.7-15.9-24.2-31.3-24.9V136L133.6,84.7z"/> <path id="XMLID_4_" class="st0" d="M98.9,59.7c-15.4,0.7-28.1,11-31.5,24.6l31.5,51.6V59.7z"/> <path id="XMLID_3_" class="st1" d="M39.3,112.5c0,15.3,12.8,27.8,28.5,27.8h29.7L63.8,85C50,86.9,39.3,98.5,39.3,112.5z"/> </g> 
    </symbol>
    <symbol id="managemoniter" viewBox="0 0 200 200">
        <g> <g transform="scale(0.1953125, 0.1953125)"> <path class="st0" d="M1024,0H66.4H0v957.6v66.4h1024v-66.4V66.3V0L1024,0z M960,64v406.5H807.6l-66.1-72.6
			c-6.1-9-15.9-15.6-27.5-17.3c-2-0.3-4.1-0.4-6.2-0.4c-9.7-0.1-19.4,3.4-27.1,10.4c-7.9,7.2-12.3,16.9-13,26.8L599,645.6
			l-99.1-434.5c-4.5-18.8-21.4-31.2-39.9-30.7c-16.3-0.4-32.1,9.4-38.3,25.7L298.6,613.7L179.7,483.8c-7.9-8.7-18.9-13.1-29.8-13
			l0,0h-86V64H960z M960,960H64V551h68.6l153.5,167.6c8,8.8,19.1,13.1,30.1,12.9c16.4,0.4,32-9.4,38.2-25.7l100.4-332.7L554.4,810
			c4.4,18.4,20.9,30.8,39.1,30.7c19.7,0.1,37.1-14.3,39.9-34.4l92.2-306.8l33.7,36.9c3.4,3.8,7.3,6.7,11.6,8.8
			c5.8,3.3,12.5,5.2,19.9,5.2h169.1V960H960z"/> </g> </g> 
    </symbol>
    <symbol id="message" viewBox="-196.8 320.9 200 200">
        <g> <g transform="scale(0.1953125, 0.1953125)"> <path class="st0" d="M-322.6,1994.1l-2.9-51.2c1.9-0.1,3.8-0.2,5.8-0.2c79.5,0,144,93.6,144,209s-64.5,209-144,209v-51.3
			c43.8,0,92.7-64.8,92.7-157.6c0-93-48.9-157.7-92.7-157.7L-322.6,1994.1 M-215.3,1876.3l-3-51.2c3.1-0.2,6-0.3,9.1-0.3
			c124.6,0,225.6,147.6,225.6,329.6c0,182-101,329.6-225.6,329.6v-51.4c94.5,0,174.3-127.4,174.3-278.2s-79.8-278.2-174.3-278.2
			L-215.3,1876.3 M-487.6,2531l-0.6-755.7c-42.9,24.4-148.4,116.6-231.8,198.4l-15,14.7h-21h-201l-0.1,333.2h195.5l26.2,0l13.1,11.2
			L-487.6,2531 M-482.6,2591c-2.8,0-9.9,1.5-26.6-11.3l-252.3-206.7h-213.1c0,0-31.3-5.6-33.6-39.1v-363.1c0,0,4.5-24.6,33.6-33.5
			h218.7c0,0,222-218,273.6-218c0.4,0,0.8,0,1.2,0.1c0,0,1.8-0.3,4.7-0.3c11.2,0,38.3,4.2,40.1,45v787.7c0,0,0,33.9-44.9,39.1
			C-481.1,2590.8-481.5,2591-482.6,2591L-482.6,2591L-482.6,2591z"/> </g> </g> 
    </symbol>
    <symbol id="setting" viewBox="0 0 200 200">
      <g class="transform-group"><g transform="scale(0.1953125, 0.1953125)"><path d="M644.056642 916.882354c-0.001023 0-0.001023 0-0.00307 0-15.803941-0.001023-31.162744-6.53688-41.084721-17.482163-13.517875-14.81952-56.346309-53.357232-91.402733-53.357232-34.8139 0-78.304414 38.759769-90.794889 52.338019-9.898441 10.760065-25.15082 17.183358-40.802288 17.183358-7.453762 0-14.488992-1.430582-20.910239-4.252861l-1.12359-0.493234-106.558921-59.586097-1.058099-0.73985c-19.399839-13.580297-26.78197-40.140209-17.171078-61.782112 0.072655-0.167822 9.827833-22.674419 9.827833-43.196825 0-62.282508-50.671053-112.954585-112.953561-112.954585l-3.776 0c-0.229221 0.005117-0.458441 0.008186-0.686638 0.008186-17.841344 0-32.367175-15.847943-37.007869-40.374546-0.37146-1.962701-9.094122-48.488341-9.094122-85.144192 0-36.654828 8.720615-83.181491 9.092076-85.144192 4.699022-24.839735 19.542078-40.796148 37.69553-40.367383l3.777023 0c62.283532 0 112.953561-50.671053 112.953561-112.954585 0-20.518313-9.750061-43.019793-9.849322-43.24492-9.599635-21.621437-2.169409-48.178279 17.310248-61.715597l1.104147-0.76748 112.459305-61.768809 1.169639-0.49835c6.332219-2.699482 13.268188-4.068665 20.615527-4.068665 15.613606 0 30.898731 6.284123 40.888246 16.810874 13.310144 13.93743 55.382355 50.181913 89.433892 50.181913 33.732266 0 75.546603-35.529191 88.811722-49.220005 9.93221-10.313903 25.107841-16.488533 40.569998-16.488533 7.495718 0 14.560624 1.418302 20.995173 4.214998l1.13894 0.49528 108.614743 60.344367 1.073448 0.74906c19.431561 13.5629 26.833135 40.122813 17.214057 61.781088-0.071631 0.165776-9.826809 22.673395-9.826809 43.194778 0 62.283532 50.671053 112.954585 112.953561 112.954585l3.776 0c18.129916-0.403183 32.995485 15.525602 37.69553 40.365336 0.370437 1.963725 9.093099 48.489364 9.093099 85.145216 0 36.655851-8.722662 83.181491-9.094122 85.144192-4.701069 24.840758-19.561521 40.73782-37.69553 40.36636l-3.774977 0c-62.282508 0-112.953561 50.672076-112.953561 112.954585 0 20.518313 9.749038 43.018769 9.848299 43.243897 9.594519 21.60711 2.181689 48.165999-17.269315 61.718667l-1.087774 0.75827-110.448508 61.045331-1.153266 0.497327C658.268318 915.501914 651.358955 916.882354 644.056642 916.882354zM640.702244 864.84621c0.493234 0.323365 1.886977 0.871857 3.353374 0.871857 0.060375 0 0.115634-0.001023 0.166799-0.00307l103.192244-57.034994c-2.489704-5.786797-13.882172-33.869389-13.882172-63.164598 0-87.60729 69.003584-159.402453 155.511843-163.896814 1.245364-6.873548 8.006348-45.547359 8.006348-74.568323 0-29.014824-6.757914-67.675332-8.005324-74.568323-86.508259-4.494361-155.512866-76.289524-155.512866-163.896814 0-29.335119 11.425214-57.45762 13.896498-63.197344l-101.517091-56.402591c-0.11768-0.008186-0.258896-0.014326-0.423649-0.014326-1.730411 0-3.348258 0.630357-3.88447 0.99056-1.702782 1.750877-16.419971 16.673751-37.556361 31.543414-31.28861 22.01234-60.875462 33.17354-87.940888 33.17354-27.329439 0-57.153698-11.381212-88.643899-33.827433-21.266349-15.158235-36.050054-30.365588-37.756929-32.148188-0.541329-0.369414-2.175549-1.01819-3.920286-1.01819-0.13917 0-0.25992 0.004093-0.363274 0.011256l-105.149828 57.754379c2.518357 5.859451 13.868869 33.892925 13.868869 63.132876 0 87.60729-69.00563 159.402453-155.51389 163.896814-1.246387 6.880711-8.004301 45.550429-8.004301 74.568323 0 29.014824 6.757914 67.675332 8.006348 74.568323 86.508259 4.494361 155.511843 76.289524 155.511843 163.896814 0 29.391401-11.469216 57.564044-13.911848 63.231113l99.519598 55.649438c0.065492 0.00307 0.13917 0.005117 0.220011 0.005117 1.455141 0 2.834558-0.533143 3.323699-0.849344 1.860371-1.99954 16.726963-17.73185 38.135552-33.423227 31.91385-23.388686 62.240553-35.248805 90.137926-35.248805 28.163433 0 58.72038 12.08627 90.821495 35.922141C623.920022 846.789972 638.84392 862.819041 640.702244 864.84621zM511.933485 656.906298c-82.945107 0-150.426011-67.480904-150.426011-150.426011 0-82.945107 67.480904-150.426011 150.426011-150.426011 82.945107 0 150.426011 67.480904 150.426011 150.426011C662.359496 589.42437 594.878592 656.906298 511.933485 656.906298zM511.933485 407.219585c-54.732555 0-99.260701 44.528146-99.260701 99.260701 0 54.732555 44.528146 99.260701 99.260701 99.260701 54.732555 0 99.260701-44.528146 99.260701-99.260701C611.194186 451.747731 566.667064 407.219585 511.933485 407.219585z" fill="#b8bcc3"/></g></g>
    </symbol>
    <symbol id="system" viewBox="0 0 200 200">
        <g> <g transform="scale(0.1953125, 0.1953125)"> <path class="st0" d="M15.7,535.7L502,740.4c3.2,1.4,6.6,2,10,2c3.3,0,6.8-0.6,9.9-2l486.3-204.7c13-5.5,19.2-20.5,13.7-33.5
			c-5.5-13-20.6-19.2-33.6-13.7L512,689.1L35.6,488.5c-13-5.5-28.1,0.6-33.5,13.7C-3.5,515.2,2.7,530.2,15.7,535.7L15.7,535.7z
			 M988.3,642L512,842.6L35.5,642c-13-5.5-28.1,0.6-33.5,13.7c-5.5,13,0.6,28.1,13.6,33.5l486.3,204.7c3.2,1.4,6.6,2,10,2
			c3.3,0,6.8-0.6,9.9-2l486.3-204.7c13-5.5,19.2-20.5,13.7-33.5C1016.4,642.7,1001.3,636.5,988.3,642L988.3,642z M512,181.6
			l420.4,177L512,535.5l-420.4-177L512,181.6z M15.7,382.1L502,586.8c3.2,1.4,6.6,2,10,2c3.3,0,6.8-0.6,10-2l486.3-204.7
			c9.4-4,15.7-13.4,15.7-23.6s-6.1-19.6-15.7-23.6L522,130c-6.4-2.7-13.5-2.7-19.9,0L15.7,334.8c-9.4,4-15.6,13.4-15.6,23.6
			S6.3,378.1,15.7,382.1L15.7,382.1L15.7,382.1z"/> </g> </g> 
    </symbol>
    <symbol id="terminal" viewBox="0 0 200 200">
        <g> <g transform="scale(0.1953125, 0.1953125)"> <path class="st0" d="M1024.4,175.3c0-56.6-35.3-92.1-91.7-92.1c-280.3,0-560.6,0-841,0c-55.3,0-91.2,36-91.2,91.5
			c0,223.9,0,447.7,0,671.6c0,53.8,36.1,90.2,90,90.2c140.6,0.1,281.1,0,421.7,0c0,0,0,0,0,0c139.8,0,279.5,0,419.3,0
			c58,0,93.1-35.2,93.1-93.3C1024.4,620.5,1024.4,397.9,1024.4,175.3z M384.1,147.1c23.6-0.3,43.3,19.6,43.1,43.3
			c-0.2,23.3-19.4,42-42.9,41.9c-23.6-0.1-42.4-18.9-42.4-42.3C341.8,166.6,360.8,147.3,384.1,147.1z M256.2,147.1
			c23.4-0.1,42.6,18.9,42.8,42.4c0.2,23.6-18.6,42.6-42.2,42.7c-23.9,0.1-42.5-18.2-42.7-42.1C213.9,166.5,232.8,147.2,256.2,147.1z
			 M127.8,147.1c23.5-0.5,43.4,19.3,43.3,43c-0.1,23.4-18.9,42.1-42.5,42.1c-23.6,0.1-42.5-18.6-42.7-42
			C85.6,167.1,104.6,147.5,127.8,147.1z M963,844.3c0,22.3-8.6,30.8-31.1,30.8c-279.4,0-558.9,0-838.4,0c-23.5,0-31.7-8.1-31.7-31.3
			c0-176.7,0-353.4,0-530.1c0-19.6-3.1-17.1,17.6-17.1c144.6-0.1,289.2-0.1,433.8,0c145.8,0,291.6,0.1,437.5-0.2
			c9,0,12.4,1.6,12.4,11.8C962.9,486.8,963,665.6,963,844.3z M422.3,552.6c-41.6-33.3-82.4-66-123.4-98.6
			c-11.6-9.2-18.8-20.3-16.8-35.5c3.8-28.8,35.6-41.4,59.1-23c35.5,27.7,70.4,56.1,105.6,84.2c17.7,14.2,35.6,28.3,53.2,42.6
			c21.6,17.5,21.8,42.7,0.3,60c-52.5,42.2-105.1,84.2-157.8,126.1c-17.9,14.3-40.1,12.4-53-3.8c-13-16.4-9.8-38.1,8.1-52.5
			C338.7,619.2,380,586.4,422.3,552.6z M610.7,712.4c30.8,0,61.7-0.1,92.5,0c23,0.1,39.4,14.7,39.9,35.3c0.5,21.1-16,37-39.5,37
			c-62.9,0.2-125.8,0.2-188.7,0c-22.5-0.1-39.1-16.1-38.7-36.6c0.3-20.7,16.6-35.6,39.5-35.7C547.4,712.3,579.1,712.4,610.7,712.4z"/> </g> </g> 
    </symbol></svg>