<?xml version="1.0" encoding="utf-8"?>
<!-- Generator: Adobe Illustrator 19.0.0, SVG Export Plug-In . SVG Version: 6.00 Build 0)  -->
<svg version="1.1" id="图层_1" xmlns="http://www.w3.org/2000/svg" xmlns:xlink="http://www.w3.org/1999/xlink" x="0px" y="0px"
	 viewBox="-3 5 32 32" style="enable-background:new -3 5 32 32;" xml:space="preserve">
<style type="text/css">
	.st0{fill:#D8EFFE;}
	.st1{fill:#4AB4FA;}
</style>
<path class="st0" d="M17.3,14.5L17.3,14.5c1.1,1.1,1.1,2.9,0,4s-2.9,1.1-4,0s-1.1-2.9,0-4S16.2,13.4,17.3,14.5L17.3,14.5z"/>
<path class="st0" d="M13.9,15.1L13.9,15.1c-0.7,0.7-0.7,1.9,0,2.7c0.7,0.7,1.9,0.7,2.7,0c0.7-0.7,0.7-1.9,0-2.7
	C15.9,14.4,14.7,14.4,13.9,15.1L13.9,15.1z"/>
<path class="st0" d="M12.1,28.1L12.1,28.1c-0.4-0.4-0.8-0.8-1.1-1.3c-0.1-0.2-0.2-0.3-0.4-0.5l-0.1,0.2c-0.1,0.4-0.2,0.7-0.2,1.2
	c0,0.4-0.4,0.7-0.8,0.7c-0.1,0-0.2,0-0.2,0c-1-0.3-1.8-1-2.4-1.8C6.3,25.8,6,24.8,6,23.8l0,0l0,0c0-1,0.3-1.9,0.8-2.6
	c0.4-0.6,1-1.2,1.6-1.6v-0.2l0,0l0,0c0-2.2,0.6-4.3,1.6-6.2c1.1-1.9,2.6-3.4,4.5-4.5c0.2-0.1,0.5-0.1,0.7,0l0,0l0,0
	c1.9,1.1,3.5,2.7,4.5,4.6c1.1,1.8,1.7,3.9,1.7,6.2v0.1v0.1c0.7,0.4,1.2,0.9,1.7,1.6c0.5,0.8,0.8,1.7,0.8,2.6V24c0,1-0.3,2-0.9,2.8
	s-1.4,1.4-2.4,1.8c-0.4,0.1-0.8-0.1-0.9-0.5c0-0.1,0-0.1,0-0.2c0-0.4-0.1-0.8-0.3-1.2l-0.1-0.2c-0.1,0.2-0.2,0.3-0.4,0.5
	c-0.4,0.5-0.7,0.9-1.2,1.3c-0.1,0.1-0.3,0.2-0.5,0.2l0,0h-4.6C12.5,28.4,12.3,28.3,12.1,28.1L12.1,28.1z"/>
<path class="st0" d="M12.4,26.3L12.4,26.3c0.3,0.3,0.5,0.7,0.8,1h4.1c0.3-0.3,0.6-0.6,0.8-1c0.3-0.4,0.6-0.9,0.9-1.3
	c0-0.1,0.1-0.1,0.2-0.2c0.3-0.3,0.8-0.3,1.1,0c0.4,0.4,0.7,0.9,0.9,1.5c0.1,0.2,0.1,0.4,0.2,0.6c0.4-0.2,0.7-0.5,0.9-0.9
	c0.4-0.6,0.6-1.2,0.7-2l0,0c0-0.7-0.2-1.3-0.6-1.9s-0.9-1-1.5-1.3c-0.3-0.1-0.5-0.4-0.4-0.7v-0.3v-0.3l0,0c0-2-0.5-3.9-1.5-5.6
	c-0.9-1.6-2.2-2.9-3.7-3.9c-1.5,1-2.8,2.3-3.7,3.9s-1.5,3.6-1.5,5.6v0.3l0,0v0.3c0,0.3-0.1,0.6-0.4,0.7c-0.6,0.3-1.1,0.7-1.5,1.3
	c-0.4,0.5-0.6,1.2-0.6,1.9l0,0c0,0.8,0.2,1.5,0.7,2c0.2,0.3,0.5,0.6,0.9,0.9c0.1-0.2,0.1-0.4,0.2-0.6c0.2-0.5,0.5-1,0.9-1.5
	c0.1-0.1,0.1-0.1,0.2-0.1c0.4-0.2,0.8-0.1,1,0.3C11.8,25.4,12.1,25.9,12.4,26.3L12.4,26.3z"/>
<path class="st1" d="M10.7,31.5c0-0.3,0.2-0.5,0.5-0.5s0.5,0.2,0.5,0.5v1.9c0,0.3-0.2,0.5-0.5,0.5s-0.5-0.2-0.5-0.5V31.5L10.7,31.5z
	 M15.8,13.3L15.8,13.3c1.3,1.3,1.3,3.4,0,4.7s-3.4,1.3-4.7,0s-1.3-3.4,0-4.7S14.6,12,15.8,13.3L15.8,13.3z M11.9,14L11.9,14
	c-0.9,0.9-0.9,2.3,0,3.2c0.9,0.9,2.3,0.9,3.2,0s0.9-2.3,0-3.2C14.2,13.1,12.8,13.2,11.9,14L11.9,14z M10,29.4L10,29.4
	c-0.5-0.5-0.9-1-1.4-1.5c-0.1-0.2-0.3-0.4-0.4-0.6l-0.1,0.2c-0.2,0.4-0.3,0.9-0.3,1.4s-0.4,0.9-0.9,0.9c-0.1,0-0.2,0-0.3-0.1
	c-1.2-0.4-2.2-1.1-2.9-2.1s-1.1-2.1-1.1-3.4l0,0l0,0c0-1.2,0.3-2.3,0.9-3.2c0.5-0.8,1.2-1.4,2-1.9v-0.2l0,0l0,0c0-2.7,0.7-5.2,2-7.4
	C8.8,9.2,10.7,7.3,13,6c0.3-0.2,0.6-0.2,0.9,0l0,0l0,0c2.3,1.3,4.1,3.2,5.4,5.4s2,4.7,2,7.4v0.1v0.2c0.8,0.5,1.5,1.1,2,1.9
	c0.6,0.9,0.9,2,0.9,3.2v0.1c0,1.2-0.4,2.4-1.1,3.3c-0.7,1-1.7,1.7-2.9,2.1c-0.5,0.2-1-0.1-1.1-0.6c0-0.1,0-0.2,0-0.3
	c0-0.5-0.1-1-0.3-1.4l-0.1-0.2c-0.1,0.2-0.3,0.4-0.4,0.6c-0.4,0.6-0.9,1.1-1.4,1.6c-0.2,0.2-0.4,0.3-0.6,0.3l0,0h-5.6
	C10.4,29.7,10.2,29.6,10,29.4L10,29.4z M10.1,26.8L10.1,26.8c0.3,0.4,0.6,0.8,1,1.1H16c0.3-0.4,0.7-0.8,1-1.2c0.4-0.5,0.7-1,1-1.6
	c0-0.1,0.1-0.2,0.2-0.2c0.4-0.3,0.9-0.3,1.2,0c0.5,0.5,0.8,1.1,1.1,1.7c0.1,0.2,0.2,0.5,0.2,0.7c0.4-0.3,0.8-0.6,1.1-1
	c0.5-0.7,0.8-1.5,0.8-2.3l0,0c0-0.8-0.2-1.6-0.7-2.2c-0.4-0.7-1-1.2-1.8-1.5c-0.3-0.1-0.5-0.5-0.5-0.8v-0.4v-0.3l0,0
	c0-2.4-0.6-4.6-1.7-6.5c-1.1-1.8-2.6-3.4-4.4-4.6c-1.8,1.1-3.3,2.7-4.4,4.5c-1.1,2-1.7,4.2-1.7,6.6v0.3l0,0v0.4
	c0,0.4-0.2,0.7-0.5,0.9c-0.7,0.3-1.3,0.9-1.8,1.5c-0.4,0.6-0.7,1.4-0.7,2.2l0,0c0,0.9,0.3,1.7,0.8,2.4c0.3,0.4,0.6,0.7,1,1
	c0.2-0.3,0.2-0.5,0.3-0.7c0.3-0.6,0.6-1.2,1.1-1.7C7.7,25,7.7,25,7.8,24.9c0.4-0.3,1-0.1,1.2,0.3C9.4,25.7,9.7,26.3,10.1,26.8
	L10.1,26.8z M15.3,31.5L15.3,31.5c0-0.3,0.2-0.5,0.5-0.5s0.5,0.2,0.5,0.5v1.9c0,0.3-0.2,0.5-0.5,0.5s-0.5-0.2-0.5-0.5V31.5
	L15.3,31.5z M13,31.5L13,31.5c0-0.3,0.2-0.5,0.5-0.5s0.5,0.2,0.5,0.5v4.2c0,0.3-0.2,0.5-0.5,0.5S13,36,13,35.7V31.5L13,31.5z"/>
</svg>
