<?xml version="1.0" encoding="utf-8"?>
<!-- Generator: Adobe Illustrator 19.0.0, SVG Export Plug-In . SVG Version: 6.00 Build 0)  -->
<svg version="1.1" id="图层_1" xmlns="http://www.w3.org/2000/svg" xmlns:xlink="http://www.w3.org/1999/xlink" x="0px" y="0px"
	 viewBox="0 0 104 24" style="enable-background:new 0 0 104 24;" xml:space="preserve">
<style type="text/css">
	.st0{fill:#2DB7F5;}
	.st1{fill:#FFFFFF;}
</style>
<g id="XMLID_4_">
	<rect id="XMLID_1_" y="11.2" class="st0" width="100" height="2"/>
	<polygon id="XMLID_2_" class="st0" points="100,9.2 104,12.2 100,15.2 	"/>
	<path id="XMLID_3_" class="st0" d="M77,24H25c-2.2,0-4-1.8-4-4V4c0-2.2,1.8-4,4-4h52c2.2,0,4,1.8,4,4v16C81,22.2,79.2,24,77,24z"/>
	<g id="XMLID_5_">
		<path id="XMLID_6_" class="st1" d="M31,7v8h-2.4v1H28V7H31z M30.4,10.7V7.6h-1.8v3.1H30.4z M28.6,11.3v3h1.8v-3H28.6z M34.6,6h0.6
			v1.8h2.2v4.1h0.8v0.6h-2.8c0.4,1.5,1.5,2.8,3.1,3.9l-0.4,0.5c-1.7-1.1-2.7-2.5-3.2-4.2c-0.4,1.6-1.5,3-3.4,4.2l-0.4-0.5
			c1.8-1.1,2.9-2.4,3.3-3.9h-2.8v-0.6h0.7V7.8h2.3V6z M33,11.9h1.6l0-0.2V8.4H33V11.9z M36.9,11.9V8.4h-1.6v3.3c0,0.1,0,0.1,0,0.2
			H36.9z"/>
		<path id="XMLID_13_" class="st1" d="M39.6,12.3h0.9V7.1h1.2c0.2-0.4,0.3-0.8,0.4-1.2L42.9,6c-0.1,0.4-0.3,0.8-0.4,1.1h2.2v8.8
			c0,0.6-0.3,0.9-0.9,0.9h-1.5l-0.2-0.6l1.5,0c0.3,0,0.5-0.2,0.5-0.5v-2.5c-1,1.2-2.4,2.2-4.2,3l-0.3-0.6c1.8-0.7,3.2-1.6,4.2-2.7
			h-4.1V12.3z M44.1,8.9V7.7h-2.9v1.2H44.1z M41.1,9.4v1.2h2.9V9.4H41.1z M41.1,11.1v1.2h2.9v-1.2H41.1z M45.3,8.4h3.3V6h0.7v2.4
			h1.1V9h-1.1v6.9c0,0.7-0.3,1-1,1h-1.7l-0.1-0.6c0.8,0,1.3,0,1.6,0c0.4,0,0.6-0.2,0.6-0.6V9h-3.3V8.4z M46.2,10.6
			c0.5,0.8,1,1.8,1.5,2.8l-0.6,0.3c-0.4-1.1-0.9-2-1.5-2.8L46.2,10.6z"/>
		<path id="XMLID_20_" class="st1" d="M60,6.1c-0.3,0.9-0.7,1.8-1.2,2.5h2.6v0.6h-4.1v0.7c0,0.6-0.1,1.2-0.2,1.7h5v0.6h-4.5
			c0.6,1.7,2.2,3.1,4.8,4L62,16.9c-2.7-1.1-4.4-2.6-5-4.5c-0.2,0.8-0.5,1.5-1,2c-0.8,1-2.1,1.9-4,2.4l-0.4-0.6
			c1.8-0.6,3.1-1.4,3.9-2.4c0.3-0.5,0.6-1,0.8-1.7h-4.5v-0.6h4.6c0.1-0.5,0.2-1.1,0.2-1.7V9.2h-4.1V8.5h5.5c0.5-0.7,0.9-1.6,1.3-2.6
			L60,6.1z M54.6,6c0.5,0.7,1,1.4,1.4,2.1l-0.6,0.3C55,7.6,54.5,6.9,54,6.3L54.6,6z"/>
		<path id="XMLID_23_" class="st1" d="M67.2,14c-0.8,1-1.8,1.8-3.1,2.6L63.7,16c1.2-0.7,2.2-1.5,3-2.5L67.2,14z M67.2,16.9l-0.1-0.6
			c0.6,0,1,0,1.2,0c0.3,0,0.5-0.2,0.5-0.5v-3.2L65,12.9l-0.2-0.6c0.2,0,0.4-0.1,0.6-0.1c1.1-0.5,2.3-1.2,3.6-2.2
			c-0.9,0.1-2.1,0.1-3.6,0.2l-0.1-0.6c0.2,0,0.3-0.1,0.5-0.1c0.7-0.3,1.5-1,2.4-2c-1.2,0.1-2.3,0.1-3.5,0.1L64.5,7
			C68,7,70.8,6.7,73,6.2l0.3,0.6C72.2,7,70.7,7.2,69,7.4c-0.8,1-1.7,1.7-2.5,2.2c1.1-0.1,2.2-0.1,3.3-0.2c0.6-0.5,1.1-0.9,1.7-1.5
			L72,8.2c-2.1,1.9-4,3.2-5.6,4c2.2-0.1,4-0.3,5.6-0.4c-0.3-0.4-0.7-0.9-1-1.2l0.5-0.3c1,1.2,1.8,2.1,2.3,3l-0.5,0.4
			c-0.2-0.4-0.5-0.8-0.8-1.3c-0.8,0.1-1.7,0.2-2.9,0.3V16c0,0.6-0.3,0.9-0.9,0.9H67.2z M71.1,13.5c1.2,0.9,2.2,1.8,3.1,2.7l-0.5,0.5
			c-0.7-0.8-1.7-1.8-3-2.7L71.1,13.5z"/>
	</g>
</g>
</svg>
