<svg id="svg2" xmlns="http://www.w3.org/2000/svg" viewBox="-9 11 180 180"><style>.st0{display:none}.st1,.st2,.st3{display:inline;fill:#231f20}.st2,.st3{fill:#d33833}.st3{fill:#ef3d3a}.st4{fill:#f0d6b7}.st5{fill:#335061}.st6{fill:#6d6b6d}.st7{fill:#dcd9d8}.st8{fill:#f7e4cd}.st9{fill:#49728b}.st10{fill:#fff}.st11{fill:#d33833}.st12{fill:none;stroke:#d33833;stroke-width:2}.st13{fill:#ef3d3a}.st14{fill:#231f20}.st15{fill:#81b0c4}.st16{fill:#1d1919}</style><g id="layer1" class="st0"><path id="path26-6" class="st1" d="M12.5 80.5c-18 18.4-29.1 43.8-29.1 72 0 28.1 11.1 53.6 29.1 72s42.8 29.8 70.3 29.8c27.4 0 52.3-11.4 70.3-29.8s29.1-43.8 29.1-72c0-28.1-11.1-53.6-29.1-72s-42.8-29.8-70.3-29.8-52.3 11.4-70.3 29.8zM8 228.9c-19.1-19.6-31-46.6-31-76.4 0-29.8 11.8-56.9 31-76.4 19.1-19.6 45.6-31.7 74.8-31.7 29.2 0 55.7 12.1 74.8 31.7 19.1 19.6 31 46.6 31 76.4 0 29.8-11.8 56.9-31 76.4-19.1 19.6-45.6 31.7-74.8 31.7-29.2 0-55.7-12.1-74.8-31.7"/><path id="path22" class="st2" d="M185.4 152.1c0 58-45.9 104.9-102.6 104.9-56.7 0-102.6-47-102.6-104.9 0-58 45.9-104.9 102.6-104.9 56.6 0 102.6 46.9 102.6 104.9"/><path id="path24" class="st3" d="M-15.6 178.1S-23 68.7 77.8 65.5l-7-11.7L16 72.2.4 90.2l-13.7 26.2-7.8 30.5 2.3 20.3"/><path id="path26" class="st1" d="M12.5 80.5c-18 18.4-29.1 43.8-29.1 72 0 28.1 11.1 53.6 29.1 72s42.8 29.8 70.3 29.8c27.4 0 52.3-11.4 70.3-29.8s29.1-43.8 29.1-72c0-28.1-11.1-53.6-29.1-72s-42.8-29.8-70.3-29.8-52.3 11.4-70.3 29.8zM8 228.9c-19.1-19.6-31-46.6-31-76.4 0-29.8 11.8-56.9 31-76.4 19.1-19.6 45.6-31.7 74.8-31.7 29.2 0 55.7 12.1 74.8 31.7 19.1 19.6 31 46.6 31 76.4 0 29.8-11.8 56.9-31 76.4-19.1 19.6-45.6 31.7-74.8 31.7-29.2 0-55.7-12.1-74.8-31.7"/></g><path id="path28" class="st4" d="M126 152.7l-15.6 2.3-21.1 2.3-13.7.4-13.3-.4-10.2-3.1-9-9.8-7-19.9-1.6-4.3-9.4-3.1-5.5-9-3.9-12.9L20 83.9l10.2-3.5 8.2 3.9 3.9 8.6 4.7-.8 1.6-2-1.6-9-.4-11.3L49 54.2l-.1-8.9L56 33.9l12.5-9 21.9-9.4 24.2 3.5 21.1 15.2 9.8 15.6 6.3 11.3 1.6 28.1-4.7 24.2-8.6 21.5-8.2 11.3"/><path id="path30" class="st5" d="M8.5 191l-4.1-12.1-2-6.3 31.3-21.5 9.8-3.9 8.6 10.6 7.4 6.6 8.6 2.7 3.9 1.2 4.7 20.3 1.9 2.4"/><path id="path32" class="st6" d="M20 83.9l10.2-3.5 8.2 3.9 3.9 8.6 4.7-.8 1.2-4.7-2.3-9 2.3-21.5-2-11.7 7-8.2 15.2-12.1-4.2-5.9-21.5 10.6-9 7-5.1 10.9-7.8 10.6-2.3 12.5L20 83.9"/><path id="path34" class="st7" d="M36.1 47.2S42 32.7 65.4 25.7s1.2-5.1 1.2-5.1l-25.4 9.8-9.8 9.8-4.3 7.8 9-.8"/><path id="path36" class="st7" d="M24.3 81.2s-8.2-27.4 23.1-31.3l-1.2-4.7-21.5 5.1-6.3 20.3L20 83.9l4.3-2.7"/><path id="path38" class="st8" d="M36.9 117.5l5.1-5s2.3.3 2.7 3c.4 2.7 1.6 27.4 18.4 40.6 1.5 1.2-12.5-2-12.5-2L38 134.7"/><path id="path40" class="st8" d="M108.8 110.1s.9-11.8 4.1-10.9 3.2 4.1 3.2 4.1-7.8 5-7.3 6.8"/><path id="path42" class="st8" d="M141.2 66.7s-6.4 1.4-7 7c-.6 5.7 7 1.2 8.2.8"/><path id="path44" class="st8" d="M93.9 67.1s-8.6 1.2-8.6 6.6c0 5.5 9.8 5.1 12.5 2.7"/><path id="path46" class="st8" d="M40.8 92.5s-14.9-9-16.4-.4c-1.6 8.6-5.1 14.9 2.3 23.8l-5.1-1.6-4.7-12.1-1.6-11.7 9-9.4 10.2.8 5.9 4.7.4 5.9"/><path id="path48" class="st8" d="M47.8 67.9s6.6-34.4 40.3-41c27.7-5.5 42.2 1.2 47.7 7.4 0 0-24.6-29.3-48.1-20.3-23.4 9-40.6 25.4-40.3 36 .7 17.9.4 17.9.4 17.9"/><path id="path50" class="st8" d="M138.5 38.2s-11.3-.4-11.7 9.8c0 0 0 1.6.8 3.1 0 0 9-10.2 14.5-4.7"/><path id="path52" class="st8" d="M88.8 52.1s-2-15.6-15.2-6.5c-8.6 5.9-7.8 14.1-6.3 15.6 1.6 1.6 1.1 4.7 2.3 2.6 1.2-2.2.8-9.2 5.1-11.1 4.4-2 11.4-4.2 14.1-.6"/><path id="path62" class="st5" d="M151.7 190.8c1.9-8.4 7.1-27.9 7.1-27.9l-17.6-18.4-3.5-3.1-9.4 9.4v36.3L127 191"/><path id="path66" class="st9" d="M130.3 149.5l27.4 20.3.8-9.4-20.7-19.1-7.5 8.2"/><path id="path76" class="st10" d="M108.4 191l-6.8-8.2s2-5.5 4.7-5.5h9l8.6 3.1-.7 10.6"/><path id="path80" class="st10" d="M73.1 158.5l-10.8-1.2-10.2-3.1v3.5l5 5.5 15.6 7"/><path id="path82" class="st7" d="M55.6 159.7s12.1 5.1 16 3.9l.4 4.7-10.9-2.3-6.6-4.7 1.1-1.6"/><path id="path84" class="st11" d="M134.8 178.6c-6.6-.2-12.6-1-17.9-2.5.4-2.2-.3-4.3.2-5.8 1.5-1.1 3.9-1 6.1-1.3-1.9-.9-4.6-1.3-6.8-.8-.1-1.5-.7-2.4-1.1-3.6 3.7-1.3 12.5-10.1 17.5-7.2 2.4 1.4 3.4 9.2 3.5 13 .2 3.4-.2 6.6-1.5 8.2"/><path class="st7" d="M112.4 191c-1.4-3.2-2.5-5.4-2.5-5.1 0 0 2-4.7 4.7-3.5s8.6 4.3 8.6 4.3v-7.4l-13.3-2.7-9-.3 6.3 14.8h5.2z"/><path id="path86" class="st12" d="M134.8 178.6c-6.6-.2-12.6-1-17.9-2.5.4-2.2-.3-4.3.2-5.8 1.5-1.1 3.9-1 6.1-1.3-1.9-.9-4.6-1.3-6.8-.8-.1-1.5-.7-2.4-1.1-3.6 3.7-1.3 12.5-10.1 17.5-7.2 2.4 1.4 3.4 9.2 3.5 13 .2 3.4-.2 6.6-1.5 8.2z"/><path id="path88" class="st11" d="M103.1 167.8c0 .5 0 1-.1 1.5-2.1 1.4-5.4 1.3-7.7 2.5 3.3.1 6 1 8.3 2.1-.1 1.3-.1 2.5-.1 3.8-3.8 2.6-7.3 6.5-11.7 8.9-2.1 1.2-9.5 4.1-11.8 3.6-1.3-.3-1.4-1.9-1.9-3.4-1.1-3.2-3.6-8.3-3.8-13.1-.3-6.1-.9-16.2 5.6-15 5.3 1 11.4 3.4 15.5 5.7 2.5 1.4 3.9 3.1 7.7 3.4"/><path id="path90" class="st12" d="M103.1 167.8c0 .5 0 1-.1 1.5-2.1 1.4-5.4 1.3-7.7 2.5 3.3.1 6 1 8.3 2.1-.1 1.3-.1 2.5-.1 3.8-3.8 2.6-7.3 6.5-11.7 8.9-2.1 1.2-9.5 4.1-11.8 3.6-1.3-.3-1.4-1.9-1.9-3.4-1.1-3.2-3.6-8.3-3.8-13.1-.3-6.1-.9-16.2 5.6-15 5.3 1 11.4 3.4 15.5 5.7 2.5 1.4 3.9 3.1 7.7 3.4z"/><path id="path92" class="st11" d="M106.8 175c-.6-3.3-1.2-4.2-1-7.1 8.9-5.9 10.5 10.1 1 7.1"/><path id="path94" class="st12" d="M106.8 175c-.6-3.3-1.2-4.2-1-7.1 8.9-5.9 10.5 10.1 1 7.1z"/><path id="path96" class="st13" d="M119.6 177.7s-2.7-3.9-.8-5.1c2-1.2 3.9 0 5.1-2s0-3.1.4-5.5 2.3-2.7 4.3-3.1c2-.4 7.4-1.2 8.2.8l-2.3-7-4.7-1.6-14.9 8.6-.8 4.3v8.6"/><path id="path98" class="st13" d="M78.6 190.6l-1.5-18.3c-.8-9.1 2.2-7.5 10.1-7.5 1.2 0 7.4 1.4 7.9 2.3 2.1 4.4-3.6 3.4 2.5 6.7 5.1 2.8 14.1-1.7 12-7.8-1.1-1.4-6-.4-7.7-1.3-3.1-1.6-6.1-3.2-9.2-4.7-3.9-2-12.9-5-17-2.1-10.5 7.1.7 25 4.4 32.4"/><path id="path100" class="st14" d="M88.8 52.1c-10.7-2.5-15.9 4.5-19.2 11.7-2.9-.7-1.7-4.6-1-6.6C70.5 52 78.2 45 84.5 45.9c2.7.4 6.4 2.9 4.3 6.2"/><path id="path102" class="st14" d="M140.7 64.3h.5c2.4 5 4.5 10.3 7.5 14.7-2 4.7-15.4 8.9-15.2.4 2.9-1.3 7.9-.3 10.4-1.9-1.4-4-3.5-7.5-3.2-13.2"/><path id="path104" class="st14" d="M94.3 64.4c2.3 4.2 3 8.6 6.3 11.7 1.5 1.4 4.3 3.2 2.9 7.1-.3.9-2.7 3-4.1 3.4-5.1 1.5-16.9.3-12.9-6 4.2.2 9.8 2.7 13-.3-2.5-3.8-6.8-11.4-5.2-15.9"/><path class="st9" d="M8.2 191h6.5l37.4-33.2-11.3-11-38.3 25.8 4.3 12.1z"/><path id="path106" class="st14" d="M138.8 106.9c-7.6 4.9-16.2 10.2-28.7 9-2.7-2.3-3.7-7.5-1.1-10.9 1.4 2.3.5 6.6 4.3 7.2 7.1 1.2 15.4-4.3 20.5-6.3 3.2-5.3-.3-7.3-3.1-10.7-5.8-7-13.7-15.8-13.4-26.3 2.4-1.7 2.6 2.6 2.9 3.4 3.1 7.1 10.7 16.3 16.3 22.4 1.4 1.5 3.6 2.9 3.9 3.9.7 2.9-1.9 6.4-1.6 8.3"/><path id="path108" class="st14" d="M38.1 101.8c-2.4-1.4-3-7.4-5.8-7.6-4-.2-3.3 7.8-3.3 12.5-2.8-2.5-3.3-10.2-1.2-14.2-2.3-1.1-3.4 1.3-4.6 2.1 1.6-12 17.5-5.6 14.9 7.2"/><path id="path110" class="st14" d="M143.7 111.9c-3.6 6.8-8.6 14.2-19 14.4-.2-2.2-.4-5.5 0-6.8 8-.7 12.9-4.8 19-7.6"/><path id="path112" class="st14" d="M93.7 116.3c6.7 3.5 18.9 3.9 27.9 3.6.5 2 .5 4.4.5 6.8-11.6.7-25.4-2.2-28.4-10.4"/><path id="path114" class="st14" d="M92.4 122.8c4.6 11.6 20.4 10.2 33.8 9.9-.6 1.5-1.9 3.3-3.4 3.9-4.3 1.7-16.1 3.1-22-.1-3.8-2-6.2-6.5-8.2-9.2-1.1-1.2-6.1-4.4-.2-4.5"/><path id="path116" class="st15" d="M138.3 186.6c-1.1 2-3.4 4.4-3.4 4.4h-10s.5-5.5.6-8.7c5.7-2.6 10.5.6 12.8 4.3"/><path id="path126" class="st4" d="M118.9 157.3c-2.8 1.8-5.2 4.1-7.8 6-5.9.3-9.2-.4-13.5-3.8.1-.3.5-.2.5-.5 6.3 2.8 14.4-1.2 20.8-1.7"/><path id="path128" class="st15" d="M90.3 190.9c2.9-2.9 6.6-3.7 10.1-6 1.9 2.4 3.5 3.4 5 6.1"/><path id="path132" class="st8" d="M83.1 119.3c.5-.7 3.3-1.7 7.3.2 0 0-4.7.8-4.3 8.6l-2-.4s-2-7.1-1-8.4"/><path id="path134" class="st16" d="M117.4 186.5c0 1.2-1 2.1-2.2 2.1-1.2 0-2.1-1-2.1-2.1 0-1.2 1-2.2 2.1-2.2 1.2 0 2.2 1 2.2 2.2"/><path class="st14" d="M4.3 189.5c.2.5.3 1 .5 1.5h7.3c-1.9-6.1-4.1-12-6.7-17.6 10.9-8.4 23-17.3 36-22.4 1-.4 8.2 9 9.2 9.7 5.8 4.1 13.1 7.4 19.8 10.6.4 3.1 1.4 7.1 3.1 12.5.7 2.3 1.4 5 2.4 7.2h15.8c2.6-2.3 5.7-4.2 8.6-6.1 1.5 1.9 2.9 4 4.2 6.1h5c-1.7-3.2-3.5-6.3-5.7-9l2.1-2.4c3.2 1.3 5.2-1.7 7.6-1.5 2.8.3 5 4.1 9 3.9-.2 3-.3 6-.4 9.1h2.9c.2-3 .4-6 .5-8.7 5.6-2.6 10.4.6 12.7 4.3-.9 1.5-1.7 2.9-2.5 4.4h2.8c1.1-1.9 2.2-3.8 3.3-5.8-.9-2.2-3.2-3.1-3.8-5.5 4.2-8 2.3-32.9-8.5-27.7 1.5-2.2 5.5-4.1 7.3-6.8 4.6 3.7 7.3 7.1 11.7 11.1 2.4 2.1 7.1 4.7 7.5 8.1.3 1.9-.9 6.6-1.4 8.8-1.1 5.3-2.9 11.5-5 17.7h4.3c1.7-5.2 3.3-10.5 4.9-16 1.2-4.1 3.6-9.8 3.1-14-.5-4-6.7-8.1-9.9-11.3-1.8-1.7-10.2-8.1-10.7-10.5-.5-2.3 3.4-7.6 4.7-10.2 1.8-3.8 3.1-8.4 4-11.5 6.6-23.3 7.3-55.3-2.2-74.5-3.6-7.3-13.6-17.3-19.9-22C113.2 9.8 85.8 8.6 68 15.1c-5 1.8-9.8 3.5-14.1 6C42.2 28 29.8 32.6 26.3 46.4c-8.5 3.8-11.1 14.7-10.7 27.4.1 2.5 1.4 5.6 1 7.9-.2 1.2-1.8 2.7-2.2 3.5-4.1 9.8-.8 22.6 3.9 29.5 2.9 4.2 7.6 7.9 13.8 8.9.2 3.7 1.1 7 2.9 10.7 1.1 2.4 5.2 6.7 3.7 9.8-.8 1.5-7.4 4.9-9.6 6.2-7.4 4.5-12.8 7.2-19.7 12.1C5 165.6-2 166-.9 173.4c.8 5 3.6 11.1 5.2 16.1zM70 165.7c-4.1-.3-17-4.9-13.6-8.4 3.3 2.3 9.7 1.7 14.6 2.6.3 1.6-1 3.7-1 5.8zm33.5 12c-3.8 2.6-7.3 6.5-11.7 8.9-2.1 1.2-9.5 4.1-11.8 3.6-1.3-.3-1.4-1.9-1.9-3.4-1.1-3.2-3.6-8.3-3.8-13.1-.3-6.1-.9-16.2 5.6-15 5.3 1 11.4 3.4 15.5 5.7 2.5 1.4 3.9 3 7.7 3.3 0 .5 0 1-.1 1.5-2.1 1.4-5.4 1.3-7.7 2.5 3.3.1 6 1 8.3 2.1-.1 1.3-.1 2.6-.1 3.9zm3.3-2.7c-.6-3.3-1.2-4.2-1-7.1 8.9-5.9 10.5 10.1 1 7.1zm4.3-11.7c-5.9.3-9.2-.4-13.5-3.8.1-.3.5-.2.5-.5 6.3 2.8 14.4-1.2 20.8-1.7-2.8 1.8-5.1 4.1-7.8 6zm21.7-5.7c2.4 1.4 3.4 9.2 3.5 13 .2 3.2-.3 6.4-1.6 8-6.6-.2-12.6-1-17.9-2.5.4-2.2-.3-4.3.2-5.8 1.5-1.1 3.9-1 6.1-1.3-1.9-.9-4.6-1.3-6.8-.8-.1-1.5-.7-2.4-1.1-3.6 3.9-1.2 12.7-9.9 17.6-7zM62.9 23c.6-.2 1.2.3 1.7.8-.1 1.9-1.9 1.8-3.1 2.4-1.9 2.4-4.7 3.5-7.1 6.1-2.4 2.6-5.1 9.8-8.3 10.6-1.6.4-3.4-.3-4.8-.2-3.7.2-6.3 2.1-10 2.6 4.9-10.5 19.9-19 31.6-22.3zm-37 33c4.8-5.2 11.3-8.5 19.3-9.1 4.1 10.5-3 22.9-.3 34.4.8 3.5 3.6 9-.9 9.1.1-10-12.3-16.3-21.6-10.5-.5-7.6-1.6-18.2 3.5-23.9zm13 70.6c-.3-1.5-.9-4.6-.8-5.3.6-3.1 6-4.4 3.9-8.7-4 0-4.9 3.6-8.5 4-9.5.8-16.1-12.6-15.7-20.7C18.2 89 24 82.4 32 83.3c5.6.6 7.5 6.8 8.6 12.2 3.2.2 7.9-.1 9.5-2.7-.2-6.2-3.1-11.1-2.9-16.8.4-10.7 6.2-20.3 1.7-30.8 4.8-10.9 18.9-19.5 29.3-24.7 12.9-6.4 33.4-1.3 45.6 5.6 7 3.9 12.1 11.5 17 17.9-6.9-2-12.7 1.5-11.7 7.1 5.8-5.3 15.6-.1 18.5 5.8 2.8 5.6 2.8 13.8 3.2 22.1 1 20.1-3.7 40.8-13.8 55.4-2.7 3.9-5 8.1-8.8 10.8-9.2 6.4-23.1 12.3-35 8.3-15.7-5.3-22.9-15.8-31.6-27.8.2 6.6 4.9 12 9.5 17.1 4 4.4 8.8 9.4 14 11.4-4.3-1-11-1.3-12.7 2.5-10.1-.7-19.4-1.7-24.2-8.5-3.8-5.4-7.6-14.5-9.3-21.6z"/><path class="st9" d="M52.1 157.8l-36.7 16.4 3.7 16.8h3.5l29.5-33.2"/><path d="M78.3 191v-1.6c0-.5-.4-1-1-1H8.8c-.5 0-1 .4-1 1v1.6h70.5z"/><path id="rect3048-5_1_" d="M89.1 191v-1.6c0-.5.4-1 1-1h60.6c.5 0 1 .4 1 1v1.6"/></svg>