<svg id="图层_1" xmlns="http://www.w3.org/2000/svg" viewBox="0 0 100 100"><style>.st0{fill:#00758f}.st1{fill:#f29111}</style><g id="XMLID_12_" transform="matrix(1.81893 0 0 1.82377 -82.142 -64.844)"><g id="XMLID_13_" transform="matrix(1.26992 0 0 -1.26992 3.366 208.125)"><g id="XMLID_14_" transform="scale(.1)"><path id="XMLID_10_" class="st0" d="M433.5 1022.5h-16.7c-.6 28.1-2.2 54.5-4.9 79.3h-.1l-25.4-79.3h-12.7l-25.2 79.3h-.1c-1.9-23.8-3-50.2-3.5-79.3h-15.2c1 35.4 3.4 68.5 7.4 99.5h20.6l24-73.1h.1L406 1122h19.8c4.4-36.2 6.9-69.4 7.7-99.5"/><path id="XMLID_9_" class="st0" d="M505.8 1096c-6.8-36.8-15.7-63.5-26.8-80.2-8.7-12.9-18.1-19.3-28.4-19.3-2.8 0-6.1.8-10.2 2.5v8.9c2-.3 4.3-.4 6.9-.4 4.8 0 8.7 1.3 11.6 4 3.5 3.2 5.3 6.9 5.3 10.9 0 2.8-1.4 8.4-4.1 16.9l-18.3 56.8h16.4l13.1-42.4c2.9-9.6 4.2-16.4 3.7-20.2 7.2 19.2 12.2 40 15 62.6h15.8"/><path id="XMLID_8_" class="st1" d="M578.7 1050.1c0-8.4-3.1-15.4-9.3-20.8-6.2-5.4-14.5-8.1-24.9-8.1-9.7 0-19.2 3.1-28.3 9.3l4.3 8.5c7.9-3.9 15-5.9 21.4-5.9 6 0 10.7 1.3 14.1 4 3.4 2.7 5.4 6.4 5.4 11.1 0 5.9-4.1 11-11.7 15.2-7 3.8-20.9 11.8-20.9 11.8-7.6 5.5-11.3 11.4-11.3 21.2 0 8.1 2.8 14.6 8.5 19.5 5.7 5 13 7.5 21.9 7.5 9.2 0 17.6-2.5 25.2-7.4l-3.8-8.5c-6.5 2.7-12.9 4.1-19.1 4.1-5.1 0-9-1.2-11.8-3.7-2.8-2.4-4.5-5.6-4.5-9.4 0-5.9 4.2-11 12-15.3 7.1-3.8 21.4-12 21.4-12 7.5-5.5 11.4-11.4 11.4-21.1"/><path id="XMLID_21_" class="st1" d="M608.5 1042.4c-4 6.5-6 16.9-6 31.2 0 25.1 7.6 37.6 22.8 37.6 8 0 13.8-3 17.5-9 4-6.5 6-16.8 6-31 0-25.3-7.6-37.9-22.8-37.9-7.9.1-13.8 3.1-17.5 9.1m59.2-22.3l-18.3 9c1.6 1.3 3.2 2.8 4.6 4.4 7.8 9.1 11.7 22.6 11.7 40.5 0 32.9-12.9 49.4-38.8 49.4-12.7 0-22.6-4.2-29.6-12.5-7.8-9.1-11.6-22.6-11.6-40.4 0-17.5 3.4-30.3 10.3-38.5 6.3-7.4 15.7-11.1 28.4-11.1 4.7 0 9.1.6 13 1.7l23.8-13.9 6.5 11.4"/><path id="XMLID_5_" class="st1" d="M727.4 1022.5h-47.3v99.5H696v-87.3h31.4v-12.2"/><path id="XMLID_17_" class="st1" d="M738.8 1022.6h2.6v10.1h3.5v2.1h-9.7v-2.1h3.6v-10.1zm20.1 0h2.5v12.2h-3.7l-3-8.3-3.3 8.3h-3.6v-12.2h2.4v9.3h.1l3.5-9.3h1.8l3.5 9.3-.2-9.3"/><path id="XMLID_2_" class="st0" d="M747.4 1155.4c-9.6.2-17.1-.7-23.3-3.4-1.8-.7-4.7-.7-4.9-3 1-1 1.1-2.5 1.9-3.8 1.4-2.4 4-5.6 6.2-7.3 2.5-1.9 5.1-3.8 7.7-5.5 4.7-2.9 10-4.6 14.5-7.5 2.7-1.7 5.3-3.8 7.9-5.7 1.3-1 2.2-2.5 3.8-3.1v.4c-.8 1.1-1.1 2.6-1.9 3.9-1.2 1.2-2.4 2.3-3.6 3.5-3.5 4.7-7.8 8.8-12.5 12.1-3.9 2.7-12.3 6.3-13.8 10.7l-.2.2c2.6.2 5.8 1.2 8.3 1.9 4.1 1.1 7.8.8 12 1.9 1.9.5 3.9 1.1 5.8 1.7v1.1c-2.2 2.2-3.7 5-6 7.1-6.1 5.3-12.9 10.5-19.8 14.8-3.7 2.4-8.5 4-12.5 6-1.4.7-3.8 1.1-4.7 2.3-2.2 2.6-3.4 6.1-4.9 9.3-3.5 6.6-6.9 13.9-9.9 20.9-2.2 4.7-3.5 9.4-6.1 13.7-12.4 20.4-25.8 32.8-46.5 45-4.4 2.5-9.7 3.6-15.4 4.9-3 .1-6 .4-9 .5-1.9.8-3.9 3.1-5.5 4.2-6.9 4.3-24.5 13.7-29.6 1.3-3.2-7.8 4.8-15.5 7.6-19.5 2-2.8 4.7-5.9 6.1-9 .8-2 1.1-4.2 1.9-6.4 1.9-5.3 3.7-11.2 6.3-16.1 1.3-2.5 2.8-5.2 4.4-7.4 1-1.3 2.6-1.9 3-4.1-1.7-2.4-1.8-6-2.8-9-4.3-13.6-2.6-30.4 3.5-40.4 1.9-3 6.5-9.6 12.6-7.1 5.4 2.2 4.2 9 5.8 15 .4 1.5.1 2.4.8 3.4v-.2c1.7-3.4 3.4-6.6 4.9-10 3.7-5.9 10.2-12 15.6-16.1 2.9-2.2 5.2-5.9 8.8-7.2v.4h-.2c-.7 1.1-1.8 1.6-2.8 2.4-2.2 2.2-4.6 4.8-6.3 7.2-5 6.7-9.5 14.2-13.5 21.9-1.9 3.7-3.6 7.8-5.2 11.5-.7 1.4-.7 3.6-1.9 4.3-1.8-2.6-4.4-4.9-5.8-8.2-2.3-5.2-2.5-11.5-3.4-18.2-.5-.1-.2 0-.5-.2-3.8 1-5.2 4.9-6.6 8.3-3.6 8.5-4.2 22.3-1.1 32.1.8 2.5 4.5 10.5 3 12.9-.7 2.3-3.1 3.6-4.4 5.4-1.6 2.3-3.3 5.2-4.3 7.7-2.9 6.7-4.3 14.2-7.5 20.9-1.4 3.1-4 6.4-6 9.3-2.3 3.2-4.8 5.5-6.6 9.4-.6 1.3-1.4 3.5-.5 4.9.2 1 .7 1.3 1.7 1.6 1.6 1.3 6-.4 7.6-1.1 4.5-1.8 8.2-3.5 11.9-6 1.7-1.2 3.5-3.5 5.6-4.1h2.5c3.8-.8 8.2-.2 11.8-1.3 6.4-2 12.1-5 17.3-8.3 15.7-10 28.7-24.2 37.5-41.1 1.4-2.8 2.1-5.3 3.4-8.2 2.5-5.9 5.7-11.9 8.2-17.7 2.5-5.7 4.9-11.4 8.5-16.1 1.8-2.5 9-3.8 12.3-5.2 2.4-1.1 6.1-2 8.3-3.4 4.1-2.5 8.2-5.4 12-8.2 2.2-1.5 8.2-4.5 8.5-6.9"/><path id="XMLID_1_" class="st0" d="M624.8 1259.9c-2 0-3.5-.2-4.9-.6v-.2h.2c1-1.9 2.7-3.3 3.8-4.9 1-1.9 1.8-3.8 2.8-5.8l.2.2c1.7 1.2 2.5 3.1 2.5 6-.7.8-.8 1.7-1.4 2.5-.7 1.2-2.2 1.8-3.2 2.8"/></g></g></g></svg>