<svg id="图层_1" xmlns="http://www.w3.org/2000/svg" viewBox="0 0 100 100"><style>.st0{fill:#070707}.st1{fill:#499cd2}.st2{fill:#489cd2}</style><g id="Calque_1" transform="translate(-198.749 -374.543) scale(4.16667)"><path id="XMLID_23_" class="st0" d="M60.3 103.6c-.4.3-.9.2-1.2-.2-.3-.4-.2-.9.2-1.2.4-.3.9-.2 1.2.2.3.4.2 1-.2 1.2m.6-1.4c-.4-.6-1.1-.7-1.7-.3-.6.4-.7 1.2-.3 1.7.3.5 1 .7 1.5.4l.5.8.4-.3-.5-.8c.3-.3.4-1 .1-1.5"/><path id="XMLID_22_" class="st1" d="M71 104.1h-.3c0-2.4-2-4.3-4.4-4.3v-.3c2.6 0 4.7 2 4.7 4.6"/><path id="XMLID_21_" class="st2" d="M71.2 102.5c-.4-1.5-1.6-2.7-3.1-3.2l.1-.2c1.6.5 2.9 1.8 3.2 3.3l-.2.1z"/><path id="XMLID_20_" class="st2" d="M71.5 101.1c-.4-.8-1-1.5-1.8-2l.1-.2c.8.5 1.4 1.2 1.8 2l-.1.2z"/><g id="XMLID_10_" transform="matrix(.24 0 0 .24 7.448 -9.112)"><path id="XMLID_19_" class="st0" d="M167.7 471.1c.7.4 1.9.7 3.2.7 2.8 0 4.2-1.3 4.2-3.2 0-1.4-.8-2.4-2.6-3-1.2-.4-1.6-.7-1.6-1.1 0-.5.4-.8 1.2-.8.8 0 1.7.3 2.1.5l.5-2.1c-.6-.3-1.6-.6-2.7-.6-2.4 0-4 1.4-4 3.2 0 1.1.8 2.2 2.8 2.9 1.1.4 1.4.6 1.4 1.1s-.4.8-1.3.8-2.1-.4-2.6-.7l-.6 2.3z"/><path id="XMLID_16_" class="st0" d="M180.5 471.8c2.6 0 5.1-1.6 5.1-5.2 0-3-2-5-5-5-3.2 0-5.2 2-5.2 5.2 0 3.1 2.2 5 5.1 5zm0-2.2c-1.3 0-2-1.3-2-2.9 0-1.5.6-2.9 2-2.9s1.9 1.5 1.9 2.9c.1 1.7-.7 2.9-1.9 2.9z"/><path id="XMLID_15_" class="st0" d="M186.5 471.6h3V466c0-.3 0-.6.1-.8.2-.6.7-1.1 1.6-1.1 1.1 0 1.5.9 1.5 2.1v5.4h3v-5.8c0-2.9-1.5-4.2-3.5-4.2-1.6 0-2.6.9-3 1.6h-.1l-.1-1.4h-2.6c0 .9.1 1.9.1 3.1v6.7z"/><path id="XMLID_12_" class="st0" d="M205.3 465.8c0-2.3-1-4.2-4.3-4.2-1.8 0-3.1.5-3.8.9l.6 1.9c.6-.4 1.7-.7 2.7-.7 1.5 0 1.8.7 1.8 1.3v.1c-3.5 0-5.7 1.2-5.7 3.7 0 1.6 1.2 3 3.2 3 1.2 0 2.2-.4 2.8-1.2h.1l.2 1h2.7c-.1-.5-.2-1.4-.2-2.4v-3.4zm-2.9 2.2c0 .2 0 .4-.1.5-.2.6-.8 1.1-1.6 1.1-.7 0-1.2-.4-1.2-1.2 0-1.2 1.2-1.5 2.8-1.5v1.1z"/><path id="XMLID_11_" class="st0" d="M206.7 471.6h3v-4.9c0-.3 0-.5.1-.7.2-1 1-1.5 2.1-1.5.3 0 .6 0 .8.1v-2.9c-.2 0-.4-.1-.6-.1-1 0-2.1.6-2.6 2h-.1l-.1-1.8h-2.6c.1.8.1 1.8.1 3.2v6.6z"/></g><g id="XMLID_2_" transform="matrix(.24 0 0 .24 -2.941 5.657)"><path id="XMLID_9_" class="st0" d="M275.8 400.4H274v5.9c0 .3-.1.7-.2.9-.3.8-1.1 1.6-2.3 1.6-1.6 0-2.2-1.3-2.2-3.1v-5.3h-1.8v5.7c0 3.4 1.8 4.2 3.3 4.2 1.7 0 2.8-1 3.2-1.8l.1 1.6h1.6c-.1-.8-.1-1.6-.1-2.7v-7z"/><path id="XMLID_6_" class="st0" d="M277.7 407.6c0 .9 0 1.8-.1 2.5h1.5l.1-1.6c.7 1.3 1.8 1.8 3.2 1.8 2.2 0 4.4-1.7 4.4-5.2 0-2.9-1.7-4.9-4.1-4.9-1.6 0-2.7.7-3.3 1.8v-6.1h-1.8v11.7zm1.8-3.1c0-.3 0-.5.1-.7.3-1.3 1.5-2.2 2.7-2.2 1.9 0 2.9 1.7 2.9 3.6 0 2.2-1.1 3.7-2.9 3.7-1.3 0-2.3-.8-2.6-2.1 0-.2-.1-.4-.1-.6v-1.7z"/><path id="XMLID_3_" class="st0" d="M295.9 405.6c0-.2.1-.5.1-.8 0-1.8-.8-4.6-4-4.6-2.8 0-4.6 2.3-4.6 5.2 0 2.9 1.8 4.9 4.8 4.9 1.5 0 2.6-.3 3.2-.6l-.3-1.3c-.6.3-1.4.5-2.7.5-1.8 0-3.3-1-3.3-3.3h6.8zm-6.8-1.3c.1-1.2.9-2.9 2.7-2.9 2 0 2.4 1.7 2.4 2.9h-5.1z"/></g></g></svg>