<svg xmlns="http://www.w3.org/2000/svg" viewBox="0 0 200 200"><path fill="#F8F2E5" d="M0 0h200v200H0z"/><path d="M50.856 116.765a94.582 94.582 0 0 0 5.691 6.382c-6.077 1.828-10.061 5.224-12.546 8.222-3.932 4.745-6.013 11.013-5.535 16.392H28c2.099-4.554 10.477-17.712 22.856-30.996zm121.228 33.85h-12.725c-29.191-15.233-54.82-25.974-82.045-28.321.058-3.788.732-8.078 2.03-12.857l-2.508-.675c-1.332 4.912-2.03 9.357-2.11 13.336-2.837-.19-5.691-.283-8.574-.283-2.439 0-4.664.225-6.694.617-2.646-2.641-4.901-5.166-6.815-7.558 12.557-13.077 33.239-24.908 51.239-29.359 5.068 16.847 15.948 28.39 29.151 36.156.968-.553 1.92-1.13 2.854-1.741l23.034 24.798 1.009-.087c6.29-.542 9.865 2.872 10.811 3.932.697.774 1.112 1.483 1.343 2.042z" fill="#D1A41A"/><path d="M160.847 67.67c.467 22.884-11.208 41.098-27.554 50.438-27.744-13.82-32.968-48.841-28.24-67.625 1.314 7.184 3.707 11.687 8.873 13.896 11.266-3.223 26.77-3.477 38.192-.329 4.757-3.459 6.602-8.746 7.611-13.365 1.256 5.374 1.112 16.985 1.118 16.985z" fill="#FFDC76"/><path d="M91.059 89.337l4.233 12.543-12.857-8.623zm-12.387 5.488l4.547 7.839-9.564-4.86zm-10.348 6.114l2.195 7.84-6.585-4.547zm70.086 21.011l-4.077 6.272 7.212-3.293zm6.428 7.212l-6.585 5.018 9.094-2.352zm-15.993-68.048l4.861 10.662 3.136-10.818zm-24.616 15.522l7.683 4.077-6.899.471zm1.882 8.311l4.703 1.881-3.919 1.098zm54.877-5.331l-6.272 2.666 5.174.783zm-2.509 7.682l-4.86 1.412 3.919 1.411z"/><path d="M101.705 99.066h15.132v1.868h-15.132zm0-4.484h15.132v1.868h-15.132zm46.206 4.484h15.131v1.868h-15.131zm0-4.484h15.131v1.868h-15.131zm-5.334-11.075h-24.659v-1.681h7.674c.945-4.046 1.132-7.913-.008-9.874-.486-.833-1.159-1.223-2.118-1.223-4.387 0-6.2 4.64-6.275 4.837l.001-.001-1.574-.591c.09-.242 2.286-5.926 7.848-5.926 1.552 0 2.787.713 3.57 2.059 1.39 2.387 1.226 6.518.285 10.719h13.465c1.789-5.256 5.524-7.734 11.765-7.734v1.681c-6.764 0-8.659 2.868-10.013 6.053h7.347l-.017 1.673-7.291.008zm1.106 8.303l.011-.002c-1.994-2.941-2.626-5.451-1.792-8.31l-1.713.008c-.597 1.903-.358 4.77 1.112 7.23h-17.109c1.041-2.085 2.006-4.627 2.711-7.23h-1.742c-.777 2.76-1.869 5.491-3.097 7.655l-.398.699 9.601 6.044-5.405 3.562.926 1.404 6.042-3.983 6.522 4.256.896-1.423-6.047-3.741s9.041-5.873 9.491-6.16l-.009-.009zm-10.874 5.079l-7.102-4.471 13.879.003-6.777 4.468z"/><g><path d="M163.668 65.643c-.011-2.923-.921-15.279-2.595-18.681-4.537 1.724-12.794 7.311-14.662 13.023-8.955-1.337-19.051-1.179-27.895.351-1.477-6.146-8.893-10.85-14.488-13.5-2.36 3.982-3.405 13.215-3.139 19.764l-.031.021c1.038 27.502 14.529 44.626 32.172 55.004 18.151-10.371 31.118-30.591 30.616-55.995l.022.013zm-15.103-5.302l.198.037-.198-.037zm-1.129-.195l.479.081-.479-.081zm13.409 7.481c.467 22.884-11.209 41.097-27.554 50.438-27.743-13.824-32.969-48.841-28.238-67.625 1.316 7.181 3.704 11.685 8.875 13.894 11.262-3.223 26.766-3.478 38.186-.328 4.759-3.461 6.605-8.746 7.613-13.365 1.259 5.375 1.114 16.984 1.118 16.986zm11.831 79.172c-2.849-3.187-8.431-4.696-13.092-4.584-3.308-3.938-22.488-24.136-22.488-24.136l-1.329 1.674 23.156 24.93 1.005-.086c6.292-.539 9.868 2.873 10.815 3.932.694.776 1.113 1.485 1.341 2.04h-12.728c-29.188-15.231-54.819-25.971-82.044-28.316.06-3.789.734-8.078 2.028-12.857l-2.504-.678c-1.33 4.913-2.031 9.361-2.111 13.338a129.548 129.548 0 0 0-8.572-.285 35.03 35.03 0 0 0-6.696.621c-2.646-2.645-4.901-5.165-6.817-7.558 12.648-13.174 33.527-25.079 51.622-29.458l-.585-2.535c-19.483 4.698-40.809 17.49-52.693 29.844-5.515-7.444-7.703-13.552-8.353-18.18-.821-5.846.575-11.209 4.035-15.509 5.418-6.731 13.116-7.205 21.031-5.874-.155 1.25.01 2.445.51 3.184 2.093 3.092 13.344 4.178 20.059 1.182-4.956-6.945-14.994-10.335-17.776-8.977-.921.45-1.617 1.276-2.093 2.24-2.736-.489-5.453-.854-7.439-.839-6.981.051-12.317 2.49-16.314 7.456-3.922 4.872-5.507 10.923-4.584 17.497.874 6.227 3.957 12.849 9.124 19.717-.858.921-1.688 1.83-2.486 2.723-12.594 14.092-21.8 29.203-21.8 31.707v1.297h16.614l-.291-1.538c-.938-4.959.936-11.157 4.774-15.789 2.41-2.908 6.4-6.227 12.666-7.759 5.571 5.437 12.67 11.212 20.571 16.783H91.58v-1.297c0-1.464-.726-2.745-2.044-3.607-1.95-1.275-4.961-1.451-7.727-.508-2.637-2.936-4.115-6.859-4.434-11.731 26.795 2.373 52.425 13.193 81.345 28.301h15.912l.208-1.043c.297-1.486-.512-3.475-2.164-5.322zM43.999 131.326c-3.93 4.743-6.013 11.009-5.536 16.388H27.997c2.103-4.551 10.48-17.707 22.857-30.996a93.838 93.838 0 0 0 5.692 6.384c-6.077 1.827-10.061 5.224-12.547 8.224z"/></g></svg>