<svg xmlns="http://www.w3.org/2000/svg" viewBox="0 0 1000 1000"><path d="M217.5 604.3s338.6 37.9 471.6 108.1c133 70.2 250.9 79.3 129.7-12.7-121.3-92-405.4-194.9-601.3-95.4z"/><path d="M740.8 279c-158.1-65.3-349.7-48.5-440.8-25.1C208.8 277.2 19.8 355 10.5 453.7 5.3 509 38.8 548.4 88.2 576.2c-1-3.1-1.8-6.1-2.8-9.1L79.7 549l16-10.5c29.2-19.1 78.2-46.2 145.8-67.3 65.9-20.6 135.1-31.1 205.6-31.1 1.6 0 3.2 0 4.9.1l14.6-12.6-77.7-6.9 3.5-21.5 134.4 15.6-31.7 27c16.8 1.1 33.8 2.9 50.6 5.2 7.8-7 18.3-13.3 32.7-18.2 29.5-10.1 71 3.8 89.5 38.2 1.7 3.2 3.2 6.5 4.4 9.8 11.4 4 22.7 8.4 33.7 13.2 6.8-7.3 19.5-16.6 35.6-16.4 18 .2 38 13.1 46.9 22.8 8.2 9.1 22.5 30.6 24.7 55.5 2.8 2.2 5.6 4.2 8.3 6.4 49.7 39.6 72.4 74.4 73.3 76l6.2 9.6-3.1 10.9c-.8 2.5-1.7 5.4-3.6 9 35.5-20.3 79.5-55.1 92.8-107.9 23.1-93-88.1-211.8-246.3-276.9z"/><path d="M809.9 581.3c-5.6 16.5-18.2 28.4-40.6 29-31.9.9-58-28.5-70.1-52.3-7.7-15-8-31.8-4.6-45.5-5.7-2.4-11.5-4.7-17.5-7-.8 23.3-13.2 44.3-37.5 50.9-37.7 10.1-76.9-6.7-97.3-31.6-9.9-12.1-18.2-33.7-11.8-54.4-21.6-2.6-42.7-4.1-63.2-4.7l-48.1 40.8 85.8 9.3-4.6 22-143.9-14.5 66.2-57.5c-137.2 5-246.6 50.4-313.2 93.9 0 0 21.8 68.7 20.1 82.9 0 0 6-4.2 38.3-14.7l-5.7-23.4 44.1-22.4c56.7-28.8 123.4-43.5 198.1-43.5 167.3 0 340 73.1 429.6 141.2 3.5 2.6 6.7 5.2 9.9 7.8 12.9-13.2 26.6-29 29.8-39.7-.3-.2-19.7-30.7-63.8-66.6z"/><path d="M645.6 513.1c-7.6 16.9-28.9 29.1-56.5 17.4-27.6-11.8-31.7-39.4-26.8-53 4.5-12.4 16.5-21.9 26.5-25.2 10-3.3 34.3-1.7 46.5 12s17.9 31.8 10.3 48.8zM778.8 578.9c-15 14.1-40.2 1.9-50.6-14.6-10.5-16.5-9.8-36-5.4-47.6 0 0 10.7-21.3 31.3-17.4 20.6 3.9 31.1 24.2 33.9 35.7 2.8 11.7 5.8 29.9-9.2 43.9z"/></svg>