<svg id="图层_1" xmlns="http://www.w3.org/2000/svg" viewBox="0 0 20 20"><style>.st0{fill-rule:evenodd;clip-rule:evenodd;fill:#272536}</style><path class="st0" d="M17.7.1H9.1c-.8 0-1.4.6-1.4 1.4v.2H6.3c-.6 0-1.1.3-1.3.8H2.3c-.8 0-1.4.6-1.4 1.4v14.6c0 .8.6 1.4 1.4 1.4h12.2c.8 0 1.4-.6 1.4-1.4v-1.1h1.7c.8 0 1.4-.6 1.4-1.4V1.4c.1-.7-.6-1.3-1.3-1.3zM6.3 2.6h4.3c.2 0 .4.2.4.4s-.2.4-.4.4H6.3c-.3.1-.5-.1-.5-.4 0-.2.2-.4.5-.4zm8.7 16c0 .3-.2.5-.5.5H2.3c-.3 0-.5-.2-.5-.5V3.9c0-.3.2-.5.5-.5H5c.2.6.7 1 1.3 1h4.3c.6 0 1.1-.4 1.3-.9h2.7c.3 0 .5.2.5.5v14.6H15zm3.1-2.5c0 .3-.2.5-.5.5h-1.7V3.9c0-.8-.6-1.4-1.4-1.4h-2.7c-.2-.5-.7-.9-1.3-.9h-2v-.2c.1-.2.3-.4.6-.4h8.6c.3 0 .5.2.5.5v14.6h-.1z"/><path class="st0" d="M12.4 6h-8c-.2 0-.4.3-.4.5 0 .3.2.5.4.5h8c.3 0 .5-.2.5-.5 0-.2-.2-.5-.5-.5zM12.4 8.7h-8c-.2 0-.4.2-.4.5s.2.5.5.5h8c.3 0 .5-.2.5-.5-.1-.3-.3-.5-.6-.5zM8.4 11.4h-4c-.3 0-.5.2-.5.5s.2.5.5.5h4c.3 0 .5-.2.5-.5s-.2-.5-.5-.5z"/></svg>