<svg id="图层_1" xmlns="http://www.w3.org/2000/svg" viewBox="0 0 20 20"><style>.st0{fill-rule:evenodd;clip-rule:evenodd;fill:#272536}</style><g id="XMLID_2_"><path id="XMLID_3_" class="st0" d="M6.5 16.4l.7-.7 2.2 2.2v-9h1v9l2.2-2.2.7.7-3.3 3.4-3.5-3.4zm6.6-2.3v-1h2.3c1.9 0 3.5-1.5 3.5-3.4 0-1.8-1.4-3.3-3.3-3.4l-1-.1-.1-1c-.3-2.3-2.2-4-4.5-4s-4.3 1.7-4.5 4l-.1 1-1 .1C2.5 6.4 1 7.9 1 9.7c0 1.9 1.6 3.4 3.5 3.4h2.3v1H4.5C2 14.1 0 12.1 0 9.7c0-1.1.4-2.2 1.2-3.1.8-.8 1.9-1.3 3-1.4h.2V5C4.8 2.3 7.2.2 10 .2s5.2 2.1 5.6 4.9v.2h.2c1.1.1 2.2.6 3 1.4.8.8 1.2 1.8 1.2 3 0 2.5-2 4.5-4.5 4.5l-2.4-.1z"/></g></svg>