<svg id="图层_1" xmlns="http://www.w3.org/2000/svg" viewBox="0 0 20 20"><style>.st0{fill:#56abe4}.st1{fill:#fff}</style><path id="XMLID_1_" class="st0" d="M9.6 19.9l-8-4.6c-.2-.1-.4-.4-.4-.7V5.4c0-.3.2-.6.4-.7l8-4.6c.2-.1.6-.1.8 0l8 4.6c.2.1.4.4.4.7v9.2c0 .3-.2.6-.4.7l-8 4.6c-.3.1-.6.1-.8 0z"/><path id="XMLID_4_" class="st1" d="M15 9.7h-4.3c-.2 0-.4-.2-.4-.4V5c0-.2.2-.4.4-.4H15c.2 0 .4.2.4.4v4.3c0 .3-.2.4-.4.4z"/><path id="XMLID_2_" class="st1" d="M15 15.4h-4.3c-.2 0-.4-.2-.4-.4v-4.3c0-.2.2-.4.4-.4H15c.2 0 .4.2.4.4V15c0 .2-.2.4-.4.4z"/><path id="XMLID_6_" class="st1" d="M9.4 15.4H5c-.2 0-.4-.2-.4-.4v-4.3c0-.2.2-.4.4-.4h4.3c.2 0 .4.2.4.4V15c.1.2-.1.4-.3.4z"/></svg>