<svg id="图层_1" xmlns="http://www.w3.org/2000/svg" viewBox="0 0 20 20"><style>.st0{fill-rule:evenodd;clip-rule:evenodd;fill:#272536}</style><path id="XMLID_2_" class="st0" d="M13.3 11.9l-2.9-3.1c-.2-.1-.3-.2-.5-.2s-.3.1-.5.2l-2.9 3.1c-.1.1-.1.3-.1.4 0 .3.3.5.6.5.2 0 .3-.1.5-.2l1.9-2v5.7c0 .3.2.5.6.5.3 0 .6-.2.6-.5v-5.7l1.9 2c.2.1.3.2.4.2.3 0 .6-.2.6-.5 0-.1 0-.3-.2-.4z"/><path id="XMLID_1_" class="st0" d="M16.8 7.5l-.2-.1-.1-.2c-1.1-2.6-3.7-4.4-6.6-4.4-2.9 0-5.5 1.8-6.6 4.4l.1.2-.2.1C1.3 8 0 9.7 0 11.5c0 2.4 2 4.3 4.5 4.3.4 0 .6-.3.6-.6s-.2-.6-.6-.6h-.2c-1.8 0-3.2-1.4-3.2-3.2 0-1.7 1.4-3.1 3.1-3.2C4.9 5.8 7.3 4 10 4c2.8 0 5.1 1.8 5.9 4.3.2 0 .5.1.7.1 1.3.4 2.2 1.6 2.2 3.1v.5c0 .3-.1.6-.3.9-.5 1.1-1.6 1.8-2.8 1.9h-.2c-.3 0-.6.2-.6.6 0 .3.3.6.6.6 2.5 0 4.5-1.9 4.5-4.3 0-2.1-1.3-3.7-3.2-4.2z"/></svg>