<svg id="图层_1" xmlns="http://www.w3.org/2000/svg" viewBox="0 0 20 20"><style>.st0{fill-rule:evenodd;clip-rule:evenodd;fill:#272536}</style><path class="st0" d="M10.9 1.5c.5 1.4 1.9 5.3 1.9 5.3h5.9c1.3 0 1.7.8.6 1.7-1.1.9-4.8 3.9-4.8 3.9s1.4 4.5 1.8 5.7c.4 1.2-.5 1.8-1.3 1.2-.8-.6-5.1-3.6-5.1-3.6s-4.1 2.9-5 3.6c-.9.7-1.6-.2-1.3-1.2.3-1 1.8-5.8 1.8-5.8S1.4 9.1.6 8.4c-.8-.7-.9-1.7.5-1.7h6.1s1.4-4 1.8-5.3c.5-1.3 1.5-1.3 1.9.1zm-.9 0S8 7 8 7.2c-.1.3-.4.5-.6.5H1.1s4.8 3.9 5 4.1c.3.2.4.5.3.8-.1.3-1.9 6-1.9 6s4.9-3.5 5.2-3.7c.2-.1.5-.1.7 0 .2.2 5.2 3.7 5.2 3.7s-1.8-5.7-1.9-6c-.1-.2 0-.5.2-.7.2-.1 5.1-4.1 5.1-4.1h-6.3c-.3 0-.5-.1-.6-.4C12 7.1 10 1.5 10 1.5z"/></svg>