<?xml version="1.0" encoding="utf-8"?>
<!-- Generator: Adobe Illustrator 17.0.0, SVG Export Plug-In . SVG Version: 6.00 Build 0)  -->
<!DOCTYPE svg PUBLIC "-//W3C//DTD SVG 1.1//EN" "http://www.w3.org/Graphics/SVG/1.1/DTD/svg11.dtd">
<svg version="1.1" id="图层_1" xmlns="http://www.w3.org/2000/svg" xmlns:xlink="http://www.w3.org/1999/xlink" x="0px" y="0px"
	 width="16px" height="16px" viewBox="0 0 16 16" enable-background="new 0 0 16 16" xml:space="preserve">
<g>
	
		<rect x="1.531" y="2.501" transform="matrix(0.6843 0.7292 -0.7292 0.6843 4.6276 -1.6869)" fill="#39A6FF" width="5.462" height="4"/>
	
		<rect x="9.193" y="9.156" transform="matrix(0.7292 -0.6843 0.6843 0.7292 -5.1033 10.878)" fill="#39A6FF" width="4" height="5.462"/>
</g>
<path fill="#999999" d="M11.89,7.546l3.552-3.374c0.709-0.709,0.709-1.859,0-2.568l-0.886-0.886
	c-0.696-0.696-1.821-0.711-2.535-0.032L8.552,3.979l-3.37-3.6L5.155,0.35C4.693-0.115,3.942-0.119,3.476,0.343l0,0l-2.53,2.53
	c-0.451,0.454-0.46,1.185-0.021,1.65l3.32,3.546l-3.139,2.982c-0.257,0.244-0.436,0.557-0.517,0.902l-0.53,2.266
	c-0.151,0.646,0.25,1.292,0.896,1.444c0.202,0.047,0.413,0.041,0.612-0.017l2.184-0.643c0.276-0.082,0.529-0.227,0.738-0.425
	l3.095-2.94l3.728,3.982l0.028,0.029c0.461,0.466,1.213,0.469,1.678,0.008l0,0l2.53-2.53c0.451-0.454,0.46-1.185,0.021-1.65
	C15.568,11.475,11.89,7.546,11.89,7.546z M4.333,13.155L2.638,11.46c-0.053-0.052-0.116-0.093-0.184-0.122l8.414-7.993l1.772,1.772
	c0.027,0.027,0.06,0.039,0.089,0.06L4.333,13.155z M12.957,1.361c0.26-0.246,0.67-0.241,0.923,0.012l0.91,0.91
	c0.259,0.259,0.259,0.678-0.012,0.948l-1.212,1.151c-0.024-0.039-0.042-0.08-0.076-0.115l-1.751-1.751L12.957,1.361z M3.139,5.249
	L1.604,3.608c-0.01-0.01-0.01-0.02-0.007-0.022l2.6-2.6c0.002-0.003,0.012-0.003,0.023,0.007l3.469,3.706L5.009,7.246L3.742,5.894
	L3.139,5.249z M10.235,12.767L8.7,11.126c-0.01-0.01-0.01-0.02-0.007-0.022l2.6-2.6c0.002-0.003,0.012-0.003,0.023,0.007
	l3.469,3.706l-2.679,2.547l-1.266-1.353L10.235,12.767z M1.054,14.698c-0.015,0.005-0.033-0.004-0.038-0.021
	c-0.002-0.005-0.002-0.01,0-0.016l0.545-2.326c0.018-0.078,0.055-0.15,0.1-0.216c0.03,0.071,0.073,0.136,0.127,0.191l1.659,1.659
	c-0.047,0.029-0.098,0.051-0.15,0.067C3.298,14.038,1.054,14.698,1.054,14.698z"/>
</svg>
