<?xml version="1.0" encoding="utf-8"?>
<!-- Generator: Adobe Illustrator 19.0.0, SVG Export Plug-In . SVG Version: 6.00 Build 0)  -->
<svg version="1.1" id="图层_1" xmlns="http://www.w3.org/2000/svg" xmlns:xlink="http://www.w3.org/1999/xlink" x="0px" y="0px"
	 viewBox="0 0 20 20" style="enable-background:new 0 0 20 20;" xml:space="preserve">
<style type="text/css">
	.st0{fill-rule:evenodd;clip-rule:evenodd;fill:#272536;}
</style>
<g id="XMLID_2_">
	<path id="XMLID_3_" class="st0" d="M6.5,16.4l0.7-0.7l2.2,2.2v-9h1v9l2.2-2.2l0.7,0.7L10,19.8L6.5,16.4L6.5,16.4z M13.1,14.1v-1
		h2.3c1.9,0,3.5-1.5,3.5-3.4c0-1.8-1.4-3.3-3.3-3.4l-1-0.1l-0.1-1c-0.3-2.3-2.2-4-4.5-4c-2.3,0-4.3,1.7-4.5,4l-0.1,1l-1,0.1
		C2.5,6.4,1,7.9,1,9.7c0,1.9,1.6,3.4,3.5,3.4h2.3v1H4.5C2,14.1,0,12.1,0,9.7c0-1.1,0.4-2.2,1.2-3.1c0.8-0.8,1.9-1.3,3-1.4l0.2,0
		l0-0.2C4.8,2.3,7.2,0.2,10,0.2c2.8,0,5.2,2.1,5.6,4.9l0,0.2l0.2,0c1.1,0.1,2.2,0.6,3,1.4C19.6,7.5,20,8.5,20,9.7
		c0,2.5-2,4.5-4.5,4.5L13.1,14.1L13.1,14.1L13.1,14.1z"/>
</g>
</svg>
