<?xml version="1.0" encoding="utf-8"?>
<!-- Generator: Adobe Illustrator 19.0.0, SVG Export Plug-In . SVG Version: 6.00 Build 0)  -->
<svg version="1.1" id="图层_1" xmlns="http://www.w3.org/2000/svg" xmlns:xlink="http://www.w3.org/1999/xlink" x="0px" y="0px"
	 viewBox="0 0 20 20" style="enable-background:new 0 0 20 20;" xml:space="preserve">
<style type="text/css">
	.st0{fill:#56ABE4;}
	.st1{fill:#FFFFFF;}
</style>
<path id="XMLID_1_" class="st0" d="M9.6,19.9l-8-4.6c-0.2-0.1-0.4-0.4-0.4-0.7l0-9.2c0-0.3,0.2-0.6,0.4-0.7l8-4.6
	c0.2-0.1,0.6-0.1,0.8,0l8,4.6c0.2,0.1,0.4,0.4,0.4,0.7l0,9.2c0,0.3-0.2,0.6-0.4,0.7l-8,4.6C10.1,20,9.8,20,9.6,19.9z"/>
<path id="XMLID_4_" class="st1" d="M15,9.7h-4.3c-0.2,0-0.4-0.2-0.4-0.4V5c0-0.2,0.2-0.4,0.4-0.4H15c0.2,0,0.4,0.2,0.4,0.4v4.3
	C15.4,9.6,15.2,9.7,15,9.7z"/>
<path id="XMLID_2_" class="st1" d="M15,15.4h-4.3c-0.2,0-0.4-0.2-0.4-0.4v-4.3c0-0.2,0.2-0.4,0.4-0.4H15c0.2,0,0.4,0.2,0.4,0.4V15
	C15.4,15.2,15.2,15.4,15,15.4z"/>
<path id="XMLID_6_" class="st1" d="M9.4,15.4H5c-0.2,0-0.4-0.2-0.4-0.4v-4.3c0-0.2,0.2-0.4,0.4-0.4h4.3c0.2,0,0.4,0.2,0.4,0.4V15
	C9.8,15.2,9.6,15.4,9.4,15.4z"/>
</svg>
