<svg id="图层_1" xmlns="http://www.w3.org/2000/svg" viewBox="0 0 40 40"><style>.st0{fill:#2ca2f3}.st1{fill:#e8f5fd}.st2{fill:#c8e8fc}</style><g id="XMLID_33_"><path id="XMLID_72_" class="st0" d="M15.8 3.2h-14c-.5 0-1 .4-1 1v14c0 .6.5 1 1 1h14c.5 0 1-.4 1-1v-14c0-.5-.5-1-1-1z"/><path id="XMLID_71_" class="st1" d="M2.8 5.2h12v12h-12z"/><path id="XMLID_67_" class="st0" d="M15.8 23.2h-14c-.5 0-1 .5-1 1v14c0 .6.5 1 1 1h14c.5 0 1-.4 1-1v-14c0-.5-.5-1-1-1z"/><path id="XMLID_66_" class="st1" d="M2.8 25.2h12v12h-12z"/><path id="XMLID_62_" class="st0" d="M35.8 23.2h-14c-.5 0-1 .5-1 1v14c0 .6.5 1 1 1h14c.5 0 1-.4 1-1v-14c0-.5-.5-1-1-1z"/><path id="XMLID_59_" class="st1" d="M22.8 25.2h12v12h-12z"/><path id="XMLID_53_" class="st0" d="M39.4 11l-9.9-9.9c-.4-.4-1-.4-1.4 0l-10 9.9c-.4.4-.4 1 0 1.4l9.9 9.9c.4.4 1 .4 1.4 0l9.9-9.9c.5-.4.5-1.1.1-1.4z"/><path id="XMLID_52_" transform="rotate(45.001 28.796 11.603)" class="st2" d="M22.8 5.6h12v12h-12z"/></g></svg>