<svg id="图层_1" xmlns="http://www.w3.org/2000/svg" viewBox="-733 735 32 32"><style>.st0{fill:#999}</style><path class="st0" d="M-715.6 756.6v5c0 .8-.6 1.4-1.4 1.4s-1.4-.6-1.4-1.4v-5c-1.1-.6-1.8-1.7-1.8-3 0-1.8 1.4-3.3 3.2-3.3s3.2 1.5 3.2 3.3c0 1.3-.7 2.4-1.8 3zm-7.5-12.4c0-3.5 2.7-6.4 6.1-6.4s6.1 2.9 6.1 6.4v2.2h-12.2v-2.2zm14.9 2.2v-2.2c0-5.1-3.9-9.2-8.8-9.2-4.8 0-8.8 4.1-8.8 9.2v2.2h-.1c-1.7 0-3.1 1.5-3.1 3.3v14c0 1.8 1.4 3.3 3.1 3.3h17.7c1.7 0 3.1-1.5 3.1-3.3v-14c.1-1.9-1.3-3.3-3.1-3.3z"/></svg>