<svg id="图层_1" xmlns="http://www.w3.org/2000/svg" viewBox="-105 106 32 32"><style>.st0{fill:#999}</style><path class="st0" d="M-96.2 130h-6.4c-1.3 0-2.4-1.1-2.4-2.4v-19.2c0-1.3 1.1-2.4 2.4-2.4h22.4c1.3 0 2.4 1.1 2.4 2.4v11.2c0 .4-.4.8-.8.8s-.8-.4-.8-.8v-11.2c0-.4-.4-.8-.8-.8h-22.4c-.4 0-.8.4-.8.8v19.2c0 .4.4.8.8.8h6.4c.4 0 .8.4.8.8s-.4.8-.8.8z"/><path class="st0" d="M-84.2 138c-.3 0-.6-.2-.7-.5l-2.7-6.8-4.7 5.4c-.2.3-.6.3-.9.2-.3-.1-.5-.4-.5-.7v-24c0-.3.2-.6.5-.7.3-.1.6-.1.9.1l17.6 16c.2.2.3.6.2.9-.1.3-.4.5-.7.5H-82l2.8 6.9c.2.4 0 .9-.4 1l-4 1.6c-.4.1-.5.1-.6.1zm-3.2-9.6h.1c.3 0 .5.2.6.5l2.9 7.3 2.5-1-2.9-7.3c-.1-.2-.1-.5.1-.7.1-.2.4-.4.7-.4h5.9l-14.7-13.4v20.1l4.2-4.8c.2-.2.4-.3.6-.3z"/></svg>