<svg id="图层_1" xmlns="http://www.w3.org/2000/svg" viewBox="-725 735 32 32"><style>.st0{fill:#999}</style><path id="XMLID_26_" class="st0" d="M-718.5 764.3c-.3 0-.7-.1-1.2-.6-.4-.4-2.5-2.3-3.7-3.4l-.8-.8c-.4-.2-.8-.7-.8-1.4 0-.2.1-.6.5-.8.4-.2 1.7-1.3 2-1.5.6-.5 1.4-.5 2 .1.2.2 1.1 1 2.2 1.9 1.3 1.1 2.6 2.3 2.9 2.6.4.4.5.8.5 1s-.2.7-.6 1c-.5.4-1.3 1-1.8 1.4l-.2.2c-.4.2-.7.3-1 .3zm-3-7.8c-.1 0-.2.1-.3.1-.3.2-1.7 1.3-2.1 1.6-.1.1.1.3.3.6l.8.8c1.2 1.1 3.3 3.1 3.7 3.4.2.2.5.3.8.1l.2-.2c.5-.4 1.3-1 1.8-1.4.2-.1.2-.2.2-.2s0-.1-.2-.2c-.2-.2-1.6-1.4-2.9-2.6-1-.9-1.9-1.7-2.2-1.9.2-.1 0-.1-.1-.1zm7 4.5c-.2 0-.2-.1-.3-.2l-5.1-4.5-.2-.2-.2-.5c-.1-.2 0-.4.2-.6.2-.2 3.7-3.4 6.2-3.5 1.8-.1 6.3.2 9.1.2 1 .1 1.7.1 2.1.1 1.2.1 1.8.7 1.8 1.4 0 .6-.4 1.2-1.4 1.3-.8.1-2.2.2-3.7.3-1.2.1-2.6.2-2.9.2l-.1.1c.1 0 .4.2 1.1.2 1.3.1 4.9.5 6.1.3.6-.1 2.5-1.4 3.6-2.3.6-.5 1.2-.9 1.6-1.1.4-.2 1-.5 1.8-.5s1.3.2 1.6.7c.4.6-.6 1.7-1 2-4.4 3.6-7.1 5.4-8.5 5.7-1 .2-3.4.1-5.3-.1-1-.1-2.1-.1-2.7-.1h-.6c-1 .2-2.2.9-2.2.9-.1.1-.2.1-.2.1l-.8.1c.1 0 .1 0 0 0zm-4.6-5.4l4.9 4.3h.3c.3-.2 1.4-.7 2.3-.9h.1c.5-.1 1.9-.1 3.6.1 1.9.1 4.2.2 5.2.1.7-.1 2.6-1 7.9-5.3.4-.3.6-.6.7-.8-.4-.3-1.4-.1-1.8.2-.3.2-.9.6-1.4 1-1.8 1.4-3.2 2.4-4.1 2.5-1.3.2-5.1-.2-6.4-.3-.5-.1-2-.2-2.1-1.2-.1-.6.5-1 .9-1.2.2-.1 1-.2 3.1-.2 1.4-.1 2.9-.2 3.6-.3.4-.1.5-.2.5-.2s-.2-.3-.8-.3c-.4 0-1.1-.1-2.1-.1-2.7-.2-7.2-.4-9-.2-1.8-.2-4.3 1.8-5.4 2.8z"/><g id="XMLID_6_"><g id="XMLID_45_"><path id="XMLID_46_" class="st0" d="M-699.9 737.7h-14.8c-.7 0-1.2.5-1.2 1.2v8.4c0 .7.5 1.2 1.2 1.2h14.8c.7 0 1.2-.5 1.2-1.2v-8.4c0-.7-.5-1.2-1.2-1.2zm0 8.4c0 .7-.5 1.2-1.2 1.2h-12.5c-.7 0-1.2-.5-1.2-1.2V740c0-.7.5-1.2 1.2-1.2h12.5c.7 0 1.2.5 1.2 1.2v6.1z"/></g></g><path id="XMLID_5_" class="st0" d="M-714.8 740.2h14.7c.4 0 .6.3.6.6 0 .4-.3.6-.6.6h-14.7c-.4 0-.6-.3-.6-.6-.1-.3.2-.6.6-.6z"/><path id="XMLID_4_" class="st0" d="M-713.4 742.5h9v1.1h-9z"/><path id="XMLID_3_" class="st0" d="M-713.4 744.7h4.9v1.1h-4.9z"/></svg>