<svg id="图层_1" xmlns="http://www.w3.org/2000/svg" viewBox="0 0 40 40"><style>.st0{fill:#2ca2f3}.st1{fill:#e8f5fd}</style><g id="XMLID_37_"><path id="XMLID_34_" class="st0" d="M38 12H2c-1.1 0-2-.9-2-2V3c0-1.1.9-2 2-2h36c1.1 0 2 .9 2 2v7c0 1.1-.9 2-2 2z"/><path id="XMLID_35_" class="st1" d="M2 2.8h36v7.3H2z"/><path id="XMLID_36_" class="st0" d="M7.7 3.8h2.1v5.5H7.7z"/></g><g id="XMLID_39_"><path id="XMLID_63_" class="st0" d="M38 25H2c-1.1 0-2-.9-2-2v-7c0-1.1.9-2 2-2h36c1.1 0 2 .9 2 2v7c0 1.1-.9 2-2 2z"/><path id="XMLID_56_" class="st1" d="M2 15.8h36v7.3H2z"/><path id="XMLID_45_" class="st0" d="M7.7 16.8h2.1v5.5H7.7z"/></g><g id="XMLID_65_"><path id="XMLID_74_" class="st0" d="M38 38H2c-1.1 0-2-.9-2-2v-7c0-1.1.9-2 2-2h36c1.1 0 2 .9 2 2v7c0 1.1-.9 2-2 2z"/><path id="XMLID_69_" class="st1" d="M2 28.8h36v7.3H2z"/><path id="XMLID_68_" class="st0" d="M7.7 29.8h2.1v5.5H7.7z"/></g></svg>