<svg id="图层_1" xmlns="http://www.w3.org/2000/svg" viewBox="-39 41 40 40"><style>.st0{fill:#1ecd40}</style><path class="st0" d="M-116.2 2068.4h-740.4c-26.8 0-48.2-21.4-48.2-48.2v-514.8c0-26.8 21.6-48.4 48.2-48.4h80.4v-112.6c.2-160 129.8-289.6 289.8-289.6s289.8 129.6 289.8 289.8v112.6h80.6c26.6 0 48.2 21.6 48.2 48.4v515c-.2 26.4-21.8 47.8-48.4 47.8m-418.4-286.8v93.8c0 26.6 21.6 48.4 48.2 48.4 26.8 0 48.4-21.6 48.4-48.4v-93.8c28.6-16.6 48.2-47.4 48.2-83.2 0-53.4-43.2-96.6-96.6-96.6-53.2 0-96.4 43.2-96.4 96.6-.2 35.8 19.4 66.6 48.2 83.2m241.2-437.2c0-106.8-86.4-193.2-193.2-193.2-106.6 0-193 86.4-193 193.2V1457h386.2v-112.6z" transform="scale(.03906)"/></svg>