<svg width="40" height="40" viewBox="0 0 40 40" xmlns="http://www.w3.org/2000/svg"><defs><style>@font-face{font-family:ifont;src:url(http://at.alicdn.com/t/font_1442373896_4754455.eot?#iefix) format(embedded-opentype),url(http://at.alicdn.com/t/font_1442373896_4754455.woff) format(woff),url(http://at.alicdn.com/t/font_1442373896_4754455.ttf) format(truetype),url(http://at.alicdn.com/t/font_1442373896_4754455.svg#ifont) format(svg)}</style></defs><path d="M20 37.423c-9.606 0-17.423-7.815-17.423-17.423 0-9.606 7.817-17.423 17.423-17.423 9.608 0 17.423 7.815 17.423 17.423S29.608 37.423 20 37.423zm0-32.346C11.771 5.077 5.077 11.771 5.077 20c0 8.228 6.694 14.923 14.923 14.923 8.228 0 14.923-6.694 14.923-14.923S28.228 5.077 20 5.077zm-1.875 6.798a1.875 1.875 0 1 0 3.75 0 1.875 1.875 0 0 0-3.75 0zM20 30a1.25 1.25 0 0 1-1.25-1.25V17.5a1.25 1.25 0 0 1 2.5 0v11.25c0 .691-.56 1.25-1.25 1.25z" fill="#272636" class="transform-group"/></svg>