<svg id="图层_1" xmlns="http://www.w3.org/2000/svg" viewBox="-281 404.9 32 32"><style>.st0{fill:#999}</style><path class="st0" d="M-249 423.1c0 .3-.1.6-.4.9s-.6.4-.9.4h-4.5c0 2.3-.4 4.2-1.4 5.8l4.2 4.2c.3.3.4.5.4.9s-.1.6-.4.9-.6.4-.9.4c-.3 0-.6-.1-.9-.4l-4-4c-.1.1-.2.1-.3.3s-.4.3-.9.6c-.4.3-.9.5-1.3.7-.5.2-1 .4-1.6.6-.7.2-1.3.3-2 .3v-17.9h-2.5v17.9c-.7 0-1.4-.1-2-.3-.7-.2-1.3-.4-1.8-.6-.5-.3-.9-.5-1.3-.8s-.7-.5-.9-.6l-.3-.3-3.7 4.1c-.3.3-.6.4-.9.4-.3 0-.6-.1-.9-.3-.3-.3-.4-.5-.4-.9s.1-.7.3-.9l4-4.5c-.8-1.5-1.2-3.4-1.2-5.5h-4.5c-.4 0-.6-.1-.9-.4s-.4-.6-.4-.9c0-.4.1-.7.4-.9s.5-.4.9-.4h4.5V416l-3.5-3.4c-.3-.3-.4-.6-.4-.9 0-.3.1-.6.4-.9s.6-.4.9-.4c.3 0 .6.1.9.4l3.4 3.5h16.9l3.5-3.5c.3-.3.6-.4.9-.4.4 0 .7.1.9.4s.4.6.4.9c0 .4-.1.7-.4.9l-3.4 3.4v5.9h4.5c.3 0 .6.1.9.4.5.2.6.5.6.8zm-9.6-11.5h-12.8c0-1.8.6-3.3 1.9-4.5s2.8-1.9 4.5-1.9 3.3.6 4.5 1.9c1.3 1.2 1.9 2.7 1.9 4.5z"/></svg>