<svg class="icon" viewBox="0 0 1333 1024" xmlns="http://www.w3.org/2000/svg" width="260.352" height="200"><defs><style><![CDATA[

]]></style></defs><path d="M266.106 803.292c.016-.017.033-.033.049-.033 4.08 6.47 11.816 10.549 20.154 10.549 12.24 0 21.862-9.931 21.862-22.187 0-4.323-1.187-8.354-3.284-11.767.017-.016.033-.016.05-.033-28.217-54.125-44.162-115.515-44.162-180.53 0-217.393 178.287-394.283 397.452-394.283 111.598 0 212.599 45.868 284.863 119.595 69.647 71.061 112.59 167.982 112.59 274.688 0 60.285-13.702 117.466-38.197 168.616-1.853 3.137-2.942 6.746-2.942 10.565 0 12.288 11.167 22.235 23.324 22.235 7.9 0 14.921-3.998 18.887-10.158l.098.049c.179-.342.341-.7.52-1.057.455-.796.861-1.642 1.203-2.503 27.257-56.953 42.52-120.619 42.52-187.747 0-10.321-.358-20.545-1.073-30.687V68.964l92.662 79.92c9.216 7.932 23.21 6.973 31.24-2.194 8.013-9.151 7.054-23.048-2.162-30.996L1094.103 5.624a22.047 22.047 0 0 0-12.336-5.266 21.08 21.08 0 0 0-3.934-.358c-12.206 0-22.153 9.85-22.153 21.991v383.653C983.4 260.238 832.386 159.985 658.227 159.985c-244.18 0-442.849 197.077-442.849 439.306.016 73.58 18.35 143 50.728 204zM1326.337 873.492c-29.322-31.094-70.867-8.014-103.244 4.21-17.18 6.484-27.128 4.632-42.731-4.877-17.164-10.467-32.703-21.959-53.41-24.153-21.52-2.275-40.96 6.355-58.806 17.375-23.243 14.369-47.883 19.765-74.23 8.68-20.058-8.436-36.88-22.934-58.644-27.29-23.893-4.795-45.917 5.884-64.869 19.195-19.18 13.459-32.507 14.694-53.735 3.95-22.478-11.345-46.16-22.105-72.069-16.254-23.519 5.3-43.478 19.797-66.737 25.844-25.502 6.631-49.558-12.532-71.094-22.69-20.09-9.493-42.861-12.044-63.812-3.788-20.577 8.095-36.782 26.965-59.603 28.867-27.306 2.276-49.915-15.246-74.263-23.78-25.144-8.809-48.761-3.461-71.858 8.518-12.873 6.68-25.632 17.911-41.17 15.815-15.344-2.08-26.153-15.214-39.92-21.146-38.31-16.547-64.982 11.085-98.725 22.852-23.194 8.078-52.353-19.504-72.995-27.208-30.41-11.345-58.822-1.95-78.912 22.885-18.464 22.82 14.01 44.015 32.686 20.967 11.41-14.092 19.326-17.814 36.051-9.996 17.668 8.257 33.58 19.033 52.174 25.47 20.188 6.989 40.212 2.552 59.099-5.69 18.497-8.06 37.627-28.362 58.09-15.375 19.018 12.06 34.638 21.048 58.06 21.845 23.778.813 44.063-14.563 64.055-24.95 22.902-11.881 44.552 6.29 65.503 14.369 26.233 10.11 55.864 13.864 82.536 3.478 17.798-6.924 31.987-21.747 50.175-27.144 20.74-6.144 49.412 18.822 68.103 25.795 22.138 8.257 46.421 7.785 68.672.601 24.544-7.948 46.063-27.777 73.012-20.35 21.845 6.03 38.7 22.203 62.43 23.585 23.796 1.381 42.504-7.72 61.391-20.984 8.03-5.64 16.351-11.069 26.477-11.524 9.021-.406 18.87 7.33 26.185 11.606 23.568 13.783 47.689 22.365 75.206 22.82 16.985.276 32.361-3.722 47.786-10.338 12.743-5.46 23.178-15.23 36.213-20.122 21.667-8.127 41.447 13.783 59.196 22.886 23.763 12.19 46.73 10.58 71.03 1.397 11.556-4.372 22.77-9.508 34.473-13.523 4.438-1.528 9.167-2.925 13.849-3.283 5.818-.439 2.633-.861 5.72 2.406 20.383 21.65 53.004.617 32.655-20.951zM1148.65 986.894c-14.449 5.363-22.836 3.82-35.952-4.031-14.434-8.647-27.518-18.14-44.942-19.943-18.107-1.87-34.458 5.25-49.476 14.352-19.57 11.865-40.293 16.335-62.463 7.167-16.888-6.972-31.029-18.935-49.363-22.543-20.106-3.966-38.635 4.86-54.58 15.863-16.124 11.118-27.355 12.125-45.218 3.267-18.903-9.378-38.846-18.253-60.626-13.425-19.797 4.388-36.587 16.35-56.157 21.357-21.471 5.494-41.707-10.354-59.814-18.74-16.92-7.835-36.083-9.948-53.702-3.138-17.31 6.697-30.947 22.284-50.159 23.845-22.983 1.869-42-12.58-62.495-19.635-21.163-7.281-41.025-2.86-60.464 7.038-10.842 5.526-21.569 14.79-34.637 13.052-12.905-1.707-22.008-12.548-33.58-17.457-32.231-13.67-54.678 9.151-83.073 18.87-19.52 6.681-44.048-16.107-61.44-22.478-25.582-9.362-49.492-1.61-66.396 18.903-15.554 18.854 11.8 38.196 27.502 19.147 9.606-11.654 16.253-14.71 30.33-8.257 14.871 6.827 28.264 15.717 43.9 21.032 16.97 5.77 33.84 2.097 49.737-4.697 15.571-6.664 31.662-23.422 48.875-12.71 16.01 9.963 29.16 17.391 48.859 18.058 20.008.682 37.074-12.028 53.897-20.61 19.277-9.817 37.497 5.201 55.133 11.865 22.072 8.354 47.005 11.443 69.452 2.877 14.986-5.721 26.916-17.977 42.227-22.43 17.456-5.088 41.577 15.555 57.294 21.308 18.627 6.827 39.074 6.437 57.782.488 20.659-6.566 38.765-22.95 61.44-16.806 18.382 4.99 32.556 18.334 52.531 19.488 20.025 1.138 35.775-6.372 51.671-17.343 6.762-4.665 13.767-9.15 22.284-9.525 7.59-.34 15.88 6.047 22.024 9.574 19.83 11.394 40.13 18.48 63.292 18.854 14.303.228 27.241-3.072 40.211-8.533 10.728-4.502 19.521-12.58 30.476-16.611 18.22-6.713 34.88 11.377 49.818 18.903 19.992 10.077 39.301 8.744 59.765 1.154 9.72-3.609 19.163-7.85 29.013-11.183 3.738-1.251 7.704-2.405 11.654-2.714 4.892-.358 2.21-.715 4.81 1.983 17.18 17.863 44.617-1.333 27.502-19.147-24.738-25.648-59.7-6.6-86.941 3.51zM96.14 231.55c2.276-.682 22.187-6.127 29.648 10.663a42.14 42.14 0 0 0 1.43 6.778c1.121 3.754 4.616 6.193 8.42 6.193.812 0 1.641-.114 2.454-.358 4.648-1.333 7.314-6.111 5.949-10.663-5.445-18.285 14.205-26.217 16.497-27.062 4.519-1.658 6.827-6.583 5.152-11.036-1.674-4.438-6.712-6.697-11.263-5.071-7.477 2.714-18.09 9.215-24.17 19.472-12.808-9.493-29.906-8.29-39.431-5.3-4.584 1.447-7.103 6.242-5.656 10.76 1.446 4.503 6.355 7.039 10.97 5.625zM226.886 142.561c3.007-.91 29.256-8.175 39.09 14.222.358 2.91.959 5.917 1.885 9.054 1.48 5.006 6.08 8.257 11.085 8.257 1.073 0 2.162-.147 3.251-.472 6.128-1.771 9.639-8.143 7.834-14.222-7.184-24.364 18.725-34.945 21.732-36.083 5.965-2.21 9.004-8.793 6.794-14.71-2.21-5.948-8.859-8.972-14.84-6.794-9.866 3.609-23.844 12.288-31.857 25.958-16.888-12.662-39.432-11.053-51.98-7.07-6.062 1.917-9.378 8.337-7.476 14.351 1.934 6.014 8.403 9.379 14.482 7.51z"/><path d="M436.071 651.498c6.014 5.949 15.783 5.965 21.813-.016l20.414-20.252 20.415 20.252c6.014 5.949 15.782 5.981 21.796.016 6.014-5.965 6.014-15.652 0-21.634l-20.414-20.252 20.414-20.252c5.998-5.949 6.03-15.668 0-21.634-5.997-5.948-15.782-5.965-21.796.017l-20.415 20.252-20.414-20.252c-6.014-5.95-15.799-5.982-21.813-.017-6.014 5.95-6.014 15.653.016 21.634l20.415 20.252-20.415 20.252c-6.013 5.966-6.03 15.669-.016 21.634zM802.056 651.498c6.014 5.949 15.783 5.965 21.813-.016l20.415-20.252 20.414 20.252c6.014 5.949 15.783 5.981 21.813.016 5.997-5.965 6.014-15.652-.017-21.634l-20.414-20.252 20.414-20.252c5.998-5.949 6.03-15.668.017-21.634-6.014-5.948-15.783-5.965-21.813.017l-20.414 20.252-20.415-20.252c-6.014-5.95-15.799-5.982-21.813-.017-5.997 5.95-6.014 15.653.017 21.634l20.414 20.252-20.414 20.252c-5.998 5.966-6.03 15.669-.017 21.634z"/></svg>