<svg id="图层_1" xmlns="http://www.w3.org/2000/svg" viewBox="-249 404.9 32 32"><style>.st0{fill:#999}</style><path class="st0" d="M-220.8 408.1c-.2-.1-3.9-3.2-12.2-3.2-8.3 0-12 3.1-12.2 3.2-.2.2-.3.5-.3.8v15.9c0 2.3 1.1 4.4 3 5.7l8.9 6.2c.2.1.4.2.6.2s.4-.1.6-.2l8.9-6.2c1.9-1.3 3-3.5 3-5.7v-15.9c0-.3-.1-.6-.3-.8zm-1.7 16.7c0 1.6-.8 3.2-2.1 4.1l-8.4 5.8-8.4-5.8c-1.3-.9-2.1-2.5-2.1-4.1v-15.4c.4-.3 1.1-.7 2.2-1.1 2.9-1.1 6.1-1.4 8.3-1.4 3.9 0 6.6.8 8.3 1.4 1.1.4 1.8.9 2.2 1.1v15.4z"/><path class="st0" d="M-229.5 422.8c.9-1.1 1.5-2.4 1.5-3.9 0-3.3-2.7-6-6-6s-6 2.7-6 6 2.7 6 6 6c1.1 0 2.1-.3 3-.8l2.3 2.5c.2.2.5.3.7.3.2 0 .5-.1.7-.3.4-.4.4-1 .1-1.4-.1 0-2.3-2.4-2.3-2.4zm-8.5-3.9c0-2.2 1.8-4 4-4s4 1.8 4 4-1.8 4-4 4-4-1.8-4-4z"/></svg>