<svg xmlns="http://www.w3.org/2000/svg" width="14" height="14" viewBox="1 1 14 14"><g fill="#999"><path d="M4.506 3.635h6.988v.873H4.506v-.873zM4.483 5.39h6.988v.873H4.483V5.39zm0 1.747h1.792v.874H4.483v-.874zm0 1.747h.791v.874h-.791v-.874zM13.241 1H2.759a.874.874 0 0 0-.874.874v12.229c0 .482.391.873.873.873l4.086-.004v-.873l-4.086.004V1.874H13.24v5.765h.873V1.874A.871.871 0 0 0 13.241 1z"/><path d="M11.051 7.691c-.749 0-1.362.613-1.362 1.362 0 .477.272.953.681 1.157.204.136.409.204.681.204.272 0 .477-.068.681-.204.409-.204.681-.681.681-1.157a1.367 1.367 0 0 0-1.362-1.362zm.34 1.974c-.136.068-.204.136-.409.136-.136 0-.272-.068-.409-.136-.204-.136-.272-.34-.272-.545 0-.34.34-.681.681-.681.409 0 .681.34.681.681.069.205-.068.409-.272.545z"/><path d="M11.663 10.074l-.272-.409c-.136.068-.204.136-.409.136-.136 0-.272-.068-.409-.136l-.204.409-1.634 2.928h4.698l-1.77-2.928zm-.612.34l1.362 2.519H9.757l1.294-2.519z"/><path d="M13.434 12.934H8.668c-.409 0-.681.272-.681.681v.681c0 .409.272.681.681.681h4.766c.409 0 .681-.272.681-.681v-.681c0-.341-.341-.681-.681-.681zm0 1.361H8.668v-.681h4.766v.681z"/></g></svg>