<svg id="图层_1" xmlns="http://www.w3.org/2000/svg" viewBox="-279 281 40 40"><style>.st0{fill:#333}</style><path class="st0" d="M-277.4 293.3l17.8 10.3c.2.1.4.2.6.2.2 0 .4-.1.6-.2l17.7-10.2c.6-.3.8-1 .4-1.6-.1-.2-.3-.3-.4-.4l-17.6-10.2c-.2-.1-.4-.2-.6-.2-.2 0-.5.1-.6.2l-17.7 10.2c-.6.3-.8 1-.4 1.6 0 .1.1.2.2.3zm18.4-9.8l15.3 8.9-15.3 8.9-15.3-8.8 15.3-9z"/><path class="st0" d="M-240.7 300l-3.3-1.9-2.3 1.4 2.7 1.6-15.3 8.9-15.3-8.8 2.7-1.6-2.3-1.4-3.3 1.9c-.6.3-.8 1-.4 1.6l.3.3 17.8 10.3c.2.1.4.2.6.2.2 0 .4-.1.6-.2l17.7-10.2c.6-.3.8-1 .4-1.6-.3-.3-.5-.4-.6-.5z"/><path class="st0" d="M-240.7 308.6l-3.3-1.9-2.3 1.4 2.7 1.6-15.3 8.9-15.3-8.8 2.7-1.6-2.3-1.4-3.3 1.9c-.6.3-.8 1-.4 1.6l.3.3 17.8 10.3c.2.1.4.2.6.2.2 0 .4-.1.6-.2l17.7-10.2c.6-.3.8-1 .4-1.6-.3-.3-.5-.4-.6-.5z"/></svg>