<svg id="图层_1" xmlns="http://www.w3.org/2000/svg" viewBox="-105 106 32.9 32"><style>.st0{fill:#666}</style><path class="st0" d="M-88.2 109.3c-.5 0-.9.4-.9.9s.4.9.9.9h14.5c.5 0 .9-.4.9-.9s-.4-.9-.9-.9h-14.5zm-15 0c-.5 0-.9.4-1 .9 0 .5.4.9.9 1h4.1c.5 0 .9-.4 1-.9 0-.5-.4-.9-.9-1h-4.1z"/><path class="st0" d="M-94.9 114.4c2.3 0 4.2-1.9 4.2-4.2 0-2.3-1.9-4.2-4.2-4.2-2.3 0-4.2 1.9-4.2 4.2s1.9 4.2 4.2 4.2zm0-6.6c1.3 0 2.4 1.1 2.4 2.4s-1.1 2.4-2.4 2.4c-1.3 0-2.4-1.1-2.4-2.4-.1-1.3 1-2.4 2.4-2.4zm6.7 25c-.5 0-.9.4-.9.9s.4.9.9.9h14.5c.5 0 .9-.4.9-.9s-.4-.9-.9-.9h-14.5zm-15 0c-.5 0-.9.4-1 .9s.4.9.9 1h4.1c.5 0 .9-.4 1-.9 0-.5-.4-.9-.9-1h-4.1z"/><path class="st0" d="M-94.9 137.9c2.3 0 4.2-1.9 4.2-4.2s-1.9-4.2-4.2-4.2-4.2 1.9-4.2 4.2 1.9 4.2 4.2 4.2zm0-6.6c1.3 0 2.4 1.1 2.4 2.4s-1.1 2.4-2.4 2.4c-1.3 0-2.4-1.1-2.4-2.4-.1-1.3 1-2.4 2.4-2.4zm6.1-7.9c.5 0 .9-.4.9-.9s-.4-.9-.9-.9h-14.5c-.5 0-.9.4-.9.9s.4.9.9.9h14.5zm15 0c.5 0 .9-.4.9-1 0-.5-.4-.9-1-.9H-78c-.5 0-.9.4-.9 1 0 .5.4.9 1 .9h4.1z"/><path class="st0" d="M-81.8 124.9c-1.3 0-2.4-1.1-2.4-2.4s1.1-2.4 2.4-2.4c1.3 0 2.4 1.1 2.4 2.4.1 1.3-1 2.4-2.4 2.4zm0-6.6c-2.3 0-4.2 1.9-4.2 4.2 0 2.3 1.9 4.2 4.2 4.2 2.3 0 4.2-1.9 4.2-4.2 0-2.3-1.9-4.2-4.2-4.2z"/></svg>