<svg id="图层_1" xmlns="http://www.w3.org/2000/svg" viewBox="-249 404.9 32 32"><style>.st0{fill:#999}</style><path class="st0" d="M-225.6 414l-8.7 8.8-3.8-3.9c-.5-.5-1.2-.5-1.7 0s-.5 1.2 0 1.7l4.7 4.8c.1.1.2.1.2.2l.1.1c.2.1.3.1.5.1s.3 0 .4-.1l.1-.1c.1-.1.2-.1.3-.2l9.5-9.6c.5-.5.5-1.2 0-1.7-.4-.5-1.1-.5-1.6-.1z"/><path class="st0" d="M-219 413.5v-5.1c0-.5-.3-.9-.7-1-4.2-1.3-8.1-2-13.1-2.6h-.2c-2.6.1-5 .5-7.1 1-2.2.5-4.2 1-6.2 1.6-.4.1-.7.5-.7 1v4.6c-.1 12-.2 16.5 11.6 23.1 1 .5 1.7.8 2.5.8s1.5-.2 2.5-.7c11.6-6.4 11.6-10.2 11.4-22.7zm-12.5 20.8c-.6.3-1.1.5-1.5.5s-.8-.2-1.5-.5c-10.7-5.9-10.7-9.2-10.5-21.2v-3.8c1.7-.5 3.4-1 5.3-1.4 2-.5 4.3-.8 6.7-.9 4.6.5 8.1 1.2 11.9 2.3v4.3c.2 12.1.2 15-10.4 20.7z"/></svg>