<svg id="图层_1" xmlns="http://www.w3.org/2000/svg" viewBox="0 0 20 20"><style>.st0{fill:#9aa5af}</style><g id="XMLID_8_"><path id="XMLID_29_" class="st0" d="M18.1 12c-.1-.2-.3-.3-.5-.3H14c-.1 0-.2 0-.3.1-.1 0-.2.1-.2.2l-1.8 3.1c-.1.1-.1.3-.1.5 0 0 0 .1.1.1l1.7 3c.1.2.3.4.5.4h3.6c.2 0 .4-.1.6-.3l1.8-3.1c0-.1.1-.1.1-.2s0-.3-.1-.4L18.1 12zm-1 5.7h-2.6l-1.3-2.2 1.3-2.2h2.6l1.3 2.2-1.3 2.2z"/><path id="XMLID_28_" class="st0" d="M13.4 7.9c.1.2.3.4.5.4h3.7c.2 0 .4-.1.5-.3l1.8-3.1c0-.1.1-.1.1-.2v-.5l-1.8-3.1c-.1-.2-.3-.3-.5-.3H14c-.1 0-.2 0-.3.1-.1 0-.2.1-.2.2l-1.8 3.1c0 .1-.1.2-.1.3 0 .1 0 .2.1.3l1.7 3.1zm1.1-5.6h2.6l1.3 2.2-1.3 2.2h-2.6l-1.3-2.2 1.3-2.2z"/><path id="XMLID_27_" class="st0" d="M12 11.2V8.9c-.4 0-.8-.1-1.1-.3-1.1-.6-1.5-2-.8-3.1L8 4.3c-.2.3-.5.6-.8.8-1.1.6-2.5.3-3.1-.8L2 5.5c.2.3.3.7.3 1.1 0 1.2-1 2.3-2.3 2.3v2.3c.4 0 .8.1 1.1.3 1.1.6 1.5 2 .8 3.1l2 1.2c.2-.3.5-.6.8-.8 1.3-.7 2.7-.3 3.3.8l2-1.2c-.2-.3-.3-.7-.3-1.1 0-1.3 1-2.3 2.3-2.3zm-3.5.2c-.8 1.3-2.5 1.8-3.8 1s-1.8-2.5-1-3.8 2.5-1.8 3.8-1 1.7 2.5 1 3.8z"/></g></svg>