<svg id="图层_1" xmlns="http://www.w3.org/2000/svg" viewBox="-253 360.2 32 32"><style>.st0{fill:#999}</style><path class="st0" d="M-229.7 365.6c2 0 3.7 1.7 3.7 3.7s-1.7 3.7-3.7 3.7-3.7-1.7-3.7-3.7c0-2.1 1.7-3.7 3.7-3.7zm0 5.4c.9 0 1.7-.8 1.7-1.7 0-.9-.8-1.7-1.7-1.7-.9 0-1.7.8-1.7 1.7s.8 1.7 1.7 1.7z"/><path class="st0" d="M-240.7 364.5c2.5-2.5 4.3-4.3 7.5-4.3h5.1c6.2 0 7.2 2.3 7.2 7.4v5.4c0 2.9-.6 3.7-2.7 5.8l-12.6 12.3c-1.4 1.4-4.1 1.4-5.5 0l-10.1-9.9c-.7-.7-1.1-1.7-1.1-2.7 0-1.1.4-2 1.1-2.7l11.1-11.3zm.6 24.8c.2.2.6.4 1 .4s.8-.1 1-.4l12.6-12.3c1.9-1.9 2-2.1 2-4v-5.4c0-4.2-.3-4.9-4.7-4.9h-5.1c-2 0-3.2 1.1-5.7 3.6l-1 1-10.1 10.3c-.3.3-.4.6-.4 1s.1.7.4 1l10 9.7z"/></svg>