<svg id="图层_1" xmlns="http://www.w3.org/2000/svg" viewBox="-717 735 32 32"><style>.st0{fill:#999}</style><path class="st0" d="M-685 757h-7.3s-.2-.8-.7-1.5c-.7-1.1-2.1-2.3-3.7-2.7 1.1-1.9 2.4-3.1 4.9-3.1 4.5 0 6.4 2 6.6 5.8l.2 1.5zM-717 757v-1.5c.2-3.9 2.1-5.8 6.6-5.8 2.5 0 3.9 1.1 4.9 3.1-1.7.4-3 1.6-3.7 2.7-.5.7-.7 1.5-.7 1.5h-7.1zM-691.7 749.5c-1.1 0-2-.3-2.8-.9.5-1 .8-2.1.8-3.3 0-1.6-.5-3.1-1.4-4.2.9-.9 2.1-1.5 3.4-1.5 2.7 0 4.8 2.2 4.8 4.9s-2.1 5-4.8 5z"/><circle class="st0" cx="-701" cy="745.4" r="5.8"/><path class="st0" d="M-707.5 748.5c-.8.6-1.7.9-2.8.9-2.7 0-4.8-2.2-4.8-4.9s2.1-4.9 4.8-4.9c1.3 0 2.5.6 3.4 1.5-.9 1.1-1.4 2.7-1.4 4.2 0 1.2.2 2.3.8 3.2zM-701.1 752.5c6.7 0 9.3 4.9 9.3 10.3h-18.3v-.1c0-5.4 2.4-10.2 9-10.2z"/></svg>