<svg id="图层_1" xmlns="http://www.w3.org/2000/svg" viewBox="0 0 200 70"><style>.st0{fill:#008bd5}.st1{fill:#00aedc}.st2{fill:#262626}</style><path id="XMLID_296_" class="st0" d="M69.4 24L45.5 64.7h20.8c11.1 0 20.2-9.2 20.2-20.5 0-10.2-7.4-18.7-17.1-20.2z"/><path id="XMLID_293_" class="st1" d="M66.7 23.7C64.5 13.6 55.5 5.9 44.6 5.3v56.2l22.1-37.8z"/><path id="XMLID_290_" class="st0" d="M42.2 5.3c-10.9.5-19.9 8.1-22.3 18.1l22.3 38V5.3z"/><path id="XMLID_264_" class="st1" d="M0 44.2c0 11.3 9 20.5 20.2 20.5h21L17.4 23.9C7.6 25.3 0 33.9 0 44.2z"/><path id="XMLID_265_" class="st2" d="M96.5 57.2c0-.5 0-.8-.1-1.3h1.4c-.1.5-.1.8-.1 1.3v.5h.8c.8 0 1.2 0 1.7-.1v.9c-.5 0-.9-.1-1.7-.1h-.9v4.1c0 .4.1.6.2.7.1.1.5.2.9.2.5 0 .8-.1 1.3-.3l.4.8c-.7.2-1.2.3-1.8.3-.7 0-1.3-.1-1.7-.4-.3-.3-.4-.6-.4-1.3v-4.1h-.7c-.7 0-1 0-1.5.1v-.9c.5 0 .8.1 1.5.1h.7v-.5z"/><path id="XMLID_267_" class="st2" d="M103.3 60.9c.1.9.2 1.4.6 1.8.5.5 1.1.7 1.9.7.7 0 1.3-.2 1.8-.6.3-.2.4-.4.5-.8l1.1.3c-.3.6-.5.8-.9 1.1-.7.5-1.5.8-2.5.8-2.3 0-3.7-1.3-3.7-3.3 0-1.2.5-2.2 1.3-2.8.6-.4 1.4-.6 2.3-.6 2.1 0 3.4 1.1 3.5 3.1v.4h-5.9v-.1zm4.7-.7c-.1-.6-.2-1-.6-1.4s-1-.6-1.7-.6-1.2.2-1.7.7c-.4.4-.5.7-.6 1.3h4.6z"/><path id="XMLID_270_" class="st2" d="M110.6 64c.1-.5.1-.8.1-1.3V59c0-.5 0-1-.1-1.3h1.2v1.2c.3-.4.5-.6.9-.8.6-.4 1.3-.5 2.1-.5 1.7 0 2.6.8 2.6 2.2v3c0 .6 0 .9.1 1.3h-1.4c.1-.4.1-.8.1-1.3V60c0-1.2-.6-1.7-1.7-1.7-1.3 0-2.6 1.1-2.6 2.2v2.2c0 .5 0 .9.1 1.3h-1.4z"/><path id="XMLID_272_" class="st2" d="M119.9 58.6c-.4-.5-.6-.7-.9-1h1.5c.1.2.4.6.6.8l1.4 1.7 1.4-1.7c.2-.2.4-.6.6-.8h1.4c-.3.3-.6.6-.9 1l-1.8 2.1 1.9 2.2c.3.3.7.8 1.1 1.1h-1.5c-.2-.4-.2-.4-.6-.9l-1.6-1.8-1.6 1.9c-.3.3-.3.3-.6.8h-1.5l.2-.2c.1 0 .3-.3.8-.8l2-2.3-1.9-2.1z"/><path id="XMLID_274_" class="st2" d="M133.1 59.6c-.2-.5-.3-.7-.6-.9-.4-.3-.9-.5-1.5-.5-1.5 0-2.5 1-2.5 2.6s1 2.6 2.6 2.6c.7 0 1.2-.2 1.6-.5.2-.2.3-.4.5-.9l1.1.3c-.2.5-.4.7-.7 1-.6.6-1.5.9-2.7.9-2.3 0-3.7-1.3-3.7-3.3 0-2.1 1.4-3.4 3.7-3.4 1.2 0 2.2.4 2.8 1.1.2.2.3.4.5.8l-1.1.2z"/><path id="XMLID_276_" class="st2" d="M138.2 55c-.1.4-.1.8-.1 1.4v6.4c0 .5 0 .8.1 1.3h-1.4c.1-.5.1-.9.1-1.3v-6.4c0-.6 0-.9-.1-1.3h1.4V55z"/><path id="XMLID_278_" class="st2" d="M140.5 60.8c0-2.1 1.4-3.4 3.7-3.4 2.2 0 3.7 1.3 3.7 3.4 0 1.1-.5 2.1-1.3 2.7-.6.4-1.4.7-2.4.7-2.3 0-3.7-1.3-3.7-3.4zm3.7 2.6c1.5 0 2.5-1 2.5-2.6s-1-2.6-2.4-2.6c-1.5 0-2.5 1-2.5 2.6-.1 1.6.9 2.6 2.4 2.6z"/><path id="XMLID_281_" class="st2" d="M156 57.6c-.1.5-.1.8-.1 1.3v3.7c0 .6 0 .9.1 1.3h-1.2v-.7c0-.2 0-.4.1-.6-.3.5-.5.6-.9.9-.6.3-1.3.5-2 .5-1.7 0-2.6-.8-2.6-2.2v-3c0-.6 0-.9-.1-1.3h1.4c-.1.4-.1.8-.1 1.3v2.8c0 1.1.6 1.7 1.7 1.7.5 0 .9-.1 1.3-.3.8-.4 1.3-1.2 1.3-1.9V59c0-.5 0-.9-.1-1.3h1.2v-.1z"/><path id="XMLID_283_" class="st2" d="M163 63.4v-.5c-.2.3-.3.5-.6.6-.6.4-1.2.5-2 .5s-1.5-.2-2-.6c-.7-.6-1.1-1.6-1.1-2.8s.4-2.2 1.1-2.7c.5-.4 1.2-.6 2-.6s1.4.2 2 .5c.3.2.4.3.6.7v-.2-2.2c0-.5 0-.9-.1-1.4h1.3c-.1.5-.1.8-.1 1.3v6.3c0 .6 0 .9.1 1.4H163v-.3zm-2.3 0c1.4 0 2.3-1 2.3-2.6s-.9-2.6-2.3-2.6c-1.3 0-2.1.9-2.1 2.5 0 1.8.8 2.7 2.1 2.7z"/><g id="XMLID_286_"><path id="XMLID_287_" class="st2" d="M179.3 60.1c-.2-.4-.3-.6-.5-.8-.4-.3-.9-.5-1.5-.5-1.5 0-2.5 1-2.5 2.5s1 2.5 2.5 2.5c.7 0 1.2-.2 1.5-.5.2-.2.3-.4.5-.8l1.1.2c-.2.5-.4.7-.6 1-.5.6-1.5.9-2.6.9-2.2 0-3.6-1.2-3.6-3.1 0-2 1.4-3.2 3.6-3.2 1.2 0 2.1.3 2.7 1 .2.2.3.4.5.7l-1.1.1z"/><path id="XMLID_289_" class="st2" d="M181.4 61.2c0-1.9 1.4-3.2 3.6-3.2s3.6 1.2 3.6 3.2c0 1.1-.5 2-1.3 2.6-.6.4-1.4.6-2.3.6-2.2 0-3.6-1.2-3.6-3.2zm3.6 2.5c1.5 0 2.4-.9 2.4-2.5 0-1.5-.9-2.5-2.4-2.5s-2.5 1-2.5 2.5c.1 1.6 1 2.5 2.5 2.5z"/><g id="XMLID_294_"><path id="XMLID_295_" class="st2" d="M199.2 63.8h-1.1v-3.2c0-.6-.1-1-.3-1.3s-.6-.4-1.1-.4c-.4 0-.8.2-1.1.5s-.4.7-.4 1.2v3.2H194v-3.3c0-1.1-.5-1.6-1.4-1.6-.4 0-.8.2-1.1.5s-.4.7-.4 1.2v3.2H190v-5.6h1.1v.9c.5-.7 1.1-1 2-1 .4 0 .8.1 1.1.3s.6.5.7.8c.5-.8 1.2-1.1 2.1-1.1 1.4 0 2.1.8 2.1 2.3l.1 3.4z"/></g></g><path id="XMLID_298_" class="st2" d="M168.9 62.8h1.7v1.7h-1.7z"/><path id="XMLID_299_" class="st2" d="M136.7 21.4l-6.4-1.9v3.2l6.4 2.1v-3.4zm11 18.7c.6-2.3.6-4.5.6-4.5h1.8v12.2h3.5V35.5h6.8s3.4.6 3.4-2.8V28s0-.3-.1-.7c-.4-1.7-2.4-1.5-2.4-1.5h-7.7v-2.6h9.5l.9-2.6h-10.5V18h-3.8v2.6h-9.6v2.6h9.8v2.6h-7.2c-.2 0-2.5-.2-2.5 2.6-.1 3.1 0 4.7 0 4.7s0 2.3 2.6 2.5c2.3-.1 2.3 0 2.3 0s.3 6.6-5.8 8.4v2.6s6.5 0 8.4-6.5zm5.9-12.1h6.5s.8-.1.8.8v4.1s0 .6-.6.7h-6.6l-.1-5.6zm-9.5 5.6c-.9-.1-.9-.8-.9-.8v-3.9c0-.9.9-.8.9-.8h5.9v5.6c.1-.1-5-.1-5.9-.1zM197 20.8l-27.7-.1v2.6h26.5l1.2-2.5zm-38.2 16.4h-3.2c1 9.1 9 9.4 9 9.4v-2.5c-5.1-1.5-5.8-6.9-5.8-6.9zm-15.2 12.6c-2.2-.4-5.7-1.2-7-3.4-.1-3.2 0-18.2 0-18.2H130v2.6h3.3v16.1l-3 3.7.1.1 2.3 2 2.8-3.4s3.9 3.5 14.5 3.7c3.7.1 11.1-.4 16.3-1.7v-2.6s-13.3 3.2-22.7 1.1zm47.9-10.5L195 49s-9.9 3.1-20.9.3c-.4-.4-.3-.4-.1-1.4.3-1 4-13.4 4-13.4h-3.7L170.2 48s-1.2 2.9 1.8 3.9c1.9.4 14.1 3.4 26.9-1.1-1.1-3.3-4.2-11.3-4.2-11.3h-3.2v-.2zm-73.3 5.4v-2.8c-5.2-3.9-5.1-13.3-5.1-13.3h-2.6c-.1 15 7.7 16.1 7.7 16.1zm48.3-14.2V33h32.7l.8-2.5h-33.5zm-67.3-9.9c-2.8.3-4.2.9-5.2 2.2v28.4s2.2 2.2 7.4 1.7c2.1-.2 4-1.2 4.4-1.9.1-1 0-27.9 0-27.9s-1.2-2.8-6.6-2.5zm3.7 12.9h-4v1.9h4v14.4s-2.6 1.3-5.8.2c0-3.3-.1-26-.1-26s2.6-2 5.9.1c.1 6.3 0 9.4 0 9.4zm21.8-15.6h-3.1v5.6l-13.2.1v2.8h13.2v22.4s-2.6 2.1-10.5.6c-.1 2.2 0 2.5 0 2.5s9.4 2.3 13.6-1.7c.1-4.7 0-23.8 0-23.8h2.6l.9-2.9h-3.5v-5.6z"/></svg>