<svg id="图层_1" xmlns="http://www.w3.org/2000/svg" viewBox="-749 735 32 32"><style>.st0{fill:#999}</style><path class="st0" d="M-735.8 761.4h-11.1v-1.7c0-1.4 3.1-3 6.2-4.5l.1-.1c3.8-1.9 2.4-4.7 1.3-7-.7-1.5-1.5-3.2-1.5-5 0-3.3 2.2-6 4.9-6s4.9 2.7 4.9 6c0 1.9-.8 3.6-1.5 5-.3.7-.6 1.3-.8 2-.2.5.1 1.1.6 1.3.5.2 1.1-.1 1.3-.6.2-.5.5-1.1.8-1.8.8-1.6 1.7-3.6 1.7-5.9 0-4.5-3.1-8.1-7-8.1s-7 3.6-7 8.1c0 2.3.9 4.3 1.7 5.9 1.3 2.7 1.4 3.4-.4 4.3l-.1.1c-3.9 1.9-7.3 3.6-7.3 6.3v1.8c0 1.1.9 2 2 2h11.1c.6 0 1-.5 1-1.1.1-.5-.4-1-.9-1zm8.6-20.9c2.6.9 3.7 4.2 2.6 7.3-.2.5.1 1.1.7 1.3.5.2 1.1-.1 1.3-.6 1.5-4.2-.2-8.7-3.8-10-.5-.2-1.1.1-1.3.7-.3.6 0 1.1.5 1.3z"/><path class="st0" d="M-725.2 750.6c-4.5 0-8.2 3.7-8.2 8.2 0 4.5 3.7 8.2 8.2 8.2 4.5 0 8.2-3.7 8.2-8.2-.1-4.5-3.7-8.2-8.2-8.2zm-5.2 5.6c0-.3.3-.4.3-.4l2.9-2.1s.1-.1.3-.1c.2 0 .2.1.2.1v1.7h2.8c2.3 0 2.3 2.6 2.3 2.6 0-.8-2.3-1.1-2.3-1.1h-2.9v1.6s0 .1-.2.2h-.3l-3-2c.1-.1-.1-.2-.1-.5zm10 5.6s-2.9 2-2.9 2.1c0 0-.1.1-.2.1-.2 0-.2-.1-.2-.1v-1.7h-2.8c-2.3 0-2.3-2.6-2.3-2.6 0 .8 2.3 1.1 2.3 1.1h2.9v-1.6s0-.1.2-.2h.3l3 2s.2.1.2.4c-.2.4-.5.5-.5.5z"/></svg>