<?xml version="1.0" encoding="utf-8"?>
<!-- Generator: Adobe Illustrator 19.0.0, SVG Export Plug-In . SVG Version: 6.00 Build 0)  -->
<svg version="1.1" id="图层_1" xmlns="http://www.w3.org/2000/svg" xmlns:xlink="http://www.w3.org/1999/xlink" x="0px" y="0px"
	 viewBox="-105 106 32 32" style="enable-background:new -105 106 32 32;" xml:space="preserve">
<style type="text/css">
	.st0{fill:#fff;}
</style>
<g>
	<g>
		<g>
			<path class="st0" d="M-79,106h-20c-3.3,0-6,2.7-6,6v20c0,3.3,2.7,6,6,6h20c3.3,0,6-2.7,6-6v-20C-73,108.7-75.7,106-79,106z
				 M-75,132c0,2.2-1.8,4-4,4h-20c-2.2,0-4-1.8-4-4v-20c0-2.2,1.8-4,4-4h20c2.2,0,4,1.8,4,4V132z"/>
		</g>
	</g>
	<rect x="-105" y="114" class="st0" width="32" height="2"/>
	<g>
		<path class="st0" d="M-93.9,130.3l-5.9-3.6v-1.2l5.9-3.8v1.9l-4.2,2.4v0l4.2,2.3V130.3z"/>
		<path class="st0" d="M-86.5,118.9l-4.4,13.9h-1.7l4.4-13.9H-86.5z"/>
		<path class="st0" d="M-79.1,126.6l-5.9,3.6v-1.9l4.2-2.3v0l-4.2-2.5v-1.9l5.9,3.7V126.6z"/>
	</g>
</g>
</svg>
