<?xml version="1.0" encoding="utf-8"?>
<!-- Generator: Adobe Illustrator 19.0.0, SVG Export Plug-In . SVG Version: 6.00 Build 0)  -->
<svg version="1.1" id="图层_1" xmlns="http://www.w3.org/2000/svg" xmlns:xlink="http://www.w3.org/1999/xlink" x="0px" y="0px"
	 viewBox="-2.1 14 32 24" style="enable-background:new -2.1 14 32 24;" xml:space="preserve">
<style type="text/css">
	.st0{fill:#FFFFFF;}
</style>
<g>
	<g transform="scale(0.03125, 0.03125)">
		<path class="st0" d="M517.1,751.9h295.1V803H517.1V751.9L517.1,751.9z M607,1127.2l-2.6-2.6h-580c-23.1,0-41.1-17.9-41.1-40.9
			l0-536.1c0-23,18-43.4,41.1-43.4h826.4c23.1,0,41.1,17.9,41.1,40.9v321.7l2.6,2.6c12.8,7.7,25.7,17.9,35.9,30.6l10.3,12.8v-378
			c0-43.4-35.9-79.2-79.6-79.2H11.6c-43.6,0-79.6,35.7-79.6,79.2v561.8c0,43.4,35.9,79.2,79.6,79.2h628.8l-7.7-10.2
			C622.4,1152.8,614.7,1140,607,1127.2L607,1127.2z M517.1,864.2h87.3l0,51.1h-87.3L517.1,864.2L517.1,864.2z M517.1,642.1h295.1
			v51.1H517.1V642.1L517.1,642.1z M786.6,871.9c-94.9,0-169.4,74-169.4,168.5c0,91.9,77,168.5,169.4,168.5
			c95,0,169.4-74.1,169.4-168.5S879,871.9,786.6,871.9L786.6,871.9z M784.1,1142.5c-7.7,7.7-23.1,7.7-33.4,0l-71.9-71.5
			c-7.7-7.7-7.7-23,0-30.6c7.7-7.7,23.1-7.7,33.4,0l56.5,56.2L879,989.3c7.7-7.7,23.1-7.7,33.4,0c7.7,7.7,7.7,23,0,30.6
			L784.1,1142.5L784.1,1142.5z M258.9,901.7c-71.3,0-129.4-58.6-129.4-130.6s58-130.6,129.4-130.6s129.4,58.6,129.4,130.6
			C388.2,843.2,330.2,901.7,258.9,901.7L258.9,901.7z M258.9,683.6c-47.5,0-86.2,39.3-86.2,87.6c0,48.3,38.7,87.6,86.2,87.6
			s86.2-39.3,86.2-87.6C345.1,722.9,306.4,683.6,258.9,683.6L258.9,683.6z M431.4,963.4c-7.3,0-14.4-3.7-18.5-10.4l-70.7-116.5
			c-6.1-10.2-2.9-23.4,7.3-29.5c10.2-6.2,23.5-2.9,29.6,7.3l70.7,116.5c6.1,10.2,2.9,23.4-7.3,29.5
			C439,962.5,435.2,963.4,431.4,963.4L431.4,963.4z M431.4,963.4c-1.8,0-3.6-0.2-5.4-0.7l-70.7-18c-11.5-2.9-18.5-14.7-15.6-26.2
			c3-11.5,14.7-18.5,26.3-15.5l70.7,18c11.5,2.9,18.5,14.7,15.6,26.1C449.8,957,441,963.4,431.4,963.4L431.4,963.4z M341.9,1005.4
			c-2.1,0-4.3-0.3-6.4-1c-11.4-3.5-17.7-15.6-14.2-26.9l18.8-59.9c3.6-11.3,15.6-17.5,27-14.1c11.4,3.5,17.7,15.6,14.2,26.9
			l-18.8,59.9C359.7,999.5,351.1,1005.4,341.9,1005.4L341.9,1005.4z M342,1005.4c-7.5,0-14.8-3.9-18.8-10.8l-57.6-100.3
			c-5.9-10.3-2.3-23.4,8.1-29.3c10.3-5.9,23.5-2.3,29.4,8l57.6,100.3c5.9,10.3,2.3,23.4-8,29.3
			C349.3,1004.5,345.6,1005.4,342,1005.4L342,1005.4z M86.3,963.4c-3.8,0-7.6-1-11.1-3.1c-10.2-6.1-13.5-19.3-7.3-29.5l70.5-116.5
			c6.2-10.2,19.4-13.4,29.6-7.3c10.2,6.1,13.5,19.3,7.3,29.5L104.6,953C100.7,959.8,93.6,963.4,86.3,963.4L86.3,963.4z M86.3,963.4
			c-9.6,0-18.4-6.4-20.9-16.1c-3-11.5,4-23.2,15.6-26.1l70.7-18c11.6-2.9,23.3,4,26.3,15.5s-4,23.2-15.6,26.2l-70.7,18
			C89.9,963.3,88,963.4,86.3,963.4L86.3,963.4z M175.7,1005.4c-9.2,0-17.7-5.9-20.6-15.1l-18.8-59.9c-3.6-11.3,2.8-23.4,14.2-26.9
			c11.4-3.4,23.5,2.8,27,14.1l18.8,59.9c3.6,11.3-2.8,23.4-14.2,26.9C180,1005.1,177.9,1005.4,175.7,1005.4L175.7,1005.4z
			 M175.7,1005.4c-3.6,0-7.3-0.9-10.7-2.8c-10.4-5.9-13.9-19-8.1-29.3L214.4,873c5.9-10.3,19.1-13.9,29.4-8
			c10.4,5.9,13.9,19,8.1,29.3l-57.5,100.3C190.5,1001.5,183.2,1005.4,175.7,1005.4L175.7,1005.4z"/>
	</g>
</g>
</svg>
