<?xml version="1.0" encoding="utf-8"?>
<!-- Generator: Adobe Illustrator 19.0.0, SVG Export Plug-In . SVG Version: 6.00 Build 0)  -->
<svg version="1.1" id="图层_1" xmlns="http://www.w3.org/2000/svg" xmlns:xlink="http://www.w3.org/1999/xlink" x="0px" y="0px"
	 viewBox="225.4 13 32 24" style="enable-background:new 225.4 13 32 24;" xml:space="preserve">
<style type="text/css">
	.st0{fill:#FFFFFF;}
</style>
<g>
	<g transform="scale(0.1953125, 0.1953125)">
		<path class="st0" d="M1247.6,115.3h47.2v8.3h-47.2V115.3L1247.6,115.3L1247.6,115.3z M1262,176.2l-0.4-0.4h-92.8
			c-3.7,0-6.6-2.9-6.6-6.6V82.2c0-3.7,2.9-7,6.6-7H1301c3.7,0,6.6,2.9,6.6,6.6v52.2l0.4,0.4c2.1,1.2,4.1,2.9,5.7,5l1.6,2.1V80.1
			c0-7-5.7-12.8-12.7-12.8h-135.9c-7,0-12.7,5.8-12.7,12.8v91.1c0,7,5.7,12.8,12.7,12.8h100.6l-1.2-1.7
			C1264.5,180.3,1263.2,178.2,1262,176.2L1262,176.2L1262,176.2z M1247.6,133.5h14v8.3h-14V133.5L1247.6,133.5L1247.6,133.5z
			 M1247.6,97.5h47.2v8.3h-47.2V97.5L1247.6,97.5L1247.6,97.5z M1180.7,94.2c-3.3,0-5.7,2.5-5.7,5.4v54.2c0,2.9,2.5,5.4,5.7,5.4
			h50.9c3.3,0,5.7-2.5,5.7-5.4V100c0-2.9-2.9-5.4-5.7-5.4h-50.9V94.2L1180.7,94.2z M1186.5,151.7c0-1.2,0.4-4.1,1.6-5.8
			c0.4-0.4,0.8-0.8,0.8-1.2c1.2-1.7,2.5-3.7,8.2-4.6c2.1-0.4,3.7-1.2,4.9-2.5c1.6-2.5,1.2-5.8,1.2-7v-2.1v-0.4v-0.4
			c0,0-3.7-5-3.7-8.7v-3.7c0,0,0-5.4,2.5-8.3c0.8-0.8,2.1-1.7,3.7-1.7l5.7,2.1h0.4c5.7,0,6.2,7.5,6.2,7.9v4.6c0,0,0,5.8-3.7,7.5
			l-0.4,0.4v0.4v2.1c-0.4,1.2-1.6,5,0,7.5c0.8,1.7,2.5,2.5,4.5,2.5c6.2,0.8,8.2,3.3,9.4,4.6l0.8,0.8c0,0,0.8,0.8,1.6,5.8h-43.9
			V151.7L1186.5,151.7z M1290.7,134.8c-15.2,0-27.1,12-27.1,27.3c0,14.9,12.3,27.3,27.1,27.3c15.2,0,27.1-12,27.1-27.3
			S1305.5,134.8,1290.7,134.8L1290.7,134.8L1290.7,134.8z M1290.3,178.7c-1.2,1.2-3.7,1.2-5.3,0l-11.5-11.6c-1.2-1.2-1.2-3.7,0-5
			c1.2-1.2,3.7-1.2,5.3,0l9,9.1l17.7-17.4c1.2-1.2,3.7-1.2,5.3,0c1.2,1.2,1.2,3.7,0,5L1290.3,178.7L1290.3,178.7L1290.3,178.7z"/>
	</g>
</g>
</svg>
