<?xml version="1.0" encoding="utf-8"?>
<!-- Generator: Adobe Illustrator 19.0.0, SVG Export Plug-In . SVG Version: 6.00 Build 0)  -->
<svg version="1.1" id="图层_1" xmlns="http://www.w3.org/2000/svg" xmlns:xlink="http://www.w3.org/1999/xlink" x="0px" y="0px"
	 viewBox="-281 404.9 32 32" style="enable-background:new -281 404.9 32 32;" xml:space="preserve">
<style type="text/css">
	.st0{fill:#36B7F1;}
</style>
<path class="st0" d="M-254,436.8h-22.4c-2.5,0-4.5-2-4.5-4.5V410c0-2.5,2.1-5,4.5-5h12.5v2.3h-12.5c-1.2,0-2.3,1-2.3,2.3l0,22.8
	c0,1.2,1,2.2,2.2,2.2l22.8,0c1.2,0,2.3-1,2.3-2.3v-12.5h2.3v12.5C-249,434.7-251.6,436.8-254,436.8z M-250.2,415.2
	c-0.6,0-1.1-0.5-1.1-1.1l0-5.4l-17.3,16.5c-0.5,0.4-1.2,0.4-1.6,0c-0.5-0.4-0.5-1.1,0-1.6l17.1-16.4l-5,0c-0.6,0-1.1-0.5-1.1-1.1
	s0.5-1.1,1.1-1.1h7.9c0.6,0,1.2,0.5,1.2,1.1v8C-249,414.7-249.5,415.2-250.2,415.2z"/>
</svg>
