<?xml version="1.0" encoding="utf-8"?>
<!-- Generator: Adobe Illustrator 19.0.0, SVG Export Plug-In . SVG Version: 6.00 Build 0)  -->
<svg version="1.1" id="图层_1" xmlns="http://www.w3.org/2000/svg" xmlns:xlink="http://www.w3.org/1999/xlink" x="0px" y="0px"
	 viewBox="-3 5 32 32" style="enable-background:new -3 5 32 32;" xml:space="preserve">
<style type="text/css">
	.st0{fill:#999999;}
</style>
<path class="st0" d="M25.5,16.3"/>
<path class="st0" d="M28.7,20.6c-0.9,6.9-7,13.4-15.3,13.4c-3.2,0-6.9-1.3-7.5-3.2c-0.5-1.7-0.7-4.1-3.1-3.5c-3,0.7-5.6-0.3-5.7-3
	C-3.1,14.7,4.5,9.1,13,8.1C21.2,7.2,29.8,11.9,28.7,20.6L28.7,20.6z M12.9,9.7c-7.4,0.8-14.2,6.5-14.2,14c0,2.7,1.5,2.5,4.1,2.2
	c1.7-0.2,3.9,0.6,4.3,3.5c0.2,1.8,2.6,3.1,6.2,3.1c6.6,0,12.8-5,13.7-11.4C28.3,12.6,20.2,8.8,12.9,9.7L12.9,9.7z M19.9,17.8
	c-0.9,0-1.6-0.7-1.6-1.6c0-0.9,0.7-1.6,1.6-1.6c0.9,0,1.6,0.7,1.6,1.6C21.5,17,20.8,17.8,19.9,17.8L19.9,17.8z M14.6,29.1
	c-1.6,0-2.8-1.3-2.8-2.8c0-1.6,1.3-2.8,2.8-2.8c1.6,0,2.8,1.3,2.8,2.8C17.5,27.9,16.2,29.1,14.6,29.1L14.6,29.1z M14.2,16.1
	c-0.9,0-1.6-0.7-1.6-1.6c0-0.9,0.7-1.6,1.6-1.6c0.9,0,1.6,0.7,1.6,1.6C15.8,15.4,15.1,16.1,14.2,16.1L14.2,16.1z M8.5,17.8
	c-0.9,0-1.6-0.7-1.6-1.6c0-0.9,0.7-1.6,1.6-1.6c0.9,0,1.6,0.7,1.6,1.6C10.2,17,9.4,17.8,8.5,17.8L8.5,17.8z M4.5,21.8
	c-0.9,0-1.6-0.7-1.6-1.6s0.7-1.6,1.6-1.6c0.9,0,1.6,0.7,1.6,1.6S5.4,21.8,4.5,21.8L4.5,21.8z"/>
</svg>
