<?xml version="1.0" encoding="utf-8"?>
<!-- Generator: Adobe Illustrator 19.0.0, SVG Export Plug-In . SVG Version: 6.00 Build 0)  -->
<svg version="1.1" id="图层_1" xmlns="http://www.w3.org/2000/svg" xmlns:xlink="http://www.w3.org/1999/xlink" x="0px" y="0px"
	 viewBox="-3 5 32 32" style="enable-background:new -3 5 32 32;" xml:space="preserve">
<style type="text/css">
	.st0{fill:#999999;}
</style>
<polygon class="st0" points="21.3,12.6 21.3,17.2 19.4,14.8 14.7,14.8 14.7,28.2 18,28.2 18,29.4 8.2,29.4 8.2,28.2 11.5,28.2 
	11.5,14.8 6.6,14.8 4.7,17.2 4.7,12.6 "/>
<g>
	<g>
		<path class="st0" d="M21,5H5c-4.4,0-8,3.6-8,8v16c0,4.4,3.6,8,8,8h16c4.4,0,8-3.6,8-8V13C29,8.6,25.4,5,21,5z M27,27
			c0,4.4-3.6,8-8,8H7c-4.4,0-8-3.6-8-8V15c0-4.4,3.6-8,8-8h12c4.4,0,8,3.6,8,8V27z"/>
	</g>
</g>
</svg>
