<?xml version="1.0" encoding="utf-8"?>
<!-- Generator: Adobe Illustrator 19.0.0, SVG Export Plug-In . SVG Version: 6.00 Build 0)  -->
<svg version="1.1" id="图层_1" xmlns="http://www.w3.org/2000/svg" xmlns:xlink="http://www.w3.org/1999/xlink" x="0px" y="0px"
	 viewBox="-3 5 32 32" style="enable-background:new -3 5 32 32;" xml:space="preserve">
<style type="text/css">
	.st0{fill:#999999;}
</style>
<path class="st0" d="M29.1,32.8V9.3C29.1,5,25.4,5,24.8,5H1.3C0.7,5-3,5-3,9.3v23.5C-3,37,1.3,37,1.3,37h23.5c1.2,0,2.1-0.4,2.7-0.9
	c0,0,0.1-0.1,0.1-0.1c0.1-0.1,0.3-0.3,0.4-0.4c0,0,0.1-0.1,0.1-0.1C29.1,34.3,29.1,32.8,29.1,32.8z M1.4,7.3h23.1
	c0.6,0,2.1,0,2.1,2.1v23.1c0,0,0,1.2-0.9,1.8c-1.5-1.6-5.8-6.1-6.8-7.1c-0.8-0.8-1.6-1-2.1-0.9c-1.1,0-1.8,0.7-1.8,0.7l-2.2,1.9
	c-0.4,0.4-0.8,0.1-1-0.1c-1.4-1.4-4-3.7-4.3-4c-0.2-0.2-1-0.9-2.1-0.9c-0.6,0-1.5,0.2-2.3,1c-0.8,0.8-2.4,2.3-3.6,3.4V9.4
	C-0.7,7.3,0.8,7.3,1.4,7.3z M-0.7,32.4v-1c1-0.9,4-3.6,5.3-4.9c0.2-0.2,0.4-0.4,0.7-0.4c0.3,0,0.5,0.2,0.5,0.2l0,0l0.1,0.1
	c0,0,2.9,2.6,4.2,3.9c0.8,0.8,1.7,1,2.2,1c1.2,0,2-0.8,2-0.8l2.2-1.9c0.2-0.2,0.4-0.2,0.8,0.1c0.8,0.8,3.7,3.8,5.6,5.8
	c-5,0-19.4,0-21.3,0C-0.8,34.6-0.7,32.4-0.7,32.4z M18.4,22.4c3,0,5.4-2.4,5.4-5.4s-2.4-5.4-5.4-5.4S13,13.9,13,16.9
	S15.4,22.4,18.4,22.4z M18.4,13.8c1.7,0,3.1,1.4,3.1,3.1c0,1.7-1.4,3.1-3.1,3.1s-3.1-1.4-3.1-3.1C15.3,15.2,16.7,13.8,18.4,13.8z"/>
</svg>
