<?xml version="1.0" encoding="utf-8"?>
<!-- Generator: Adobe Illustrator 19.0.0, SVG Export Plug-In . SVG Version: 6.00 Build 0)  -->
<svg version="1.1" id="图层_1" xmlns="http://www.w3.org/2000/svg" xmlns:xlink="http://www.w3.org/1999/xlink" x="0px" y="0px"
	 viewBox="0 0 20 20" style="enable-background:new 0 0 20 20;" xml:space="preserve">
<style type="text/css">
	.st0{fill:#272636;}
</style>
<g id="XMLID_8_">
	<g id="XMLID_9_" transform="scale(0.1953125, 0.1953125)">
		<path id="XMLID_10_" class="st0" d="M86.6,0H15.8c-3.5,0-6.3,2.8-6.3,6.3v85c0,3.5,2.8,6.3,6.3,6.3h45.3c-1.6-2.2-2.9-4.5-3.9-7.1
			H18.7c-1.7,0-3.1-1.4-3.1-3.1l0-77.2c0-1.7,1.4-3.1,3.1-3.1h65c1.7,0,3.1,1.4,3.1,3.1V54c2.1,0.3,4.2,0.8,6.1,1.6V6.3
			C92.9,2.8,90.1,0,86.6,0z M79.4,34.8v-4c0-0.7-0.6-1.3-1.3-1.3H24.5c-0.7,0-1.3,0.6-1.3,1.3v4c0,0.7,0.6,1.3,1.3,1.3H78
			C78.8,36.1,79.4,35.5,79.4,34.8z M24.5,22H78c0.7,0,1.3-0.6,1.3-1.3v-4c0-0.7-0.6-1.3-1.3-1.3l-53.5,0c-0.7,0-1.3,0.6-1.3,1.3v4
			C23.2,21.4,23.8,22,24.5,22z M57.1,44.9c0-0.7-0.6-1.3-1.3-1.3l-31.2,0c-0.7,0-1.3,0.6-1.3,1.3v4c0,0.7,0.6,1.3,1.3,1.3h31.2
			c0.7,0,1.3-0.6,1.3-1.3V44.9z M55.7,57.7H24.5c-0.7,0-1.3,0.6-1.3,1.3v4c0,0.7,0.6,1.3,1.3,1.3h31.2c0.7,0,1.3-0.6,1.3-1.3v-4
			C57.1,58.3,56.5,57.7,55.7,57.7z M84,48.8L60.8,79.2h11.8l-2.9,23.2L92.9,72H81.1L84,48.8z"/>
	</g>
</g>
</svg>
