<?xml version="1.0" encoding="utf-8"?>
<!-- Generator: Adobe Illustrator 19.0.0, SVG Export Plug-In . SVG Version: 6.00 Build 0)  -->
<svg version="1.1" id="图层_1" xmlns="http://www.w3.org/2000/svg" xmlns:xlink="http://www.w3.org/1999/xlink" x="0px" y="0px"
	 viewBox="0 0 20 20" style="enable-background:new 0 0 20 20;" xml:space="preserve">
<style type="text/css">
	.st0{fill-rule:evenodd;clip-rule:evenodd;fill:#272536;}
</style>
<g id="XMLID_2_">
	<path id="XMLID_3_" class="st0" d="M18.9,3.4H1.1c-0.3,0-0.6-0.3-0.6-0.6c0-0.3,0.3-0.6,0.6-0.6h17.7c0.3,0,0.6,0.3,0.6,0.6
		C19.4,3.2,19.2,3.4,18.9,3.4L18.9,3.4L18.9,3.4z M13.1,1.1H6.9c-0.3,0-0.6-0.3-0.6-0.6C6.3,0.3,6.5,0,6.9,0h6.3
		c0.3,0,0.6,0.3,0.6,0.6C13.7,0.9,13.5,1.1,13.1,1.1L13.1,1.1L13.1,1.1z M7.4,16V6.3C7.4,6,7.7,5.7,8,5.7c0.3,0,0.6,0.3,0.6,0.6V16
		c0,0.3-0.3,0.6-0.6,0.6C7.7,16.6,7.4,16.3,7.4,16L7.4,16L7.4,16z M11.4,16V6.3c0-0.3,0.3-0.6,0.6-0.6c0.3,0,0.6,0.3,0.6,0.6V16
		c0,0.3-0.3,0.6-0.6,0.6C11.7,16.6,11.4,16.3,11.4,16L11.4,16L11.4,16z M3.4,5.1C3.7,5.1,4,5.4,4,5.7v0.7v2.2v9.1
		c0,0.6,0.5,1.1,1.1,1.1h9.7c0.6,0,1.1-0.5,1.1-1.1V8.6V6.4V5.7c0-0.3,0.3-0.6,0.6-0.6c0.3,0,0.6,0.3,0.6,0.6V8v0.6v9.7
		c0,0.9-0.8,1.7-1.7,1.7H4.6c-0.9,0-1.7-0.8-1.7-1.7V9.6v-1V8V5.7C2.9,5.4,3.1,5.1,3.4,5.1L3.4,5.1L3.4,5.1z M3.4,5.1L3.4,5.1"/>
</g>
</svg>
